M48
; DRILL file {KiCad (6.0.9)} date Wed May 10 12:51:23 2023
; FORMAT={-:-/ absolute / metric / decimal}
; #@! TF.CreationDate,2023-05-10T12:51:23+05:30
; #@! TF.GenerationSoftware,Kicad,Pcbnew,(6.0.9)
; #@! TF.FileFunction,Plated,1,2,PTH
FMAT,2
METRIC
; #@! TA.AperFunction,Plated,PTH,ViaDrill
T1C0.300
; #@! TA.AperFunction,Plated,PTH,ViaDrill
T2C0.500
; #@! TA.AperFunction,Plated,PTH,ComponentDrill
T3C0.750
; #@! TA.AperFunction,Plated,PTH,ComponentDrill
T4C0.800
; #@! TA.AperFunction,Plated,PTH,ComponentDrill
T5C1.800
%
G90
G05
T1
X10.6Y-10.2
X12.5Y-14.6
X13.3Y-9.1
X14.0Y-32.9
X14.7Y-31.9
X15.2Y-29.4
X15.4Y-40.1
X15.4Y-41.1
X15.7Y-8.7
X15.7Y-14.0
X16.25Y-42.4
X16.6Y-31.5
X17.6Y-28.4
X17.6Y-45.3
X18.1Y-69.1
X18.6Y-33.5
X18.6Y-65.1
X19.25Y-39.1
X19.37Y-9.7
X20.3Y-39.1
X20.55Y-45.95
X20.7Y-8.6
X22.1Y-33.8
X23.6Y-41.7
X24.3Y-42.25
X25.3Y-39.1
X25.6Y-30.7
X25.6Y-31.7
X26.3Y-39.1
X26.6Y-30.7
X26.6Y-31.7
X28.25Y-37.65
X29.3Y-44.3
X29.6Y-21.8
X29.6Y-24.4
X29.75Y-46.3
X30.5Y-21.8
X30.5Y-24.5
X30.65Y-58.15
X30.75Y-55.1
X31.3Y-21.8
X31.4Y-24.5
X31.55Y-44.3
X31.65Y-49.2
X31.75Y-55.1
X33.2Y-85.65
X33.85Y-66.25
X34.6Y-14.4
X34.85Y-67.55
X34.85Y-70.35
X35.9Y-85.65
X38.2Y-68.8
X39.9Y-37.1
X39.99Y-68.84
X41.15Y-61.45
X42.45Y-68.2
X42.5Y-72.35
X42.5Y-87.8
X43.5Y-62.45
X43.55Y-85.5
X43.7Y-60.95
T2
X6.1Y-27.1
X9.6Y-27.1
X18.6Y-2.4
X21.3Y-1.1
X21.9Y-6.35
X36.1Y-34.2
X42.5Y-91.7
X46.25Y-27.6
T3
X24.7Y-95.15
X26.7Y-95.15
X32.0Y-95.15
X34.0Y-95.15
X36.0Y-95.15
X38.0Y-95.15
X40.0Y-95.15
X42.95Y-19.6
X42.95Y-21.6
X42.95Y-23.6
X42.95Y-25.6
X42.95Y-27.6
X42.95Y-33.1
X42.95Y-35.1
X42.95Y-37.1
X42.95Y-39.1
X42.95Y-41.1
X42.95Y-46.5
X42.95Y-48.5
T4
X20.55Y-56.14
X20.55Y-58.68
X20.55Y-61.22
X20.55Y-63.76
X20.55Y-66.3
X20.55Y-68.84
X20.55Y-71.38
X20.55Y-73.92
X20.55Y-76.46
X20.55Y-79.0
X20.55Y-81.54
X20.55Y-84.08
X20.55Y-86.62
X20.55Y-89.16
X20.55Y-91.7
X33.17Y-43.1
X33.17Y-46.3
X33.17Y-48.5
X33.17Y-50.7
X38.25Y-43.1
X38.25Y-46.3
X38.25Y-48.5
X38.25Y-50.7
X41.525Y-9.6
X41.525Y-11.6
X42.525Y-7.55
X42.525Y-13.65
X44.525Y-7.55
X44.525Y-13.65
X45.95Y-56.14
X45.95Y-58.68
X45.95Y-61.22
X45.95Y-63.76
X45.95Y-66.3
X45.95Y-68.84
X45.95Y-71.38
X45.95Y-73.92
X45.95Y-76.46
X45.95Y-79.0
X45.95Y-81.54
X45.95Y-84.08
X45.95Y-86.62
X45.95Y-89.16
X45.95Y-91.7
T5
X5.5Y-40.4
X5.5Y-88.4
X8.0Y-32.8
X8.0Y-96.0
X10.5Y-40.4
X10.5Y-88.4
T0
M30
