%TF.GenerationSoftware,KiCad,Pcbnew,(6.0.9)*%
%TF.CreationDate,2023-05-10T12:51:21+05:30*%
%TF.ProjectId,WeatherKids_Compact(V1.0),57656174-6865-4724-9b69-64735f436f6d,rev?*%
%TF.SameCoordinates,Original*%
%TF.FileFunction,Legend,Top*%
%TF.FilePolarity,Positive*%
%FSLAX46Y46*%
G04 Gerber Fmt 4.6, Leading zero omitted, Abs format (unit mm)*
G04 Created by KiCad (PCBNEW (6.0.9)) date 2023-05-10 12:51:21*
%MOMM*%
%LPD*%
G01*
G04 APERTURE LIST*
%ADD10C,0.152400*%
%ADD11C,0.100000*%
%ADD12C,0.150000*%
%ADD13C,0.300000*%
%ADD14C,0.600000*%
%ADD15C,0.120000*%
G04 APERTURE END LIST*
D10*
X32000000Y-92700000D02*
X32800000Y-92100000D01*
X27800000Y-47400000D02*
X27800000Y-38400000D01*
X25200000Y-90800000D02*
X28400000Y-90800000D01*
X23400000Y-29000000D02*
X23800000Y-29600000D01*
X40400000Y-35400000D02*
X40400000Y-43800000D01*
X29000000Y-32000000D02*
X22800000Y-32000000D01*
X43600000Y-70000000D02*
X37100000Y-70000000D01*
X15400000Y-27200000D02*
X15400000Y-47400000D01*
X43600000Y-60600000D02*
X43600000Y-70000000D01*
X27800000Y-38400000D02*
X29200000Y-38400000D01*
X13600000Y-18000000D02*
X13000000Y-18400000D01*
X40700000Y-70450000D02*
X41300000Y-70850000D01*
X37000000Y-69400000D02*
X37000000Y-70000000D01*
X5800000Y-21400000D02*
X5800000Y-18000000D01*
X27800000Y-59600000D02*
X27800000Y-47400000D01*
X25200000Y-92600000D02*
X26000000Y-92000000D01*
X25600000Y-51000000D02*
X27400000Y-51000000D01*
X29600000Y-29000000D02*
X29600000Y-27200000D01*
X28400000Y-90800000D02*
X28400000Y-85600000D01*
X22800000Y-32000000D02*
X22800000Y-27200000D01*
D11*
X0Y-25000000D02*
X25000000Y-25000000D01*
D10*
X29200000Y-38400000D02*
X29800000Y-38400000D01*
D11*
X25000000Y-25000000D02*
X25000000Y0D01*
D10*
X13600000Y-46500000D02*
X13600000Y-83700000D01*
X40700000Y-73450000D02*
X40700000Y-70450000D01*
X43600000Y-59600000D02*
X27800000Y-59600000D01*
X13600000Y-18000000D02*
X14200000Y-18400000D01*
X29400000Y-70000000D02*
X29400000Y-60600000D01*
X29800000Y-35400000D02*
X40400000Y-35400000D01*
X29600000Y-29000000D02*
X23400000Y-29000000D01*
X27400000Y-51000000D02*
X27000000Y-50400000D01*
X40700000Y-70450000D02*
X40100000Y-70850000D01*
X27400000Y-51000000D02*
X27000000Y-51600000D01*
X25200000Y-92600000D02*
X24400000Y-92000000D01*
X15400000Y-47400000D02*
X27000000Y-47400000D01*
X23400000Y-29000000D02*
X23800000Y-28400000D01*
X13600000Y-21800000D02*
X14800000Y-21800000D01*
X43600000Y-51800000D02*
X43600000Y-59600000D01*
X18200000Y-8200000D02*
X17600000Y-7800000D01*
X2400000Y-83700000D02*
X2300000Y-46500000D01*
X27000000Y-37600000D02*
X29000000Y-37600000D01*
X5800000Y-44900000D02*
X10200000Y-44900000D01*
X34600000Y-89200000D02*
X32000000Y-89200000D01*
X18200000Y-4800000D02*
X18200000Y-8200000D01*
X5800000Y-46500000D02*
X5800000Y-44900000D01*
X40400000Y-43800000D02*
X48000000Y-43800000D01*
X10200000Y-44900000D02*
X10200000Y-46500000D01*
X27000000Y-47400000D02*
X27000000Y-37600000D01*
X29000000Y-37600000D02*
X29000000Y-32000000D01*
X29400000Y-60600000D02*
X43600000Y-60600000D01*
X13600000Y-83700000D02*
X2400000Y-83700000D01*
X13600000Y-21800000D02*
X13600000Y-18000000D01*
X5800000Y-18000000D02*
X5200000Y-18400000D01*
X37000000Y-70000000D02*
X29400000Y-70000000D01*
X48000000Y-51800000D02*
X43600000Y-51800000D01*
X25600000Y-51000000D02*
X25600000Y-59600000D01*
X32000000Y-89200000D02*
X32000000Y-92600000D01*
X25200000Y-92600000D02*
X25200000Y-90800000D01*
X22800000Y-27200000D02*
X15400000Y-27200000D01*
X5800000Y-18000000D02*
X6400000Y-18400000D01*
X2300000Y-46500000D02*
X5800000Y-46500000D01*
X18200000Y-8200000D02*
X18800000Y-7800000D01*
X10200000Y-46500000D02*
X13600000Y-46500000D01*
X32000000Y-92700000D02*
X31200000Y-92100000D01*
X29800000Y-38400000D02*
X29800000Y-35400000D01*
D12*
X29868928Y-22718571D02*
X30011785Y-22766190D01*
X30059404Y-22813809D01*
X30107023Y-22909047D01*
X30107023Y-23051904D01*
X30059404Y-23147142D01*
X30011785Y-23194761D01*
X29916547Y-23242380D01*
X29535595Y-23242380D01*
X29535595Y-22242380D01*
X29868928Y-22242380D01*
X29964166Y-22290000D01*
X30011785Y-22337619D01*
X30059404Y-22432857D01*
X30059404Y-22528095D01*
X30011785Y-22623333D01*
X29964166Y-22670952D01*
X29868928Y-22718571D01*
X29535595Y-22718571D01*
X30964166Y-23242380D02*
X30964166Y-22718571D01*
X30916547Y-22623333D01*
X30821309Y-22575714D01*
X30630833Y-22575714D01*
X30535595Y-22623333D01*
X30964166Y-23194761D02*
X30868928Y-23242380D01*
X30630833Y-23242380D01*
X30535595Y-23194761D01*
X30487976Y-23099523D01*
X30487976Y-23004285D01*
X30535595Y-22909047D01*
X30630833Y-22861428D01*
X30868928Y-22861428D01*
X30964166Y-22813809D01*
X31297500Y-22575714D02*
X31678452Y-22575714D01*
X31440357Y-22242380D02*
X31440357Y-23099523D01*
X31487976Y-23194761D01*
X31583214Y-23242380D01*
X31678452Y-23242380D01*
X31868928Y-22575714D02*
X32249880Y-22575714D01*
X32011785Y-22242380D02*
X32011785Y-23099523D01*
X32059404Y-23194761D01*
X32154642Y-23242380D01*
X32249880Y-23242380D01*
X32964166Y-23194761D02*
X32868928Y-23242380D01*
X32678452Y-23242380D01*
X32583214Y-23194761D01*
X32535595Y-23099523D01*
X32535595Y-22718571D01*
X32583214Y-22623333D01*
X32678452Y-22575714D01*
X32868928Y-22575714D01*
X32964166Y-22623333D01*
X33011785Y-22718571D01*
X33011785Y-22813809D01*
X32535595Y-22909047D01*
X33440357Y-23242380D02*
X33440357Y-22575714D01*
X33440357Y-22766190D02*
X33487976Y-22670952D01*
X33535595Y-22623333D01*
X33630833Y-22575714D01*
X33726071Y-22575714D01*
X33964166Y-22575714D02*
X34202261Y-23242380D01*
X34440357Y-22575714D02*
X34202261Y-23242380D01*
X34107023Y-23480476D01*
X34059404Y-23528095D01*
X33964166Y-23575714D01*
X29964166Y-24804761D02*
X29868928Y-24852380D01*
X29678452Y-24852380D01*
X29583214Y-24804761D01*
X29535595Y-24757142D01*
X29487976Y-24661904D01*
X29487976Y-24376190D01*
X29535595Y-24280952D01*
X29583214Y-24233333D01*
X29678452Y-24185714D01*
X29868928Y-24185714D01*
X29964166Y-24233333D01*
X30392738Y-24852380D02*
X30392738Y-23852380D01*
X30821309Y-24852380D02*
X30821309Y-24328571D01*
X30773690Y-24233333D01*
X30678452Y-24185714D01*
X30535595Y-24185714D01*
X30440357Y-24233333D01*
X30392738Y-24280952D01*
X31726071Y-24852380D02*
X31726071Y-24328571D01*
X31678452Y-24233333D01*
X31583214Y-24185714D01*
X31392738Y-24185714D01*
X31297500Y-24233333D01*
X31726071Y-24804761D02*
X31630833Y-24852380D01*
X31392738Y-24852380D01*
X31297500Y-24804761D01*
X31249880Y-24709523D01*
X31249880Y-24614285D01*
X31297500Y-24519047D01*
X31392738Y-24471428D01*
X31630833Y-24471428D01*
X31726071Y-24423809D01*
X32202261Y-24852380D02*
X32202261Y-24185714D01*
X32202261Y-24376190D02*
X32249880Y-24280952D01*
X32297500Y-24233333D01*
X32392738Y-24185714D01*
X32487976Y-24185714D01*
X33249880Y-24185714D02*
X33249880Y-24995238D01*
X33202261Y-25090476D01*
X33154642Y-25138095D01*
X33059404Y-25185714D01*
X32916547Y-25185714D01*
X32821309Y-25138095D01*
X33249880Y-24804761D02*
X33154642Y-24852380D01*
X32964166Y-24852380D01*
X32868928Y-24804761D01*
X32821309Y-24757142D01*
X32773690Y-24661904D01*
X32773690Y-24376190D01*
X32821309Y-24280952D01*
X32868928Y-24233333D01*
X32964166Y-24185714D01*
X33154642Y-24185714D01*
X33249880Y-24233333D01*
X34107023Y-24804761D02*
X34011785Y-24852380D01*
X33821309Y-24852380D01*
X33726071Y-24804761D01*
X33678452Y-24709523D01*
X33678452Y-24328571D01*
X33726071Y-24233333D01*
X33821309Y-24185714D01*
X34011785Y-24185714D01*
X34107023Y-24233333D01*
X34154642Y-24328571D01*
X34154642Y-24423809D01*
X33678452Y-24519047D01*
X34583214Y-24852380D02*
X34583214Y-24185714D01*
X34583214Y-24376190D02*
X34630833Y-24280952D01*
X34678452Y-24233333D01*
X34773690Y-24185714D01*
X34868928Y-24185714D01*
X36773690Y-24852380D02*
X36726071Y-24852380D01*
X36630833Y-24804761D01*
X36487976Y-24661904D01*
X36249880Y-24376190D01*
X36154642Y-24233333D01*
X36107023Y-24090476D01*
X36107023Y-23995238D01*
X36154642Y-23900000D01*
X36249880Y-23852380D01*
X36297500Y-23852380D01*
X36392738Y-23900000D01*
X36440357Y-23995238D01*
X36440357Y-24042857D01*
X36392738Y-24138095D01*
X36345119Y-24185714D01*
X36059404Y-24376190D01*
X36011785Y-24423809D01*
X35964166Y-24519047D01*
X35964166Y-24661904D01*
X36011785Y-24757142D01*
X36059404Y-24804761D01*
X36154642Y-24852380D01*
X36297500Y-24852380D01*
X36392738Y-24804761D01*
X36440357Y-24757142D01*
X36583214Y-24566666D01*
X36630833Y-24423809D01*
X36630833Y-24328571D01*
X30107023Y-26462380D02*
X29773690Y-25986190D01*
X29535595Y-26462380D02*
X29535595Y-25462380D01*
X29916547Y-25462380D01*
X30011785Y-25510000D01*
X30059404Y-25557619D01*
X30107023Y-25652857D01*
X30107023Y-25795714D01*
X30059404Y-25890952D01*
X30011785Y-25938571D01*
X29916547Y-25986190D01*
X29535595Y-25986190D01*
X30916547Y-26414761D02*
X30821309Y-26462380D01*
X30630833Y-26462380D01*
X30535595Y-26414761D01*
X30487976Y-26319523D01*
X30487976Y-25938571D01*
X30535595Y-25843333D01*
X30630833Y-25795714D01*
X30821309Y-25795714D01*
X30916547Y-25843333D01*
X30964166Y-25938571D01*
X30964166Y-26033809D01*
X30487976Y-26129047D01*
X31821309Y-25795714D02*
X31821309Y-26605238D01*
X31773690Y-26700476D01*
X31726071Y-26748095D01*
X31630833Y-26795714D01*
X31487976Y-26795714D01*
X31392738Y-26748095D01*
X31821309Y-26414761D02*
X31726071Y-26462380D01*
X31535595Y-26462380D01*
X31440357Y-26414761D01*
X31392738Y-26367142D01*
X31345119Y-26271904D01*
X31345119Y-25986190D01*
X31392738Y-25890952D01*
X31440357Y-25843333D01*
X31535595Y-25795714D01*
X31726071Y-25795714D01*
X31821309Y-25843333D01*
X32726071Y-25795714D02*
X32726071Y-26462380D01*
X32297500Y-25795714D02*
X32297500Y-26319523D01*
X32345119Y-26414761D01*
X32440357Y-26462380D01*
X32583214Y-26462380D01*
X32678452Y-26414761D01*
X32726071Y-26367142D01*
X33345119Y-26462380D02*
X33249880Y-26414761D01*
X33202261Y-26319523D01*
X33202261Y-25462380D01*
X34154642Y-26462380D02*
X34154642Y-25938571D01*
X34107023Y-25843333D01*
X34011785Y-25795714D01*
X33821309Y-25795714D01*
X33726071Y-25843333D01*
X34154642Y-26414761D02*
X34059404Y-26462380D01*
X33821309Y-26462380D01*
X33726071Y-26414761D01*
X33678452Y-26319523D01*
X33678452Y-26224285D01*
X33726071Y-26129047D01*
X33821309Y-26081428D01*
X34059404Y-26081428D01*
X34154642Y-26033809D01*
X34487976Y-25795714D02*
X34868928Y-25795714D01*
X34630833Y-25462380D02*
X34630833Y-26319523D01*
X34678452Y-26414761D01*
X34773690Y-26462380D01*
X34868928Y-26462380D01*
X35345119Y-26462380D02*
X35249880Y-26414761D01*
X35202261Y-26367142D01*
X35154642Y-26271904D01*
X35154642Y-25986190D01*
X35202261Y-25890952D01*
X35249880Y-25843333D01*
X35345119Y-25795714D01*
X35487976Y-25795714D01*
X35583214Y-25843333D01*
X35630833Y-25890952D01*
X35678452Y-25986190D01*
X35678452Y-26271904D01*
X35630833Y-26367142D01*
X35583214Y-26414761D01*
X35487976Y-26462380D01*
X35345119Y-26462380D01*
X36107023Y-26462380D02*
X36107023Y-25795714D01*
X36107023Y-25986190D02*
X36154642Y-25890952D01*
X36202261Y-25843333D01*
X36297500Y-25795714D01*
X36392738Y-25795714D01*
X36678452Y-26414761D02*
X36773690Y-26462380D01*
X36964166Y-26462380D01*
X37059404Y-26414761D01*
X37107023Y-26319523D01*
X37107023Y-26271904D01*
X37059404Y-26176666D01*
X36964166Y-26129047D01*
X36821309Y-26129047D01*
X36726071Y-26081428D01*
X36678452Y-25986190D01*
X36678452Y-25938571D01*
X36726071Y-25843333D01*
X36821309Y-25795714D01*
X36964166Y-25795714D01*
X37059404Y-25843333D01*
D13*
X31578571Y-7355000D02*
X33007143Y-7355000D01*
X31864285Y-9207142D02*
X32078571Y-9278571D01*
X32435714Y-9278571D01*
X32578571Y-9207142D01*
X32650000Y-9135714D01*
X32721428Y-8992857D01*
X32721428Y-8850000D01*
X32650000Y-8707142D01*
X32578571Y-8635714D01*
X32435714Y-8564285D01*
X32150000Y-8492857D01*
X32007143Y-8421428D01*
X31935714Y-8350000D01*
X31864285Y-8207142D01*
X31864285Y-8064285D01*
X31935714Y-7921428D01*
X32007143Y-7850000D01*
X32150000Y-7778571D01*
X32507143Y-7778571D01*
X32721428Y-7850000D01*
X33007143Y-7355000D02*
X34150000Y-7355000D01*
X33150000Y-7778571D02*
X34007143Y-7778571D01*
X33578571Y-9278571D02*
X33578571Y-7778571D01*
X34150000Y-7355000D02*
X35650000Y-7355000D01*
X34507143Y-9278571D02*
X34507143Y-7778571D01*
X34864285Y-7778571D01*
X35078571Y-7850000D01*
X35221428Y-7992857D01*
X35292857Y-8135714D01*
X35364285Y-8421428D01*
X35364285Y-8635714D01*
X35292857Y-8921428D01*
X35221428Y-9064285D01*
X35078571Y-9207142D01*
X34864285Y-9278571D01*
X34507143Y-9278571D01*
X35650000Y-7355000D02*
X37150000Y-7355000D01*
X36507143Y-8492857D02*
X36721428Y-8564285D01*
X36792857Y-8635714D01*
X36864285Y-8778571D01*
X36864285Y-8992857D01*
X36792857Y-9135714D01*
X36721428Y-9207142D01*
X36578571Y-9278571D01*
X36007143Y-9278571D01*
X36007143Y-7778571D01*
X36507143Y-7778571D01*
X36650000Y-7850000D01*
X36721428Y-7921428D01*
X36792857Y-8064285D01*
X36792857Y-8207142D01*
X36721428Y-8350000D01*
X36650000Y-8421428D01*
X36507143Y-8492857D01*
X36007143Y-8492857D01*
X37150000Y-7355000D02*
X38435714Y-7355000D01*
X37792857Y-8564285D02*
X37792857Y-9278571D01*
X37292857Y-7778571D02*
X37792857Y-8564285D01*
X38292857Y-7778571D01*
X32364285Y-2255000D02*
X33864285Y-2255000D01*
X33578571Y-4035714D02*
X33507142Y-4107142D01*
X33292857Y-4178571D01*
X33150000Y-4178571D01*
X32935714Y-4107142D01*
X32792857Y-3964285D01*
X32721428Y-3821428D01*
X32650000Y-3535714D01*
X32650000Y-3321428D01*
X32721428Y-3035714D01*
X32792857Y-2892857D01*
X32935714Y-2750000D01*
X33150000Y-2678571D01*
X33292857Y-2678571D01*
X33507142Y-2750000D01*
X33578571Y-2821428D01*
X33864285Y-2255000D02*
X35435714Y-2255000D01*
X34221428Y-4178571D02*
X34221428Y-2678571D01*
X34221428Y-3392857D02*
X35078571Y-3392857D01*
X35078571Y-4178571D02*
X35078571Y-2678571D01*
X35435714Y-2255000D02*
X36935714Y-2255000D01*
X36650000Y-4178571D02*
X36150000Y-3464285D01*
X35792857Y-4178571D02*
X35792857Y-2678571D01*
X36364285Y-2678571D01*
X36507142Y-2750000D01*
X36578571Y-2821428D01*
X36650000Y-2964285D01*
X36650000Y-3178571D01*
X36578571Y-3321428D01*
X36507142Y-3392857D01*
X36364285Y-3464285D01*
X35792857Y-3464285D01*
X36935714Y-2255000D02*
X38435714Y-2255000D01*
X38078571Y-2750000D02*
X37935714Y-2678571D01*
X37721428Y-2678571D01*
X37507142Y-2750000D01*
X37364285Y-2892857D01*
X37292857Y-3035714D01*
X37221428Y-3321428D01*
X37221428Y-3535714D01*
X37292857Y-3821428D01*
X37364285Y-3964285D01*
X37507142Y-4107142D01*
X37721428Y-4178571D01*
X37864285Y-4178571D01*
X38078571Y-4107142D01*
X38150000Y-4035714D01*
X38150000Y-3535714D01*
X37864285Y-3535714D01*
D14*
X8214285Y-57800000D02*
X8071428Y-58228571D01*
X7928571Y-58371428D01*
X7642857Y-58514285D01*
X7214285Y-58514285D01*
X6928571Y-58371428D01*
X6785714Y-58228571D01*
X6642857Y-57942857D01*
X6642857Y-56800000D01*
X9642857Y-56800000D01*
X9642857Y-57800000D01*
X9500000Y-58085714D01*
X9357142Y-58228571D01*
X9071428Y-58371428D01*
X8785714Y-58371428D01*
X8500000Y-58228571D01*
X8357142Y-58085714D01*
X8214285Y-57800000D01*
X8214285Y-56800000D01*
X7500000Y-59657142D02*
X7500000Y-61085714D01*
X6642857Y-59371428D02*
X9642857Y-60371428D01*
X6642857Y-61371428D01*
X9642857Y-61942857D02*
X9642857Y-63657142D01*
X6642857Y-62800000D02*
X9642857Y-62800000D01*
X9642857Y-64228571D02*
X9642857Y-65942857D01*
X6642857Y-65085714D02*
X9642857Y-65085714D01*
X8214285Y-66942857D02*
X8214285Y-67942857D01*
X6642857Y-68371428D02*
X6642857Y-66942857D01*
X9642857Y-66942857D01*
X9642857Y-68371428D01*
X6642857Y-71371428D02*
X8071428Y-70371428D01*
X6642857Y-69657142D02*
X9642857Y-69657142D01*
X9642857Y-70800000D01*
X9499999Y-71085714D01*
X9357142Y-71228571D01*
X9071428Y-71371428D01*
X8642857Y-71371428D01*
X8357142Y-71228571D01*
X8214285Y-71085714D01*
X8071428Y-70800000D01*
X8071428Y-69657142D01*
X8071428Y-73228571D02*
X6642857Y-73228571D01*
X9642857Y-72228571D02*
X8071428Y-73228571D01*
X9642857Y-74228571D01*
D13*
X35935714Y-13178571D02*
X36221428Y-13178571D01*
X36364286Y-13250000D01*
X36507143Y-13392857D01*
X36578571Y-13678571D01*
X36578571Y-14178571D01*
X36507143Y-14464285D01*
X36364286Y-14607142D01*
X36221428Y-14678571D01*
X35935714Y-14678571D01*
X35792857Y-14607142D01*
X35650000Y-14464285D01*
X35578571Y-14178571D01*
X35578571Y-13678571D01*
X35650000Y-13392857D01*
X35792857Y-13250000D01*
X35935714Y-13178571D01*
X37221428Y-14678571D02*
X37221428Y-13178571D01*
X38078571Y-14678571D01*
X38078571Y-13178571D01*
D14*
X6857142Y-47914285D02*
X9142857Y-47914285D01*
X8000000Y-49057142D02*
X8000000Y-46771428D01*
D12*
X40152619Y-74707023D02*
X40628809Y-74373690D01*
X40152619Y-74135595D02*
X41152619Y-74135595D01*
X41152619Y-74516547D01*
X41105000Y-74611785D01*
X41057380Y-74659404D01*
X40962142Y-74707023D01*
X40819285Y-74707023D01*
X40724047Y-74659404D01*
X40676428Y-74611785D01*
X40628809Y-74516547D01*
X40628809Y-74135595D01*
X40200238Y-75516547D02*
X40152619Y-75421309D01*
X40152619Y-75230833D01*
X40200238Y-75135595D01*
X40295476Y-75087976D01*
X40676428Y-75087976D01*
X40771666Y-75135595D01*
X40819285Y-75230833D01*
X40819285Y-75421309D01*
X40771666Y-75516547D01*
X40676428Y-75564166D01*
X40581190Y-75564166D01*
X40485952Y-75087976D01*
X40152619Y-76421309D02*
X40676428Y-76421309D01*
X40771666Y-76373690D01*
X40819285Y-76278452D01*
X40819285Y-76087976D01*
X40771666Y-75992738D01*
X40200238Y-76421309D02*
X40152619Y-76326071D01*
X40152619Y-76087976D01*
X40200238Y-75992738D01*
X40295476Y-75945119D01*
X40390714Y-75945119D01*
X40485952Y-75992738D01*
X40533571Y-76087976D01*
X40533571Y-76326071D01*
X40581190Y-76421309D01*
X40152619Y-77040357D02*
X40200238Y-76945119D01*
X40295476Y-76897500D01*
X41152619Y-76897500D01*
X41152619Y-78040357D02*
X41152619Y-78611785D01*
X40152619Y-78326071D02*
X41152619Y-78326071D01*
X40152619Y-78945119D02*
X40819285Y-78945119D01*
X41152619Y-78945119D02*
X41105000Y-78897500D01*
X41057380Y-78945119D01*
X41105000Y-78992738D01*
X41152619Y-78945119D01*
X41057380Y-78945119D01*
X40152619Y-79421309D02*
X40819285Y-79421309D01*
X40724047Y-79421309D02*
X40771666Y-79468928D01*
X40819285Y-79564166D01*
X40819285Y-79707023D01*
X40771666Y-79802261D01*
X40676428Y-79849880D01*
X40152619Y-79849880D01*
X40676428Y-79849880D02*
X40771666Y-79897500D01*
X40819285Y-79992738D01*
X40819285Y-80135595D01*
X40771666Y-80230833D01*
X40676428Y-80278452D01*
X40152619Y-80278452D01*
X40200238Y-81135595D02*
X40152619Y-81040357D01*
X40152619Y-80849880D01*
X40200238Y-80754642D01*
X40295476Y-80707023D01*
X40676428Y-80707023D01*
X40771666Y-80754642D01*
X40819285Y-80849880D01*
X40819285Y-81040357D01*
X40771666Y-81135595D01*
X40676428Y-81183214D01*
X40581190Y-81183214D01*
X40485952Y-80707023D01*
X38637857Y-74707023D02*
X38590238Y-74659404D01*
X38542619Y-74516547D01*
X38542619Y-74421309D01*
X38590238Y-74278452D01*
X38685476Y-74183214D01*
X38780714Y-74135595D01*
X38971190Y-74087976D01*
X39114047Y-74087976D01*
X39304523Y-74135595D01*
X39399761Y-74183214D01*
X39495000Y-74278452D01*
X39542619Y-74421309D01*
X39542619Y-74516547D01*
X39495000Y-74659404D01*
X39447380Y-74707023D01*
X38542619Y-75278452D02*
X38590238Y-75183214D01*
X38685476Y-75135595D01*
X39542619Y-75135595D01*
X38542619Y-75802261D02*
X38590238Y-75707023D01*
X38637857Y-75659404D01*
X38733095Y-75611785D01*
X39018809Y-75611785D01*
X39114047Y-75659404D01*
X39161666Y-75707023D01*
X39209285Y-75802261D01*
X39209285Y-75945119D01*
X39161666Y-76040357D01*
X39114047Y-76087976D01*
X39018809Y-76135595D01*
X38733095Y-76135595D01*
X38637857Y-76087976D01*
X38590238Y-76040357D01*
X38542619Y-75945119D01*
X38542619Y-75802261D01*
X38590238Y-76992738D02*
X38542619Y-76897500D01*
X38542619Y-76707023D01*
X38590238Y-76611785D01*
X38637857Y-76564166D01*
X38733095Y-76516547D01*
X39018809Y-76516547D01*
X39114047Y-76564166D01*
X39161666Y-76611785D01*
X39209285Y-76707023D01*
X39209285Y-76897500D01*
X39161666Y-76992738D01*
X38542619Y-77421309D02*
X39542619Y-77421309D01*
X38923571Y-77516547D02*
X38542619Y-77802261D01*
X39209285Y-77802261D02*
X38828333Y-77421309D01*
X38590238Y-78945119D02*
X38542619Y-79040357D01*
X38542619Y-79230833D01*
X38590238Y-79326071D01*
X38685476Y-79373690D01*
X38733095Y-79373690D01*
X38828333Y-79326071D01*
X38875952Y-79230833D01*
X38875952Y-79087976D01*
X38923571Y-78992738D01*
X39018809Y-78945119D01*
X39066428Y-78945119D01*
X39161666Y-78992738D01*
X39209285Y-79087976D01*
X39209285Y-79230833D01*
X39161666Y-79326071D01*
X39209285Y-79707023D02*
X38542619Y-79945119D01*
X39209285Y-80183214D02*
X38542619Y-79945119D01*
X38304523Y-79849880D01*
X38256904Y-79802261D01*
X38209285Y-79707023D01*
X38590238Y-80516547D02*
X38542619Y-80611785D01*
X38542619Y-80802261D01*
X38590238Y-80897500D01*
X38685476Y-80945119D01*
X38733095Y-80945119D01*
X38828333Y-80897500D01*
X38875952Y-80802261D01*
X38875952Y-80659404D01*
X38923571Y-80564166D01*
X39018809Y-80516547D01*
X39066428Y-80516547D01*
X39161666Y-80564166D01*
X39209285Y-80659404D01*
X39209285Y-80802261D01*
X39161666Y-80897500D01*
X39209285Y-81230833D02*
X39209285Y-81611785D01*
X39542619Y-81373690D02*
X38685476Y-81373690D01*
X38590238Y-81421309D01*
X38542619Y-81516547D01*
X38542619Y-81611785D01*
X38590238Y-82326071D02*
X38542619Y-82230833D01*
X38542619Y-82040357D01*
X38590238Y-81945119D01*
X38685476Y-81897500D01*
X39066428Y-81897500D01*
X39161666Y-81945119D01*
X39209285Y-82040357D01*
X39209285Y-82230833D01*
X39161666Y-82326071D01*
X39066428Y-82373690D01*
X38971190Y-82373690D01*
X38875952Y-81897500D01*
X38542619Y-82802261D02*
X39209285Y-82802261D01*
X39114047Y-82802261D02*
X39161666Y-82849880D01*
X39209285Y-82945119D01*
X39209285Y-83087976D01*
X39161666Y-83183214D01*
X39066428Y-83230833D01*
X38542619Y-83230833D01*
X39066428Y-83230833D02*
X39161666Y-83278452D01*
X39209285Y-83373690D01*
X39209285Y-83516547D01*
X39161666Y-83611785D01*
X39066428Y-83659404D01*
X38542619Y-83659404D01*
X15487976Y-21961666D02*
X15964166Y-21961666D01*
X15392738Y-22247380D02*
X15726071Y-21247380D01*
X16059404Y-22247380D01*
X16392738Y-22247380D02*
X16392738Y-21580714D01*
X16392738Y-21247380D02*
X16345119Y-21295000D01*
X16392738Y-21342619D01*
X16440357Y-21295000D01*
X16392738Y-21247380D01*
X16392738Y-21342619D01*
X16868928Y-22247380D02*
X16868928Y-21580714D01*
X16868928Y-21771190D02*
X16916547Y-21675952D01*
X16964166Y-21628333D01*
X17059404Y-21580714D01*
X17154642Y-21580714D01*
X18249880Y-22247380D02*
X18249880Y-21247380D01*
X18630833Y-21247380D01*
X18726071Y-21295000D01*
X18773690Y-21342619D01*
X18821309Y-21437857D01*
X18821309Y-21580714D01*
X18773690Y-21675952D01*
X18726071Y-21723571D01*
X18630833Y-21771190D01*
X18249880Y-21771190D01*
X19249880Y-22247380D02*
X19249880Y-21580714D01*
X19249880Y-21771190D02*
X19297500Y-21675952D01*
X19345119Y-21628333D01*
X19440357Y-21580714D01*
X19535595Y-21580714D01*
X20249880Y-22199761D02*
X20154642Y-22247380D01*
X19964166Y-22247380D01*
X19868928Y-22199761D01*
X19821309Y-22104523D01*
X19821309Y-21723571D01*
X19868928Y-21628333D01*
X19964166Y-21580714D01*
X20154642Y-21580714D01*
X20249880Y-21628333D01*
X20297500Y-21723571D01*
X20297500Y-21818809D01*
X19821309Y-21914047D01*
X20678452Y-22199761D02*
X20773690Y-22247380D01*
X20964166Y-22247380D01*
X21059404Y-22199761D01*
X21107023Y-22104523D01*
X21107023Y-22056904D01*
X21059404Y-21961666D01*
X20964166Y-21914047D01*
X20821309Y-21914047D01*
X20726071Y-21866428D01*
X20678452Y-21771190D01*
X20678452Y-21723571D01*
X20726071Y-21628333D01*
X20821309Y-21580714D01*
X20964166Y-21580714D01*
X21059404Y-21628333D01*
X21487976Y-22199761D02*
X21583214Y-22247380D01*
X21773690Y-22247380D01*
X21868928Y-22199761D01*
X21916547Y-22104523D01*
X21916547Y-22056904D01*
X21868928Y-21961666D01*
X21773690Y-21914047D01*
X21630833Y-21914047D01*
X21535595Y-21866428D01*
X21487976Y-21771190D01*
X21487976Y-21723571D01*
X21535595Y-21628333D01*
X21630833Y-21580714D01*
X21773690Y-21580714D01*
X21868928Y-21628333D01*
X22773690Y-21580714D02*
X22773690Y-22247380D01*
X22345119Y-21580714D02*
X22345119Y-22104523D01*
X22392738Y-22199761D01*
X22487976Y-22247380D01*
X22630833Y-22247380D01*
X22726071Y-22199761D01*
X22773690Y-22152142D01*
X23249880Y-22247380D02*
X23249880Y-21580714D01*
X23249880Y-21771190D02*
X23297500Y-21675952D01*
X23345119Y-21628333D01*
X23440357Y-21580714D01*
X23535595Y-21580714D01*
X24249880Y-22199761D02*
X24154642Y-22247380D01*
X23964166Y-22247380D01*
X23868928Y-22199761D01*
X23821309Y-22104523D01*
X23821309Y-21723571D01*
X23868928Y-21628333D01*
X23964166Y-21580714D01*
X24154642Y-21580714D01*
X24249880Y-21628333D01*
X24297500Y-21723571D01*
X24297500Y-21818809D01*
X23821309Y-21914047D01*
X15487976Y-23809761D02*
X15630833Y-23857380D01*
X15868928Y-23857380D01*
X15964166Y-23809761D01*
X16011785Y-23762142D01*
X16059404Y-23666904D01*
X16059404Y-23571666D01*
X16011785Y-23476428D01*
X15964166Y-23428809D01*
X15868928Y-23381190D01*
X15678452Y-23333571D01*
X15583214Y-23285952D01*
X15535595Y-23238333D01*
X15487976Y-23143095D01*
X15487976Y-23047857D01*
X15535595Y-22952619D01*
X15583214Y-22905000D01*
X15678452Y-22857380D01*
X15916547Y-22857380D01*
X16059404Y-22905000D01*
X16868928Y-23809761D02*
X16773690Y-23857380D01*
X16583214Y-23857380D01*
X16487976Y-23809761D01*
X16440357Y-23714523D01*
X16440357Y-23333571D01*
X16487976Y-23238333D01*
X16583214Y-23190714D01*
X16773690Y-23190714D01*
X16868928Y-23238333D01*
X16916547Y-23333571D01*
X16916547Y-23428809D01*
X16440357Y-23524047D01*
X17345119Y-23190714D02*
X17345119Y-23857380D01*
X17345119Y-23285952D02*
X17392738Y-23238333D01*
X17487976Y-23190714D01*
X17630833Y-23190714D01*
X17726071Y-23238333D01*
X17773690Y-23333571D01*
X17773690Y-23857380D01*
X18202261Y-23809761D02*
X18297500Y-23857380D01*
X18487976Y-23857380D01*
X18583214Y-23809761D01*
X18630833Y-23714523D01*
X18630833Y-23666904D01*
X18583214Y-23571666D01*
X18487976Y-23524047D01*
X18345119Y-23524047D01*
X18249880Y-23476428D01*
X18202261Y-23381190D01*
X18202261Y-23333571D01*
X18249880Y-23238333D01*
X18345119Y-23190714D01*
X18487976Y-23190714D01*
X18583214Y-23238333D01*
X19202261Y-23857380D02*
X19107023Y-23809761D01*
X19059404Y-23762142D01*
X19011785Y-23666904D01*
X19011785Y-23381190D01*
X19059404Y-23285952D01*
X19107023Y-23238333D01*
X19202261Y-23190714D01*
X19345119Y-23190714D01*
X19440357Y-23238333D01*
X19487976Y-23285952D01*
X19535595Y-23381190D01*
X19535595Y-23666904D01*
X19487976Y-23762142D01*
X19440357Y-23809761D01*
X19345119Y-23857380D01*
X19202261Y-23857380D01*
X19964166Y-23857380D02*
X19964166Y-23190714D01*
X19964166Y-23381190D02*
X20011785Y-23285952D01*
X20059404Y-23238333D01*
X20154642Y-23190714D01*
X20249880Y-23190714D01*
X1807023Y-21647380D02*
X1473690Y-21171190D01*
X1235595Y-21647380D02*
X1235595Y-20647380D01*
X1616547Y-20647380D01*
X1711785Y-20695000D01*
X1759404Y-20742619D01*
X1807023Y-20837857D01*
X1807023Y-20980714D01*
X1759404Y-21075952D01*
X1711785Y-21123571D01*
X1616547Y-21171190D01*
X1235595Y-21171190D01*
X2235595Y-21647380D02*
X2235595Y-20647380D01*
X2235595Y-21123571D02*
X2807023Y-21123571D01*
X2807023Y-21647380D02*
X2807023Y-20647380D01*
X3235595Y-21647380D02*
X3997499Y-20647380D01*
X3378452Y-20647380D02*
X3473690Y-20695000D01*
X3521309Y-20790238D01*
X3473690Y-20885476D01*
X3378452Y-20933095D01*
X3283214Y-20885476D01*
X3235595Y-20790238D01*
X3283214Y-20695000D01*
X3378452Y-20647380D01*
X3949880Y-21599761D02*
X3997499Y-21504523D01*
X3949880Y-21409285D01*
X3854642Y-21361666D01*
X3759404Y-21409285D01*
X3711785Y-21504523D01*
X3759404Y-21599761D01*
X3854642Y-21647380D01*
X3949880Y-21599761D01*
X1187976Y-23209761D02*
X1330833Y-23257380D01*
X1568928Y-23257380D01*
X1664166Y-23209761D01*
X1711785Y-23162142D01*
X1759404Y-23066904D01*
X1759404Y-22971666D01*
X1711785Y-22876428D01*
X1664166Y-22828809D01*
X1568928Y-22781190D01*
X1378452Y-22733571D01*
X1283214Y-22685952D01*
X1235595Y-22638333D01*
X1187976Y-22543095D01*
X1187976Y-22447857D01*
X1235595Y-22352619D01*
X1283214Y-22305000D01*
X1378452Y-22257380D01*
X1616547Y-22257380D01*
X1759404Y-22305000D01*
X2568928Y-23209761D02*
X2473690Y-23257380D01*
X2283214Y-23257380D01*
X2187976Y-23209761D01*
X2140357Y-23114523D01*
X2140357Y-22733571D01*
X2187976Y-22638333D01*
X2283214Y-22590714D01*
X2473690Y-22590714D01*
X2568928Y-22638333D01*
X2616547Y-22733571D01*
X2616547Y-22828809D01*
X2140357Y-22924047D01*
X3045119Y-22590714D02*
X3045119Y-23257380D01*
X3045119Y-22685952D02*
X3092738Y-22638333D01*
X3187976Y-22590714D01*
X3330833Y-22590714D01*
X3426071Y-22638333D01*
X3473690Y-22733571D01*
X3473690Y-23257380D01*
X3902261Y-23209761D02*
X3997499Y-23257380D01*
X4187976Y-23257380D01*
X4283214Y-23209761D01*
X4330833Y-23114523D01*
X4330833Y-23066904D01*
X4283214Y-22971666D01*
X4187976Y-22924047D01*
X4045119Y-22924047D01*
X3949880Y-22876428D01*
X3902261Y-22781190D01*
X3902261Y-22733571D01*
X3949880Y-22638333D01*
X4045119Y-22590714D01*
X4187976Y-22590714D01*
X4283214Y-22638333D01*
X4902261Y-23257380D02*
X4807023Y-23209761D01*
X4759404Y-23162142D01*
X4711785Y-23066904D01*
X4711785Y-22781190D01*
X4759404Y-22685952D01*
X4807023Y-22638333D01*
X4902261Y-22590714D01*
X5045119Y-22590714D01*
X5140357Y-22638333D01*
X5187976Y-22685952D01*
X5235595Y-22781190D01*
X5235595Y-23066904D01*
X5187976Y-23162142D01*
X5140357Y-23209761D01*
X5045119Y-23257380D01*
X4902261Y-23257380D01*
X5664166Y-23257380D02*
X5664166Y-22590714D01*
X5664166Y-22781190D02*
X5711785Y-22685952D01*
X5759404Y-22638333D01*
X5854642Y-22590714D01*
X5949880Y-22590714D01*
D14*
X9142857Y-81685714D02*
X6857142Y-81685714D01*
D12*
X17792738Y-1647380D02*
X18126071Y-2647380D01*
X18459404Y-1647380D01*
X18983214Y-1647380D02*
X19173690Y-1647380D01*
X19268928Y-1695000D01*
X19364166Y-1790238D01*
X19411785Y-1980714D01*
X19411785Y-2314047D01*
X19364166Y-2504523D01*
X19268928Y-2599761D01*
X19173690Y-2647380D01*
X18983214Y-2647380D01*
X18887976Y-2599761D01*
X18792738Y-2504523D01*
X18745119Y-2314047D01*
X18745119Y-1980714D01*
X18792738Y-1790238D01*
X18887976Y-1695000D01*
X18983214Y-1647380D01*
X20411785Y-2552142D02*
X20364166Y-2599761D01*
X20221309Y-2647380D01*
X20126071Y-2647380D01*
X19983214Y-2599761D01*
X19887976Y-2504523D01*
X19840357Y-2409285D01*
X19792738Y-2218809D01*
X19792738Y-2075952D01*
X19840357Y-1885476D01*
X19887976Y-1790238D01*
X19983214Y-1695000D01*
X20126071Y-1647380D01*
X20221309Y-1647380D01*
X20364166Y-1695000D01*
X20411785Y-1742619D01*
X17887976Y-4209761D02*
X18030833Y-4257380D01*
X18268928Y-4257380D01*
X18364166Y-4209761D01*
X18411785Y-4162142D01*
X18459404Y-4066904D01*
X18459404Y-3971666D01*
X18411785Y-3876428D01*
X18364166Y-3828809D01*
X18268928Y-3781190D01*
X18078452Y-3733571D01*
X17983214Y-3685952D01*
X17935595Y-3638333D01*
X17887976Y-3543095D01*
X17887976Y-3447857D01*
X17935595Y-3352619D01*
X17983214Y-3305000D01*
X18078452Y-3257380D01*
X18316547Y-3257380D01*
X18459404Y-3305000D01*
X19268928Y-4209761D02*
X19173690Y-4257380D01*
X18983214Y-4257380D01*
X18887976Y-4209761D01*
X18840357Y-4114523D01*
X18840357Y-3733571D01*
X18887976Y-3638333D01*
X18983214Y-3590714D01*
X19173690Y-3590714D01*
X19268928Y-3638333D01*
X19316547Y-3733571D01*
X19316547Y-3828809D01*
X18840357Y-3924047D01*
X19745119Y-3590714D02*
X19745119Y-4257380D01*
X19745119Y-3685952D02*
X19792738Y-3638333D01*
X19887976Y-3590714D01*
X20030833Y-3590714D01*
X20126071Y-3638333D01*
X20173690Y-3733571D01*
X20173690Y-4257380D01*
X20602261Y-4209761D02*
X20697500Y-4257380D01*
X20887976Y-4257380D01*
X20983214Y-4209761D01*
X21030833Y-4114523D01*
X21030833Y-4066904D01*
X20983214Y-3971666D01*
X20887976Y-3924047D01*
X20745119Y-3924047D01*
X20649880Y-3876428D01*
X20602261Y-3781190D01*
X20602261Y-3733571D01*
X20649880Y-3638333D01*
X20745119Y-3590714D01*
X20887976Y-3590714D01*
X20983214Y-3638333D01*
X21602261Y-4257380D02*
X21507023Y-4209761D01*
X21459404Y-4162142D01*
X21411785Y-4066904D01*
X21411785Y-3781190D01*
X21459404Y-3685952D01*
X21507023Y-3638333D01*
X21602261Y-3590714D01*
X21745119Y-3590714D01*
X21840357Y-3638333D01*
X21887976Y-3685952D01*
X21935595Y-3781190D01*
X21935595Y-4066904D01*
X21887976Y-4162142D01*
X21840357Y-4209761D01*
X21745119Y-4257380D01*
X21602261Y-4257380D01*
X22364166Y-4257380D02*
X22364166Y-3590714D01*
X22364166Y-3781190D02*
X22411785Y-3685952D01*
X22459404Y-3638333D01*
X22554642Y-3590714D01*
X22649880Y-3590714D01*
X35592738Y-88047380D02*
X36164166Y-88047380D01*
X35878452Y-89047380D02*
X35878452Y-88047380D01*
X36640357Y-89047380D02*
X36545119Y-88999761D01*
X36497500Y-88952142D01*
X36449880Y-88856904D01*
X36449880Y-88571190D01*
X36497500Y-88475952D01*
X36545119Y-88428333D01*
X36640357Y-88380714D01*
X36783214Y-88380714D01*
X36878452Y-88428333D01*
X36926071Y-88475952D01*
X36973690Y-88571190D01*
X36973690Y-88856904D01*
X36926071Y-88952142D01*
X36878452Y-88999761D01*
X36783214Y-89047380D01*
X36640357Y-89047380D01*
X38164166Y-89047380D02*
X38164166Y-88380714D01*
X38164166Y-88047380D02*
X38116547Y-88095000D01*
X38164166Y-88142619D01*
X38211785Y-88095000D01*
X38164166Y-88047380D01*
X38164166Y-88142619D01*
X38640357Y-88380714D02*
X38640357Y-89047380D01*
X38640357Y-88475952D02*
X38687976Y-88428333D01*
X38783214Y-88380714D01*
X38926071Y-88380714D01*
X39021309Y-88428333D01*
X39068928Y-88523571D01*
X39068928Y-89047380D01*
X39545119Y-88380714D02*
X39545119Y-89380714D01*
X39545119Y-88428333D02*
X39640357Y-88380714D01*
X39830833Y-88380714D01*
X39926071Y-88428333D01*
X39973690Y-88475952D01*
X40021309Y-88571190D01*
X40021309Y-88856904D01*
X39973690Y-88952142D01*
X39926071Y-88999761D01*
X39830833Y-89047380D01*
X39640357Y-89047380D01*
X39545119Y-88999761D01*
X40878452Y-88380714D02*
X40878452Y-89047380D01*
X40449880Y-88380714D02*
X40449880Y-88904523D01*
X40497500Y-88999761D01*
X40592738Y-89047380D01*
X40735595Y-89047380D01*
X40830833Y-88999761D01*
X40878452Y-88952142D01*
X41211785Y-88380714D02*
X41592738Y-88380714D01*
X41354642Y-88047380D02*
X41354642Y-88904523D01*
X41402261Y-88999761D01*
X41497500Y-89047380D01*
X41592738Y-89047380D01*
X35735595Y-90657380D02*
X35735595Y-89657380D01*
X36116547Y-89657380D01*
X36211785Y-89705000D01*
X36259404Y-89752619D01*
X36307023Y-89847857D01*
X36307023Y-89990714D01*
X36259404Y-90085952D01*
X36211785Y-90133571D01*
X36116547Y-90181190D01*
X35735595Y-90181190D01*
X37164166Y-90657380D02*
X37164166Y-90133571D01*
X37116547Y-90038333D01*
X37021309Y-89990714D01*
X36830833Y-89990714D01*
X36735595Y-90038333D01*
X37164166Y-90609761D02*
X37068928Y-90657380D01*
X36830833Y-90657380D01*
X36735595Y-90609761D01*
X36687976Y-90514523D01*
X36687976Y-90419285D01*
X36735595Y-90324047D01*
X36830833Y-90276428D01*
X37068928Y-90276428D01*
X37164166Y-90228809D01*
X37640357Y-89990714D02*
X37640357Y-90657380D01*
X37640357Y-90085952D02*
X37687976Y-90038333D01*
X37783214Y-89990714D01*
X37926071Y-89990714D01*
X38021309Y-90038333D01*
X38068928Y-90133571D01*
X38068928Y-90657380D01*
X38926071Y-90609761D02*
X38830833Y-90657380D01*
X38640357Y-90657380D01*
X38545119Y-90609761D01*
X38497500Y-90514523D01*
X38497500Y-90133571D01*
X38545119Y-90038333D01*
X38640357Y-89990714D01*
X38830833Y-89990714D01*
X38926071Y-90038333D01*
X38973690Y-90133571D01*
X38973690Y-90228809D01*
X38497500Y-90324047D01*
X39545119Y-90657380D02*
X39449880Y-90609761D01*
X39402261Y-90514523D01*
X39402261Y-89657380D01*
X25000238Y-60687976D02*
X24952619Y-60830833D01*
X24952619Y-61068928D01*
X25000238Y-61164166D01*
X25047857Y-61211785D01*
X25143095Y-61259404D01*
X25238333Y-61259404D01*
X25333571Y-61211785D01*
X25381190Y-61164166D01*
X25428809Y-61068928D01*
X25476428Y-60878452D01*
X25524047Y-60783214D01*
X25571666Y-60735595D01*
X25666904Y-60687976D01*
X25762142Y-60687976D01*
X25857380Y-60735595D01*
X25905000Y-60783214D01*
X25952619Y-60878452D01*
X25952619Y-61116547D01*
X25905000Y-61259404D01*
X24952619Y-61830833D02*
X25000238Y-61735595D01*
X25047857Y-61687976D01*
X25143095Y-61640357D01*
X25428809Y-61640357D01*
X25524047Y-61687976D01*
X25571666Y-61735595D01*
X25619285Y-61830833D01*
X25619285Y-61973690D01*
X25571666Y-62068928D01*
X25524047Y-62116547D01*
X25428809Y-62164166D01*
X25143095Y-62164166D01*
X25047857Y-62116547D01*
X25000238Y-62068928D01*
X24952619Y-61973690D01*
X24952619Y-61830833D01*
X24952619Y-62735595D02*
X25000238Y-62640357D01*
X25095476Y-62592738D01*
X25952619Y-62592738D01*
X24952619Y-63545119D02*
X25476428Y-63545119D01*
X25571666Y-63497500D01*
X25619285Y-63402261D01*
X25619285Y-63211785D01*
X25571666Y-63116547D01*
X25000238Y-63545119D02*
X24952619Y-63449880D01*
X24952619Y-63211785D01*
X25000238Y-63116547D01*
X25095476Y-63068928D01*
X25190714Y-63068928D01*
X25285952Y-63116547D01*
X25333571Y-63211785D01*
X25333571Y-63449880D01*
X25381190Y-63545119D01*
X24952619Y-64021309D02*
X25619285Y-64021309D01*
X25428809Y-64021309D02*
X25524047Y-64068928D01*
X25571666Y-64116547D01*
X25619285Y-64211785D01*
X25619285Y-64307023D01*
X25952619Y-65307023D02*
X24952619Y-65545119D01*
X25666904Y-65735595D01*
X24952619Y-65926071D01*
X25952619Y-66164166D01*
X24952619Y-66973690D02*
X25476428Y-66973690D01*
X25571666Y-66926071D01*
X25619285Y-66830833D01*
X25619285Y-66640357D01*
X25571666Y-66545119D01*
X25000238Y-66973690D02*
X24952619Y-66878452D01*
X24952619Y-66640357D01*
X25000238Y-66545119D01*
X25095476Y-66497500D01*
X25190714Y-66497500D01*
X25285952Y-66545119D01*
X25333571Y-66640357D01*
X25333571Y-66878452D01*
X25381190Y-66973690D01*
X25619285Y-67307023D02*
X25619285Y-67687976D01*
X25952619Y-67449880D02*
X25095476Y-67449880D01*
X25000238Y-67497500D01*
X24952619Y-67592738D01*
X24952619Y-67687976D01*
X25619285Y-67878452D02*
X25619285Y-68259404D01*
X25952619Y-68021309D02*
X25095476Y-68021309D01*
X25000238Y-68068928D01*
X24952619Y-68164166D01*
X24952619Y-68259404D01*
X23342619Y-60735595D02*
X24342619Y-60735595D01*
X23628333Y-61068928D01*
X24342619Y-61402261D01*
X23342619Y-61402261D01*
X23390238Y-62259404D02*
X23342619Y-62164166D01*
X23342619Y-61973690D01*
X23390238Y-61878452D01*
X23485476Y-61830833D01*
X23866428Y-61830833D01*
X23961666Y-61878452D01*
X24009285Y-61973690D01*
X24009285Y-62164166D01*
X23961666Y-62259404D01*
X23866428Y-62307023D01*
X23771190Y-62307023D01*
X23675952Y-61830833D01*
X24009285Y-62592738D02*
X24009285Y-62973690D01*
X24342619Y-62735595D02*
X23485476Y-62735595D01*
X23390238Y-62783214D01*
X23342619Y-62878452D01*
X23342619Y-62973690D01*
X23390238Y-63687976D02*
X23342619Y-63592738D01*
X23342619Y-63402261D01*
X23390238Y-63307023D01*
X23485476Y-63259404D01*
X23866428Y-63259404D01*
X23961666Y-63307023D01*
X24009285Y-63402261D01*
X24009285Y-63592738D01*
X23961666Y-63687976D01*
X23866428Y-63735595D01*
X23771190Y-63735595D01*
X23675952Y-63259404D01*
X23342619Y-64164166D02*
X24009285Y-64164166D01*
X23818809Y-64164166D02*
X23914047Y-64211785D01*
X23961666Y-64259404D01*
X24009285Y-64354642D01*
X24009285Y-64449880D01*
X27952619Y-75150119D02*
X28952619Y-75150119D01*
X28952619Y-75531071D01*
X28905000Y-75626309D01*
X28857380Y-75673928D01*
X28762142Y-75721547D01*
X28619285Y-75721547D01*
X28524047Y-75673928D01*
X28476428Y-75626309D01*
X28428809Y-75531071D01*
X28428809Y-75150119D01*
X28952619Y-76340595D02*
X28952619Y-76531071D01*
X28905000Y-76626309D01*
X28809761Y-76721547D01*
X28619285Y-76769166D01*
X28285952Y-76769166D01*
X28095476Y-76721547D01*
X28000238Y-76626309D01*
X27952619Y-76531071D01*
X27952619Y-76340595D01*
X28000238Y-76245357D01*
X28095476Y-76150119D01*
X28285952Y-76102500D01*
X28619285Y-76102500D01*
X28809761Y-76150119D01*
X28905000Y-76245357D01*
X28952619Y-76340595D01*
X28952619Y-77102500D02*
X27952619Y-77340595D01*
X28666904Y-77531071D01*
X27952619Y-77721547D01*
X28952619Y-77959642D01*
X28476428Y-78340595D02*
X28476428Y-78673928D01*
X27952619Y-78816785D02*
X27952619Y-78340595D01*
X28952619Y-78340595D01*
X28952619Y-78816785D01*
X27952619Y-79816785D02*
X28428809Y-79483452D01*
X27952619Y-79245357D02*
X28952619Y-79245357D01*
X28952619Y-79626309D01*
X28905000Y-79721547D01*
X28857380Y-79769166D01*
X28762142Y-79816785D01*
X28619285Y-79816785D01*
X28524047Y-79769166D01*
X28476428Y-79721547D01*
X28428809Y-79626309D01*
X28428809Y-79245357D01*
X27952619Y-81007261D02*
X28952619Y-81007261D01*
X27952619Y-81483452D02*
X28952619Y-81483452D01*
X27952619Y-82054880D01*
X28952619Y-82054880D01*
X27952619Y-82531071D02*
X28952619Y-82531071D01*
X28952619Y-82912023D01*
X28905000Y-83007261D01*
X28857380Y-83054880D01*
X28762142Y-83102500D01*
X28619285Y-83102500D01*
X28524047Y-83054880D01*
X28476428Y-83007261D01*
X28428809Y-82912023D01*
X28428809Y-82531071D01*
X28952619Y-83531071D02*
X28143095Y-83531071D01*
X28047857Y-83578690D01*
X28000238Y-83626309D01*
X27952619Y-83721547D01*
X27952619Y-83912023D01*
X28000238Y-84007261D01*
X28047857Y-84054880D01*
X28143095Y-84102500D01*
X28952619Y-84102500D01*
X28952619Y-84435833D02*
X28952619Y-85007261D01*
X27952619Y-84721547D02*
X28952619Y-84721547D01*
X25961666Y-76483452D02*
X26009285Y-76435833D01*
X26152142Y-76340595D01*
X26247380Y-76292976D01*
X26390238Y-76245357D01*
X26628333Y-76197738D01*
X26818809Y-76197738D01*
X27056904Y-76245357D01*
X27199761Y-76292976D01*
X27295000Y-76340595D01*
X27437857Y-76435833D01*
X27485476Y-76483452D01*
X27009285Y-77292976D02*
X26342619Y-77292976D01*
X27390238Y-77054880D02*
X26675952Y-76816785D01*
X26675952Y-77435833D01*
X26437857Y-77816785D02*
X26390238Y-77864404D01*
X26342619Y-77816785D01*
X26390238Y-77769166D01*
X26437857Y-77816785D01*
X26342619Y-77816785D01*
X27342619Y-78769166D02*
X27342619Y-78292976D01*
X26866428Y-78245357D01*
X26914047Y-78292976D01*
X26961666Y-78388214D01*
X26961666Y-78626309D01*
X26914047Y-78721547D01*
X26866428Y-78769166D01*
X26771190Y-78816785D01*
X26533095Y-78816785D01*
X26437857Y-78769166D01*
X26390238Y-78721547D01*
X26342619Y-78626309D01*
X26342619Y-78388214D01*
X26390238Y-78292976D01*
X26437857Y-78245357D01*
X27342619Y-79102500D02*
X26342619Y-79435833D01*
X27342619Y-79769166D01*
X26723571Y-80864404D02*
X26723571Y-81626309D01*
X27342619Y-83292976D02*
X27342619Y-83102500D01*
X27295000Y-83007261D01*
X27247380Y-82959642D01*
X27104523Y-82864404D01*
X26914047Y-82816785D01*
X26533095Y-82816785D01*
X26437857Y-82864404D01*
X26390238Y-82912023D01*
X26342619Y-83007261D01*
X26342619Y-83197738D01*
X26390238Y-83292976D01*
X26437857Y-83340595D01*
X26533095Y-83388214D01*
X26771190Y-83388214D01*
X26866428Y-83340595D01*
X26914047Y-83292976D01*
X26961666Y-83197738D01*
X26961666Y-83007261D01*
X26914047Y-82912023D01*
X26866428Y-82864404D01*
X26771190Y-82816785D01*
X27342619Y-83673928D02*
X26342619Y-84007261D01*
X27342619Y-84340595D01*
X25961666Y-84578690D02*
X26009285Y-84626309D01*
X26152142Y-84721547D01*
X26247380Y-84769166D01*
X26390238Y-84816785D01*
X26628333Y-84864404D01*
X26818809Y-84864404D01*
X27056904Y-84816785D01*
X27199761Y-84769166D01*
X27295000Y-84721547D01*
X27437857Y-84626309D01*
X27485476Y-84578690D01*
%TO.C,SW1*%
X36114761Y-47633333D02*
X36162380Y-47490476D01*
X36162380Y-47252380D01*
X36114761Y-47157142D01*
X36067142Y-47109523D01*
X35971904Y-47061904D01*
X35876666Y-47061904D01*
X35781428Y-47109523D01*
X35733809Y-47157142D01*
X35686190Y-47252380D01*
X35638571Y-47442857D01*
X35590952Y-47538095D01*
X35543333Y-47585714D01*
X35448095Y-47633333D01*
X35352857Y-47633333D01*
X35257619Y-47585714D01*
X35210000Y-47538095D01*
X35162380Y-47442857D01*
X35162380Y-47204761D01*
X35210000Y-47061904D01*
X35162380Y-46728571D02*
X36162380Y-46490476D01*
X35448095Y-46300000D01*
X36162380Y-46109523D01*
X35162380Y-45871428D01*
X36162380Y-44966666D02*
X36162380Y-45538095D01*
X36162380Y-45252380D02*
X35162380Y-45252380D01*
X35305238Y-45347619D01*
X35400476Y-45442857D01*
X35448095Y-45538095D01*
D15*
%TO.C,J10*%
X13650000Y-29000000D02*
X2350000Y-29000000D01*
X13650000Y-43250000D02*
X13650000Y-29000000D01*
X13650000Y-43250000D02*
X2350000Y-43250000D01*
X2350000Y-43250000D02*
X2350000Y-29000000D01*
%TO.C,J9*%
X13650000Y-85550000D02*
X13650000Y-99800000D01*
X2350000Y-85550000D02*
X13650000Y-85550000D01*
X2350000Y-85550000D02*
X2350000Y-99800000D01*
X2350000Y-99800000D02*
X13650000Y-99800000D01*
%TO.C,SW1*%
X39110000Y-51900000D02*
X39110000Y-41900000D01*
X39110000Y-41900000D02*
X32310000Y-41900000D01*
X32310000Y-41900000D02*
X32310000Y-51900000D01*
X32310000Y-51900000D02*
X39110000Y-51900000D01*
X39110000Y-41500000D02*
X38110000Y-41500000D01*
%TO.C,J4*%
X23560000Y-95290000D02*
X23560000Y-93690000D01*
X28000000Y-97650000D02*
X28000000Y-99250000D01*
X23400000Y-99250000D02*
X24400000Y-99250000D01*
X23840000Y-95290000D02*
X23840000Y-94075000D01*
X27840000Y-95290000D02*
X27560000Y-95290000D01*
X24400000Y-99250000D02*
X24400000Y-97650000D01*
X27000000Y-99250000D02*
X27000000Y-97650000D01*
X23560000Y-93690000D02*
X22640000Y-93690000D01*
X27000000Y-97650000D02*
X28000000Y-97650000D01*
X23840000Y-95290000D02*
X23560000Y-95290000D01*
X22640000Y-95290000D02*
X23560000Y-95290000D01*
X25200000Y-101510000D02*
X25200000Y-97150000D01*
X23400000Y-97650000D02*
X23400000Y-99250000D01*
X28000000Y-99250000D02*
X27000000Y-99250000D01*
X28760000Y-101510000D02*
X28760000Y-93690000D01*
X23900000Y-99250000D02*
X23900000Y-101510000D01*
X28760000Y-95290000D02*
X27840000Y-95290000D01*
X24400000Y-97650000D02*
X23400000Y-97650000D01*
X28760000Y-93690000D02*
X27840000Y-93690000D01*
X25200000Y-97150000D02*
X26200000Y-97150000D01*
X22640000Y-93690000D02*
X22640000Y-101510000D01*
X26200000Y-97150000D02*
X26200000Y-101510000D01*
X22640000Y-101510000D02*
X28760000Y-101510000D01*
X24400000Y-99250000D02*
X24400000Y-101510000D01*
X27840000Y-93690000D02*
X27840000Y-95290000D01*
%TO.C,D4*%
X32350000Y-69110000D02*
X31700000Y-69110000D01*
X32350000Y-65990000D02*
X33000000Y-65990000D01*
X32350000Y-69110000D02*
X33000000Y-69110000D01*
X32350000Y-65990000D02*
X30675000Y-65990000D01*
%TO.C,C11*%
X16865000Y-37538748D02*
X16865000Y-38061252D01*
X18335000Y-37538748D02*
X18335000Y-38061252D01*
%TO.C,J3*%
X41490000Y-42240000D02*
X41490000Y-43160000D01*
X45450000Y-41400000D02*
X45450000Y-42400000D01*
X43090000Y-41960000D02*
X43090000Y-42240000D01*
X43090000Y-31960000D02*
X43090000Y-32240000D01*
X47050000Y-31800000D02*
X47050000Y-32800000D01*
X47050000Y-41400000D02*
X45450000Y-41400000D01*
X47050000Y-41900000D02*
X49310000Y-41900000D01*
X44950000Y-33600000D02*
X49310000Y-33600000D01*
X49310000Y-31040000D02*
X41490000Y-31040000D01*
X49310000Y-40600000D02*
X44950000Y-40600000D01*
X47050000Y-32800000D02*
X45450000Y-32800000D01*
X45450000Y-32800000D02*
X45450000Y-31800000D01*
X47050000Y-41400000D02*
X49310000Y-41400000D01*
X41490000Y-31040000D02*
X41490000Y-31960000D01*
X44950000Y-40600000D02*
X44950000Y-33600000D01*
X45450000Y-31800000D02*
X47050000Y-31800000D01*
X41490000Y-43160000D02*
X49310000Y-43160000D01*
X47050000Y-42400000D02*
X47050000Y-41400000D01*
X43090000Y-43160000D02*
X43090000Y-42240000D01*
X43090000Y-31040000D02*
X43090000Y-31960000D01*
X43090000Y-42240000D02*
X41490000Y-42240000D01*
X43090000Y-41960000D02*
X41875000Y-41960000D01*
X49310000Y-43160000D02*
X49310000Y-31040000D01*
X41490000Y-31960000D02*
X43090000Y-31960000D01*
X45450000Y-42400000D02*
X47050000Y-42400000D01*
%TO.C,U2*%
X34312500Y-55640000D02*
X33512500Y-55640000D01*
X34312500Y-58760000D02*
X33512500Y-58760000D01*
X34312500Y-58760000D02*
X36112500Y-58760000D01*
X34312500Y-55640000D02*
X35112500Y-55640000D01*
%TO.C,R10*%
X31930000Y-42953641D02*
X31930000Y-42646359D01*
X31170000Y-42953641D02*
X31170000Y-42646359D01*
%TO.C,U9*%
X38125000Y-66915000D02*
X40075000Y-66915000D01*
X38125000Y-61795000D02*
X40075000Y-61795000D01*
X38125000Y-61795000D02*
X34675000Y-61795000D01*
X38125000Y-66915000D02*
X36175000Y-66915000D01*
%TO.C,R9*%
X12580000Y-11146359D02*
X12580000Y-11453641D01*
X11820000Y-11146359D02*
X11820000Y-11453641D01*
%TO.C,Y1*%
X34000000Y-63025000D02*
X34000000Y-64375000D01*
X32250000Y-63025000D02*
X32250000Y-64375000D01*
%TO.C,D5*%
X29040000Y-15185000D02*
X30960000Y-15185000D01*
X30960000Y-15185000D02*
X30960000Y-12500000D01*
X29040000Y-12500000D02*
X29040000Y-15185000D01*
%TO.C,R26*%
X38510000Y-55127064D02*
X38510000Y-53672936D01*
X36690000Y-55127064D02*
X36690000Y-53672936D01*
%TO.C,D2*%
X30960000Y-4500000D02*
X30960000Y-1815000D01*
X29040000Y-1815000D02*
X29040000Y-4500000D01*
X30960000Y-1815000D02*
X29040000Y-1815000D01*
%TO.C,C5*%
X11335000Y-12488748D02*
X11335000Y-13011252D01*
X9865000Y-12488748D02*
X9865000Y-13011252D01*
%TO.C,U6*%
X20862500Y-42960000D02*
X20062500Y-42960000D01*
X20862500Y-39840000D02*
X21662500Y-39840000D01*
X20862500Y-42960000D02*
X21662500Y-42960000D01*
X20862500Y-39840000D02*
X19062500Y-39840000D01*
%TO.C,U5*%
X4650000Y-10750000D02*
X4650000Y-11500000D01*
X4650000Y-14250000D02*
X5400000Y-14250000D01*
X4650000Y-10750000D02*
X5400000Y-10750000D01*
X4650000Y-13500000D02*
X4650000Y-14250000D01*
X6900000Y-14250000D02*
X7900000Y-14250000D01*
X8150000Y-10750000D02*
X8150000Y-11500000D01*
X7400000Y-10750000D02*
X8150000Y-10750000D01*
%TO.C,R3*%
X34963641Y-36720000D02*
X34656359Y-36720000D01*
X34963641Y-37480000D02*
X34656359Y-37480000D01*
%TO.C,R18*%
X21536359Y-38720000D02*
X21843641Y-38720000D01*
X21536359Y-39480000D02*
X21843641Y-39480000D01*
%TO.C,R5*%
X42846359Y-86980000D02*
X43153641Y-86980000D01*
X42846359Y-86220000D02*
X43153641Y-86220000D01*
%TO.C,R25*%
X32853641Y-14780000D02*
X32546359Y-14780000D01*
X32853641Y-14020000D02*
X32546359Y-14020000D01*
%TO.C,J5*%
X41490000Y-49640000D02*
X41490000Y-50560000D01*
X41490000Y-45360000D02*
X43090000Y-45360000D01*
X41490000Y-44440000D02*
X41490000Y-45360000D01*
X49310000Y-48000000D02*
X44950000Y-48000000D01*
X45450000Y-48800000D02*
X45450000Y-49800000D01*
X47050000Y-49300000D02*
X49310000Y-49300000D01*
X47050000Y-45200000D02*
X47050000Y-46200000D01*
X47050000Y-48800000D02*
X49310000Y-48800000D01*
X43090000Y-49360000D02*
X43090000Y-49640000D01*
X43090000Y-44440000D02*
X43090000Y-45360000D01*
X43090000Y-45360000D02*
X43090000Y-45640000D01*
X41490000Y-50560000D02*
X49310000Y-50560000D01*
X43090000Y-49360000D02*
X41875000Y-49360000D01*
X49310000Y-44440000D02*
X41490000Y-44440000D01*
X47050000Y-48800000D02*
X45450000Y-48800000D01*
X44950000Y-47000000D02*
X49310000Y-47000000D01*
X49310000Y-50560000D02*
X49310000Y-44440000D01*
X47050000Y-46200000D02*
X45450000Y-46200000D01*
X45450000Y-49800000D02*
X47050000Y-49800000D01*
X47050000Y-49800000D02*
X47050000Y-48800000D01*
X43090000Y-50560000D02*
X43090000Y-49640000D01*
X45450000Y-45200000D02*
X47050000Y-45200000D01*
X45450000Y-46200000D02*
X45450000Y-45200000D01*
X43090000Y-49640000D02*
X41490000Y-49640000D01*
X44950000Y-48000000D02*
X44950000Y-47000000D01*
%TO.C,R24*%
X40653641Y-68080000D02*
X40346359Y-68080000D01*
X40653641Y-67320000D02*
X40346359Y-67320000D01*
%TO.C,R14*%
X23270000Y-44753641D02*
X23270000Y-44446359D01*
X24030000Y-44753641D02*
X24030000Y-44446359D01*
D11*
%TO.C,U3*%
X15200000Y-11030000D02*
X15200000Y-10550000D01*
X13640000Y-10550000D02*
X13000000Y-10550000D01*
X15200000Y-10550000D02*
X14560000Y-10550000D01*
X15200000Y-13250000D02*
X14560000Y-13250000D01*
X13000000Y-11030000D02*
X13000000Y-10550000D01*
X15200000Y-13250000D02*
X15200000Y-12770000D01*
X13640000Y-13250000D02*
X13000000Y-13250000D01*
D15*
%TO.C,C10*%
X21582164Y-38360000D02*
X21797836Y-38360000D01*
X21582164Y-37640000D02*
X21797836Y-37640000D01*
%TO.C,R23*%
X43780000Y-72003641D02*
X43780000Y-71696359D01*
X43020000Y-72003641D02*
X43020000Y-71696359D01*
%TO.C,SW2*%
X46825000Y-13500000D02*
X45725000Y-13500000D01*
X46825000Y-13500000D02*
X46825000Y-7700000D01*
X46825000Y-7700000D02*
X45725000Y-7700000D01*
%TO.C,R4*%
X9380000Y-11746359D02*
X9380000Y-12053641D01*
X8620000Y-11746359D02*
X8620000Y-12053641D01*
%TO.C,R6*%
X30780000Y-42646359D02*
X30780000Y-42953641D01*
X30020000Y-42646359D02*
X30020000Y-42953641D01*
%TO.C,D1*%
X29040000Y-10185000D02*
X30960000Y-10185000D01*
X30960000Y-10185000D02*
X30960000Y-7500000D01*
X29040000Y-7500000D02*
X29040000Y-10185000D01*
%TO.C,R13*%
X31303641Y-46680000D02*
X30996359Y-46680000D01*
X31303641Y-45920000D02*
X30996359Y-45920000D01*
%TO.C,C3*%
X34792164Y-54540000D02*
X35007836Y-54540000D01*
X34792164Y-55260000D02*
X35007836Y-55260000D01*
%TO.C,C2*%
X42090000Y-62057836D02*
X42090000Y-61842164D01*
X42810000Y-62057836D02*
X42810000Y-61842164D01*
%TO.C,R12*%
X31270000Y-47953641D02*
X31270000Y-47646359D01*
X32030000Y-47953641D02*
X32030000Y-47646359D01*
%TO.C,R17*%
X24262742Y-40972500D02*
X24737258Y-40972500D01*
X24262742Y-39927500D02*
X24737258Y-39927500D01*
%TO.C,C16*%
X21265000Y-45261252D02*
X21265000Y-44738748D01*
X22735000Y-45261252D02*
X22735000Y-44738748D01*
%TO.C,C4*%
X14527836Y-13640000D02*
X14312164Y-13640000D01*
X14527836Y-14360000D02*
X14312164Y-14360000D01*
%TO.C,R19*%
X17253641Y-29880000D02*
X16946359Y-29880000D01*
X17253641Y-29120000D02*
X16946359Y-29120000D01*
%TO.C,R22*%
X42070000Y-66963641D02*
X42070000Y-66656359D01*
X42830000Y-66963641D02*
X42830000Y-66656359D01*
%TO.C,C15*%
X16865000Y-41661252D02*
X16865000Y-41138748D01*
X18335000Y-41661252D02*
X18335000Y-41138748D01*
%TO.C,C13*%
X18415000Y-29611252D02*
X18415000Y-29088748D01*
X19885000Y-29611252D02*
X19885000Y-29088748D01*
%TO.C,R2*%
X33272936Y-54110000D02*
X34727064Y-54110000D01*
X33272936Y-52290000D02*
X34727064Y-52290000D01*
%TO.C,R1*%
X35196359Y-69130000D02*
X35503641Y-69130000D01*
X35196359Y-68370000D02*
X35503641Y-68370000D01*
%TO.C,C7*%
X17192164Y-10060000D02*
X17407836Y-10060000D01*
X17192164Y-9340000D02*
X17407836Y-9340000D01*
%TO.C,R8*%
X15353641Y-9320000D02*
X15046359Y-9320000D01*
X15353641Y-10080000D02*
X15046359Y-10080000D01*
%TO.C,C6*%
X31302500Y-57572164D02*
X31302500Y-57787836D01*
X32022500Y-57572164D02*
X32022500Y-57787836D01*
%TO.C,D6*%
X32500000Y-41150000D02*
X37900000Y-41150000D01*
X32500000Y-37850000D02*
X37900000Y-37850000D01*
X32500000Y-37850000D02*
X32500000Y-41150000D01*
%TO.C,R11*%
X28920000Y-42656359D02*
X28920000Y-42963641D01*
X29680000Y-42656359D02*
X29680000Y-42963641D01*
%TO.C,R7*%
X36646359Y-37480000D02*
X36953641Y-37480000D01*
X36646359Y-36720000D02*
X36953641Y-36720000D01*
%TO.C,C12*%
X27551252Y-36935000D02*
X27028748Y-36935000D01*
X27551252Y-35465000D02*
X27028748Y-35465000D01*
%TO.C,J1*%
X47050000Y-27900000D02*
X45450000Y-27900000D01*
X43090000Y-29660000D02*
X43090000Y-28740000D01*
X41490000Y-29660000D02*
X49310000Y-29660000D01*
X43090000Y-28740000D02*
X41490000Y-28740000D01*
X49310000Y-17540000D02*
X41490000Y-17540000D01*
X47050000Y-28400000D02*
X49310000Y-28400000D01*
X43090000Y-28460000D02*
X41875000Y-28460000D01*
X41490000Y-18460000D02*
X43090000Y-18460000D01*
X45450000Y-27900000D02*
X45450000Y-28900000D01*
X44950000Y-20100000D02*
X49310000Y-20100000D01*
X45450000Y-19300000D02*
X45450000Y-18300000D01*
X49310000Y-27100000D02*
X44950000Y-27100000D01*
X43090000Y-17540000D02*
X43090000Y-18460000D01*
X45450000Y-18300000D02*
X47050000Y-18300000D01*
X44950000Y-27100000D02*
X44950000Y-20100000D01*
X47050000Y-19300000D02*
X45450000Y-19300000D01*
X43090000Y-28460000D02*
X43090000Y-28740000D01*
X43090000Y-18460000D02*
X43090000Y-18740000D01*
X47050000Y-28900000D02*
X47050000Y-27900000D01*
X45450000Y-28900000D02*
X47050000Y-28900000D01*
X41490000Y-17540000D02*
X41490000Y-18460000D01*
X41490000Y-28740000D02*
X41490000Y-29660000D01*
X49310000Y-29660000D02*
X49310000Y-17540000D01*
X47050000Y-27900000D02*
X49310000Y-27900000D01*
X47050000Y-18300000D02*
X47050000Y-19300000D01*
%TO.C,R21*%
X17253641Y-30930000D02*
X16946359Y-30930000D01*
X17253641Y-30170000D02*
X16946359Y-30170000D01*
%TO.C,C9*%
X23440000Y-88592164D02*
X23440000Y-88807836D01*
X24160000Y-88592164D02*
X24160000Y-88807836D01*
%TO.C,U4*%
X16100000Y-10350000D02*
X16100000Y-11350000D01*
X20100000Y-11350000D02*
X20100000Y-10350000D01*
X20100000Y-10350000D02*
X19100000Y-10350000D01*
X17100000Y-10350000D02*
X16100000Y-10350000D01*
X20100000Y-14350000D02*
X20100000Y-13350000D01*
X16100000Y-13350000D02*
X16100000Y-14350000D01*
X19100000Y-14350000D02*
X20100000Y-14350000D01*
%TO.C,R16*%
X25280000Y-88546359D02*
X25280000Y-88853641D01*
X24520000Y-88546359D02*
X24520000Y-88853641D01*
D10*
%TO.C,U1*%
X17449999Y-31299999D02*
X18849999Y-31299999D01*
X17850001Y-33200001D02*
X18849999Y-33200001D01*
D15*
%TO.C,J2*%
X31140000Y-95290000D02*
X31140000Y-94075000D01*
X29940000Y-95290000D02*
X30860000Y-95290000D01*
X40300000Y-99250000D02*
X40300000Y-97650000D01*
X41300000Y-99250000D02*
X40300000Y-99250000D01*
X31140000Y-95290000D02*
X30860000Y-95290000D01*
X32500000Y-101510000D02*
X32500000Y-97150000D01*
X41140000Y-93690000D02*
X41140000Y-95290000D01*
X31700000Y-97650000D02*
X30700000Y-97650000D01*
X39500000Y-97150000D02*
X39500000Y-101510000D01*
X40300000Y-97650000D02*
X41300000Y-97650000D01*
X31200000Y-99250000D02*
X31200000Y-101510000D01*
X41300000Y-97650000D02*
X41300000Y-99250000D01*
X42060000Y-95290000D02*
X41140000Y-95290000D01*
X42060000Y-93690000D02*
X41140000Y-93690000D01*
X29940000Y-101510000D02*
X42060000Y-101510000D01*
X42060000Y-101510000D02*
X42060000Y-93690000D01*
X41140000Y-95290000D02*
X40860000Y-95290000D01*
X32500000Y-97150000D02*
X39500000Y-97150000D01*
X30860000Y-93690000D02*
X29940000Y-93690000D01*
X30700000Y-99250000D02*
X31700000Y-99250000D01*
X31700000Y-99250000D02*
X31700000Y-101510000D01*
X30700000Y-97650000D02*
X30700000Y-99250000D01*
X29940000Y-93690000D02*
X29940000Y-101510000D01*
X30860000Y-95290000D02*
X30860000Y-93690000D01*
X31700000Y-99250000D02*
X31700000Y-97650000D01*
%TO.C,Q1*%
X28990000Y-39762500D02*
X28990000Y-41437500D01*
X28990000Y-39762500D02*
X28990000Y-39112500D01*
X32110000Y-39762500D02*
X32110000Y-39112500D01*
X32110000Y-39762500D02*
X32110000Y-40412500D01*
%TO.C,R20*%
X23536359Y-37620000D02*
X23843641Y-37620000D01*
X23536359Y-38380000D02*
X23843641Y-38380000D01*
%TO.C,R15*%
X23380000Y-85996359D02*
X23380000Y-86303641D01*
X22620000Y-85996359D02*
X22620000Y-86303641D01*
%TO.C,U7*%
X23290000Y-34140000D02*
X24090000Y-34140000D01*
X23290000Y-34140000D02*
X22490000Y-34140000D01*
X23290000Y-37260000D02*
X22490000Y-37260000D01*
X23290000Y-37260000D02*
X25090000Y-37260000D01*
%TO.C,C8*%
X20515000Y-29611252D02*
X20515000Y-29088748D01*
X21985000Y-29611252D02*
X21985000Y-29088748D01*
%TD*%
M02*
