%TF.GenerationSoftware,KiCad,Pcbnew,(6.0.9)*%
%TF.CreationDate,2023-05-10T12:51:21+05:30*%
%TF.ProjectId,WeatherKids_Compact(V1.0),57656174-6865-4724-9b69-64735f436f6d,rev?*%
%TF.SameCoordinates,Original*%
%TF.FileFunction,Legend,Bot*%
%TF.FilePolarity,Positive*%
%FSLAX46Y46*%
G04 Gerber Fmt 4.6, Leading zero omitted, Abs format (unit mm)*
G04 Created by KiCad (PCBNEW (6.0.9)) date 2023-05-10 12:51:21*
%MOMM*%
%LPD*%
G01*
G04 APERTURE LIST*
%ADD10C,0.300000*%
G04 APERTURE END LIST*
D10*
%TO.C,G\u002A\u002A\u002A*%
X23238000Y-48657428D02*
X23165428Y-48512285D01*
X23165428Y-48294571D01*
X23238000Y-48076857D01*
X23383142Y-47931714D01*
X23528285Y-47859142D01*
X23818571Y-47786571D01*
X24036285Y-47786571D01*
X24326571Y-47859142D01*
X24471714Y-47931714D01*
X24616857Y-48076857D01*
X24689428Y-48294571D01*
X24689428Y-48439714D01*
X24616857Y-48657428D01*
X24544285Y-48730000D01*
X24036285Y-48730000D01*
X24036285Y-48439714D01*
X23165428Y-49600857D02*
X23528285Y-49600857D01*
X23383142Y-49238000D02*
X23528285Y-49600857D01*
X23383142Y-49963714D01*
X23818571Y-49383142D02*
X23528285Y-49600857D01*
X23818571Y-49818571D01*
X23165428Y-50762000D02*
X23528285Y-50762000D01*
X23383142Y-50399142D02*
X23528285Y-50762000D01*
X23383142Y-51124857D01*
X23818571Y-50544285D02*
X23528285Y-50762000D01*
X23818571Y-50979714D01*
X23165428Y-51923142D02*
X23528285Y-51923142D01*
X23383142Y-51560285D02*
X23528285Y-51923142D01*
X23383142Y-52286000D01*
X23818571Y-51705428D02*
X23528285Y-51923142D01*
X23818571Y-52140857D01*
G36*
X3516525Y-4004018D02*
G01*
X3871779Y-3830208D01*
X4745147Y-3830246D01*
X6976139Y-3830343D01*
X8230393Y-3830398D01*
X10704688Y-3830506D01*
X11880291Y-3830557D01*
X13244225Y-3830617D01*
X15893188Y-3830732D01*
X21088605Y-3830959D01*
X22401448Y-3831016D01*
X23575547Y-3831067D01*
X25319811Y-3831143D01*
X26617347Y-3831200D01*
X28205880Y-3831269D01*
X29281124Y-3831316D01*
X33491927Y-3831500D01*
X33825177Y-3986682D01*
X34122865Y-4171803D01*
X34404632Y-4429927D01*
X34632193Y-4721439D01*
X34770128Y-5008056D01*
X34817733Y-5199835D01*
X34849783Y-5676088D01*
X34758879Y-6123177D01*
X34551504Y-6526624D01*
X34234144Y-6871947D01*
X33813283Y-7144667D01*
X33491927Y-7302864D01*
X30250781Y-7336730D01*
X29564035Y-7344013D01*
X28936673Y-7351235D01*
X28418094Y-7358382D01*
X27996080Y-7366081D01*
X27658414Y-7374963D01*
X27392879Y-7385654D01*
X27187258Y-7398785D01*
X27029333Y-7414983D01*
X26906888Y-7434878D01*
X26807704Y-7459097D01*
X26719565Y-7488270D01*
X26630253Y-7523026D01*
X26156709Y-7750774D01*
X25616915Y-8123735D01*
X25170758Y-8570392D01*
X24823595Y-9077723D01*
X24580782Y-9632708D01*
X24447677Y-10222324D01*
X24429636Y-10833551D01*
X24449730Y-10955200D01*
X24532017Y-11453367D01*
X24760176Y-12068751D01*
X25053599Y-12561431D01*
X25485901Y-13045741D01*
X26022901Y-13450831D01*
X26662707Y-13775002D01*
X26730177Y-13801636D01*
X26808342Y-13827655D01*
X26898796Y-13849686D01*
X27012446Y-13868180D01*
X27160203Y-13883593D01*
X27352975Y-13896379D01*
X27601671Y-13906990D01*
X27917200Y-13915881D01*
X28310472Y-13923506D01*
X28792396Y-13930318D01*
X29373880Y-13936772D01*
X30065834Y-13943321D01*
X30879167Y-13950420D01*
X31578531Y-13956018D01*
X32309355Y-13961609D01*
X32928193Y-13967478D01*
X33446126Y-13975260D01*
X33874237Y-13986589D01*
X34186458Y-14001345D01*
X34223608Y-14003101D01*
X34505321Y-14026429D01*
X34730458Y-14058209D01*
X34910101Y-14100075D01*
X35055332Y-14153662D01*
X35177234Y-14220605D01*
X35286887Y-14302538D01*
X35395375Y-14401096D01*
X35513778Y-14517914D01*
X35653180Y-14654626D01*
X35903376Y-14881173D01*
X36265832Y-15147047D01*
X36623754Y-15318871D01*
X37010812Y-15411254D01*
X37460677Y-15438802D01*
X37474330Y-15438795D01*
X37787771Y-15431962D01*
X38019106Y-15406410D01*
X38216404Y-15353476D01*
X38427730Y-15264496D01*
X38848208Y-15019339D01*
X39238072Y-14660304D01*
X39550945Y-14199780D01*
X39628328Y-14053156D01*
X39708453Y-13871777D01*
X39732501Y-13777775D01*
X41699511Y-13777775D01*
X41795590Y-14063588D01*
X42001157Y-14312158D01*
X42103799Y-14387748D01*
X42286042Y-14459993D01*
X42533690Y-14479687D01*
X42642907Y-14477801D01*
X42816416Y-14451998D01*
X42957203Y-14375534D01*
X42985014Y-14350071D01*
X43123928Y-14222886D01*
X43172555Y-14173419D01*
X43305262Y-14013687D01*
X43365739Y-13866507D01*
X43379615Y-13677182D01*
X43377449Y-13610545D01*
X43359146Y-13534508D01*
X43687524Y-13534508D01*
X43701669Y-13833639D01*
X43830963Y-14135802D01*
X44007707Y-14319294D01*
X44264730Y-14440513D01*
X44553026Y-14476482D01*
X44838518Y-14428411D01*
X45087124Y-14297506D01*
X45264766Y-14084977D01*
X45266465Y-14081675D01*
X45361668Y-13773352D01*
X45349224Y-13464612D01*
X45240446Y-13184721D01*
X45046645Y-12962947D01*
X44779134Y-12828557D01*
X44471567Y-12796921D01*
X44180551Y-12869615D01*
X43942510Y-13031065D01*
X43772986Y-13259840D01*
X43687524Y-13534508D01*
X43359146Y-13534508D01*
X43298764Y-13283656D01*
X43111082Y-13029496D01*
X42819908Y-12856140D01*
X42650339Y-12799855D01*
X42478469Y-12782273D01*
X42296905Y-12823539D01*
X42012480Y-12977316D01*
X41813527Y-13206594D01*
X41707347Y-13482762D01*
X41699511Y-13777775D01*
X39732501Y-13777775D01*
X39752744Y-13698645D01*
X39771605Y-13486940D01*
X39775447Y-13189843D01*
X39773746Y-13057414D01*
X39735285Y-12637442D01*
X39633843Y-12289098D01*
X39453129Y-11970156D01*
X39268878Y-11748902D01*
X40690545Y-11748902D01*
X40782747Y-12010092D01*
X40960215Y-12226722D01*
X41214847Y-12374508D01*
X41538538Y-12429166D01*
X41751020Y-12415359D01*
X41920811Y-12352230D01*
X42098374Y-12211920D01*
X42171759Y-12137047D01*
X42334889Y-11865098D01*
X42383731Y-11572237D01*
X42322463Y-11285516D01*
X42155262Y-11031984D01*
X41886305Y-10838693D01*
X41580510Y-10740912D01*
X41303901Y-10766660D01*
X41034337Y-10918226D01*
X41006574Y-10940810D01*
X40794355Y-11189977D01*
X40691714Y-11467436D01*
X40690545Y-11748902D01*
X39268878Y-11748902D01*
X39176848Y-11638389D01*
X39092195Y-11552160D01*
X38656113Y-11215793D01*
X38165886Y-10993049D01*
X37639386Y-10890149D01*
X37094485Y-10913317D01*
X36897240Y-10951021D01*
X36589166Y-11045402D01*
X36303065Y-11191296D01*
X36005734Y-11407238D01*
X35663967Y-11711758D01*
X35537240Y-11827894D01*
X35302969Y-12025284D01*
X35094062Y-12181135D01*
X34944379Y-12269216D01*
X34904986Y-12283009D01*
X34817317Y-12302408D01*
X34690521Y-12318634D01*
X34514248Y-12331938D01*
X34278145Y-12342571D01*
X33971862Y-12350785D01*
X33585047Y-12356830D01*
X33107349Y-12360959D01*
X32528417Y-12363422D01*
X31837899Y-12364471D01*
X31025443Y-12364357D01*
X27340365Y-12361787D01*
X26994802Y-12193008D01*
X26939516Y-12164966D01*
X26553775Y-11897223D01*
X26269375Y-11566101D01*
X26085835Y-11190278D01*
X26002676Y-10788431D01*
X26019416Y-10379240D01*
X26135578Y-9981381D01*
X26350679Y-9613533D01*
X26393988Y-9569451D01*
X40668750Y-9569451D01*
X40668786Y-9575992D01*
X40726725Y-9855692D01*
X40873676Y-10119615D01*
X41078181Y-10310804D01*
X41218280Y-10379384D01*
X41525126Y-10435386D01*
X41580510Y-10425775D01*
X41827462Y-10382918D01*
X42092166Y-10230832D01*
X42286112Y-9987980D01*
X42364608Y-9760960D01*
X42365954Y-9458608D01*
X42265820Y-9177364D01*
X42080314Y-8943699D01*
X41825544Y-8784086D01*
X41517617Y-8725000D01*
X41366447Y-8746009D01*
X41110353Y-8866503D01*
X40886861Y-9065638D01*
X40728739Y-9310819D01*
X40668750Y-9569451D01*
X26393988Y-9569451D01*
X26664240Y-9294373D01*
X27075781Y-9042580D01*
X27152869Y-9008209D01*
X27230602Y-8979044D01*
X27320206Y-8954832D01*
X27433721Y-8934945D01*
X27583191Y-8918753D01*
X27780655Y-8905627D01*
X28038156Y-8894940D01*
X28367735Y-8886062D01*
X28781433Y-8878365D01*
X29291291Y-8871220D01*
X29909352Y-8863997D01*
X30647656Y-8856069D01*
X31347395Y-8848555D01*
X31972380Y-8841273D01*
X32488707Y-8834079D01*
X32908538Y-8826344D01*
X33244032Y-8817439D01*
X33507351Y-8806734D01*
X33710656Y-8793598D01*
X33866108Y-8777404D01*
X33985868Y-8757520D01*
X34082097Y-8733319D01*
X34166955Y-8704169D01*
X34252604Y-8669441D01*
X34460229Y-8575727D01*
X35043491Y-8227524D01*
X35533714Y-7799741D01*
X35844739Y-7405129D01*
X41679678Y-7405129D01*
X41683646Y-7685569D01*
X41793057Y-7953072D01*
X41984599Y-8179269D01*
X42234962Y-8335792D01*
X42478469Y-8385604D01*
X42520833Y-8394270D01*
X42610744Y-8387430D01*
X42882321Y-8299869D01*
X43128500Y-8136515D01*
X43296108Y-7929264D01*
X43325935Y-7863395D01*
X43383792Y-7565217D01*
X43375812Y-7520219D01*
X43693419Y-7520219D01*
X43731345Y-7791001D01*
X43865529Y-8060332D01*
X44073305Y-8255688D01*
X44330160Y-8367283D01*
X44471567Y-8376353D01*
X44611583Y-8385334D01*
X44893064Y-8300056D01*
X45150090Y-8101667D01*
X45164055Y-8086328D01*
X45292446Y-7920063D01*
X45351114Y-7756443D01*
X45365104Y-7528731D01*
X45364754Y-7476805D01*
X45346184Y-7273422D01*
X45281359Y-7125773D01*
X45145425Y-6970737D01*
X45053772Y-6888019D01*
X44769351Y-6727636D01*
X44473274Y-6690600D01*
X44182969Y-6780357D01*
X43939261Y-6955404D01*
X43755433Y-7213841D01*
X43693419Y-7520219D01*
X43375812Y-7520219D01*
X43332593Y-7276519D01*
X43190060Y-7021414D01*
X42973916Y-6824013D01*
X42701885Y-6708430D01*
X42391689Y-6698777D01*
X42207382Y-6766101D01*
X41982777Y-6930400D01*
X41795044Y-7147750D01*
X41685823Y-7378081D01*
X41679678Y-7405129D01*
X35844739Y-7405129D01*
X35924416Y-7304039D01*
X36209111Y-6752079D01*
X36381316Y-6155522D01*
X36434547Y-5526029D01*
X36362320Y-4875260D01*
X36202797Y-4352057D01*
X35912764Y-3798913D01*
X35521126Y-3307116D01*
X35041762Y-2890805D01*
X34938886Y-2830055D01*
X43862306Y-2830055D01*
X43867444Y-3174145D01*
X43979908Y-3502826D01*
X44194431Y-3791715D01*
X44473274Y-3992996D01*
X44505742Y-4016433D01*
X44827035Y-4126204D01*
X45185551Y-4131460D01*
X45523799Y-4022516D01*
X45817655Y-3807559D01*
X45928551Y-3653631D01*
X46042996Y-3494776D01*
X46063799Y-3451229D01*
X46151488Y-3107123D01*
X46130422Y-2745732D01*
X46002418Y-2415341D01*
X45755739Y-2121139D01*
X45450241Y-1931661D01*
X45110414Y-1849312D01*
X44760472Y-1876040D01*
X44424629Y-2013791D01*
X44127099Y-2264514D01*
X43969766Y-2494934D01*
X43862306Y-2830055D01*
X34938886Y-2830055D01*
X34488548Y-2564122D01*
X33875362Y-2341205D01*
X33861356Y-2337825D01*
X33799568Y-2326970D01*
X33711579Y-2316954D01*
X33592336Y-2307746D01*
X33436787Y-2299313D01*
X33239880Y-2291622D01*
X32996564Y-2284641D01*
X32701786Y-2278336D01*
X32350495Y-2272675D01*
X31937638Y-2267625D01*
X31458165Y-2263154D01*
X30907022Y-2259228D01*
X30279159Y-2255815D01*
X29569523Y-2252883D01*
X28773062Y-2250399D01*
X27884725Y-2248329D01*
X26899459Y-2246641D01*
X25812213Y-2245303D01*
X24617935Y-2244281D01*
X23311572Y-2243544D01*
X21888074Y-2243058D01*
X20342388Y-2242790D01*
X18669462Y-2242708D01*
X17167215Y-2242668D01*
X15626234Y-2242509D01*
X14207874Y-2242193D01*
X12907054Y-2241682D01*
X11718695Y-2240939D01*
X10637717Y-2239928D01*
X9659039Y-2238611D01*
X8777582Y-2236950D01*
X7988265Y-2234908D01*
X7286009Y-2232448D01*
X6665733Y-2229533D01*
X6122358Y-2226125D01*
X5650803Y-2222188D01*
X5245988Y-2217683D01*
X4902833Y-2212574D01*
X4616258Y-2206823D01*
X4381184Y-2200393D01*
X4192529Y-2193247D01*
X4045214Y-2185348D01*
X3934160Y-2176657D01*
X3854285Y-2167139D01*
X3800509Y-2156755D01*
X3767754Y-2145469D01*
X3750938Y-2133243D01*
X3734981Y-2115215D01*
X3536617Y-1977336D01*
X3262161Y-1881653D01*
X2960219Y-1845833D01*
X2788273Y-1867801D01*
X2577421Y-1930046D01*
X2378261Y-2015656D01*
X2230007Y-2107574D01*
X2171875Y-2188742D01*
X2138963Y-2201878D01*
X1994731Y-2218124D01*
X1755705Y-2231063D01*
X1443685Y-2239617D01*
X1080469Y-2242708D01*
X-10937Y-2242708D01*
X-10937Y6250D01*
X48010938Y6250D01*
X48010938Y-100006250D01*
X-10937Y-100006250D01*
X-10937Y-95976860D01*
X6630234Y-95976860D01*
X6672383Y-96318045D01*
X6734736Y-96505475D01*
X6942931Y-96850268D01*
X7237783Y-97119637D01*
X7595604Y-97294934D01*
X7992708Y-97357511D01*
X8183545Y-97343014D01*
X8564310Y-97224731D01*
X8895668Y-97003587D01*
X9152524Y-96699141D01*
X9309783Y-96330955D01*
X9353550Y-96119076D01*
X9360715Y-95875807D01*
X9300940Y-95634570D01*
X9166574Y-95342540D01*
X9100372Y-95243750D01*
X13251302Y-95243750D01*
X13254117Y-95555831D01*
X13267377Y-95788464D01*
X13297834Y-95963280D01*
X13352239Y-96118292D01*
X13437341Y-96291514D01*
X13450493Y-96316162D01*
X13743898Y-96756607D01*
X14108002Y-97141820D01*
X14506722Y-97433276D01*
X14652337Y-97514155D01*
X14808210Y-97593456D01*
X14888411Y-97624379D01*
X14892188Y-97611807D01*
X14900486Y-97492899D01*
X14908272Y-97257387D01*
X14915421Y-96916170D01*
X14915812Y-96889523D01*
X17847422Y-96889523D01*
X17864115Y-97225526D01*
X17996555Y-97572870D01*
X18103559Y-97730789D01*
X18365151Y-97964156D01*
X18675965Y-98100932D01*
X19010996Y-98143110D01*
X19345239Y-98092685D01*
X19653689Y-97951649D01*
X19911340Y-97721996D01*
X20093188Y-97405719D01*
X20104937Y-97372487D01*
X20146456Y-97083351D01*
X43853197Y-97083351D01*
X43931866Y-97423025D01*
X44127099Y-97735485D01*
X44143125Y-97753410D01*
X44440835Y-97994814D01*
X44776261Y-98125930D01*
X45124646Y-98148725D01*
X45461232Y-98065162D01*
X45761262Y-97877207D01*
X45999976Y-97586826D01*
X46104970Y-97355244D01*
X46159937Y-97014857D01*
X46110800Y-96689156D01*
X45973203Y-96394927D01*
X45762785Y-96148955D01*
X45495189Y-95968025D01*
X45186056Y-95868922D01*
X44851026Y-95868431D01*
X44505742Y-95983337D01*
X44263948Y-96144596D01*
X44024501Y-96419783D01*
X43885830Y-96740819D01*
X43853197Y-97083351D01*
X20146456Y-97083351D01*
X20152771Y-97039376D01*
X20099458Y-96690188D01*
X19957094Y-96368715D01*
X19737771Y-96118749D01*
X19583685Y-96014055D01*
X19252751Y-95884338D01*
X18921913Y-95862544D01*
X18607692Y-95934877D01*
X18326612Y-96087538D01*
X18095192Y-96306732D01*
X17929955Y-96578659D01*
X17847422Y-96889523D01*
X14915812Y-96889523D01*
X14921811Y-96480146D01*
X14927316Y-95960215D01*
X14931814Y-95367273D01*
X14931939Y-95343036D01*
X24067151Y-95343036D01*
X24073765Y-95661146D01*
X24101741Y-95875295D01*
X24165878Y-96006051D01*
X24280976Y-96073982D01*
X24461836Y-96099658D01*
X24723256Y-96103645D01*
X24977215Y-96092349D01*
X25141963Y-96051603D01*
X25256771Y-95971354D01*
X25302351Y-95918373D01*
X25347270Y-95826112D01*
X25373592Y-95687592D01*
X25385971Y-95474162D01*
X25389063Y-95157173D01*
X25388969Y-95103257D01*
X26050521Y-95103257D01*
X26050570Y-95127593D01*
X26067583Y-95464942D01*
X26122726Y-95703445D01*
X26227033Y-95872120D01*
X26391540Y-95999983D01*
X26421189Y-96016408D01*
X26682248Y-96083473D01*
X26946687Y-96031702D01*
X27179884Y-95866937D01*
X27238301Y-95797104D01*
X27303011Y-95670114D01*
X27338773Y-95492307D01*
X27356754Y-95223027D01*
X27356155Y-95142378D01*
X31342187Y-95142378D01*
X31342422Y-95256655D01*
X31351059Y-95598489D01*
X31382487Y-95833486D01*
X31450659Y-95981572D01*
X31569525Y-96062676D01*
X31753034Y-96096724D01*
X32015139Y-96103645D01*
X32049441Y-96103543D01*
X32299302Y-96091439D01*
X32456462Y-96053742D01*
X32555634Y-95982682D01*
X32576407Y-95956514D01*
X32620070Y-95860088D01*
X32647248Y-95707141D01*
X32661180Y-95472473D01*
X32663729Y-95250580D01*
X33338183Y-95250580D01*
X33344195Y-95343374D01*
X33374141Y-95581337D01*
X33428920Y-95742121D01*
X33521023Y-95867901D01*
X33538758Y-95886174D01*
X33778701Y-96043776D01*
X34043644Y-96083394D01*
X34304518Y-96006554D01*
X34532253Y-95814784D01*
X34544974Y-95798069D01*
X34605186Y-95667276D01*
X34637696Y-95466911D01*
X34648008Y-95166142D01*
X34648067Y-95132201D01*
X34646101Y-95041764D01*
X35324409Y-95041764D01*
X35331618Y-95363656D01*
X35404022Y-95656596D01*
X35542050Y-95877750D01*
X35596157Y-95926642D01*
X35841658Y-96054824D01*
X36104818Y-96074319D01*
X36351063Y-95987866D01*
X36545817Y-95798207D01*
X36589661Y-95696227D01*
X36639183Y-95475709D01*
X36670556Y-95208942D01*
X36671851Y-95166142D01*
X37362929Y-95166142D01*
X37363321Y-95222908D01*
X37376853Y-95505337D01*
X37413473Y-95692352D01*
X37478684Y-95814784D01*
X37495401Y-95834787D01*
X37727121Y-96017358D01*
X37989541Y-96084567D01*
X38253747Y-96034923D01*
X38490821Y-95866937D01*
X38549238Y-95797104D01*
X38613948Y-95670114D01*
X38649711Y-95492307D01*
X38667692Y-95223027D01*
X38666646Y-95138399D01*
X39345833Y-95138399D01*
X39346035Y-95216228D01*
X39353683Y-95453470D01*
X39380680Y-95610858D01*
X39438221Y-95730136D01*
X39537502Y-95853052D01*
X39648980Y-95964429D01*
X39801307Y-96047052D01*
X40007292Y-96067566D01*
X40159938Y-96058340D01*
X40321162Y-95997790D01*
X40477082Y-95853052D01*
X40506822Y-95819242D01*
X40594459Y-95701199D01*
X40643196Y-95576208D01*
X40664228Y-95402523D01*
X40668750Y-95138399D01*
X40668421Y-95036289D01*
X40660329Y-94810629D01*
X40632899Y-94663522D01*
X40574975Y-94554954D01*
X40475401Y-94444911D01*
X40410323Y-94384120D01*
X40232827Y-94279451D01*
X40007292Y-94251562D01*
X39917888Y-94254578D01*
X39717899Y-94305827D01*
X39539183Y-94444911D01*
X39499835Y-94485109D01*
X39415725Y-94590151D01*
X39369459Y-94707371D01*
X39349880Y-94876782D01*
X39345833Y-95138399D01*
X38666646Y-95138399D01*
X38663887Y-94915099D01*
X38603021Y-94608851D01*
X38471698Y-94403267D01*
X38262247Y-94287716D01*
X37966999Y-94251562D01*
X37854886Y-94256786D01*
X37684645Y-94312085D01*
X37532703Y-94455075D01*
X37521268Y-94468783D01*
X37436617Y-94588273D01*
X37388526Y-94717036D01*
X37367222Y-94896012D01*
X37362929Y-95166142D01*
X36671851Y-95166142D01*
X36678518Y-94945812D01*
X36657809Y-94736205D01*
X36634035Y-94657238D01*
X36492683Y-94446885D01*
X36278912Y-94307937D01*
X36028076Y-94250519D01*
X35775531Y-94284759D01*
X35556630Y-94420784D01*
X35503859Y-94482468D01*
X35381965Y-94733756D01*
X35324409Y-95041764D01*
X34646101Y-95041764D01*
X34642444Y-94873593D01*
X34618780Y-94701829D01*
X34567302Y-94575970D01*
X34478235Y-94455075D01*
X34401359Y-94371738D01*
X34249348Y-94276028D01*
X34043938Y-94251562D01*
X33830874Y-94270235D01*
X33588536Y-94369815D01*
X33429007Y-94561635D01*
X33347238Y-94852842D01*
X33338183Y-95250580D01*
X32663729Y-95250580D01*
X32665104Y-95130885D01*
X32664990Y-95036327D01*
X32658078Y-94700920D01*
X32629680Y-94472517D01*
X32564916Y-94330595D01*
X32448908Y-94254632D01*
X32266777Y-94224104D01*
X32003646Y-94218489D01*
X31920838Y-94218729D01*
X31683171Y-94229026D01*
X31521469Y-94269581D01*
X31421125Y-94360793D01*
X31367534Y-94523063D01*
X31346090Y-94776791D01*
X31342187Y-95142378D01*
X27356155Y-95142378D01*
X27354685Y-94944429D01*
X27297603Y-94627080D01*
X27170238Y-94412139D01*
X26965966Y-94290126D01*
X26678167Y-94251562D01*
X26653355Y-94251904D01*
X26438155Y-94299075D01*
X26243870Y-94444911D01*
X26231265Y-94457591D01*
X26133327Y-94570623D01*
X26078940Y-94687367D01*
X26055530Y-94850639D01*
X26050521Y-95103257D01*
X25388969Y-95103257D01*
X25388872Y-95047892D01*
X25380724Y-94710273D01*
X25349591Y-94479349D01*
X25280584Y-94334914D01*
X25158816Y-94256763D01*
X24969401Y-94224690D01*
X24697451Y-94218489D01*
X24613802Y-94218959D01*
X24358613Y-94231059D01*
X24205478Y-94262603D01*
X24130892Y-94317708D01*
X24107851Y-94408168D01*
X24087010Y-94605776D01*
X24072705Y-94877148D01*
X24067159Y-95191813D01*
X24067151Y-95343036D01*
X14931939Y-95343036D01*
X14935179Y-94712220D01*
X14937290Y-94005955D01*
X14938021Y-93259375D01*
X14938013Y-93179752D01*
X14936966Y-92374310D01*
X14934362Y-91661913D01*
X19303549Y-91661913D01*
X19340428Y-91955373D01*
X19481252Y-92224331D01*
X19726023Y-92440123D01*
X19841558Y-92496444D01*
X20005596Y-92537740D01*
X20235129Y-92558892D01*
X20563356Y-92564843D01*
X20894384Y-92556376D01*
X21179364Y-92518797D01*
X21387340Y-92440376D01*
X21547194Y-92309552D01*
X21687806Y-92114765D01*
X21695543Y-92101721D01*
X21781364Y-91899028D01*
X21816693Y-91704947D01*
X44736719Y-91704947D01*
X44737008Y-91753876D01*
X44754060Y-91966684D01*
X44812076Y-92117033D01*
X44851026Y-92164767D01*
X44931396Y-92263262D01*
X44980514Y-92311333D01*
X45228645Y-92475538D01*
X45546955Y-92568119D01*
X45960417Y-92597178D01*
X46035968Y-92596413D01*
X46436855Y-92556490D01*
X46744310Y-92450910D01*
X46980459Y-92272633D01*
X47063053Y-92163477D01*
X47169882Y-91904210D01*
X47205212Y-91621813D01*
X47157618Y-91374218D01*
X47034051Y-91178655D01*
X46773997Y-90976580D01*
X46414384Y-90853595D01*
X45960853Y-90812348D01*
X45854771Y-90813964D01*
X45465906Y-90857199D01*
X45166477Y-90965373D01*
X44931396Y-91146633D01*
X44904739Y-91174984D01*
X44797833Y-91317676D01*
X44748607Y-91474884D01*
X44736719Y-91704947D01*
X21816693Y-91704947D01*
X21815346Y-91669022D01*
X21744554Y-91411796D01*
X21588180Y-91159763D01*
X21376800Y-90964401D01*
X21350297Y-90948986D01*
X21143434Y-90883376D01*
X20856150Y-90845575D01*
X20529607Y-90835447D01*
X20204964Y-90852861D01*
X19923383Y-90897680D01*
X19726023Y-90969772D01*
X19541628Y-91116145D01*
X19370616Y-91372615D01*
X19303549Y-91661913D01*
X14934362Y-91661913D01*
X14934247Y-91630590D01*
X14929977Y-90957415D01*
X14924276Y-90363604D01*
X14917264Y-89857979D01*
X14909061Y-89449360D01*
X14899788Y-89146568D01*
X14893871Y-89037673D01*
X19312809Y-89037673D01*
X19322532Y-89348599D01*
X19451613Y-89633178D01*
X19694730Y-89867415D01*
X19753464Y-89904871D01*
X19878155Y-89963696D01*
X20029680Y-89998053D01*
X20243147Y-90014097D01*
X20529607Y-90017680D01*
X20553662Y-90017981D01*
X20842987Y-90010362D01*
X21182343Y-89966852D01*
X21428045Y-89876987D01*
X21600959Y-89731921D01*
X21721949Y-89522811D01*
X21799123Y-89280114D01*
X21798630Y-89028560D01*
X21696322Y-88765537D01*
X21678166Y-88732978D01*
X21515098Y-88529378D01*
X21291405Y-88395082D01*
X20985516Y-88321100D01*
X20575861Y-88298437D01*
X20522656Y-88298682D01*
X20117286Y-88323749D01*
X19815293Y-88395278D01*
X19595726Y-88520806D01*
X19437633Y-88707868D01*
X19427765Y-88724399D01*
X19312809Y-89037673D01*
X14893871Y-89037673D01*
X14889565Y-88958424D01*
X14878512Y-88893750D01*
X14873122Y-88894769D01*
X14792293Y-88952679D01*
X14654521Y-89081879D01*
X14486307Y-89257773D01*
X14358926Y-89408798D01*
X14102497Y-89810852D01*
X13937943Y-90230170D01*
X13880334Y-90632559D01*
X13880430Y-90641092D01*
X13909716Y-90843941D01*
X13979844Y-91087304D01*
X14074262Y-91328594D01*
X14176419Y-91525222D01*
X14269764Y-91634600D01*
X14334751Y-91700362D01*
X14302248Y-91781607D01*
X14152277Y-91888133D01*
X14031717Y-91978586D01*
X13855850Y-92219609D01*
X13766887Y-92514103D01*
X13772950Y-92825145D01*
X13882164Y-93115811D01*
X14016438Y-93336050D01*
X13805923Y-93575814D01*
X13715432Y-93691149D01*
X13557848Y-93932566D01*
X13423355Y-94182398D01*
X13365969Y-94311292D01*
X13306161Y-94484921D01*
X13271399Y-94671776D01*
X13255255Y-94911503D01*
X13251302Y-95243750D01*
X9100372Y-95243750D01*
X9006183Y-95103196D01*
X8724214Y-94857680D01*
X8392010Y-94707553D01*
X8033177Y-94652480D01*
X7671325Y-94692128D01*
X7330059Y-94826160D01*
X7032988Y-95054243D01*
X6803718Y-95376041D01*
X6689623Y-95644677D01*
X6630234Y-95976860D01*
X-10937Y-95976860D01*
X-10937Y-88343100D01*
X4156372Y-88343100D01*
X4191828Y-88734090D01*
X4328806Y-89098321D01*
X4564127Y-89403223D01*
X4643690Y-89471359D01*
X4975978Y-89657315D01*
X5341256Y-89736868D01*
X5714829Y-89716909D01*
X6071997Y-89604331D01*
X6388064Y-89406026D01*
X6638333Y-89128886D01*
X6798106Y-88779802D01*
X6832218Y-88633213D01*
X6835931Y-88540179D01*
X9136185Y-88540179D01*
X9241226Y-88920252D01*
X9467494Y-89269743D01*
X9709128Y-89490448D01*
X10059134Y-89674556D01*
X10432679Y-89749609D01*
X10806816Y-89718249D01*
X11158598Y-89583122D01*
X11465079Y-89346871D01*
X11703312Y-89012140D01*
X11794237Y-88742413D01*
X11829115Y-88416827D01*
X11799384Y-88116735D01*
X11668747Y-87751312D01*
X11452290Y-87454138D01*
X11169946Y-87232736D01*
X10841644Y-87094628D01*
X10487318Y-87047335D01*
X10126896Y-87098380D01*
X9780311Y-87255283D01*
X9467494Y-87525568D01*
X9289788Y-87777808D01*
X9152373Y-88151904D01*
X9136185Y-88540179D01*
X6835931Y-88540179D01*
X6847424Y-88252158D01*
X6742137Y-87891358D01*
X6511437Y-87529348D01*
X6406203Y-87413173D01*
X6095194Y-87192626D01*
X5740251Y-87076175D01*
X5366858Y-87062638D01*
X5000498Y-87150833D01*
X4666654Y-87339579D01*
X4390809Y-87627694D01*
X4225617Y-87957916D01*
X4156372Y-88343100D01*
X-10937Y-88343100D01*
X-10937Y-86587400D01*
X19303893Y-86587400D01*
X19346759Y-86908400D01*
X19488325Y-87172777D01*
X19731870Y-87358724D01*
X20080504Y-87468555D01*
X20537340Y-87504584D01*
X20575861Y-87502476D01*
X20915762Y-87483875D01*
X21234467Y-87407690D01*
X21476646Y-87265869D01*
X21667041Y-87048421D01*
X21702653Y-86990038D01*
X21797008Y-86697623D01*
X21774517Y-86400913D01*
X21642311Y-86130940D01*
X21407517Y-85918737D01*
X21362327Y-85892768D01*
X21231999Y-85838593D01*
X21066990Y-85805795D01*
X20834824Y-85789577D01*
X20503025Y-85785143D01*
X19817249Y-85784895D01*
X19560447Y-86041697D01*
X19514022Y-86088888D01*
X19379981Y-86249689D01*
X19318524Y-86397596D01*
X19303893Y-86587400D01*
X-10937Y-86587400D01*
X-10937Y-84122495D01*
X19303893Y-84122495D01*
X19304529Y-84175404D01*
X19328165Y-84349992D01*
X19404885Y-84495994D01*
X19560447Y-84668198D01*
X19817249Y-84925000D01*
X20503025Y-84924752D01*
X20903241Y-84911611D01*
X21219491Y-84864133D01*
X21447258Y-84773697D01*
X21607694Y-84631711D01*
X21721949Y-84429582D01*
X21804763Y-84152095D01*
X21788859Y-83908150D01*
X21667041Y-83661474D01*
X21495072Y-83459940D01*
X21258430Y-83311881D01*
X20947433Y-83230334D01*
X20537340Y-83205311D01*
X20106004Y-83236925D01*
X19750659Y-83342048D01*
X19500599Y-83523142D01*
X19352714Y-83782520D01*
X19303893Y-84122495D01*
X-10937Y-84122495D01*
X-10937Y-81761372D01*
X5350831Y-81761372D01*
X5366858Y-81836533D01*
X5447439Y-82214429D01*
X5655990Y-82626431D01*
X5754422Y-82749667D01*
X5945232Y-82937474D01*
X6156577Y-83104994D01*
X6353191Y-83225271D01*
X6499808Y-83271354D01*
X6513612Y-83268408D01*
X6535618Y-83243469D01*
X6553766Y-83184026D01*
X6568420Y-83079213D01*
X6579943Y-82918164D01*
X6588698Y-82690016D01*
X6595047Y-82383903D01*
X6599353Y-81988960D01*
X6601980Y-81494322D01*
X6603290Y-80889123D01*
X6603646Y-80162500D01*
X6603652Y-79778368D01*
X6603271Y-79090505D01*
X6601392Y-78520904D01*
X6596848Y-78060162D01*
X6588470Y-77698870D01*
X6575092Y-77427623D01*
X6555544Y-77237014D01*
X6528660Y-77117638D01*
X6493272Y-77060087D01*
X6448212Y-77054955D01*
X6392312Y-77092836D01*
X6324404Y-77164324D01*
X6243322Y-77260012D01*
X6237174Y-77267346D01*
X5977655Y-77654364D01*
X5843792Y-78039463D01*
X5837017Y-78415027D01*
X5958761Y-78773437D01*
X6118589Y-79071093D01*
X5931170Y-79246460D01*
X5870152Y-79308159D01*
X5770370Y-79474162D01*
X5743750Y-79693842D01*
X5744885Y-79742356D01*
X5770788Y-79944330D01*
X5820160Y-80088208D01*
X5853763Y-80171984D01*
X5828799Y-80280275D01*
X5722238Y-80439119D01*
X5490051Y-80844378D01*
X5365319Y-81295332D01*
X5350831Y-81761372D01*
X-10937Y-81761372D01*
X-10937Y-60597233D01*
X1344653Y-60597233D01*
X1351926Y-61331253D01*
X1469395Y-62053401D01*
X1694993Y-62750810D01*
X2026654Y-63410609D01*
X2462312Y-64019930D01*
X2999901Y-64565903D01*
X3637357Y-65035659D01*
X3716222Y-65082687D01*
X4002597Y-65232030D01*
X4335599Y-65382383D01*
X4682508Y-65521187D01*
X5010602Y-65635881D01*
X5287161Y-65713908D01*
X5479464Y-65742708D01*
X5487452Y-65742756D01*
X5586190Y-65768582D01*
X5580765Y-65858463D01*
X5579626Y-65861420D01*
X5506136Y-66193419D01*
X5504911Y-66581636D01*
X5576175Y-66971895D01*
X5577199Y-66975430D01*
X5750793Y-67357104D01*
X6023669Y-67701675D01*
X6364536Y-67977448D01*
X6448212Y-68016295D01*
X6742101Y-68152733D01*
X6879893Y-68190953D01*
X7084414Y-68237912D01*
X7218679Y-68256250D01*
X7239557Y-68256753D01*
X7314347Y-68291366D01*
X7302027Y-68405078D01*
X7295316Y-68431934D01*
X7269456Y-68595976D01*
X7243221Y-68838045D01*
X7221375Y-69116145D01*
X7218076Y-69174379D01*
X7245853Y-69852686D01*
X7394262Y-70484980D01*
X7657799Y-71061668D01*
X8030957Y-71573157D01*
X8033177Y-71575188D01*
X8508230Y-72009851D01*
X9084115Y-72362158D01*
X9599089Y-72579415D01*
X10124778Y-72712364D01*
X10487318Y-72740139D01*
X10670413Y-72754166D01*
X11014956Y-72754166D01*
X10826749Y-73127290D01*
X10750821Y-73293068D01*
X10652771Y-73657690D01*
X10669812Y-74011272D01*
X10801199Y-74390606D01*
X10849528Y-74487695D01*
X11025941Y-74737456D01*
X11272550Y-74933789D01*
X11400342Y-75013586D01*
X11554272Y-75105753D01*
X11636258Y-75149433D01*
X11641197Y-75155479D01*
X11625819Y-75243639D01*
X11562418Y-75412137D01*
X11461664Y-75631510D01*
X11349746Y-75888403D01*
X11195679Y-76448341D01*
X11150914Y-77016280D01*
X11216202Y-77565847D01*
X11392293Y-78070672D01*
X11395454Y-78077111D01*
X11634126Y-78489036D01*
X11940077Y-78910648D01*
X12277363Y-79296745D01*
X12610040Y-79602123D01*
X12629653Y-79617468D01*
X12817897Y-79759309D01*
X12963492Y-79859741D01*
X13036328Y-79897875D01*
X13039216Y-79869086D01*
X13043491Y-79719217D01*
X13047654Y-79446225D01*
X13051689Y-79055621D01*
X13055579Y-78552920D01*
X13059310Y-77943634D01*
X13062864Y-77233278D01*
X13066226Y-76427364D01*
X13069380Y-75531405D01*
X13072310Y-74550915D01*
X13073963Y-73899531D01*
X14805729Y-73899531D01*
X14824625Y-74296134D01*
X14878512Y-74579306D01*
X14950302Y-74956558D01*
X15198167Y-75589182D01*
X15573259Y-76209172D01*
X15646391Y-76314600D01*
X15733403Y-76466275D01*
X15754625Y-76576063D01*
X15722549Y-76683667D01*
X15692306Y-76772009D01*
X15686614Y-77036429D01*
X15780890Y-77313417D01*
X15964470Y-77564157D01*
X16186735Y-77786422D01*
X16032028Y-78098028D01*
X15836212Y-78549075D01*
X15630407Y-79274056D01*
X15548561Y-80009005D01*
X15591882Y-80738942D01*
X15761580Y-81448887D01*
X15825702Y-81625766D01*
X16006289Y-82040342D01*
X16221048Y-82451136D01*
X16447343Y-82816771D01*
X16662538Y-83095868D01*
X16852372Y-83304427D01*
X16852864Y-81689309D01*
X19315787Y-81689309D01*
X19437633Y-82002027D01*
X19453068Y-82026473D01*
X19617054Y-82206208D01*
X19844881Y-82325260D01*
X20157499Y-82391164D01*
X20537340Y-82409589D01*
X20575861Y-82411458D01*
X20636699Y-82411085D01*
X21031410Y-82382158D01*
X21325203Y-82300723D01*
X21539650Y-82157787D01*
X21696322Y-81944358D01*
X21700757Y-81935987D01*
X21797382Y-81624797D01*
X21775610Y-81316200D01*
X21643101Y-81039876D01*
X21407517Y-80825508D01*
X21397577Y-80819521D01*
X21263662Y-80755695D01*
X21101408Y-80716755D01*
X20876261Y-80697297D01*
X20553662Y-80691913D01*
X20394805Y-80692600D01*
X20133835Y-80701379D01*
X19953570Y-80725183D01*
X19818904Y-80770165D01*
X19694730Y-80842480D01*
X19678763Y-80853455D01*
X19441673Y-81091026D01*
X19318908Y-81377644D01*
X19315787Y-81689309D01*
X16852864Y-81689309D01*
X16853695Y-78962026D01*
X19303545Y-78962026D01*
X19340446Y-79255455D01*
X19481272Y-79524359D01*
X19726023Y-79740072D01*
X19841260Y-79796248D01*
X20005371Y-79837603D01*
X20234997Y-79858804D01*
X20553662Y-79864617D01*
X20563326Y-79864793D01*
X20894289Y-79856354D01*
X21179304Y-79818796D01*
X21387309Y-79740384D01*
X21547183Y-79609559D01*
X21687806Y-79414765D01*
X21695543Y-79401721D01*
X21781364Y-79199028D01*
X21816693Y-79004947D01*
X21815346Y-78969020D01*
X21744551Y-78711785D01*
X21588166Y-78459754D01*
X21376770Y-78264401D01*
X21350323Y-78249016D01*
X21143473Y-78183393D01*
X20856191Y-78145582D01*
X20529641Y-78135448D01*
X20204987Y-78152858D01*
X19923393Y-78197677D01*
X19726023Y-78269772D01*
X19541519Y-78416261D01*
X19370570Y-78672739D01*
X19303545Y-78962026D01*
X16853695Y-78962026D01*
X16854311Y-76937890D01*
X16854361Y-76572608D01*
X16854255Y-76341220D01*
X19311375Y-76341220D01*
X19323083Y-76650410D01*
X19452767Y-76934175D01*
X19694730Y-77167415D01*
X19753464Y-77204871D01*
X19878155Y-77263696D01*
X20029680Y-77298053D01*
X20243147Y-77314097D01*
X20529641Y-77317681D01*
X20553662Y-77317981D01*
X20842987Y-77310362D01*
X21182343Y-77266852D01*
X21428045Y-77176987D01*
X21600959Y-77031921D01*
X21721949Y-76822811D01*
X21799123Y-76580114D01*
X21798630Y-76328560D01*
X21696322Y-76065537D01*
X21650145Y-75987223D01*
X21485420Y-75803551D01*
X21260676Y-75683564D01*
X20953538Y-75618210D01*
X20541627Y-75598437D01*
X20351928Y-75601358D01*
X20011235Y-75632302D01*
X19762011Y-75705006D01*
X19578079Y-75829312D01*
X19433260Y-76015060D01*
X19423335Y-76031701D01*
X19311375Y-76341220D01*
X16854255Y-76341220D01*
X16853952Y-75681510D01*
X16852821Y-74832438D01*
X16851021Y-74034419D01*
X16850495Y-73874148D01*
X19303646Y-73874148D01*
X19304186Y-73919446D01*
X19350674Y-74238363D01*
X19479375Y-74476674D01*
X19700534Y-74642474D01*
X20024393Y-74743858D01*
X20461198Y-74788921D01*
X20541627Y-74790596D01*
X20666599Y-74793199D01*
X21020440Y-74769909D01*
X21287147Y-74694584D01*
X21493690Y-74557372D01*
X21667041Y-74348421D01*
X21702653Y-74290038D01*
X21797008Y-73997623D01*
X21774517Y-73700913D01*
X21642311Y-73430940D01*
X21407517Y-73218737D01*
X21362327Y-73192768D01*
X21231999Y-73138593D01*
X21066990Y-73105795D01*
X20834824Y-73089577D01*
X20503025Y-73085143D01*
X19817249Y-73084895D01*
X19560447Y-73341697D01*
X19529829Y-73372649D01*
X19387001Y-73539793D01*
X19320192Y-73689160D01*
X19303646Y-73874148D01*
X16850495Y-73874148D01*
X16848600Y-73296480D01*
X16845611Y-72627646D01*
X16842102Y-72036945D01*
X16838126Y-71533403D01*
X16836930Y-71422495D01*
X19303893Y-71422495D01*
X19304529Y-71475404D01*
X19328165Y-71649992D01*
X19404885Y-71795994D01*
X19560447Y-71968198D01*
X19817249Y-72225000D01*
X20503025Y-72224752D01*
X20903241Y-72211611D01*
X21219491Y-72164133D01*
X21447258Y-72073697D01*
X21607694Y-71931711D01*
X21721949Y-71729582D01*
X21729038Y-71712180D01*
X21791527Y-71512763D01*
X21817188Y-71343937D01*
X21792899Y-71209330D01*
X21678457Y-70984760D01*
X21499000Y-70774058D01*
X21286702Y-70621066D01*
X21253340Y-70605908D01*
X21010166Y-70542118D01*
X20695095Y-70509011D01*
X20356184Y-70507253D01*
X20041488Y-70537509D01*
X19799063Y-70600446D01*
X19741852Y-70627503D01*
X19510694Y-70819325D01*
X19358730Y-71094245D01*
X19303893Y-71422495D01*
X16836930Y-71422495D01*
X16833733Y-71126046D01*
X16828974Y-70823901D01*
X16823899Y-70635995D01*
X16818558Y-70571354D01*
X16798776Y-70574655D01*
X16674262Y-70640170D01*
X16489411Y-70773939D01*
X16269678Y-70955254D01*
X16040520Y-71163405D01*
X15827392Y-71377684D01*
X15769546Y-71440683D01*
X15342519Y-71998511D01*
X15041922Y-72588385D01*
X14864182Y-73219120D01*
X14805729Y-73899531D01*
X13073963Y-73899531D01*
X13074999Y-73491407D01*
X13077432Y-72358394D01*
X13079592Y-71157390D01*
X13080755Y-70372605D01*
X25058333Y-70372605D01*
X25061665Y-70466745D01*
X25087939Y-70589347D01*
X25155949Y-70712738D01*
X25283921Y-70866851D01*
X25490082Y-71081615D01*
X25693248Y-71283652D01*
X25848683Y-71418566D01*
X25983123Y-71498305D01*
X26132105Y-71543744D01*
X26331161Y-71575763D01*
X26524711Y-71607865D01*
X26706528Y-71651083D01*
X26799179Y-71690428D01*
X26818336Y-71739661D01*
X26846457Y-71901317D01*
X26872137Y-72142859D01*
X26891556Y-72433541D01*
X26898924Y-72849704D01*
X26863850Y-73282345D01*
X26771771Y-73688888D01*
X26612684Y-74111249D01*
X26376586Y-74591342D01*
X26283155Y-74775247D01*
X26163206Y-75040147D01*
X26081015Y-75259130D01*
X26050521Y-75397724D01*
X26034470Y-75540910D01*
X25992919Y-75626230D01*
X25958709Y-75664607D01*
X25907511Y-75812364D01*
X25884594Y-76012010D01*
X25898467Y-76210873D01*
X25971144Y-76381292D01*
X26100317Y-76541602D01*
X26157347Y-76594059D01*
X26325770Y-76758345D01*
X26500085Y-76937740D01*
X26649854Y-77072972D01*
X26994542Y-77255061D01*
X27389974Y-77317860D01*
X27452228Y-77319108D01*
X27566018Y-77336363D01*
X27561349Y-77370596D01*
X27447256Y-77417605D01*
X27232779Y-77473189D01*
X26926953Y-77533145D01*
X26772468Y-77560795D01*
X26472605Y-77618290D01*
X26217690Y-77671898D01*
X26050521Y-77712844D01*
X26043943Y-77714769D01*
X25699486Y-77858989D01*
X25439579Y-78053877D01*
X25272780Y-78282134D01*
X25207648Y-78526459D01*
X25252743Y-78769550D01*
X25416625Y-78994108D01*
X25484386Y-79056824D01*
X25654623Y-79214144D01*
X25839058Y-79384364D01*
X25945542Y-79491368D01*
X26035387Y-79608795D01*
X26045225Y-79669679D01*
X26043845Y-79670562D01*
X25971411Y-79754414D01*
X25884679Y-79898839D01*
X25873449Y-79921539D01*
X25842036Y-80007630D01*
X25824031Y-80118234D01*
X25819467Y-80274767D01*
X25828377Y-80498644D01*
X25850795Y-80811282D01*
X25886753Y-81234098D01*
X25897931Y-81359557D01*
X25949607Y-81895343D01*
X25998692Y-82317990D01*
X26047899Y-82643282D01*
X26099941Y-82887002D01*
X26157529Y-83064930D01*
X26223377Y-83192851D01*
X26247677Y-83231430D01*
X26277733Y-83310275D01*
X26256001Y-83392664D01*
X26168999Y-83509031D01*
X26003248Y-83689806D01*
X25865503Y-83841235D01*
X25614146Y-84162444D01*
X25432217Y-84482717D01*
X25289960Y-84850478D01*
X25236587Y-85072540D01*
X25200469Y-85439063D01*
X25209462Y-85821885D01*
X25261627Y-86173466D01*
X25355026Y-86446267D01*
X25456289Y-86597945D01*
X25648793Y-86823925D01*
X25890366Y-87071713D01*
X26149599Y-87311006D01*
X26395083Y-87511504D01*
X26595410Y-87642907D01*
X26678167Y-87677671D01*
X26847898Y-87748969D01*
X27167967Y-87813506D01*
X27531469Y-87810629D01*
X27961556Y-87739819D01*
X28481380Y-87600556D01*
X28518352Y-87590343D01*
X28608496Y-87597183D01*
X28630208Y-87700498D01*
X28632635Y-87725688D01*
X28697400Y-87872087D01*
X28822794Y-88022405D01*
X28848168Y-88045726D01*
X29039854Y-88225099D01*
X29184933Y-88369920D01*
X29331190Y-88527679D01*
X29471785Y-88628689D01*
X29721914Y-88744121D01*
X30053861Y-88859263D01*
X30299388Y-88943813D01*
X30658182Y-89086834D01*
X31040729Y-89255483D01*
X31397063Y-89428581D01*
X31504789Y-89483425D01*
X31897829Y-89668942D01*
X32003646Y-89709324D01*
X32193402Y-89781740D01*
X32386377Y-89819791D01*
X32392668Y-89819763D01*
X32687980Y-89756022D01*
X32952196Y-89589440D01*
X33160319Y-89348752D01*
X33278264Y-89083158D01*
X44712515Y-89083158D01*
X44741117Y-89392470D01*
X44879485Y-89671189D01*
X45120269Y-89888615D01*
X45247701Y-89951040D01*
X45410240Y-89991591D01*
X45636429Y-90012073D01*
X45960417Y-90017734D01*
X45960853Y-90017725D01*
X46201745Y-90012784D01*
X46545978Y-89975504D01*
X46797457Y-89893951D01*
X46979332Y-89758973D01*
X47114757Y-89561418D01*
X47174821Y-89411647D01*
X47207571Y-89105057D01*
X47135622Y-88811337D01*
X46970010Y-88563279D01*
X46721770Y-88393675D01*
X46559191Y-88348665D01*
X46283480Y-88311946D01*
X45960417Y-88298437D01*
X45951839Y-88298444D01*
X45536096Y-88320861D01*
X45225427Y-88391607D01*
X44999412Y-88518128D01*
X44837633Y-88707868D01*
X44801028Y-88773956D01*
X44712515Y-89083158D01*
X33278264Y-89083158D01*
X33287352Y-89062694D01*
X33308298Y-88760001D01*
X33279251Y-88658903D01*
X33201341Y-88498352D01*
X33068795Y-88276253D01*
X32874860Y-87981972D01*
X32612781Y-87604873D01*
X32275804Y-87134323D01*
X31952170Y-86686844D01*
X44717533Y-86686844D01*
X44814383Y-87023524D01*
X44936074Y-87203201D01*
X45175147Y-87371423D01*
X45513786Y-87469778D01*
X45960417Y-87501782D01*
X46314704Y-87482826D01*
X46677305Y-87399960D01*
X46938412Y-87248031D01*
X47106450Y-87023524D01*
X47187244Y-86801710D01*
X47201983Y-86495951D01*
X47090316Y-86206027D01*
X47039709Y-86126383D01*
X46918836Y-85975814D01*
X46777836Y-85876743D01*
X46588763Y-85818808D01*
X46323673Y-85791646D01*
X45954619Y-85784895D01*
X45694728Y-85786630D01*
X45450919Y-85796536D01*
X45286343Y-85819434D01*
X45171039Y-85860029D01*
X45075047Y-85923027D01*
X44908546Y-86083720D01*
X44749886Y-86369499D01*
X44717533Y-86686844D01*
X31952170Y-86686844D01*
X31275926Y-85751822D01*
X32020125Y-85712465D01*
X32184879Y-85703112D01*
X32530122Y-85675155D01*
X32784991Y-85635067D01*
X32979684Y-85574576D01*
X33144401Y-85485407D01*
X33309339Y-85359289D01*
X33336368Y-85335722D01*
X33535470Y-85083419D01*
X33625526Y-84798701D01*
X33596372Y-84511588D01*
X33549767Y-84410224D01*
X33393720Y-84189502D01*
X33176695Y-83953170D01*
X44725083Y-83953170D01*
X44735323Y-84251992D01*
X44851371Y-84539146D01*
X45075047Y-84786867D01*
X45133546Y-84828593D01*
X45240769Y-84878339D01*
X45386788Y-84907456D01*
X45602732Y-84921000D01*
X45919728Y-84924024D01*
X45954619Y-84923889D01*
X45985453Y-84923770D01*
X46344982Y-84912317D01*
X46604979Y-84877084D01*
X46793303Y-84808592D01*
X46937815Y-84697362D01*
X47066374Y-84533915D01*
X47145803Y-84386326D01*
X47207697Y-84085947D01*
X47156399Y-83790067D01*
X47000026Y-83529157D01*
X46746694Y-83333687D01*
X46692950Y-83309376D01*
X46418816Y-83236651D01*
X46082311Y-83201730D01*
X45730653Y-83204842D01*
X45411058Y-83246214D01*
X45170745Y-83326074D01*
X45014751Y-83431582D01*
X44818832Y-83670445D01*
X44725083Y-83953170D01*
X33176695Y-83953170D01*
X33174779Y-83951083D01*
X32926267Y-83726599D01*
X32681507Y-83547684D01*
X32473821Y-83445970D01*
X32203681Y-83366208D01*
X32598384Y-83078778D01*
X32774630Y-82942594D01*
X33153173Y-82567385D01*
X33412650Y-82155969D01*
X33560264Y-81697056D01*
X44721895Y-81697056D01*
X44837633Y-82002027D01*
X44840098Y-82006047D01*
X45002854Y-82194583D01*
X45230213Y-82320033D01*
X45542594Y-82389843D01*
X45960417Y-82411458D01*
X45968994Y-82411451D01*
X46082311Y-82405341D01*
X46384737Y-82389034D01*
X46695407Y-82318288D01*
X46921421Y-82191767D01*
X47083200Y-82002027D01*
X47151780Y-81861928D01*
X47207783Y-81555082D01*
X47155315Y-81252745D01*
X47003228Y-80988042D01*
X46760377Y-80794096D01*
X46760180Y-80793995D01*
X46551087Y-80729152D01*
X46259735Y-80693003D01*
X45928551Y-80684844D01*
X45599961Y-80703973D01*
X45316391Y-80749686D01*
X45120269Y-80821280D01*
X45057845Y-80863051D01*
X44839350Y-81096865D01*
X44724917Y-81385101D01*
X44721895Y-81697056D01*
X33560264Y-81697056D01*
X33562248Y-81690889D01*
X33611158Y-81154687D01*
X33611173Y-81141990D01*
X33576170Y-80698184D01*
X33461562Y-80317023D01*
X33252077Y-79963595D01*
X32932445Y-79602989D01*
X32545023Y-79219609D01*
X32712777Y-79075313D01*
X32772665Y-79014373D01*
X44736719Y-79014373D01*
X44739301Y-79162104D01*
X44764649Y-79330459D01*
X44836371Y-79457567D01*
X44977627Y-79599691D01*
X45117621Y-79713292D01*
X45320977Y-79813054D01*
X45589476Y-79866813D01*
X45785690Y-79886043D01*
X45928551Y-79883831D01*
X46259351Y-79878710D01*
X46644262Y-79785857D01*
X46933187Y-79608873D01*
X47038488Y-79502758D01*
X47145928Y-79327349D01*
X47189975Y-79101894D01*
X47190737Y-79093019D01*
X47187358Y-78808300D01*
X47108883Y-78591298D01*
X46937357Y-78391519D01*
X46728831Y-78249719D01*
X46395455Y-78145822D01*
X45960853Y-78112348D01*
X45854771Y-78113964D01*
X45465906Y-78157199D01*
X45166477Y-78265373D01*
X44931396Y-78446633D01*
X44893194Y-78487643D01*
X44793330Y-78626117D01*
X44747638Y-78782835D01*
X44736719Y-79014373D01*
X32772665Y-79014373D01*
X32783879Y-79002962D01*
X32869624Y-78837520D01*
X32913317Y-78589809D01*
X32946103Y-78248601D01*
X32541020Y-77839731D01*
X32463414Y-77760529D01*
X32295843Y-77582633D01*
X32179504Y-77449034D01*
X32135937Y-77383967D01*
X32180539Y-77357815D01*
X32324895Y-77324379D01*
X32534471Y-77295419D01*
X32710215Y-77270396D01*
X32951868Y-77216433D01*
X33124569Y-77154703D01*
X33177894Y-77124467D01*
X33406635Y-76920843D01*
X33562570Y-76656030D01*
X33625656Y-76383158D01*
X44712515Y-76383158D01*
X44741117Y-76692470D01*
X44879485Y-76971189D01*
X45120269Y-77188615D01*
X45247701Y-77251040D01*
X45410240Y-77291591D01*
X45636429Y-77312073D01*
X45960417Y-77317734D01*
X45960853Y-77317725D01*
X46201745Y-77312784D01*
X46545978Y-77275504D01*
X46797457Y-77193951D01*
X46979332Y-77058973D01*
X47114757Y-76861418D01*
X47174821Y-76711647D01*
X47207571Y-76405057D01*
X47135622Y-76111337D01*
X46970010Y-75863279D01*
X46721770Y-75693675D01*
X46559191Y-75648665D01*
X46283480Y-75611946D01*
X45960417Y-75598437D01*
X45951839Y-75598444D01*
X45536096Y-75620861D01*
X45225427Y-75691607D01*
X44999412Y-75818128D01*
X44837633Y-76007868D01*
X44801028Y-76073956D01*
X44712515Y-76383158D01*
X33625656Y-76383158D01*
X33629288Y-76367448D01*
X33590380Y-76092517D01*
X33589524Y-76090296D01*
X33493988Y-75931733D01*
X33327350Y-75731039D01*
X33119999Y-75517584D01*
X32902324Y-75320736D01*
X32704715Y-75169866D01*
X32557559Y-75094343D01*
X32495853Y-75087415D01*
X32305657Y-75085816D01*
X32026167Y-75094601D01*
X31683510Y-75112170D01*
X31303809Y-75136927D01*
X30913190Y-75167271D01*
X30537779Y-75201607D01*
X30203701Y-75238334D01*
X30097849Y-75247210D01*
X29965859Y-75224405D01*
X29887547Y-75136478D01*
X29872813Y-75110942D01*
X29694606Y-74936449D01*
X29445870Y-74837306D01*
X29166622Y-74822952D01*
X28896880Y-74902826D01*
X28707101Y-75000964D01*
X28817483Y-74738134D01*
X28927865Y-74475303D01*
X29721615Y-74473534D01*
X29837655Y-74474277D01*
X30231242Y-74485871D01*
X30690912Y-74509338D01*
X31168632Y-74541953D01*
X31616371Y-74580992D01*
X31874856Y-74605052D01*
X32233221Y-74632989D01*
X32538350Y-74650423D01*
X32764164Y-74655972D01*
X32884580Y-74648253D01*
X33113137Y-74543258D01*
X33340313Y-74339587D01*
X33516381Y-74079063D01*
X33565722Y-73941967D01*
X44710340Y-73941967D01*
X44767522Y-74227088D01*
X44929357Y-74478303D01*
X45193700Y-74669472D01*
X45343558Y-74730305D01*
X45611599Y-74787493D01*
X45960417Y-74804687D01*
X46238978Y-74791663D01*
X46636355Y-74708286D01*
X46927743Y-74548280D01*
X47111819Y-74312209D01*
X47185900Y-74110436D01*
X47202653Y-73800636D01*
X47090316Y-73506027D01*
X47039709Y-73426383D01*
X46918836Y-73275814D01*
X46777836Y-73176743D01*
X46588763Y-73118808D01*
X46323673Y-73091646D01*
X45954619Y-73084895D01*
X45694728Y-73086630D01*
X45450919Y-73096536D01*
X45286343Y-73119434D01*
X45171039Y-73160029D01*
X45075047Y-73223027D01*
X44918510Y-73374568D01*
X44759955Y-73649080D01*
X44710340Y-73941967D01*
X33565722Y-73941967D01*
X33617677Y-73797607D01*
X33620534Y-73531142D01*
X33563731Y-73410048D01*
X33429331Y-73220648D01*
X33247077Y-73004218D01*
X33044919Y-72791741D01*
X32850806Y-72614202D01*
X32692689Y-72502583D01*
X32607605Y-72471383D01*
X32375744Y-72423604D01*
X32045543Y-72380586D01*
X31637963Y-72344081D01*
X31173967Y-72315839D01*
X30674515Y-72297611D01*
X30160569Y-72291145D01*
X29125259Y-72291145D01*
X29018223Y-71993489D01*
X28911186Y-71695833D01*
X29095358Y-71695833D01*
X29272897Y-71703203D01*
X29612662Y-71736475D01*
X30026576Y-71791848D01*
X30482677Y-71864151D01*
X30949002Y-71948214D01*
X31393588Y-72038864D01*
X31784474Y-72130929D01*
X32125456Y-72214860D01*
X32478831Y-72286165D01*
X32741703Y-72312915D01*
X32933455Y-72295025D01*
X33073468Y-72232416D01*
X33181124Y-72125003D01*
X33292853Y-71976881D01*
X33562378Y-72266305D01*
X33576647Y-72281584D01*
X33692834Y-72397941D01*
X33804240Y-72480374D01*
X33929791Y-72528793D01*
X34043938Y-72539098D01*
X34088414Y-72543113D01*
X34299035Y-72523244D01*
X34580580Y-72469099D01*
X34951975Y-72380590D01*
X35432148Y-72257629D01*
X35768530Y-72170658D01*
X36028076Y-72103959D01*
X36095630Y-72086599D01*
X36356910Y-72020018D01*
X36531633Y-71976197D01*
X36599066Y-71960416D01*
X36623476Y-72003315D01*
X36661447Y-72127496D01*
X36666714Y-72144541D01*
X36754129Y-72295629D01*
X36916955Y-72501279D01*
X37131084Y-72737166D01*
X37372406Y-72978964D01*
X37616810Y-73202349D01*
X37840186Y-73382996D01*
X37966999Y-73463807D01*
X38018426Y-73496579D01*
X38240392Y-73583665D01*
X38492476Y-73630693D01*
X38821858Y-73644606D01*
X38911506Y-73644294D01*
X39154562Y-73632959D01*
X39354885Y-73595729D01*
X39565073Y-73519477D01*
X39837726Y-73391074D01*
X40007292Y-73297460D01*
X40140353Y-73224000D01*
X40640904Y-72845105D01*
X41057824Y-72373228D01*
X41403741Y-71795502D01*
X41507146Y-71582187D01*
X41526019Y-71537677D01*
X44725187Y-71537677D01*
X44854459Y-71833915D01*
X44979585Y-71993471D01*
X45128660Y-72109141D01*
X45322586Y-72179192D01*
X45590219Y-72213777D01*
X45954619Y-72222904D01*
X45960417Y-72223049D01*
X46311836Y-72214931D01*
X46584738Y-72182128D01*
X46782224Y-72114460D01*
X46933151Y-72001773D01*
X47066374Y-71833915D01*
X47180513Y-71597334D01*
X47204229Y-71290737D01*
X47096322Y-70972307D01*
X47065362Y-70918216D01*
X46901492Y-70723957D01*
X46677376Y-70596399D01*
X46371016Y-70526498D01*
X45960417Y-70505208D01*
X45857333Y-70506236D01*
X45472224Y-70537725D01*
X45186382Y-70619870D01*
X44977810Y-70761715D01*
X44824512Y-70972307D01*
X44727506Y-71228645D01*
X44725187Y-71537677D01*
X41526019Y-71537677D01*
X41606591Y-71347652D01*
X41665461Y-71141272D01*
X41697191Y-70911823D01*
X41715220Y-70608082D01*
X41719372Y-70482249D01*
X41696774Y-69941767D01*
X41595753Y-69471441D01*
X41404545Y-69043256D01*
X41367020Y-68990256D01*
X44718634Y-68990256D01*
X44828376Y-69286804D01*
X44985404Y-69474433D01*
X45218334Y-69610941D01*
X45536904Y-69687535D01*
X45960417Y-69711458D01*
X46358820Y-69690732D01*
X46683877Y-69617926D01*
X46921988Y-69485698D01*
X47092458Y-69286804D01*
X47156640Y-69155100D01*
X47209182Y-68852873D01*
X47154126Y-68551859D01*
X47001262Y-68287215D01*
X46760377Y-68094096D01*
X46760180Y-68093995D01*
X46551087Y-68029152D01*
X46259735Y-67993003D01*
X45928551Y-67984844D01*
X45599961Y-68003973D01*
X45316391Y-68049686D01*
X45120269Y-68121280D01*
X45056744Y-68163973D01*
X44840985Y-68396230D01*
X44725560Y-68682528D01*
X44718634Y-68990256D01*
X41367020Y-68990256D01*
X41111385Y-68629199D01*
X40704509Y-68201254D01*
X40570945Y-68077237D01*
X40303692Y-67855176D01*
X40062649Y-67701333D01*
X39810113Y-67589941D01*
X39403003Y-67441501D01*
X39688611Y-67263497D01*
X39847023Y-67146854D01*
X40098748Y-66922026D01*
X40387683Y-66633607D01*
X40684265Y-66314373D01*
X44736719Y-66314373D01*
X44739301Y-66462104D01*
X44764649Y-66630459D01*
X44836371Y-66757567D01*
X44977627Y-66899691D01*
X45117621Y-67013292D01*
X45320977Y-67113054D01*
X45589476Y-67166813D01*
X45785690Y-67186043D01*
X45928551Y-67183831D01*
X46259351Y-67178710D01*
X46644262Y-67085857D01*
X46933187Y-66908873D01*
X47038488Y-66802758D01*
X47145928Y-66627349D01*
X47189975Y-66401894D01*
X47190737Y-66393019D01*
X47187358Y-66108300D01*
X47108883Y-65891298D01*
X46937357Y-65691519D01*
X46728831Y-65549719D01*
X46395455Y-65445822D01*
X45960853Y-65412348D01*
X45854771Y-65413964D01*
X45465906Y-65457199D01*
X45166477Y-65565373D01*
X44931396Y-65746633D01*
X44893194Y-65787643D01*
X44793330Y-65926117D01*
X44747638Y-66082835D01*
X44736719Y-66314373D01*
X40684265Y-66314373D01*
X40691798Y-66306265D01*
X40989065Y-65964670D01*
X41257456Y-65633494D01*
X41474943Y-65337404D01*
X41619498Y-65101071D01*
X41641688Y-65050864D01*
X41702618Y-64825999D01*
X41727083Y-64585434D01*
X41718167Y-64415978D01*
X41665737Y-64255528D01*
X41545182Y-64118524D01*
X41540993Y-64114766D01*
X41360628Y-63947975D01*
X41181658Y-63775559D01*
X41138964Y-63733246D01*
X44713252Y-63733246D01*
X44753974Y-64019596D01*
X44889129Y-64281198D01*
X45120269Y-64488615D01*
X45247701Y-64551040D01*
X45410240Y-64591591D01*
X45636429Y-64612073D01*
X45960417Y-64617734D01*
X45960853Y-64617725D01*
X46201745Y-64612784D01*
X46545978Y-64575504D01*
X46797457Y-64493951D01*
X46979332Y-64358973D01*
X47114757Y-64161418D01*
X47174821Y-64011647D01*
X47207571Y-63705057D01*
X47135622Y-63411337D01*
X46970010Y-63163279D01*
X46721770Y-62993675D01*
X46651259Y-62969548D01*
X46391231Y-62922263D01*
X46067695Y-62901033D01*
X45728954Y-62905859D01*
X45423310Y-62936740D01*
X45199063Y-62993675D01*
X45142168Y-63020086D01*
X44908901Y-63204053D01*
X44765412Y-63451586D01*
X44713252Y-63733246D01*
X41138964Y-63733246D01*
X41000035Y-63595556D01*
X41225944Y-63479658D01*
X41491728Y-63286677D01*
X41667472Y-63014160D01*
X41727083Y-62680247D01*
X41722063Y-62585292D01*
X41650480Y-62346992D01*
X41481559Y-62127775D01*
X41199315Y-61904131D01*
X41050043Y-61802794D01*
X41223198Y-61547635D01*
X41332717Y-61344510D01*
X41353891Y-61241967D01*
X44710340Y-61241967D01*
X44767522Y-61527088D01*
X44929357Y-61778303D01*
X45193700Y-61969472D01*
X45343558Y-62030305D01*
X45611599Y-62087493D01*
X45960417Y-62104687D01*
X46067695Y-62099671D01*
X46238978Y-62091663D01*
X46636355Y-62008286D01*
X46927743Y-61848280D01*
X47111819Y-61612209D01*
X47185900Y-61410436D01*
X47202653Y-61100636D01*
X47090316Y-60806027D01*
X47039709Y-60726383D01*
X46918836Y-60575814D01*
X46777836Y-60476743D01*
X46588763Y-60418808D01*
X46323673Y-60391646D01*
X45954619Y-60384895D01*
X45694728Y-60386630D01*
X45450919Y-60396536D01*
X45286343Y-60419434D01*
X45171039Y-60460029D01*
X45075047Y-60523027D01*
X44918510Y-60674568D01*
X44759955Y-60949080D01*
X44710340Y-61241967D01*
X41353891Y-61241967D01*
X41396354Y-61036322D01*
X41396165Y-61013373D01*
X41380245Y-60875304D01*
X41324714Y-60748578D01*
X41209872Y-60600058D01*
X41016016Y-60396605D01*
X40989835Y-60370498D01*
X40734283Y-60134086D01*
X40435497Y-59881119D01*
X40152810Y-59662087D01*
X40044159Y-59582021D01*
X39857192Y-59437962D01*
X39733081Y-59333356D01*
X39694394Y-59286682D01*
X39697934Y-59285130D01*
X39785546Y-59294858D01*
X39961650Y-59333399D01*
X40192960Y-59393615D01*
X40197358Y-59394831D01*
X40464346Y-59460414D01*
X40710443Y-59507064D01*
X40882887Y-59524752D01*
X40909903Y-59524093D01*
X41188562Y-59454202D01*
X41444115Y-59291584D01*
X41624653Y-59068189D01*
X41636896Y-59042574D01*
X41700972Y-58829802D01*
X41723772Y-58628191D01*
X44717747Y-58628191D01*
X44750499Y-58918153D01*
X44884339Y-59183619D01*
X45120269Y-59395386D01*
X45247701Y-59457811D01*
X45410240Y-59498362D01*
X45636429Y-59518844D01*
X45954619Y-59524404D01*
X45960417Y-59524505D01*
X46201745Y-59519555D01*
X46545978Y-59482275D01*
X46797457Y-59400722D01*
X46979332Y-59265744D01*
X47114757Y-59068189D01*
X47143189Y-59007177D01*
X47206165Y-58700729D01*
X47154701Y-58396663D01*
X46999206Y-58127578D01*
X46750088Y-57926074D01*
X46663460Y-57888826D01*
X46391705Y-57827033D01*
X46059531Y-57799862D01*
X45713963Y-57807311D01*
X45402026Y-57849382D01*
X45170745Y-57926074D01*
X44951490Y-58091592D01*
X44785078Y-58342936D01*
X44717747Y-58628191D01*
X41723772Y-58628191D01*
X41727083Y-58598912D01*
X41724870Y-58519579D01*
X41701460Y-58392471D01*
X41637283Y-58268051D01*
X41513811Y-58115205D01*
X41312512Y-57902824D01*
X41149560Y-57743409D01*
X40954475Y-57581748D01*
X40746086Y-57451511D01*
X40500871Y-57342604D01*
X40195308Y-57244931D01*
X39805876Y-57148395D01*
X39309053Y-57042902D01*
X38990421Y-56983314D01*
X38185477Y-56870784D01*
X37354867Y-56802236D01*
X36547439Y-56780922D01*
X35812046Y-56810094D01*
X35321727Y-56857263D01*
X34812303Y-56923853D01*
X34376081Y-57000591D01*
X34032759Y-57083945D01*
X33802031Y-57170386D01*
X33617395Y-57297413D01*
X33440986Y-57473034D01*
X33311037Y-57655858D01*
X33260417Y-57807238D01*
X33259976Y-57836028D01*
X33243360Y-57889468D01*
X33179745Y-57873669D01*
X33038229Y-57785626D01*
X33012268Y-57767891D01*
X32839431Y-57619254D01*
X32714927Y-57465523D01*
X32712115Y-57460787D01*
X32575289Y-57319235D01*
X32391412Y-57219764D01*
X32389748Y-57219236D01*
X32262872Y-57188833D01*
X32025942Y-57140868D01*
X31697434Y-57078513D01*
X31295828Y-57004940D01*
X30839601Y-56923320D01*
X30347230Y-56836826D01*
X29837194Y-56748629D01*
X29327970Y-56661901D01*
X28838036Y-56579813D01*
X28385869Y-56505538D01*
X27989948Y-56442248D01*
X27668751Y-56393113D01*
X27440754Y-56361307D01*
X27324436Y-56349999D01*
X27086870Y-56372285D01*
X26797132Y-56465606D01*
X26563820Y-56615462D01*
X26405713Y-56804208D01*
X26341592Y-57014199D01*
X26390235Y-57227789D01*
X26443219Y-57310510D01*
X26614866Y-57512053D01*
X26845102Y-57736771D01*
X27098374Y-57953268D01*
X27339133Y-58130146D01*
X27531826Y-58236007D01*
X27816361Y-58344672D01*
X27714201Y-58628768D01*
X27664364Y-58823849D01*
X27671642Y-59134886D01*
X27786980Y-59402149D01*
X28002927Y-59600561D01*
X28038628Y-59622848D01*
X28186347Y-59743203D01*
X28266053Y-59854614D01*
X28314974Y-59949482D01*
X28472943Y-60077410D01*
X28737709Y-60174979D01*
X29121314Y-60247724D01*
X29176446Y-60255400D01*
X29415596Y-60288893D01*
X29594112Y-60314206D01*
X29676791Y-60326356D01*
X29708611Y-60343743D01*
X29634609Y-60364820D01*
X29475414Y-60386816D01*
X29254933Y-60407503D01*
X28997073Y-60424650D01*
X28725740Y-60436026D01*
X28464844Y-60439403D01*
X28127653Y-60436545D01*
X27827868Y-60426729D01*
X27625280Y-60402554D01*
X27500732Y-60356189D01*
X27435065Y-60279803D01*
X27409122Y-60165563D01*
X27403744Y-60005639D01*
X27403504Y-59979089D01*
X27396447Y-59820133D01*
X27366984Y-59697976D01*
X27296781Y-59580598D01*
X27167501Y-59435976D01*
X26960809Y-59232088D01*
X26813157Y-59094016D01*
X26542988Y-58882553D01*
X26305302Y-58768807D01*
X26074626Y-58742975D01*
X25825486Y-58795258D01*
X25823304Y-58795982D01*
X25544216Y-58957272D01*
X25319648Y-59231263D01*
X25159183Y-59606288D01*
X25071967Y-60029941D01*
X25081618Y-60421711D01*
X25196199Y-60796825D01*
X25422104Y-61176095D01*
X25765730Y-61580337D01*
X25902626Y-61719443D01*
X26128020Y-61932422D01*
X26327543Y-62102791D01*
X26469783Y-62202777D01*
X26695449Y-62324306D01*
X26385284Y-62478867D01*
X26147640Y-62631817D01*
X25927830Y-62895496D01*
X25780540Y-63157563D01*
X25883991Y-64334380D01*
X25930489Y-64836926D01*
X25980694Y-65305212D01*
X26029610Y-65669783D01*
X26079637Y-65945868D01*
X26133173Y-66148694D01*
X26192618Y-66293490D01*
X26203458Y-66311962D01*
X26302716Y-66441045D01*
X26462868Y-66620556D01*
X26654879Y-66817578D01*
X26757901Y-66917770D01*
X26927208Y-67069597D01*
X27057540Y-67153891D01*
X27184158Y-67190161D01*
X27342322Y-67197916D01*
X27414813Y-67195204D01*
X27635436Y-67159222D01*
X27800104Y-67094765D01*
X27895626Y-67009042D01*
X28036040Y-66780373D01*
X28131787Y-66483975D01*
X28167187Y-66159787D01*
X28167187Y-65851939D01*
X28333246Y-66007943D01*
X28350694Y-66023352D01*
X28543200Y-66135566D01*
X28768263Y-66201374D01*
X29037222Y-66238802D01*
X28727700Y-66569531D01*
X28676904Y-66625021D01*
X28439080Y-66928250D01*
X28286921Y-67205379D01*
X28233333Y-67433842D01*
X28246216Y-67530413D01*
X28332358Y-67748066D01*
X28469536Y-67954030D01*
X28622368Y-68088743D01*
X28677305Y-68119497D01*
X28716458Y-68157741D01*
X28697030Y-68201451D01*
X28603706Y-68263268D01*
X28421173Y-68355833D01*
X28134115Y-68491790D01*
X28104814Y-68505492D01*
X27774699Y-68653999D01*
X27373831Y-68826475D01*
X26950160Y-69002609D01*
X26551636Y-69162091D01*
X26418421Y-69214320D01*
X26086222Y-69346642D01*
X25794853Y-69465524D01*
X25571866Y-69559629D01*
X25444813Y-69617615D01*
X25247387Y-69780902D01*
X25107879Y-70044508D01*
X25058333Y-70372605D01*
X13080755Y-70372605D01*
X13081464Y-69893908D01*
X13082538Y-68989309D01*
X19315787Y-68989309D01*
X19437633Y-69302027D01*
X19453068Y-69326473D01*
X19617054Y-69506208D01*
X19844881Y-69625260D01*
X20157499Y-69691164D01*
X20356184Y-69700802D01*
X20575861Y-69711458D01*
X20636699Y-69711085D01*
X21031410Y-69682158D01*
X21325203Y-69600723D01*
X21539650Y-69457787D01*
X21696322Y-69244358D01*
X21700757Y-69235987D01*
X21797382Y-68924797D01*
X21775610Y-68616200D01*
X21643101Y-68339876D01*
X21407517Y-68125508D01*
X21397577Y-68119521D01*
X21263662Y-68055695D01*
X21101408Y-68016755D01*
X20876261Y-67997297D01*
X20553662Y-67991913D01*
X20394805Y-67992600D01*
X20133835Y-68001379D01*
X19953570Y-68025183D01*
X19818904Y-68070165D01*
X19694730Y-68142480D01*
X19678763Y-68153455D01*
X19441673Y-68391026D01*
X19318908Y-68677644D01*
X19315787Y-68989309D01*
X13082538Y-68989309D01*
X13083032Y-68573461D01*
X13084279Y-67201563D01*
X13084760Y-66452413D01*
X19315235Y-66452413D01*
X19411830Y-66732261D01*
X19488779Y-66846454D01*
X19651122Y-66999851D01*
X19867583Y-67097750D01*
X20163279Y-67149586D01*
X20553662Y-67164426D01*
X20563326Y-67164793D01*
X20894289Y-67156354D01*
X21179304Y-67118796D01*
X21387309Y-67040384D01*
X21547183Y-66909559D01*
X21687806Y-66714765D01*
X21695543Y-66701721D01*
X21781364Y-66499028D01*
X21816693Y-66304947D01*
X21815346Y-66269026D01*
X21744563Y-66011821D01*
X21588211Y-65759784D01*
X21376869Y-65564401D01*
X21367552Y-65558624D01*
X21187472Y-65497095D01*
X20920218Y-65457666D01*
X20606007Y-65441064D01*
X20285054Y-65448019D01*
X19997576Y-65479260D01*
X19783788Y-65535516D01*
X19606909Y-65645577D01*
X19424085Y-65872682D01*
X19323090Y-66153757D01*
X19315235Y-66452413D01*
X13084760Y-66452413D01*
X13085190Y-65783726D01*
X13085748Y-64325465D01*
X13085937Y-62832291D01*
X13085877Y-61838991D01*
X13085564Y-60368340D01*
X13085117Y-59248456D01*
X14630897Y-59248456D01*
X14632532Y-59746757D01*
X14745507Y-60231481D01*
X14964412Y-60666412D01*
X15064362Y-60856910D01*
X15116941Y-61140677D01*
X15135503Y-61320831D01*
X15251521Y-61521544D01*
X15306442Y-61577883D01*
X15356692Y-61658053D01*
X15342637Y-61751787D01*
X15266245Y-61911160D01*
X15199276Y-62077358D01*
X15122809Y-62338612D01*
X15064489Y-62614211D01*
X15046487Y-62730052D01*
X15022784Y-62990340D01*
X15039179Y-63221300D01*
X15098442Y-63494725D01*
X15099727Y-63499723D01*
X15310742Y-64074033D01*
X15625439Y-64585156D01*
X15635101Y-64596257D01*
X15656081Y-64604758D01*
X15673680Y-64579089D01*
X15688200Y-64509439D01*
X15699941Y-64385995D01*
X15709207Y-64198946D01*
X15716297Y-63938478D01*
X15720136Y-63685546D01*
X19311505Y-63685546D01*
X19341718Y-63993643D01*
X19480561Y-64271915D01*
X19720269Y-64488615D01*
X19847701Y-64551040D01*
X20010240Y-64591591D01*
X20236429Y-64612073D01*
X20560417Y-64617734D01*
X20606007Y-64616514D01*
X20872572Y-64609384D01*
X21188041Y-64567631D01*
X21416188Y-64481629D01*
X21581066Y-64341279D01*
X21706726Y-64136484D01*
X21795519Y-63890497D01*
X21799665Y-63635100D01*
X21696322Y-63365537D01*
X21650145Y-63287223D01*
X21485420Y-63103551D01*
X21260676Y-62983564D01*
X20953538Y-62918210D01*
X20541627Y-62898437D01*
X20351928Y-62901358D01*
X20011235Y-62932302D01*
X19762011Y-63005006D01*
X19578079Y-63129312D01*
X19433260Y-63315060D01*
X19397686Y-63379372D01*
X19311505Y-63685546D01*
X15720136Y-63685546D01*
X15721513Y-63594780D01*
X15725157Y-63158040D01*
X15727530Y-62618445D01*
X15728933Y-61966183D01*
X15729667Y-61191442D01*
X15729677Y-61174148D01*
X19303646Y-61174148D01*
X19304186Y-61219446D01*
X19350674Y-61538363D01*
X19479375Y-61776674D01*
X19700534Y-61942474D01*
X20024393Y-62043858D01*
X20461198Y-62088921D01*
X20541627Y-62090596D01*
X20666599Y-62093199D01*
X21020440Y-62069909D01*
X21287147Y-61994584D01*
X21493690Y-61857372D01*
X21667041Y-61648421D01*
X21786206Y-61366110D01*
X21788694Y-61063960D01*
X21675626Y-60775497D01*
X21452252Y-60528113D01*
X21360579Y-60466008D01*
X21251223Y-60423529D01*
X21098339Y-60398959D01*
X20872359Y-60387634D01*
X20543714Y-60384895D01*
X19817249Y-60384895D01*
X19560447Y-60641697D01*
X19529829Y-60672649D01*
X19387001Y-60839793D01*
X19320192Y-60989160D01*
X19303646Y-61174148D01*
X15729677Y-61174148D01*
X15731140Y-58722495D01*
X19303893Y-58722495D01*
X19304529Y-58775404D01*
X19328165Y-58949992D01*
X19404885Y-59095994D01*
X19560447Y-59268198D01*
X19817249Y-59524999D01*
X20503025Y-59524752D01*
X20543714Y-59523416D01*
X20903241Y-59511611D01*
X21219491Y-59464133D01*
X21447258Y-59373697D01*
X21607694Y-59231711D01*
X21721949Y-59029582D01*
X21801817Y-58772250D01*
X21794598Y-58530225D01*
X21685253Y-58284161D01*
X21660728Y-58245219D01*
X21483894Y-58035453D01*
X21262031Y-57900024D01*
X20968042Y-57827252D01*
X20574829Y-57805455D01*
X20295015Y-57814696D01*
X20002406Y-57847933D01*
X19799063Y-57900446D01*
X19741852Y-57927503D01*
X19510694Y-58119325D01*
X19358730Y-58394245D01*
X19303893Y-58722495D01*
X15731140Y-58722495D01*
X15731771Y-57665437D01*
X15524866Y-57784932D01*
X15433320Y-57847921D01*
X15216239Y-58057453D01*
X15001286Y-58331190D01*
X14819273Y-58627282D01*
X14701014Y-58903881D01*
X14630897Y-59248456D01*
X13085117Y-59248456D01*
X13084992Y-58936255D01*
X13084175Y-57548249D01*
X13083753Y-57011458D01*
X19303646Y-57011458D01*
X21817188Y-57011458D01*
X21817188Y-56290256D01*
X44718634Y-56290256D01*
X44828376Y-56586804D01*
X44985404Y-56774433D01*
X45218334Y-56910941D01*
X45536904Y-56987535D01*
X45960417Y-57011458D01*
X46059531Y-57006302D01*
X46358820Y-56990732D01*
X46683877Y-56917926D01*
X46921988Y-56785698D01*
X47092458Y-56586804D01*
X47156640Y-56455100D01*
X47209182Y-56152873D01*
X47154126Y-55851859D01*
X47001262Y-55587215D01*
X46760377Y-55394096D01*
X46760180Y-55393995D01*
X46551087Y-55329152D01*
X46259735Y-55293003D01*
X45928551Y-55284844D01*
X45599961Y-55303973D01*
X45316391Y-55349686D01*
X45120269Y-55421280D01*
X45056744Y-55463973D01*
X44840985Y-55696230D01*
X44725560Y-55982528D01*
X44718634Y-56290256D01*
X21817188Y-56290256D01*
X21817188Y-55291666D01*
X19303646Y-55291666D01*
X19303646Y-57011458D01*
X13083753Y-57011458D01*
X13083123Y-56209835D01*
X13081848Y-54926526D01*
X13080362Y-53703836D01*
X13078676Y-52547279D01*
X13076801Y-51462366D01*
X13075252Y-50701594D01*
X15509871Y-50701594D01*
X15522598Y-51108043D01*
X15656157Y-51501584D01*
X15731771Y-51608651D01*
X15910615Y-51861890D01*
X15985000Y-51948552D01*
X16034720Y-52060171D01*
X16002283Y-52171734D01*
X15962635Y-52279144D01*
X15933245Y-52532593D01*
X15954883Y-52817863D01*
X16026052Y-53077905D01*
X16043100Y-53117403D01*
X16111976Y-53252665D01*
X16158344Y-53307291D01*
X16159259Y-53306721D01*
X16168707Y-53231938D01*
X16177195Y-53043323D01*
X16184386Y-52757763D01*
X16189941Y-52392145D01*
X16193523Y-51963355D01*
X16194792Y-51488281D01*
X16194775Y-51442553D01*
X16192564Y-50971078D01*
X16189365Y-50728004D01*
X32421082Y-50728004D01*
X32494653Y-51005199D01*
X32579156Y-51144733D01*
X32795246Y-51337654D01*
X33057890Y-51433085D01*
X33336439Y-51428595D01*
X33600239Y-51321756D01*
X33818641Y-51110139D01*
X33844183Y-51068788D01*
X33913196Y-50827472D01*
X33905260Y-50691485D01*
X37493750Y-50691485D01*
X37501488Y-50802150D01*
X37592939Y-51064484D01*
X37766091Y-51263332D01*
X37994012Y-51391699D01*
X38249771Y-51442593D01*
X38506437Y-51409020D01*
X38737079Y-51283986D01*
X38914766Y-51060498D01*
X38966270Y-50935829D01*
X39000443Y-50649342D01*
X38933750Y-50378067D01*
X38781768Y-50149838D01*
X38560074Y-49992489D01*
X38284245Y-49933854D01*
X38210936Y-49938304D01*
X37945076Y-50025324D01*
X37715632Y-50200269D01*
X37554544Y-50432526D01*
X37493750Y-50691485D01*
X33905260Y-50691485D01*
X33897055Y-50550903D01*
X33797159Y-50292385D01*
X33693041Y-50156209D01*
X33476800Y-50005381D01*
X33234707Y-49952505D01*
X32989179Y-49985312D01*
X32762634Y-50091535D01*
X32577491Y-50258903D01*
X32456167Y-50475149D01*
X32421082Y-50728004D01*
X16189365Y-50728004D01*
X16186989Y-50547458D01*
X16178547Y-50188581D01*
X16167740Y-49911333D01*
X16155064Y-49732600D01*
X16141021Y-49669270D01*
X16130298Y-49671587D01*
X16040848Y-49732791D01*
X15917062Y-49851171D01*
X15846658Y-49931281D01*
X15617913Y-50302564D01*
X15509871Y-50701594D01*
X13075252Y-50701594D01*
X13074749Y-50454613D01*
X13072533Y-49529531D01*
X13070162Y-48692635D01*
X13067649Y-47949437D01*
X13065005Y-47305452D01*
X13062242Y-46766191D01*
X13059372Y-46337169D01*
X13056405Y-46023898D01*
X13053354Y-45831893D01*
X13050229Y-45766666D01*
X12950815Y-45792628D01*
X12760631Y-45893575D01*
X12529124Y-46051445D01*
X12285928Y-46245611D01*
X12060677Y-46455446D01*
X11995489Y-46523664D01*
X11590350Y-47046151D01*
X11305605Y-47611987D01*
X11144901Y-48212017D01*
X11111884Y-48837086D01*
X11118473Y-48976419D01*
X11121664Y-49175535D01*
X11105282Y-49287483D01*
X11062192Y-49342293D01*
X10985258Y-49369992D01*
X10904118Y-49401162D01*
X10703557Y-49533627D01*
X10489755Y-49728500D01*
X10298764Y-49950755D01*
X10166635Y-50165364D01*
X10120057Y-50293547D01*
X10064359Y-50581200D01*
X10048871Y-50892777D01*
X10074573Y-51178617D01*
X10142448Y-51389062D01*
X10213770Y-51524890D01*
X10216403Y-51598093D01*
X10125921Y-51618102D01*
X9923207Y-51603626D01*
X9464554Y-51614284D01*
X8961840Y-51725787D01*
X8462735Y-51925578D01*
X8001686Y-52199777D01*
X7613136Y-52534505D01*
X7236205Y-53012067D01*
X6968103Y-53545692D01*
X6827002Y-54116099D01*
X6812931Y-54723058D01*
X6925920Y-55366338D01*
X7165998Y-56045707D01*
X7189833Y-56114975D01*
X7158084Y-56147178D01*
X7027933Y-56122974D01*
X6804351Y-56090476D01*
X6484450Y-56076408D01*
X6113568Y-56080644D01*
X5732101Y-56101796D01*
X5380445Y-56138474D01*
X5098997Y-56189291D01*
X4811538Y-56269950D01*
X4138113Y-56534496D01*
X3504279Y-56886671D01*
X2939446Y-57308631D01*
X2473026Y-57782532D01*
X2458823Y-57799826D01*
X2004659Y-58452639D01*
X1668953Y-59145057D01*
X1449640Y-59864211D01*
X1344653Y-60597233D01*
X-10937Y-60597233D01*
X-10937Y-47812878D01*
X1734616Y-47812878D01*
X1851584Y-48291317D01*
X2088943Y-48743155D01*
X2102256Y-48762205D01*
X2279378Y-48975494D01*
X2495434Y-49184227D01*
X2719934Y-49363793D01*
X2922392Y-49489580D01*
X3072319Y-49536979D01*
X3082930Y-49532884D01*
X3101689Y-49496592D01*
X3117421Y-49414795D01*
X3130376Y-49277849D01*
X3140799Y-49076113D01*
X3148939Y-48799944D01*
X3155044Y-48439698D01*
X3159361Y-47985734D01*
X3162138Y-47428409D01*
X3163623Y-46758080D01*
X3164063Y-45965104D01*
X3163784Y-45598193D01*
X3161860Y-44945445D01*
X3158257Y-44340632D01*
X3153153Y-43795804D01*
X3146726Y-43323013D01*
X3139153Y-42934309D01*
X3130613Y-42641743D01*
X3121283Y-42457366D01*
X3111341Y-42393229D01*
X3074353Y-42411102D01*
X2963046Y-42501027D01*
X2817304Y-42641276D01*
X2690603Y-42784874D01*
X2458758Y-43158920D01*
X2333045Y-43554502D01*
X2315657Y-43949847D01*
X2408787Y-44323181D01*
X2614630Y-44652733D01*
X2647384Y-44692268D01*
X2666282Y-44761109D01*
X2569017Y-44807467D01*
X2468668Y-44865212D01*
X2324331Y-45029618D01*
X2215364Y-45242994D01*
X2172122Y-45455758D01*
X2201992Y-45643520D01*
X2276283Y-45842847D01*
X2339632Y-45984538D01*
X2333444Y-46079699D01*
X2250176Y-46186827D01*
X2067157Y-46439144D01*
X1890321Y-46802494D01*
X1766014Y-47203120D01*
X1742507Y-47329149D01*
X1734616Y-47812878D01*
X-10937Y-47812878D01*
X-10937Y-40410014D01*
X4156250Y-40410014D01*
X4166844Y-40584000D01*
X4268068Y-40951151D01*
X4459859Y-41255491D01*
X4721781Y-41491073D01*
X5033402Y-41651949D01*
X5374286Y-41732173D01*
X5724000Y-41725797D01*
X6062111Y-41626874D01*
X6368182Y-41429456D01*
X6621781Y-41127597D01*
X6714515Y-40954629D01*
X6829037Y-40567324D01*
X6829035Y-40563472D01*
X9146502Y-40563472D01*
X9248264Y-40933996D01*
X9448615Y-41254861D01*
X9733169Y-41507295D01*
X10087542Y-41672523D01*
X10497346Y-41731770D01*
X10748649Y-41710987D01*
X11135222Y-41581487D01*
X11456999Y-41339060D01*
X11703312Y-40990265D01*
X11773020Y-40800655D01*
X11822007Y-40472799D01*
X11810457Y-40133666D01*
X11736531Y-39846614D01*
X11730776Y-39833912D01*
X11572012Y-39590074D01*
X11345238Y-39356217D01*
X11102937Y-39186980D01*
X11063387Y-39167644D01*
X10685629Y-39057870D01*
X10300869Y-39063637D01*
X9933972Y-39174064D01*
X9609800Y-39378270D01*
X9353217Y-39665375D01*
X9189088Y-40024497D01*
X9157717Y-40162064D01*
X9146502Y-40563472D01*
X6829035Y-40563472D01*
X6828882Y-40186903D01*
X6724655Y-39832560D01*
X6526963Y-39523489D01*
X6246413Y-39278886D01*
X5893612Y-39117943D01*
X5479167Y-39059856D01*
X5374330Y-39063395D01*
X4974260Y-39150546D01*
X4638002Y-39343495D01*
X4379971Y-39627529D01*
X4214583Y-39987940D01*
X4156250Y-40410014D01*
X-10937Y-40410014D01*
X-10937Y-32793633D01*
X6648085Y-32793633D01*
X6680573Y-33132769D01*
X6806265Y-33455769D01*
X7043988Y-33755296D01*
X7225841Y-33907807D01*
X7571710Y-34076701D01*
X7945346Y-34138595D01*
X8321608Y-34097620D01*
X8675353Y-33957905D01*
X8981440Y-33723578D01*
X9214726Y-33398770D01*
X9243159Y-33339290D01*
X9344141Y-32962362D01*
X9328666Y-32576250D01*
X9204970Y-32207524D01*
X8981293Y-31882754D01*
X8665872Y-31628511D01*
X8532339Y-31559506D01*
X8153756Y-31452400D01*
X7777849Y-31459277D01*
X7424891Y-31568429D01*
X7115160Y-31768149D01*
X6868931Y-32046728D01*
X6706481Y-32392458D01*
X6648085Y-32793633D01*
X-10937Y-32793633D01*
X-10937Y-21521388D01*
X1583480Y-21521388D01*
X1591331Y-21936892D01*
X1712302Y-22346184D01*
X1762217Y-22459542D01*
X1807579Y-22603536D01*
X1798065Y-22720233D01*
X1736375Y-22868178D01*
X1689278Y-22991655D01*
X1651729Y-23309144D01*
X1716576Y-23618752D01*
X1877571Y-23875894D01*
X2128677Y-24066613D01*
X2421824Y-24174478D01*
X2706963Y-24178789D01*
X2793374Y-24165015D01*
X2879331Y-24183851D01*
X2899479Y-24277255D01*
X2905653Y-24356503D01*
X3001923Y-24599701D01*
X3111341Y-24716917D01*
X3192561Y-24803925D01*
X3448728Y-24944530D01*
X3741588Y-24996875D01*
X3805719Y-24997208D01*
X3937639Y-25011075D01*
X3981834Y-25066702D01*
X3972267Y-25192958D01*
X3964131Y-25459486D01*
X4049135Y-25824035D01*
X4229471Y-26156301D01*
X4485527Y-26436288D01*
X4797689Y-26643999D01*
X5146344Y-26759439D01*
X5479167Y-26762327D01*
X5511878Y-26762611D01*
X5742763Y-26725144D01*
X5644038Y-26916058D01*
X5579086Y-27084108D01*
X5556031Y-27414606D01*
X5655774Y-27756276D01*
X5708340Y-27847541D01*
X5882798Y-28041296D01*
X6094028Y-28182771D01*
X6296530Y-28237773D01*
X6378233Y-28259848D01*
X6374999Y-28353628D01*
X6351920Y-28418281D01*
X6269484Y-28753769D01*
X6228927Y-29110049D01*
X6239119Y-29417678D01*
X6260303Y-29532493D01*
X6335001Y-29804633D01*
X6435025Y-30072275D01*
X6543604Y-30293615D01*
X6643968Y-30426849D01*
X6647354Y-30429058D01*
X6662581Y-30420067D01*
X6676010Y-30373150D01*
X6687747Y-30281048D01*
X6697900Y-30136503D01*
X6706577Y-29932255D01*
X6713884Y-29661045D01*
X6719930Y-29315616D01*
X6720457Y-29269585D01*
X13142451Y-29269585D01*
X13165931Y-29653105D01*
X13218907Y-29960330D01*
X13222489Y-29973519D01*
X13448888Y-30569919D01*
X13781869Y-31127713D01*
X14203741Y-31631287D01*
X14696812Y-32065027D01*
X15243390Y-32413319D01*
X15825784Y-32660549D01*
X16426302Y-32791102D01*
X16823177Y-32835156D01*
X16861795Y-33232031D01*
X16876270Y-33353960D01*
X16966557Y-33724032D01*
X17136077Y-34048462D01*
X17407002Y-34373679D01*
X17550472Y-34506667D01*
X17945306Y-34752153D01*
X18390436Y-34884770D01*
X18866279Y-34900285D01*
X19353255Y-34794463D01*
X19700521Y-34674495D01*
X19701142Y-35044669D01*
X19730354Y-35317254D01*
X19858342Y-35688180D01*
X20069329Y-36010628D01*
X20342749Y-36246093D01*
X20413085Y-36288443D01*
X20548930Y-36370504D01*
X20610886Y-36408353D01*
X20603607Y-36426263D01*
X20532730Y-36515545D01*
X20409189Y-36652082D01*
X20251202Y-36858769D01*
X20087571Y-37243188D01*
X20031250Y-37684637D01*
X20031250Y-37954707D01*
X19801864Y-37858864D01*
X19549500Y-37785493D01*
X19177394Y-37779873D01*
X18821319Y-37882512D01*
X18506448Y-38080759D01*
X18257958Y-38361965D01*
X18101023Y-38713481D01*
X18066302Y-38826698D01*
X18009919Y-38931332D01*
X17913179Y-39020241D01*
X17749309Y-39116736D01*
X17491536Y-39244126D01*
X17131620Y-39439418D01*
X16814035Y-39668837D01*
X16485122Y-39971730D01*
X16324394Y-40140182D01*
X15912487Y-40676420D01*
X15624822Y-41245814D01*
X15456105Y-41860874D01*
X15401042Y-42534111D01*
X15427705Y-42988911D01*
X15566426Y-43646651D01*
X15814305Y-44250982D01*
X16141021Y-44760430D01*
X16160842Y-44791337D01*
X16595541Y-45257146D01*
X16818558Y-45422852D01*
X17107903Y-45637840D01*
X17687430Y-45922850D01*
X18323625Y-46101607D01*
X18921913Y-46155910D01*
X19005990Y-46163541D01*
X19306546Y-46154572D01*
X19727135Y-46103018D01*
X20143615Y-45997018D01*
X20591454Y-45826758D01*
X21106120Y-45582425D01*
X21126192Y-45602418D01*
X21147744Y-45719708D01*
X21156375Y-45909982D01*
X21158406Y-45982070D01*
X21243308Y-46411969D01*
X21445505Y-46842714D01*
X21754724Y-47251281D01*
X21817188Y-47315760D01*
X21889015Y-47389904D01*
X22018248Y-47507428D01*
X22090195Y-47552604D01*
X22094356Y-47543915D01*
X22105315Y-47434449D01*
X22115446Y-47208753D01*
X22124554Y-46878596D01*
X22132444Y-46455749D01*
X22137161Y-46088822D01*
X22755208Y-46088822D01*
X22785596Y-46441865D01*
X22892057Y-46760423D01*
X22942514Y-46846336D01*
X23083174Y-47027459D01*
X23254816Y-47203095D01*
X23429370Y-47348524D01*
X23578767Y-47439026D01*
X23674939Y-47449882D01*
X23686195Y-47404739D01*
X23699051Y-47243641D01*
X23709979Y-46983157D01*
X23718952Y-46641106D01*
X23725946Y-46235309D01*
X23730937Y-45783586D01*
X23733900Y-45303756D01*
X23734810Y-44813639D01*
X23733644Y-44331055D01*
X23730375Y-43873825D01*
X23724981Y-43459768D01*
X23717435Y-43106703D01*
X23707714Y-42832451D01*
X23695792Y-42654832D01*
X23681646Y-42591666D01*
X23665151Y-42595446D01*
X23566764Y-42666686D01*
X23435775Y-42800297D01*
X23305720Y-42959566D01*
X23210138Y-43107785D01*
X23196621Y-43136158D01*
X23135331Y-43401927D01*
X23149997Y-43703806D01*
X23238579Y-43979290D01*
X23302439Y-44115915D01*
X23311294Y-44201622D01*
X23254892Y-44253793D01*
X23162700Y-44349281D01*
X23076050Y-44504845D01*
X23050510Y-44572545D01*
X23031721Y-44728375D01*
X23094006Y-44900535D01*
X23148442Y-45021937D01*
X23154025Y-45112275D01*
X23090106Y-45185138D01*
X23073081Y-45199817D01*
X22903691Y-45430095D01*
X22796153Y-45738998D01*
X22755208Y-46088822D01*
X22137161Y-46088822D01*
X22138920Y-45951983D01*
X22143788Y-45379068D01*
X22146852Y-44748773D01*
X22147917Y-44072871D01*
X22148052Y-43411319D01*
X22148754Y-42748178D01*
X22150374Y-42198214D01*
X22153260Y-41751104D01*
X22157760Y-41396523D01*
X22164222Y-41124148D01*
X22172993Y-40923654D01*
X22184422Y-40784718D01*
X22198856Y-40697016D01*
X22216644Y-40650223D01*
X22238133Y-40634016D01*
X22263672Y-40638071D01*
X22350914Y-40664140D01*
X22613191Y-40702742D01*
X22994227Y-40722996D01*
X23497092Y-40724945D01*
X23681646Y-40720149D01*
X24124855Y-40708630D01*
X24697451Y-40682464D01*
X24880585Y-40674095D01*
X26482801Y-40588920D01*
X26779291Y-40740871D01*
X26891658Y-40794277D01*
X27172850Y-40880092D01*
X27324436Y-40880448D01*
X27451484Y-40880746D01*
X27759410Y-40793260D01*
X28128475Y-40614655D01*
X28637315Y-40335387D01*
X28584153Y-41513136D01*
X28579094Y-41628477D01*
X28553884Y-42351173D01*
X28539665Y-43061036D01*
X28536127Y-43741042D01*
X28542959Y-44374167D01*
X28559850Y-44943388D01*
X28586490Y-45431682D01*
X28622569Y-45822026D01*
X28667776Y-46097395D01*
X28671069Y-46111581D01*
X28726497Y-46391111D01*
X28763200Y-46652739D01*
X28773381Y-46841536D01*
X28771660Y-46882149D01*
X28755808Y-47269659D01*
X28747862Y-47552963D01*
X28750247Y-47757747D01*
X28765390Y-47909694D01*
X28795714Y-48034487D01*
X28843645Y-48157813D01*
X28911610Y-48305353D01*
X28955319Y-48398228D01*
X29042728Y-48567279D01*
X29115204Y-48650188D01*
X29202212Y-48671422D01*
X29333217Y-48655448D01*
X29367311Y-48649670D01*
X29523288Y-48616207D01*
X29601892Y-48587344D01*
X29603953Y-48579166D01*
X29590611Y-48522628D01*
X32416067Y-48522628D01*
X32476229Y-48783976D01*
X32649391Y-49024581D01*
X32663545Y-49037688D01*
X32838684Y-49164533D01*
X33008857Y-49240894D01*
X33083624Y-49253751D01*
X33234707Y-49238811D01*
X33354480Y-49226968D01*
X33609265Y-49107828D01*
X33794455Y-48918310D01*
X33846708Y-48821643D01*
X33924968Y-48521184D01*
X33910933Y-48441395D01*
X37508925Y-48441395D01*
X37541507Y-48686940D01*
X37647773Y-48913186D01*
X37815494Y-49097788D01*
X38032441Y-49218398D01*
X38284245Y-49252383D01*
X38286384Y-49252672D01*
X38565095Y-49178263D01*
X38577107Y-49172372D01*
X38762548Y-49041740D01*
X38902255Y-48880782D01*
X38945552Y-48797324D01*
X39010829Y-48520787D01*
X39001788Y-48463927D01*
X41991667Y-48463927D01*
X41992208Y-48555864D01*
X42006600Y-48789841D01*
X42055362Y-48951429D01*
X42158052Y-49053939D01*
X42334229Y-49110682D01*
X42603451Y-49134967D01*
X42985278Y-49140104D01*
X43112432Y-49139933D01*
X43410903Y-49136339D01*
X43609100Y-49125342D01*
X43730961Y-49103365D01*
X43800422Y-49066830D01*
X43841423Y-49012161D01*
X43870463Y-48919796D01*
X43898897Y-48720961D01*
X43909896Y-48482994D01*
X43899806Y-48226111D01*
X43855997Y-48042544D01*
X43758829Y-47923501D01*
X43588662Y-47855349D01*
X43325859Y-47824455D01*
X42950781Y-47817187D01*
X42595348Y-47823647D01*
X42325841Y-47853033D01*
X42150288Y-47918559D01*
X42049119Y-48033420D01*
X42002769Y-48210811D01*
X41991667Y-48463927D01*
X39001788Y-48463927D01*
X38969556Y-48261216D01*
X38841371Y-48037407D01*
X38645912Y-47868159D01*
X38402819Y-47772270D01*
X38131729Y-47768536D01*
X37852281Y-47875757D01*
X37713730Y-47981792D01*
X37562257Y-48198897D01*
X37508925Y-48441395D01*
X33910933Y-48441395D01*
X33874601Y-48234857D01*
X33696979Y-47975937D01*
X33597378Y-47883942D01*
X33424202Y-47779808D01*
X33230674Y-47751041D01*
X33080294Y-47763038D01*
X32801019Y-47860743D01*
X32589718Y-48036350D01*
X32457649Y-48265199D01*
X32416067Y-48522628D01*
X29590611Y-48522628D01*
X29581028Y-48482022D01*
X29517823Y-48303205D01*
X29424988Y-48073638D01*
X29218834Y-47589183D01*
X29329751Y-47179422D01*
X29349336Y-47105253D01*
X29397531Y-46874207D01*
X29401108Y-46705193D01*
X29362618Y-46549284D01*
X29341390Y-46470633D01*
X29303702Y-46252458D01*
X29298707Y-46210287D01*
X32414223Y-46210287D01*
X32441376Y-46492793D01*
X32600530Y-46778901D01*
X32747031Y-46917845D01*
X33001109Y-47026810D01*
X33230674Y-47029464D01*
X33278485Y-47030017D01*
X33547996Y-46928896D01*
X33778477Y-46724876D01*
X33860369Y-46596194D01*
X33929019Y-46323564D01*
X33911112Y-46234118D01*
X37507205Y-46234118D01*
X37530078Y-46497474D01*
X37645301Y-46723476D01*
X37830088Y-46898030D01*
X38061656Y-47007043D01*
X38131729Y-47015097D01*
X38317220Y-47036418D01*
X38573995Y-46972061D01*
X38809197Y-46799878D01*
X38863148Y-46729460D01*
X38938567Y-46547963D01*
X42025284Y-46547963D01*
X42080883Y-46712044D01*
X42097887Y-46751189D01*
X42219386Y-46949142D01*
X42385756Y-47073231D01*
X42624834Y-47137434D01*
X42950781Y-47154992D01*
X42964456Y-47155729D01*
X42982337Y-47155717D01*
X43236242Y-47149730D01*
X43402910Y-47124994D01*
X43524815Y-47070148D01*
X43644433Y-46973828D01*
X43663510Y-46955973D01*
X43837738Y-46712915D01*
X43886202Y-46454288D01*
X43809651Y-46201070D01*
X43608830Y-45974240D01*
X43584534Y-45955841D01*
X43444219Y-45880835D01*
X43261281Y-45843506D01*
X42991470Y-45833787D01*
X42654756Y-45852846D01*
X42408147Y-45918594D01*
X42234037Y-46043903D01*
X42104407Y-46241654D01*
X42103171Y-46244179D01*
X42031512Y-46416030D01*
X42025284Y-46547963D01*
X38938567Y-46547963D01*
X38961456Y-46492879D01*
X38995512Y-46224889D01*
X38953662Y-45990776D01*
X38907973Y-45902036D01*
X38720869Y-45702475D01*
X38478124Y-45592215D01*
X38210264Y-45570442D01*
X37947819Y-45636342D01*
X37721316Y-45789101D01*
X37561281Y-46027905D01*
X37507205Y-46234118D01*
X33911112Y-46234118D01*
X33873880Y-46048149D01*
X33696979Y-45793124D01*
X33534979Y-45651731D01*
X33377610Y-45584323D01*
X33162724Y-45568229D01*
X32990279Y-45577363D01*
X32819289Y-45632006D01*
X32663403Y-45758191D01*
X32518785Y-45936030D01*
X32414223Y-46210287D01*
X29298707Y-46210287D01*
X29269874Y-45966843D01*
X29245309Y-45654978D01*
X29206049Y-44981051D01*
X29529978Y-45145220D01*
X29646858Y-45198747D01*
X29851485Y-45265038D01*
X29993777Y-45274432D01*
X30074827Y-45275800D01*
X30173529Y-45334989D01*
X30305214Y-45470326D01*
X30489871Y-45698913D01*
X30561062Y-45789116D01*
X30720045Y-45978573D01*
X30844515Y-46110509D01*
X30912240Y-46160617D01*
X30919818Y-46160092D01*
X31020240Y-46113565D01*
X31158541Y-46014384D01*
X31338696Y-45865885D01*
X30836062Y-45246907D01*
X30333429Y-44627929D01*
X30076948Y-44668942D01*
X29832766Y-44672922D01*
X29517662Y-44576995D01*
X29258594Y-44379229D01*
X29241242Y-44358953D01*
X29205057Y-44305023D01*
X29177674Y-44232704D01*
X29158077Y-44125725D01*
X29145250Y-43967817D01*
X29138177Y-43742708D01*
X29135842Y-43434129D01*
X29136640Y-43198937D01*
X32423490Y-43198937D01*
X32508688Y-43446101D01*
X32679122Y-43653180D01*
X32923536Y-43795513D01*
X33162724Y-43836728D01*
X33230674Y-43848437D01*
X33336510Y-43841351D01*
X33512609Y-43777032D01*
X33696979Y-43623541D01*
X33803687Y-43506327D01*
X33896874Y-43339607D01*
X33921628Y-43143984D01*
X33917765Y-43057975D01*
X33837322Y-42762675D01*
X33671451Y-42538507D01*
X33444937Y-42396559D01*
X33182566Y-42347917D01*
X32909122Y-42403667D01*
X32649391Y-42574897D01*
X32553828Y-42682997D01*
X32434785Y-42936348D01*
X32423490Y-43198937D01*
X29136640Y-43198937D01*
X29137228Y-43025810D01*
X29141320Y-42501480D01*
X29145751Y-42119426D01*
X29154359Y-41641238D01*
X29165555Y-41201363D01*
X29178619Y-40823296D01*
X29192830Y-40530530D01*
X29207465Y-40346562D01*
X29258594Y-39920468D01*
X29920052Y-39469689D01*
X30243367Y-39247994D01*
X30535758Y-39041626D01*
X30750051Y-38879140D01*
X30903796Y-38745008D01*
X31014545Y-38623703D01*
X31099850Y-38499699D01*
X31177262Y-38357466D01*
X31291195Y-38157501D01*
X31441186Y-37994909D01*
X31631576Y-37915978D01*
X31902203Y-37895312D01*
X32186040Y-37868330D01*
X32511503Y-37759112D01*
X32753861Y-37578328D01*
X32875690Y-37441524D01*
X33056535Y-37651881D01*
X33166357Y-37786239D01*
X33182566Y-37806855D01*
X33332902Y-37998068D01*
X33533225Y-38257904D01*
X33744679Y-38536629D01*
X33903363Y-38743531D01*
X34201613Y-39101607D01*
X34453347Y-39351084D01*
X34668659Y-39497826D01*
X34857641Y-39547697D01*
X35030388Y-39506560D01*
X35196994Y-39380278D01*
X35267488Y-39314180D01*
X35348838Y-39267897D01*
X35423880Y-39287791D01*
X35507982Y-39387376D01*
X35616513Y-39580169D01*
X35764840Y-39879687D01*
X35792103Y-39935564D01*
X35911548Y-40164934D01*
X36004750Y-40301779D01*
X36092401Y-40370992D01*
X36195189Y-40397465D01*
X36318440Y-40422936D01*
X36362711Y-40490093D01*
X36348738Y-40642049D01*
X36332056Y-40715837D01*
X36268283Y-40923389D01*
X36173038Y-41191346D01*
X36059913Y-41480260D01*
X35807259Y-42095572D01*
X35793623Y-43329704D01*
X35788596Y-43714690D01*
X35780529Y-44061469D01*
X35767551Y-44321099D01*
X35746997Y-44517888D01*
X35716198Y-44676145D01*
X35672489Y-44820178D01*
X35613201Y-44974295D01*
X35533493Y-45183484D01*
X35452110Y-45427489D01*
X35404388Y-45608784D01*
X35362360Y-45832812D01*
X35667378Y-45832812D01*
X35706304Y-45832651D01*
X35876530Y-45821323D01*
X35954029Y-45781545D01*
X35972396Y-45698527D01*
X35995331Y-45581582D01*
X36060951Y-45383108D01*
X36154297Y-45152824D01*
X36165662Y-45127050D01*
X36227046Y-44980560D01*
X36271785Y-44846452D01*
X36302668Y-44700613D01*
X36322482Y-44518932D01*
X36334018Y-44277295D01*
X36340062Y-43951591D01*
X36343405Y-43517708D01*
X36346901Y-43085801D01*
X36346923Y-43084714D01*
X37493750Y-43084714D01*
X37501488Y-43195379D01*
X37592939Y-43457713D01*
X37766091Y-43656561D01*
X37994012Y-43784928D01*
X38210264Y-43827960D01*
X38249771Y-43835822D01*
X38506437Y-43802249D01*
X38737079Y-43677215D01*
X38914766Y-43453727D01*
X38994593Y-43222663D01*
X38990515Y-42931646D01*
X38877625Y-42672805D01*
X38668725Y-42472250D01*
X38376613Y-42356086D01*
X38206819Y-42347410D01*
X37942337Y-42424414D01*
X37714226Y-42590384D01*
X37554145Y-42819193D01*
X37493750Y-43084714D01*
X36346923Y-43084714D01*
X36353484Y-42754820D01*
X36365885Y-42506130D01*
X36386874Y-42314566D01*
X36419221Y-42154965D01*
X36465696Y-42002161D01*
X36529068Y-41830989D01*
X36656688Y-41493478D01*
X36784031Y-41132779D01*
X36875110Y-40836905D01*
X36940275Y-40574218D01*
X36985998Y-40413119D01*
X37058880Y-40322194D01*
X37187759Y-40287913D01*
X37217308Y-40285674D01*
X37307309Y-40298047D01*
X37410357Y-40350689D01*
X37545448Y-40457994D01*
X37731578Y-40634358D01*
X37987743Y-40894178D01*
X38025668Y-40933152D01*
X38206819Y-41113956D01*
X38293394Y-41200365D01*
X38514180Y-41398251D01*
X38723821Y-41553710D01*
X38958112Y-41693645D01*
X39252848Y-41844956D01*
X39540135Y-41990177D01*
X39745668Y-42107635D01*
X39882199Y-42210691D01*
X39976163Y-42319437D01*
X40053993Y-42453968D01*
X40083493Y-42511363D01*
X40194167Y-42707444D01*
X40305398Y-42846801D01*
X40438925Y-42935794D01*
X40616483Y-42980783D01*
X40859812Y-42988129D01*
X41190649Y-42964193D01*
X41630731Y-42915335D01*
X41911865Y-42884323D01*
X42119830Y-42871471D01*
X42270415Y-42882381D01*
X42401636Y-42920026D01*
X42551510Y-42987381D01*
X42657900Y-43042818D01*
X42797077Y-43131990D01*
X42851563Y-43192879D01*
X42857449Y-43214977D01*
X42934245Y-43250746D01*
X42945255Y-43249407D01*
X42991470Y-43228315D01*
X43058366Y-43197784D01*
X43204210Y-43095142D01*
X43391492Y-42941917D01*
X43118758Y-42708467D01*
X42856517Y-42522397D01*
X42541456Y-42394787D01*
X42168606Y-42340222D01*
X41707291Y-42350931D01*
X41661719Y-42354605D01*
X41369771Y-42381158D01*
X41104896Y-42409748D01*
X40919546Y-42434793D01*
X40825763Y-42448963D01*
X40711601Y-42442995D01*
X40639342Y-42370533D01*
X40565022Y-42202809D01*
X40530411Y-42125617D01*
X40383489Y-41908660D01*
X40159514Y-41705744D01*
X39841035Y-41503020D01*
X39410606Y-41286641D01*
X39240005Y-41205325D01*
X39132377Y-41146368D01*
X42002306Y-41146368D01*
X42015945Y-41382552D01*
X42050405Y-41549869D01*
X42120684Y-41731770D01*
X42946817Y-41731770D01*
X43133493Y-41731413D01*
X43423361Y-41727265D01*
X43615789Y-41715765D01*
X43734076Y-41693580D01*
X43801521Y-41657378D01*
X43841423Y-41603827D01*
X43870463Y-41511463D01*
X43898897Y-41312628D01*
X43909896Y-41074661D01*
X43900897Y-40829465D01*
X43858740Y-40641025D01*
X43763649Y-40518626D01*
X43595890Y-40448386D01*
X43335726Y-40416423D01*
X42963424Y-40408854D01*
X42605788Y-40413975D01*
X42348444Y-40438124D01*
X42181206Y-40493990D01*
X42082791Y-40594257D01*
X42031916Y-40751613D01*
X42007297Y-40978741D01*
X42002306Y-41146368D01*
X39132377Y-41146368D01*
X39004687Y-41076421D01*
X38807363Y-40934655D01*
X38608155Y-40749615D01*
X38367186Y-40490890D01*
X38077698Y-40191067D01*
X37805471Y-39953546D01*
X37582336Y-39808394D01*
X37533006Y-39784971D01*
X37383881Y-39726174D01*
X37241247Y-39702117D01*
X37071969Y-39714161D01*
X36842916Y-39763669D01*
X36520954Y-39852001D01*
X36500143Y-39857314D01*
X36424594Y-39855401D01*
X36355860Y-39797313D01*
X36275428Y-39660779D01*
X36164784Y-39423526D01*
X36148493Y-39387858D01*
X35984261Y-39109916D01*
X42035873Y-39109916D01*
X42097084Y-39362785D01*
X42269175Y-39582756D01*
X42353594Y-39647244D01*
X42485367Y-39710469D01*
X42659074Y-39740060D01*
X42919671Y-39747395D01*
X42936621Y-39747369D01*
X42963424Y-39745927D01*
X43281423Y-39728822D01*
X43524333Y-39668659D01*
X43691104Y-39556251D01*
X43807489Y-39380968D01*
X43830325Y-39330061D01*
X43894720Y-39057498D01*
X43835424Y-38818291D01*
X43648261Y-38591731D01*
X43639354Y-38584093D01*
X43455341Y-38495194D01*
X43192597Y-38441862D01*
X42897263Y-38426688D01*
X42615478Y-38452268D01*
X42393382Y-38521194D01*
X42230661Y-38637306D01*
X42081684Y-38857104D01*
X42035873Y-39109916D01*
X35984261Y-39109916D01*
X35945777Y-39044787D01*
X35714536Y-38811442D01*
X35465683Y-38693246D01*
X35210130Y-38695626D01*
X34958789Y-38824005D01*
X34787237Y-38958948D01*
X34456282Y-38542885D01*
X34374838Y-38440413D01*
X34157847Y-38166925D01*
X33915761Y-37861344D01*
X33687404Y-37572658D01*
X33273948Y-37049453D01*
X42024994Y-37049453D01*
X42031964Y-37181436D01*
X42104407Y-37354178D01*
X42106557Y-37358547D01*
X42235460Y-37553529D01*
X42408585Y-37677276D01*
X42653893Y-37742534D01*
X42897263Y-37756279D01*
X42999347Y-37762045D01*
X43211992Y-37758488D01*
X43390044Y-37735825D01*
X43518961Y-37680974D01*
X43644433Y-37581119D01*
X43663510Y-37563264D01*
X43837738Y-37320207D01*
X43886202Y-37061580D01*
X43809651Y-36808362D01*
X43608830Y-36581531D01*
X43554366Y-36542366D01*
X43417500Y-36479553D01*
X43232074Y-36448466D01*
X42956579Y-36440104D01*
X42913860Y-36440305D01*
X42587759Y-36463750D01*
X42358804Y-36536067D01*
X42199133Y-36671374D01*
X42080883Y-36883788D01*
X42079892Y-36886162D01*
X42024994Y-37049453D01*
X33273948Y-37049453D01*
X33249482Y-37018493D01*
X33535434Y-36712762D01*
X33618742Y-36623699D01*
X33975551Y-36243592D01*
X34259695Y-35946870D01*
X34485855Y-35722537D01*
X34668716Y-35559597D01*
X34822961Y-35447054D01*
X34963271Y-35373914D01*
X35104331Y-35329180D01*
X35260823Y-35301858D01*
X35447430Y-35280951D01*
X35882222Y-35220698D01*
X36087063Y-35164690D01*
X42039426Y-35164690D01*
X42119305Y-35439221D01*
X42146289Y-35483233D01*
X42330273Y-35646665D01*
X42587929Y-35746035D01*
X42886803Y-35783124D01*
X42956579Y-35777815D01*
X43194441Y-35759718D01*
X43478389Y-35677600D01*
X43706193Y-35538553D01*
X43845399Y-35344361D01*
X43870782Y-35271209D01*
X43902754Y-35033930D01*
X43833121Y-34819531D01*
X43821588Y-34798984D01*
X43695870Y-34631036D01*
X43532190Y-34526650D01*
X43299903Y-34472985D01*
X42968361Y-34457199D01*
X42879701Y-34457202D01*
X42642652Y-34464299D01*
X42485743Y-34490252D01*
X42368558Y-34545348D01*
X42250679Y-34639875D01*
X42229164Y-34659999D01*
X42078044Y-34892794D01*
X42039426Y-35164690D01*
X36087063Y-35164690D01*
X36218574Y-35128732D01*
X36464637Y-34989211D01*
X36641320Y-34784982D01*
X36769532Y-34498892D01*
X36870182Y-34113789D01*
X36882695Y-34055353D01*
X36939692Y-33813268D01*
X37001366Y-33636393D01*
X37089893Y-33484999D01*
X37227450Y-33319358D01*
X37436211Y-33099739D01*
X37884810Y-32636718D01*
X38201910Y-32943265D01*
X38372815Y-33102086D01*
X38594996Y-33276448D01*
X38780147Y-33369734D01*
X38953854Y-33397395D01*
X38979406Y-33397593D01*
X39041983Y-33405413D01*
X39102985Y-33437140D01*
X39178035Y-33509574D01*
X39282758Y-33639510D01*
X39432778Y-33843749D01*
X39643719Y-34139087D01*
X39728192Y-34254738D01*
X39899577Y-34472352D01*
X40046808Y-34638171D01*
X40145021Y-34723222D01*
X40215915Y-34760550D01*
X40283153Y-34773490D01*
X40337847Y-34715172D01*
X40418134Y-34563258D01*
X40460255Y-34470215D01*
X40469546Y-34384899D01*
X40432934Y-34282042D01*
X40339622Y-34131947D01*
X40178814Y-33904913D01*
X40128532Y-33835530D01*
X39801499Y-33413129D01*
X39524913Y-33110759D01*
X39506933Y-33096269D01*
X42037890Y-33096269D01*
X42081492Y-33341731D01*
X42239599Y-33561142D01*
X42268545Y-33589299D01*
X42365837Y-33663482D01*
X42483941Y-33705371D01*
X42659980Y-33723930D01*
X42931077Y-33728125D01*
X42968361Y-33727640D01*
X43120925Y-33725657D01*
X43394983Y-33703261D01*
X43581899Y-33648532D01*
X43710594Y-33550632D01*
X43809992Y-33398719D01*
X43894217Y-33181472D01*
X43887257Y-32982136D01*
X43780374Y-32755835D01*
X43701768Y-32656168D01*
X43464500Y-32502415D01*
X43143724Y-32424449D01*
X42760514Y-32429023D01*
X42693024Y-32438066D01*
X42383661Y-32521873D01*
X42180836Y-32668104D01*
X42071947Y-32885105D01*
X42037890Y-33096269D01*
X39506933Y-33096269D01*
X39299312Y-32928949D01*
X39125234Y-32868229D01*
X39061598Y-32858664D01*
X38865378Y-32762757D01*
X38620142Y-32572271D01*
X38286909Y-32276313D01*
X38733689Y-31905464D01*
X38835066Y-31822083D01*
X39136531Y-31589701D01*
X39385870Y-31433435D01*
X39614664Y-31339224D01*
X39854496Y-31293009D01*
X40136948Y-31280729D01*
X40602604Y-31280729D01*
X40602604Y-30751562D01*
X40023828Y-30752359D01*
X40003291Y-30752402D01*
X39704862Y-30759304D01*
X39493537Y-30783336D01*
X39326833Y-30832508D01*
X39162271Y-30914832D01*
X39142499Y-30926286D01*
X38844798Y-31124168D01*
X38481125Y-31403927D01*
X38071070Y-31749123D01*
X37634219Y-32143315D01*
X37190160Y-32570065D01*
X37106799Y-32652840D01*
X36865878Y-32895709D01*
X36697575Y-33077934D01*
X36584637Y-33224248D01*
X36509816Y-33359383D01*
X36455861Y-33508074D01*
X36405522Y-33695052D01*
X36387566Y-33766275D01*
X36300709Y-34110160D01*
X36228834Y-34351137D01*
X36152090Y-34509443D01*
X36050622Y-34605317D01*
X35904578Y-34658996D01*
X35694103Y-34690719D01*
X35399346Y-34720722D01*
X35350412Y-34726185D01*
X35065856Y-34770335D01*
X34814122Y-34827972D01*
X34644807Y-34888093D01*
X34560924Y-34936228D01*
X34296871Y-35134213D01*
X33976446Y-35433728D01*
X33595656Y-35838686D01*
X33150510Y-36353001D01*
X32995250Y-36536327D01*
X32720647Y-36846045D01*
X32496464Y-37069225D01*
X32303730Y-37219346D01*
X32123473Y-37309887D01*
X31936720Y-37354327D01*
X31724500Y-37366145D01*
X31473482Y-37387125D01*
X31181342Y-37493343D01*
X30935378Y-37702495D01*
X30713208Y-38029255D01*
X30653696Y-38130391D01*
X30567199Y-38252247D01*
X30457084Y-38372093D01*
X30305973Y-38504874D01*
X30096485Y-38665536D01*
X29811242Y-38869025D01*
X29432864Y-39130284D01*
X28974182Y-39439352D01*
X28492128Y-39750791D01*
X28079181Y-40002009D01*
X27744237Y-40187844D01*
X27496193Y-40303131D01*
X27343944Y-40342708D01*
X27342249Y-40342696D01*
X27207507Y-40312381D01*
X27038313Y-40241216D01*
X26987960Y-40214288D01*
X26916034Y-40161769D01*
X26892163Y-40098051D01*
X26924489Y-40005753D01*
X27021151Y-39867497D01*
X27190291Y-39665903D01*
X27440050Y-39383593D01*
X27471258Y-39348438D01*
X27808873Y-38941138D01*
X28043145Y-38593697D01*
X28178802Y-38291368D01*
X28220571Y-38019402D01*
X28173179Y-37763054D01*
X28041352Y-37507574D01*
X27987779Y-37425008D01*
X27905616Y-37270168D01*
X27888078Y-37149113D01*
X27923165Y-37011480D01*
X27947930Y-36874036D01*
X27968758Y-36615139D01*
X27984588Y-36248731D01*
X27994883Y-35787293D01*
X27999108Y-35243305D01*
X28000496Y-34898400D01*
X28006312Y-34427277D01*
X28016991Y-34071058D01*
X28033085Y-33818944D01*
X28055144Y-33660134D01*
X28083720Y-33583828D01*
X28111386Y-33557851D01*
X28254751Y-33474816D01*
X28447522Y-33401576D01*
X28496885Y-33386372D01*
X28763386Y-33269051D01*
X28913723Y-33120279D01*
X28960937Y-32928026D01*
X28959041Y-32874472D01*
X28913782Y-32728915D01*
X28813569Y-32703061D01*
X28665509Y-32799990D01*
X28652853Y-32811580D01*
X28545497Y-32884027D01*
X28488505Y-32876997D01*
X28487495Y-32874428D01*
X28412683Y-32847123D01*
X28265067Y-32882504D01*
X28076490Y-32964588D01*
X27878795Y-33077395D01*
X27703824Y-33204942D01*
X27583419Y-33331249D01*
X27573883Y-33345193D01*
X27519532Y-33430639D01*
X27481076Y-33516876D01*
X27456557Y-33625809D01*
X27444016Y-33779345D01*
X27441496Y-33999390D01*
X27447039Y-34307849D01*
X27458685Y-34726629D01*
X27463089Y-34887885D01*
X27471055Y-35403161D01*
X27464848Y-35840188D01*
X27442374Y-36240945D01*
X27401540Y-36647410D01*
X27340253Y-37101562D01*
X27327134Y-37208581D01*
X27331848Y-37368746D01*
X27388150Y-37520883D01*
X27511457Y-37720746D01*
X27726350Y-38042273D01*
X27601063Y-38274918D01*
X27566831Y-38331874D01*
X27435364Y-38515911D01*
X27253867Y-38743676D01*
X27050890Y-38978650D01*
X26974864Y-39063819D01*
X26754934Y-39318480D01*
X26553582Y-39562280D01*
X26406599Y-39752245D01*
X26187195Y-40054751D01*
X24614040Y-40130497D01*
X24206997Y-40149216D01*
X23705646Y-40168318D01*
X23303478Y-40177163D01*
X22980999Y-40175545D01*
X22718714Y-40163255D01*
X22497127Y-40140087D01*
X22296745Y-40105833D01*
X22147917Y-40075604D01*
X22147917Y-32555598D01*
X23404436Y-32555598D01*
X23438553Y-33024341D01*
X23559724Y-33460285D01*
X23763127Y-33826193D01*
X23873324Y-34020747D01*
X23885439Y-34216155D01*
X23882894Y-34355786D01*
X23983913Y-34580409D01*
X24117484Y-34761072D01*
X23953032Y-35251405D01*
X23873459Y-35527946D01*
X23803650Y-36068044D01*
X23859370Y-36587184D01*
X24041393Y-37101562D01*
X24159907Y-37334585D01*
X24285204Y-37552198D01*
X24385054Y-37696875D01*
X24524765Y-37862239D01*
X24526966Y-34339973D01*
X24527053Y-34150214D01*
X24526544Y-33365051D01*
X24524427Y-32702366D01*
X24520523Y-32154121D01*
X24514658Y-31712277D01*
X24506654Y-31368795D01*
X24496336Y-31115636D01*
X24483526Y-30944761D01*
X24468050Y-30848131D01*
X24449730Y-30817708D01*
X24411452Y-30826889D01*
X24278566Y-30916142D01*
X24107723Y-31078234D01*
X23922423Y-31285781D01*
X23746163Y-31511398D01*
X23602440Y-31727703D01*
X23514754Y-31907311D01*
X23462191Y-32091298D01*
X23404436Y-32555598D01*
X22147917Y-32555598D01*
X22147917Y-29592750D01*
X22147710Y-28472193D01*
X22146711Y-26988207D01*
X22144885Y-25630303D01*
X22142236Y-24399044D01*
X22139970Y-23677579D01*
X22702048Y-23677579D01*
X22767881Y-24007395D01*
X22896632Y-24328684D01*
X23071579Y-24587644D01*
X23176330Y-24712882D01*
X23229868Y-24829123D01*
X23206340Y-24930561D01*
X23200610Y-24941861D01*
X23150179Y-25148828D01*
X23147785Y-25418142D01*
X23189749Y-25694580D01*
X23272396Y-25922916D01*
X23399142Y-26154427D01*
X23401915Y-24272831D01*
X23404688Y-22391236D01*
X23167534Y-22619185D01*
X22965620Y-22838022D01*
X22801835Y-23108408D01*
X22709512Y-23422619D01*
X22702048Y-23677579D01*
X22139970Y-23677579D01*
X22138768Y-23294996D01*
X22134485Y-22318722D01*
X22133694Y-22187153D01*
X28173130Y-22187153D01*
X28215744Y-22795671D01*
X28377005Y-23386874D01*
X28651498Y-23940317D01*
X29033806Y-24435558D01*
X29078291Y-24482813D01*
X29231665Y-24657104D01*
X29315562Y-24792422D01*
X29350704Y-24932645D01*
X29357812Y-25121656D01*
X29395627Y-25445407D01*
X29541569Y-25802910D01*
X29780656Y-26090332D01*
X30095212Y-26292997D01*
X30467563Y-26396233D01*
X30880033Y-26385367D01*
X31112409Y-26345711D01*
X31111791Y-26878454D01*
X31123212Y-27178183D01*
X31187352Y-27530846D01*
X31318704Y-27818660D01*
X31529419Y-28076483D01*
X31831461Y-28316787D01*
X32216652Y-28478265D01*
X32669542Y-28532631D01*
X33103927Y-28535677D01*
X32984063Y-28739020D01*
X32933710Y-28832728D01*
X32822000Y-29200112D01*
X32836129Y-29566319D01*
X32972755Y-29911192D01*
X33228540Y-30214573D01*
X33446556Y-30405993D01*
X33194965Y-30651666D01*
X33000388Y-30870721D01*
X32743086Y-31286187D01*
X32572528Y-31742501D01*
X32499540Y-32206937D01*
X32534949Y-32646767D01*
X32579653Y-32805832D01*
X32780903Y-33224820D01*
X33086846Y-33622621D01*
X33477736Y-33976417D01*
X33933829Y-34263390D01*
X34186458Y-34392272D01*
X34186458Y-27561844D01*
X41991667Y-27561844D01*
X41992208Y-27653781D01*
X42006600Y-27887757D01*
X42055362Y-28049346D01*
X42158052Y-28151856D01*
X42334229Y-28208599D01*
X42603451Y-28232883D01*
X42985278Y-28238020D01*
X43112432Y-28237849D01*
X43143724Y-28237472D01*
X43410903Y-28234255D01*
X43609100Y-28223259D01*
X43730961Y-28201281D01*
X43800422Y-28164747D01*
X43841423Y-28110077D01*
X43870463Y-28017713D01*
X43898897Y-27818878D01*
X43909896Y-27580911D01*
X43899806Y-27324027D01*
X43855997Y-27140460D01*
X43758829Y-27021418D01*
X43588662Y-26953266D01*
X43325859Y-26922372D01*
X42950781Y-26915104D01*
X42595348Y-26921564D01*
X42325841Y-26950949D01*
X42150288Y-27016475D01*
X42049119Y-27131336D01*
X42002769Y-27308728D01*
X41991667Y-27561844D01*
X34186458Y-27561844D01*
X34186458Y-25645880D01*
X42025284Y-25645880D01*
X42080883Y-25809961D01*
X42097887Y-25849106D01*
X42219386Y-26047059D01*
X42385756Y-26171148D01*
X42624834Y-26235351D01*
X42950781Y-26252908D01*
X42964456Y-26253645D01*
X42982337Y-26253634D01*
X43236242Y-26247647D01*
X43402910Y-26222911D01*
X43524815Y-26168064D01*
X43644433Y-26071744D01*
X43663510Y-26053889D01*
X43837738Y-25810832D01*
X43886202Y-25552205D01*
X43809651Y-25298987D01*
X43608830Y-25072156D01*
X43584534Y-25053758D01*
X43444219Y-24978751D01*
X43261281Y-24941422D01*
X42991470Y-24931704D01*
X42654756Y-24950763D01*
X42408147Y-25016511D01*
X42234037Y-25141820D01*
X42104407Y-25339571D01*
X42103171Y-25342095D01*
X42031512Y-25513947D01*
X42025284Y-25645880D01*
X34186458Y-25645880D01*
X34186458Y-23505632D01*
X42042954Y-23505632D01*
X42056712Y-23761943D01*
X42174807Y-23995237D01*
X42393382Y-24172555D01*
X42625760Y-24246961D01*
X42920006Y-24272367D01*
X42991470Y-24266788D01*
X43223607Y-24248667D01*
X43491214Y-24179532D01*
X43677482Y-24068631D01*
X43827420Y-23852101D01*
X43880549Y-23579846D01*
X43807828Y-23302413D01*
X43687873Y-23131692D01*
X43516936Y-23021743D01*
X43269578Y-22963455D01*
X42919671Y-22946354D01*
X42738169Y-22949170D01*
X42539140Y-22969670D01*
X42397794Y-23019819D01*
X42269175Y-23110993D01*
X42137387Y-23259258D01*
X42042954Y-23505632D01*
X34186458Y-23505632D01*
X34186458Y-21540813D01*
X42038128Y-21540813D01*
X42085018Y-21830585D01*
X42116655Y-21905520D01*
X42279371Y-22091245D01*
X42519590Y-22216597D01*
X42806542Y-22280398D01*
X42919671Y-22280798D01*
X43109457Y-22281469D01*
X43397565Y-22218631D01*
X43640098Y-22090706D01*
X43806284Y-21896516D01*
X43881608Y-21716310D01*
X43894828Y-21505464D01*
X43806788Y-21277834D01*
X43761070Y-21201638D01*
X43649020Y-21081092D01*
X43492677Y-21007943D01*
X43263032Y-20971726D01*
X42931077Y-20961979D01*
X42842384Y-20962230D01*
X42602015Y-20969587D01*
X42446177Y-20993852D01*
X42337746Y-21043988D01*
X42239599Y-21128961D01*
X42108671Y-21296053D01*
X42038128Y-21540813D01*
X34186458Y-21540813D01*
X34186458Y-19516916D01*
X42043762Y-19516916D01*
X42080251Y-19797891D01*
X42228938Y-20041950D01*
X42282305Y-20095830D01*
X42379836Y-20171974D01*
X42495726Y-20213544D01*
X42667937Y-20230893D01*
X42931077Y-20234331D01*
X42934432Y-20234375D01*
X43118211Y-20232047D01*
X43393382Y-20209874D01*
X43581063Y-20155247D01*
X43710263Y-20057250D01*
X43809992Y-19904969D01*
X43880059Y-19738762D01*
X43895397Y-19524535D01*
X43806352Y-19292628D01*
X43631698Y-19090401D01*
X43352227Y-18956901D01*
X42985014Y-18911458D01*
X42849424Y-18916562D01*
X42527745Y-18974353D01*
X42275742Y-19087465D01*
X42122668Y-19244598D01*
X42043762Y-19516916D01*
X34186458Y-19516916D01*
X34186458Y-15932375D01*
X34004557Y-15975600D01*
X33837944Y-16026271D01*
X33488390Y-16182380D01*
X33128317Y-16395901D01*
X32807352Y-16639318D01*
X32585007Y-16867189D01*
X32304572Y-17277608D01*
X32107806Y-17732334D01*
X32016039Y-18189578D01*
X32014664Y-18208107D01*
X31987230Y-18434479D01*
X31941657Y-18560239D01*
X31867621Y-18614986D01*
X31828026Y-18633631D01*
X31693145Y-18735388D01*
X31544699Y-18883851D01*
X31463459Y-18984281D01*
X31367747Y-19173388D01*
X31342187Y-19402116D01*
X31342187Y-19689734D01*
X31061068Y-19591488D01*
X30799954Y-19534934D01*
X30415433Y-19528225D01*
X30008251Y-19587791D01*
X29626723Y-19709653D01*
X29380720Y-19843684D01*
X29023150Y-20145364D01*
X28707350Y-20542646D01*
X28449519Y-21013777D01*
X28265855Y-21537004D01*
X28254581Y-21581764D01*
X28173130Y-22187153D01*
X22133694Y-22187153D01*
X22129389Y-21470786D01*
X22123485Y-20751755D01*
X22116776Y-20162190D01*
X22109266Y-19702658D01*
X22100957Y-19373722D01*
X22091855Y-19175946D01*
X22081961Y-19109895D01*
X22067408Y-19111262D01*
X21941122Y-19178533D01*
X21775358Y-19327212D01*
X21595039Y-19529717D01*
X21425086Y-19758468D01*
X21290421Y-19985885D01*
X21167370Y-20266156D01*
X21106039Y-20516837D01*
X21089583Y-20809304D01*
X21098768Y-21007899D01*
X21134804Y-21270690D01*
X21188802Y-21468275D01*
X21248095Y-21616783D01*
X21280176Y-21744982D01*
X21250892Y-21812716D01*
X21157448Y-21854402D01*
X21061945Y-21905327D01*
X20907079Y-22069244D01*
X20789325Y-22288505D01*
X20739242Y-22514849D01*
X20732893Y-22738826D01*
X20500845Y-22535086D01*
X20453825Y-22495369D01*
X20070345Y-22248757D01*
X19605784Y-22056326D01*
X19100882Y-21935524D01*
X18529995Y-21907205D01*
X17978639Y-21996950D01*
X17468541Y-22194420D01*
X17011913Y-22487787D01*
X16620970Y-22865222D01*
X16307924Y-23314897D01*
X16084988Y-23824985D01*
X15964376Y-24383655D01*
X15958301Y-24979081D01*
X15976677Y-25219492D01*
X15975782Y-25370624D01*
X15950798Y-25441971D01*
X15898441Y-25459895D01*
X15838756Y-25467580D01*
X15645430Y-25531313D01*
X15393178Y-25645169D01*
X15116032Y-25791714D01*
X14848027Y-25953515D01*
X14623196Y-26113138D01*
X14518625Y-26200037D01*
X14083192Y-26645812D01*
X13705930Y-27167528D01*
X13410170Y-27728946D01*
X13219245Y-28293824D01*
X13183937Y-28484321D01*
X13148456Y-28862436D01*
X13142451Y-29269585D01*
X6720457Y-29269585D01*
X6724821Y-28888707D01*
X6728665Y-28373060D01*
X6731570Y-27761417D01*
X6733642Y-27046518D01*
X6734989Y-26221105D01*
X6735718Y-25277918D01*
X6735937Y-24209699D01*
X6735937Y-19926254D01*
X7826803Y-19926254D01*
X7845681Y-20310478D01*
X7976172Y-20682896D01*
X8018402Y-20769435D01*
X8094748Y-20968151D01*
X8125000Y-21116151D01*
X8137496Y-21217337D01*
X8189230Y-21330480D01*
X8201129Y-21348077D01*
X8208031Y-21486139D01*
X8151524Y-21724047D01*
X8080788Y-22136407D01*
X8125056Y-22576631D01*
X8153756Y-22647535D01*
X8290839Y-22986203D01*
X8355127Y-23092322D01*
X8443951Y-23225167D01*
X8491590Y-23277083D01*
X8496616Y-23246703D01*
X8503448Y-23101164D01*
X8509514Y-22849291D01*
X8514603Y-22506471D01*
X8518501Y-22088092D01*
X8520255Y-21751739D01*
X12476696Y-21751739D01*
X12485882Y-22148714D01*
X12618349Y-22536005D01*
X12873693Y-22895501D01*
X12970476Y-23011678D01*
X13004477Y-23118455D01*
X12964830Y-23245879D01*
X12907959Y-23461027D01*
X12901635Y-23729814D01*
X12943736Y-23998746D01*
X13027292Y-24224640D01*
X13050229Y-24251781D01*
X13145334Y-24364318D01*
X13148489Y-24365621D01*
X13171051Y-24325724D01*
X13188837Y-24190931D01*
X13202147Y-23953772D01*
X13211282Y-23606774D01*
X13216543Y-23142468D01*
X13218229Y-22553382D01*
X13216388Y-22066267D01*
X13210660Y-21609907D01*
X13201482Y-21231178D01*
X13189300Y-20943741D01*
X13174559Y-20761259D01*
X13157705Y-20697395D01*
X13101743Y-20729989D01*
X12981392Y-20839440D01*
X12831424Y-20999311D01*
X12829778Y-21001183D01*
X12591193Y-21363192D01*
X12476696Y-21751739D01*
X8520255Y-21751739D01*
X8520996Y-21609540D01*
X8521875Y-21086202D01*
X8521875Y-18895322D01*
X8373047Y-18992981D01*
X8317590Y-19036604D01*
X8173420Y-19184261D01*
X8028059Y-19367308D01*
X7918209Y-19563913D01*
X7826803Y-19926254D01*
X6735937Y-19926254D01*
X6735937Y-17916221D01*
X6571738Y-18023808D01*
X6452516Y-18122481D01*
X6260893Y-18382156D01*
X6121329Y-18705024D01*
X6050112Y-19048001D01*
X6063532Y-19368003D01*
X6081155Y-19499234D01*
X6047248Y-19632671D01*
X5927038Y-19776327D01*
X5896786Y-19808033D01*
X5787813Y-19952803D01*
X5743750Y-20065620D01*
X5732281Y-20130146D01*
X5674784Y-20130017D01*
X5536791Y-20064603D01*
X5218503Y-19963109D01*
X4866544Y-19970908D01*
X4528972Y-20090970D01*
X4236846Y-20317256D01*
X4085932Y-20478853D01*
X3779151Y-20323541D01*
X3745267Y-20307085D01*
X3368136Y-20193254D01*
X2954643Y-20170806D01*
X2562084Y-20243509D01*
X2492649Y-20268920D01*
X2143333Y-20473438D01*
X1869012Y-20766077D01*
X1679217Y-21123255D01*
X1583480Y-21521388D01*
X-10937Y-21521388D01*
X-10937Y-12892187D01*
X2505546Y-12892187D01*
X2505703Y-13547749D01*
X2506502Y-14241769D01*
X2508266Y-14822668D01*
X2511311Y-15301017D01*
X2515954Y-15687386D01*
X2522513Y-15992344D01*
X2531304Y-16226460D01*
X2542644Y-16400305D01*
X2556849Y-16524449D01*
X2574238Y-16609460D01*
X2595126Y-16665910D01*
X2619830Y-16704367D01*
X2722654Y-16808420D01*
X2878594Y-16919341D01*
X2878977Y-16919531D01*
X2943733Y-16930452D01*
X3093032Y-16940394D01*
X3330549Y-16949384D01*
X3659955Y-16957448D01*
X4084924Y-16964615D01*
X4609128Y-16970912D01*
X5236240Y-16976365D01*
X5969933Y-16981003D01*
X6735937Y-16984497D01*
X6813879Y-16984853D01*
X7771752Y-16987941D01*
X8521875Y-16989583D01*
X8847224Y-16990295D01*
X10043968Y-16991943D01*
X10685629Y-16992413D01*
X11365656Y-16992912D01*
X12815962Y-16993229D01*
X22608850Y-16993229D01*
X22824868Y-16800250D01*
X23040885Y-16607271D01*
X23058108Y-12980328D01*
X23059497Y-12684944D01*
X23062710Y-11944065D01*
X23064682Y-11320644D01*
X23065095Y-10803752D01*
X23063628Y-10382463D01*
X23059962Y-10045851D01*
X23053778Y-9782987D01*
X23044756Y-9582946D01*
X23032576Y-9434800D01*
X23016919Y-9327623D01*
X22997466Y-9250487D01*
X22973897Y-9192466D01*
X22945892Y-9142633D01*
X22933799Y-9123514D01*
X22808086Y-8964838D01*
X22684971Y-8861513D01*
X22660418Y-8849426D01*
X22428742Y-8796238D01*
X22173155Y-8812288D01*
X21963819Y-8894379D01*
X21889861Y-8948054D01*
X21822903Y-9007988D01*
X21767990Y-9081667D01*
X21723928Y-9180947D01*
X21689523Y-9317681D01*
X21663580Y-9503724D01*
X21644905Y-9750931D01*
X21632304Y-10071156D01*
X21624583Y-10476255D01*
X21620546Y-10978081D01*
X21619000Y-11588489D01*
X21618750Y-12319335D01*
X21618539Y-12989370D01*
X21617551Y-13576512D01*
X21615291Y-14054902D01*
X21611268Y-14436606D01*
X21604987Y-14733691D01*
X21595957Y-14958223D01*
X21583684Y-15122270D01*
X21567676Y-15237898D01*
X21547439Y-15317174D01*
X21522481Y-15372165D01*
X21492309Y-15414937D01*
X21365868Y-15571093D01*
X12876814Y-15588574D01*
X11811769Y-15590568D01*
X10595084Y-15592237D01*
X9501770Y-15592960D01*
X8526869Y-15592702D01*
X7665425Y-15591429D01*
X6912484Y-15589106D01*
X6263088Y-15585700D01*
X5712282Y-15581175D01*
X5255109Y-15575499D01*
X4886615Y-15568636D01*
X4601842Y-15560552D01*
X4395835Y-15551214D01*
X4263638Y-15540586D01*
X4200295Y-15528635D01*
X4056411Y-15433083D01*
X3952248Y-15291874D01*
X3943350Y-15236724D01*
X3931297Y-15054924D01*
X3920339Y-14764872D01*
X3910754Y-14380738D01*
X3902818Y-13916689D01*
X3896807Y-13386893D01*
X3892998Y-12805519D01*
X3891667Y-12186735D01*
X3891667Y-9240937D01*
X3666771Y-9016041D01*
X3648966Y-8998685D01*
X3392659Y-8832088D01*
X3121593Y-8790971D01*
X2856930Y-8874041D01*
X2619830Y-9080007D01*
X2599428Y-9110255D01*
X2577853Y-9162553D01*
X2559837Y-9241444D01*
X2545063Y-9357499D01*
X2533213Y-9521287D01*
X2523972Y-9743377D01*
X2517021Y-10034341D01*
X2512045Y-10404746D01*
X2508726Y-10865164D01*
X2506748Y-11426163D01*
X2505794Y-12098315D01*
X2505546Y-12892187D01*
X-10937Y-12892187D01*
X-10937Y-5363227D01*
X3957799Y-5363227D01*
X3999559Y-5633721D01*
X4093113Y-5836457D01*
X4211302Y-5943362D01*
X4409831Y-6050396D01*
X4617102Y-6111309D01*
X4779423Y-6105087D01*
X4885915Y-6079656D01*
X5055608Y-6058373D01*
X5119101Y-6051038D01*
X5228059Y-5995706D01*
X5269364Y-5855061D01*
X5270338Y-5720628D01*
X5223432Y-5597890D01*
X5138043Y-5574036D01*
X5034844Y-5665755D01*
X5015868Y-5691724D01*
X4886282Y-5787210D01*
X4681099Y-5814583D01*
X4604956Y-5810598D01*
X4391906Y-5732693D01*
X4264644Y-5554605D01*
X4222396Y-5275423D01*
X4227349Y-5176405D01*
X4296630Y-4967582D01*
X4453370Y-4856197D01*
X4704943Y-4835526D01*
X4757031Y-4840599D01*
X4926290Y-4881507D01*
X4996975Y-4939473D01*
X4959727Y-4996072D01*
X4805187Y-5032879D01*
X4647950Y-5071332D01*
X4586198Y-5153125D01*
X4610403Y-5206003D01*
X4721603Y-5249129D01*
X4942908Y-5272664D01*
X5107221Y-5277333D01*
X5299426Y-5255784D01*
X5376177Y-5193331D01*
X5345134Y-5086426D01*
X5310185Y-5006375D01*
X5281742Y-4841259D01*
X5281391Y-4829489D01*
X5225288Y-4706640D01*
X5623740Y-4706640D01*
X5626237Y-4770321D01*
X5689627Y-4822395D01*
X5722414Y-4835158D01*
X5784195Y-4912514D01*
X5865074Y-5072608D01*
X5972016Y-5329894D01*
X6111986Y-5698828D01*
X6115703Y-5788689D01*
X6015410Y-5814583D01*
X5921524Y-5837506D01*
X5876042Y-5946875D01*
X5878975Y-5988421D01*
X5916404Y-6046772D01*
X6022393Y-6073052D01*
X6228679Y-6079166D01*
X6581317Y-6079166D01*
X6645077Y-5918072D01*
X7429103Y-5918072D01*
X7438267Y-6010564D01*
X7563264Y-6062182D01*
X7796680Y-6066872D01*
X7821327Y-6064760D01*
X8000936Y-6025546D01*
X8103114Y-5962237D01*
X8110846Y-5893379D01*
X8007118Y-5837517D01*
X7981545Y-5830532D01*
X7926620Y-5802358D01*
X7917092Y-5742869D01*
X7955598Y-5622144D01*
X8044775Y-5410263D01*
X8134837Y-5221796D01*
X8212142Y-5097341D01*
X8257731Y-5068766D01*
X8287479Y-5119653D01*
X8356844Y-5267735D01*
X8440950Y-5467317D01*
X8470162Y-5541171D01*
X8527559Y-5709886D01*
X8531481Y-5792614D01*
X8485136Y-5814583D01*
X8428420Y-5841294D01*
X8389583Y-5950499D01*
X8390659Y-5981518D01*
X8418584Y-6047869D01*
X8509938Y-6071883D01*
X8698605Y-6066254D01*
X8893493Y-6033907D01*
X9017190Y-5975703D01*
X9037975Y-5930338D01*
X9328078Y-5930338D01*
X9339468Y-5963832D01*
X9390239Y-6007389D01*
X9500875Y-6035546D01*
X9695518Y-6053156D01*
X9998309Y-6065072D01*
X10646387Y-6084051D01*
X10625928Y-5800489D01*
X10620197Y-5746538D01*
X10572801Y-5585656D01*
X10502605Y-5509951D01*
X10432630Y-5532343D01*
X10385894Y-5665755D01*
X10384008Y-5678094D01*
X10348906Y-5765801D01*
X10257344Y-5805357D01*
X10071702Y-5814583D01*
X9999056Y-5814058D01*
X9852818Y-5800083D01*
X9791242Y-5751848D01*
X9778646Y-5649218D01*
X9798065Y-5541354D01*
X9877865Y-5483854D01*
X9923508Y-5491316D01*
X9977083Y-5550000D01*
X10001890Y-5588445D01*
X10109375Y-5616145D01*
X10118879Y-5616032D01*
X10197069Y-5592460D01*
X10233011Y-5504501D01*
X10241667Y-5318489D01*
X10238628Y-5208901D01*
X10210101Y-5064560D01*
X10146352Y-5020833D01*
X10105861Y-5026116D01*
X10010156Y-5086979D01*
X10004598Y-5095514D01*
X9909444Y-5156962D01*
X9818939Y-5114535D01*
X9778646Y-4987760D01*
X9779469Y-4948858D01*
X9803649Y-4865009D01*
X9888264Y-4829651D01*
X10069131Y-4822395D01*
X10097760Y-4822493D01*
X10270511Y-4835109D01*
X10357862Y-4883340D01*
X10401121Y-4987760D01*
X10407987Y-5011689D01*
X10485140Y-5128151D01*
X10583763Y-5143442D01*
X10664538Y-5048496D01*
X10691407Y-4927974D01*
X10694157Y-4890811D01*
X11240687Y-4890811D01*
X11280757Y-5028330D01*
X11373349Y-5056098D01*
X11504038Y-4963914D01*
X11595333Y-4893477D01*
X11765460Y-4834270D01*
X11938484Y-4829764D01*
X12072805Y-4878855D01*
X12126823Y-4980440D01*
X12111648Y-5042343D01*
X12017691Y-5118049D01*
X11816321Y-5184251D01*
X11628225Y-5239385D01*
X11430915Y-5336642D01*
X11328988Y-5465829D01*
X11300000Y-5647066D01*
X11303832Y-5725064D01*
X11364513Y-5908671D01*
X11509437Y-6025681D01*
X11752058Y-6083480D01*
X12105829Y-6089453D01*
X12158514Y-6086100D01*
X12317925Y-6044641D01*
X12391406Y-5946875D01*
X12414457Y-5798898D01*
X12380021Y-5652433D01*
X12298131Y-5570367D01*
X12193710Y-5574381D01*
X12091683Y-5686154D01*
X12057161Y-5732161D01*
X11928713Y-5800572D01*
X11777053Y-5808143D01*
X11650570Y-5758067D01*
X11597656Y-5653541D01*
X11616036Y-5583701D01*
X11712127Y-5510310D01*
X11914016Y-5444867D01*
X12015392Y-5416324D01*
X12207653Y-5347285D01*
X12327428Y-5283617D01*
X12331020Y-5280485D01*
X12397149Y-5157834D01*
X12424479Y-4981186D01*
X12419095Y-4910102D01*
X12329131Y-4713593D01*
X12293769Y-4690104D01*
X12953646Y-4690104D01*
X12966049Y-4766995D01*
X13019792Y-4822395D01*
X13041445Y-4842737D01*
X13068722Y-4960324D01*
X13082783Y-5149606D01*
X13083900Y-5372486D01*
X13072347Y-5590865D01*
X13048398Y-5766648D01*
X13012326Y-5861736D01*
X12984647Y-5894953D01*
X12976189Y-5989316D01*
X13079973Y-6054709D01*
X13281202Y-6079166D01*
X13337393Y-6076743D01*
X13496184Y-6037658D01*
X13586138Y-5968657D01*
X13588143Y-5892969D01*
X13483085Y-5833820D01*
X13400418Y-5786993D01*
X13350521Y-5641504D01*
X13350549Y-5634307D01*
X13368375Y-5536080D01*
X13444273Y-5493250D01*
X13615104Y-5483854D01*
X13778358Y-5492581D01*
X13860314Y-5533373D01*
X13879687Y-5625390D01*
X13860786Y-5718517D01*
X13770363Y-5846866D01*
X13711767Y-5904672D01*
X13707992Y-5992704D01*
X13814072Y-6055323D01*
X14015883Y-6079166D01*
X14163124Y-6072046D01*
X14253998Y-6033927D01*
X14276562Y-5946875D01*
X14264159Y-5869983D01*
X14210417Y-5814583D01*
X14207315Y-5814119D01*
X14174696Y-5742688D01*
X14152478Y-5568458D01*
X14144271Y-5318489D01*
X14146544Y-5128050D01*
X14160434Y-4942293D01*
X14191154Y-4848382D01*
X14243490Y-4822395D01*
X14304875Y-4800183D01*
X14343130Y-4707849D01*
X14336431Y-4691908D01*
X14619302Y-4691908D01*
X14690301Y-4785649D01*
X14744252Y-4853924D01*
X14835971Y-5016558D01*
X14939604Y-5228978D01*
X15036599Y-5450673D01*
X15108401Y-5641131D01*
X15136458Y-5759841D01*
X15111721Y-5791618D01*
X15004167Y-5814583D01*
X14918647Y-5836324D01*
X14871875Y-5946875D01*
X14875154Y-5990312D01*
X14913617Y-6047483D01*
X15020947Y-6073197D01*
X15228735Y-6079166D01*
X15585595Y-6079166D01*
X15672788Y-5860980D01*
X18264612Y-5860980D01*
X18266671Y-5973272D01*
X18283480Y-6002983D01*
X18392499Y-6061286D01*
X18607039Y-6079166D01*
X18632023Y-6079098D01*
X18807056Y-6068455D01*
X18887441Y-6029323D01*
X18906771Y-5946875D01*
X18885029Y-5861355D01*
X18774479Y-5814583D01*
X18711129Y-5807740D01*
X18655903Y-5757186D01*
X18649667Y-5634073D01*
X18686485Y-5411192D01*
X18730783Y-5189702D01*
X18808142Y-5419460D01*
X18909709Y-5600233D01*
X19038320Y-5661578D01*
X19168610Y-5600706D01*
X19276176Y-5417708D01*
X19295743Y-5366826D01*
X19343313Y-5277466D01*
X19364759Y-5293684D01*
X19379876Y-5426361D01*
X19411133Y-5607877D01*
X19428137Y-5718617D01*
X19405867Y-5796998D01*
X19311914Y-5814583D01*
X19217753Y-5837008D01*
X19171354Y-5944683D01*
X19171493Y-5955643D01*
X19184037Y-6010514D01*
X19233806Y-6044342D01*
X19344546Y-6061214D01*
X19540002Y-6065217D01*
X19843921Y-6060438D01*
X20077741Y-6053080D01*
X20336040Y-6033917D01*
X20486959Y-6003289D01*
X20545421Y-5959041D01*
X20533529Y-5897597D01*
X20435094Y-5835571D01*
X20343440Y-5784331D01*
X20295833Y-5636473D01*
X20295833Y-5473792D01*
X20490611Y-5627651D01*
X20510755Y-5644318D01*
X20636261Y-5790329D01*
X20689049Y-5930338D01*
X20707188Y-6023176D01*
X20783020Y-6068641D01*
X20953388Y-6079166D01*
X21113474Y-6067252D01*
X21243390Y-6013019D01*
X21253300Y-5922203D01*
X21137868Y-5802798D01*
X20987621Y-5690298D01*
X20818443Y-5557991D01*
X20669343Y-5437257D01*
X20812561Y-5283530D01*
X20888564Y-5186197D01*
X21988530Y-5186197D01*
X21988587Y-5199029D01*
X22014659Y-5473689D01*
X22080033Y-5733069D01*
X22172687Y-5954096D01*
X22280595Y-6113697D01*
X22391736Y-6188800D01*
X22494084Y-6156332D01*
X22515231Y-6117719D01*
X22504767Y-5982888D01*
X22479228Y-5912813D01*
X22768682Y-5912813D01*
X22774561Y-5998089D01*
X22891505Y-6057111D01*
X23107031Y-6079166D01*
X23266195Y-6068477D01*
X23404688Y-6022913D01*
X23414808Y-6019583D01*
X23454564Y-5940382D01*
X23373926Y-5841167D01*
X23372889Y-5840407D01*
X23311801Y-5784616D01*
X23295583Y-5714533D01*
X23326979Y-5594534D01*
X23408729Y-5388992D01*
X23482588Y-5224382D01*
X23554634Y-5094183D01*
X23595950Y-5057755D01*
X23623459Y-5102868D01*
X23691555Y-5242882D01*
X23777477Y-5437282D01*
X23806888Y-5507679D01*
X23868642Y-5679295D01*
X23874904Y-5768609D01*
X23829561Y-5802896D01*
X23776253Y-5838198D01*
X23735417Y-5955349D01*
X23736465Y-5983685D01*
X23765151Y-6048181D01*
X23858202Y-6071767D01*
X24049014Y-6066254D01*
X24196246Y-6051282D01*
X24332831Y-6008067D01*
X24378323Y-5939754D01*
X24534766Y-5939754D01*
X24600032Y-6018176D01*
X24771375Y-6099829D01*
X25041797Y-6175213D01*
X25256771Y-6221969D01*
X25256771Y-5411818D01*
X27570479Y-5411818D01*
X27611237Y-5701435D01*
X27723338Y-5953629D01*
X27822413Y-6081815D01*
X27948136Y-6159961D01*
X28134115Y-6178385D01*
X28289422Y-6167385D01*
X28422258Y-6104062D01*
X28544891Y-5953629D01*
X28561219Y-5928648D01*
X28664919Y-5689170D01*
X28694848Y-5391390D01*
X28669472Y-5111688D01*
X28572917Y-4826179D01*
X28414692Y-4632944D01*
X28205880Y-4544294D01*
X27957565Y-4572536D01*
X27818522Y-4658880D01*
X27679895Y-4856496D01*
X27595290Y-5118823D01*
X27570479Y-5411818D01*
X25256771Y-5411818D01*
X25256771Y-4822395D01*
X25455208Y-4822395D01*
X25597623Y-4800790D01*
X25653646Y-4721101D01*
X25652302Y-4697692D01*
X26447396Y-4697692D01*
X26492944Y-4822623D01*
X26608528Y-4873404D01*
X26745894Y-4821696D01*
X26807847Y-4760550D01*
X26832911Y-4658295D01*
X26728516Y-4569077D01*
X26617347Y-4532940D01*
X26494378Y-4567609D01*
X26447396Y-4697692D01*
X25652302Y-4697692D01*
X25652143Y-4694918D01*
X25614882Y-4621269D01*
X25511322Y-4579493D01*
X25319811Y-4564475D01*
X25018698Y-4571099D01*
X24917595Y-4576240D01*
X24705062Y-4597681D01*
X24594167Y-4633460D01*
X24562240Y-4689454D01*
X24614003Y-4767394D01*
X24760677Y-4822192D01*
X24827893Y-4834991D01*
X24904002Y-4867664D01*
X24945748Y-4940863D01*
X24966208Y-5085146D01*
X24978460Y-5331072D01*
X24997806Y-5805782D01*
X24785117Y-5826719D01*
X24750454Y-5830605D01*
X24582574Y-5874063D01*
X24534766Y-5939754D01*
X24378323Y-5939754D01*
X24384594Y-5930338D01*
X24382156Y-5866664D01*
X24319043Y-5814544D01*
X24281410Y-5786229D01*
X24197190Y-5657560D01*
X24090114Y-5447950D01*
X23974049Y-5182792D01*
X23932793Y-5082829D01*
X23795647Y-4782284D01*
X23680690Y-4608371D01*
X23575547Y-4561003D01*
X23467839Y-4640091D01*
X23345189Y-4845550D01*
X23195219Y-5177292D01*
X23132092Y-5320563D01*
X23013001Y-5565415D01*
X22908086Y-5750930D01*
X22834549Y-5845252D01*
X22768682Y-5912813D01*
X22479228Y-5912813D01*
X22422175Y-5756266D01*
X22308191Y-5390525D01*
X22299778Y-5011642D01*
X22413953Y-4633271D01*
X22486396Y-4467856D01*
X22534522Y-4324980D01*
X22531011Y-4256659D01*
X29188460Y-4256659D01*
X29218588Y-4386568D01*
X29293890Y-4562169D01*
X29381387Y-4791147D01*
X29433408Y-5186197D01*
X29410536Y-5450875D01*
X29293890Y-5810225D01*
X29253832Y-5895289D01*
X29197980Y-6055319D01*
X29193850Y-6147581D01*
X29224173Y-6185561D01*
X29324704Y-6204118D01*
X29445857Y-6097166D01*
X29583406Y-5867741D01*
X29698397Y-5578969D01*
X29754687Y-5186197D01*
X29743920Y-5024515D01*
X29690939Y-4773461D01*
X29605238Y-4539962D01*
X29499749Y-4346183D01*
X29387401Y-4214288D01*
X29281124Y-4166444D01*
X29193850Y-4224814D01*
X29188460Y-4256659D01*
X22531011Y-4256659D01*
X22530376Y-4244304D01*
X22478646Y-4194010D01*
X22401448Y-4179275D01*
X22285648Y-4252942D01*
X22174138Y-4415407D01*
X22079235Y-4641730D01*
X22013259Y-4906973D01*
X21988530Y-5186197D01*
X20888564Y-5186197D01*
X20922189Y-5143135D01*
X20995268Y-5005383D01*
X21056809Y-4912578D01*
X21194462Y-4820243D01*
X21322960Y-4745146D01*
X21353839Y-4656577D01*
X21272593Y-4586380D01*
X21088605Y-4557812D01*
X20985318Y-4572541D01*
X20885818Y-4651164D01*
X20790115Y-4826414D01*
X20680309Y-5023337D01*
X20532164Y-5161775D01*
X20378516Y-5171747D01*
X20320489Y-5125819D01*
X20293488Y-5006326D01*
X20334635Y-4878906D01*
X20435094Y-4801407D01*
X20499142Y-4779750D01*
X20563789Y-4719503D01*
X20522663Y-4657996D01*
X20392993Y-4610149D01*
X20192008Y-4590885D01*
X20002831Y-4599156D01*
X19888600Y-4634185D01*
X19845405Y-4706640D01*
X19848141Y-4773197D01*
X19927181Y-4822395D01*
X19971303Y-4835186D01*
X20008180Y-4903586D01*
X20026376Y-5053731D01*
X20031250Y-5310774D01*
X20031213Y-5346127D01*
X20026199Y-5587140D01*
X20007490Y-5728996D01*
X19967595Y-5801318D01*
X19899024Y-5833731D01*
X19855929Y-5844161D01*
X19781513Y-5844996D01*
X19735432Y-5791328D01*
X19703680Y-5657463D01*
X19672253Y-5417708D01*
X19664972Y-5356732D01*
X19624115Y-5025274D01*
X19590979Y-4801088D01*
X19559063Y-4663211D01*
X19521868Y-4590681D01*
X19472896Y-4562535D01*
X19405647Y-4557812D01*
X19310574Y-4578258D01*
X19236881Y-4666951D01*
X19171354Y-4855468D01*
X19142557Y-4949358D01*
X19084049Y-5095519D01*
X19039063Y-5153125D01*
X19019348Y-5137862D01*
X18965373Y-5030938D01*
X18906771Y-4855468D01*
X18848048Y-4681658D01*
X18776041Y-4583576D01*
X18674025Y-4557812D01*
X18620397Y-4561607D01*
X18561688Y-4590416D01*
X18517727Y-4665869D01*
X18481602Y-4809220D01*
X18446405Y-5041724D01*
X18405226Y-5384635D01*
X18377988Y-5565519D01*
X18335492Y-5740241D01*
X18292871Y-5824444D01*
X18264612Y-5860980D01*
X15672788Y-5860980D01*
X15830107Y-5467317D01*
X15899723Y-5299855D01*
X16010296Y-5059372D01*
X16104649Y-4883765D01*
X16167778Y-4802572D01*
X16168823Y-4801977D01*
X16267508Y-4711583D01*
X16246272Y-4633456D01*
X16117403Y-4578548D01*
X15893188Y-4557812D01*
X15852006Y-4558329D01*
X15659634Y-4586886D01*
X15573210Y-4663152D01*
X15568692Y-4736667D01*
X15664608Y-4802964D01*
X15675596Y-4805952D01*
X15766694Y-4853592D01*
X15745044Y-4902009D01*
X15628299Y-4939581D01*
X15434115Y-4954687D01*
X15418463Y-4954605D01*
X15229096Y-4937559D01*
X15118397Y-4898856D01*
X15104021Y-4850118D01*
X15203621Y-4802964D01*
X15281968Y-4763543D01*
X15295019Y-4663152D01*
X15284685Y-4642679D01*
X15180095Y-4578008D01*
X14967921Y-4557812D01*
X14817397Y-4567818D01*
X14666369Y-4615440D01*
X14619302Y-4691908D01*
X14336431Y-4691908D01*
X14298611Y-4601909D01*
X14272363Y-4585400D01*
X14138854Y-4560130D01*
X13961409Y-4561919D01*
X13798380Y-4587596D01*
X13708121Y-4633992D01*
X13701458Y-4694105D01*
X13770363Y-4790113D01*
X13831620Y-4859376D01*
X13879687Y-5011588D01*
X13863373Y-5098919D01*
X13787118Y-5142761D01*
X13615104Y-5153125D01*
X13603027Y-5153108D01*
X13438172Y-5142486D01*
X13366290Y-5097263D01*
X13350521Y-4995475D01*
X13371718Y-4891621D01*
X13483085Y-4803158D01*
X13562161Y-4763450D01*
X13575227Y-4663152D01*
X13563196Y-4640105D01*
X13457255Y-4577327D01*
X13244225Y-4557812D01*
X13235279Y-4557821D01*
X13056215Y-4567705D01*
X12973638Y-4606654D01*
X12953646Y-4690104D01*
X12293769Y-4690104D01*
X12143119Y-4590034D01*
X11880291Y-4554505D01*
X11774935Y-4559359D01*
X11525300Y-4573548D01*
X11373478Y-4593536D01*
X11293503Y-4628578D01*
X11259407Y-4687929D01*
X11245219Y-4780844D01*
X11240687Y-4890811D01*
X10694157Y-4890811D01*
X10704688Y-4748526D01*
X10704688Y-4553184D01*
X10027468Y-4572034D01*
X9798057Y-4579699D01*
X9566094Y-4594306D01*
X9426221Y-4617295D01*
X9354773Y-4653222D01*
X9328087Y-4706640D01*
X9330905Y-4773143D01*
X9409994Y-4822395D01*
X9455592Y-4836427D01*
X9491576Y-4906758D01*
X9509316Y-5059104D01*
X9514063Y-5318489D01*
X9511119Y-5535858D01*
X9496365Y-5707388D01*
X9464407Y-5791955D01*
X9409994Y-5814583D01*
X9353519Y-5831879D01*
X9328078Y-5930338D01*
X9037975Y-5930338D01*
X9048463Y-5907447D01*
X8968239Y-5844802D01*
X8930335Y-5807650D01*
X8844450Y-5667066D01*
X8736642Y-5449578D01*
X8621646Y-5183309D01*
X8573618Y-5065814D01*
X8462699Y-4812963D01*
X8377037Y-4657693D01*
X8303859Y-4579598D01*
X8230393Y-4558275D01*
X8221361Y-4558551D01*
X8145565Y-4587334D01*
X8069484Y-4678353D01*
X7979523Y-4852781D01*
X7862084Y-5131790D01*
X7811475Y-5253522D01*
X7693427Y-5509188D01*
X7584093Y-5711967D01*
X7501954Y-5826224D01*
X7429103Y-5918072D01*
X6645077Y-5918072D01*
X6827805Y-5456394D01*
X6901781Y-5277944D01*
X7012112Y-5040680D01*
X7106318Y-4870918D01*
X7169699Y-4797012D01*
X7231066Y-4758614D01*
X7258136Y-4664104D01*
X7172841Y-4584401D01*
X7139938Y-4574342D01*
X6976139Y-4560203D01*
X6789072Y-4577957D01*
X6630498Y-4619802D01*
X6552181Y-4677937D01*
X6564039Y-4739145D01*
X6662079Y-4801213D01*
X6740175Y-4836436D01*
X6764363Y-4896061D01*
X6699086Y-4929934D01*
X6544791Y-4950853D01*
X6358791Y-4950515D01*
X6195055Y-4929539D01*
X6107552Y-4888541D01*
X6101329Y-4854462D01*
X6169794Y-4822395D01*
X6230760Y-4798447D01*
X6272917Y-4686479D01*
X6271614Y-4652837D01*
X6242607Y-4588193D01*
X6149741Y-4564968D01*
X5959319Y-4570724D01*
X5812088Y-4585696D01*
X5675502Y-4628911D01*
X5623740Y-4706640D01*
X5225288Y-4706640D01*
X5212497Y-4678631D01*
X5031213Y-4582227D01*
X4747543Y-4545813D01*
X4745147Y-4545782D01*
X4425910Y-4581755D01*
X4180392Y-4691053D01*
X4032539Y-4863051D01*
X3971279Y-5080360D01*
X3957799Y-5363227D01*
X-10937Y-5363227D01*
X-10937Y-3830208D01*
X1086794Y-3830208D01*
X1284908Y-3830398D01*
X1642740Y-3833056D01*
X1900730Y-3840790D01*
X2081298Y-3856040D01*
X2206865Y-3881249D01*
X2299852Y-3918857D01*
X2382680Y-3971306D01*
X2449835Y-4015222D01*
X2775603Y-4135884D01*
X3121593Y-4132384D01*
X3134703Y-4132251D01*
X3516525Y-4004018D01*
G37*
G36*
X37616995Y-12466134D02*
G01*
X37872974Y-12555487D01*
X38088028Y-12740531D01*
X38173476Y-12893852D01*
X38218399Y-13154350D01*
X38175187Y-13420296D01*
X38052602Y-13650895D01*
X37859400Y-13805351D01*
X37675540Y-13860200D01*
X37460677Y-13884374D01*
X37157104Y-13838138D01*
X36909844Y-13691533D01*
X36754133Y-13454165D01*
X36700000Y-13135903D01*
X36742661Y-12906450D01*
X36882924Y-12692630D01*
X37094028Y-12542665D01*
X37348032Y-12464513D01*
X37616995Y-12466134D01*
G37*
G36*
X21715055Y-24018123D02*
G01*
X21708977Y-24079697D01*
X21630858Y-24219661D01*
X21507997Y-24458603D01*
X21359066Y-24916845D01*
X21285305Y-25410522D01*
X21291859Y-25895691D01*
X21383875Y-26328411D01*
X21394603Y-26359308D01*
X21460570Y-26562472D01*
X21476794Y-26663390D01*
X21441306Y-26681076D01*
X21352132Y-26634544D01*
X21275549Y-26577822D01*
X21082924Y-26353178D01*
X20922685Y-26051862D01*
X20818233Y-25714211D01*
X20789598Y-25508746D01*
X20819122Y-25069332D01*
X20975603Y-24662803D01*
X21256526Y-24297284D01*
X21401544Y-24164014D01*
X21555142Y-24048952D01*
X21655477Y-24004687D01*
X21715055Y-24018123D01*
G37*
G36*
X21277825Y-37993690D02*
G01*
X21231681Y-38111987D01*
X21118183Y-38298834D01*
X21072033Y-38368808D01*
X20957582Y-38575877D01*
X20904265Y-38768489D01*
X20891146Y-39012452D01*
X20915669Y-39310355D01*
X21022437Y-39646215D01*
X21057656Y-39718023D01*
X21117333Y-39860079D01*
X21129962Y-39927503D01*
X21116075Y-39927337D01*
X21027219Y-39875641D01*
X20890458Y-39769739D01*
X20661612Y-39509465D01*
X20524749Y-39184285D01*
X20505707Y-38836539D01*
X20610129Y-38491943D01*
X20616999Y-38478747D01*
X20746132Y-38302625D01*
X20923725Y-38135395D01*
X21108769Y-38010519D01*
X21260257Y-37961458D01*
X21277825Y-37993690D01*
G37*
G36*
X19743598Y-27249038D02*
G01*
X19773390Y-27275303D01*
X19726636Y-27348860D01*
X19595906Y-27493880D01*
X19463714Y-27659487D01*
X19297973Y-27910081D01*
X19152794Y-28170347D01*
X19123410Y-28230067D01*
X19026072Y-28450210D01*
X18970599Y-28643741D01*
X18945641Y-28863553D01*
X18939844Y-29162534D01*
X18945806Y-29455529D01*
X18971245Y-29684526D01*
X19025906Y-29879307D01*
X19119519Y-30090104D01*
X19143292Y-30136626D01*
X19407573Y-30536273D01*
X19752625Y-30909900D01*
X20134954Y-31209558D01*
X20404022Y-31381309D01*
X20285517Y-31645212D01*
X20265019Y-31694072D01*
X20194597Y-31923405D01*
X20165276Y-32126723D01*
X20180520Y-32263689D01*
X20259713Y-32516543D01*
X20382712Y-32759021D01*
X20522509Y-32930362D01*
X20601185Y-33003024D01*
X20608926Y-33053894D01*
X20499346Y-33066666D01*
X20352180Y-33023335D01*
X20169100Y-32890787D01*
X20004741Y-32703792D01*
X19896821Y-32497951D01*
X19850240Y-32226053D01*
X19907508Y-31905584D01*
X20085568Y-31624119D01*
X20267961Y-31428867D01*
X19889749Y-31394572D01*
X19786858Y-31382127D01*
X19326395Y-31248584D01*
X18901281Y-30999615D01*
X18530197Y-30648580D01*
X18231824Y-30208839D01*
X18216570Y-30179702D01*
X18147157Y-30019093D01*
X18105688Y-29844583D01*
X18085629Y-29616795D01*
X18080449Y-29296354D01*
X18081241Y-29142440D01*
X18091152Y-28874611D01*
X18118537Y-28678520D01*
X18171025Y-28512424D01*
X18256247Y-28334584D01*
X18272912Y-28303706D01*
X18494992Y-27980092D01*
X18773861Y-27691041D01*
X19081615Y-27458008D01*
X19390348Y-27302453D01*
X19672154Y-27245833D01*
X19743598Y-27249038D01*
G37*
G36*
X19697506Y-41371835D02*
G01*
X19625364Y-41571371D01*
X19595455Y-41642195D01*
X19472013Y-42079659D01*
X19456571Y-42495648D01*
X19550593Y-42864858D01*
X19733115Y-43189339D01*
X20031213Y-43538948D01*
X20377450Y-43798075D01*
X20645120Y-43947656D01*
X20393021Y-43968859D01*
X20237607Y-43969663D01*
X19878026Y-43886193D01*
X19537803Y-43698980D01*
X19245711Y-43426633D01*
X19030525Y-43087760D01*
X18977663Y-42950911D01*
X18915201Y-42557542D01*
X18966284Y-42157992D01*
X19124111Y-41783643D01*
X19381886Y-41465876D01*
X19443702Y-41410969D01*
X19606114Y-41291391D01*
X19690902Y-41278428D01*
X19697506Y-41371835D01*
G37*
G36*
X19857211Y-39498277D02*
G01*
X19819217Y-39591920D01*
X19728872Y-39742665D01*
X19712246Y-39768276D01*
X19552561Y-40118083D01*
X19523283Y-40467700D01*
X19623252Y-40829063D01*
X19670845Y-40944607D01*
X19714594Y-41082624D01*
X19711519Y-41136458D01*
X19670597Y-41130228D01*
X19526803Y-41039168D01*
X19382512Y-40864990D01*
X19267100Y-40640475D01*
X19224575Y-40524879D01*
X19187753Y-40371777D01*
X19202548Y-40232547D01*
X19269196Y-40039452D01*
X19351027Y-39879524D01*
X19508376Y-39682712D01*
X19686794Y-39539069D01*
X19850287Y-39483059D01*
X19857211Y-39498277D01*
G37*
G36*
X17215349Y-31183763D02*
G01*
X17224012Y-31414908D01*
X17253235Y-31707908D01*
X17390947Y-32080100D01*
X17643480Y-32388204D01*
X18013086Y-32635705D01*
X18404838Y-32835156D01*
X18180691Y-32856785D01*
X17891652Y-32853405D01*
X17545559Y-32756053D01*
X17261807Y-32569398D01*
X17054368Y-32312261D01*
X16937215Y-32003466D01*
X16924321Y-31661836D01*
X17029658Y-31306194D01*
X17061640Y-31240164D01*
X17141705Y-31100610D01*
X17190427Y-31080403D01*
X17215349Y-31183763D01*
G37*
G36*
X18101119Y-24801201D02*
G01*
X18252105Y-24811937D01*
X18311458Y-24830166D01*
X18302683Y-24842921D01*
X18213402Y-24905245D01*
X18058899Y-24990740D01*
X17858302Y-25121336D01*
X17596896Y-25358201D01*
X17367425Y-25631693D01*
X17213625Y-25895024D01*
X17141893Y-26181845D01*
X17124387Y-26541160D01*
X17161421Y-26917038D01*
X17251555Y-27257717D01*
X17302629Y-27402082D01*
X17346896Y-27559102D01*
X17351562Y-27632466D01*
X17350508Y-27633236D01*
X17288368Y-27600862D01*
X17162433Y-27495491D01*
X16998691Y-27338752D01*
X16796521Y-27112402D01*
X16671157Y-26902975D01*
X16592399Y-26658585D01*
X16555673Y-26429209D01*
X16577354Y-26011470D01*
X16705442Y-25627103D01*
X16925708Y-25294934D01*
X17223920Y-25033791D01*
X17585850Y-24862500D01*
X17997266Y-24799890D01*
X18101119Y-24801201D01*
G37*
G36*
X37552120Y-57164761D02*
G01*
X38219727Y-57217877D01*
X38857932Y-57298712D01*
X39445631Y-57407548D01*
X39665774Y-57458837D01*
X40068186Y-57567080D01*
X40407131Y-57677717D01*
X40660211Y-57783040D01*
X40805031Y-57875343D01*
X40874960Y-57964196D01*
X40928883Y-58177963D01*
X40856383Y-58421405D01*
X40811182Y-58500005D01*
X40700018Y-58633251D01*
X40559267Y-58704079D01*
X40365696Y-58715614D01*
X40096074Y-58670982D01*
X39727171Y-58573308D01*
X39631296Y-58546653D01*
X39354291Y-58477280D01*
X39042143Y-58407104D01*
X38722165Y-58341336D01*
X38421671Y-58285188D01*
X38167972Y-58243873D01*
X37988383Y-58222603D01*
X37910216Y-58226589D01*
X37943122Y-58278923D01*
X38063815Y-58399209D01*
X38256103Y-58573259D01*
X38503552Y-58787111D01*
X38789726Y-59026797D01*
X39098191Y-59278355D01*
X39412512Y-59527819D01*
X39716254Y-59761223D01*
X39790899Y-59817650D01*
X40058545Y-60023224D01*
X40286359Y-60203094D01*
X40452201Y-60339559D01*
X40533927Y-60414918D01*
X40557793Y-60449471D01*
X40591055Y-60621268D01*
X40535024Y-60814099D01*
X40411354Y-60993949D01*
X40241700Y-61126802D01*
X40047717Y-61178645D01*
X39970605Y-61170595D01*
X39765942Y-61130245D01*
X39482628Y-61063028D01*
X39149447Y-60976904D01*
X38795180Y-60879834D01*
X38448611Y-60779775D01*
X38138522Y-60684689D01*
X37893696Y-60602535D01*
X37742917Y-60541272D01*
X37627255Y-60468231D01*
X37462913Y-60273286D01*
X37409957Y-60047179D01*
X37471294Y-59818779D01*
X37649831Y-59616961D01*
X37816243Y-59491927D01*
X37294978Y-58946283D01*
X36773712Y-58400640D01*
X36152117Y-58946283D01*
X35937355Y-59135269D01*
X35613012Y-59421965D01*
X35297582Y-59702033D01*
X35036423Y-59935270D01*
X34735159Y-60194004D01*
X34494564Y-60368874D01*
X34301940Y-60463157D01*
X34137539Y-60486459D01*
X33981613Y-60448387D01*
X33926967Y-60421430D01*
X33786430Y-60273143D01*
X33754659Y-60066736D01*
X33836229Y-59821928D01*
X33881740Y-59758167D01*
X34026241Y-59600473D01*
X34240811Y-59391874D01*
X34504987Y-59151967D01*
X34798307Y-58900356D01*
X35005060Y-58727287D01*
X35258409Y-58512891D01*
X35460145Y-58339396D01*
X35593490Y-58221272D01*
X35641667Y-58172988D01*
X35636781Y-58167455D01*
X35587921Y-58162878D01*
X35473264Y-58169328D01*
X35276457Y-58188278D01*
X34981149Y-58221205D01*
X34570989Y-58269584D01*
X34198306Y-58296097D01*
X33901094Y-58269306D01*
X33709971Y-58182816D01*
X33617847Y-58034882D01*
X33616214Y-58028251D01*
X33609022Y-57807171D01*
X33714195Y-57630427D01*
X33941465Y-57481372D01*
X34110918Y-57412316D01*
X34511734Y-57305061D01*
X35009776Y-57223828D01*
X35583940Y-57168898D01*
X36213122Y-57140555D01*
X36876217Y-57139082D01*
X37552120Y-57164761D01*
G37*
G36*
X39313303Y-61709054D02*
G01*
X39762221Y-61717183D01*
X40107774Y-61734886D01*
X40367653Y-61764471D01*
X40559549Y-61808243D01*
X40701153Y-61868507D01*
X40810156Y-61947571D01*
X40850698Y-61991561D01*
X40925826Y-62182005D01*
X40903122Y-62396832D01*
X40784505Y-62588131D01*
X40746071Y-62624129D01*
X40698234Y-62656843D01*
X40631697Y-62682299D01*
X40532261Y-62701359D01*
X40385726Y-62714881D01*
X40177894Y-62723726D01*
X39894566Y-62728754D01*
X39521543Y-62730825D01*
X39044626Y-62730798D01*
X38449618Y-62729533D01*
X38101843Y-62728071D01*
X37599622Y-62723661D01*
X37148895Y-62716969D01*
X36765823Y-62708383D01*
X36466564Y-62698291D01*
X36267277Y-62687081D01*
X36184123Y-62675140D01*
X36140911Y-62618602D01*
X36108567Y-62463320D01*
X36117923Y-62273805D01*
X36170326Y-62105636D01*
X36183747Y-62084066D01*
X36335076Y-61968223D01*
X36609697Y-61873914D01*
X37009091Y-61800929D01*
X37534738Y-61749057D01*
X38188120Y-61718088D01*
X38970718Y-61707812D01*
X39313303Y-61709054D01*
G37*
G36*
X39271264Y-67692646D02*
G01*
X39680806Y-67814470D01*
X40050546Y-68028020D01*
X40244104Y-68203826D01*
X40522001Y-68572373D01*
X40740012Y-69012686D01*
X40882376Y-69490094D01*
X40933333Y-69969929D01*
X40901436Y-70359126D01*
X40755349Y-70907408D01*
X40505156Y-71431303D01*
X40166588Y-71905631D01*
X39755375Y-72305212D01*
X39287248Y-72604865D01*
X39279778Y-72608525D01*
X39069818Y-72701083D01*
X38876743Y-72755334D01*
X38650943Y-72780859D01*
X38342807Y-72787239D01*
X38153838Y-72786093D01*
X37928434Y-72775152D01*
X37768983Y-72744599D01*
X37634435Y-72684830D01*
X37483741Y-72586239D01*
X37253039Y-72377776D01*
X37014309Y-72023999D01*
X36895415Y-71749466D01*
X36753596Y-71319266D01*
X36624638Y-70818887D01*
X36517167Y-70282565D01*
X36439811Y-69744531D01*
X36416204Y-69546093D01*
X37477685Y-69546093D01*
X37521040Y-69810677D01*
X37537997Y-69910881D01*
X37615340Y-70310864D01*
X37703821Y-70697727D01*
X37795740Y-71042045D01*
X37883402Y-71314390D01*
X37959109Y-71485339D01*
X38007578Y-71558146D01*
X38201438Y-71736705D01*
X38437279Y-71792514D01*
X38726169Y-71729091D01*
X38734125Y-71725995D01*
X38994204Y-71573986D01*
X39262550Y-71335896D01*
X39503181Y-71048683D01*
X39680112Y-70749306D01*
X39738864Y-70587904D01*
X39799978Y-70212021D01*
X39782272Y-69822614D01*
X39685493Y-69479380D01*
X39660063Y-69426762D01*
X39480404Y-69160566D01*
X39253351Y-68946722D01*
X39005634Y-68801680D01*
X38763981Y-68741886D01*
X38555122Y-68783790D01*
X38495507Y-68828378D01*
X38468278Y-68942694D01*
X38562970Y-69083541D01*
X38776194Y-69243864D01*
X38948056Y-69370879D01*
X39052665Y-69528711D01*
X39081250Y-69741020D01*
X39077148Y-69790113D01*
X38995580Y-69989253D01*
X38840997Y-70165313D01*
X38655106Y-70266832D01*
X38478848Y-70272444D01*
X38220205Y-70194225D01*
X37953642Y-70037416D01*
X37715717Y-69819426D01*
X37477685Y-69546093D01*
X36416204Y-69546093D01*
X36402683Y-69432438D01*
X36347627Y-69052053D01*
X36289265Y-68768536D01*
X36221686Y-68560583D01*
X36138981Y-68406892D01*
X36035240Y-68286159D01*
X35941223Y-68205546D01*
X35770766Y-68123549D01*
X35541326Y-68101909D01*
X35360540Y-68119937D01*
X35063878Y-68240966D01*
X34830882Y-68459870D01*
X34678589Y-68757814D01*
X34624038Y-69115961D01*
X34665902Y-69395231D01*
X34818625Y-69684408D01*
X35067802Y-69908614D01*
X35397177Y-70054041D01*
X35790495Y-70106880D01*
X35842432Y-70107847D01*
X36079363Y-70144043D01*
X36236979Y-70240625D01*
X36326280Y-70386344D01*
X36370178Y-70613855D01*
X36344789Y-70844985D01*
X36249212Y-71022142D01*
X36172943Y-71064169D01*
X35985663Y-71136008D01*
X35715866Y-71225820D01*
X35388281Y-71326478D01*
X35027633Y-71430852D01*
X34658653Y-71531815D01*
X34306065Y-71622236D01*
X33994599Y-71694988D01*
X33748981Y-71742941D01*
X33739851Y-71744319D01*
X33526969Y-71720693D01*
X33348708Y-71609157D01*
X33237597Y-71440627D01*
X33226162Y-71246020D01*
X33280102Y-71096184D01*
X33445068Y-70896629D01*
X33714899Y-70763595D01*
X33753631Y-70750982D01*
X33912348Y-70696215D01*
X33999543Y-70661082D01*
X33994604Y-70611488D01*
X33930715Y-70481004D01*
X33819802Y-70302529D01*
X33656188Y-70027480D01*
X33506592Y-69629078D01*
X33459223Y-69210833D01*
X33469591Y-69044531D01*
X33541349Y-68679253D01*
X33665230Y-68307188D01*
X33822113Y-67992527D01*
X33992467Y-67767409D01*
X34283287Y-67483761D01*
X34608889Y-67247547D01*
X34924460Y-67095244D01*
X35047954Y-67055856D01*
X35214719Y-67020185D01*
X35355483Y-67032247D01*
X35533263Y-67091674D01*
X35591841Y-67113876D01*
X35779476Y-67177672D01*
X35863922Y-67181291D01*
X35860195Y-67118119D01*
X35783313Y-66981542D01*
X35744626Y-66907969D01*
X35664317Y-66665556D01*
X35596983Y-66318238D01*
X35541727Y-65859250D01*
X35497647Y-65281831D01*
X35475268Y-64816666D01*
X36420005Y-64816666D01*
X36460784Y-65246614D01*
X36479559Y-65444482D01*
X36512817Y-65794738D01*
X36543265Y-66115140D01*
X36593218Y-66424312D01*
X36688721Y-66654604D01*
X36829706Y-66768051D01*
X37019925Y-66769804D01*
X37072822Y-66754858D01*
X37346607Y-66633101D01*
X37674824Y-66431051D01*
X38032278Y-66165516D01*
X38393773Y-65853304D01*
X38506255Y-65747156D01*
X38738487Y-65518686D01*
X38940289Y-65308657D01*
X39077613Y-65151987D01*
X39275358Y-64902314D01*
X38672048Y-64859490D01*
X38438658Y-64845942D01*
X38054536Y-64830811D01*
X37637545Y-64820486D01*
X37244372Y-64816666D01*
X36420005Y-64816666D01*
X35475268Y-64816666D01*
X35463845Y-64579216D01*
X35423682Y-63514943D01*
X35580465Y-63405127D01*
X35633429Y-63372649D01*
X35831618Y-63306573D01*
X36022850Y-63307536D01*
X36155096Y-63377994D01*
X36158133Y-63381929D01*
X36217848Y-63506431D01*
X36269412Y-63683581D01*
X36317120Y-63906486D01*
X36420005Y-63898472D01*
X36822753Y-63867103D01*
X36953092Y-63859167D01*
X37237941Y-63847531D01*
X37612675Y-63836383D01*
X38052135Y-63826353D01*
X38531162Y-63818068D01*
X39024598Y-63812155D01*
X39348015Y-63809629D01*
X39825444Y-63808482D01*
X40192160Y-63812064D01*
X40461921Y-63820930D01*
X40648488Y-63835635D01*
X40765618Y-63856734D01*
X40827072Y-63884779D01*
X40916120Y-64003193D01*
X40934386Y-64179530D01*
X40863611Y-64409498D01*
X40700365Y-64700519D01*
X40441219Y-65060013D01*
X40082742Y-65495402D01*
X39594608Y-66039402D01*
X39107907Y-66532381D01*
X38658220Y-66935760D01*
X38259176Y-67236525D01*
X38054484Y-67362164D01*
X37763830Y-67511504D01*
X37490954Y-67622448D01*
X37266430Y-67683048D01*
X37120830Y-67681358D01*
X37045818Y-67667915D01*
X37048404Y-67732136D01*
X37080819Y-67808296D01*
X37153578Y-67980823D01*
X37243316Y-68194611D01*
X37397586Y-68562921D01*
X37568929Y-68287710D01*
X37748519Y-68068876D01*
X38060548Y-67850662D01*
X38435463Y-67713428D01*
X38763981Y-67670728D01*
X38847592Y-67659860D01*
X39271264Y-67692646D01*
G37*
G36*
X37266526Y-59410842D02*
G01*
X37292759Y-59476875D01*
X37230964Y-59556961D01*
X37214101Y-59569950D01*
X37137942Y-59701068D01*
X37087145Y-59900859D01*
X37071105Y-60116650D01*
X37099215Y-60295767D01*
X37105097Y-60310112D01*
X37205939Y-60465420D01*
X37377217Y-60662920D01*
X37588254Y-60873563D01*
X37808373Y-61068298D01*
X38006900Y-61218075D01*
X38153157Y-61293843D01*
X38158317Y-61295310D01*
X38162775Y-61319788D01*
X38041207Y-61349996D01*
X37799304Y-61384896D01*
X37442759Y-61423449D01*
X37403518Y-61427337D01*
X37055069Y-61468016D01*
X36737698Y-61515154D01*
X36485014Y-61563214D01*
X36330623Y-61606660D01*
X36324609Y-61609172D01*
X36188448Y-61659929D01*
X36093102Y-61659271D01*
X35994574Y-61592385D01*
X35848867Y-61444459D01*
X35778635Y-61374205D01*
X35561973Y-61214835D01*
X35325870Y-61140288D01*
X35050307Y-61096224D01*
X35263304Y-60987590D01*
X35326833Y-60948134D01*
X35496727Y-60822029D01*
X35728729Y-60635412D01*
X36000781Y-60406215D01*
X36290823Y-60152368D01*
X36482407Y-59983199D01*
X36743406Y-59758631D01*
X36962490Y-59577084D01*
X37121013Y-59453893D01*
X37200328Y-59404394D01*
X37266526Y-59410842D01*
G37*
G36*
X35991271Y-69045338D02*
G01*
X36044686Y-69282084D01*
X36058208Y-69395650D01*
X36080817Y-69584248D01*
X36094296Y-69694921D01*
X36093900Y-69704828D01*
X36027320Y-69753379D01*
X35883456Y-69777387D01*
X35708303Y-69773272D01*
X35547858Y-69737454D01*
X35521828Y-69723900D01*
X35450159Y-69608587D01*
X35443668Y-69433604D01*
X35498335Y-69241673D01*
X35610140Y-69075513D01*
X35770124Y-68949902D01*
X35900629Y-68935028D01*
X35991271Y-69045338D01*
G37*
G36*
X35096223Y-61397226D02*
G01*
X35355504Y-61486189D01*
X35499312Y-61570112D01*
X35714196Y-61800828D01*
X35836530Y-62122880D01*
X35857588Y-62309250D01*
X35807077Y-62646225D01*
X35656721Y-62951160D01*
X35426040Y-63199443D01*
X35134552Y-63366461D01*
X34801777Y-63427604D01*
X34653039Y-63419233D01*
X34306538Y-63317942D01*
X34026480Y-63102827D01*
X34014733Y-63090090D01*
X33915481Y-63012475D01*
X33787388Y-62987847D01*
X33580591Y-63005299D01*
X33434182Y-63018250D01*
X33218889Y-62991073D01*
X33099078Y-62886425D01*
X33061979Y-62696707D01*
X33062962Y-62670896D01*
X33092092Y-62567155D01*
X33175061Y-62450496D01*
X33266318Y-62361626D01*
X34723134Y-62361626D01*
X34769644Y-62449748D01*
X34834822Y-62493228D01*
X34925123Y-62450814D01*
X34962413Y-62384507D01*
X34889198Y-62330194D01*
X34823132Y-62313711D01*
X34733718Y-62329128D01*
X34723134Y-62361626D01*
X33266318Y-62361626D01*
X33329893Y-62299714D01*
X33574609Y-62093606D01*
X33867482Y-61864111D01*
X34237571Y-61612328D01*
X34554337Y-61454470D01*
X34823132Y-61387628D01*
X34834861Y-61384711D01*
X35096223Y-61397226D01*
G37*
G36*
X33905049Y-63814845D02*
G01*
X33975358Y-63820285D01*
X34265705Y-63877770D01*
X34486565Y-63996197D01*
X34506916Y-64011223D01*
X34704043Y-64125546D01*
X34892865Y-64193963D01*
X35092129Y-64233816D01*
X35171628Y-65354866D01*
X35192704Y-65631561D01*
X35224416Y-65988544D01*
X35256365Y-66289494D01*
X35285785Y-66509072D01*
X35309913Y-66621942D01*
X35348415Y-66715925D01*
X35372891Y-66771223D01*
X35371471Y-66771419D01*
X35298327Y-66764588D01*
X35147797Y-66747709D01*
X34932530Y-66758786D01*
X34614528Y-66871193D01*
X34270429Y-67085664D01*
X33918330Y-67392707D01*
X33857918Y-67452869D01*
X33698737Y-67605097D01*
X33609164Y-67673128D01*
X33572919Y-67666511D01*
X33573724Y-67594791D01*
X33574000Y-67592711D01*
X33549775Y-67413730D01*
X33458289Y-67213659D01*
X33329443Y-67042988D01*
X33193140Y-66952203D01*
X33119369Y-66915315D01*
X33027185Y-66795618D01*
X32970038Y-66689237D01*
X32808653Y-66541214D01*
X32606808Y-66446248D01*
X32417187Y-66435447D01*
X32374944Y-66442818D01*
X32360258Y-66417945D01*
X32446770Y-66334347D01*
X32639805Y-66186060D01*
X32643925Y-66183023D01*
X32862743Y-66011336D01*
X33055147Y-65842577D01*
X33179912Y-65712866D01*
X33356671Y-65418253D01*
X33495984Y-65049531D01*
X33585902Y-64653473D01*
X33616385Y-64274434D01*
X33577393Y-63956770D01*
X33574142Y-63945253D01*
X33556704Y-63857258D01*
X33587405Y-63814264D01*
X33694201Y-63804163D01*
X33905049Y-63814845D01*
G37*
G36*
X33739538Y-60677232D02*
G01*
X33911976Y-60844026D01*
X33916872Y-60849122D01*
X34089345Y-61015610D01*
X34235940Y-61134630D01*
X34325387Y-61180714D01*
X34333814Y-61196923D01*
X34255149Y-61254995D01*
X34096274Y-61340374D01*
X33990129Y-61396532D01*
X33754502Y-61544119D01*
X33567107Y-61689466D01*
X33528539Y-61724383D01*
X33321941Y-61899002D01*
X33112102Y-62061946D01*
X33046825Y-62114158D01*
X32901147Y-62267259D01*
X32824015Y-62404508D01*
X32783461Y-62566089D01*
X32513939Y-62335388D01*
X32424539Y-62265057D01*
X32230335Y-62149107D01*
X32076288Y-62104687D01*
X32037566Y-62100059D01*
X32045132Y-62063769D01*
X32164862Y-61988015D01*
X32402387Y-61868723D01*
X32439518Y-61850709D01*
X32706548Y-61706525D01*
X32948639Y-61553626D01*
X33117385Y-61422239D01*
X33275943Y-61245093D01*
X33434428Y-61013848D01*
X33547810Y-60789704D01*
X33591146Y-60615151D01*
X33629115Y-60598931D01*
X33739538Y-60677232D01*
G37*
G36*
X33593842Y-58522108D02*
G01*
X33744920Y-58640556D01*
X33851728Y-58781956D01*
X33917772Y-58885228D01*
X34025481Y-58973596D01*
X34044878Y-58982820D01*
X34067650Y-59032623D01*
X34012697Y-59126445D01*
X33869188Y-59285932D01*
X33762327Y-59401349D01*
X33626870Y-59560714D01*
X33550036Y-59668644D01*
X33524147Y-59707171D01*
X33467562Y-59722673D01*
X33370115Y-59668446D01*
X33204314Y-59533763D01*
X32916700Y-59288310D01*
X33119523Y-59071187D01*
X33161393Y-59022725D01*
X33291059Y-58823266D01*
X33363652Y-58633884D01*
X33404958Y-58413704D01*
X33593842Y-58522108D01*
G37*
G36*
X33317153Y-68198083D02*
G01*
X33298043Y-68318037D01*
X33242070Y-68507381D01*
X33168425Y-68812654D01*
X33139037Y-69264407D01*
X33187197Y-69714407D01*
X33310580Y-70108333D01*
X33358462Y-70212750D01*
X33424838Y-70359620D01*
X33453281Y-70425810D01*
X33453257Y-70429226D01*
X33422586Y-70507875D01*
X33353769Y-70648843D01*
X33248685Y-70852055D01*
X32973431Y-70540040D01*
X32877767Y-70435074D01*
X32744933Y-70314039D01*
X32598549Y-70227067D01*
X32400088Y-70153231D01*
X32111019Y-70071602D01*
X31974449Y-70034808D01*
X31739905Y-69969397D01*
X31574781Y-69920282D01*
X31508375Y-69896001D01*
X31503565Y-69883862D01*
X31480596Y-69778516D01*
X31451438Y-69605765D01*
X31449358Y-69592137D01*
X31432812Y-69440516D01*
X31458252Y-69343819D01*
X31550487Y-69262791D01*
X31734327Y-69158180D01*
X31832281Y-69102870D01*
X32073023Y-68959112D01*
X32357508Y-68782389D01*
X32643005Y-68598996D01*
X32826033Y-68479317D01*
X33049804Y-68333529D01*
X33216244Y-68225736D01*
X33298718Y-68173234D01*
X33317153Y-68198083D01*
G37*
G36*
X27459728Y-56734740D02*
G01*
X27767102Y-56764439D01*
X28157711Y-56815814D01*
X28643219Y-56889726D01*
X29235287Y-56987033D01*
X29945579Y-57108594D01*
X30391852Y-57186130D01*
X30959921Y-57286655D01*
X31417471Y-57372009D01*
X31776448Y-57446334D01*
X32048799Y-57513775D01*
X32246472Y-57578474D01*
X32381414Y-57644575D01*
X32465571Y-57716222D01*
X32510892Y-57797558D01*
X32529324Y-57892726D01*
X32532812Y-58005869D01*
X32523032Y-58138910D01*
X32459206Y-58306685D01*
X32319622Y-58434956D01*
X32085466Y-58538550D01*
X31737925Y-58632291D01*
X31656041Y-58651556D01*
X31428420Y-58711886D01*
X31269586Y-58764404D01*
X31209896Y-58799499D01*
X31262990Y-58837119D01*
X31412006Y-58896007D01*
X31623307Y-58961658D01*
X31682078Y-58978404D01*
X32122501Y-59131783D01*
X32444186Y-59303289D01*
X32658852Y-59499001D01*
X32699177Y-59558913D01*
X32784271Y-59813702D01*
X32785564Y-60105117D01*
X32700553Y-60380301D01*
X32674111Y-60427285D01*
X32453593Y-60685452D01*
X32122097Y-60933493D01*
X31697648Y-61165986D01*
X31198271Y-61377511D01*
X30641992Y-61562647D01*
X30046836Y-61715974D01*
X29430828Y-61832069D01*
X28811995Y-61905514D01*
X28208362Y-61930887D01*
X27637954Y-61902767D01*
X27164803Y-61829975D01*
X26608695Y-61666744D01*
X26150395Y-61432217D01*
X25795452Y-61130301D01*
X25549417Y-60764903D01*
X25417841Y-60339930D01*
X25413191Y-60307201D01*
X25410208Y-60018407D01*
X25460494Y-59718537D01*
X25552612Y-59454924D01*
X25675128Y-59274902D01*
X25729803Y-59228972D01*
X25967505Y-59108295D01*
X26199651Y-59093865D01*
X26401794Y-59171273D01*
X26549485Y-59326110D01*
X26618277Y-59543966D01*
X26583722Y-59810432D01*
X26550884Y-59964850D01*
X26589869Y-60213437D01*
X26751217Y-60422835D01*
X27031252Y-60589130D01*
X27426303Y-60708407D01*
X27521532Y-60725953D01*
X27915262Y-60767042D01*
X28382071Y-60779742D01*
X28878756Y-60764994D01*
X29362111Y-60723739D01*
X29788934Y-60656920D01*
X29863776Y-60640808D01*
X30170460Y-60563145D01*
X30481556Y-60468907D01*
X30775075Y-60366720D01*
X31029027Y-60265209D01*
X31221421Y-60173000D01*
X31330267Y-60098721D01*
X31333576Y-60050997D01*
X31197363Y-59993937D01*
X30941251Y-59913790D01*
X30602899Y-59823434D01*
X30208106Y-59728743D01*
X29782671Y-59635593D01*
X29352393Y-59549858D01*
X28943072Y-59477411D01*
X28580508Y-59424129D01*
X28424813Y-59394934D01*
X28165239Y-59279921D01*
X28015158Y-59102074D01*
X27980804Y-58871450D01*
X28068410Y-58598104D01*
X28090151Y-58558615D01*
X28156620Y-58472764D01*
X28255917Y-58404632D01*
X28412365Y-58343825D01*
X28650288Y-58279949D01*
X28994010Y-58202612D01*
X29173770Y-58162682D01*
X29403566Y-58105286D01*
X29522165Y-58063503D01*
X29542002Y-58033495D01*
X29488830Y-58015870D01*
X29325092Y-57972411D01*
X29071873Y-57909217D01*
X28750323Y-57831551D01*
X28381594Y-57744677D01*
X28112962Y-57681423D01*
X27697913Y-57578770D01*
X27383773Y-57491465D01*
X27151713Y-57412720D01*
X26982903Y-57335746D01*
X26858516Y-57253755D01*
X26759723Y-57159961D01*
X26688452Y-57070401D01*
X26685890Y-56990815D01*
X26768585Y-56874522D01*
X26829333Y-56815526D01*
X26920392Y-56767111D01*
X27048035Y-56736935D01*
X27223927Y-56725859D01*
X27459728Y-56734740D01*
G37*
G36*
X29585344Y-67837497D02*
G01*
X29596978Y-67680713D01*
X29590277Y-67606769D01*
X29584178Y-67604838D01*
X29504814Y-67638848D01*
X29372638Y-67726581D01*
X29326417Y-67758160D01*
X29088818Y-67844498D01*
X28864963Y-67807658D01*
X28677743Y-67650159D01*
X28651751Y-67612778D01*
X28583993Y-67437456D01*
X28613869Y-67253848D01*
X28747877Y-67044217D01*
X28992514Y-66790824D01*
X29181352Y-66601083D01*
X29411883Y-66340052D01*
X29596295Y-66100655D01*
X29842284Y-65743490D01*
X29655635Y-65400555D01*
X29564871Y-65226017D01*
X29510898Y-65075941D01*
X29508331Y-64939481D01*
X29547994Y-64762218D01*
X29592146Y-64619591D01*
X29714901Y-64354471D01*
X29903074Y-64082524D01*
X30178376Y-63769564D01*
X30237990Y-63707958D01*
X30534703Y-63451515D01*
X30793826Y-63319894D01*
X31018006Y-63312216D01*
X31209896Y-63427604D01*
X31215621Y-63433393D01*
X31336330Y-63623802D01*
X31339004Y-63834469D01*
X31221571Y-64073778D01*
X30981958Y-64350117D01*
X30851951Y-64484197D01*
X30623385Y-64767733D01*
X30507044Y-65001068D01*
X30505756Y-65179280D01*
X30519300Y-65206964D01*
X30626735Y-65275791D01*
X30791968Y-65259040D01*
X30992235Y-65169293D01*
X31204768Y-65019135D01*
X31406803Y-64821151D01*
X31575572Y-64587925D01*
X31643282Y-64463821D01*
X31770469Y-64111315D01*
X31773785Y-63802891D01*
X31652871Y-63535828D01*
X31407370Y-63307405D01*
X31333116Y-63259474D01*
X31186887Y-63193518D01*
X31017263Y-63171041D01*
X30770743Y-63181459D01*
X30521456Y-63215138D01*
X30066239Y-63351168D01*
X29655944Y-63567961D01*
X29318430Y-63849081D01*
X29081556Y-64178090D01*
X29049286Y-64242894D01*
X28986975Y-64406583D01*
X28981027Y-64558366D01*
X29024843Y-64766721D01*
X29035972Y-64810954D01*
X29071795Y-65000770D01*
X29059864Y-65129508D01*
X28997084Y-65251206D01*
X28841124Y-65410260D01*
X28623754Y-65508221D01*
X28406498Y-65505577D01*
X28348322Y-65473586D01*
X28202643Y-65357264D01*
X28012294Y-65180337D01*
X27803385Y-64966158D01*
X27340365Y-64468802D01*
X27340365Y-65297041D01*
X27335311Y-65650742D01*
X27312127Y-65967666D01*
X27263833Y-66184336D01*
X27183616Y-66317886D01*
X27064665Y-66385452D01*
X26900165Y-66404166D01*
X26867621Y-66403549D01*
X26731663Y-66381036D01*
X26619888Y-66316665D01*
X26528069Y-66197533D01*
X26451979Y-66010736D01*
X26387393Y-65743370D01*
X26330084Y-65382533D01*
X26275825Y-64915321D01*
X26220390Y-64328832D01*
X26187340Y-63939412D01*
X26164650Y-63618953D01*
X26156034Y-63389503D01*
X26161380Y-63229875D01*
X26180575Y-63118880D01*
X26213506Y-63035329D01*
X26324918Y-62893357D01*
X26531734Y-62754891D01*
X26752783Y-62699999D01*
X26854564Y-62730397D01*
X27042615Y-62835256D01*
X27278976Y-62997656D01*
X27537653Y-63199527D01*
X27792653Y-63422801D01*
X27831394Y-63458836D01*
X27988791Y-63599174D01*
X28082350Y-63660482D01*
X28138069Y-63653985D01*
X28181946Y-63590912D01*
X28229151Y-63516257D01*
X28400088Y-63314070D01*
X28636556Y-63083498D01*
X28906258Y-62852943D01*
X29176899Y-62650805D01*
X29416185Y-62505486D01*
X29909576Y-62296420D01*
X30501715Y-62149342D01*
X31074264Y-62119866D01*
X31611302Y-62210134D01*
X31770586Y-62272023D01*
X32067643Y-62453272D01*
X32347497Y-62695756D01*
X32573832Y-62965786D01*
X32710331Y-63229672D01*
X32747460Y-63369998D01*
X32790629Y-63799991D01*
X32750773Y-64252412D01*
X32634580Y-64681003D01*
X32448736Y-65039505D01*
X32351492Y-65154777D01*
X32066942Y-65381011D01*
X31695739Y-65575593D01*
X31268593Y-65720797D01*
X31059973Y-65781143D01*
X30872534Y-65862070D01*
X30809164Y-65939259D01*
X30801986Y-66026500D01*
X30782351Y-66221525D01*
X30753558Y-66489918D01*
X30718818Y-66801041D01*
X30687690Y-67085917D01*
X30662792Y-67337618D01*
X30648627Y-67511337D01*
X30647632Y-67580382D01*
X30652569Y-67580207D01*
X30737580Y-67542299D01*
X30910729Y-67453237D01*
X31150434Y-67324351D01*
X31435113Y-67166971D01*
X31490966Y-67135921D01*
X31785061Y-66979058D01*
X32043441Y-66851672D01*
X32239919Y-66766155D01*
X32348307Y-66734895D01*
X32530803Y-66787643D01*
X32674930Y-66934714D01*
X32731250Y-67137206D01*
X32725507Y-67199833D01*
X32683710Y-67306683D01*
X32590333Y-67422640D01*
X32432345Y-67558332D01*
X32196716Y-67724388D01*
X31870415Y-67931436D01*
X31440414Y-68190104D01*
X30602980Y-68686197D01*
X30642967Y-69241355D01*
X30654830Y-69407209D01*
X30680054Y-69703037D01*
X30715200Y-69901851D01*
X30775785Y-70027801D01*
X30877324Y-70105034D01*
X31035336Y-70157699D01*
X31265335Y-70209944D01*
X31586264Y-70283632D01*
X32014176Y-70395749D01*
X32333155Y-70503911D01*
X32557084Y-70615723D01*
X32699846Y-70738788D01*
X32775322Y-70880710D01*
X32797396Y-71049092D01*
X32797392Y-71051271D01*
X32744063Y-71276439D01*
X32588468Y-71421790D01*
X32334574Y-71486307D01*
X31986348Y-71468977D01*
X31547756Y-71368783D01*
X31133310Y-71261878D01*
X30620976Y-71154355D01*
X30055740Y-71054239D01*
X29473727Y-70966937D01*
X28911064Y-70897857D01*
X28403877Y-70852406D01*
X27988293Y-70835992D01*
X27776326Y-70835937D01*
X27933769Y-70993380D01*
X28075463Y-71201885D01*
X28192642Y-71508183D01*
X28270951Y-71871269D01*
X28299479Y-72253542D01*
X28299479Y-72654947D01*
X30101953Y-72656445D01*
X30684559Y-72658668D01*
X31252569Y-72667131D01*
X31710015Y-72684506D01*
X32068578Y-72713511D01*
X32339934Y-72756866D01*
X32535764Y-72817291D01*
X32667746Y-72897504D01*
X32747560Y-73000226D01*
X32786883Y-73128176D01*
X32797396Y-73284072D01*
X32797389Y-73286048D01*
X32744268Y-73485170D01*
X32611897Y-73677050D01*
X32437120Y-73821256D01*
X32256781Y-73877355D01*
X32248507Y-73877185D01*
X32112608Y-73867803D01*
X31879411Y-73846304D01*
X31579378Y-73815648D01*
X31242969Y-73778797D01*
X31139374Y-73767858D01*
X30722376Y-73733879D01*
X30240245Y-73706326D01*
X29744744Y-73687792D01*
X29287635Y-73680869D01*
X28192197Y-73680208D01*
X28103402Y-74027473D01*
X28084361Y-74093894D01*
X27994496Y-74342830D01*
X27868694Y-74639164D01*
X27727943Y-74932314D01*
X27655076Y-75075486D01*
X27548494Y-75291361D01*
X27478305Y-75442441D01*
X27456968Y-75502511D01*
X27478654Y-75506514D01*
X27604879Y-75517990D01*
X27817290Y-75532737D01*
X28085859Y-75548558D01*
X28176502Y-75553470D01*
X28433250Y-75564750D01*
X28596696Y-75560852D01*
X28697289Y-75535536D01*
X28765480Y-75482560D01*
X28831719Y-75395684D01*
X28836301Y-75389333D01*
X28968207Y-75248920D01*
X29099824Y-75166396D01*
X29192834Y-75151872D01*
X29392506Y-75190776D01*
X29567589Y-75297689D01*
X29664663Y-75446155D01*
X29705247Y-75607855D01*
X30374889Y-75563895D01*
X30517253Y-75553935D01*
X30872681Y-75524869D01*
X31210906Y-75492196D01*
X31474479Y-75461277D01*
X31789584Y-75424452D01*
X32181637Y-75407049D01*
X32467480Y-75440793D01*
X32658077Y-75529190D01*
X32764394Y-75675741D01*
X32797396Y-75883952D01*
X32795449Y-75957688D01*
X32770177Y-76112235D01*
X32705172Y-76236211D01*
X32587212Y-76334174D01*
X32403075Y-76410685D01*
X32139540Y-76470305D01*
X31783385Y-76517592D01*
X31321389Y-76557107D01*
X30740329Y-76593409D01*
X30703508Y-76595485D01*
X30305053Y-76618956D01*
X29952226Y-76641511D01*
X29666646Y-76661634D01*
X29469934Y-76677811D01*
X29383709Y-76688524D01*
X29362454Y-76705146D01*
X29307849Y-76818842D01*
X29264791Y-76998368D01*
X29254708Y-77060052D01*
X29216358Y-77272894D01*
X29183059Y-77430220D01*
X29181558Y-77436254D01*
X29171660Y-77494568D01*
X29190221Y-77532482D01*
X29257977Y-77552823D01*
X29395665Y-77558419D01*
X29624024Y-77552098D01*
X29963788Y-77536687D01*
X30102071Y-77530801D01*
X30639815Y-77521423D01*
X31107387Y-77535363D01*
X31489569Y-77571329D01*
X31771144Y-77628030D01*
X31936895Y-77704173D01*
X31985398Y-77749835D01*
X32101023Y-77958453D01*
X32100664Y-78191863D01*
X31982115Y-78415380D01*
X31816072Y-78608072D01*
X30239677Y-78617627D01*
X30015073Y-78618994D01*
X29540445Y-78621917D01*
X29091754Y-78624722D01*
X28695589Y-78627242D01*
X28378538Y-78629308D01*
X28167187Y-78630752D01*
X28053387Y-78633576D01*
X27722609Y-78654407D01*
X27348962Y-78690708D01*
X26993534Y-78736952D01*
X26967344Y-78740897D01*
X26480099Y-78804397D01*
X26097990Y-78833771D01*
X25828496Y-78828724D01*
X25679098Y-78788961D01*
X25671837Y-78784030D01*
X25565301Y-78640538D01*
X25566137Y-78460494D01*
X25674689Y-78283360D01*
X25799442Y-78185927D01*
X26018502Y-78080251D01*
X26324874Y-77985111D01*
X26733539Y-77896019D01*
X27259481Y-77808485D01*
X27526071Y-77765937D01*
X27786004Y-77718452D01*
X27972203Y-77677472D01*
X28056004Y-77648746D01*
X28063307Y-77640179D01*
X28109252Y-77533480D01*
X28162983Y-77351170D01*
X28215422Y-77133736D01*
X28257491Y-76921669D01*
X28280111Y-76755458D01*
X28274203Y-76675592D01*
X28232531Y-76661721D01*
X28080650Y-76636190D01*
X27847138Y-76607761D01*
X27561746Y-76580411D01*
X27181178Y-76544425D01*
X26826787Y-76496375D01*
X26584322Y-76437769D01*
X26442580Y-76362077D01*
X26390359Y-76262771D01*
X26416456Y-76133319D01*
X26509668Y-75967194D01*
X26531493Y-75933957D01*
X26598171Y-75813074D01*
X26590776Y-75726435D01*
X26509232Y-75611008D01*
X26418850Y-75475011D01*
X26380188Y-75374543D01*
X26400435Y-75308071D01*
X26470228Y-75143621D01*
X26578119Y-74911680D01*
X26711893Y-74639322D01*
X26768795Y-74524877D01*
X26977715Y-74065412D01*
X27117928Y-73664301D01*
X27198222Y-73282778D01*
X27227384Y-72882079D01*
X27214203Y-72423437D01*
X27201364Y-72230289D01*
X27177354Y-71911688D01*
X27153387Y-71637429D01*
X27133123Y-71451384D01*
X27120002Y-71284364D01*
X27152980Y-71142645D01*
X27257063Y-71012444D01*
X27418481Y-70851026D01*
X27122144Y-70810409D01*
X27079054Y-70805172D01*
X26846297Y-70787159D01*
X26548671Y-70774544D01*
X26239726Y-70769791D01*
X25931438Y-70759981D01*
X25667571Y-70716809D01*
X25501032Y-70629826D01*
X25414102Y-70488913D01*
X25389063Y-70283949D01*
X25401529Y-70151001D01*
X25459938Y-70024459D01*
X25585005Y-69914760D01*
X25739302Y-69834862D01*
X28294268Y-69834862D01*
X28577993Y-69869496D01*
X28722635Y-69885476D01*
X28996864Y-69911406D01*
X29275130Y-69933813D01*
X29482466Y-69942998D01*
X29634543Y-69929537D01*
X29676986Y-69887086D01*
X29673744Y-69862745D01*
X29658524Y-69722499D01*
X29640109Y-69529557D01*
X29631400Y-69455570D01*
X29597595Y-69307369D01*
X29556966Y-69248437D01*
X29514755Y-69260884D01*
X29370924Y-69320551D01*
X29155526Y-69418306D01*
X28896706Y-69541650D01*
X28294268Y-69834862D01*
X25739302Y-69834862D01*
X25797119Y-69804923D01*
X26116667Y-69677970D01*
X26380080Y-69578982D01*
X27128990Y-69282514D01*
X27860649Y-68967530D01*
X28638925Y-68606907D01*
X29540611Y-68176835D01*
X29556966Y-68054898D01*
X29577257Y-67903616D01*
X29585344Y-67837497D01*
G37*
G36*
X27399616Y-79931344D02*
G01*
X27760862Y-80224656D01*
X28115214Y-80521406D01*
X28253449Y-80325416D01*
X28291546Y-80272831D01*
X28690127Y-79840792D01*
X29178254Y-79481063D01*
X29729183Y-79207257D01*
X30316168Y-79032989D01*
X30912462Y-78971875D01*
X31123988Y-78978584D01*
X31624014Y-79062441D01*
X32038325Y-79244478D01*
X32372050Y-79527509D01*
X32630319Y-79914349D01*
X32712430Y-80090271D01*
X32768680Y-80272611D01*
X32789026Y-80476897D01*
X32783393Y-80757812D01*
X32756023Y-81045458D01*
X32636590Y-81503744D01*
X32414700Y-81931394D01*
X32077097Y-82358451D01*
X31876361Y-82557615D01*
X31504246Y-82838300D01*
X31121233Y-83029673D01*
X30743817Y-83130166D01*
X30388492Y-83138213D01*
X30071752Y-83052244D01*
X29810091Y-82870693D01*
X29620003Y-82591992D01*
X29573780Y-82478107D01*
X29492244Y-82063546D01*
X29538185Y-81640452D01*
X29708843Y-81216470D01*
X30001455Y-80799245D01*
X30413260Y-80396421D01*
X30475876Y-80347158D01*
X30734210Y-80205303D01*
X30970085Y-80165085D01*
X31163424Y-80221920D01*
X31294151Y-80371227D01*
X31342187Y-80608424D01*
X31327439Y-80735171D01*
X31268707Y-80867547D01*
X31147657Y-81028644D01*
X30945982Y-81248015D01*
X30736959Y-81487036D01*
X30573053Y-81729881D01*
X30494024Y-81926144D01*
X30502014Y-82064059D01*
X30599164Y-82131862D01*
X30787617Y-82117787D01*
X30932343Y-82051258D01*
X31143047Y-81895534D01*
X31361065Y-81688571D01*
X31551998Y-81463613D01*
X31681449Y-81253906D01*
X31767672Y-81017579D01*
X31794164Y-80711083D01*
X31704870Y-80424918D01*
X31601434Y-80272534D01*
X31395187Y-80122453D01*
X31106400Y-80048728D01*
X30718296Y-80044898D01*
X30558021Y-80059713D01*
X30137778Y-80154746D01*
X29761176Y-80340689D01*
X29387686Y-80635531D01*
X29283137Y-80738353D01*
X29074065Y-81021543D01*
X28990506Y-81301316D01*
X29028367Y-81588525D01*
X29045847Y-81648612D01*
X29060764Y-81922588D01*
X28967270Y-82143732D01*
X28779410Y-82291491D01*
X28511228Y-82345312D01*
X28489589Y-82344611D01*
X28376503Y-82315678D01*
X28242265Y-82232861D01*
X28065432Y-82080465D01*
X27824560Y-81842797D01*
X27331714Y-81340282D01*
X27336039Y-82057771D01*
X27335022Y-82286232D01*
X27326593Y-82578562D01*
X27311641Y-82810989D01*
X27291961Y-82947335D01*
X27271517Y-83029459D01*
X27283802Y-83089563D01*
X27369003Y-83105414D01*
X27556544Y-83093236D01*
X27591574Y-83090614D01*
X27854055Y-83102395D01*
X28006894Y-83184265D01*
X28056356Y-83343042D01*
X28008704Y-83585546D01*
X27959835Y-83734375D01*
X32472680Y-83734375D01*
X32635038Y-83896732D01*
X32663056Y-83926495D01*
X32784293Y-84147219D01*
X32785357Y-84378912D01*
X32671549Y-84596644D01*
X32448169Y-84775487D01*
X32365374Y-84814169D01*
X32250489Y-84846550D01*
X32094181Y-84866880D01*
X31873758Y-84876854D01*
X31566530Y-84878170D01*
X31149806Y-84872521D01*
X30897147Y-84868564D01*
X30557648Y-84866611D01*
X30326339Y-84871661D01*
X30188037Y-84884697D01*
X30127565Y-84906704D01*
X30129741Y-84938667D01*
X30140867Y-84953318D01*
X30258030Y-85111438D01*
X30428600Y-85345899D01*
X30640701Y-85639998D01*
X30882455Y-85977030D01*
X31141985Y-86340292D01*
X31407416Y-86713079D01*
X31666871Y-87078686D01*
X31908472Y-87420411D01*
X32120343Y-87721549D01*
X32290607Y-87965395D01*
X32407388Y-88135246D01*
X32458808Y-88214397D01*
X32497432Y-88341000D01*
X32494121Y-88528785D01*
X32418131Y-88679699D01*
X32268538Y-88845749D01*
X32092687Y-88974377D01*
X31935040Y-89026041D01*
X31843055Y-89001599D01*
X31656324Y-88925624D01*
X31407729Y-88810425D01*
X31125766Y-88668591D01*
X30935430Y-88573542D01*
X30537084Y-88392938D01*
X30125396Y-88225003D01*
X29764260Y-88096581D01*
X29594254Y-88041406D01*
X29303334Y-87933397D01*
X29112892Y-87830441D01*
X29003400Y-87715375D01*
X28955330Y-87571038D01*
X28949153Y-87380268D01*
X28950029Y-87364423D01*
X29018444Y-87133101D01*
X29165950Y-86931463D01*
X29355949Y-86810747D01*
X29411530Y-86804756D01*
X29580437Y-86823285D01*
X29788885Y-86873330D01*
X29908843Y-86907687D01*
X30063058Y-86945074D01*
X30131462Y-86951523D01*
X30131362Y-86947607D01*
X30088210Y-86869739D01*
X29984507Y-86709118D01*
X29833811Y-86486281D01*
X29649682Y-86221767D01*
X29148756Y-85511157D01*
X28964678Y-85801417D01*
X28732152Y-86120244D01*
X28381990Y-86470087D01*
X28001139Y-86732025D01*
X27603801Y-86907700D01*
X27204175Y-86998756D01*
X26816464Y-87006834D01*
X26454867Y-86933579D01*
X26133585Y-86780631D01*
X25866819Y-86549634D01*
X25668769Y-86242231D01*
X25553637Y-85860063D01*
X25541844Y-85562011D01*
X26567382Y-85562011D01*
X26654549Y-85775819D01*
X26838395Y-85914753D01*
X26953412Y-85948757D01*
X27235440Y-85940444D01*
X27529884Y-85822289D01*
X27815534Y-85604889D01*
X28071182Y-85298840D01*
X28094551Y-85264006D01*
X28239345Y-85030800D01*
X28292965Y-84878836D01*
X28246726Y-84787589D01*
X28091940Y-84736534D01*
X27819922Y-84705147D01*
X27553871Y-84679236D01*
X27303012Y-84649034D01*
X27129007Y-84621751D01*
X26982081Y-84607352D01*
X26883597Y-84658275D01*
X26781183Y-84801699D01*
X26686437Y-84975052D01*
X26577731Y-85289650D01*
X26567382Y-85562011D01*
X25541844Y-85562011D01*
X25535623Y-85404774D01*
X25605709Y-84960035D01*
X25763015Y-84549039D01*
X26020587Y-84161579D01*
X26392636Y-83770554D01*
X26514330Y-83660088D01*
X26708384Y-83493620D01*
X26856943Y-83378533D01*
X26935005Y-83334910D01*
X26945239Y-83332684D01*
X26913807Y-83298821D01*
X26792185Y-83237844D01*
X26777357Y-83231291D01*
X26680522Y-83179461D01*
X26599006Y-83110354D01*
X26529939Y-83011238D01*
X26470447Y-82869379D01*
X26417659Y-82672046D01*
X26368702Y-82406504D01*
X26320704Y-82060022D01*
X26270793Y-81619866D01*
X26216096Y-81073303D01*
X26153742Y-80407602D01*
X26145304Y-80313511D01*
X26133725Y-80106598D01*
X26150173Y-79974221D01*
X26204828Y-79873781D01*
X26307872Y-79762680D01*
X26397476Y-79680338D01*
X26547540Y-79586540D01*
X26705732Y-79559320D01*
X26889106Y-79604099D01*
X26982081Y-79654458D01*
X27114716Y-79726299D01*
X27399616Y-79931344D01*
G37*
G36*
X28400903Y-82905347D02*
G01*
X28421454Y-82925737D01*
X28582785Y-83062621D01*
X28736297Y-83124207D01*
X28946606Y-83138049D01*
X29039476Y-83135291D01*
X29232565Y-83113661D01*
X29352189Y-83077791D01*
X29365726Y-83070568D01*
X29487106Y-83079454D01*
X29666784Y-83194559D01*
X29887783Y-83370572D01*
X29331937Y-83389585D01*
X29190815Y-83393759D01*
X28951573Y-83392337D01*
X28781062Y-83369264D01*
X28635634Y-83316174D01*
X28471639Y-83224702D01*
X28467024Y-83221910D01*
X28282042Y-83094945D01*
X28191300Y-82984187D01*
X28167187Y-82856219D01*
X28167187Y-82671631D01*
X28400903Y-82905347D01*
G37*
G36*
X28663281Y-79589637D02*
G01*
X28600987Y-79628767D01*
X28394612Y-79766113D01*
X28229025Y-79886419D01*
X28059351Y-80020016D01*
X27780083Y-79799024D01*
X27671293Y-79705649D01*
X27573630Y-79598143D01*
X27559854Y-79541544D01*
X27600693Y-79530128D01*
X27754483Y-79508543D01*
X27989239Y-79485967D01*
X28273378Y-79465755D01*
X28927865Y-79426453D01*
X28663281Y-79589637D01*
G37*
G36*
X27748164Y-62614057D02*
G01*
X28075424Y-62621529D01*
X28853168Y-62642276D01*
X28438382Y-62904540D01*
X28023596Y-63166803D01*
X27812708Y-62983011D01*
X27778095Y-62953249D01*
X27600272Y-62809456D01*
X27449750Y-62699999D01*
X27419022Y-62678842D01*
X27388523Y-62644156D01*
X27421814Y-62623226D01*
X27535994Y-62613908D01*
X27748164Y-62614057D01*
G37*
G36*
X33390508Y-27250508D02*
G01*
X33406167Y-27538476D01*
X33464017Y-27784179D01*
X33581813Y-28044258D01*
X33678433Y-28230386D01*
X33752927Y-28390490D01*
X33765216Y-28462024D01*
X33716426Y-28460528D01*
X33607682Y-28401542D01*
X33559308Y-28371276D01*
X33334027Y-28167807D01*
X33199233Y-27901146D01*
X33140134Y-27544171D01*
X33135730Y-27465955D01*
X33137038Y-27248315D01*
X33172574Y-27101908D01*
X33251505Y-26980329D01*
X33388307Y-26815885D01*
X33390508Y-27250508D01*
G37*
G36*
X33305817Y-18253467D02*
G01*
X33276261Y-18359804D01*
X33180287Y-18564419D01*
X33121204Y-18688830D01*
X33018333Y-19007252D01*
X33011165Y-19307935D01*
X33095758Y-19641064D01*
X33156095Y-19836150D01*
X33161244Y-19939028D01*
X33100615Y-19931971D01*
X32971366Y-19819046D01*
X32919984Y-19762894D01*
X32756340Y-19472983D01*
X32700481Y-19142787D01*
X32760776Y-18812320D01*
X32866828Y-18597937D01*
X33053324Y-18367861D01*
X33262969Y-18234225D01*
X33272465Y-18231388D01*
X33305817Y-18253467D01*
G37*
G36*
X32564127Y-24796275D02*
G01*
X32548967Y-24984316D01*
X32556713Y-25280550D01*
X32668912Y-25593648D01*
X32890609Y-25837272D01*
X32985424Y-25912617D01*
X33001192Y-25955620D01*
X32919690Y-25977627D01*
X32879593Y-25980948D01*
X32688975Y-25926192D01*
X32502413Y-25778086D01*
X32356092Y-25563235D01*
X32325779Y-25488186D01*
X32285790Y-25223104D01*
X32332159Y-24967970D01*
X32458405Y-24772841D01*
X32512913Y-24726522D01*
X32555254Y-24717687D01*
X32564127Y-24796275D01*
G37*
G36*
X32275502Y-21741322D02*
G01*
X32258477Y-21775576D01*
X32063137Y-22290184D01*
X31976692Y-22801218D01*
X32003992Y-23281158D01*
X32054984Y-23485047D01*
X32155055Y-23769956D01*
X32277816Y-24047082D01*
X32405059Y-24276228D01*
X32518574Y-24417193D01*
X32576124Y-24490478D01*
X32533155Y-24518301D01*
X32412431Y-24498949D01*
X32237369Y-24431252D01*
X32165409Y-24393966D01*
X31856296Y-24148773D01*
X31618316Y-23812173D01*
X31464976Y-23408170D01*
X31409786Y-22960766D01*
X31409871Y-22932951D01*
X31468398Y-22469652D01*
X31627784Y-22061793D01*
X31877773Y-21728292D01*
X32208112Y-21488070D01*
X32471060Y-21353924D01*
X32275502Y-21741322D01*
G37*
G36*
X31538374Y-24654016D02*
G01*
X31540625Y-24851989D01*
X31564442Y-25152691D01*
X31681909Y-25507753D01*
X31901692Y-25790624D01*
X32000591Y-25888765D01*
X32027939Y-25950556D01*
X31967776Y-25979029D01*
X31884508Y-25976154D01*
X31711142Y-25892690D01*
X31534342Y-25732074D01*
X31388333Y-25521339D01*
X31388033Y-25520767D01*
X31302901Y-25232401D01*
X31319366Y-24925880D01*
X31434510Y-24655919D01*
X31490467Y-24581277D01*
X31524976Y-24569916D01*
X31538374Y-24654016D01*
G37*
G36*
X28233548Y-4845426D02*
G01*
X28351040Y-4971223D01*
X28380956Y-5044961D01*
X28424113Y-5276652D01*
X28413253Y-5517563D01*
X28356131Y-5732820D01*
X28260500Y-5887548D01*
X28134115Y-5946875D01*
X28119451Y-5946188D01*
X27992681Y-5875210D01*
X27899310Y-5710981D01*
X27847475Y-5486829D01*
X27845315Y-5236082D01*
X27900967Y-4992066D01*
X27950723Y-4905930D01*
X28084614Y-4824379D01*
X28233548Y-4845426D01*
G37*
G36*
X16282184Y-71733865D02*
G01*
X16203022Y-71847394D01*
X16073592Y-72010026D01*
X15867921Y-72285019D01*
X15644096Y-72700896D01*
X15533895Y-73099017D01*
X15539952Y-73467875D01*
X15664900Y-73795963D01*
X15715686Y-73885000D01*
X15750250Y-73988883D01*
X15694755Y-73995965D01*
X15547673Y-73907703D01*
X15367176Y-73727301D01*
X15243891Y-73451576D01*
X15216239Y-73129076D01*
X15282468Y-72782069D01*
X15440828Y-72432822D01*
X15689567Y-72103601D01*
X15798447Y-71998584D01*
X15987988Y-71848750D01*
X16167017Y-71738652D01*
X16294663Y-71695833D01*
X16282184Y-71733865D01*
G37*
G36*
X15503506Y-5221673D02*
G01*
X15577154Y-5258525D01*
X15562862Y-5368098D01*
X15515269Y-5510294D01*
X15455876Y-5620366D01*
X15402322Y-5609185D01*
X15344221Y-5482171D01*
X15298297Y-5349302D01*
X15279308Y-5253335D01*
X15321808Y-5221855D01*
X15438572Y-5219270D01*
X15503506Y-5221673D01*
G37*
G36*
X11361965Y-67973755D02*
G01*
X11268540Y-68173041D01*
X11149497Y-68458651D01*
X11108982Y-68799178D01*
X11196420Y-69107711D01*
X11210332Y-69134150D01*
X11343416Y-69332732D01*
X11461746Y-69402011D01*
X11567919Y-69343637D01*
X11609843Y-69303881D01*
X11749054Y-69205326D01*
X11925063Y-69100711D01*
X12089710Y-69017674D01*
X12194838Y-68983854D01*
X12199998Y-68988614D01*
X12171320Y-69060626D01*
X12087040Y-69191714D01*
X11996549Y-69327965D01*
X11762127Y-69824092D01*
X11648155Y-70346480D01*
X11655023Y-70875782D01*
X11783121Y-71392650D01*
X12032839Y-71877734D01*
X12109244Y-72000797D01*
X12154596Y-72121758D01*
X12106206Y-72152419D01*
X11962853Y-72093039D01*
X11723317Y-71943880D01*
X11615913Y-71864475D01*
X11321420Y-71547562D01*
X11125980Y-71167310D01*
X11036112Y-70749139D01*
X11058338Y-70318468D01*
X11199180Y-69900719D01*
X11362943Y-69574674D01*
X11215716Y-69518365D01*
X11050087Y-69424243D01*
X10874348Y-69201657D01*
X10787605Y-68888415D01*
X10787707Y-68604647D01*
X10891645Y-68287236D01*
X11115217Y-68023400D01*
X11148668Y-67995656D01*
X11302991Y-67886001D01*
X11373769Y-67878388D01*
X11361965Y-67973755D01*
G37*
G36*
X11996357Y-51455347D02*
G01*
X12024113Y-51480405D01*
X11992865Y-51565463D01*
X11894212Y-51734729D01*
X11770192Y-51977942D01*
X11628982Y-52383469D01*
X11533515Y-52823120D01*
X11498438Y-53241145D01*
X11518112Y-53546934D01*
X11598966Y-53984709D01*
X11728872Y-54402924D01*
X11893239Y-54745963D01*
X11937906Y-54825001D01*
X11970672Y-54935513D01*
X11917484Y-54956161D01*
X11785658Y-54887336D01*
X11582511Y-54729427D01*
X11474023Y-54638571D01*
X11345168Y-54537303D01*
X11282995Y-54497916D01*
X11270970Y-54507390D01*
X11214136Y-54599629D01*
X11136531Y-54758295D01*
X11069791Y-54965101D01*
X11070493Y-55290817D01*
X11197216Y-55638932D01*
X11243338Y-55742655D01*
X11241778Y-55811772D01*
X11163621Y-55781245D01*
X11015560Y-55650645D01*
X10930498Y-55547938D01*
X10810131Y-55277928D01*
X10782539Y-54980914D01*
X10848017Y-54697040D01*
X11006859Y-54466451D01*
X11168049Y-54317066D01*
X11020840Y-53994080D01*
X10898662Y-53603504D01*
X10867708Y-53137018D01*
X10942370Y-52669585D01*
X11117030Y-52233979D01*
X11386071Y-51862976D01*
X11503120Y-51752467D01*
X11691787Y-51605570D01*
X11868036Y-51497360D01*
X11991246Y-51455208D01*
X11996357Y-51455347D01*
G37*
G36*
X9371853Y-56816757D02*
G01*
X9391614Y-56854314D01*
X9332544Y-56948215D01*
X9185863Y-57115593D01*
X9019902Y-57313889D01*
X8759096Y-57756703D01*
X8628116Y-58218278D01*
X8627402Y-58691966D01*
X8757393Y-59171119D01*
X9018529Y-59649088D01*
X9071137Y-59726832D01*
X9168761Y-59892455D01*
X9175715Y-59969502D01*
X9087119Y-59968068D01*
X8898090Y-59898251D01*
X8814677Y-59857806D01*
X8544489Y-59660853D01*
X8297667Y-59392641D01*
X8116472Y-59096520D01*
X8087721Y-59028198D01*
X7994198Y-58616779D01*
X8012590Y-58180240D01*
X8138456Y-57749423D01*
X8367352Y-57355166D01*
X8445469Y-57270447D01*
X8651366Y-57109816D01*
X8900023Y-56962985D01*
X9145182Y-56855689D01*
X9340586Y-56813667D01*
X9371853Y-56816757D01*
G37*
G36*
X8282735Y-65661152D02*
G01*
X8247716Y-65792317D01*
X8211572Y-65940017D01*
X8182165Y-66175224D01*
X8168311Y-66439194D01*
X8168676Y-66521727D01*
X8243595Y-67018415D01*
X8440510Y-67468306D01*
X8754799Y-67860201D01*
X8759119Y-67864383D01*
X8891482Y-68003705D01*
X8929931Y-68080396D01*
X8884135Y-68113384D01*
X8775595Y-68108237D01*
X8572609Y-68032314D01*
X8344791Y-67896753D01*
X8129037Y-67724554D01*
X7962242Y-67538717D01*
X7911574Y-67457888D01*
X7786500Y-67140883D01*
X7727790Y-66781697D01*
X7740124Y-66429410D01*
X7828185Y-66133098D01*
X7840360Y-66109457D01*
X7955497Y-65917796D01*
X8074003Y-65763570D01*
X8179178Y-65660343D01*
X8254322Y-65621682D01*
X8282735Y-65661152D01*
G37*
G36*
X7802598Y-60323415D02*
G01*
X7803413Y-60381935D01*
X7706616Y-60515507D01*
X7635635Y-60608698D01*
X7465729Y-60962690D01*
X7405287Y-61351672D01*
X7456106Y-61742757D01*
X7619979Y-62103061D01*
X7626004Y-62112186D01*
X7727353Y-62280948D01*
X7740092Y-62354285D01*
X7658531Y-62337481D01*
X7476978Y-62235818D01*
X7290041Y-62067396D01*
X7140863Y-61824922D01*
X7022822Y-61546982D01*
X6830837Y-61874580D01*
X6712303Y-62095182D01*
X6496899Y-62675945D01*
X6411344Y-63265962D01*
X6455321Y-63855368D01*
X6628517Y-64434299D01*
X6930613Y-64992890D01*
X6940461Y-65007582D01*
X7062623Y-65198108D01*
X7143294Y-65339246D01*
X7165452Y-65401388D01*
X7104183Y-65412828D01*
X6955652Y-65367965D01*
X6759474Y-65270040D01*
X6547575Y-65135551D01*
X6351883Y-64980995D01*
X6097182Y-64706166D01*
X5851811Y-64299246D01*
X5703076Y-63856230D01*
X5648823Y-63397156D01*
X5686898Y-62942060D01*
X5815147Y-62510979D01*
X6031417Y-62123948D01*
X6333553Y-61801004D01*
X6719401Y-61562183D01*
X6887675Y-61475198D01*
X6977595Y-61382011D01*
X7000521Y-61257200D01*
X7002217Y-61217732D01*
X7066326Y-60982368D01*
X7203228Y-60741687D01*
X7385540Y-60528789D01*
X7585878Y-60376776D01*
X7776860Y-60318749D01*
X7802598Y-60323415D01*
G37*
G36*
X4826276Y-57616968D02*
G01*
X4933796Y-57648114D01*
X4915047Y-57705568D01*
X4768099Y-57788087D01*
X4670480Y-57837645D01*
X4389937Y-58024986D01*
X4093038Y-58272886D01*
X3820275Y-58545633D01*
X3612140Y-58807518D01*
X3568361Y-58875040D01*
X3365230Y-59256057D01*
X3238201Y-59651534D01*
X3178711Y-60097419D01*
X3178200Y-60629662D01*
X3208623Y-61313719D01*
X3052615Y-61167157D01*
X2971933Y-61073570D01*
X2840406Y-60878116D01*
X2716142Y-60653135D01*
X2579895Y-60264205D01*
X2523014Y-59785658D01*
X2566711Y-59301222D01*
X2711106Y-58853263D01*
X2815992Y-58654515D01*
X3133134Y-58238381D01*
X3529311Y-57920519D01*
X3990709Y-57710451D01*
X4503516Y-57617699D01*
X4594418Y-57613372D01*
X4826276Y-57616968D01*
G37*
G36*
X6529869Y-5219860D02*
G01*
X6588876Y-5240445D01*
X6584213Y-5316226D01*
X6527977Y-5482739D01*
X6452308Y-5699803D01*
X6364956Y-5542219D01*
X6353809Y-5521784D01*
X6283636Y-5345603D01*
X6310872Y-5248824D01*
X6438281Y-5219270D01*
X6529869Y-5219860D01*
G37*
G36*
X5298654Y-23646214D02*
G01*
X5246891Y-23765061D01*
X5103342Y-24049003D01*
X5064302Y-24339610D01*
X5143834Y-24638071D01*
X5179056Y-24709912D01*
X5302580Y-24898891D01*
X5428437Y-25024461D01*
X5443763Y-25034770D01*
X5551423Y-25153624D01*
X5560285Y-25321721D01*
X5559607Y-25481254D01*
X5602816Y-25635821D01*
X5619001Y-25664048D01*
X5669993Y-25771208D01*
X5641261Y-25773897D01*
X5530757Y-25673175D01*
X5459508Y-25594095D01*
X5418835Y-25482007D01*
X5458865Y-25327747D01*
X5501293Y-25195389D01*
X5477847Y-25139280D01*
X5367588Y-25129166D01*
X5343998Y-25127687D01*
X5169950Y-25058774D01*
X4976458Y-24904270D01*
X4853558Y-24766842D01*
X4772315Y-24605687D01*
X4751563Y-24403828D01*
X4763337Y-24219079D01*
X4852771Y-23941292D01*
X5040424Y-23725038D01*
X5146952Y-23649409D01*
X5259498Y-23606531D01*
X5298654Y-23646214D01*
G37*
G36*
X5178253Y-20764833D02*
G01*
X5348279Y-20782004D01*
X5440202Y-20812771D01*
X5444321Y-20818422D01*
X5406508Y-20863654D01*
X5277448Y-20905356D01*
X5089617Y-20968244D01*
X4891977Y-21077857D01*
X4811698Y-21146147D01*
X4727622Y-21258648D01*
X4654309Y-21427634D01*
X4572723Y-21689583D01*
X4535367Y-21750255D01*
X4493496Y-21715275D01*
X4458911Y-21609828D01*
X4441691Y-21465315D01*
X4451913Y-21313142D01*
X4468081Y-21243956D01*
X4601952Y-20987724D01*
X4823682Y-20822253D01*
X5113999Y-20763541D01*
X5178253Y-20764833D01*
G37*
G36*
X3335300Y-21033550D02*
G01*
X3353518Y-21064708D01*
X3293942Y-21143814D01*
X3148121Y-21293085D01*
X3003485Y-21444804D01*
X2924780Y-21568305D01*
X2901626Y-21708707D01*
X2913298Y-21921471D01*
X2921144Y-22071909D01*
X2915241Y-22225413D01*
X2892135Y-22284895D01*
X2821883Y-22250744D01*
X2731301Y-22121234D01*
X2662322Y-21934886D01*
X2634896Y-21734396D01*
X2644331Y-21601993D01*
X2709227Y-21431670D01*
X2859792Y-21253020D01*
X2896668Y-21217715D01*
X3086259Y-21079751D01*
X3248885Y-21028125D01*
X3335300Y-21033550D01*
G37*
G36*
X38757219Y-71059017D02*
G01*
X39026259Y-71130828D01*
X38846499Y-71285450D01*
X38792816Y-71329223D01*
X38669307Y-71390485D01*
X38588579Y-71336848D01*
X38528672Y-71159619D01*
X38513597Y-71091361D01*
X38517908Y-71024018D01*
X38588933Y-71017718D01*
X38757219Y-71059017D01*
G37*
G36*
X37658753Y-65611547D02*
G01*
X37855972Y-65625815D01*
X37986122Y-65651214D01*
X38044227Y-65697921D01*
X38018577Y-65779999D01*
X37890694Y-65903329D01*
X37652946Y-66077681D01*
X37604058Y-66110693D01*
X37443142Y-66198540D01*
X37349530Y-66189871D01*
X37305996Y-66073069D01*
X37295313Y-65836517D01*
X37296888Y-65742831D01*
X37322035Y-65650531D01*
X37406817Y-65615761D01*
X37587559Y-65610416D01*
X37658753Y-65611547D01*
G37*
%TD*%
M02*
