<?xml version="1.0" encoding="UTF-8" standalone="no"?>
<svg
   width="76.869003mm"
   height="41.064579mm"
   viewBox="0 0 76.869004 41.064578"
   version="1.1"
   id="svg8"
   sodipodi:docname="3MM Acrylic.svg"
   inkscape:version="1.1 (c68e22c387, 2021-05-23)"
   xmlns:inkscape="http://www.inkscape.org/namespaces/inkscape"
   xmlns:sodipodi="http://sodipodi.sourceforge.net/DTD/sodipodi-0.dtd"
   xmlns="http://www.w3.org/2000/svg"
   xmlns:svg="http://www.w3.org/2000/svg">
  <defs
     id="defs12" />
  <sodipodi:namedview
     id="namedview10"
     pagecolor="#ffffff"
     bordercolor="#666666"
     borderopacity="1.0"
     inkscape:pageshadow="2"
     inkscape:pageopacity="0.0"
     inkscape:pagecheckerboard="0"
     inkscape:document-units="mm"
     showgrid="false"
     lock-margins="true"
     fit-margin-top="5"
     fit-margin-left="5"
     fit-margin-right="5"
     fit-margin-bottom="5"
     inkscape:zoom="2.5429199"
     inkscape:cx="148.45139"
     inkscape:cy="136.65393"
     inkscape:window-width="1920"
     inkscape:window-height="1001"
     inkscape:window-x="-9"
     inkscape:window-y="-9"
     inkscape:window-maximized="1"
     inkscape:current-layer="svg8" />
  <desc
     id="desc2">Output from Flights of Ideas SVG Sketchup Plugin</desc>
  <path
     id="face0-cut"
     style="fill:none;stroke:#000000;stroke-width:0.264583;stroke-linecap:round;stroke-linejoin:round;stroke-miterlimit:4;stroke-dasharray:none;stroke-opacity:1"
     d="m 11.132292,20.53229 h 14 v -7.7 h -1.13759 v 1.58732 h -2.082428 v -1.58732 h -2.96 v 1.58732 h -2.04 v -1.58732 h -2.96 v 1.58732 H 11.912275 V 12.83229 H 5.1322922 v 6.4 h 5.9999998 v 1.3 m 5.279982,-4.61268 v 1.915876 h -1.96 V 15.91961 h 1.96 m 5,1.915876 h -1.96 V 15.91961 h 1.96 v 1.915876" />
  <path
     id="face0-interior"
     style="fill:none;stroke:#000000;stroke-width:0.264583;stroke-linecap:round;stroke-linejoin:round;stroke-miterlimit:4;stroke-dasharray:none;stroke-opacity:1"
     d="m 11.132292,20.53229 m 14,0 m 0,-7.7 m -1.13759,0 m 0,1.58732 m -2.082428,0 m 0,-1.58732 m -2.96,0 m 0,1.58732 m -2.04,0 m 0,-1.58732 m -2.96,0 m 0,1.58732 m -2.039999,0 m 0,-1.58732 m -6.7799828,0 m 0,6.4 m 5.9999998,0 m 5.279982,-3.31268 m 0,1.915876 m -1.96,0 m 0,-1.915876 m 6.96,1.915876 m -1.96,0 m 0,-1.915876 m 1.96,0" />
  <path
     id="path6"
     style="fill:none;stroke:#000000;stroke-width:0.264583;stroke-linecap:round;stroke-linejoin:round;stroke-miterlimit:4;stroke-dasharray:none;stroke-opacity:1"
     d="m 11.132292,20.53229 m 14,0 m 0,-7.7 m -1.13759,0 m 0,1.58732 m -2.082428,0 m 0,-1.58732 m -2.96,0 m 0,1.58732 m -2.04,0 m 0,-1.58732 m -2.96,0 m 0,1.58732 m -2.039999,0 m 0,-1.58732 m -6.7799828,0 m 0,6.4 m 5.9999998,0 m 5.279982,-3.31268 m 0,1.915876 m -1.96,0 m 0,-1.915876 m 6.96,1.915876 m -1.96,0 m 0,-1.915876 m 1.96,0" />
  <path
     id="face0-cut-4"
     style="fill:none;stroke:#000000;stroke-width:0.264583;stroke-linecap:round;stroke-linejoin:round;stroke-miterlimit:4;stroke-dasharray:none;stroke-opacity:1"
     d="m 11.132291,20.53229 h 14.000001 v 7.699999 h -1.13759 v -1.58732 h -2.082428 v 1.58732 h -2.96 v -1.58732 h -2.04 v 1.58732 h -2.96 v -1.58732 h -2.04 v 1.58732 H 5.1322918 V 21.83229 h 5.9999992 v -1.3 m 5.279983,4.612679 v -1.915875 h -1.96 v 1.915875 h 1.96 m 5,-1.915875 h -1.96 v 1.915875 h 1.96 v -1.915875" />
  <path
     id="face0-interior-5"
     style="fill:none;stroke:#000000;stroke-width:0.264583;stroke-linecap:round;stroke-linejoin:round;stroke-miterlimit:4;stroke-dasharray:none;stroke-opacity:1"
     d="m 11.132291,28.232289 m 14.000001,0 m 0,-7.699999 m -1.13759,0 m 0,1.58732 m -2.082428,0 m 0,-1.58732 m -2.96,0 m 0,1.58732 m -2.04,0 m 0,-1.58732 m -2.96,0 m 0,1.58732 m -2.04,0 m 0,-1.58732 m -6.7799822,0 m 0,6.399999 m 5.9999992,0 m 5.279983,-3.312679 m 0,1.915875 m -1.96,0 m 0,-1.915875 m 6.96,1.915875 m -1.96,0 m 0,-1.915875 m 1.96,0" />
  <path
     id="path6-1"
     style="fill:none;stroke:#000000;stroke-width:0.264583;stroke-linecap:round;stroke-linejoin:round;stroke-miterlimit:4;stroke-dasharray:none;stroke-opacity:1"
     d="m 11.132291,28.232289 m 14.000001,0 m 0,-7.699999 m -1.13759,0 m 0,1.58732 m -2.082428,0 m 0,-1.58732 m -2.96,0 m 0,1.58732 m -2.04,0 m 0,-1.58732 m -2.96,0 m 0,1.58732 m -2.04,0 m 0,-1.58732 m -6.7799822,0 m 0,6.399999 m 5.9999992,0 m 5.279983,-3.312679 m 0,1.915875 m -1.96,0 m 0,-1.915875 m 6.96,1.915875 m -1.96,0 m 0,-1.915875 m 1.96,0" />
  <path
     id="face0-cut-4-0"
     style="fill:none;stroke:#000000;stroke-width:0.264583;stroke-linecap:round;stroke-linejoin:round;stroke-miterlimit:4;stroke-dasharray:none;stroke-opacity:1"
     d="m 11.132291,35.932288 h 14.000001 v -7.699999 h -1.13759 v 1.58732 h -2.082428 v -1.58732 h -2.96 v 1.58732 h -2.04 v -1.58732 h -2.96 v 1.58732 h -2.04 v -1.58732 H 5.1322915 v 6.399999 h 5.9999995 v 1.3 m 5.279983,-4.612679 v 1.915875 h -1.96 v -1.915875 h 1.96 m 5,1.915875 h -1.96 v -1.915875 h 1.96 v 1.915875" />
  <path
     id="face0-interior-5-2"
     style="fill:none;stroke:#000000;stroke-width:0.264583;stroke-linecap:round;stroke-linejoin:round;stroke-miterlimit:4;stroke-dasharray:none;stroke-opacity:1"
     d="m 11.132291,35.932288 m 14.000001,0 m 0,-7.699999 m -1.13759,0 m 0,1.58732 m -2.082428,0 m 0,-1.58732 m -2.96,0 m 0,1.58732 m -2.04,0 m 0,-1.58732 m -2.96,0 m 0,1.58732 m -2.04,0 m 0,-1.58732 m -6.7799825,0 m 0,6.399999 m 5.9999995,0 m 5.279983,-3.312679 m 0,1.915875 m -1.96,0 m 0,-1.915875 m 6.96,1.915875 m -1.96,0 m 0,-1.915875 m 1.96,0" />
  <path
     id="path6-1-7"
     style="fill:none;stroke:#000000;stroke-width:0.264583;stroke-linecap:round;stroke-linejoin:round;stroke-miterlimit:4;stroke-dasharray:none;stroke-opacity:1"
     d="m 11.132291,35.932288 m 14.000001,0 m 0,-7.699999 m -1.13759,0 m 0,1.58732 m -2.082428,0 m 0,-1.58732 m -2.96,0 m 0,1.58732 m -2.04,0 m 0,-1.58732 m -2.96,0 m 0,1.58732 m -2.04,0 m 0,-1.58732 m -6.7799825,0 m 0,6.399999 m 5.9999995,0 m 5.279983,-3.312679 m 0,1.915875 m -1.96,0 m 0,-1.915875 m 6.96,1.915875 m -1.96,0 m 0,-1.915875 m 1.96,0" />
  <path
     id="face0-cut-4-2"
     style="fill:none;stroke:#000000;stroke-width:0.264583;stroke-linecap:round;stroke-linejoin:round;stroke-miterlimit:4;stroke-dasharray:none;stroke-opacity:1"
     d="M 11.132291,5.1322918 H 25.132292 V 12.83229 h -1.13759 v -1.58732 h -2.082428 v 1.58732 h -2.96 v -1.58732 h -2.04 v 1.58732 h -2.96 v -1.58732 h -2.04 v 1.58732 H 5.1322916 V 6.4322913 H 11.132291 V 5.1322918 m 5.279983,4.6126785 v -1.915875 h -1.96 v 1.915875 h 1.96 m 5,-1.915875 h -1.96 v 1.915875 h 1.96 v -1.915875" />
  <path
     id="face0-cut-1"
     style="fill:none;stroke:#000000;stroke-width:0.264583;stroke-linecap:round;stroke-linejoin:round;stroke-miterlimit:4;stroke-dasharray:none;stroke-opacity:1"
     d="m 34.172293,20.53229 h 14 v -7.7 h -1.13759 v 1.58732 h -2.082428 v -1.58732 h -2.96 v 1.58732 h -2.04 v -1.58732 h -2.96 v 1.58732 h -2.04 v -1.58732 h -6.779982 v 6.4 h 6 v 1.3 m 5.279982,-4.61268 v 1.915876 h -1.96 V 15.91961 h 1.96 m 5,1.915876 h -1.96 V 15.91961 h 1.96 v 1.915876" />
  <path
     id="face0-interior-59"
     style="fill:none;stroke:#000000;stroke-width:0.264583;stroke-linecap:round;stroke-linejoin:round;stroke-miterlimit:4;stroke-dasharray:none;stroke-opacity:1"
     d="m 34.172293,20.53229 m 14,0 m 0,-7.7 m -1.13759,0 m 0,1.587321 m -2.082428,0 m 0,-1.587321 m -2.96,0 m 0,1.587321 m -2.04,0 m 0,-1.587321 m -2.96,0 m 0,1.587321 m -2.04,0 m 0,-1.587321 m -6.779982,0 m 0,6.400001 m 6,0 m 5.279982,-3.31268 m 0,1.915875 m -1.96,0 m 0,-1.915875 m 6.96,1.915875 m -1.96,0 m 0,-1.915875 m 1.96,0" />
  <path
     id="path6-5"
     style="fill:none;stroke:#000000;stroke-width:0.264583;stroke-linecap:round;stroke-linejoin:round;stroke-miterlimit:4;stroke-dasharray:none;stroke-opacity:1"
     d="m 34.172293,20.53229 m 14,0 m 0,-7.7 m -1.13759,0 m 0,1.587321 m -2.082428,0 m 0,-1.587321 m -2.96,0 m 0,1.587321 m -2.04,0 m 0,-1.587321 m -2.96,0 m 0,1.587321 m -2.04,0 m 0,-1.587321 m -6.779982,0 m 0,6.400001 m 6,0 m 5.279982,-3.31268 m 0,1.915875 m -1.96,0 m 0,-1.915875 m 6.96,1.915875 m -1.96,0 m 0,-1.915875 m 1.96,0" />
  <path
     id="face0-cut-4-6"
     style="fill:none;stroke:#000000;stroke-width:0.264583;stroke-linecap:round;stroke-linejoin:round;stroke-miterlimit:4;stroke-dasharray:none;stroke-opacity:1"
     d="m 34.172292,20.53229 h 14.000001 v 7.699999 h -1.13759 v -1.58732 h -2.082428 v 1.58732 h -2.96 v -1.58732 h -2.04 v 1.58732 h -2.96 v -1.58732 h -2.04 v 1.58732 H 28.172292 V 21.83229 h 6 v -1.3 m 5.279983,4.612679 v -1.915875 h -1.96 v 1.915875 h 1.96 m 5,-1.915875 h -1.96 v 1.915875 h 1.96 v -1.915875" />
  <path
     id="face0-interior-5-7"
     style="fill:none;stroke:#000000;stroke-width:0.264583;stroke-linecap:round;stroke-linejoin:round;stroke-miterlimit:4;stroke-dasharray:none;stroke-opacity:1"
     d="m 34.172292,28.232289 m 14.000001,0 m 0,-7.699999 m -1.13759,0 m 0,1.58732 m -2.082428,0 m 0,-1.58732 m -2.96,0 m 0,1.58732 m -2.04,0 m 0,-1.58732 m -2.96,0 m 0,1.58732 m -2.04,0 m 0,-1.58732 m -6.779983,0 m 0,6.399999 m 6,0 m 5.279983,-3.312679 m 0,1.915875 m -1.96,0 m 0,-1.915875 m 6.96,1.915875 m -1.96,0 m 0,-1.915875 m 1.96,0" />
  <path
     id="path6-1-0"
     style="fill:none;stroke:#000000;stroke-width:0.264583;stroke-linecap:round;stroke-linejoin:round;stroke-miterlimit:4;stroke-dasharray:none;stroke-opacity:1"
     d="m 34.172292,28.232289 m 14.000001,0 m 0,-7.699999 m -1.13759,0 m 0,1.58732 m -2.082428,0 m 0,-1.58732 m -2.96,0 m 0,1.58732 m -2.04,0 m 0,-1.58732 m -2.96,0 m 0,1.58732 m -2.04,0 m 0,-1.58732 m -6.779983,0 m 0,6.399999 m 6,0 m 5.279983,-3.312679 m 0,1.915875 m -1.96,0 m 0,-1.915875 m 6.96,1.915875 m -1.96,0 m 0,-1.915875 m 1.96,0" />
  <path
     id="face0-cut-4-0-3"
     style="fill:none;stroke:#000000;stroke-width:0.264583;stroke-linecap:round;stroke-linejoin:round;stroke-miterlimit:4;stroke-dasharray:none;stroke-opacity:1"
     d="m 34.172292,35.932288 h 14.000001 v -7.699999 h -1.13759 v 1.58732 h -2.082428 v -1.58732 h -2.96 v 1.58732 h -2.04 v -1.58732 h -2.96 v 1.58732 h -2.04 v -1.58732 h -6.779983 v 6.399999 h 6 v 1.3 m 5.279983,-4.612679 v 1.915875 h -1.96 v -1.915875 h 1.96 m 5,1.915875 h -1.96 v -1.915875 h 1.96 v 1.915875" />
  <path
     id="face0-interior-5-2-5"
     style="fill:none;stroke:#000000;stroke-width:0.264583;stroke-linecap:round;stroke-linejoin:round;stroke-miterlimit:4;stroke-dasharray:none;stroke-opacity:1"
     d="m 34.172292,35.932288 m 14.000001,0 m 0,-7.699999 m -1.13759,0 m 0,1.58732 m -2.082428,0 m 0,-1.58732 m -2.96,0 m 0,1.58732 m -2.04,0 m 0,-1.58732 m -2.96,0 m 0,1.58732 m -2.04,0 m 0,-1.58732 m -6.779983,0 m 0,6.399999 m 6,0 m 5.279983,-3.312679 m 0,1.915875 m -1.96,0 m 0,-1.915875 m 6.96,1.915875 m -1.96,0 m 0,-1.915875 m 1.96,0" />
  <path
     id="path6-1-7-9"
     style="fill:none;stroke:#000000;stroke-width:0.264583;stroke-linecap:round;stroke-linejoin:round;stroke-miterlimit:4;stroke-dasharray:none;stroke-opacity:1"
     d="m 34.172292,35.932288 m 14.000001,0 m 0,-7.699999 m -1.13759,0 m 0,1.58732 m -2.082428,0 m 0,-1.58732 m -2.96,0 m 0,1.58732 m -2.04,0 m 0,-1.58732 m -2.96,0 m 0,1.58732 m -2.04,0 m 0,-1.58732 m -6.779983,0 m 0,6.399999 m 6,0 m 5.279983,-3.312679 m 0,1.915875 m -1.96,0 m 0,-1.915875 m 6.96,1.915875 m -1.96,0 m 0,-1.915875 m 1.96,0" />
  <path
     id="face0-cut-4-2-0"
     style="fill:none;stroke:#000000;stroke-width:0.264583;stroke-linecap:round;stroke-linejoin:round;stroke-miterlimit:4;stroke-dasharray:none;stroke-opacity:1"
     d="M 34.172292,5.1322918 H 48.172293 V 12.83229 h -1.13759 v -1.587319 h -2.082428 v 1.587319 h -2.96 v -1.587319 h -2.04 v 1.587319 h -2.96 v -1.587319 h -2.04 V 12.83229 H 28.172292 V 6.4322908 h 6 v -1.299999 m 5.279983,4.612679 v -1.915875 h -1.96 v 1.915875 h 1.96 m 5,-1.915875 h -1.96 v 1.915875 h 1.96 v -1.915875" />
  <path
     id="face0-cut-5"
     style="fill:none;stroke:#000000;stroke-width:0.264583;stroke-linecap:round;stroke-linejoin:round;stroke-miterlimit:4;stroke-dasharray:none;stroke-opacity:1"
     d="m 57.736703,20.53229 h 14 v -7.7 h -1.13759 v 1.58732 h -2.082428 v -1.58732 h -2.96 v 1.58732 h -2.04 v -1.58732 h -2.96 v 1.58732 h -2.04 v -1.58732 h -6.779982 v 6.4 h 6 v 1.3 m 5.279982,-4.61268 v 1.915876 h -1.96 V 15.91961 h 1.96 m 5,1.915876 h -1.96 V 15.91961 h 1.96 v 1.915876" />
  <path
     id="face0-interior-6"
     style="fill:none;stroke:#000000;stroke-width:0.264583;stroke-linecap:round;stroke-linejoin:round;stroke-miterlimit:4;stroke-dasharray:none;stroke-opacity:1"
     d="m 57.736703,20.53229 m 14,0 m 0,-7.7 m -1.13759,0 m 0,1.58732 m -2.082428,0 m 0,-1.58732 m -2.96,0 m 0,1.58732 m -2.04,0 m 0,-1.58732 m -2.96,0 m 0,1.58732 m -2.04,0 m 0,-1.58732 m -6.779982,0 m 0,6.4 m 6,0 m 5.279982,-3.31268 m 0,1.915876 m -1.96,0 m 0,-1.915876 m 6.96,1.915876 m -1.96,0 m 0,-1.915876 m 1.96,0" />
  <path
     id="path6-6"
     style="fill:none;stroke:#000000;stroke-width:0.264583;stroke-linecap:round;stroke-linejoin:round;stroke-miterlimit:4;stroke-dasharray:none;stroke-opacity:1"
     d="m 57.736703,20.53229 m 14,0 m 0,-7.7 m -1.13759,0 m 0,1.58732 m -2.082428,0 m 0,-1.58732 m -2.96,0 m 0,1.58732 m -2.04,0 m 0,-1.58732 m -2.96,0 m 0,1.58732 m -2.04,0 m 0,-1.58732 m -6.779982,0 m 0,6.4 m 6,0 m 5.279982,-3.31268 m 0,1.915876 m -1.96,0 m 0,-1.915876 m 6.96,1.915876 m -1.96,0 m 0,-1.915876 m 1.96,0" />
  <path
     id="face0-cut-4-3"
     style="fill:none;stroke:#000000;stroke-width:0.264583;stroke-linecap:round;stroke-linejoin:round;stroke-miterlimit:4;stroke-dasharray:none;stroke-opacity:1"
     d="m 57.736702,20.53229 h 14.000001 v 7.699999 h -1.13759 v -1.58732 h -2.082428 v 1.58732 h -2.96 v -1.58732 h -2.04 v 1.58732 h -2.96 v -1.58732 h -2.04 v 1.58732 H 51.736702 V 21.83229 h 6 v -1.3 m 5.279983,4.612679 v -1.915875 h -1.96 v 1.915875 h 1.96 m 5,-1.915875 h -1.96 v 1.915875 h 1.96 v -1.915875" />
  <path
     id="face0-interior-5-6"
     style="fill:none;stroke:#000000;stroke-width:0.264583;stroke-linecap:round;stroke-linejoin:round;stroke-miterlimit:4;stroke-dasharray:none;stroke-opacity:1"
     d="m 57.736702,28.232289 m 14.000001,0 m 0,-7.699999 m -1.13759,0 m 0,1.58732 m -2.082428,0 m 0,-1.58732 m -2.96,0 m 0,1.58732 m -2.04,0 m 0,-1.58732 m -2.96,0 m 0,1.58732 m -2.04,0 m 0,-1.58732 m -6.779983,0 m 0,6.399999 m 6,0 m 5.279983,-3.312679 m 0,1.915875 m -1.96,0 m 0,-1.915875 m 6.96,1.915875 m -1.96,0 m 0,-1.915875 m 1.96,0" />
  <path
     id="path6-1-1"
     style="fill:none;stroke:#000000;stroke-width:0.264583;stroke-linecap:round;stroke-linejoin:round;stroke-miterlimit:4;stroke-dasharray:none;stroke-opacity:1"
     d="m 57.736702,28.232289 m 14.000001,0 m 0,-7.699999 m -1.13759,0 m 0,1.58732 m -2.082428,0 m 0,-1.58732 m -2.96,0 m 0,1.58732 m -2.04,0 m 0,-1.58732 m -2.96,0 m 0,1.58732 m -2.04,0 m 0,-1.58732 m -6.779983,0 m 0,6.399999 m 6,0 m 5.279983,-3.312679 m 0,1.915875 m -1.96,0 m 0,-1.915875 m 6.96,1.915875 m -1.96,0 m 0,-1.915875 m 1.96,0" />
  <path
     id="face0-cut-4-0-2"
     style="fill:none;stroke:#000000;stroke-width:0.264583;stroke-linecap:round;stroke-linejoin:round;stroke-miterlimit:4;stroke-dasharray:none;stroke-opacity:1"
     d="m 57.736702,35.932288 h 14.000001 v -7.699999 h -1.13759 v 1.58732 h -2.082428 v -1.58732 h -2.96 v 1.58732 h -2.04 v -1.58732 h -2.96 v 1.58732 h -2.04 v -1.58732 h -6.779983 v 6.399999 h 6 v 1.3 m 5.279983,-4.612679 v 1.915875 h -1.96 v -1.915875 h 1.96 m 5,1.915875 h -1.96 v -1.915875 h 1.96 v 1.915875" />
  <path
     id="face0-interior-5-2-8"
     style="fill:none;stroke:#000000;stroke-width:0.264583;stroke-linecap:round;stroke-linejoin:round;stroke-miterlimit:4;stroke-dasharray:none;stroke-opacity:1"
     d="m 57.736702,35.932288 m 14.000001,0 m 0,-7.699999 m -1.13759,0 m 0,1.58732 m -2.082428,0 m 0,-1.58732 m -2.96,0 m 0,1.58732 m -2.04,0 m 0,-1.58732 m -2.96,0 m 0,1.58732 m -2.04,0 m 0,-1.58732 m -6.779983,0 m 0,6.399999 m 6,0 m 5.279983,-3.312679 m 0,1.915875 m -1.96,0 m 0,-1.915875 m 6.96,1.915875 m -1.96,0 m 0,-1.915875 m 1.96,0" />
  <path
     id="path6-1-7-6"
     style="fill:none;stroke:#000000;stroke-width:0.264583;stroke-linecap:round;stroke-linejoin:round;stroke-miterlimit:4;stroke-dasharray:none;stroke-opacity:1"
     d="m 57.736702,35.932288 m 14.000001,0 m 0,-7.699999 m -1.13759,0 m 0,1.58732 m -2.082428,0 m 0,-1.58732 m -2.96,0 m 0,1.58732 m -2.04,0 m 0,-1.58732 m -2.96,0 m 0,1.58732 m -2.04,0 m 0,-1.58732 m -6.779983,0 m 0,6.399999 m 6,0 m 5.279983,-3.312679 m 0,1.915875 m -1.96,0 m 0,-1.915875 m 6.96,1.915875 m -1.96,0 m 0,-1.915875 m 1.96,0" />
  <path
     id="face0-cut-4-2-6"
     style="fill:none;stroke:#000000;stroke-width:0.264583;stroke-linecap:round;stroke-linejoin:round;stroke-miterlimit:4;stroke-dasharray:none;stroke-opacity:1"
     d="M 57.736702,5.1322915 H 71.736703 V 12.83229 h -1.13759 v -1.58732 h -2.082428 v 1.58732 h -2.96 v -1.58732 h -2.04 v 1.58732 h -2.96 v -1.58732 h -2.04 v 1.58732 H 51.736702 V 6.432291 h 6 V 5.1322915 M 63.016685,9.74497 V 7.829095 h -1.96 V 9.74497 h 1.96 m 5,-1.915875 h -1.96 V 9.74497 h 1.96 V 7.829095" />
  <path
     id="face0-interior-5-3"
     style="fill:none;stroke:#000000;stroke-width:0.264583;stroke-linecap:round;stroke-linejoin:round;stroke-miterlimit:4;stroke-dasharray:none;stroke-opacity:1"
     d="m 31.132292,20.532289 m 14.000001,0 m 0,-7.699999 m -1.13759,0 m 0,1.58732 m -2.082428,0 m 0,-1.58732 m -2.96,0 m 0,1.58732 m -2.04,0 m 0,-1.58732 m -2.96,0 m 0,1.58732 m -2.04,0 m 0,-1.58732 m -6.779983,0 m 0,6.399999 m 6,0 m 5.279983,-3.312679 m 0,1.915875 m -1.96,0 m 0,-1.915875 m 6.96,1.915875 m -1.96,0 m 0,-1.915875 m 1.96,0" />
  <path
     id="path6-1-8"
     style="fill:none;stroke:#000000;stroke-width:0.264583;stroke-linecap:round;stroke-linejoin:round;stroke-miterlimit:4;stroke-dasharray:none;stroke-opacity:1"
     d="m 31.132292,20.532289 m 14.000001,0 m 0,-7.699999 m -1.13759,0 m 0,1.58732 m -2.082428,0 m 0,-1.58732 m -2.96,0 m 0,1.58732 m -2.04,0 m 0,-1.58732 m -2.96,0 m 0,1.58732 m -2.04,0 m 0,-1.58732 m -6.779983,0 m 0,6.399999 m 6,0 m 5.279983,-3.312679 m 0,1.915875 m -1.96,0 m 0,-1.915875 m 6.96,1.915875 m -1.96,0 m 0,-1.915875 m 1.96,0" />
  <path
     id="face0-interior-5-0"
     style="fill:none;stroke:#000000;stroke-width:0.264583;stroke-linecap:round;stroke-linejoin:round;stroke-miterlimit:4;stroke-dasharray:none;stroke-opacity:1"
     d="m 31.132292,28.232289 m 14.000001,0 m 0,-7.699999 m -1.13759,0 m 0,1.58732 m -2.082428,0 m 0,-1.58732 m -2.96,0 m 0,1.58732 m -2.04,0 m 0,-1.58732 m -2.96,0 m 0,1.58732 m -2.04,0 m 0,-1.58732 m -6.779983,0 m 0,6.399999 m 6,0 m 5.279983,-3.312679 m 0,1.915875 m -1.96,0 m 0,-1.915875 m 6.96,1.915875 m -1.96,0 m 0,-1.915875 m 1.96,0" />
  <path
     id="path6-1-5"
     style="fill:none;stroke:#000000;stroke-width:0.264583;stroke-linecap:round;stroke-linejoin:round;stroke-miterlimit:4;stroke-dasharray:none;stroke-opacity:1"
     d="m 31.132292,28.232289 m 14.000001,0 m 0,-7.699999 m -1.13759,0 m 0,1.58732 m -2.082428,0 m 0,-1.58732 m -2.96,0 m 0,1.58732 m -2.04,0 m 0,-1.58732 m -2.96,0 m 0,1.58732 m -2.04,0 m 0,-1.58732 m -6.779983,0 m 0,6.399999 m 6,0 m 5.279983,-3.312679 m 0,1.915875 m -1.96,0 m 0,-1.915875 m 6.96,1.915875 m -1.96,0 m 0,-1.915875 m 1.96,0" />
</svg>
