<?xml version="1.0" encoding="UTF-8" standalone="no"?>
<svg
   width="87.99999999999997mm"
   height="120.0mm"
   viewBox="0 0 87.99999999999997 120.0"
   version="1.1"
   id="svg8"
   sodipodi:docname="Box cutout.svg"
   inkscape:version="1.1 (c68e22c387, 2021-05-23)"
   xmlns:inkscape="http://www.inkscape.org/namespaces/inkscape"
   xmlns:sodipodi="http://sodipodi.sourceforge.net/DTD/sodipodi-0.dtd"
   xmlns="http://www.w3.org/2000/svg"
   xmlns:svg="http://www.w3.org/2000/svg">
  <defs
     id="defs12" />
  <sodipodi:namedview
     id="namedview10"
     pagecolor="#ffffff"
     bordercolor="#666666"
     borderopacity="1.0"
     inkscape:pageshadow="2"
     inkscape:pageopacity="0.0"
     inkscape:pagecheckerboard="0"
     inkscape:document-units="mm"
     showgrid="false"
     inkscape:zoom="0.83013021"
     inkscape:cx="-63.845406"
     inkscape:cy="170.45519"
     inkscape:window-width="1920"
     inkscape:window-height="1001"
     inkscape:window-x="-9"
     inkscape:window-y="-9"
     inkscape:window-maximized="1"
     inkscape:current-layer="svg8" />
  <desc
     id="desc2">Output from Flights of Ideas SVG Sketchup Plugin</desc>
  <path
     id="face0-cut"
     style="fill:none;stroke:#0000ff;stroke-width:0.264583;stroke-linecap:round;stroke-linejoin:round;stroke-miterlimit:4;stroke-dasharray:none"
     d="M 10,110 H 78 V 10 H 10 v 100"
     sodipodi:nodetypes="ccccc" />
  <path
     id="face0-interior"
     style="fill:none;stroke:#FF0000;stroke-width:0.26458333;stroke-miterlimit:4;stroke-dasharray:none;stroke-linejoin:round;stroke-linecap:round"
     d="M 10.0,110.0 M 77.99999999999997,110.0 M 77.99999999999997,10.0 M 10.0,10.0 M 56.76776695296636,75.26776695296638 M 56.24999999999996,75.6650635094611 M 55.6470476127563,75.91481456572268 M 54.99999999999997,75.99999999999994 M 54.35295238724363,75.91481456572262 M 53.749999999999986,75.66506350946105 M 53.232233047033574,75.26776695296638 M 52.83493649053891,74.75 M 52.585185434277335,74.14704761275635 M 52.5,73.5 M 52.585185434277335,72.8529523872437 M 52.83493649053891,72.25 M 53.232233047033574,71.73223304703367 M 53.749999999999986,71.33493649053895 M 54.35295238724363,71.08518543427732 M 54.99999999999997,71.0 M 55.6470476127563,71.08518543427732 M 56.24999999999996,71.33493649053895 M 56.76776695296636,71.73223304703367 M 57.16506350946103,72.25 M 57.41481456572261,72.8529523872437 M 57.49999999999994,73.5 M 57.41481456572261,74.1470476127563 M 57.16506350946103,74.75 M 54.35295238724363,59.08518543427738 M 54.99999999999997,59.0 M 55.6470476127563,59.08518543427738 M 56.24999999999996,59.334936490538894 M 56.76776695296628,59.73223304703362 M 57.16506350946103,60.25 M 57.41481456572261,60.852952387243704 M 57.49999999999994,61.5 M 57.41481456572261,62.147047612756296 M 57.16506350946103,62.74999999999994 M 56.76776695296636,63.26776695296638 M 56.24999999999996,63.665063509461106 M 55.6470476127563,63.91481456572268 M 54.99999999999997,64.0 M 54.35295238724363,63.91481456572262 M 53.749999999999986,63.665063509461106 M 53.23223304703366,63.267766952966326 M 52.83493649053891,62.74999999999994 M 52.585185434277335,62.14704761275624 M 52.5,61.5 M 52.585185434277335,60.852952387243704 M 52.83493649053891,60.25 M 53.23223304703366,59.73223304703362 M 53.749999999999986,59.334936490538894 M 53.23223304703366,47.732233047033674 M 53.749999999999986,47.33493649053895 M 54.35295238724363,47.08518543427738 M 54.99999999999997,47.0 M 55.6470476127563,47.08518543427738 M 56.24999999999996,47.334936490538894 M 56.76776695296628,47.732233047033674 M 57.16506350946103,48.25 M 57.41481456572261,48.852952387243704 M 57.49999999999994,49.5 M 57.41481456572261,50.147047612756296 M 57.16506350946103,50.75 M 56.76776695296636,51.267766952966326 M 56.24999999999996,51.66506350946105 M 55.6470476127563,51.91481456572262 M 54.99999999999997,51.99999999999994 M 54.35295238724363,51.91481456572262 M 53.749999999999986,51.665063509461106 M 53.23223304703366,51.267766952966326 M 52.83493649053891,50.75 M 52.585185434277335,50.147047612756296 M 52.5,49.5 M 52.585185434277335,48.852952387243704 M 52.83493649053891,48.25 M 37.72740661031254,37.92944763917984 M 37.99999999999996,40.0 M 37.72740661031254,42.0705523608201 M 36.92820323027553,44.0 M 35.65685424949237,45.65685424949237 M 33.99999999999996,46.92820323027553 M 32.07055236082016,47.727406610312585 M 29.999999999999986,48.0 M 27.9294476391798,47.72740661031253 M 25.99999999999997,46.92820323027553 M 24.343145750507574,45.65685424949237 M 23.0717967697244,44.00000000000006 M 22.272593389687387,42.07055236082016 M 22.0,40.0 M 22.272593389687387,37.92944763917984 M 23.071796769724415,36.0 M 24.343145750507574,34.343145750507574 M 25.99999999999997,33.07179676972447 M 27.929447639179784,32.27259338968747 M 29.999999999999986,31.999999999999943 M 32.07055236082016,32.27259338968747 M 33.99999999999996,33.07179676972447 M 35.65685424949237,34.343145750507574 M 36.92820323027553,35.99999999999994 " />
  <path
     id="path6"
     style="fill:none;stroke:#00FF00;stroke-width:0.26458333;stroke-miterlimit:4;stroke-dasharray:none;stroke-linejoin:round;stroke-linecap:round"
     d="M 10.0,110.0 M 77.99999999999997,110.0 M 77.99999999999997,10.0 M 10.0,10.0 M 56.76776695296636,75.26776695296638 M 56.24999999999996,75.6650635094611 M 55.6470476127563,75.91481456572268 M 54.99999999999997,75.99999999999994 M 54.35295238724363,75.91481456572262 M 53.749999999999986,75.66506350946105 M 53.232233047033574,75.26776695296638 M 52.83493649053891,74.75 M 52.585185434277335,74.14704761275635 M 52.5,73.5 M 52.585185434277335,72.8529523872437 M 52.83493649053891,72.25 M 53.232233047033574,71.73223304703367 M 53.749999999999986,71.33493649053895 M 54.35295238724363,71.08518543427732 M 54.99999999999997,71.0 M 55.6470476127563,71.08518543427732 M 56.24999999999996,71.33493649053895 M 56.76776695296636,71.73223304703367 M 57.16506350946103,72.25 M 57.41481456572261,72.8529523872437 M 57.49999999999994,73.5 M 57.41481456572261,74.1470476127563 M 57.16506350946103,74.75 M 54.35295238724363,59.08518543427738 M 54.99999999999997,59.0 M 55.6470476127563,59.08518543427738 M 56.24999999999996,59.334936490538894 M 56.76776695296628,59.73223304703362 M 57.16506350946103,60.25 M 57.41481456572261,60.852952387243704 M 57.49999999999994,61.5 M 57.41481456572261,62.147047612756296 M 57.16506350946103,62.74999999999994 M 56.76776695296636,63.26776695296638 M 56.24999999999996,63.665063509461106 M 55.6470476127563,63.91481456572268 M 54.99999999999997,64.0 M 54.35295238724363,63.91481456572262 M 53.749999999999986,63.665063509461106 M 53.23223304703366,63.267766952966326 M 52.83493649053891,62.74999999999994 M 52.585185434277335,62.14704761275624 M 52.5,61.5 M 52.585185434277335,60.852952387243704 M 52.83493649053891,60.25 M 53.23223304703366,59.73223304703362 M 53.749999999999986,59.334936490538894 M 53.23223304703366,47.732233047033674 M 53.749999999999986,47.33493649053895 M 54.35295238724363,47.08518543427738 M 54.99999999999997,47.0 M 55.6470476127563,47.08518543427738 M 56.24999999999996,47.334936490538894 M 56.76776695296628,47.732233047033674 M 57.16506350946103,48.25 M 57.41481456572261,48.852952387243704 M 57.49999999999994,49.5 M 57.41481456572261,50.147047612756296 M 57.16506350946103,50.75 M 56.76776695296636,51.267766952966326 M 56.24999999999996,51.66506350946105 M 55.6470476127563,51.91481456572262 M 54.99999999999997,51.99999999999994 M 54.35295238724363,51.91481456572262 M 53.749999999999986,51.665063509461106 M 53.23223304703366,51.267766952966326 M 52.83493649053891,50.75 M 52.585185434277335,50.147047612756296 M 52.5,49.5 M 52.585185434277335,48.852952387243704 M 52.83493649053891,48.25 M 37.72740661031254,37.92944763917984 M 37.99999999999996,40.0 M 37.72740661031254,42.0705523608201 M 36.92820323027553,44.0 M 35.65685424949237,45.65685424949237 M 33.99999999999996,46.92820323027553 M 32.07055236082016,47.727406610312585 M 29.999999999999986,48.0 M 27.9294476391798,47.72740661031253 M 25.99999999999997,46.92820323027553 M 24.343145750507574,45.65685424949237 M 23.0717967697244,44.00000000000006 M 22.272593389687387,42.07055236082016 M 22.0,40.0 M 22.272593389687387,37.92944763917984 M 23.071796769724415,36.0 M 24.343145750507574,34.343145750507574 M 25.99999999999997,33.07179676972447 M 27.929447639179784,32.27259338968747 M 29.999999999999986,31.999999999999943 M 32.07055236082016,32.27259338968747 M 33.99999999999996,33.07179676972447 M 35.65685424949237,34.343145750507574 M 36.92820323027553,35.99999999999994 " />
  <circle
     style="fill:none;stroke:#000000;stroke-width:0.366169;stroke-linecap:round;stroke-linejoin:round;stop-color:#000000"
     id="path865"
     cx="55"
     cy="49.5"
     r="2.2" />
  <circle
     style="fill:none;stroke:#000000;stroke-width:0.269838;stroke-linecap:round;stroke-linejoin:round;stroke-miterlimit:4;stroke-dasharray:none;stop-color:#000000"
     id="path865-9"
     cx="30"
     cy="40"
     r="7.9214797" />
  <circle
     style="fill:none;stroke:#000000;stroke-width:0.366169;stroke-linecap:round;stroke-linejoin:round;stop-color:#000000"
     id="path865-1"
     cx="55"
     cy="61.5"
     r="2.2" />
  <circle
     style="fill:none;stroke:#000000;stroke-width:0.366169;stroke-linecap:round;stroke-linejoin:round;stop-color:#000000"
     id="path865-1-7"
     cx="55"
     cy="73.5"
     r="2.2" />
</svg>
