<?xml version="1.0" encoding="UTF-8" standalone="no"?>
<svg
   width="257.0mm"
   height="100.00000000000105mm"
   viewBox="0 0 257.0 100.00000000000105"
   version="1.1"
   id="svg8"
   sodipodi:docname="CNC files.svg"
   inkscape:version="1.1 (c68e22c387, 2021-05-23)"
   xmlns:inkscape="http://www.inkscape.org/namespaces/inkscape"
   xmlns:sodipodi="http://sodipodi.sourceforge.net/DTD/sodipodi-0.dtd"
   xmlns="http://www.w3.org/2000/svg"
   xmlns:svg="http://www.w3.org/2000/svg">
  <defs
     id="defs12" />
  <sodipodi:namedview
     id="namedview10"
     pagecolor="#ffffff"
     bordercolor="#666666"
     borderopacity="1.0"
     inkscape:pageshadow="2"
     inkscape:pageopacity="0.0"
     inkscape:pagecheckerboard="0"
     inkscape:document-units="mm"
     showgrid="false"
     inkscape:zoom="0.66712062"
     inkscape:cx="468.43103"
     inkscape:cy="197.11578"
     inkscape:window-width="1920"
     inkscape:window-height="1001"
     inkscape:window-x="-9"
     inkscape:window-y="-9"
     inkscape:window-maximized="1"
     inkscape:current-layer="svg8" />
  <desc
     id="desc2">Output from Flights of Ideas SVG Sketchup Plugin</desc>
  <path
     id="face0-cut"
     style="fill:none;stroke:#0000FF;stroke-width:0.26458333;stroke-miterlimit:4;stroke-dasharray:none;stroke-linejoin:round;stroke-linecap:round"
     d="M 25.0,80.000000000001 L 231.99999999999977,80.000000000001 L 231.99999999999977,90.0000000000004 L 247.0,90.00000000000097 L 247.0,10.000000000000021 L 231.99999999999977,10.0 L 231.99999999999977,20.00000000000014 L 25.0,20.000000000000107 L 25.0,10.000000000000036 L 10.0,10.000000000000036 L 10.0,90.00000000000105 L 25.0,90.00000000000105 L 25.0,80.000000000001 M 20.58234285148069,22.326666890849808 L 21.125,22.55144284148529 L 21.590990257669773,22.909009742330554 L 21.948557158514973,23.37500000000024 L 22.173333109150462,23.9176571485196 L 22.250000000000114,24.500000000000266 L 22.173333109150462,25.082342851480913 L 21.948557158514973,25.62500000000027 L 21.590990257669773,26.090990257669958 L 21.125,26.44855715851522 L 20.58234285148069,26.673333109150615 L 20.0,26.750000000000284 L 19.417657148519424,26.673333109150615 L 18.875,26.44855715851522 L 18.40900974233034,26.090990257669958 L 18.05144284148514,25.62500000000026 L 17.82666689084965,25.082342851480913 L 17.75,24.500000000000266 L 17.82666689084965,23.9176571485196 L 18.05144284148514,23.37500000000024 L 18.40900974233034,22.909009742330554 L 18.875,22.55144284148529 L 19.417657148519424,22.326666890849896 L 20.0,22.250000000000227 L 20.58234285148069,22.326666890849808 M 20.0,73.25000000000091 L 20.58234285148069,73.32666689085056 L 21.125,73.55144284148597 L 21.590990257669773,73.90900974233122 L 21.948557158514973,74.37500000000082 L 22.173333109150462,74.91765714852028 L 22.250000000000114,75.50000000000094 L 22.173333109150462,76.08234285148158 L 21.948557158514973,76.62500000000085 L 21.590990257669773,77.09099025767063 L 21.125,77.4485571585159 L 20.58234285148069,77.67333310915129 L 20.0,77.75000000000097 L 19.417657148519424,77.67333310915129 L 18.875,77.4485571585159 L 18.40900974233034,77.09099025767063 L 18.05144284148514,76.62500000000104 L 17.826666890849538,76.08234285148158 L 17.75,75.50000000000094 L 17.82666689084965,74.91765714852028 L 18.05144284148514,74.375000000001 L 18.40900974233034,73.90900974233122 L 18.875,73.55144284148597 L 19.417657148519424,73.32666689085056 L 20.0,73.25000000000091 M 234.82666689084954,23.917657148519496 L 235.0514428414849,23.375000000000263 L 235.40900974233,22.90900974233052 L 235.87499999999977,22.551442841485223 L 236.41765714851908,22.32666689084992 L 236.99999999999977,22.250000000000284 L 237.58234285148046,22.32666689084992 L 238.125,22.551442841485304 L 238.59099025766955,22.909009742330564 L 238.94855715851486,23.375000000000206 L 239.17333310915024,23.917657148519687 L 239.24999999999977,24.500000000000256 L 239.17333310915024,25.082342851481016 L 238.94855715851486,25.625000000000234 L 238.59099025766955,26.0909902576698 L 238.125,26.448557158515197 L 237.58234285148046,26.673333109150605 L 236.99999999999977,26.750000000000306 L 236.41765714851908,26.673333109150626 L 235.87499999999977,26.448557158515243 L 235.40900974233,26.090990257669866 L 235.0514428414849,25.62500000000025 L 234.82666689084954,25.082342851480856 L 234.75,24.5000000000002 L 234.82666689084954,23.917657148519496 M 236.41765714851908,77.67333310915228 L 235.87499999999977,77.44855715851537 L 235.40900974233,77.09099025767091 L 235.0514428414849,76.62500000000105 L 234.82666689084954,76.08234285148168 L 234.75,75.50000000000176 L 234.82666689084954,74.9176571485201 L 235.0514428414849,74.37500000000014 L 235.40900974233,73.90900974233082 L 235.87499999999977,73.55144284148535 L 236.41765714851908,73.32666689085102 L 236.99999999999977,73.25000000000068 L 237.58234285148046,73.32666689085073 L 238.125,73.55144284148676 L 238.59099025766955,73.90900974233053 L 238.94855715851486,74.37500000000097 L 239.17333310915024,74.91765714852087 L 239.24999999999977,75.50000000000213 L 239.17333310915024,76.08234285148026 L 238.94855715851486,76.62500000000067 L 238.59099025766955,77.09099025767107 L 238.125,77.44855715851747 L 237.58234285148046,77.67333310914904 L 236.99999999999977,77.7500000000022 L 236.41765714851908,77.67333310915228 " />
  <path
     id="face0-interior"
     style="fill:none;stroke:#FF0000;stroke-width:0.26458333;stroke-miterlimit:4;stroke-dasharray:none;stroke-linejoin:round;stroke-linecap:round"
     d="M 25.0,80.000000000001 M 231.99999999999977,80.000000000001 M 231.99999999999977,90.0000000000004 M 247.0,90.00000000000097 M 247.0,10.000000000000021 M 231.99999999999977,10.0 M 231.99999999999977,20.00000000000014 M 25.0,20.000000000000107 M 25.0,10.000000000000036 M 10.0,10.000000000000036 M 10.0,90.00000000000105 M 25.0,90.00000000000105 M 20.58234285148069,22.326666890849808 M 21.125,22.55144284148529 M 21.590990257669773,22.909009742330554 M 21.948557158514973,23.37500000000024 M 22.173333109150462,23.9176571485196 M 22.250000000000114,24.500000000000266 M 22.173333109150462,25.082342851480913 M 21.948557158514973,25.62500000000027 M 21.590990257669773,26.090990257669958 M 21.125,26.44855715851522 M 20.58234285148069,26.673333109150615 M 20.0,26.750000000000284 M 19.417657148519424,26.673333109150615 M 18.875,26.44855715851522 M 18.40900974233034,26.090990257669958 M 18.05144284148514,25.62500000000026 M 17.82666689084965,25.082342851480913 M 17.75,24.500000000000266 M 17.82666689084965,23.9176571485196 M 18.05144284148514,23.37500000000024 M 18.40900974233034,22.909009742330554 M 18.875,22.55144284148529 M 19.417657148519424,22.326666890849896 M 20.0,22.250000000000227 M 20.0,73.25000000000091 M 20.58234285148069,73.32666689085056 M 21.125,73.55144284148597 M 21.590990257669773,73.90900974233122 M 21.948557158514973,74.37500000000082 M 22.173333109150462,74.91765714852028 M 22.250000000000114,75.50000000000094 M 22.173333109150462,76.08234285148158 M 21.948557158514973,76.62500000000085 M 21.590990257669773,77.09099025767063 M 21.125,77.4485571585159 M 20.58234285148069,77.67333310915129 M 20.0,77.75000000000097 M 19.417657148519424,77.67333310915129 M 18.875,77.4485571585159 M 18.40900974233034,77.09099025767063 M 18.05144284148514,76.62500000000104 M 17.826666890849538,76.08234285148158 M 17.75,75.50000000000094 M 17.82666689084965,74.91765714852028 M 18.05144284148514,74.375000000001 M 18.40900974233034,73.90900974233122 M 18.875,73.55144284148597 M 19.417657148519424,73.32666689085056 M 234.82666689084954,23.917657148519496 M 235.0514428414849,23.375000000000263 M 235.40900974233,22.90900974233052 M 235.87499999999977,22.551442841485223 M 236.41765714851908,22.32666689084992 M 236.99999999999977,22.250000000000284 M 237.58234285148046,22.32666689084992 M 238.125,22.551442841485304 M 238.59099025766955,22.909009742330564 M 238.94855715851486,23.375000000000206 M 239.17333310915024,23.917657148519687 M 239.24999999999977,24.500000000000256 M 239.17333310915024,25.082342851481016 M 238.94855715851486,25.625000000000234 M 238.59099025766955,26.0909902576698 M 238.125,26.448557158515197 M 237.58234285148046,26.673333109150605 M 236.99999999999977,26.750000000000306 M 236.41765714851908,26.673333109150626 M 235.87499999999977,26.448557158515243 M 235.40900974233,26.090990257669866 M 235.0514428414849,25.62500000000025 M 234.82666689084954,25.082342851480856 M 234.75,24.5000000000002 M 236.41765714851908,77.67333310915228 M 235.87499999999977,77.44855715851537 M 235.40900974233,77.09099025767091 M 235.0514428414849,76.62500000000105 M 234.82666689084954,76.08234285148168 M 234.75,75.50000000000176 M 234.82666689084954,74.9176571485201 M 235.0514428414849,74.37500000000014 M 235.40900974233,73.90900974233082 M 235.87499999999977,73.55144284148535 M 236.41765714851908,73.32666689085102 M 236.99999999999977,73.25000000000068 M 237.58234285148046,73.32666689085073 M 238.125,73.55144284148676 M 238.59099025766955,73.90900974233053 M 238.94855715851486,74.37500000000097 M 239.17333310915024,74.91765714852087 M 239.24999999999977,75.50000000000213 M 239.17333310915024,76.08234285148026 M 238.94855715851486,76.62500000000067 M 238.59099025766955,77.09099025767107 M 238.125,77.44855715851747 M 237.58234285148046,77.67333310914904 M 236.99999999999977,77.7500000000022 " />
  <path
     id="path6"
     style="fill:none;stroke:#00FF00;stroke-width:0.26458333;stroke-miterlimit:4;stroke-dasharray:none;stroke-linejoin:round;stroke-linecap:round"
     d="M 25.0,80.000000000001 M 231.99999999999977,80.000000000001 M 231.99999999999977,90.0000000000004 M 247.0,90.00000000000097 M 247.0,10.000000000000021 M 231.99999999999977,10.0 M 231.99999999999977,20.00000000000014 M 25.0,20.000000000000107 M 25.0,10.000000000000036 M 10.0,10.000000000000036 M 10.0,90.00000000000105 M 25.0,90.00000000000105 M 20.58234285148069,22.326666890849808 M 21.125,22.55144284148529 M 21.590990257669773,22.909009742330554 M 21.948557158514973,23.37500000000024 M 22.173333109150462,23.9176571485196 M 22.250000000000114,24.500000000000266 M 22.173333109150462,25.082342851480913 M 21.948557158514973,25.62500000000027 M 21.590990257669773,26.090990257669958 M 21.125,26.44855715851522 M 20.58234285148069,26.673333109150615 M 20.0,26.750000000000284 M 19.417657148519424,26.673333109150615 M 18.875,26.44855715851522 M 18.40900974233034,26.090990257669958 M 18.05144284148514,25.62500000000026 M 17.82666689084965,25.082342851480913 M 17.75,24.500000000000266 M 17.82666689084965,23.9176571485196 M 18.05144284148514,23.37500000000024 M 18.40900974233034,22.909009742330554 M 18.875,22.55144284148529 M 19.417657148519424,22.326666890849896 M 20.0,22.250000000000227 M 20.0,73.25000000000091 M 20.58234285148069,73.32666689085056 M 21.125,73.55144284148597 M 21.590990257669773,73.90900974233122 M 21.948557158514973,74.37500000000082 M 22.173333109150462,74.91765714852028 M 22.250000000000114,75.50000000000094 M 22.173333109150462,76.08234285148158 M 21.948557158514973,76.62500000000085 M 21.590990257669773,77.09099025767063 M 21.125,77.4485571585159 M 20.58234285148069,77.67333310915129 M 20.0,77.75000000000097 M 19.417657148519424,77.67333310915129 M 18.875,77.4485571585159 M 18.40900974233034,77.09099025767063 M 18.05144284148514,76.62500000000104 M 17.826666890849538,76.08234285148158 M 17.75,75.50000000000094 M 17.82666689084965,74.91765714852028 M 18.05144284148514,74.375000000001 M 18.40900974233034,73.90900974233122 M 18.875,73.55144284148597 M 19.417657148519424,73.32666689085056 M 234.82666689084954,23.917657148519496 M 235.0514428414849,23.375000000000263 M 235.40900974233,22.90900974233052 M 235.87499999999977,22.551442841485223 M 236.41765714851908,22.32666689084992 M 236.99999999999977,22.250000000000284 M 237.58234285148046,22.32666689084992 M 238.125,22.551442841485304 M 238.59099025766955,22.909009742330564 M 238.94855715851486,23.375000000000206 M 239.17333310915024,23.917657148519687 M 239.24999999999977,24.500000000000256 M 239.17333310915024,25.082342851481016 M 238.94855715851486,25.625000000000234 M 238.59099025766955,26.0909902576698 M 238.125,26.448557158515197 M 237.58234285148046,26.673333109150605 M 236.99999999999977,26.750000000000306 M 236.41765714851908,26.673333109150626 M 235.87499999999977,26.448557158515243 M 235.40900974233,26.090990257669866 M 235.0514428414849,25.62500000000025 M 234.82666689084954,25.082342851480856 M 234.75,24.5000000000002 M 236.41765714851908,77.67333310915228 M 235.87499999999977,77.44855715851537 M 235.40900974233,77.09099025767091 M 235.0514428414849,76.62500000000105 M 234.82666689084954,76.08234285148168 M 234.75,75.50000000000176 M 234.82666689084954,74.9176571485201 M 235.0514428414849,74.37500000000014 M 235.40900974233,73.90900974233082 M 235.87499999999977,73.55144284148535 M 236.41765714851908,73.32666689085102 M 236.99999999999977,73.25000000000068 M 237.58234285148046,73.32666689085073 M 238.125,73.55144284148676 M 238.59099025766955,73.90900974233053 M 238.94855715851486,74.37500000000097 M 239.17333310915024,74.91765714852087 M 239.24999999999977,75.50000000000213 M 239.17333310915024,76.08234285148026 M 238.94855715851486,76.62500000000067 M 238.59099025766955,77.09099025767107 M 238.125,77.44855715851747 M 237.58234285148046,77.67333310914904 M 236.99999999999977,77.7500000000022 " />
</svg>
