<?xml version="1.0" encoding="UTF-8" standalone="no"?>
<svg
   width="95.0mm"
   height="96.00000000000045mm"
   viewBox="0 0 95.0 96.00000000000045"
   version="1.1"
   id="svg8"
   sodipodi:docname="Device mount.svg"
   inkscape:version="1.1 (c68e22c387, 2021-05-23)"
   xmlns:inkscape="http://www.inkscape.org/namespaces/inkscape"
   xmlns:sodipodi="http://sodipodi.sourceforge.net/DTD/sodipodi-0.dtd"
   xmlns="http://www.w3.org/2000/svg"
   xmlns:svg="http://www.w3.org/2000/svg">
  <defs
     id="defs12" />
  <sodipodi:namedview
     id="namedview10"
     pagecolor="#ffffff"
     bordercolor="#666666"
     borderopacity="1.0"
     inkscape:pageshadow="2"
     inkscape:pageopacity="0.0"
     inkscape:pagecheckerboard="0"
     inkscape:document-units="mm"
     showgrid="false"
     inkscape:zoom="1.0376628"
     inkscape:cx="139.25526"
     inkscape:cy="267.42793"
     inkscape:window-width="1920"
     inkscape:window-height="1001"
     inkscape:window-x="-9"
     inkscape:window-y="-9"
     inkscape:window-maximized="1"
     inkscape:current-layer="svg8" />
  <desc
     id="desc2">Output from Flights of Ideas SVG Sketchup Plugin</desc>
  <path
     id="face0-cut"
     style="fill:none;stroke:#000000;stroke-width:0.26458333;stroke-miterlimit:4;stroke-dasharray:none;stroke-linejoin:round;stroke-linecap:round;stroke-opacity:1"
     d="M 85.0,86.00000000000045 L 85.0,10.0 L 10.0,10.0 L 10.0,86.00000000000045 L 85.0,86.00000000000045 M 79.56000762332565,78.35792609530915 L 79.99999999999989,78.30000000000064 L 80.43999237667424,78.35792609530915 L 80.84999999999991,78.52775681356707 L 81.20208152801706,78.79791847198351 L 81.47224318643339,79.15000000000066 L 81.6420739046913,79.56000762332633 L 81.69999999999993,80.00000000000057 L 81.64207390469142,80.43999237667492 L 81.47224318643339,80.85000000000059 L 81.20208152801706,81.20208152801774 L 80.84999999999991,81.47224318643418 L 80.43999237667424,81.6420739046921 L 79.99999999999989,81.70000000000061 L 79.56000762332565,81.6420739046921 L 79.14999999999998,81.47224318643418 L 78.79791847198283,81.20208152801774 L 78.52775681356638,80.85000000000059 L 78.35792609530847,80.43999237667492 L 78.29999999999995,80.00000000000057 L 78.35792609530847,79.56000762332633 L 78.52775681356638,79.15000000000066 L 78.79791847198283,78.79791847198351 L 79.14999999999998,78.52775681356707 L 79.56000762332565,78.35792609530915 M 81.47224318643339,16.85000000000082 L 81.20208152801706,17.202081528017857 L 80.84999999999991,17.472243186434298 L 80.43999237667424,17.64207390469221 L 79.99999999999989,17.70000000000084 L 79.56000762332565,17.64207390469221 L 79.14999999999998,17.472243186434298 L 78.79791847198283,17.202081528017857 L 78.52775681356638,16.85000000000082 L 78.35792609530847,16.439992376675036 L 78.29999999999984,16.000000000000796 L 78.35792609530847,15.560007623326555 L 78.52775681356638,15.150000000000773 L 78.79791847198283,14.797918471983735 L 79.14999999999998,14.527756813567294 L 79.56000762332565,14.35792609530938 L 79.99999999999989,14.300000000000864 L 80.43999237667413,14.35792609530938 L 80.84999999999991,14.527756813567294 L 81.20208152801706,14.797918471983735 L 81.47224318643339,15.150000000000773 L 81.6420739046913,15.560007623326555 L 81.69999999999993,16.000000000000796 L 81.6420739046913,16.439992376675036 L 81.47224318643339,16.85000000000082 M 16.472243186433502,16.850000000000932 L 16.20208152801706,17.202081528018084 L 15.849999999999909,17.472243186434525 L 15.43999237667424,17.642073904692438 L 14.999999999999886,17.700000000000955 L 14.560007623325646,17.642073904692438 L 14.149999999999977,17.472243186434525 L 13.797918471982825,17.202081528018084 L 13.52775681356627,16.850000000000932 L 13.357926095308471,16.439992376675264 L 13.299999999999955,16.000000000001023 L 13.357926095308585,15.560007623326783 L 13.52775681356627,15.150000000001 L 13.797918471982825,14.797918471983962 L 14.149999999999977,14.527756813567521 L 14.560007623325646,14.357926095309494 L 14.999999999999886,14.300000000000978 L 15.43999237667424,14.357926095309494 L 15.849999999999909,14.527756813567521 L 16.20208152801706,14.797918471983962 L 16.472243186433502,15.150000000001 L 16.6420739046913,15.560007623326783 L 16.699999999999932,16.000000000001023 L 16.6420739046913,16.439992376675264 L 16.472243186433502,16.850000000000932 M 16.17865260444205,81.32946119198027 L 15.908490946025609,81.68154271999754 L 15.556409418008457,81.95170437841387 L 15.146401794682788,82.12153509667155 L 14.706409418008434,82.17946119198007 L 14.266417041334194,82.12153509667166 L 13.856409418008525,81.95170437841364 L 13.504327889991373,81.6815427199972 L 13.234166231575045,81.32946119198016 L 13.064335513317133,80.91945356865438 L 13.006409418008502,80.47946119198014 L 13.064335513317019,80.0394688153059 L 13.234166231575045,79.62946119198023 L 13.504327889991373,79.27737966396296 L 13.856409418008525,79.00721800554663 L 14.266417041334194,78.83738728728872 L 14.706409418008434,78.77946119198009 L 15.146401794682788,78.83738728728872 L 15.556409418008457,79.00721800554663 L 15.908490946025609,79.27737966396307 L 16.17865260444205,79.62946119198023 L 16.348483322699963,80.03946881530601 L 16.40640941800848,80.47946119198014 L 16.348483322699963,80.91945356865449 L 16.17865260444205,81.32946119198027 M 40.00000000000216,15.500000000000568 L 40.439992376676514,15.557926095309085 L 40.85000000000218,15.727756813566998 L 41.202081528019335,15.99791847198344 L 41.472243186435776,16.35000000000059 L 41.642073904693575,16.760007623326374 L 41.700000000002206,17.2000000000005 L 41.642073904693575,17.63999237667474 L 41.472243186435776,18.050000000000523 L 41.202081528019335,18.40208152801756 L 40.85000000000218,18.672243186434002 L 40.439992376676514,18.84207390469203 L 40.00000000000216,18.900000000000546 L 39.560007623327806,18.84207390469203 L 39.15000000000214,18.672243186434002 L 38.797918471984985,18.40208152801756 L 38.527756813568544,18.050000000000523 L 38.357926095310745,17.63999237667474 L 38.30000000000223,17.2000000000005 L 38.357926095310745,16.760007623326374 L 38.527756813568544,16.35000000000059 L 38.797918471984985,15.99791847198344 L 39.15000000000214,15.727756813566998 L 39.560007623327806,15.557926095309085 L 40.00000000000216,15.500000000000568 M 41.70000000000391,78.79999999999893 L 41.64207390469528,79.23999237667329 L 41.47224318643748,79.64999999999895 L 41.20208152802104,80.0020815280161 L 40.85000000000389,80.27224318643255 L 40.43999237667822,80.44207390469046 L 40.000000000003865,80.49999999999898 L 39.560007623329625,80.44207390469046 L 39.15000000000384,80.27224318643255 L 38.79791847198669,80.0020815280161 L 38.52775681357025,79.64999999999895 L 38.35792609531245,79.23999237667329 L 38.300000000003934,78.79999999999893 L 38.35792609531245,78.36000762332469 L 38.52775681357036,77.94999999999902 L 38.79791847198669,77.59791847198187 L 39.15000000000384,77.32775681356543 L 39.560007623329625,77.15792609530752 L 40.000000000003865,77.099999999999 L 40.43999237667822,77.15792609530752 L 40.85000000000389,77.32775681356543 L 41.20208152802104,77.59791847198187 L 41.47224318643748,77.94999999999902 L 41.64207390469528,78.36000762332469 L 41.70000000000391,78.79999999999893 " />
  <path
     id="face0-interior"
     style="fill:none;stroke:#000000;stroke-width:0.26458333;stroke-miterlimit:4;stroke-dasharray:none;stroke-linejoin:round;stroke-linecap:round;stroke-opacity:1"
     d="M 85.0,86.00000000000045 M 85.0,10.0 M 10.0,10.0 M 10.0,86.00000000000045 M 79.56000762332565,78.35792609530915 M 79.99999999999989,78.30000000000064 M 80.43999237667424,78.35792609530915 M 80.84999999999991,78.52775681356707 M 81.20208152801706,78.79791847198351 M 81.47224318643339,79.15000000000066 M 81.6420739046913,79.56000762332633 M 81.69999999999993,80.00000000000057 M 81.64207390469142,80.43999237667492 M 81.47224318643339,80.85000000000059 M 81.20208152801706,81.20208152801774 M 80.84999999999991,81.47224318643418 M 80.43999237667424,81.6420739046921 M 79.99999999999989,81.70000000000061 M 79.56000762332565,81.6420739046921 M 79.14999999999998,81.47224318643418 M 78.79791847198283,81.20208152801774 M 78.52775681356638,80.85000000000059 M 78.35792609530847,80.43999237667492 M 78.29999999999995,80.00000000000057 M 78.35792609530847,79.56000762332633 M 78.52775681356638,79.15000000000066 M 78.79791847198283,78.79791847198351 M 79.14999999999998,78.52775681356707 M 81.47224318643339,16.85000000000082 M 81.20208152801706,17.202081528017857 M 80.84999999999991,17.472243186434298 M 80.43999237667424,17.64207390469221 M 79.99999999999989,17.70000000000084 M 79.56000762332565,17.64207390469221 M 79.14999999999998,17.472243186434298 M 78.79791847198283,17.202081528017857 M 78.52775681356638,16.85000000000082 M 78.35792609530847,16.439992376675036 M 78.29999999999984,16.000000000000796 M 78.35792609530847,15.560007623326555 M 78.52775681356638,15.150000000000773 M 78.79791847198283,14.797918471983735 M 79.14999999999998,14.527756813567294 M 79.56000762332565,14.35792609530938 M 79.99999999999989,14.300000000000864 M 80.43999237667413,14.35792609530938 M 80.84999999999991,14.527756813567294 M 81.20208152801706,14.797918471983735 M 81.47224318643339,15.150000000000773 M 81.6420739046913,15.560007623326555 M 81.69999999999993,16.000000000000796 M 81.6420739046913,16.439992376675036 M 16.472243186433502,16.850000000000932 M 16.20208152801706,17.202081528018084 M 15.849999999999909,17.472243186434525 M 15.43999237667424,17.642073904692438 M 14.999999999999886,17.700000000000955 M 14.560007623325646,17.642073904692438 M 14.149999999999977,17.472243186434525 M 13.797918471982825,17.202081528018084 M 13.52775681356627,16.850000000000932 M 13.357926095308471,16.439992376675264 M 13.299999999999955,16.000000000001023 M 13.357926095308585,15.560007623326783 M 13.52775681356627,15.150000000001 M 13.797918471982825,14.797918471983962 M 14.149999999999977,14.527756813567521 M 14.560007623325646,14.357926095309494 M 14.999999999999886,14.300000000000978 M 15.43999237667424,14.357926095309494 M 15.849999999999909,14.527756813567521 M 16.20208152801706,14.797918471983962 M 16.472243186433502,15.150000000001 M 16.6420739046913,15.560007623326783 M 16.699999999999932,16.000000000001023 M 16.6420739046913,16.439992376675264 M 16.17865260444205,81.32946119198027 M 15.908490946025609,81.68154271999754 M 15.556409418008457,81.95170437841387 M 15.146401794682788,82.12153509667155 M 14.706409418008434,82.17946119198007 M 14.266417041334194,82.12153509667166 M 13.856409418008525,81.95170437841364 M 13.504327889991373,81.6815427199972 M 13.234166231575045,81.32946119198016 M 13.064335513317133,80.91945356865438 M 13.006409418008502,80.47946119198014 M 13.064335513317019,80.0394688153059 M 13.234166231575045,79.62946119198023 M 13.504327889991373,79.27737966396296 M 13.856409418008525,79.00721800554663 M 14.266417041334194,78.83738728728872 M 14.706409418008434,78.77946119198009 M 15.146401794682788,78.83738728728872 M 15.556409418008457,79.00721800554663 M 15.908490946025609,79.27737966396307 M 16.17865260444205,79.62946119198023 M 16.348483322699963,80.03946881530601 M 16.40640941800848,80.47946119198014 M 16.348483322699963,80.91945356865449 M 40.00000000000216,15.500000000000568 M 40.439992376676514,15.557926095309085 M 40.85000000000218,15.727756813566998 M 41.202081528019335,15.99791847198344 M 41.472243186435776,16.35000000000059 M 41.642073904693575,16.760007623326374 M 41.700000000002206,17.2000000000005 M 41.642073904693575,17.63999237667474 M 41.472243186435776,18.050000000000523 M 41.202081528019335,18.40208152801756 M 40.85000000000218,18.672243186434002 M 40.439992376676514,18.84207390469203 M 40.00000000000216,18.900000000000546 M 39.560007623327806,18.84207390469203 M 39.15000000000214,18.672243186434002 M 38.797918471984985,18.40208152801756 M 38.527756813568544,18.050000000000523 M 38.357926095310745,17.63999237667474 M 38.30000000000223,17.2000000000005 M 38.357926095310745,16.760007623326374 M 38.527756813568544,16.35000000000059 M 38.797918471984985,15.99791847198344 M 39.15000000000214,15.727756813566998 M 39.560007623327806,15.557926095309085 M 41.70000000000391,78.79999999999893 M 41.64207390469528,79.23999237667329 M 41.47224318643748,79.64999999999895 M 41.20208152802104,80.0020815280161 M 40.85000000000389,80.27224318643255 M 40.43999237667822,80.44207390469046 M 40.000000000003865,80.49999999999898 M 39.560007623329625,80.44207390469046 M 39.15000000000384,80.27224318643255 M 38.79791847198669,80.0020815280161 M 38.52775681357025,79.64999999999895 M 38.35792609531245,79.23999237667329 M 38.300000000003934,78.79999999999893 M 38.35792609531245,78.36000762332469 M 38.52775681357036,77.94999999999902 M 38.79791847198669,77.59791847198187 M 39.15000000000384,77.32775681356543 M 39.560007623329625,77.15792609530752 M 40.000000000003865,77.099999999999 M 40.43999237667822,77.15792609530752 M 40.85000000000389,77.32775681356543 M 41.20208152802104,77.59791847198187 M 41.47224318643748,77.94999999999902 M 41.64207390469528,78.36000762332469 " />
  <path
     id="path6"
     style="fill:none;stroke:#000000;stroke-width:0.26458333;stroke-miterlimit:4;stroke-dasharray:none;stroke-linejoin:round;stroke-linecap:round;stroke-opacity:1"
     d="M 85.0,86.00000000000045 M 85.0,10.0 M 10.0,10.0 M 10.0,86.00000000000045 M 79.56000762332565,78.35792609530915 M 79.99999999999989,78.30000000000064 M 80.43999237667424,78.35792609530915 M 80.84999999999991,78.52775681356707 M 81.20208152801706,78.79791847198351 M 81.47224318643339,79.15000000000066 M 81.6420739046913,79.56000762332633 M 81.69999999999993,80.00000000000057 M 81.64207390469142,80.43999237667492 M 81.47224318643339,80.85000000000059 M 81.20208152801706,81.20208152801774 M 80.84999999999991,81.47224318643418 M 80.43999237667424,81.6420739046921 M 79.99999999999989,81.70000000000061 M 79.56000762332565,81.6420739046921 M 79.14999999999998,81.47224318643418 M 78.79791847198283,81.20208152801774 M 78.52775681356638,80.85000000000059 M 78.35792609530847,80.43999237667492 M 78.29999999999995,80.00000000000057 M 78.35792609530847,79.56000762332633 M 78.52775681356638,79.15000000000066 M 78.79791847198283,78.79791847198351 M 79.14999999999998,78.52775681356707 M 81.47224318643339,16.85000000000082 M 81.20208152801706,17.202081528017857 M 80.84999999999991,17.472243186434298 M 80.43999237667424,17.64207390469221 M 79.99999999999989,17.70000000000084 M 79.56000762332565,17.64207390469221 M 79.14999999999998,17.472243186434298 M 78.79791847198283,17.202081528017857 M 78.52775681356638,16.85000000000082 M 78.35792609530847,16.439992376675036 M 78.29999999999984,16.000000000000796 M 78.35792609530847,15.560007623326555 M 78.52775681356638,15.150000000000773 M 78.79791847198283,14.797918471983735 M 79.14999999999998,14.527756813567294 M 79.56000762332565,14.35792609530938 M 79.99999999999989,14.300000000000864 M 80.43999237667413,14.35792609530938 M 80.84999999999991,14.527756813567294 M 81.20208152801706,14.797918471983735 M 81.47224318643339,15.150000000000773 M 81.6420739046913,15.560007623326555 M 81.69999999999993,16.000000000000796 M 81.6420739046913,16.439992376675036 M 16.472243186433502,16.850000000000932 M 16.20208152801706,17.202081528018084 M 15.849999999999909,17.472243186434525 M 15.43999237667424,17.642073904692438 M 14.999999999999886,17.700000000000955 M 14.560007623325646,17.642073904692438 M 14.149999999999977,17.472243186434525 M 13.797918471982825,17.202081528018084 M 13.52775681356627,16.850000000000932 M 13.357926095308471,16.439992376675264 M 13.299999999999955,16.000000000001023 M 13.357926095308585,15.560007623326783 M 13.52775681356627,15.150000000001 M 13.797918471982825,14.797918471983962 M 14.149999999999977,14.527756813567521 M 14.560007623325646,14.357926095309494 M 14.999999999999886,14.300000000000978 M 15.43999237667424,14.357926095309494 M 15.849999999999909,14.527756813567521 M 16.20208152801706,14.797918471983962 M 16.472243186433502,15.150000000001 M 16.6420739046913,15.560007623326783 M 16.699999999999932,16.000000000001023 M 16.6420739046913,16.439992376675264 M 16.17865260444205,81.32946119198027 M 15.908490946025609,81.68154271999754 M 15.556409418008457,81.95170437841387 M 15.146401794682788,82.12153509667155 M 14.706409418008434,82.17946119198007 M 14.266417041334194,82.12153509667166 M 13.856409418008525,81.95170437841364 M 13.504327889991373,81.6815427199972 M 13.234166231575045,81.32946119198016 M 13.064335513317133,80.91945356865438 M 13.006409418008502,80.47946119198014 M 13.064335513317019,80.0394688153059 M 13.234166231575045,79.62946119198023 M 13.504327889991373,79.27737966396296 M 13.856409418008525,79.00721800554663 M 14.266417041334194,78.83738728728872 M 14.706409418008434,78.77946119198009 M 15.146401794682788,78.83738728728872 M 15.556409418008457,79.00721800554663 M 15.908490946025609,79.27737966396307 M 16.17865260444205,79.62946119198023 M 16.348483322699963,80.03946881530601 M 16.40640941800848,80.47946119198014 M 16.348483322699963,80.91945356865449 M 40.00000000000216,15.500000000000568 M 40.439992376676514,15.557926095309085 M 40.85000000000218,15.727756813566998 M 41.202081528019335,15.99791847198344 M 41.472243186435776,16.35000000000059 M 41.642073904693575,16.760007623326374 M 41.700000000002206,17.2000000000005 M 41.642073904693575,17.63999237667474 M 41.472243186435776,18.050000000000523 M 41.202081528019335,18.40208152801756 M 40.85000000000218,18.672243186434002 M 40.439992376676514,18.84207390469203 M 40.00000000000216,18.900000000000546 M 39.560007623327806,18.84207390469203 M 39.15000000000214,18.672243186434002 M 38.797918471984985,18.40208152801756 M 38.527756813568544,18.050000000000523 M 38.357926095310745,17.63999237667474 M 38.30000000000223,17.2000000000005 M 38.357926095310745,16.760007623326374 M 38.527756813568544,16.35000000000059 M 38.797918471984985,15.99791847198344 M 39.15000000000214,15.727756813566998 M 39.560007623327806,15.557926095309085 M 41.70000000000391,78.79999999999893 M 41.64207390469528,79.23999237667329 M 41.47224318643748,79.64999999999895 M 41.20208152802104,80.0020815280161 M 40.85000000000389,80.27224318643255 M 40.43999237667822,80.44207390469046 M 40.000000000003865,80.49999999999898 M 39.560007623329625,80.44207390469046 M 39.15000000000384,80.27224318643255 M 38.79791847198669,80.0020815280161 M 38.52775681357025,79.64999999999895 M 38.35792609531245,79.23999237667329 M 38.300000000003934,78.79999999999893 M 38.35792609531245,78.36000762332469 M 38.52775681357036,77.94999999999902 M 38.79791847198669,77.59791847198187 M 39.15000000000384,77.32775681356543 M 39.560007623329625,77.15792609530752 M 40.000000000003865,77.099999999999 M 40.43999237667822,77.15792609530752 M 40.85000000000389,77.32775681356543 M 41.20208152802104,77.59791847198187 M 41.47224318643748,77.94999999999902 M 41.64207390469528,78.36000762332469 " />
</svg>
