solid Input Panel Mounter
facet normal -0.999228512575368 0.03927314166727202 0.0
  outer loop
    vertex 719.2134144860021 812.3231733791334 10.000000000000007
    vertex 718.9552944378979 805.7558120532128 2.8199664825478975e-15
    vertex 718.9552944378979 805.7558120532128 10.000000000000007
  endloop
endfacet
facet normal -0.999228512575368 0.03927314166727202 0.0
  outer loop
    vertex 718.9552944378979 805.7558120532128 2.8199664825478975e-15
    vertex 719.2134144860021 812.3231733791334 10.000000000000007
    vertex 719.2134144860021 812.3231733791334 2.8199664825478975e-15
  endloop
endfacet
facet normal -0.9807722694114432 0.1951557212933486 0.0
  outer loop
    vertex 718.1825267700299 799.2289681853141 10.000000000000007
    vertex 716.8998790869181 792.7829092602469 2.8199664825478975e-15
    vertex 716.8998790869181 792.7829092602469 10.000000000000007
  endloop
endfacet
facet normal -0.9807722694114432 0.1951557212933486 0.0
  outer loop
    vertex 716.8998790869181 792.7829092602469 2.8199664825478975e-15
    vertex 718.1825267700299 799.2289681853141 10.000000000000007
    vertex 718.1825267700299 799.2289681853141 2.8199664825478975e-15
  endloop
endfacet
facet normal -0.999228512575368 -0.039273141667272554 0.0
  outer loop
    vertex 718.9552944378979 818.8905347050538 10.000000000000007
    vertex 719.2134144860021 812.3231733791334 2.8199664825478975e-15
    vertex 719.2134144860021 812.3231733791334 10.000000000000007
  endloop
endfacet
facet normal -0.999228512575368 -0.039273141667272554 0.0
  outer loop
    vertex 719.2134144860021 812.3231733791334 2.8199664825478975e-15
    vertex 718.9552944378979 818.8905347050538 10.000000000000007
    vertex 718.9552944378979 818.8905347050538 2.8199664825478975e-15
  endloop
endfacet
facet normal -0.993063753655735 -0.11757712862279693 0.0
  outer loop
    vertex 718.1825267700299 825.4173785729527 10.000000000000007
    vertex 718.9552944378979 818.8905347050538 2.8199664825478975e-15
    vertex 718.9552944378979 818.8905347050538 10.000000000000007
  endloop
endfacet
facet normal -0.993063753655735 -0.11757712862279693 0.0
  outer loop
    vertex 718.9552944378979 818.8905347050538 2.8199664825478975e-15
    vertex 718.1825267700299 825.4173785729527 10.000000000000007
    vertex 718.1825267700299 825.4173785729527 2.8199664825478975e-15
  endloop
endfacet
facet normal -0.9624298923834813 -0.2715302971064566 0.0
  outer loop
    vertex 715.1152647073337 838.188942399655 10.000000000000007
    vertex 716.8998790869181 831.8634374980198 2.8199664825478975e-15
    vertex 716.8998790869181 831.8634374980198 10.000000000000007
  endloop
endfacet
facet normal -0.9624298923834813 -0.2715302971064566 0.0
  outer loop
    vertex 716.8998790869181 831.8634374980198 2.8199664825478975e-15
    vertex 715.1152647073337 838.188942399655 10.000000000000007
    vertex 715.1152647073337 838.188942399655 2.8199664825478975e-15
  endloop
endfacet
facet normal 0.0 0.0 1.0
  outer loop
    vertex 723.0872056705427 774.3231733791332 10.000000000000007
    vertex 712.8396938429313 780.2914788007157 10.000000000000007
    vertex 710.0872056705427 774.3231733791332 10.000000000000007
  endloop
endfacet
facet normal 0.0 0.0 1.0
  outer loop
    vertex 712.8396938429313 780.2914788007157 10.000000000000007
    vertex 723.0872056705427 774.3231733791332 10.000000000000007
    vertex 715.1152647073337 786.4574043586117 10.000000000000007
  endloop
endfacet
facet normal 0.0 0.0 1.0
  outer loop
    vertex 715.1152647073337 786.4574043586117 10.000000000000007
    vertex 723.0872056705427 774.3231733791332 10.000000000000007
    vertex 716.8998790869181 792.7829092602469 10.000000000000007
  endloop
endfacet
facet normal 0.0 0.0 1.0
  outer loop
    vertex 716.8998790869181 792.7829092602469 10.000000000000007
    vertex 723.0872056705427 774.3231733791332 10.000000000000007
    vertex 718.1825267700299 799.2289681853141 10.000000000000007
  endloop
endfacet
facet normal 0.0 0.0 1.0
  outer loop
    vertex 718.1825267700299 799.2289681853141 10.000000000000007
    vertex 723.0872056705427 774.3231733791332 10.000000000000007
    vertex 718.9552944378979 805.7558120532128 10.000000000000007
  endloop
endfacet
facet normal 0.0 0.0 1.0
  outer loop
    vertex 718.9552944378979 805.7558120532128 10.000000000000007
    vertex 723.0872056705427 774.3231733791332 10.000000000000007
    vertex 719.2134144860021 812.3231733791334 10.000000000000007
  endloop
endfacet
facet normal 0.0 0.0 1.0
  outer loop
    vertex 712.8396938429313 844.3548679575508 10.000000000000007
    vertex 723.0872056705427 850.3231733791333 10.000000000000007
    vertex 710.0872056705427 850.3231733791334 10.000000000000007
  endloop
endfacet
facet normal 0.0 0.0 1.0
  outer loop
    vertex 723.0872056705427 850.3231733791333 10.000000000000007
    vertex 712.8396938429313 844.3548679575508 10.000000000000007
    vertex 715.1152647073337 838.188942399655 10.000000000000007
  endloop
endfacet
facet normal 0.0 0.0 1.0
  outer loop
    vertex 723.0872056705427 850.3231733791333 10.000000000000007
    vertex 715.1152647073337 838.188942399655 10.000000000000007
    vertex 716.8998790869181 831.8634374980198 10.000000000000007
  endloop
endfacet
facet normal 0.0 0.0 1.0
  outer loop
    vertex 723.0872056705427 850.3231733791333 10.000000000000007
    vertex 716.8998790869181 831.8634374980198 10.000000000000007
    vertex 718.1825267700299 825.4173785729527 10.000000000000007
  endloop
endfacet
facet normal 0.0 0.0 1.0
  outer loop
    vertex 723.0872056705427 850.3231733791333 10.000000000000007
    vertex 718.1825267700299 825.4173785729527 10.000000000000007
    vertex 718.9552944378979 818.8905347050538 10.000000000000007
  endloop
endfacet
facet normal 0.0 0.0 1.0
  outer loop
    vertex 723.0872056705427 850.3231733791333 10.000000000000007
    vertex 718.9552944378979 818.8905347050538 10.000000000000007
    vertex 719.2134144860021 812.3231733791334 10.000000000000007
  endloop
endfacet
facet normal 0.0 0.0 1.0
  outer loop
    vertex 723.0872056705427 850.3231733791333 10.000000000000007
    vertex 719.2134144860021 812.3231733791334 10.000000000000007
    vertex 723.0872056705427 774.3231733791332 10.000000000000007
  endloop
endfacet
facet normal -0.9807722694114438 -0.19515572129334594 0.0
  outer loop
    vertex 716.8998790869181 831.8634374980198 10.000000000000007
    vertex 718.1825267700299 825.4173785729527 2.8199664825478975e-15
    vertex 718.1825267700299 825.4173785729527 10.000000000000007
  endloop
endfacet
facet normal -0.9807722694114438 -0.19515572129334594 0.0
  outer loop
    vertex 718.1825267700299 825.4173785729527 2.8199664825478975e-15
    vertex 716.8998790869181 831.8634374980198 10.000000000000007
    vertex 716.8998790869181 831.8634374980198 2.8199664825478975e-15
  endloop
endfacet
facet normal -0.993063753655735 0.11757712862279693 0.0
  outer loop
    vertex 718.9552944378979 805.7558120532128 10.000000000000007
    vertex 718.1825267700299 799.2289681853141 2.8199664825478975e-15
    vertex 718.1825267700299 799.2289681853141 10.000000000000007
  endloop
endfacet
facet normal -0.993063753655735 0.11757712862279693 0.0
  outer loop
    vertex 718.1825267700299 799.2289681853141 2.8199664825478975e-15
    vertex 718.9552944378979 805.7558120532128 10.000000000000007
    vertex 718.9552944378979 805.7558120532128 2.8199664825478975e-15
  endloop
endfacet
facet normal 0.0 -1.0 0.0
  outer loop
    vertex 723.0872056705427 774.3231733791332 10.000000000000007
    vertex 710.0872056705427 774.3231733791332 2.8199664825478975e-15
    vertex 723.0872056705427 774.3231733791332 2.8199664825478975e-15
  endloop
endfacet
facet normal 0.0 -1.0 0.0
  outer loop
    vertex 710.0872056705427 774.3231733791332 2.8199664825478975e-15
    vertex 723.0872056705427 774.3231733791332 10.000000000000007
    vertex 710.0872056705427 774.3231733791332 10.000000000000007
  endloop
endfacet
facet normal -0.9624298923834822 0.271530297106453 0.0
  outer loop
    vertex 716.8998790869181 792.7829092602469 10.000000000000007
    vertex 715.1152647073337 786.4574043586117 2.8199664825478975e-15
    vertex 715.1152647073337 786.4574043586117 10.000000000000007
  endloop
endfacet
facet normal -0.9624298923834822 0.271530297106453 0.0
  outer loop
    vertex 715.1152647073337 786.4574043586117 2.8199664825478975e-15
    vertex 716.8998790869181 792.7829092602469 10.000000000000007
    vertex 716.8998790869181 792.7829092602469 2.8199664825478975e-15
  endloop
endfacet
facet normal 1.0 0.0 0.0
  outer loop
    vertex 723.0872056705427 774.3231733791332 2.8199664825478975e-15
    vertex 723.0872056705427 779.1210918511163 3.797918471982852
    vertex 723.0872056705427 774.3231733791332 10.000000000000007
  endloop
endfacet
facet normal 1.0 0.0 0.0
  outer loop
    vertex 723.0872056705427 779.1210918511163 3.797918471982852
    vertex 723.0872056705427 774.3231733791332 2.8199664825478975e-15
    vertex 723.0872056705427 779.4731733791333 3.5277568135664352
  endloop
endfacet
facet normal 1.0 0.0 0.0
  outer loop
    vertex 723.0872056705427 779.4731733791333 3.5277568135664352
    vertex 723.0872056705427 774.3231733791332 2.8199664825478975e-15
    vertex 723.0872056705427 779.8831810024591 3.357926095308571
  endloop
endfacet
facet normal 1.0 0.0 0.0
  outer loop
    vertex 723.0872056705427 779.8831810024591 3.357926095308571
    vertex 723.0872056705427 774.3231733791332 2.8199664825478975e-15
    vertex 723.0872056705427 780.3231733791333 3.2999999999999856
  endloop
endfacet
facet normal 1.0 0.0 0.0
  outer loop
    vertex 723.0872056705427 780.3231733791333 3.2999999999999856
    vertex 723.0872056705427 774.3231733791332 2.8199664825478975e-15
    vertex 723.0872056705427 850.3231733791333 2.8199664825478975e-15
  endloop
endfacet
facet normal 1.0 0.0 0.0
  outer loop
    vertex 723.0872056705427 774.3231733791332 10.000000000000007
    vertex 723.0872056705427 779.1210918511163 3.797918471982852
    vertex 723.0872056705427 778.8509301926998 4.149999999999984
  endloop
endfacet
facet normal 1.0 0.0 0.0
  outer loop
    vertex 723.0872056705427 774.3231733791332 10.000000000000007
    vertex 723.0872056705427 778.8509301926998 4.149999999999984
    vertex 723.0872056705427 778.681099474442 4.560007623325699
  endloop
endfacet
facet normal 1.0 0.0 0.0
  outer loop
    vertex 723.0872056705427 774.3231733791332 10.000000000000007
    vertex 723.0872056705427 778.681099474442 4.560007623325699
    vertex 723.0872056705427 778.6231733791334 4.999999999999984
  endloop
endfacet
facet normal 1.0 0.0 0.0
  outer loop
    vertex 723.0872056705427 780.3231733791333 3.2999999999999856
    vertex 723.0872056705427 850.3231733791333 2.8199664825478975e-15
    vertex 723.0872056705427 780.7631657558077 3.357926095308573
  endloop
endfacet
facet normal 1.0 0.0 0.0
  outer loop
    vertex 723.0872056705427 780.7631657558077 3.357926095308573
    vertex 723.0872056705427 850.3231733791333 2.8199664825478975e-15
    vertex 723.0872056705427 781.1731733791335 3.5277568135664437
  endloop
endfacet
facet normal 1.0 0.0 0.0
  outer loop
    vertex 723.0872056705427 781.1731733791335 3.5277568135664437
    vertex 723.0872056705427 850.3231733791333 2.8199664825478975e-15
    vertex 723.0872056705427 781.5252549071505 3.7979184719828534
  endloop
endfacet
facet normal 1.0 0.0 0.0
  outer loop
    vertex 723.0872056705427 781.5252549071505 3.7979184719828534
    vertex 723.0872056705427 850.3231733791333 2.8199664825478975e-15
    vertex 723.0872056705427 781.7954165655669 4.149999999999984
  endloop
endfacet
facet normal 1.0 0.0 0.0
  outer loop
    vertex 723.0872056705427 781.7954165655669 4.149999999999984
    vertex 723.0872056705427 850.3231733791333 2.8199664825478975e-15
    vertex 723.0872056705427 781.9652472838247 4.560007623325698
  endloop
endfacet
facet normal 1.0 0.0 0.0
  outer loop
    vertex 723.0872056705427 781.9652472838247 4.560007623325698
    vertex 723.0872056705427 850.3231733791333 2.8199664825478975e-15
    vertex 723.0872056705427 782.0231733791334 4.999999999999985
  endloop
endfacet
facet normal 1.0 0.0 0.0
  outer loop
    vertex 723.0872056705427 782.0231733791334 4.999999999999985
    vertex 723.0872056705427 850.3231733791333 2.8199664825478975e-15
    vertex 723.0872056705427 843.4743061858122 3.5297188922895772
  endloop
endfacet
facet normal 1.0 0.0 0.0
  outer loop
    vertex 723.0872056705427 782.0231733791334 4.999999999999985
    vertex 723.0872056705427 843.4743061858122 3.5297188922895772
    vertex 723.0872056705427 843.122693881685 3.7995205025518026
  endloop
endfacet
facet normal 1.0 0.0 0.0
  outer loop
    vertex 723.0872056705427 782.0231733791334 4.999999999999985
    vertex 723.0872056705427 843.122693881685 3.7995205025518026
    vertex 723.0872056705427 842.8528922714228 4.151132806678965
  endloop
endfacet
facet normal 1.0 0.0 0.0
  outer loop
    vertex 723.0872056705427 782.0231733791334 4.999999999999985
    vertex 723.0872056705427 842.8528922714228 4.151132806678965
    vertex 723.0872056705427 842.6832878888965 4.560594007211572
  endloop
endfacet
facet normal 1.0 0.0 0.0
  outer loop
    vertex 723.0872056705427 782.0231733791334 4.999999999999985
    vertex 723.0872056705427 842.6832878888965 4.560594007211572
    vertex 723.0872056705427 842.625438992491 4.999999999999974
  endloop
endfacet
facet normal 1.0 0.0 0.0
  outer loop
    vertex 723.0872056705427 843.4743061858122 3.5297188922895772
    vertex 723.0872056705427 850.3231733791333 2.8199664825478975e-15
    vertex 723.0872056705427 843.8837673863447 3.3601145097634184
  endloop
endfacet
facet normal 1.0 0.0 0.0
  outer loop
    vertex 723.0872056705427 843.8837673863447 3.3601145097634184
    vertex 723.0872056705427 850.3231733791333 2.8199664825478975e-15
    vertex 723.0872056705427 844.3231733791331 3.3022656133579584
  endloop
endfacet
facet normal 1.0 0.0 0.0
  outer loop
    vertex 723.0872056705427 844.3231733791331 3.3022656133579584
    vertex 723.0872056705427 850.3231733791333 2.8199664825478975e-15
    vertex 723.0872056705427 844.7625793719214 3.360114509763422
  endloop
endfacet
facet normal 1.0 0.0 0.0
  outer loop
    vertex 723.0872056705427 844.7625793719214 3.360114509763422
    vertex 723.0872056705427 850.3231733791333 2.8199664825478975e-15
    vertex 723.0872056705427 845.1720405724541 3.529718892289595
  endloop
endfacet
facet normal 1.0 0.0 0.0
  outer loop
    vertex 723.0872056705427 845.1720405724541 3.529718892289595
    vertex 723.0872056705427 850.3231733791333 2.8199664825478975e-15
    vertex 723.0872056705427 845.5236528765813 3.799520502551848
  endloop
endfacet
facet normal 1.0 0.0 0.0
  outer loop
    vertex 723.0872056705427 845.5236528765813 3.799520502551848
    vertex 723.0872056705427 850.3231733791333 2.8199664825478975e-15
    vertex 723.0872056705427 845.7934544868434 4.151132806678966
  endloop
endfacet
facet normal 1.0 0.0 0.0
  outer loop
    vertex 723.0872056705427 845.7934544868434 4.151132806678966
    vertex 723.0872056705427 850.3231733791333 2.8199664825478975e-15
    vertex 723.0872056705427 845.9630588693695 4.560594007211574
  endloop
endfacet
facet normal 1.0 0.0 0.0
  outer loop
    vertex 723.0872056705427 845.9630588693695 4.560594007211574
    vertex 723.0872056705427 850.3231733791333 2.8199664825478975e-15
    vertex 723.0872056705427 846.0209077657751 4.999999999999973
  endloop
endfacet
facet normal 1.0 0.0 0.0
  outer loop
    vertex 723.0872056705427 774.3231733791332 10.000000000000007
    vertex 723.0872056705427 780.3231733791333 6.699999999999986
    vertex 723.0872056705427 850.3231733791333 10.000000000000007
  endloop
endfacet
facet normal 1.0 0.0 0.0
  outer loop
    vertex 723.0872056705427 780.3231733791333 6.699999999999986
    vertex 723.0872056705427 774.3231733791332 10.000000000000007
    vertex 723.0872056705427 779.8831810024591 6.642073904691402
  endloop
endfacet
facet normal 1.0 0.0 0.0
  outer loop
    vertex 723.0872056705427 779.8831810024591 6.642073904691402
    vertex 723.0872056705427 774.3231733791332 10.000000000000007
    vertex 723.0872056705427 779.4731733791333 6.472243186433531
  endloop
endfacet
facet normal 1.0 0.0 0.0
  outer loop
    vertex 723.0872056705427 779.4731733791333 6.472243186433531
    vertex 723.0872056705427 774.3231733791332 10.000000000000007
    vertex 723.0872056705427 779.1210918511163 6.202081528017115
  endloop
endfacet
facet normal 1.0 0.0 0.0
  outer loop
    vertex 723.0872056705427 779.1210918511163 6.202081528017115
    vertex 723.0872056705427 774.3231733791332 10.000000000000007
    vertex 723.0872056705427 778.8509301926998 5.8499999999999845
  endloop
endfacet
facet normal 1.0 0.0 0.0
  outer loop
    vertex 723.0872056705427 778.8509301926998 5.8499999999999845
    vertex 723.0872056705427 774.3231733791332 10.000000000000007
    vertex 723.0872056705427 778.681099474442 5.43999237667427
  endloop
endfacet
facet normal 1.0 0.0 0.0
  outer loop
    vertex 723.0872056705427 778.681099474442 5.43999237667427
    vertex 723.0872056705427 774.3231733791332 10.000000000000007
    vertex 723.0872056705427 778.6231733791334 4.999999999999984
  endloop
endfacet
facet normal 1.0 0.0 0.0
  outer loop
    vertex 723.0872056705427 850.3231733791333 10.000000000000007
    vertex 723.0872056705427 780.3231733791333 6.699999999999986
    vertex 723.0872056705427 780.7631657558077 6.642073904691402
  endloop
endfacet
facet normal 1.0 0.0 0.0
  outer loop
    vertex 723.0872056705427 850.3231733791333 10.000000000000007
    vertex 723.0872056705427 780.7631657558077 6.642073904691402
    vertex 723.0872056705427 781.1731733791335 6.472243186433532
  endloop
endfacet
facet normal 1.0 0.0 0.0
  outer loop
    vertex 723.0872056705427 850.3231733791333 10.000000000000007
    vertex 723.0872056705427 781.1731733791335 6.472243186433532
    vertex 723.0872056705427 781.5252549071505 6.202081528017115
  endloop
endfacet
facet normal 1.0 0.0 0.0
  outer loop
    vertex 723.0872056705427 850.3231733791333 10.000000000000007
    vertex 723.0872056705427 781.5252549071505 6.202081528017115
    vertex 723.0872056705427 781.7954165655669 5.849999999999985
  endloop
endfacet
facet normal 1.0 0.0 0.0
  outer loop
    vertex 723.0872056705427 850.3231733791333 10.000000000000007
    vertex 723.0872056705427 781.7954165655669 5.849999999999985
    vertex 723.0872056705427 781.9652472838247 5.4399923766742715
  endloop
endfacet
facet normal 1.0 0.0 0.0
  outer loop
    vertex 723.0872056705427 850.3231733791333 10.000000000000007
    vertex 723.0872056705427 781.9652472838247 5.4399923766742715
    vertex 723.0872056705427 782.0231733791334 4.999999999999985
  endloop
endfacet
facet normal 1.0 0.0 0.0
  outer loop
    vertex 723.0872056705427 850.3231733791333 10.000000000000007
    vertex 723.0872056705427 782.0231733791334 4.999999999999985
    vertex 723.0872056705427 843.4743061858122 6.47028110771037
  endloop
endfacet
facet normal 1.0 0.0 0.0
  outer loop
    vertex 723.0872056705427 843.4743061858122 6.47028110771037
    vertex 723.0872056705427 782.0231733791334 4.999999999999985
    vertex 723.0872056705427 843.122693881685 6.2004794974481445
  endloop
endfacet
facet normal 1.0 0.0 0.0
  outer loop
    vertex 723.0872056705427 843.122693881685 6.2004794974481445
    vertex 723.0872056705427 782.0231733791334 4.999999999999985
    vertex 723.0872056705427 842.8528922714228 5.848867193320985
  endloop
endfacet
facet normal 1.0 0.0 0.0
  outer loop
    vertex 723.0872056705427 842.8528922714228 5.848867193320985
    vertex 723.0872056705427 782.0231733791334 4.999999999999985
    vertex 723.0872056705427 842.6832878888965 5.439405992788375
  endloop
endfacet
facet normal 1.0 0.0 0.0
  outer loop
    vertex 723.0872056705427 842.6832878888965 5.439405992788375
    vertex 723.0872056705427 782.0231733791334 4.999999999999985
    vertex 723.0872056705427 842.625438992491 4.999999999999974
  endloop
endfacet
facet normal 1.0 0.0 0.0
  outer loop
    vertex 723.0872056705427 850.3231733791333 10.000000000000007
    vertex 723.0872056705427 843.4743061858122 6.47028110771037
    vertex 723.0872056705427 843.8837673863447 6.639885490236542
  endloop
endfacet
facet normal 1.0 0.0 0.0
  outer loop
    vertex 723.0872056705427 850.3231733791333 10.000000000000007
    vertex 723.0872056705427 843.8837673863447 6.639885490236542
    vertex 723.0872056705427 844.3231733791331 6.697734386641991
  endloop
endfacet
facet normal 1.0 0.0 0.0
  outer loop
    vertex 723.0872056705427 850.3231733791333 10.000000000000007
    vertex 723.0872056705427 844.3231733791331 6.697734386641991
    vertex 723.0872056705427 844.7625793719214 6.639885490236529
  endloop
endfacet
facet normal 1.0 0.0 0.0
  outer loop
    vertex 723.0872056705427 850.3231733791333 10.000000000000007
    vertex 723.0872056705427 844.7625793719214 6.639885490236529
    vertex 723.0872056705427 845.1720405724542 6.470281107710342
  endloop
endfacet
facet normal 1.0 0.0 0.0
  outer loop
    vertex 723.0872056705427 850.3231733791333 10.000000000000007
    vertex 723.0872056705427 845.1720405724542 6.470281107710342
    vertex 723.0872056705427 845.5236528765813 6.200479497448117
  endloop
endfacet
facet normal 1.0 0.0 0.0
  outer loop
    vertex 723.0872056705427 850.3231733791333 10.000000000000007
    vertex 723.0872056705427 845.5236528765813 6.200479497448117
    vertex 723.0872056705427 845.7934544868434 5.848867193320983
  endloop
endfacet
facet normal 1.0 0.0 0.0
  outer loop
    vertex 723.0872056705427 850.3231733791333 10.000000000000007
    vertex 723.0872056705427 845.7934544868434 5.848867193320983
    vertex 723.0872056705427 845.9630588693695 5.439405992788375
  endloop
endfacet
facet normal 1.0 0.0 0.0
  outer loop
    vertex 723.0872056705427 850.3231733791333 10.000000000000007
    vertex 723.0872056705427 845.9630588693695 5.439405992788375
    vertex 723.0872056705427 846.0209077657751 4.999999999999973
  endloop
endfacet
facet normal 1.0 0.0 0.0
  outer loop
    vertex 723.0872056705427 850.3231733791333 10.000000000000007
    vertex 723.0872056705427 846.0209077657751 4.999999999999973
    vertex 723.0872056705427 850.3231733791333 2.8199664825478975e-15
  endloop
endfacet
facet normal 9.02389274415329e-15 1.0 0.0
  outer loop
    vertex 710.0872056705427 850.3231733791334 10.000000000000007
    vertex 723.0872056705427 850.3231733791333 2.8199664825478975e-15
    vertex 710.0872056705427 850.3231733791334 2.8199664825478975e-15
  endloop
endfacet
facet normal 9.02389274415329e-15 1.0 0.0
  outer loop
    vertex 723.0872056705427 850.3231733791333 2.8199664825478975e-15
    vertex 710.0872056705427 850.3231733791334 10.000000000000007
    vertex 723.0872056705427 850.3231733791333 10.000000000000007
  endloop
endfacet
facet normal 0.0 0.0 -1.0
  outer loop
    vertex 723.0872056705427 850.3231733791333 2.8199664825478975e-15
    vertex 712.8396938429313 844.3548679575508 2.8199664825478975e-15
    vertex 710.0872056705427 850.3231733791334 2.8199664825478975e-15
  endloop
endfacet
facet normal 0.0 0.0 -1.0
  outer loop
    vertex 712.8396938429313 844.3548679575508 2.8199664825478975e-15
    vertex 723.0872056705427 850.3231733791333 2.8199664825478975e-15
    vertex 715.1152647073337 838.188942399655 2.8199664825478975e-15
  endloop
endfacet
facet normal 0.0 0.0 -1.0
  outer loop
    vertex 715.1152647073337 838.188942399655 2.8199664825478975e-15
    vertex 723.0872056705427 850.3231733791333 2.8199664825478975e-15
    vertex 716.8998790869181 831.8634374980198 2.8199664825478975e-15
  endloop
endfacet
facet normal 0.0 0.0 -1.0
  outer loop
    vertex 716.8998790869181 831.8634374980198 2.8199664825478975e-15
    vertex 723.0872056705427 850.3231733791333 2.8199664825478975e-15
    vertex 718.1825267700299 825.4173785729527 2.8199664825478975e-15
  endloop
endfacet
facet normal 0.0 0.0 -1.0
  outer loop
    vertex 718.1825267700299 825.4173785729527 2.8199664825478975e-15
    vertex 723.0872056705427 850.3231733791333 2.8199664825478975e-15
    vertex 718.9552944378979 818.8905347050538 2.8199664825478975e-15
  endloop
endfacet
facet normal 0.0 0.0 -1.0
  outer loop
    vertex 718.9552944378979 818.8905347050538 2.8199664825478975e-15
    vertex 723.0872056705427 850.3231733791333 2.8199664825478975e-15
    vertex 719.2134144860021 812.3231733791334 2.8199664825478975e-15
  endloop
endfacet
facet normal 0.0 0.0 -1.0
  outer loop
    vertex 712.8396938429313 780.2914788007157 2.8199664825478975e-15
    vertex 723.0872056705427 774.3231733791332 2.8199664825478975e-15
    vertex 710.0872056705427 774.3231733791332 2.8199664825478975e-15
  endloop
endfacet
facet normal 0.0 0.0 -1.0
  outer loop
    vertex 723.0872056705427 774.3231733791332 2.8199664825478975e-15
    vertex 712.8396938429313 780.2914788007157 2.8199664825478975e-15
    vertex 715.1152647073337 786.4574043586117 2.8199664825478975e-15
  endloop
endfacet
facet normal 0.0 0.0 -1.0
  outer loop
    vertex 723.0872056705427 774.3231733791332 2.8199664825478975e-15
    vertex 715.1152647073337 786.4574043586117 2.8199664825478975e-15
    vertex 716.8998790869181 792.7829092602469 2.8199664825478975e-15
  endloop
endfacet
facet normal 0.0 0.0 -1.0
  outer loop
    vertex 723.0872056705427 774.3231733791332 2.8199664825478975e-15
    vertex 716.8998790869181 792.7829092602469 2.8199664825478975e-15
    vertex 718.1825267700299 799.2289681853141 2.8199664825478975e-15
  endloop
endfacet
facet normal 0.0 0.0 -1.0
  outer loop
    vertex 723.0872056705427 774.3231733791332 2.8199664825478975e-15
    vertex 718.1825267700299 799.2289681853141 2.8199664825478975e-15
    vertex 718.9552944378979 805.7558120532128 2.8199664825478975e-15
  endloop
endfacet
facet normal 0.0 0.0 -1.0
  outer loop
    vertex 723.0872056705427 774.3231733791332 2.8199664825478975e-15
    vertex 718.9552944378979 805.7558120532128 2.8199664825478975e-15
    vertex 719.2134144860021 812.3231733791334 2.8199664825478975e-15
  endloop
endfacet
facet normal 0.0 0.0 -1.0
  outer loop
    vertex 723.0872056705427 774.3231733791332 2.8199664825478975e-15
    vertex 719.2134144860021 812.3231733791334 2.8199664825478975e-15
    vertex 723.0872056705427 850.3231733791333 2.8199664825478975e-15
  endloop
endfacet
facet normal -0.9381497862085566 0.3462296616941412 -2.5730508455211247e-16
  outer loop
    vertex 715.1152647073337 786.4574043586117 10.000000000000007
    vertex 712.8396938429313 780.2914788007157 6.6958273295913315
    vertex 712.8396938429313 780.2914788007157 10.000000000000007
  endloop
endfacet
facet normal -0.9381497862085566 0.3462296616941412 -2.5730508455211247e-16
  outer loop
    vertex 712.8396938429313 780.2914788007157 6.6958273295913315
    vertex 715.1152647073337 786.4574043586117 10.000000000000007
    vertex 712.8513909123378 780.3231733791333 6.699999999999985
  endloop
endfacet
facet normal -0.9381497862085566 0.3462296616941412 -2.5730508455211247e-16
  outer loop
    vertex 712.8513909123378 780.3231733791333 6.699999999999985
    vertex 715.1152647073337 786.4574043586117 10.000000000000007
    vertex 713.0137726705213 780.7631657558077 6.642073904691402
  endloop
endfacet
facet normal -0.9381497862085566 0.3462296616941412 -2.5730508455211247e-16
  outer loop
    vertex 713.0137726705213 780.7631657558077 6.642073904691402
    vertex 715.1152647073337 786.4574043586117 10.000000000000007
    vertex 713.1650883802331 781.1731733791335 6.47224318643353
  endloop
endfacet
facet normal -0.9381497862085566 0.3462296616941412 -2.5730508455211247e-16
  outer loop
    vertex 713.1650883802331 781.1731733791335 6.47224318643353
    vertex 715.1152647073337 786.4574043586117 10.000000000000007
    vertex 713.2950261259173 781.5252549071506 6.202081528017115
  endloop
endfacet
facet normal -0.9381497862085566 0.3462296616941412 -2.5730508455211247e-16
  outer loop
    vertex 713.2950261259173 781.5252549071506 6.202081528017115
    vertex 715.1152647073337 786.4574043586117 10.000000000000007
    vertex 713.394730864938 781.7954165655669 5.849999999999985
  endloop
endfacet
facet normal -0.9381497862085566 0.3462296616941412 -2.5730508455211247e-16
  outer loop
    vertex 713.394730864938 781.7954165655669 5.849999999999985
    vertex 715.1152647073337 786.4574043586117 10.000000000000007
    vertex 713.4574078841007 781.9652472838247 5.4399923766742715
  endloop
endfacet
facet normal -0.9381497862085566 0.3462296616941412 -2.5730508455211247e-16
  outer loop
    vertex 713.4574078841007 781.9652472838247 5.4399923766742715
    vertex 715.1152647073337 786.4574043586117 10.000000000000007
    vertex 713.4787858481282 782.0231733791334 4.999999999999986
  endloop
endfacet
facet normal -0.9381497862085566 0.3462296616941412 -2.5730508455211247e-16
  outer loop
    vertex 712.8513909123378 780.3231733791333 3.299999999999986
    vertex 712.8396938429313 780.2914788007157 2.8199664825478975e-15
    vertex 712.8396938429313 780.2914788007157 3.30417267040864
  endloop
endfacet
facet normal -0.9381497862085566 0.3462296616941412 -2.5730508455211247e-16
  outer loop
    vertex 712.8396938429313 780.2914788007157 2.8199664825478975e-15
    vertex 712.8513909123378 780.3231733791333 3.299999999999986
    vertex 715.1152647073337 786.4574043586117 2.8199664825478975e-15
  endloop
endfacet
facet normal -0.9381497862085566 0.3462296616941412 -2.5730508455211247e-16
  outer loop
    vertex 715.1152647073337 786.4574043586117 2.8199664825478975e-15
    vertex 712.8513909123378 780.3231733791333 3.299999999999986
    vertex 713.0137726705213 780.7631657558077 3.3579260953085686
  endloop
endfacet
facet normal -0.9381497862085566 0.3462296616941412 -2.5730508455211247e-16
  outer loop
    vertex 715.1152647073337 786.4574043586117 2.8199664825478975e-15
    vertex 713.0137726705213 780.7631657558077 3.3579260953085686
    vertex 713.1650883802331 781.1731733791335 3.527756813566441
  endloop
endfacet
facet normal -0.9381497862085566 0.3462296616941412 -2.5730508455211247e-16
  outer loop
    vertex 715.1152647073337 786.4574043586117 2.8199664825478975e-15
    vertex 713.1650883802331 781.1731733791335 3.527756813566441
    vertex 713.2950261259173 781.5252549071505 3.797918471982855
  endloop
endfacet
facet normal -0.9381497862085566 0.3462296616941412 -2.5730508455211247e-16
  outer loop
    vertex 715.1152647073337 786.4574043586117 2.8199664825478975e-15
    vertex 713.2950261259173 781.5252549071505 3.797918471982855
    vertex 713.394730864938 781.7954165655669 4.149999999999984
  endloop
endfacet
facet normal -0.9381497862085566 0.3462296616941412 -2.5730508455211247e-16
  outer loop
    vertex 715.1152647073337 786.4574043586117 2.8199664825478975e-15
    vertex 713.394730864938 781.7954165655669 4.149999999999984
    vertex 713.4574078841007 781.9652472838247 4.560007623325701
  endloop
endfacet
facet normal -0.9381497862085566 0.3462296616941412 -2.5730508455211247e-16
  outer loop
    vertex 715.1152647073337 786.4574043586117 2.8199664825478975e-15
    vertex 713.4574078841007 781.9652472838247 4.560007623325701
    vertex 713.4787858481282 782.0231733791334 4.999999999999986
  endloop
endfacet
facet normal -0.9381497862085566 0.3462296616941412 -2.5730508455211247e-16
  outer loop
    vertex 715.1152647073337 786.4574043586117 2.8199664825478975e-15
    vertex 713.4787858481282 782.0231733791334 4.999999999999986
    vertex 715.1152647073337 786.4574043586117 10.000000000000007
  endloop
endfacet
facet normal -5.09556796626864e-17 -0.38268343236508967 -0.9238795325112867
  outer loop
    vertex 713.1650883802331 781.1731733791335 6.47224318643353
    vertex 723.0872056705427 780.7631657558077 6.642073904691402
    vertex 713.0137726705213 780.7631657558077 6.642073904691402
  endloop
endfacet
facet normal -5.09556796626864e-17 -0.38268343236508967 -0.9238795325112867
  outer loop
    vertex 723.0872056705427 780.7631657558077 6.642073904691402
    vertex 713.1650883802331 781.1731733791335 6.47224318643353
    vertex 723.0872056705427 781.1731733791335 6.472243186433532
  endloop
endfacet
facet normal -1.8362115358889667e-17 0.1305261922200528 0.9914448613738103
  outer loop
    vertex 723.0872056705427 779.8831810024591 3.357926095308571
    vertex 712.8396938429313 780.2914788007157 3.30417267040864
    vertex 712.6513933487156 779.8831810024591 3.35792609530857
  endloop
endfacet
facet normal -1.8362115358889667e-17 0.1305261922200528 0.9914448613738103
  outer loop
    vertex 712.8396938429313 780.2914788007157 3.30417267040864
    vertex 723.0872056705427 779.8831810024591 3.357926095308571
    vertex 712.8513909123378 780.3231733791333 3.299999999999986
  endloop
endfacet
facet normal -1.8362115358889667e-17 0.1305261922200528 0.9914448613738103
  outer loop
    vertex 712.8513909123378 780.3231733791333 3.299999999999986
    vertex 723.0872056705427 779.8831810024591 3.357926095308571
    vertex 723.0872056705427 780.3231733791333 3.2999999999999856
  endloop
endfacet
facet normal -6.04207001224077e-17 -0.7933533402912353 0.6087614290087202
  outer loop
    vertex 723.0872056705427 781.7954165655669 4.149999999999984
    vertex 713.2950261259173 781.5252549071505 3.797918471982855
    vertex 723.0872056705427 781.5252549071505 3.7979184719828534
  endloop
endfacet
facet normal -6.04207001224077e-17 -0.7933533402912353 0.6087614290087202
  outer loop
    vertex 713.2950261259173 781.5252549071505 3.797918471982855
    vertex 723.0872056705427 781.7954165655669 4.149999999999984
    vertex 713.394730864938 781.7954165655669 4.149999999999984
  endloop
endfacet
facet normal -4.748404096425508e-17 -0.1305261922200536 0.99144486137381
  outer loop
    vertex 723.0872056705427 780.3231733791333 3.2999999999999856
    vertex 713.0137726705213 780.7631657558077 3.3579260953085686
    vertex 712.8513909123378 780.3231733791333 3.299999999999986
  endloop
endfacet
facet normal -4.748404096425508e-17 -0.1305261922200536 0.99144486137381
  outer loop
    vertex 713.0137726705213 780.7631657558077 3.3579260953085686
    vertex 723.0872056705427 780.3231733791333 3.2999999999999856
    vertex 723.0872056705427 780.7631657558077 3.357926095308573
  endloop
endfacet
facet normal 8.375701742651441e-18 0.1305261922200514 -0.9914448613738104
  outer loop
    vertex 712.8396938429313 780.2914788007157 6.6958273295913315
    vertex 723.0872056705427 779.8831810024591 6.642073904691402
    vertex 712.6513933487156 779.8831810024591 6.642073904691402
  endloop
endfacet
facet normal 8.375701742651441e-18 0.1305261922200514 -0.9914448613738104
  outer loop
    vertex 723.0872056705427 779.8831810024591 6.642073904691402
    vertex 712.8396938429313 780.2914788007157 6.6958273295913315
    vertex 712.8513909123378 780.3231733791333 6.699999999999985
  endloop
endfacet
facet normal 8.375701742651441e-18 0.1305261922200514 -0.9914448613738104
  outer loop
    vertex 723.0872056705427 779.8831810024591 6.642073904691402
    vertex 712.8513909123378 780.3231733791333 6.699999999999985
    vertex 723.0872056705427 780.3231733791333 6.699999999999986
  endloop
endfacet
facet normal 2.656519555987391e-17 -0.9914448613738103 0.13052619222005307
  outer loop
    vertex 723.0872056705427 782.0231733791334 4.999999999999985
    vertex 713.4574078841007 781.9652472838247 4.560007623325701
    vertex 723.0872056705427 781.9652472838247 4.560007623325698
  endloop
endfacet
facet normal 2.656519555987391e-17 -0.9914448613738103 0.13052619222005307
  outer loop
    vertex 713.4574078841007 781.9652472838247 4.560007623325701
    vertex 723.0872056705427 782.0231733791334 4.999999999999985
    vertex 713.4787858481282 782.0231733791334 4.999999999999986
  endloop
endfacet
facet normal 2.322933905499244e-17 -0.38268343236509206 0.9238795325112859
  outer loop
    vertex 723.0872056705427 780.7631657558077 3.357926095308573
    vertex 713.1650883802331 781.1731733791335 3.527756813566441
    vertex 713.0137726705213 780.7631657558077 3.3579260953085686
  endloop
endfacet
facet normal 2.322933905499244e-17 -0.38268343236509206 0.9238795325112859
  outer loop
    vertex 713.1650883802331 781.1731733791335 3.527756813566441
    vertex 723.0872056705427 780.7631657558077 3.357926095308573
    vertex 723.0872056705427 781.1731733791335 3.5277568135664437
  endloop
endfacet
facet normal -1.908994281467076e-17 -0.9238795325112859 0.38268343236509234
  outer loop
    vertex 723.0872056705427 781.9652472838247 4.560007623325698
    vertex 713.394730864938 781.7954165655669 4.149999999999984
    vertex 723.0872056705427 781.7954165655669 4.149999999999984
  endloop
endfacet
facet normal -1.908994281467076e-17 -0.9238795325112859 0.38268343236509234
  outer loop
    vertex 713.394730864938 781.7954165655669 4.149999999999984
    vertex 723.0872056705427 781.9652472838247 4.560007623325698
    vertex 713.4574078841007 781.9652472838247 4.560007623325701
  endloop
endfacet
facet normal -2.2261912434159445e-17 -0.9238795325112863 -0.38268343236509095
  outer loop
    vertex 723.0872056705427 781.7954165655669 5.849999999999985
    vertex 713.4574078841007 781.9652472838247 5.4399923766742715
    vertex 723.0872056705427 781.9652472838247 5.4399923766742715
  endloop
endfacet
facet normal -2.2261912434159445e-17 -0.9238795325112863 -0.38268343236509095
  outer loop
    vertex 713.4574078841007 781.9652472838247 5.4399923766742715
    vertex 723.0872056705427 781.7954165655669 5.849999999999985
    vertex 713.394730864938 781.7954165655669 5.849999999999985
  endloop
endfacet
facet normal -7.701708105653381e-17 0.38268343236508967 -0.9238795325112867
  outer loop
    vertex 712.6513933487156 779.8831810024591 6.642073904691402
    vertex 723.0872056705427 779.4731733791333 6.472243186433531
    vertex 712.4623043101902 779.4731733791333 6.47224318643353
  endloop
endfacet
facet normal -7.701708105653381e-17 0.38268343236508967 -0.9238795325112867
  outer loop
    vertex 723.0872056705427 779.4731733791333 6.472243186433531
    vertex 712.6513933487156 779.8831810024591 6.642073904691402
    vertex 723.0872056705427 779.8831810024591 6.642073904691402
  endloop
endfacet
facet normal -0.9080817474539488 0.41879295593524807 2.501959586108954e-16
  outer loop
    vertex 712.8396938429313 780.2914788007157 10.000000000000007
    vertex 710.0872056705427 774.3231733791332 2.8199664825478975e-15
    vertex 710.0872056705427 774.3231733791332 10.000000000000007
  endloop
endfacet
facet normal -0.9080817474539488 0.41879295593524807 2.501959586108954e-16
  outer loop
    vertex 710.0872056705427 774.3231733791332 2.8199664825478975e-15
    vertex 712.8396938429313 780.2914788007157 10.000000000000007
    vertex 712.0970123386304 778.681099474442 5.43999237667427
  endloop
endfacet
facet normal -0.9080817474539488 0.41879295593524807 2.501959586108954e-16
  outer loop
    vertex 710.0872056705427 774.3231733791332 2.8199664825478975e-15
    vertex 712.0970123386304 778.681099474442 5.43999237667427
    vertex 712.0702977385979 778.6231733791334 4.999999999999986
  endloop
endfacet
facet normal -0.9080817474539488 0.41879295593524807 2.501959586108954e-16
  outer loop
    vertex 712.0970123386304 778.681099474442 5.43999237667427
    vertex 712.8396938429313 780.2914788007157 10.000000000000007
    vertex 712.1753355828838 778.8509301926998 5.849999999999985
  endloop
endfacet
facet normal -0.9080817474539488 0.41879295593524807 2.501959586108954e-16
  outer loop
    vertex 712.1753355828838 778.8509301926998 5.849999999999985
    vertex 712.8396938429313 780.2914788007157 10.000000000000007
    vertex 712.2999298716973 779.1210918511163 6.202081528017117
  endloop
endfacet
facet normal -0.9080817474539488 0.41879295593524807 2.501959586108954e-16
  outer loop
    vertex 712.2999298716973 779.1210918511163 6.202081528017117
    vertex 712.8396938429313 780.2914788007157 10.000000000000007
    vertex 712.4623043101902 779.4731733791333 6.47224318643353
  endloop
endfacet
facet normal -0.9080817474539488 0.41879295593524807 2.501959586108954e-16
  outer loop
    vertex 712.4623043101902 779.4731733791333 6.47224318643353
    vertex 712.8396938429313 780.2914788007157 10.000000000000007
    vertex 712.6513933487156 779.8831810024591 6.642073904691402
  endloop
endfacet
facet normal -0.9080817474539488 0.41879295593524807 2.501959586108954e-16
  outer loop
    vertex 712.6513933487156 779.8831810024591 6.642073904691402
    vertex 712.8396938429313 780.2914788007157 10.000000000000007
    vertex 712.8396938429313 780.2914788007157 6.6958273295913315
  endloop
endfacet
facet normal -0.9080817474539488 0.41879295593524807 2.501959586108954e-16
  outer loop
    vertex 710.0872056705427 774.3231733791332 2.8199664825478975e-15
    vertex 712.0970123386304 778.681099474442 4.560007623325701
    vertex 712.8396938429313 780.2914788007157 2.8199664825478975e-15
  endloop
endfacet
facet normal -0.9080817474539488 0.41879295593524807 2.501959586108954e-16
  outer loop
    vertex 712.0970123386304 778.681099474442 4.560007623325701
    vertex 710.0872056705427 774.3231733791332 2.8199664825478975e-15
    vertex 712.0702977385979 778.6231733791334 4.999999999999986
  endloop
endfacet
facet normal -0.9080817474539488 0.41879295593524807 2.501959586108954e-16
  outer loop
    vertex 712.8396938429313 780.2914788007157 2.8199664825478975e-15
    vertex 712.0970123386304 778.681099474442 4.560007623325701
    vertex 712.1753355828838 778.8509301926998 4.149999999999984
  endloop
endfacet
facet normal -0.9080817474539488 0.41879295593524807 2.501959586108954e-16
  outer loop
    vertex 712.8396938429313 780.2914788007157 2.8199664825478975e-15
    vertex 712.1753355828838 778.8509301926998 4.149999999999984
    vertex 712.2999298716973 779.1210918511163 3.797918471982852
  endloop
endfacet
facet normal -0.9080817474539488 0.41879295593524807 2.501959586108954e-16
  outer loop
    vertex 712.8396938429313 780.2914788007157 2.8199664825478975e-15
    vertex 712.2999298716973 779.1210918511163 3.797918471982852
    vertex 712.4623043101901 779.4731733791333 3.5277568135664374
  endloop
endfacet
facet normal -0.9080817474539488 0.41879295593524807 2.501959586108954e-16
  outer loop
    vertex 712.8396938429313 780.2914788007157 2.8199664825478975e-15
    vertex 712.4623043101901 779.4731733791333 3.5277568135664374
    vertex 712.6513933487156 779.8831810024591 3.35792609530857
  endloop
endfacet
facet normal -0.9080817474539488 0.41879295593524807 2.501959586108954e-16
  outer loop
    vertex 712.8396938429313 780.2914788007157 2.8199664825478975e-15
    vertex 712.6513933487156 779.8831810024591 3.35792609530857
    vertex 712.8396938429313 780.2914788007157 3.30417267040864
  endloop
endfacet
facet normal 1.638151137755907e-16 -0.6087614290087198 0.7933533402912358
  outer loop
    vertex 723.0872056705427 781.1731733791335 3.5277568135664437
    vertex 713.2950261259173 781.5252549071505 3.797918471982855
    vertex 713.1650883802331 781.1731733791335 3.527756813566441
  endloop
endfacet
facet normal 1.638151137755907e-16 -0.6087614290087198 0.7933533402912358
  outer loop
    vertex 713.2950261259173 781.5252549071505 3.797918471982855
    vertex 723.0872056705427 781.1731733791335 3.5277568135664437
    vertex 723.0872056705427 781.5252549071505 3.7979184719828534
  endloop
endfacet
facet normal 3.488567461056352e-17 0.7933533402912369 -0.608761429008718
  outer loop
    vertex 712.1753355828838 778.8509301926998 5.849999999999985
    vertex 723.0872056705427 779.1210918511163 6.202081528017115
    vertex 723.0872056705427 778.8509301926998 5.8499999999999845
  endloop
endfacet
facet normal 3.488567461056352e-17 0.7933533402912369 -0.608761429008718
  outer loop
    vertex 723.0872056705427 779.1210918511163 6.202081528017115
    vertex 712.1753355828838 778.8509301926998 5.849999999999985
    vertex 712.2999298716973 779.1210918511163 6.202081528017117
  endloop
endfacet
facet normal 6.929012883853873e-19 0.6087614290087192 -0.7933533402912362
  outer loop
    vertex 712.4623043101902 779.4731733791333 6.47224318643353
    vertex 723.0872056705427 779.1210918511163 6.202081528017115
    vertex 712.2999298716973 779.1210918511163 6.202081528017117
  endloop
endfacet
facet normal 6.929012883853873e-19 0.6087614290087192 -0.7933533402912362
  outer loop
    vertex 723.0872056705427 779.1210918511163 6.202081528017115
    vertex 712.4623043101902 779.4731733791333 6.47224318643353
    vertex 723.0872056705427 779.4731733791333 6.472243186433531
  endloop
endfacet
facet normal -1.643536969125338e-16 0.793353340291235 0.6087614290087207
  outer loop
    vertex 712.1753355828838 778.8509301926998 4.149999999999984
    vertex 723.0872056705427 779.1210918511163 3.797918471982852
    vertex 712.2999298716973 779.1210918511163 3.797918471982852
  endloop
endfacet
facet normal -1.643536969125338e-16 0.793353340291235 0.6087614290087207
  outer loop
    vertex 723.0872056705427 779.1210918511163 3.797918471982852
    vertex 712.1753355828838 778.8509301926998 4.149999999999984
    vertex 723.0872056705427 778.8509301926998 4.149999999999984
  endloop
endfacet
facet normal 9.997728314079842e-18 0.9238795325112883 0.38268343236508595
  outer loop
    vertex 712.0970123386304 778.681099474442 4.560007623325701
    vertex 723.0872056705427 778.8509301926998 4.149999999999984
    vertex 712.1753355828838 778.8509301926998 4.149999999999984
  endloop
endfacet
facet normal 9.997728314079842e-18 0.9238795325112883 0.38268343236508595
  outer loop
    vertex 723.0872056705427 778.8509301926998 4.149999999999984
    vertex 712.0970123386304 778.681099474442 4.560007623325701
    vertex 723.0872056705427 778.681099474442 4.560007623325699
  endloop
endfacet
facet normal -0.9080817474539477 -0.4187929559352508 4.5873179021461016e-17
  outer loop
    vertex 710.0872056705427 850.3231733791334 10.000000000000007
    vertex 712.8396938429314 844.3548679575508 6.693561716233315
    vertex 712.8396938429313 844.3548679575508 10.000000000000007
  endloop
endfacet
facet normal -0.9080817474539477 -0.4187929559352508 4.5873179021461016e-17
  outer loop
    vertex 712.8396938429314 844.3548679575508 6.693561716233315
    vertex 710.0872056705427 850.3231733791334 10.000000000000007
    vertex 712.6516637797004 844.7625793719214 6.639885490236532
  endloop
endfacet
facet normal -0.9080817474539477 -0.4187929559352508 4.5873179021461016e-17
  outer loop
    vertex 712.6516637797004 844.7625793719214 6.639885490236532
    vertex 710.0872056705427 850.3231733791334 10.000000000000007
    vertex 712.4628267427346 845.1720405724541 6.47028110771036
  endloop
endfacet
facet normal -0.9080817474539477 -0.4187929559352508 4.5873179021461016e-17
  outer loop
    vertex 712.4628267427346 845.1720405724541 6.47028110771036
    vertex 710.0872056705427 850.3231733791334 10.000000000000007
    vertex 712.3006687028869 845.5236528765813 6.200479497448117
  endloop
endfacet
facet normal -0.9080817474539477 -0.4187929559352508 4.5873179021461016e-17
  outer loop
    vertex 712.3006687028869 845.5236528765813 6.200479497448117
    vertex 710.0872056705427 850.3231733791334 10.000000000000007
    vertex 712.1762404625939 845.7934544868434 5.8488671933209835
  endloop
endfacet
facet normal -0.9080817474539477 -0.4187929559352508 4.5873179021461016e-17
  outer loop
    vertex 712.1762404625939 845.7934544868434 5.8488671933209835
    vertex 710.0872056705427 850.3231733791334 10.000000000000007
    vertex 712.0980216008044 845.9630588693695 5.439405992788377
  endloop
endfacet
facet normal -0.9080817474539477 -0.4187929559352508 4.5873179021461016e-17
  outer loop
    vertex 712.0980216008044 845.9630588693695 5.439405992788377
    vertex 710.0872056705427 850.3231733791334 10.000000000000007
    vertex 712.0713426036864 846.0209077657751 4.9999999999999725
  endloop
endfacet
facet normal -0.9080817474539477 -0.4187929559352508 4.5873179021461016e-17
  outer loop
    vertex 712.6516637797004 844.7625793719214 3.3601145097634046
    vertex 712.8396938429313 844.3548679575508 2.8199664825478975e-15
    vertex 712.8396938429314 844.3548679575508 3.3064382837666355
  endloop
endfacet
facet normal -0.9080817474539477 -0.4187929559352508 4.5873179021461016e-17
  outer loop
    vertex 712.8396938429313 844.3548679575508 2.8199664825478975e-15
    vertex 712.6516637797004 844.7625793719214 3.3601145097634046
    vertex 710.0872056705427 850.3231733791334 2.8199664825478975e-15
  endloop
endfacet
facet normal -0.9080817474539477 -0.4187929559352508 4.5873179021461016e-17
  outer loop
    vertex 710.0872056705427 850.3231733791334 2.8199664825478975e-15
    vertex 712.6516637797004 844.7625793719214 3.3601145097634046
    vertex 712.4628267427346 845.1720405724541 3.5297188922895866
  endloop
endfacet
facet normal -0.9080817474539477 -0.4187929559352508 4.5873179021461016e-17
  outer loop
    vertex 710.0872056705427 850.3231733791334 2.8199664825478975e-15
    vertex 712.4628267427346 845.1720405724541 3.5297188922895866
    vertex 712.3006687028869 845.5236528765813 3.7995205025518293
  endloop
endfacet
facet normal -0.9080817474539477 -0.4187929559352508 4.5873179021461016e-17
  outer loop
    vertex 710.0872056705427 850.3231733791334 2.8199664825478975e-15
    vertex 712.3006687028869 845.5236528765813 3.7995205025518293
    vertex 712.1762404625939 845.7934544868434 4.151132806678966
  endloop
endfacet
facet normal -0.9080817474539477 -0.4187929559352508 4.5873179021461016e-17
  outer loop
    vertex 710.0872056705427 850.3231733791334 2.8199664825478975e-15
    vertex 712.1762404625939 845.7934544868434 4.151132806678966
    vertex 712.0980216008044 845.9630588693695 4.560594007211574
  endloop
endfacet
facet normal -0.9080817474539477 -0.4187929559352508 4.5873179021461016e-17
  outer loop
    vertex 710.0872056705427 850.3231733791334 2.8199664825478975e-15
    vertex 712.0980216008044 845.9630588693695 4.560594007211574
    vertex 712.0713426036864 846.0209077657751 4.9999999999999725
  endloop
endfacet
facet normal -0.9080817474539477 -0.4187929559352508 4.5873179021461016e-17
  outer loop
    vertex 710.0872056705427 850.3231733791334 2.8199664825478975e-15
    vertex 712.0713426036864 846.0209077657751 4.9999999999999725
    vertex 710.0872056705427 850.3231733791334 10.000000000000007
  endloop
endfacet
facet normal -8.526155975720505e-17 0.9914448613738093 0.1305261922200607
  outer loop
    vertex 712.0970123386304 778.681099474442 4.560007623325701
    vertex 723.0872056705427 778.6231733791334 4.999999999999984
    vertex 723.0872056705427 778.681099474442 4.560007623325699
  endloop
endfacet
facet normal -8.526155975720505e-17 0.9914448613738093 0.1305261922200607
  outer loop
    vertex 723.0872056705427 778.6231733791334 4.999999999999984
    vertex 712.0970123386304 778.681099474442 4.560007623325701
    vertex 712.0702977385979 778.6231733791334 4.999999999999986
  endloop
endfacet
facet normal -1.1856067771782616e-16 -0.6087614290087202 -0.7933533402912353
  outer loop
    vertex 713.2950261259173 781.5252549071506 6.202081528017115
    vertex 723.0872056705427 781.1731733791335 6.472243186433532
    vertex 713.1650883802331 781.1731733791335 6.47224318643353
  endloop
endfacet
facet normal -1.1856067771782616e-16 -0.6087614290087202 -0.7933533402912353
  outer loop
    vertex 723.0872056705427 781.1731733791335 6.472243186433532
    vertex 713.2950261259173 781.5252549071506 6.202081528017115
    vertex 723.0872056705427 781.5252549071505 6.202081528017115
  endloop
endfacet
facet normal -0.9381497862085565 -0.34622966169414127 -1.9112457912517751e-16
  outer loop
    vertex 712.8396938429313 844.3548679575508 10.000000000000007
    vertex 715.1152647073337 838.188942399655 2.8199664825478975e-15
    vertex 715.1152647073337 838.188942399655 10.000000000000007
  endloop
endfacet
facet normal -0.9381497862085565 -0.34622966169414127 -1.9112457912517751e-16
  outer loop
    vertex 715.1152647073337 838.188942399655 2.8199664825478975e-15
    vertex 712.8396938429313 844.3548679575508 10.000000000000007
    vertex 713.456600236956 842.6832878888965 5.4394059927883776
  endloop
endfacet
facet normal -0.9381497862085565 -0.34622966169414127 -1.9112457912517751e-16
  outer loop
    vertex 715.1152647073337 838.188942399655 2.8199664825478975e-15
    vertex 713.456600236956 842.6832878888965 5.4394059927883776
    vertex 713.477949710277 842.625438992491 4.999999999999977
  endloop
endfacet
facet normal -0.9381497862085565 -0.34622966169414127 -1.9112457912517751e-16
  outer loop
    vertex 713.456600236956 842.6832878888965 5.4394059927883776
    vertex 712.8396938429313 844.3548679575508 10.000000000000007
    vertex 713.3940067483179 842.8528922714228 5.848867193320981
  endloop
endfacet
facet normal -0.9381497862085565 -0.34622966169414127 -1.9112457912517751e-16
  outer loop
    vertex 713.3940067483179 842.8528922714228 5.848867193320981
    vertex 712.8396938429313 844.3548679575508 10.000000000000007
    vertex 713.2944348871728 843.122693881685 6.2004794974481445
  endloop
endfacet
facet normal -0.9381497862085565 -0.34622966169414127 -1.9112457912517751e-16
  outer loop
    vertex 713.2944348871728 843.122693881685 6.2004794974481445
    vertex 712.8396938429313 844.3548679575508 10.000000000000007
    vertex 713.1646703113075 843.474306185812 6.470281107710347
  endloop
endfacet
facet normal -0.9381497862085565 -0.34622966169414127 -1.9112457912517751e-16
  outer loop
    vertex 713.1646703113075 843.474306185812 6.470281107710347
    vertex 712.8396938429313 844.3548679575508 10.000000000000007
    vertex 713.0135562621213 843.8837673863446 6.639885490236519
  endloop
endfacet
facet normal -0.9381497862085565 -0.34622966169414127 -1.9112457912517751e-16
  outer loop
    vertex 713.0135562621213 843.8837673863446 6.639885490236519
    vertex 712.8396938429313 844.3548679575508 10.000000000000007
    vertex 712.851390912338 844.3231733791331 6.697734386641996
  endloop
endfacet
facet normal -0.9381497862085565 -0.34622966169414127 -1.9112457912517751e-16
  outer loop
    vertex 712.851390912338 844.3231733791331 6.697734386641996
    vertex 712.8396938429313 844.3548679575508 10.000000000000007
    vertex 712.8396938429314 844.3548679575508 6.693561716233315
  endloop
endfacet
facet normal -0.9381497862085565 -0.34622966169414127 -1.9112457912517751e-16
  outer loop
    vertex 715.1152647073337 838.188942399655 2.8199664825478975e-15
    vertex 713.456600236956 842.6832878888965 4.560594007211571
    vertex 712.8396938429313 844.3548679575508 2.8199664825478975e-15
  endloop
endfacet
facet normal -0.9381497862085565 -0.34622966169414127 -1.9112457912517751e-16
  outer loop
    vertex 713.456600236956 842.6832878888965 4.560594007211571
    vertex 715.1152647073337 838.188942399655 2.8199664825478975e-15
    vertex 713.477949710277 842.625438992491 4.999999999999977
  endloop
endfacet
facet normal -0.9381497862085565 -0.34622966169414127 -1.9112457912517751e-16
  outer loop
    vertex 712.8396938429313 844.3548679575508 2.8199664825478975e-15
    vertex 713.456600236956 842.6832878888965 4.560594007211571
    vertex 713.3940067483179 842.8528922714228 4.151132806678965
  endloop
endfacet
facet normal -0.9381497862085565 -0.34622966169414127 -1.9112457912517751e-16
  outer loop
    vertex 712.8396938429313 844.3548679575508 2.8199664825478975e-15
    vertex 713.3940067483179 842.8528922714228 4.151132806678965
    vertex 713.2944348871728 843.122693881685 3.799520502551821
  endloop
endfacet
facet normal -0.9381497862085565 -0.34622966169414127 -1.9112457912517751e-16
  outer loop
    vertex 712.8396938429313 844.3548679575508 2.8199664825478975e-15
    vertex 713.2944348871728 843.122693881685 3.799520502551821
    vertex 713.1646703113075 843.474306185812 3.529718892289604
  endloop
endfacet
facet normal -0.9381497862085565 -0.34622966169414127 -1.9112457912517751e-16
  outer loop
    vertex 712.8396938429313 844.3548679575508 2.8199664825478975e-15
    vertex 713.1646703113075 843.474306185812 3.529718892289604
    vertex 713.0135562621213 843.8837673863446 3.3601145097634233
  endloop
endfacet
facet normal -0.9381497862085565 -0.34622966169414127 -1.9112457912517751e-16
  outer loop
    vertex 712.8396938429313 844.3548679575508 2.8199664825478975e-15
    vertex 713.0135562621213 843.8837673863446 3.3601145097634233
    vertex 712.851390912338 844.3231733791331 3.302265613357956
  endloop
endfacet
facet normal -0.9381497862085565 -0.34622966169414127 -1.9112457912517751e-16
  outer loop
    vertex 712.8396938429313 844.3548679575508 2.8199664825478975e-15
    vertex 712.851390912338 844.3231733791331 3.302265613357956
    vertex 712.8396938429314 844.3548679575508 3.3064382837666355
  endloop
endfacet
facet normal -1.1047650204943922e-16 -0.7933533402912357 -0.6087614290087197
  outer loop
    vertex 723.0872056705427 781.5252549071505 6.202081528017115
    vertex 713.394730864938 781.7954165655669 5.849999999999985
    vertex 723.0872056705427 781.7954165655669 5.849999999999985
  endloop
endfacet
facet normal -1.1047650204943922e-16 -0.7933533402912357 -0.6087614290087197
  outer loop
    vertex 713.394730864938 781.7954165655669 5.849999999999985
    vertex 723.0872056705427 781.5252549071505 6.202081528017115
    vertex 713.2950261259173 781.5252549071506 6.202081528017115
  endloop
endfacet
facet normal -1.0572904668283533e-17 0.9238795325112883 -0.38268343236508595
  outer loop
    vertex 712.1753355828838 778.8509301926998 5.849999999999985
    vertex 723.0872056705427 778.681099474442 5.43999237667427
    vertex 712.0970123386304 778.681099474442 5.43999237667427
  endloop
endfacet
facet normal -1.0572904668283533e-17 0.9238795325112883 -0.38268343236508595
  outer loop
    vertex 723.0872056705427 778.681099474442 5.43999237667427
    vertex 712.1753355828838 778.8509301926998 5.849999999999985
    vertex 723.0872056705427 778.8509301926998 5.8499999999999845
  endloop
endfacet
facet normal -1.1309258520384065e-17 -0.9914448613738103 -0.13052619222005277
  outer loop
    vertex 723.0872056705427 781.9652472838247 5.4399923766742715
    vertex 713.4787858481282 782.0231733791334 4.999999999999986
    vertex 723.0872056705427 782.0231733791334 4.999999999999985
  endloop
endfacet
facet normal -1.1309258520384065e-17 -0.9914448613738103 -0.13052619222005277
  outer loop
    vertex 713.4787858481282 782.0231733791334 4.999999999999986
    vertex 723.0872056705427 781.9652472838247 5.4399923766742715
    vertex 713.4574078841007 781.9652472838247 5.4399923766742715
  endloop
endfacet
facet normal -1.1526826033323402e-16 0.9914448613738099 -0.13052619222005546
  outer loop
    vertex 712.0702977385979 778.6231733791334 4.999999999999986
    vertex 723.0872056705427 778.681099474442 5.43999237667427
    vertex 723.0872056705427 778.6231733791334 4.999999999999984
  endloop
endfacet
facet normal -1.1526826033323402e-16 0.9914448613738099 -0.13052619222005546
  outer loop
    vertex 723.0872056705427 778.681099474442 5.43999237667427
    vertex 712.0702977385979 778.6231733791334 4.999999999999986
    vertex 712.0970123386304 778.681099474442 5.43999237667427
  endloop
endfacet
facet normal -2.385155207701133e-16 0.6087614290087204 0.7933533402912353
  outer loop
    vertex 723.0872056705427 779.1210918511163 3.797918471982852
    vertex 712.4623043101901 779.4731733791333 3.5277568135664374
    vertex 712.2999298716973 779.1210918511163 3.797918471982852
  endloop
endfacet
facet normal -2.385155207701133e-16 0.6087614290087204 0.7933533402912353
  outer loop
    vertex 712.4623043101901 779.4731733791333 3.5277568135664374
    vertex 723.0872056705427 779.1210918511163 3.797918471982852
    vertex 723.0872056705427 779.4731733791333 3.5277568135664352
  endloop
endfacet
facet normal -3.220460158879493e-17 0.38268343236508395 0.9238795325112892
  outer loop
    vertex 723.0872056705427 779.4731733791333 3.5277568135664352
    vertex 712.6513933487156 779.8831810024591 3.35792609530857
    vertex 712.4623043101901 779.4731733791333 3.5277568135664374
  endloop
endfacet
facet normal -3.220460158879493e-17 0.38268343236508395 0.9238795325112892
  outer loop
    vertex 712.6513933487156 779.8831810024591 3.35792609530857
    vertex 723.0872056705427 779.4731733791333 3.5277568135664352
    vertex 723.0872056705427 779.8831810024591 3.357926095308571
  endloop
endfacet
facet normal 2.9043704701883274e-17 -0.1305261922200511 -0.9914448613738104
  outer loop
    vertex 713.0137726705213 780.7631657558077 6.642073904691402
    vertex 723.0872056705427 780.3231733791333 6.699999999999986
    vertex 712.8513909123378 780.3231733791333 6.699999999999985
  endloop
endfacet
facet normal 2.9043704701883274e-17 -0.1305261922200511 -0.9914448613738104
  outer loop
    vertex 723.0872056705427 780.3231733791333 6.699999999999986
    vertex 713.0137726705213 780.7631657558077 6.642073904691402
    vertex 723.0872056705427 780.7631657558077 6.642073904691402
  endloop
endfacet
facet normal -1.5460929120217439e-16 0.7933533402912213 0.6087614290087388
  outer loop
    vertex 713.2944348871728 843.122693881685 3.799520502551821
    vertex 723.0872056705427 842.8528922714228 4.151132806678965
    vertex 723.0872056705427 843.122693881685 3.7995205025518026
  endloop
endfacet
facet normal -1.5460929120217439e-16 0.7933533402912213 0.6087614290087388
  outer loop
    vertex 723.0872056705427 842.8528922714228 4.151132806678965
    vertex 713.2944348871728 843.122693881685 3.799520502551821
    vertex 713.3940067483179 842.8528922714228 4.151132806678965
  endloop
endfacet
facet normal -1.1321242047513775e-17 0.923879532511292 0.3826834323650773
  outer loop
    vertex 713.456600236956 842.6832878888965 4.560594007211571
    vertex 723.0872056705427 842.8528922714228 4.151132806678965
    vertex 713.3940067483179 842.8528922714228 4.151132806678965
  endloop
endfacet
facet normal -1.1321242047513775e-17 0.923879532511292 0.3826834323650773
  outer loop
    vertex 723.0872056705427 842.8528922714228 4.151132806678965
    vertex 713.456600236956 842.6832878888965 4.560594007211571
    vertex 723.0872056705427 842.6832878888965 4.560594007211572
  endloop
endfacet
facet normal 1.1374384785104067e-15 -0.793353340291234 0.6087614290087219
  outer loop
    vertex 723.0872056705427 845.5236528765813 3.799520502551848
    vertex 712.1762404625939 845.7934544868434 4.151132806678966
    vertex 712.3006687028869 845.5236528765813 3.7995205025518293
  endloop
endfacet
facet normal 1.1374384785104067e-15 -0.793353340291234 0.6087614290087219
  outer loop
    vertex 712.1762404625939 845.7934544868434 4.151132806678966
    vertex 723.0872056705427 845.5236528765813 3.799520502551848
    vertex 723.0872056705427 845.7934544868434 4.151132806678966
  endloop
endfacet
facet normal 7.95489975525434e-16 -0.6087614290087253 0.7933533402912314
  outer loop
    vertex 712.4628267427346 845.1720405724541 3.5297188922895866
    vertex 723.0872056705427 845.5236528765813 3.799520502551848
    vertex 712.3006687028869 845.5236528765813 3.7995205025518293
  endloop
endfacet
facet normal 7.95489975525434e-16 -0.6087614290087253 0.7933533402912314
  outer loop
    vertex 723.0872056705427 845.5236528765813 3.799520502551848
    vertex 712.4628267427346 845.1720405724541 3.5297188922895866
    vertex 723.0872056705427 845.1720405724541 3.529718892289595
  endloop
endfacet
facet normal 4.226958629419556e-16 0.6087614290087167 0.793353340291238
  outer loop
    vertex 713.2944348871728 843.122693881685 3.799520502551821
    vertex 723.0872056705427 843.4743061858122 3.5297188922895772
    vertex 713.1646703113075 843.474306185812 3.529718892289604
  endloop
endfacet
facet normal 4.226958629419556e-16 0.6087614290087167 0.793353340291238
  outer loop
    vertex 723.0872056705427 843.4743061858122 3.5297188922895772
    vertex 713.2944348871728 843.122693881685 3.799520502551821
    vertex 723.0872056705427 843.122693881685 3.7995205025518026
  endloop
endfacet
facet normal 5.902544955140265e-16 0.38268343236509766 0.9238795325112836
  outer loop
    vertex 713.1646703113075 843.474306185812 3.529718892289604
    vertex 723.0872056705427 843.8837673863447 3.3601145097634184
    vertex 713.0135562621213 843.8837673863446 3.3601145097634233
  endloop
endfacet
facet normal 5.902544955140265e-16 0.38268343236509766 0.9238795325112836
  outer loop
    vertex 723.0872056705427 843.8837673863447 3.3601145097634184
    vertex 713.1646703113075 843.474306185812 3.529718892289604
    vertex 723.0872056705427 843.4743061858122 3.5297188922895772
  endloop
endfacet
facet normal 4.718008838780684e-16 0.9914448613738108 0.13052619222004908
  outer loop
    vertex 713.477949710277 842.625438992491 4.999999999999977
    vertex 723.0872056705427 842.6832878888965 4.560594007211572
    vertex 713.456600236956 842.6832878888965 4.560594007211571
  endloop
endfacet
facet normal 4.718008838780684e-16 0.9914448613738108 0.13052619222004908
  outer loop
    vertex 723.0872056705427 842.6832878888965 4.560594007211572
    vertex 713.477949710277 842.625438992491 4.999999999999977
    vertex 723.0872056705427 842.625438992491 4.999999999999974
  endloop
endfacet
facet normal -5.98589675279812e-17 -0.9238795325112925 -0.382683432365076
  outer loop
    vertex 723.0872056705427 845.7934544868434 5.848867193320983
    vertex 712.0980216008044 845.9630588693695 5.439405992788377
    vertex 723.0872056705427 845.9630588693695 5.439405992788375
  endloop
endfacet
facet normal -5.98589675279812e-17 -0.9238795325112925 -0.382683432365076
  outer loop
    vertex 712.0980216008044 845.9630588693695 5.439405992788377
    vertex 723.0872056705427 845.7934544868434 5.848867193320983
    vertex 712.1762404625939 845.7934544868434 5.8488671933209835
  endloop
endfacet
facet normal 1.3681652997558533e-17 0.3826834323650933 -0.9238795325112853
  outer loop
    vertex 723.0872056705427 843.8837673863447 6.639885490236542
    vertex 713.1646703113075 843.474306185812 6.470281107710347
    vertex 713.0135562621213 843.8837673863446 6.639885490236519
  endloop
endfacet
facet normal 1.3681652997558533e-17 0.3826834323650933 -0.9238795325112853
  outer loop
    vertex 713.1646703113075 843.474306185812 6.470281107710347
    vertex 723.0872056705427 843.8837673863447 6.639885490236542
    vertex 723.0872056705427 843.4743061858122 6.47028110771037
  endloop
endfacet
facet normal -4.126334250866369e-17 -0.38268343236509106 0.9238795325112861
  outer loop
    vertex 712.6516637797004 844.7625793719214 3.3601145097634046
    vertex 723.0872056705427 845.1720405724541 3.529718892289595
    vertex 712.4628267427346 845.1720405724541 3.5297188922895866
  endloop
endfacet
facet normal -4.126334250866369e-17 -0.38268343236509106 0.9238795325112861
  outer loop
    vertex 723.0872056705427 845.1720405724541 3.529718892289595
    vertex 712.6516637797004 844.7625793719214 3.3601145097634046
    vertex 723.0872056705427 844.7625793719214 3.360114509763422
  endloop
endfacet
facet normal -1.0472688115163019e-15 0.6087614290086973 -0.793353340291253
  outer loop
    vertex 723.0872056705427 843.4743061858122 6.47028110771037
    vertex 713.2944348871728 843.122693881685 6.2004794974481445
    vertex 713.1646703113075 843.474306185812 6.470281107710347
  endloop
endfacet
facet normal -1.0472688115163019e-15 0.6087614290086973 -0.793353340291253
  outer loop
    vertex 713.2944348871728 843.122693881685 6.2004794974481445
    vertex 723.0872056705427 843.4743061858122 6.47028110771037
    vertex 723.0872056705427 843.122693881685 6.2004794974481445
  endloop
endfacet
facet normal 3.6811835178243043e-16 -0.38268343236508356 -0.9238795325112893
  outer loop
    vertex 723.0872056705427 845.1720405724542 6.470281107710342
    vertex 712.6516637797004 844.7625793719214 6.639885490236532
    vertex 712.4628267427346 845.1720405724541 6.47028110771036
  endloop
endfacet
facet normal 3.6811835178243043e-16 -0.38268343236508356 -0.9238795325112893
  outer loop
    vertex 712.6516637797004 844.7625793719214 6.639885490236532
    vertex 723.0872056705427 845.1720405724542 6.470281107710342
    vertex 723.0872056705427 844.7625793719214 6.639885490236529
  endloop
endfacet
facet normal 2.480875927617435e-16 -0.793353340291239 -0.6087614290087154
  outer loop
    vertex 723.0872056705427 845.5236528765813 6.200479497448117
    vertex 712.1762404625939 845.7934544868434 5.8488671933209835
    vertex 723.0872056705427 845.7934544868434 5.848867193320983
  endloop
endfacet
facet normal 2.480875927617435e-16 -0.793353340291239 -0.6087614290087154
  outer loop
    vertex 712.1762404625939 845.7934544868434 5.8488671933209835
    vertex 723.0872056705427 845.5236528765813 6.200479497448117
    vertex 712.3006687028869 845.5236528765813 6.200479497448117
  endloop
endfacet
facet normal -2.7134171683752898e-17 -0.13052619222005324 -0.99144486137381
  outer loop
    vertex 723.0872056705427 844.7625793719214 6.639885490236529
    vertex 712.8396938429314 844.3548679575508 6.693561716233315
    vertex 712.6516637797004 844.7625793719214 6.639885490236532
  endloop
endfacet
facet normal -2.7134171683752898e-17 -0.13052619222005324 -0.99144486137381
  outer loop
    vertex 712.8396938429314 844.3548679575508 6.693561716233315
    vertex 723.0872056705427 844.7625793719214 6.639885490236529
    vertex 712.851390912338 844.3231733791331 6.697734386641996
  endloop
endfacet
facet normal -2.7134171683752898e-17 -0.13052619222005324 -0.99144486137381
  outer loop
    vertex 712.851390912338 844.3231733791331 6.697734386641996
    vertex 723.0872056705427 844.7625793719214 6.639885490236529
    vertex 723.0872056705427 844.3231733791331 6.697734386641991
  endloop
endfacet
facet normal 8.689212771135271e-16 -0.608761429008731 -0.7933533402912271
  outer loop
    vertex 723.0872056705427 845.5236528765813 6.200479497448117
    vertex 712.4628267427346 845.1720405724541 6.47028110771036
    vertex 712.3006687028869 845.5236528765813 6.200479497448117
  endloop
endfacet
facet normal 8.689212771135271e-16 -0.608761429008731 -0.7933533402912271
  outer loop
    vertex 712.4628267427346 845.1720405724541 6.47028110771036
    vertex 723.0872056705427 845.5236528765813 6.200479497448117
    vertex 723.0872056705427 845.1720405724542 6.470281107710342
  endloop
endfacet
facet normal 6.481048887828193e-21 -0.9238795325112923 0.382683432365076
  outer loop
    vertex 723.0872056705427 845.9630588693695 4.560594007211574
    vertex 712.1762404625939 845.7934544868434 4.151132806678966
    vertex 723.0872056705427 845.7934544868434 4.151132806678966
  endloop
endfacet
facet normal 6.481048887828193e-21 -0.9238795325112923 0.382683432365076
  outer loop
    vertex 712.1762404625939 845.7934544868434 4.151132806678966
    vertex 723.0872056705427 845.9630588693695 4.560594007211574
    vertex 712.0980216008044 845.9630588693695 4.560594007211574
  endloop
endfacet
facet normal 1.219598718202798e-16 0.1305261922200534 -0.99144486137381
  outer loop
    vertex 723.0872056705427 844.3231733791331 6.697734386641991
    vertex 713.0135562621213 843.8837673863446 6.639885490236519
    vertex 712.851390912338 844.3231733791331 6.697734386641996
  endloop
endfacet
facet normal 1.219598718202798e-16 0.1305261922200534 -0.99144486137381
  outer loop
    vertex 713.0135562621213 843.8837673863446 6.639885490236519
    vertex 723.0872056705427 844.3231733791331 6.697734386641991
    vertex 723.0872056705427 843.8837673863447 6.639885490236542
  endloop
endfacet
facet normal 4.3732760757523626e-16 0.9914448613738133 -0.13052619222003012
  outer loop
    vertex 713.477949710277 842.625438992491 4.999999999999977
    vertex 723.0872056705427 842.6832878888965 5.439405992788375
    vertex 723.0872056705427 842.625438992491 4.999999999999974
  endloop
endfacet
facet normal 4.3732760757523626e-16 0.9914448613738133 -0.13052619222003012
  outer loop
    vertex 723.0872056705427 842.6832878888965 5.439405992788375
    vertex 713.477949710277 842.625438992491 4.999999999999977
    vertex 713.456600236956 842.6832878888965 5.4394059927883776
  endloop
endfacet
facet normal -1.8265190153829856e-16 0.1305261922200532 0.99144486137381
  outer loop
    vertex 713.0135562621213 843.8837673863446 3.3601145097634233
    vertex 723.0872056705427 844.3231733791331 3.3022656133579584
    vertex 712.851390912338 844.3231733791331 3.302265613357956
  endloop
endfacet
facet normal -1.8265190153829856e-16 0.1305261922200532 0.99144486137381
  outer loop
    vertex 723.0872056705427 844.3231733791331 3.3022656133579584
    vertex 713.0135562621213 843.8837673863446 3.3601145097634233
    vertex 723.0872056705427 843.8837673863447 3.3601145097634184
  endloop
endfacet
facet normal -2.2959737139678794e-16 0.7933533402912423 -0.6087614290087112
  outer loop
    vertex 713.2944348871728 843.122693881685 6.2004794974481445
    vertex 723.0872056705427 842.8528922714228 5.848867193320985
    vertex 713.3940067483179 842.8528922714228 5.848867193320981
  endloop
endfacet
facet normal -2.2959737139678794e-16 0.7933533402912423 -0.6087614290087112
  outer loop
    vertex 723.0872056705427 842.8528922714228 5.848867193320985
    vertex 713.2944348871728 843.122693881685 6.2004794974481445
    vertex 723.0872056705427 843.122693881685 6.2004794974481445
  endloop
endfacet
facet normal 3.3252451226549037e-18 -0.9914448613738094 -0.13052619222005973
  outer loop
    vertex 723.0872056705427 846.0209077657751 4.999999999999973
    vertex 712.0980216008044 845.9630588693695 5.439405992788377
    vertex 712.0713426036864 846.0209077657751 4.9999999999999725
  endloop
endfacet
facet normal 3.3252451226549037e-18 -0.9914448613738094 -0.13052619222005973
  outer loop
    vertex 712.0980216008044 845.9630588693695 5.439405992788377
    vertex 723.0872056705427 846.0209077657751 4.999999999999973
    vertex 723.0872056705427 845.9630588693695 5.439405992788375
  endloop
endfacet
facet normal -6.55403046999565e-18 -0.9914448613738093 0.13052619222006057
  outer loop
    vertex 723.0872056705427 846.0209077657751 4.999999999999973
    vertex 712.0980216008044 845.9630588693695 4.560594007211574
    vertex 723.0872056705427 845.9630588693695 4.560594007211574
  endloop
endfacet
facet normal -6.55403046999565e-18 -0.9914448613738093 0.13052619222006057
  outer loop
    vertex 712.0980216008044 845.9630588693695 4.560594007211574
    vertex 723.0872056705427 846.0209077657751 4.999999999999973
    vertex 712.0713426036864 846.0209077657751 4.9999999999999725
  endloop
endfacet
facet normal -4.0216718745563693e-16 -0.1305261922200373 0.9914448613738122
  outer loop
    vertex 712.8396938429314 844.3548679575508 3.3064382837666355
    vertex 723.0872056705427 844.7625793719214 3.360114509763422
    vertex 712.6516637797004 844.7625793719214 3.3601145097634046
  endloop
endfacet
facet normal -4.0216718745563693e-16 -0.1305261922200373 0.9914448613738122
  outer loop
    vertex 723.0872056705427 844.7625793719214 3.360114509763422
    vertex 712.8396938429314 844.3548679575508 3.3064382837666355
    vertex 712.851390912338 844.3231733791331 3.302265613357956
  endloop
endfacet
facet normal -4.0216718745563693e-16 -0.1305261922200373 0.9914448613738122
  outer loop
    vertex 723.0872056705427 844.7625793719214 3.360114509763422
    vertex 712.851390912338 844.3231733791331 3.302265613357956
    vertex 723.0872056705427 844.3231733791331 3.3022656133579584
  endloop
endfacet
facet normal 5.568219709986675e-17 0.9238795325112849 -0.38268343236509406
  outer loop
    vertex 713.456600236956 842.6832878888965 5.4394059927883776
    vertex 723.0872056705427 842.8528922714228 5.848867193320985
    vertex 723.0872056705427 842.6832878888965 5.439405992788375
  endloop
endfacet
facet normal 5.568219709986675e-17 0.9238795325112849 -0.38268343236509406
  outer loop
    vertex 723.0872056705427 842.8528922714228 5.848867193320985
    vertex 713.456600236956 842.6832878888965 5.4394059927883776
    vertex 713.3940067483179 842.8528922714228 5.848867193320981
  endloop
endfacet
endsolid Input Panel Mounter
