%TF.GenerationSoftware,KiCad,Pcbnew,(6.0.9)*%
%TF.CreationDate,2023-07-18T14:40:25+05:30*%
%TF.ProjectId,WeatherKids_Compact(V2.1),57656174-6865-4724-9b69-64735f436f6d,rev?*%
%TF.SameCoordinates,PX1406f40PY14fb180*%
%TF.FileFunction,Profile,NP*%
%FSLAX46Y46*%
G04 Gerber Fmt 4.6, Leading zero omitted, Abs format (unit mm)*
G04 Created by KiCad (PCBNEW (6.0.9)) date 2023-07-18 14:40:25*
%MOMM*%
%LPD*%
G01*
G04 APERTURE LIST*
%ADD10C,0.100000*%
%ADD11C,0.150000*%
%ADD12C,0.300000*%
%ADD13C,0.400000*%
%TA.AperFunction,Profile*%
%ADD14C,0.050000*%
%TD*%
G04 APERTURE END LIST*
D10*
D11*
X278989000Y-231002200D02*
X278989000Y-263002200D01*
X386989000Y-263002200D01*
X386989000Y-231002200D01*
X278989000Y-231002200D01*
D10*
D11*
X-11000000Y12000000D02*
X-11000000Y-265002200D01*
X388989000Y-265002200D01*
X388989000Y12000000D01*
X-11000000Y12000000D01*
D10*
D11*
X-9000000Y10000000D02*
X-9000000Y-263002200D01*
X386989000Y-263002200D01*
X386989000Y10000000D01*
X-9000000Y10000000D01*
D10*
D11*
X39000000Y10000000D02*
X39000000Y12000000D01*
D10*
D11*
X89000000Y10000000D02*
X89000000Y12000000D01*
D10*
D11*
X139000000Y10000000D02*
X139000000Y12000000D01*
D10*
D11*
X189000000Y10000000D02*
X189000000Y12000000D01*
D10*
D11*
X239000000Y10000000D02*
X239000000Y12000000D01*
D10*
D11*
X289000000Y10000000D02*
X289000000Y12000000D01*
D10*
D11*
X339000000Y10000000D02*
X339000000Y12000000D01*
D10*
D11*
X15065476Y10411905D02*
X14322619Y10411905D01*
X14694047Y10411905D02*
X14694047Y11711905D01*
X14570238Y11526191D01*
X14446428Y11402381D01*
X14322619Y11340477D01*
D10*
D11*
X64322619Y11588096D02*
X64384523Y11650000D01*
X64508333Y11711905D01*
X64817857Y11711905D01*
X64941666Y11650000D01*
X65003571Y11588096D01*
X65065476Y11464286D01*
X65065476Y11340477D01*
X65003571Y11154762D01*
X64260714Y10411905D01*
X65065476Y10411905D01*
D10*
D11*
X114260714Y11711905D02*
X115065476Y11711905D01*
X114632142Y11216667D01*
X114817857Y11216667D01*
X114941666Y11154762D01*
X115003571Y11092858D01*
X115065476Y10969048D01*
X115065476Y10659524D01*
X115003571Y10535715D01*
X114941666Y10473810D01*
X114817857Y10411905D01*
X114446428Y10411905D01*
X114322619Y10473810D01*
X114260714Y10535715D01*
D10*
D11*
X164941666Y11278572D02*
X164941666Y10411905D01*
X164632142Y11773810D02*
X164322619Y10845239D01*
X165127380Y10845239D01*
D10*
D11*
X215003571Y11711905D02*
X214384523Y11711905D01*
X214322619Y11092858D01*
X214384523Y11154762D01*
X214508333Y11216667D01*
X214817857Y11216667D01*
X214941666Y11154762D01*
X215003571Y11092858D01*
X215065476Y10969048D01*
X215065476Y10659524D01*
X215003571Y10535715D01*
X214941666Y10473810D01*
X214817857Y10411905D01*
X214508333Y10411905D01*
X214384523Y10473810D01*
X214322619Y10535715D01*
D10*
D11*
X264941666Y11711905D02*
X264694047Y11711905D01*
X264570238Y11650000D01*
X264508333Y11588096D01*
X264384523Y11402381D01*
X264322619Y11154762D01*
X264322619Y10659524D01*
X264384523Y10535715D01*
X264446428Y10473810D01*
X264570238Y10411905D01*
X264817857Y10411905D01*
X264941666Y10473810D01*
X265003571Y10535715D01*
X265065476Y10659524D01*
X265065476Y10969048D01*
X265003571Y11092858D01*
X264941666Y11154762D01*
X264817857Y11216667D01*
X264570238Y11216667D01*
X264446428Y11154762D01*
X264384523Y11092858D01*
X264322619Y10969048D01*
D10*
D11*
X314260714Y11711905D02*
X315127380Y11711905D01*
X314570238Y10411905D01*
D10*
D11*
X364570238Y11154762D02*
X364446428Y11216667D01*
X364384523Y11278572D01*
X364322619Y11402381D01*
X364322619Y11464286D01*
X364384523Y11588096D01*
X364446428Y11650000D01*
X364570238Y11711905D01*
X364817857Y11711905D01*
X364941666Y11650000D01*
X365003571Y11588096D01*
X365065476Y11464286D01*
X365065476Y11402381D01*
X365003571Y11278572D01*
X364941666Y11216667D01*
X364817857Y11154762D01*
X364570238Y11154762D01*
X364446428Y11092858D01*
X364384523Y11030953D01*
X364322619Y10907143D01*
X364322619Y10659524D01*
X364384523Y10535715D01*
X364446428Y10473810D01*
X364570238Y10411905D01*
X364817857Y10411905D01*
X364941666Y10473810D01*
X365003571Y10535715D01*
X365065476Y10659524D01*
X365065476Y10907143D01*
X365003571Y11030953D01*
X364941666Y11092858D01*
X364817857Y11154762D01*
D10*
D11*
X39000000Y-263002200D02*
X39000000Y-265002200D01*
D10*
D11*
X89000000Y-263002200D02*
X89000000Y-265002200D01*
D10*
D11*
X139000000Y-263002200D02*
X139000000Y-265002200D01*
D10*
D11*
X189000000Y-263002200D02*
X189000000Y-265002200D01*
D10*
D11*
X239000000Y-263002200D02*
X239000000Y-265002200D01*
D10*
D11*
X289000000Y-263002200D02*
X289000000Y-265002200D01*
D10*
D11*
X339000000Y-263002200D02*
X339000000Y-265002200D01*
D10*
D11*
X15065476Y-264590295D02*
X14322619Y-264590295D01*
X14694047Y-264590295D02*
X14694047Y-263290295D01*
X14570238Y-263476009D01*
X14446428Y-263599819D01*
X14322619Y-263661723D01*
D10*
D11*
X64322619Y-263414104D02*
X64384523Y-263352200D01*
X64508333Y-263290295D01*
X64817857Y-263290295D01*
X64941666Y-263352200D01*
X65003571Y-263414104D01*
X65065476Y-263537914D01*
X65065476Y-263661723D01*
X65003571Y-263847438D01*
X64260714Y-264590295D01*
X65065476Y-264590295D01*
D10*
D11*
X114260714Y-263290295D02*
X115065476Y-263290295D01*
X114632142Y-263785533D01*
X114817857Y-263785533D01*
X114941666Y-263847438D01*
X115003571Y-263909342D01*
X115065476Y-264033152D01*
X115065476Y-264342676D01*
X115003571Y-264466485D01*
X114941666Y-264528390D01*
X114817857Y-264590295D01*
X114446428Y-264590295D01*
X114322619Y-264528390D01*
X114260714Y-264466485D01*
D10*
D11*
X164941666Y-263723628D02*
X164941666Y-264590295D01*
X164632142Y-263228390D02*
X164322619Y-264156961D01*
X165127380Y-264156961D01*
D10*
D11*
X215003571Y-263290295D02*
X214384523Y-263290295D01*
X214322619Y-263909342D01*
X214384523Y-263847438D01*
X214508333Y-263785533D01*
X214817857Y-263785533D01*
X214941666Y-263847438D01*
X215003571Y-263909342D01*
X215065476Y-264033152D01*
X215065476Y-264342676D01*
X215003571Y-264466485D01*
X214941666Y-264528390D01*
X214817857Y-264590295D01*
X214508333Y-264590295D01*
X214384523Y-264528390D01*
X214322619Y-264466485D01*
D10*
D11*
X264941666Y-263290295D02*
X264694047Y-263290295D01*
X264570238Y-263352200D01*
X264508333Y-263414104D01*
X264384523Y-263599819D01*
X264322619Y-263847438D01*
X264322619Y-264342676D01*
X264384523Y-264466485D01*
X264446428Y-264528390D01*
X264570238Y-264590295D01*
X264817857Y-264590295D01*
X264941666Y-264528390D01*
X265003571Y-264466485D01*
X265065476Y-264342676D01*
X265065476Y-264033152D01*
X265003571Y-263909342D01*
X264941666Y-263847438D01*
X264817857Y-263785533D01*
X264570238Y-263785533D01*
X264446428Y-263847438D01*
X264384523Y-263909342D01*
X264322619Y-264033152D01*
D10*
D11*
X314260714Y-263290295D02*
X315127380Y-263290295D01*
X314570238Y-264590295D01*
D10*
D11*
X364570238Y-263847438D02*
X364446428Y-263785533D01*
X364384523Y-263723628D01*
X364322619Y-263599819D01*
X364322619Y-263537914D01*
X364384523Y-263414104D01*
X364446428Y-263352200D01*
X364570238Y-263290295D01*
X364817857Y-263290295D01*
X364941666Y-263352200D01*
X365003571Y-263414104D01*
X365065476Y-263537914D01*
X365065476Y-263599819D01*
X365003571Y-263723628D01*
X364941666Y-263785533D01*
X364817857Y-263847438D01*
X364570238Y-263847438D01*
X364446428Y-263909342D01*
X364384523Y-263971247D01*
X364322619Y-264095057D01*
X364322619Y-264342676D01*
X364384523Y-264466485D01*
X364446428Y-264528390D01*
X364570238Y-264590295D01*
X364817857Y-264590295D01*
X364941666Y-264528390D01*
X365003571Y-264466485D01*
X365065476Y-264342676D01*
X365065476Y-264095057D01*
X365003571Y-263971247D01*
X364941666Y-263909342D01*
X364817857Y-263847438D01*
D10*
D11*
X-11000000Y-38000000D02*
X-9000000Y-38000000D01*
D10*
D11*
X-11000000Y-88000000D02*
X-9000000Y-88000000D01*
D10*
D11*
X-11000000Y-138000000D02*
X-9000000Y-138000000D01*
D10*
D11*
X-11000000Y-188000000D02*
X-9000000Y-188000000D01*
D10*
D11*
X-11000000Y-238000000D02*
X-9000000Y-238000000D01*
D10*
D11*
X-10309524Y-13216666D02*
X-9690477Y-13216666D01*
X-10433334Y-13588095D02*
X-10000000Y-12288095D01*
X-9566667Y-13588095D01*
D10*
D11*
X-9907143Y-62907142D02*
X-9721429Y-62969047D01*
X-9659524Y-63030952D01*
X-9597620Y-63154761D01*
X-9597620Y-63340476D01*
X-9659524Y-63464285D01*
X-9721429Y-63526190D01*
X-9845239Y-63588095D01*
X-10340477Y-63588095D01*
X-10340477Y-62288095D01*
X-9907143Y-62288095D01*
X-9783334Y-62350000D01*
X-9721429Y-62411904D01*
X-9659524Y-62535714D01*
X-9659524Y-62659523D01*
X-9721429Y-62783333D01*
X-9783334Y-62845238D01*
X-9907143Y-62907142D01*
X-10340477Y-62907142D01*
D10*
D11*
X-9597620Y-113464285D02*
X-9659524Y-113526190D01*
X-9845239Y-113588095D01*
X-9969048Y-113588095D01*
X-10154762Y-113526190D01*
X-10278572Y-113402380D01*
X-10340477Y-113278571D01*
X-10402381Y-113030952D01*
X-10402381Y-112845238D01*
X-10340477Y-112597619D01*
X-10278572Y-112473809D01*
X-10154762Y-112350000D01*
X-9969048Y-112288095D01*
X-9845239Y-112288095D01*
X-9659524Y-112350000D01*
X-9597620Y-112411904D01*
D10*
D11*
X-10340477Y-163588095D02*
X-10340477Y-162288095D01*
X-10030953Y-162288095D01*
X-9845239Y-162350000D01*
X-9721429Y-162473809D01*
X-9659524Y-162597619D01*
X-9597620Y-162845238D01*
X-9597620Y-163030952D01*
X-9659524Y-163278571D01*
X-9721429Y-163402380D01*
X-9845239Y-163526190D01*
X-10030953Y-163588095D01*
X-10340477Y-163588095D01*
D10*
D11*
X-10278572Y-212907142D02*
X-9845239Y-212907142D01*
X-9659524Y-213588095D02*
X-10278572Y-213588095D01*
X-10278572Y-212288095D01*
X-9659524Y-212288095D01*
D10*
D11*
X-9814286Y-262907142D02*
X-10247620Y-262907142D01*
X-10247620Y-263588095D02*
X-10247620Y-262288095D01*
X-9628572Y-262288095D01*
D10*
D11*
X388989000Y-38000000D02*
X386989000Y-38000000D01*
D10*
D11*
X388989000Y-88000000D02*
X386989000Y-88000000D01*
D10*
D11*
X388989000Y-138000000D02*
X386989000Y-138000000D01*
D10*
D11*
X388989000Y-188000000D02*
X386989000Y-188000000D01*
D10*
D11*
X388989000Y-238000000D02*
X386989000Y-238000000D01*
D10*
D11*
X387679476Y-13216666D02*
X388298523Y-13216666D01*
X387555666Y-13588095D02*
X387989000Y-12288095D01*
X388422333Y-13588095D01*
D10*
D11*
X388081857Y-62907142D02*
X388267571Y-62969047D01*
X388329476Y-63030952D01*
X388391380Y-63154761D01*
X388391380Y-63340476D01*
X388329476Y-63464285D01*
X388267571Y-63526190D01*
X388143761Y-63588095D01*
X387648523Y-63588095D01*
X387648523Y-62288095D01*
X388081857Y-62288095D01*
X388205666Y-62350000D01*
X388267571Y-62411904D01*
X388329476Y-62535714D01*
X388329476Y-62659523D01*
X388267571Y-62783333D01*
X388205666Y-62845238D01*
X388081857Y-62907142D01*
X387648523Y-62907142D01*
D10*
D11*
X388391380Y-113464285D02*
X388329476Y-113526190D01*
X388143761Y-113588095D01*
X388019952Y-113588095D01*
X387834238Y-113526190D01*
X387710428Y-113402380D01*
X387648523Y-113278571D01*
X387586619Y-113030952D01*
X387586619Y-112845238D01*
X387648523Y-112597619D01*
X387710428Y-112473809D01*
X387834238Y-112350000D01*
X388019952Y-112288095D01*
X388143761Y-112288095D01*
X388329476Y-112350000D01*
X388391380Y-112411904D01*
D10*
D11*
X387648523Y-163588095D02*
X387648523Y-162288095D01*
X387958047Y-162288095D01*
X388143761Y-162350000D01*
X388267571Y-162473809D01*
X388329476Y-162597619D01*
X388391380Y-162845238D01*
X388391380Y-163030952D01*
X388329476Y-163278571D01*
X388267571Y-163402380D01*
X388143761Y-163526190D01*
X387958047Y-163588095D01*
X387648523Y-163588095D01*
D10*
D11*
X387710428Y-212907142D02*
X388143761Y-212907142D01*
X388329476Y-213588095D02*
X387710428Y-213588095D01*
X387710428Y-212288095D01*
X388329476Y-212288095D01*
D10*
D11*
X388174714Y-262907142D02*
X387741380Y-262907142D01*
X387741380Y-263588095D02*
X387741380Y-262288095D01*
X388360428Y-262288095D01*
D10*
D11*
X302421142Y-258780771D02*
X302421142Y-257280771D01*
X302778285Y-257280771D01*
X302992571Y-257352200D01*
X303135428Y-257495057D01*
X303206857Y-257637914D01*
X303278285Y-257923628D01*
X303278285Y-258137914D01*
X303206857Y-258423628D01*
X303135428Y-258566485D01*
X302992571Y-258709342D01*
X302778285Y-258780771D01*
X302421142Y-258780771D01*
X304564000Y-258780771D02*
X304564000Y-257995057D01*
X304492571Y-257852200D01*
X304349714Y-257780771D01*
X304064000Y-257780771D01*
X303921142Y-257852200D01*
X304564000Y-258709342D02*
X304421142Y-258780771D01*
X304064000Y-258780771D01*
X303921142Y-258709342D01*
X303849714Y-258566485D01*
X303849714Y-258423628D01*
X303921142Y-258280771D01*
X304064000Y-258209342D01*
X304421142Y-258209342D01*
X304564000Y-258137914D01*
X305064000Y-257780771D02*
X305635428Y-257780771D01*
X305278285Y-257280771D02*
X305278285Y-258566485D01*
X305349714Y-258709342D01*
X305492571Y-258780771D01*
X305635428Y-258780771D01*
X306706857Y-258709342D02*
X306564000Y-258780771D01*
X306278285Y-258780771D01*
X306135428Y-258709342D01*
X306064000Y-258566485D01*
X306064000Y-257995057D01*
X306135428Y-257852200D01*
X306278285Y-257780771D01*
X306564000Y-257780771D01*
X306706857Y-257852200D01*
X306778285Y-257995057D01*
X306778285Y-258137914D01*
X306064000Y-258280771D01*
X307421142Y-258637914D02*
X307492571Y-258709342D01*
X307421142Y-258780771D01*
X307349714Y-258709342D01*
X307421142Y-258637914D01*
X307421142Y-258780771D01*
X307421142Y-257852200D02*
X307492571Y-257923628D01*
X307421142Y-257995057D01*
X307349714Y-257923628D01*
X307421142Y-257852200D01*
X307421142Y-257995057D01*
D10*
D11*
X278989000Y-259502200D02*
X386989000Y-259502200D01*
D10*
D11*
X280421142Y-261580771D02*
X280421142Y-260080771D01*
X281278285Y-261580771D02*
X280635428Y-260723628D01*
X281278285Y-260080771D02*
X280421142Y-260937914D01*
X281921142Y-261580771D02*
X281921142Y-260580771D01*
X281921142Y-260080771D02*
X281849714Y-260152200D01*
X281921142Y-260223628D01*
X281992571Y-260152200D01*
X281921142Y-260080771D01*
X281921142Y-260223628D01*
X283492571Y-261437914D02*
X283421142Y-261509342D01*
X283206857Y-261580771D01*
X283064000Y-261580771D01*
X282849714Y-261509342D01*
X282706857Y-261366485D01*
X282635428Y-261223628D01*
X282564000Y-260937914D01*
X282564000Y-260723628D01*
X282635428Y-260437914D01*
X282706857Y-260295057D01*
X282849714Y-260152200D01*
X283064000Y-260080771D01*
X283206857Y-260080771D01*
X283421142Y-260152200D01*
X283492571Y-260223628D01*
X284778285Y-261580771D02*
X284778285Y-260795057D01*
X284706857Y-260652200D01*
X284564000Y-260580771D01*
X284278285Y-260580771D01*
X284135428Y-260652200D01*
X284778285Y-261509342D02*
X284635428Y-261580771D01*
X284278285Y-261580771D01*
X284135428Y-261509342D01*
X284064000Y-261366485D01*
X284064000Y-261223628D01*
X284135428Y-261080771D01*
X284278285Y-261009342D01*
X284635428Y-261009342D01*
X284778285Y-260937914D01*
X286135428Y-261580771D02*
X286135428Y-260080771D01*
X286135428Y-261509342D02*
X285992571Y-261580771D01*
X285706857Y-261580771D01*
X285564000Y-261509342D01*
X285492571Y-261437914D01*
X285421142Y-261295057D01*
X285421142Y-260866485D01*
X285492571Y-260723628D01*
X285564000Y-260652200D01*
X285706857Y-260580771D01*
X285992571Y-260580771D01*
X286135428Y-260652200D01*
X287992571Y-260795057D02*
X288492571Y-260795057D01*
X288706857Y-261580771D02*
X287992571Y-261580771D01*
X287992571Y-260080771D01*
X288706857Y-260080771D01*
X289349714Y-261437914D02*
X289421142Y-261509342D01*
X289349714Y-261580771D01*
X289278285Y-261509342D01*
X289349714Y-261437914D01*
X289349714Y-261580771D01*
X290064000Y-261580771D02*
X290064000Y-260080771D01*
X290421142Y-260080771D01*
X290635428Y-260152200D01*
X290778285Y-260295057D01*
X290849714Y-260437914D01*
X290921142Y-260723628D01*
X290921142Y-260937914D01*
X290849714Y-261223628D01*
X290778285Y-261366485D01*
X290635428Y-261509342D01*
X290421142Y-261580771D01*
X290064000Y-261580771D01*
X291564000Y-261437914D02*
X291635428Y-261509342D01*
X291564000Y-261580771D01*
X291492571Y-261509342D01*
X291564000Y-261437914D01*
X291564000Y-261580771D01*
X292206857Y-261152200D02*
X292921142Y-261152200D01*
X292064000Y-261580771D02*
X292564000Y-260080771D01*
X293064000Y-261580771D01*
X293564000Y-261437914D02*
X293635428Y-261509342D01*
X293564000Y-261580771D01*
X293492571Y-261509342D01*
X293564000Y-261437914D01*
X293564000Y-261580771D01*
X296564000Y-261580771D02*
X296564000Y-260080771D01*
X296706857Y-261009342D02*
X297135428Y-261580771D01*
X297135428Y-260580771D02*
X296564000Y-261152200D01*
X297778285Y-261580771D02*
X297778285Y-260580771D01*
X297778285Y-260080771D02*
X297706857Y-260152200D01*
X297778285Y-260223628D01*
X297849714Y-260152200D01*
X297778285Y-260080771D01*
X297778285Y-260223628D01*
X299135428Y-261509342D02*
X298992571Y-261580771D01*
X298706857Y-261580771D01*
X298564000Y-261509342D01*
X298492571Y-261437914D01*
X298421142Y-261295057D01*
X298421142Y-260866485D01*
X298492571Y-260723628D01*
X298564000Y-260652200D01*
X298706857Y-260580771D01*
X298992571Y-260580771D01*
X299135428Y-260652200D01*
X300421142Y-261580771D02*
X300421142Y-260795057D01*
X300349714Y-260652200D01*
X300206857Y-260580771D01*
X299921142Y-260580771D01*
X299778285Y-260652200D01*
X300421142Y-261509342D02*
X300278285Y-261580771D01*
X299921142Y-261580771D01*
X299778285Y-261509342D01*
X299706857Y-261366485D01*
X299706857Y-261223628D01*
X299778285Y-261080771D01*
X299921142Y-261009342D01*
X300278285Y-261009342D01*
X300421142Y-260937914D01*
X301778285Y-261580771D02*
X301778285Y-260080771D01*
X301778285Y-261509342D02*
X301635428Y-261580771D01*
X301349714Y-261580771D01*
X301206857Y-261509342D01*
X301135428Y-261437914D01*
X301064000Y-261295057D01*
X301064000Y-260866485D01*
X301135428Y-260723628D01*
X301206857Y-260652200D01*
X301349714Y-260580771D01*
X301635428Y-260580771D01*
X301778285Y-260652200D01*
X304064000Y-262152200D02*
X303992571Y-262080771D01*
X303849714Y-261866485D01*
X303778285Y-261723628D01*
X303706857Y-261509342D01*
X303635428Y-261152200D01*
X303635428Y-260866485D01*
X303706857Y-260509342D01*
X303778285Y-260295057D01*
X303849714Y-260152200D01*
X303992571Y-259937914D01*
X304064000Y-259866485D01*
X305278285Y-260080771D02*
X304992571Y-260080771D01*
X304849714Y-260152200D01*
X304778285Y-260223628D01*
X304635428Y-260437914D01*
X304564000Y-260723628D01*
X304564000Y-261295057D01*
X304635428Y-261437914D01*
X304706857Y-261509342D01*
X304849714Y-261580771D01*
X305135428Y-261580771D01*
X305278285Y-261509342D01*
X305349714Y-261437914D01*
X305421142Y-261295057D01*
X305421142Y-260937914D01*
X305349714Y-260795057D01*
X305278285Y-260723628D01*
X305135428Y-260652200D01*
X304849714Y-260652200D01*
X304706857Y-260723628D01*
X304635428Y-260795057D01*
X304564000Y-260937914D01*
X306064000Y-261437914D02*
X306135428Y-261509342D01*
X306064000Y-261580771D01*
X305992571Y-261509342D01*
X306064000Y-261437914D01*
X306064000Y-261580771D01*
X307064000Y-260080771D02*
X307206857Y-260080771D01*
X307349714Y-260152200D01*
X307421142Y-260223628D01*
X307492571Y-260366485D01*
X307564000Y-260652200D01*
X307564000Y-261009342D01*
X307492571Y-261295057D01*
X307421142Y-261437914D01*
X307349714Y-261509342D01*
X307206857Y-261580771D01*
X307064000Y-261580771D01*
X306921142Y-261509342D01*
X306849714Y-261437914D01*
X306778285Y-261295057D01*
X306706857Y-261009342D01*
X306706857Y-260652200D01*
X306778285Y-260366485D01*
X306849714Y-260223628D01*
X306921142Y-260152200D01*
X307064000Y-260080771D01*
X308206857Y-261437914D02*
X308278285Y-261509342D01*
X308206857Y-261580771D01*
X308135428Y-261509342D01*
X308206857Y-261437914D01*
X308206857Y-261580771D01*
X308992571Y-261580771D02*
X309278285Y-261580771D01*
X309421142Y-261509342D01*
X309492571Y-261437914D01*
X309635428Y-261223628D01*
X309706857Y-260937914D01*
X309706857Y-260366485D01*
X309635428Y-260223628D01*
X309564000Y-260152200D01*
X309421142Y-260080771D01*
X309135428Y-260080771D01*
X308992571Y-260152200D01*
X308921142Y-260223628D01*
X308849714Y-260366485D01*
X308849714Y-260723628D01*
X308921142Y-260866485D01*
X308992571Y-260937914D01*
X309135428Y-261009342D01*
X309421142Y-261009342D01*
X309564000Y-260937914D01*
X309635428Y-260866485D01*
X309706857Y-260723628D01*
X310206857Y-262152200D02*
X310278285Y-262080771D01*
X310421142Y-261866485D01*
X310492571Y-261723628D01*
X310564000Y-261509342D01*
X310635428Y-261152200D01*
X310635428Y-260866485D01*
X310564000Y-260509342D01*
X310492571Y-260295057D01*
X310421142Y-260152200D01*
X310278285Y-259937914D01*
X310206857Y-259866485D01*
D10*
D11*
X278989000Y-256502200D02*
X386989000Y-256502200D01*
D10*
D12*
X366398285Y-258780771D02*
X365898285Y-258066485D01*
X365541142Y-258780771D02*
X365541142Y-257280771D01*
X366112571Y-257280771D01*
X366255428Y-257352200D01*
X366326857Y-257423628D01*
X366398285Y-257566485D01*
X366398285Y-257780771D01*
X366326857Y-257923628D01*
X366255428Y-257995057D01*
X366112571Y-258066485D01*
X365541142Y-258066485D01*
X367612571Y-258709342D02*
X367469714Y-258780771D01*
X367184000Y-258780771D01*
X367041142Y-258709342D01*
X366969714Y-258566485D01*
X366969714Y-257995057D01*
X367041142Y-257852200D01*
X367184000Y-257780771D01*
X367469714Y-257780771D01*
X367612571Y-257852200D01*
X367684000Y-257995057D01*
X367684000Y-258137914D01*
X366969714Y-258280771D01*
X368184000Y-257780771D02*
X368541142Y-258780771D01*
X368898285Y-257780771D01*
X369469714Y-258637914D02*
X369541142Y-258709342D01*
X369469714Y-258780771D01*
X369398285Y-258709342D01*
X369469714Y-258637914D01*
X369469714Y-258780771D01*
X369469714Y-257852200D02*
X369541142Y-257923628D01*
X369469714Y-257995057D01*
X369398285Y-257923628D01*
X369469714Y-257852200D01*
X369469714Y-257995057D01*
D10*
D11*
X280349714Y-258709342D02*
X280564000Y-258780771D01*
X280921142Y-258780771D01*
X281064000Y-258709342D01*
X281135428Y-258637914D01*
X281206857Y-258495057D01*
X281206857Y-258352200D01*
X281135428Y-258209342D01*
X281064000Y-258137914D01*
X280921142Y-258066485D01*
X280635428Y-257995057D01*
X280492571Y-257923628D01*
X280421142Y-257852200D01*
X280349714Y-257709342D01*
X280349714Y-257566485D01*
X280421142Y-257423628D01*
X280492571Y-257352200D01*
X280635428Y-257280771D01*
X280992571Y-257280771D01*
X281206857Y-257352200D01*
X281849714Y-258780771D02*
X281849714Y-257780771D01*
X281849714Y-257280771D02*
X281778285Y-257352200D01*
X281849714Y-257423628D01*
X281921142Y-257352200D01*
X281849714Y-257280771D01*
X281849714Y-257423628D01*
X282421142Y-257780771D02*
X283206857Y-257780771D01*
X282421142Y-258780771D01*
X283206857Y-258780771D01*
X284349714Y-258709342D02*
X284206857Y-258780771D01*
X283921142Y-258780771D01*
X283778285Y-258709342D01*
X283706857Y-258566485D01*
X283706857Y-257995057D01*
X283778285Y-257852200D01*
X283921142Y-257780771D01*
X284206857Y-257780771D01*
X284349714Y-257852200D01*
X284421142Y-257995057D01*
X284421142Y-258137914D01*
X283706857Y-258280771D01*
X285064000Y-258637914D02*
X285135428Y-258709342D01*
X285064000Y-258780771D01*
X284992571Y-258709342D01*
X285064000Y-258637914D01*
X285064000Y-258780771D01*
X285064000Y-257852200D02*
X285135428Y-257923628D01*
X285064000Y-257995057D01*
X284992571Y-257923628D01*
X285064000Y-257852200D01*
X285064000Y-257995057D01*
X286849714Y-258352200D02*
X287564000Y-258352200D01*
X286706857Y-258780771D02*
X287206857Y-257280771D01*
X287706857Y-258780771D01*
X288064000Y-257280771D02*
X288992571Y-257280771D01*
X288492571Y-257852200D01*
X288706857Y-257852200D01*
X288849714Y-257923628D01*
X288921142Y-257995057D01*
X288992571Y-258137914D01*
X288992571Y-258495057D01*
X288921142Y-258637914D01*
X288849714Y-258709342D01*
X288706857Y-258780771D01*
X288278285Y-258780771D01*
X288135428Y-258709342D01*
X288064000Y-258637914D01*
D10*
D11*
X365421142Y-261580771D02*
X365421142Y-260080771D01*
X366778285Y-261580771D02*
X366778285Y-260080771D01*
X366778285Y-261509342D02*
X366635428Y-261580771D01*
X366349714Y-261580771D01*
X366206857Y-261509342D01*
X366135428Y-261437914D01*
X366064000Y-261295057D01*
X366064000Y-260866485D01*
X366135428Y-260723628D01*
X366206857Y-260652200D01*
X366349714Y-260580771D01*
X366635428Y-260580771D01*
X366778285Y-260652200D01*
X367492571Y-261437914D02*
X367564000Y-261509342D01*
X367492571Y-261580771D01*
X367421142Y-261509342D01*
X367492571Y-261437914D01*
X367492571Y-261580771D01*
X367492571Y-260652200D02*
X367564000Y-260723628D01*
X367492571Y-260795057D01*
X367421142Y-260723628D01*
X367492571Y-260652200D01*
X367492571Y-260795057D01*
X370135428Y-261580771D02*
X369278285Y-261580771D01*
X369706857Y-261580771D02*
X369706857Y-260080771D01*
X369564000Y-260295057D01*
X369421142Y-260437914D01*
X369278285Y-260509342D01*
X371849714Y-260009342D02*
X370564000Y-261937914D01*
X373135428Y-261580771D02*
X372278285Y-261580771D01*
X372706857Y-261580771D02*
X372706857Y-260080771D01*
X372564000Y-260295057D01*
X372421142Y-260437914D01*
X372278285Y-260509342D01*
D10*
D11*
X278989000Y-252502200D02*
X386989000Y-252502200D01*
D10*
D13*
X280701380Y-253206961D02*
X281844238Y-253206961D01*
X281022809Y-255206961D02*
X281272809Y-253206961D01*
X282260904Y-255206961D02*
X282427571Y-253873628D01*
X282510904Y-253206961D02*
X282403761Y-253302200D01*
X282487095Y-253397438D01*
X282594238Y-253302200D01*
X282510904Y-253206961D01*
X282487095Y-253397438D01*
X283094238Y-253873628D02*
X283856142Y-253873628D01*
X283463285Y-253206961D02*
X283249000Y-254921247D01*
X283320428Y-255111723D01*
X283499000Y-255206961D01*
X283689476Y-255206961D01*
X284641857Y-255206961D02*
X284463285Y-255111723D01*
X284391857Y-254921247D01*
X284606142Y-253206961D01*
X286177571Y-255111723D02*
X285975190Y-255206961D01*
X285594238Y-255206961D01*
X285415666Y-255111723D01*
X285344238Y-254921247D01*
X285439476Y-254159342D01*
X285558523Y-253968866D01*
X285760904Y-253873628D01*
X286141857Y-253873628D01*
X286320428Y-253968866D01*
X286391857Y-254159342D01*
X286368047Y-254349819D01*
X285391857Y-254540295D01*
X287141857Y-255016485D02*
X287225190Y-255111723D01*
X287118047Y-255206961D01*
X287034714Y-255111723D01*
X287141857Y-255016485D01*
X287118047Y-255206961D01*
X287272809Y-253968866D02*
X287356142Y-254064104D01*
X287249000Y-254159342D01*
X287165666Y-254064104D01*
X287272809Y-253968866D01*
X287249000Y-254159342D01*
D10*
D11*
X280921142Y-250595057D02*
X280421142Y-250595057D01*
X280421142Y-251380771D02*
X280421142Y-249880771D01*
X281135428Y-249880771D01*
X281706857Y-251380771D02*
X281706857Y-250380771D01*
X281706857Y-249880771D02*
X281635428Y-249952200D01*
X281706857Y-250023628D01*
X281778285Y-249952200D01*
X281706857Y-249880771D01*
X281706857Y-250023628D01*
X282635428Y-251380771D02*
X282492571Y-251309342D01*
X282421142Y-251166485D01*
X282421142Y-249880771D01*
X283778285Y-251309342D02*
X283635428Y-251380771D01*
X283349714Y-251380771D01*
X283206857Y-251309342D01*
X283135428Y-251166485D01*
X283135428Y-250595057D01*
X283206857Y-250452200D01*
X283349714Y-250380771D01*
X283635428Y-250380771D01*
X283778285Y-250452200D01*
X283849714Y-250595057D01*
X283849714Y-250737914D01*
X283135428Y-250880771D01*
X284492571Y-251237914D02*
X284564000Y-251309342D01*
X284492571Y-251380771D01*
X284421142Y-251309342D01*
X284492571Y-251237914D01*
X284492571Y-251380771D01*
X284492571Y-250452200D02*
X284564000Y-250523628D01*
X284492571Y-250595057D01*
X284421142Y-250523628D01*
X284492571Y-250452200D01*
X284492571Y-250595057D01*
X286206857Y-249880771D02*
X286564000Y-251380771D01*
X286849714Y-250309342D01*
X287135428Y-251380771D01*
X287492571Y-249880771D01*
X288635428Y-251309342D02*
X288492571Y-251380771D01*
X288206857Y-251380771D01*
X288064000Y-251309342D01*
X287992571Y-251166485D01*
X287992571Y-250595057D01*
X288064000Y-250452200D01*
X288206857Y-250380771D01*
X288492571Y-250380771D01*
X288635428Y-250452200D01*
X288706857Y-250595057D01*
X288706857Y-250737914D01*
X287992571Y-250880771D01*
X289992571Y-251380771D02*
X289992571Y-250595057D01*
X289921142Y-250452200D01*
X289778285Y-250380771D01*
X289492571Y-250380771D01*
X289349714Y-250452200D01*
X289992571Y-251309342D02*
X289849714Y-251380771D01*
X289492571Y-251380771D01*
X289349714Y-251309342D01*
X289278285Y-251166485D01*
X289278285Y-251023628D01*
X289349714Y-250880771D01*
X289492571Y-250809342D01*
X289849714Y-250809342D01*
X289992571Y-250737914D01*
X290492571Y-250380771D02*
X291064000Y-250380771D01*
X290706857Y-249880771D02*
X290706857Y-251166485D01*
X290778285Y-251309342D01*
X290921142Y-251380771D01*
X291064000Y-251380771D01*
X291564000Y-251380771D02*
X291564000Y-249880771D01*
X292206857Y-251380771D02*
X292206857Y-250595057D01*
X292135428Y-250452200D01*
X291992571Y-250380771D01*
X291778285Y-250380771D01*
X291635428Y-250452200D01*
X291564000Y-250523628D01*
X293492571Y-251309342D02*
X293349714Y-251380771D01*
X293064000Y-251380771D01*
X292921142Y-251309342D01*
X292849714Y-251166485D01*
X292849714Y-250595057D01*
X292921142Y-250452200D01*
X293064000Y-250380771D01*
X293349714Y-250380771D01*
X293492571Y-250452200D01*
X293564000Y-250595057D01*
X293564000Y-250737914D01*
X292849714Y-250880771D01*
X294206857Y-251380771D02*
X294206857Y-250380771D01*
X294206857Y-250666485D02*
X294278285Y-250523628D01*
X294349714Y-250452200D01*
X294492571Y-250380771D01*
X294635428Y-250380771D01*
X295135428Y-251380771D02*
X295135428Y-249880771D01*
X295992571Y-251380771D02*
X295349714Y-250523628D01*
X295992571Y-249880771D02*
X295135428Y-250737914D01*
X296635428Y-251380771D02*
X296635428Y-250380771D01*
X296635428Y-249880771D02*
X296564000Y-249952200D01*
X296635428Y-250023628D01*
X296706857Y-249952200D01*
X296635428Y-249880771D01*
X296635428Y-250023628D01*
X297992571Y-251380771D02*
X297992571Y-249880771D01*
X297992571Y-251309342D02*
X297849714Y-251380771D01*
X297564000Y-251380771D01*
X297421142Y-251309342D01*
X297349714Y-251237914D01*
X297278285Y-251095057D01*
X297278285Y-250666485D01*
X297349714Y-250523628D01*
X297421142Y-250452200D01*
X297564000Y-250380771D01*
X297849714Y-250380771D01*
X297992571Y-250452200D01*
X298635428Y-251309342D02*
X298778285Y-251380771D01*
X299064000Y-251380771D01*
X299206857Y-251309342D01*
X299278285Y-251166485D01*
X299278285Y-251095057D01*
X299206857Y-250952200D01*
X299064000Y-250880771D01*
X298849714Y-250880771D01*
X298706857Y-250809342D01*
X298635428Y-250666485D01*
X298635428Y-250595057D01*
X298706857Y-250452200D01*
X298849714Y-250380771D01*
X299064000Y-250380771D01*
X299206857Y-250452200D01*
X299564000Y-251523628D02*
X300706857Y-251523628D01*
X301921142Y-251237914D02*
X301849714Y-251309342D01*
X301635428Y-251380771D01*
X301492571Y-251380771D01*
X301278285Y-251309342D01*
X301135428Y-251166485D01*
X301064000Y-251023628D01*
X300992571Y-250737914D01*
X300992571Y-250523628D01*
X301064000Y-250237914D01*
X301135428Y-250095057D01*
X301278285Y-249952200D01*
X301492571Y-249880771D01*
X301635428Y-249880771D01*
X301849714Y-249952200D01*
X301921142Y-250023628D01*
X302778285Y-251380771D02*
X302635428Y-251309342D01*
X302564000Y-251237914D01*
X302492571Y-251095057D01*
X302492571Y-250666485D01*
X302564000Y-250523628D01*
X302635428Y-250452200D01*
X302778285Y-250380771D01*
X302992571Y-250380771D01*
X303135428Y-250452200D01*
X303206857Y-250523628D01*
X303278285Y-250666485D01*
X303278285Y-251095057D01*
X303206857Y-251237914D01*
X303135428Y-251309342D01*
X302992571Y-251380771D01*
X302778285Y-251380771D01*
X303921142Y-251380771D02*
X303921142Y-250380771D01*
X303921142Y-250523628D02*
X303992571Y-250452200D01*
X304135428Y-250380771D01*
X304349714Y-250380771D01*
X304492571Y-250452200D01*
X304564000Y-250595057D01*
X304564000Y-251380771D01*
X304564000Y-250595057D02*
X304635428Y-250452200D01*
X304778285Y-250380771D01*
X304992571Y-250380771D01*
X305135428Y-250452200D01*
X305206857Y-250595057D01*
X305206857Y-251380771D01*
X305921142Y-250380771D02*
X305921142Y-251880771D01*
X305921142Y-250452200D02*
X306064000Y-250380771D01*
X306349714Y-250380771D01*
X306492571Y-250452200D01*
X306564000Y-250523628D01*
X306635428Y-250666485D01*
X306635428Y-251095057D01*
X306564000Y-251237914D01*
X306492571Y-251309342D01*
X306349714Y-251380771D01*
X306064000Y-251380771D01*
X305921142Y-251309342D01*
X307921142Y-251380771D02*
X307921142Y-250595057D01*
X307849714Y-250452200D01*
X307706857Y-250380771D01*
X307421142Y-250380771D01*
X307278285Y-250452200D01*
X307921142Y-251309342D02*
X307778285Y-251380771D01*
X307421142Y-251380771D01*
X307278285Y-251309342D01*
X307206857Y-251166485D01*
X307206857Y-251023628D01*
X307278285Y-250880771D01*
X307421142Y-250809342D01*
X307778285Y-250809342D01*
X307921142Y-250737914D01*
X309278285Y-251309342D02*
X309135428Y-251380771D01*
X308849714Y-251380771D01*
X308706857Y-251309342D01*
X308635428Y-251237914D01*
X308564000Y-251095057D01*
X308564000Y-250666485D01*
X308635428Y-250523628D01*
X308706857Y-250452200D01*
X308849714Y-250380771D01*
X309135428Y-250380771D01*
X309278285Y-250452200D01*
X309706857Y-250380771D02*
X310278285Y-250380771D01*
X309921142Y-249880771D02*
X309921142Y-251166485D01*
X309992571Y-251309342D01*
X310135428Y-251380771D01*
X310278285Y-251380771D01*
X311206857Y-251952200D02*
X311135428Y-251880771D01*
X310992571Y-251666485D01*
X310921142Y-251523628D01*
X310849714Y-251309342D01*
X310778285Y-250952200D01*
X310778285Y-250666485D01*
X310849714Y-250309342D01*
X310921142Y-250095057D01*
X310992571Y-249952200D01*
X311135428Y-249737914D01*
X311206857Y-249666485D01*
X311564000Y-249880771D02*
X312064000Y-251380771D01*
X312564000Y-249880771D01*
X312992571Y-250023628D02*
X313064000Y-249952200D01*
X313206857Y-249880771D01*
X313564000Y-249880771D01*
X313706857Y-249952200D01*
X313778285Y-250023628D01*
X313849714Y-250166485D01*
X313849714Y-250309342D01*
X313778285Y-250523628D01*
X312921142Y-251380771D01*
X313849714Y-251380771D01*
X314492571Y-251237914D02*
X314564000Y-251309342D01*
X314492571Y-251380771D01*
X314421142Y-251309342D01*
X314492571Y-251237914D01*
X314492571Y-251380771D01*
X315992571Y-251380771D02*
X315135428Y-251380771D01*
X315564000Y-251380771D02*
X315564000Y-249880771D01*
X315421142Y-250095057D01*
X315278285Y-250237914D01*
X315135428Y-250309342D01*
X316492571Y-251952200D02*
X316564000Y-251880771D01*
X316706857Y-251666485D01*
X316778285Y-251523628D01*
X316849714Y-251309342D01*
X316921142Y-250952200D01*
X316921142Y-250666485D01*
X316849714Y-250309342D01*
X316778285Y-250095057D01*
X316706857Y-249952200D01*
X316564000Y-249737914D01*
X316492571Y-249666485D01*
X317635428Y-251237914D02*
X317706857Y-251309342D01*
X317635428Y-251380771D01*
X317564000Y-251309342D01*
X317635428Y-251237914D01*
X317635428Y-251380771D01*
X318349714Y-251380771D02*
X318349714Y-249880771D01*
X318492571Y-250809342D02*
X318921142Y-251380771D01*
X318921142Y-250380771D02*
X318349714Y-250952200D01*
X319564000Y-251380771D02*
X319564000Y-250380771D01*
X319564000Y-249880771D02*
X319492571Y-249952200D01*
X319564000Y-250023628D01*
X319635428Y-249952200D01*
X319564000Y-249880771D01*
X319564000Y-250023628D01*
X320921142Y-251309342D02*
X320778285Y-251380771D01*
X320492571Y-251380771D01*
X320349714Y-251309342D01*
X320278285Y-251237914D01*
X320206857Y-251095057D01*
X320206857Y-250666485D01*
X320278285Y-250523628D01*
X320349714Y-250452200D01*
X320492571Y-250380771D01*
X320778285Y-250380771D01*
X320921142Y-250452200D01*
X322206857Y-251380771D02*
X322206857Y-250595057D01*
X322135428Y-250452200D01*
X321992571Y-250380771D01*
X321706857Y-250380771D01*
X321564000Y-250452200D01*
X322206857Y-251309342D02*
X322064000Y-251380771D01*
X321706857Y-251380771D01*
X321564000Y-251309342D01*
X321492571Y-251166485D01*
X321492571Y-251023628D01*
X321564000Y-250880771D01*
X321706857Y-250809342D01*
X322064000Y-250809342D01*
X322206857Y-250737914D01*
X323564000Y-251380771D02*
X323564000Y-249880771D01*
X323564000Y-251309342D02*
X323421142Y-251380771D01*
X323135428Y-251380771D01*
X322992571Y-251309342D01*
X322921142Y-251237914D01*
X322849714Y-251095057D01*
X322849714Y-250666485D01*
X322921142Y-250523628D01*
X322992571Y-250452200D01*
X323135428Y-250380771D01*
X323421142Y-250380771D01*
X323564000Y-250452200D01*
X323921142Y-251523628D02*
X325064000Y-251523628D01*
X325421142Y-250380771D02*
X325421142Y-251880771D01*
X325421142Y-250452200D02*
X325564000Y-250380771D01*
X325849714Y-250380771D01*
X325992571Y-250452200D01*
X326064000Y-250523628D01*
X326135428Y-250666485D01*
X326135428Y-251095057D01*
X326064000Y-251237914D01*
X325992571Y-251309342D01*
X325849714Y-251380771D01*
X325564000Y-251380771D01*
X325421142Y-251309342D01*
X327421142Y-251309342D02*
X327278285Y-251380771D01*
X326992571Y-251380771D01*
X326849714Y-251309342D01*
X326778285Y-251237914D01*
X326706857Y-251095057D01*
X326706857Y-250666485D01*
X326778285Y-250523628D01*
X326849714Y-250452200D01*
X326992571Y-250380771D01*
X327278285Y-250380771D01*
X327421142Y-250452200D01*
X328064000Y-251380771D02*
X328064000Y-249880771D01*
X328064000Y-250452200D02*
X328206857Y-250380771D01*
X328492571Y-250380771D01*
X328635428Y-250452200D01*
X328706857Y-250523628D01*
X328778285Y-250666485D01*
X328778285Y-251095057D01*
X328706857Y-251237914D01*
X328635428Y-251309342D01*
X328492571Y-251380771D01*
X328206857Y-251380771D01*
X328064000Y-251309342D01*
D10*
D11*
X278989000Y-246502200D02*
X386989000Y-246502200D01*
D10*
D11*
X280349714Y-248609342D02*
X280564000Y-248680771D01*
X280921142Y-248680771D01*
X281064000Y-248609342D01*
X281135428Y-248537914D01*
X281206857Y-248395057D01*
X281206857Y-248252200D01*
X281135428Y-248109342D01*
X281064000Y-248037914D01*
X280921142Y-247966485D01*
X280635428Y-247895057D01*
X280492571Y-247823628D01*
X280421142Y-247752200D01*
X280349714Y-247609342D01*
X280349714Y-247466485D01*
X280421142Y-247323628D01*
X280492571Y-247252200D01*
X280635428Y-247180771D01*
X280992571Y-247180771D01*
X281206857Y-247252200D01*
X281849714Y-248680771D02*
X281849714Y-247180771D01*
X282492571Y-248680771D02*
X282492571Y-247895057D01*
X282421142Y-247752200D01*
X282278285Y-247680771D01*
X282064000Y-247680771D01*
X281921142Y-247752200D01*
X281849714Y-247823628D01*
X283778285Y-248609342D02*
X283635428Y-248680771D01*
X283349714Y-248680771D01*
X283206857Y-248609342D01*
X283135428Y-248466485D01*
X283135428Y-247895057D01*
X283206857Y-247752200D01*
X283349714Y-247680771D01*
X283635428Y-247680771D01*
X283778285Y-247752200D01*
X283849714Y-247895057D01*
X283849714Y-248037914D01*
X283135428Y-248180771D01*
X285064000Y-248609342D02*
X284921142Y-248680771D01*
X284635428Y-248680771D01*
X284492571Y-248609342D01*
X284421142Y-248466485D01*
X284421142Y-247895057D01*
X284492571Y-247752200D01*
X284635428Y-247680771D01*
X284921142Y-247680771D01*
X285064000Y-247752200D01*
X285135428Y-247895057D01*
X285135428Y-248037914D01*
X284421142Y-248180771D01*
X285564000Y-247680771D02*
X286135428Y-247680771D01*
X285778285Y-247180771D02*
X285778285Y-248466485D01*
X285849714Y-248609342D01*
X285992571Y-248680771D01*
X286135428Y-248680771D01*
X286635428Y-248537914D02*
X286706857Y-248609342D01*
X286635428Y-248680771D01*
X286564000Y-248609342D01*
X286635428Y-248537914D01*
X286635428Y-248680771D01*
X286635428Y-247752200D02*
X286706857Y-247823628D01*
X286635428Y-247895057D01*
X286564000Y-247823628D01*
X286635428Y-247752200D01*
X286635428Y-247895057D01*
D10*
D12*
D10*
D11*
D10*
D11*
D10*
D11*
D10*
D11*
D10*
D11*
X298989000Y-256502200D02*
X298989000Y-259502200D01*
D10*
D11*
X362989000Y-256502200D02*
X362989000Y-263002200D01*
D14*
X0Y-70000000D02*
X53000000Y-70000000D01*
X4351225Y-24600000D02*
G75*
G03*
X4351225Y-26600000I50025J-1000000D01*
G01*
X9200000Y-5451225D02*
G75*
G03*
X7200000Y-5451225I-1000000J-50025D01*
G01*
X53000000Y-70000000D02*
X53000000Y0D01*
X9200000Y-5451225D02*
X9200000Y-24600000D01*
X7200000Y-23600000D02*
X7200000Y-5451225D01*
X6100000Y-24600000D02*
G75*
G03*
X7200000Y-23600000I50000J1050000D01*
G01*
X0Y0D02*
X0Y-70000000D01*
X53000000Y0D02*
X0Y0D01*
X7100000Y-26600000D02*
G75*
G03*
X9200000Y-24600000I50000J2050000D01*
G01*
X4351225Y-26600000D02*
X7100000Y-26600000D01*
X4351225Y-24600000D02*
X6100000Y-24600000D01*
M02*
