M48
; DRILL file {KiCad (6.0.9)} date Tue Jul 18 14:40:21 2023
; FORMAT={-:-/ absolute / metric / decimal}
; #@! TF.CreationDate,2023-07-18T14:40:21+05:30
; #@! TF.GenerationSoftware,Kicad,Pcbnew,(6.0.9)
; #@! TF.FileFunction,Plated,1,2,PTH
FMAT,2
METRIC
; #@! TA.AperFunction,Plated,PTH,ViaDrill
T1C0.300
; #@! TA.AperFunction,Plated,PTH,ComponentDrill
T2C0.300
; #@! TA.AperFunction,Plated,PTH,ComponentDrill
T3C0.600
; #@! TA.AperFunction,Plated,PTH,ComponentDrill
T4C0.750
; #@! TA.AperFunction,Plated,PTH,ComponentDrill
T5C0.800
; #@! TA.AperFunction,Plated,PTH,ComponentDrill
T6C1.400
%
G90
G05
T1
X1.4Y-20.8
X2.056Y-24.5
X3.5Y-23.4
X4.3Y-8.6
X5.0Y-18.6
X6.0Y-16.4
X6.3Y-21.5
X6.4Y-38.4
X6.4Y-48.2
X6.4Y-51.4
X7.5Y-34.7
X8.227Y-34.7
X9.0Y-34.7
X9.727Y-34.7
X10.2Y-20.1
X10.4Y-36.6
X10.48Y-32.68
X10.7Y-10.0
X10.8Y-21.0
X10.9Y-27.16
X10.9Y-28.14
X11.127Y-36.6
X11.4Y-23.1
X11.6Y-14.2
X12.5Y-39.2
X14.1Y-27.5
X14.1Y-40.7
X14.15Y-25.8
X15.1Y-25.8
X15.1Y-27.5
X15.1Y-29.244
X15.2Y-44.1
X15.405Y-7.495
X15.7Y-30.7
X15.7Y-38.0
X15.9Y-25.8
X15.9Y-27.5
X15.9Y-29.3
X17.2Y-23.9
X17.5Y-51.3
X18.3Y-44.7
X18.4Y-51.3
X18.75Y-47.05
X18.9Y-46.3
X19.0Y-69.1
X19.15Y-51.3
X19.5Y-43.5
X19.6Y-42.25
X19.8Y-46.3
X20.0Y-51.9
X20.3Y-54.9
X21.0Y-47.75
X21.0Y-69.027
X21.5Y-8.8
X22.0Y-69.0
X22.8Y-36.8
X23.0Y-52.55
X23.0Y-63.7
X23.5Y-8.8
X24.0Y-69.027
X24.21Y-27.91
X24.7Y-41.2
X25.9Y-35.9
X25.9Y-39.6
X26.0Y-44.7
X26.17Y-50.27
X26.2Y-27.2
X27.45Y-61.692
X27.6Y-47.7
X28.3Y-26.7
X29.0Y-44.8
X29.55Y-36.8
X30.277Y-36.8
X30.3Y-43.5
X30.357Y-29.657
X30.4Y-31.6
X31.003Y-36.8
X31.5Y-43.5
X32.0Y-49.7
X32.0Y-52.8
X32.0Y-69.027
X32.2Y-41.5
X32.6Y-56.9
X33.35Y-21.5
X33.35Y-24.495
X33.6Y-56.9
X33.7Y-26.8
X34.1Y-21.5
X34.1Y-24.495
X34.3Y-6.5
X34.3Y-7.5
X34.3Y-8.8
X34.3Y-10.8
X34.3Y-13.2
X34.827Y-21.5
X34.827Y-24.495
X35.0Y-32.4
X35.0Y-69.0
X35.553Y-21.5
X36.0Y-43.3
X36.05Y-39.55
X36.3Y-21.5
X36.9Y-15.8
X36.9Y-16.527
X37.0Y-63.5
X37.0Y-64.3
X37.15Y-50.05
X37.2Y-10.5
X37.2Y-13.1
X37.2Y-47.7
X37.2Y-48.4
X37.2Y-49.1
X37.3Y-45.7
X37.7Y-11.8
X38.02Y-17.82
X38.3Y-42.9
X38.5Y-6.2
X39.171Y-16.021
X39.2Y-11.8
X39.2Y-15.296
X39.8Y-10.5
X39.8Y-13.1
X40.0Y-18.4
X41.2Y-9.6
X41.2Y-39.7
X41.5Y-58.4
X41.5Y-59.0
X41.7Y-56.5
X41.9Y-54.1
X41.9Y-55.0
X42.0Y-49.3
X42.35Y-34.0
X42.35Y-34.7
X42.35Y-35.4
X42.7Y-49.9
X42.95Y-10.45
X43.2Y-46.6
X43.7Y-14.4
X43.9Y-47.4
X44.6Y-25.6
X44.6Y-48.0
X45.5Y-18.6
X48.0Y-12.55
X48.05Y-11.56
X50.8Y-25.7
T2
X20.695Y-14.072
X20.695Y-15.598
X21.457Y-13.31
X21.457Y-14.835
X21.457Y-16.36
X22.22Y-14.072
X22.22Y-15.598
X22.982Y-13.31
X22.982Y-14.835
X22.982Y-16.36
X23.745Y-14.072
X23.745Y-15.598
T4
X4.35Y-30.4
X4.35Y-32.4
X4.35Y-34.4
X4.35Y-36.4
X4.35Y-38.4
X4.35Y-43.4
X4.35Y-45.4
X4.35Y-47.4
X4.35Y-49.4
X4.35Y-51.4
X48.55Y-31.1
X48.55Y-33.1
T5
X47.725Y-39.6
X47.725Y-41.6
X48.725Y-37.55
X48.725Y-43.65
X50.725Y-37.55
X50.725Y-43.65
T6
X1.505Y-56.985
X1.505Y-60.485
X1.505Y-63.985
X1.505Y-67.485
X51.5Y-51.695
X51.5Y-55.505
X51.5Y-59.495
X51.5Y-63.305
T3
G00X47.15Y-7.98
M15
G01X48.25Y-7.98
M16
G05
G00X47.15Y-16.62
M15
G01X48.25Y-16.62
M16
G05
G00X51.58Y-7.98
M15
G01X52.18Y-7.98
M16
G05
G00X51.58Y-16.62
M15
G01X52.18Y-16.62
M16
G05
T0
M30
