%TF.GenerationSoftware,KiCad,Pcbnew,(6.0.9)*%
%TF.CreationDate,2023-07-18T14:40:25+05:30*%
%TF.ProjectId,WeatherKids_Compact(V2.1),57656174-6865-4724-9b69-64735f436f6d,rev?*%
%TF.SameCoordinates,PX1406f40PY14fb180*%
%TF.FileFunction,Soldermask,Top*%
%TF.FilePolarity,Negative*%
%FSLAX46Y46*%
G04 Gerber Fmt 4.6, Leading zero omitted, Abs format (unit mm)*
G04 Created by KiCad (PCBNEW (6.0.9)) date 2023-07-18 14:40:25*
%MOMM*%
%LPD*%
G01*
G04 APERTURE LIST*
G04 Aperture macros list*
%AMRoundRect*
0 Rectangle with rounded corners*
0 $1 Rounding radius*
0 $2 $3 $4 $5 $6 $7 $8 $9 X,Y pos of 4 corners*
0 Add a 4 corners polygon primitive as box body*
4,1,4,$2,$3,$4,$5,$6,$7,$8,$9,$2,$3,0*
0 Add four circle primitives for the rounded corners*
1,1,$1+$1,$2,$3*
1,1,$1+$1,$4,$5*
1,1,$1+$1,$6,$7*
1,1,$1+$1,$8,$9*
0 Add four rect primitives between the rounded corners*
20,1,$1+$1,$2,$3,$4,$5,0*
20,1,$1+$1,$4,$5,$6,$7,0*
20,1,$1+$1,$6,$7,$8,$9,0*
20,1,$1+$1,$8,$9,$2,$3,0*%
G04 Aperture macros list end*
%ADD10C,0.100000*%
%ADD11C,0.150000*%
%ADD12C,0.300000*%
%ADD13C,0.400000*%
%TA.AperFunction,Profile*%
%ADD14C,0.050000*%
%TD*%
%ADD15RoundRect,0.225000X-0.250000X0.225000X-0.250000X-0.225000X0.250000X-0.225000X0.250000X0.225000X0*%
%ADD16RoundRect,0.140000X0.140000X0.170000X-0.140000X0.170000X-0.140000X-0.170000X0.140000X-0.170000X0*%
%ADD17C,0.600000*%
%ADD18R,4.200000X4.200000*%
%ADD19R,1.500000X0.900000*%
%ADD20R,0.900000X1.500000*%
%ADD21RoundRect,0.250000X0.475000X-0.250000X0.475000X0.250000X-0.475000X0.250000X-0.475000X-0.250000X0*%
%ADD22RoundRect,0.150000X0.512500X0.150000X-0.512500X0.150000X-0.512500X-0.150000X0.512500X-0.150000X0*%
%ADD23RoundRect,0.135000X-0.185000X0.135000X-0.185000X-0.135000X0.185000X-0.135000X0.185000X0.135000X0*%
%ADD24RoundRect,0.135000X0.135000X0.185000X-0.135000X0.185000X-0.135000X-0.185000X0.135000X-0.185000X0*%
%ADD25RoundRect,0.135000X0.185000X-0.135000X0.185000X0.135000X-0.185000X0.135000X-0.185000X-0.135000X0*%
%ADD26RoundRect,0.140000X-0.140000X-0.170000X0.140000X-0.170000X0.140000X0.170000X-0.140000X0.170000X0*%
%ADD27RoundRect,0.187500X-0.187500X0.312500X-0.187500X-0.312500X0.187500X-0.312500X0.187500X0.312500X0*%
%ADD28C,2.200000*%
%ADD29RoundRect,0.135000X-0.135000X-0.185000X0.135000X-0.185000X0.135000X0.185000X-0.135000X0.185000X0*%
%ADD30R,1.800000X2.500000*%
%ADD31R,2.000000X0.800000*%
%ADD32RoundRect,0.200000X0.200000X0.275000X-0.200000X0.275000X-0.200000X-0.275000X0.200000X-0.275000X0*%
%ADD33R,3.350000X3.350000*%
%ADD34RoundRect,0.062500X0.062500X0.337500X-0.062500X0.337500X-0.062500X-0.337500X0.062500X-0.337500X0*%
%ADD35RoundRect,0.062500X0.337500X0.062500X-0.337500X0.062500X-0.337500X-0.062500X0.337500X-0.062500X0*%
%ADD36RoundRect,0.150000X0.587500X0.150000X-0.587500X0.150000X-0.587500X-0.150000X0.587500X-0.150000X0*%
%ADD37R,2.500000X1.800000*%
%ADD38RoundRect,0.250000X-0.250000X-0.475000X0.250000X-0.475000X0.250000X0.475000X-0.250000X0.475000X0*%
%ADD39RoundRect,0.243750X-0.243750X-0.456250X0.243750X-0.456250X0.243750X0.456250X-0.243750X0.456250X0*%
%ADD40RoundRect,0.250000X0.250000X0.475000X-0.250000X0.475000X-0.250000X-0.475000X0.250000X-0.475000X0*%
%ADD41RoundRect,0.140000X-0.170000X0.140000X-0.170000X-0.140000X0.170000X-0.140000X0.170000X0.140000X0*%
%ADD42RoundRect,0.150000X0.825000X0.150000X-0.825000X0.150000X-0.825000X-0.150000X0.825000X-0.150000X0*%
%ADD43C,2.400000*%
%ADD44R,2.400000X2.400000*%
%ADD45RoundRect,0.250000X-0.412500X-0.925000X0.412500X-0.925000X0.412500X0.925000X-0.412500X0.925000X0*%
%ADD46RoundRect,0.150000X-0.512500X-0.150000X0.512500X-0.150000X0.512500X0.150000X-0.512500X0.150000X0*%
%ADD47C,1.600000*%
%ADD48R,1.168400X0.254000*%
%ADD49O,2.100000X1.000000*%
%ADD50O,1.600000X1.000000*%
%ADD51R,1.450000X0.600000*%
%ADD52R,1.450000X0.300000*%
%ADD53C,0.650000*%
%ADD54RoundRect,0.243750X0.243750X0.456250X-0.243750X0.456250X-0.243750X-0.456250X0.243750X-0.456250X0*%
%ADD55O,1.750000X1.200000*%
%ADD56RoundRect,0.250000X-0.625000X0.350000X-0.625000X-0.350000X0.625000X-0.350000X0.625000X0.350000X0*%
%ADD57R,0.800000X0.800000*%
%ADD58R,0.700000X3.600000*%
%ADD59RoundRect,0.150000X-0.150000X0.587500X-0.150000X-0.587500X0.150000X-0.587500X0.150000X0.587500X0*%
%ADD60R,0.350000X0.500000*%
%ADD61R,0.800000X0.500000*%
%ADD62R,0.800000X2.000000*%
%ADD63R,1.800000X1.000000*%
%ADD64RoundRect,0.140000X0.170000X-0.140000X0.170000X0.140000X-0.170000X0.140000X-0.170000X-0.140000X0*%
%ADD65RoundRect,0.250000X0.625000X-0.350000X0.625000X0.350000X-0.625000X0.350000X-0.625000X-0.350000X0*%
%ADD66RoundRect,0.250000X0.412500X0.925000X-0.412500X0.925000X-0.412500X-0.925000X0.412500X-0.925000X0*%
%ADD67RoundRect,0.250000X-0.475000X0.250000X-0.475000X-0.250000X0.475000X-0.250000X0.475000X0.250000X0*%
%ADD68R,0.670001X0.299999*%
%ADD69R,0.600000X0.700000*%
%ADD70R,1.000000X0.700000*%
G04 APERTURE END LIST*
D10*
D11*
X278989000Y-231002200D02*
X278989000Y-263002200D01*
X386989000Y-263002200D01*
X386989000Y-231002200D01*
X278989000Y-231002200D01*
D10*
D11*
X-11000000Y12000000D02*
X-11000000Y-265002200D01*
X388989000Y-265002200D01*
X388989000Y12000000D01*
X-11000000Y12000000D01*
D10*
D11*
X-9000000Y10000000D02*
X-9000000Y-263002200D01*
X386989000Y-263002200D01*
X386989000Y10000000D01*
X-9000000Y10000000D01*
D10*
D11*
X39000000Y10000000D02*
X39000000Y12000000D01*
D10*
D11*
X89000000Y10000000D02*
X89000000Y12000000D01*
D10*
D11*
X139000000Y10000000D02*
X139000000Y12000000D01*
D10*
D11*
X189000000Y10000000D02*
X189000000Y12000000D01*
D10*
D11*
X239000000Y10000000D02*
X239000000Y12000000D01*
D10*
D11*
X289000000Y10000000D02*
X289000000Y12000000D01*
D10*
D11*
X339000000Y10000000D02*
X339000000Y12000000D01*
D10*
D11*
X15065476Y10411905D02*
X14322619Y10411905D01*
X14694047Y10411905D02*
X14694047Y11711905D01*
X14570238Y11526191D01*
X14446428Y11402381D01*
X14322619Y11340477D01*
D10*
D11*
X64322619Y11588096D02*
X64384523Y11650000D01*
X64508333Y11711905D01*
X64817857Y11711905D01*
X64941666Y11650000D01*
X65003571Y11588096D01*
X65065476Y11464286D01*
X65065476Y11340477D01*
X65003571Y11154762D01*
X64260714Y10411905D01*
X65065476Y10411905D01*
D10*
D11*
X114260714Y11711905D02*
X115065476Y11711905D01*
X114632142Y11216667D01*
X114817857Y11216667D01*
X114941666Y11154762D01*
X115003571Y11092858D01*
X115065476Y10969048D01*
X115065476Y10659524D01*
X115003571Y10535715D01*
X114941666Y10473810D01*
X114817857Y10411905D01*
X114446428Y10411905D01*
X114322619Y10473810D01*
X114260714Y10535715D01*
D10*
D11*
X164941666Y11278572D02*
X164941666Y10411905D01*
X164632142Y11773810D02*
X164322619Y10845239D01*
X165127380Y10845239D01*
D10*
D11*
X215003571Y11711905D02*
X214384523Y11711905D01*
X214322619Y11092858D01*
X214384523Y11154762D01*
X214508333Y11216667D01*
X214817857Y11216667D01*
X214941666Y11154762D01*
X215003571Y11092858D01*
X215065476Y10969048D01*
X215065476Y10659524D01*
X215003571Y10535715D01*
X214941666Y10473810D01*
X214817857Y10411905D01*
X214508333Y10411905D01*
X214384523Y10473810D01*
X214322619Y10535715D01*
D10*
D11*
X264941666Y11711905D02*
X264694047Y11711905D01*
X264570238Y11650000D01*
X264508333Y11588096D01*
X264384523Y11402381D01*
X264322619Y11154762D01*
X264322619Y10659524D01*
X264384523Y10535715D01*
X264446428Y10473810D01*
X264570238Y10411905D01*
X264817857Y10411905D01*
X264941666Y10473810D01*
X265003571Y10535715D01*
X265065476Y10659524D01*
X265065476Y10969048D01*
X265003571Y11092858D01*
X264941666Y11154762D01*
X264817857Y11216667D01*
X264570238Y11216667D01*
X264446428Y11154762D01*
X264384523Y11092858D01*
X264322619Y10969048D01*
D10*
D11*
X314260714Y11711905D02*
X315127380Y11711905D01*
X314570238Y10411905D01*
D10*
D11*
X364570238Y11154762D02*
X364446428Y11216667D01*
X364384523Y11278572D01*
X364322619Y11402381D01*
X364322619Y11464286D01*
X364384523Y11588096D01*
X364446428Y11650000D01*
X364570238Y11711905D01*
X364817857Y11711905D01*
X364941666Y11650000D01*
X365003571Y11588096D01*
X365065476Y11464286D01*
X365065476Y11402381D01*
X365003571Y11278572D01*
X364941666Y11216667D01*
X364817857Y11154762D01*
X364570238Y11154762D01*
X364446428Y11092858D01*
X364384523Y11030953D01*
X364322619Y10907143D01*
X364322619Y10659524D01*
X364384523Y10535715D01*
X364446428Y10473810D01*
X364570238Y10411905D01*
X364817857Y10411905D01*
X364941666Y10473810D01*
X365003571Y10535715D01*
X365065476Y10659524D01*
X365065476Y10907143D01*
X365003571Y11030953D01*
X364941666Y11092858D01*
X364817857Y11154762D01*
D10*
D11*
X39000000Y-263002200D02*
X39000000Y-265002200D01*
D10*
D11*
X89000000Y-263002200D02*
X89000000Y-265002200D01*
D10*
D11*
X139000000Y-263002200D02*
X139000000Y-265002200D01*
D10*
D11*
X189000000Y-263002200D02*
X189000000Y-265002200D01*
D10*
D11*
X239000000Y-263002200D02*
X239000000Y-265002200D01*
D10*
D11*
X289000000Y-263002200D02*
X289000000Y-265002200D01*
D10*
D11*
X339000000Y-263002200D02*
X339000000Y-265002200D01*
D10*
D11*
X15065476Y-264590295D02*
X14322619Y-264590295D01*
X14694047Y-264590295D02*
X14694047Y-263290295D01*
X14570238Y-263476009D01*
X14446428Y-263599819D01*
X14322619Y-263661723D01*
D10*
D11*
X64322619Y-263414104D02*
X64384523Y-263352200D01*
X64508333Y-263290295D01*
X64817857Y-263290295D01*
X64941666Y-263352200D01*
X65003571Y-263414104D01*
X65065476Y-263537914D01*
X65065476Y-263661723D01*
X65003571Y-263847438D01*
X64260714Y-264590295D01*
X65065476Y-264590295D01*
D10*
D11*
X114260714Y-263290295D02*
X115065476Y-263290295D01*
X114632142Y-263785533D01*
X114817857Y-263785533D01*
X114941666Y-263847438D01*
X115003571Y-263909342D01*
X115065476Y-264033152D01*
X115065476Y-264342676D01*
X115003571Y-264466485D01*
X114941666Y-264528390D01*
X114817857Y-264590295D01*
X114446428Y-264590295D01*
X114322619Y-264528390D01*
X114260714Y-264466485D01*
D10*
D11*
X164941666Y-263723628D02*
X164941666Y-264590295D01*
X164632142Y-263228390D02*
X164322619Y-264156961D01*
X165127380Y-264156961D01*
D10*
D11*
X215003571Y-263290295D02*
X214384523Y-263290295D01*
X214322619Y-263909342D01*
X214384523Y-263847438D01*
X214508333Y-263785533D01*
X214817857Y-263785533D01*
X214941666Y-263847438D01*
X215003571Y-263909342D01*
X215065476Y-264033152D01*
X215065476Y-264342676D01*
X215003571Y-264466485D01*
X214941666Y-264528390D01*
X214817857Y-264590295D01*
X214508333Y-264590295D01*
X214384523Y-264528390D01*
X214322619Y-264466485D01*
D10*
D11*
X264941666Y-263290295D02*
X264694047Y-263290295D01*
X264570238Y-263352200D01*
X264508333Y-263414104D01*
X264384523Y-263599819D01*
X264322619Y-263847438D01*
X264322619Y-264342676D01*
X264384523Y-264466485D01*
X264446428Y-264528390D01*
X264570238Y-264590295D01*
X264817857Y-264590295D01*
X264941666Y-264528390D01*
X265003571Y-264466485D01*
X265065476Y-264342676D01*
X265065476Y-264033152D01*
X265003571Y-263909342D01*
X264941666Y-263847438D01*
X264817857Y-263785533D01*
X264570238Y-263785533D01*
X264446428Y-263847438D01*
X264384523Y-263909342D01*
X264322619Y-264033152D01*
D10*
D11*
X314260714Y-263290295D02*
X315127380Y-263290295D01*
X314570238Y-264590295D01*
D10*
D11*
X364570238Y-263847438D02*
X364446428Y-263785533D01*
X364384523Y-263723628D01*
X364322619Y-263599819D01*
X364322619Y-263537914D01*
X364384523Y-263414104D01*
X364446428Y-263352200D01*
X364570238Y-263290295D01*
X364817857Y-263290295D01*
X364941666Y-263352200D01*
X365003571Y-263414104D01*
X365065476Y-263537914D01*
X365065476Y-263599819D01*
X365003571Y-263723628D01*
X364941666Y-263785533D01*
X364817857Y-263847438D01*
X364570238Y-263847438D01*
X364446428Y-263909342D01*
X364384523Y-263971247D01*
X364322619Y-264095057D01*
X364322619Y-264342676D01*
X364384523Y-264466485D01*
X364446428Y-264528390D01*
X364570238Y-264590295D01*
X364817857Y-264590295D01*
X364941666Y-264528390D01*
X365003571Y-264466485D01*
X365065476Y-264342676D01*
X365065476Y-264095057D01*
X365003571Y-263971247D01*
X364941666Y-263909342D01*
X364817857Y-263847438D01*
D10*
D11*
X-11000000Y-38000000D02*
X-9000000Y-38000000D01*
D10*
D11*
X-11000000Y-88000000D02*
X-9000000Y-88000000D01*
D10*
D11*
X-11000000Y-138000000D02*
X-9000000Y-138000000D01*
D10*
D11*
X-11000000Y-188000000D02*
X-9000000Y-188000000D01*
D10*
D11*
X-11000000Y-238000000D02*
X-9000000Y-238000000D01*
D10*
D11*
X-10309524Y-13216666D02*
X-9690477Y-13216666D01*
X-10433334Y-13588095D02*
X-10000000Y-12288095D01*
X-9566667Y-13588095D01*
D10*
D11*
X-9907143Y-62907142D02*
X-9721429Y-62969047D01*
X-9659524Y-63030952D01*
X-9597620Y-63154761D01*
X-9597620Y-63340476D01*
X-9659524Y-63464285D01*
X-9721429Y-63526190D01*
X-9845239Y-63588095D01*
X-10340477Y-63588095D01*
X-10340477Y-62288095D01*
X-9907143Y-62288095D01*
X-9783334Y-62350000D01*
X-9721429Y-62411904D01*
X-9659524Y-62535714D01*
X-9659524Y-62659523D01*
X-9721429Y-62783333D01*
X-9783334Y-62845238D01*
X-9907143Y-62907142D01*
X-10340477Y-62907142D01*
D10*
D11*
X-9597620Y-113464285D02*
X-9659524Y-113526190D01*
X-9845239Y-113588095D01*
X-9969048Y-113588095D01*
X-10154762Y-113526190D01*
X-10278572Y-113402380D01*
X-10340477Y-113278571D01*
X-10402381Y-113030952D01*
X-10402381Y-112845238D01*
X-10340477Y-112597619D01*
X-10278572Y-112473809D01*
X-10154762Y-112350000D01*
X-9969048Y-112288095D01*
X-9845239Y-112288095D01*
X-9659524Y-112350000D01*
X-9597620Y-112411904D01*
D10*
D11*
X-10340477Y-163588095D02*
X-10340477Y-162288095D01*
X-10030953Y-162288095D01*
X-9845239Y-162350000D01*
X-9721429Y-162473809D01*
X-9659524Y-162597619D01*
X-9597620Y-162845238D01*
X-9597620Y-163030952D01*
X-9659524Y-163278571D01*
X-9721429Y-163402380D01*
X-9845239Y-163526190D01*
X-10030953Y-163588095D01*
X-10340477Y-163588095D01*
D10*
D11*
X-10278572Y-212907142D02*
X-9845239Y-212907142D01*
X-9659524Y-213588095D02*
X-10278572Y-213588095D01*
X-10278572Y-212288095D01*
X-9659524Y-212288095D01*
D10*
D11*
X-9814286Y-262907142D02*
X-10247620Y-262907142D01*
X-10247620Y-263588095D02*
X-10247620Y-262288095D01*
X-9628572Y-262288095D01*
D10*
D11*
X388989000Y-38000000D02*
X386989000Y-38000000D01*
D10*
D11*
X388989000Y-88000000D02*
X386989000Y-88000000D01*
D10*
D11*
X388989000Y-138000000D02*
X386989000Y-138000000D01*
D10*
D11*
X388989000Y-188000000D02*
X386989000Y-188000000D01*
D10*
D11*
X388989000Y-238000000D02*
X386989000Y-238000000D01*
D10*
D11*
X387679476Y-13216666D02*
X388298523Y-13216666D01*
X387555666Y-13588095D02*
X387989000Y-12288095D01*
X388422333Y-13588095D01*
D10*
D11*
X388081857Y-62907142D02*
X388267571Y-62969047D01*
X388329476Y-63030952D01*
X388391380Y-63154761D01*
X388391380Y-63340476D01*
X388329476Y-63464285D01*
X388267571Y-63526190D01*
X388143761Y-63588095D01*
X387648523Y-63588095D01*
X387648523Y-62288095D01*
X388081857Y-62288095D01*
X388205666Y-62350000D01*
X388267571Y-62411904D01*
X388329476Y-62535714D01*
X388329476Y-62659523D01*
X388267571Y-62783333D01*
X388205666Y-62845238D01*
X388081857Y-62907142D01*
X387648523Y-62907142D01*
D10*
D11*
X388391380Y-113464285D02*
X388329476Y-113526190D01*
X388143761Y-113588095D01*
X388019952Y-113588095D01*
X387834238Y-113526190D01*
X387710428Y-113402380D01*
X387648523Y-113278571D01*
X387586619Y-113030952D01*
X387586619Y-112845238D01*
X387648523Y-112597619D01*
X387710428Y-112473809D01*
X387834238Y-112350000D01*
X388019952Y-112288095D01*
X388143761Y-112288095D01*
X388329476Y-112350000D01*
X388391380Y-112411904D01*
D10*
D11*
X387648523Y-163588095D02*
X387648523Y-162288095D01*
X387958047Y-162288095D01*
X388143761Y-162350000D01*
X388267571Y-162473809D01*
X388329476Y-162597619D01*
X388391380Y-162845238D01*
X388391380Y-163030952D01*
X388329476Y-163278571D01*
X388267571Y-163402380D01*
X388143761Y-163526190D01*
X387958047Y-163588095D01*
X387648523Y-163588095D01*
D10*
D11*
X387710428Y-212907142D02*
X388143761Y-212907142D01*
X388329476Y-213588095D02*
X387710428Y-213588095D01*
X387710428Y-212288095D01*
X388329476Y-212288095D01*
D10*
D11*
X388174714Y-262907142D02*
X387741380Y-262907142D01*
X387741380Y-263588095D02*
X387741380Y-262288095D01*
X388360428Y-262288095D01*
D10*
D11*
X302421142Y-258780771D02*
X302421142Y-257280771D01*
X302778285Y-257280771D01*
X302992571Y-257352200D01*
X303135428Y-257495057D01*
X303206857Y-257637914D01*
X303278285Y-257923628D01*
X303278285Y-258137914D01*
X303206857Y-258423628D01*
X303135428Y-258566485D01*
X302992571Y-258709342D01*
X302778285Y-258780771D01*
X302421142Y-258780771D01*
X304564000Y-258780771D02*
X304564000Y-257995057D01*
X304492571Y-257852200D01*
X304349714Y-257780771D01*
X304064000Y-257780771D01*
X303921142Y-257852200D01*
X304564000Y-258709342D02*
X304421142Y-258780771D01*
X304064000Y-258780771D01*
X303921142Y-258709342D01*
X303849714Y-258566485D01*
X303849714Y-258423628D01*
X303921142Y-258280771D01*
X304064000Y-258209342D01*
X304421142Y-258209342D01*
X304564000Y-258137914D01*
X305064000Y-257780771D02*
X305635428Y-257780771D01*
X305278285Y-257280771D02*
X305278285Y-258566485D01*
X305349714Y-258709342D01*
X305492571Y-258780771D01*
X305635428Y-258780771D01*
X306706857Y-258709342D02*
X306564000Y-258780771D01*
X306278285Y-258780771D01*
X306135428Y-258709342D01*
X306064000Y-258566485D01*
X306064000Y-257995057D01*
X306135428Y-257852200D01*
X306278285Y-257780771D01*
X306564000Y-257780771D01*
X306706857Y-257852200D01*
X306778285Y-257995057D01*
X306778285Y-258137914D01*
X306064000Y-258280771D01*
X307421142Y-258637914D02*
X307492571Y-258709342D01*
X307421142Y-258780771D01*
X307349714Y-258709342D01*
X307421142Y-258637914D01*
X307421142Y-258780771D01*
X307421142Y-257852200D02*
X307492571Y-257923628D01*
X307421142Y-257995057D01*
X307349714Y-257923628D01*
X307421142Y-257852200D01*
X307421142Y-257995057D01*
D10*
D11*
X278989000Y-259502200D02*
X386989000Y-259502200D01*
D10*
D11*
X280421142Y-261580771D02*
X280421142Y-260080771D01*
X281278285Y-261580771D02*
X280635428Y-260723628D01*
X281278285Y-260080771D02*
X280421142Y-260937914D01*
X281921142Y-261580771D02*
X281921142Y-260580771D01*
X281921142Y-260080771D02*
X281849714Y-260152200D01*
X281921142Y-260223628D01*
X281992571Y-260152200D01*
X281921142Y-260080771D01*
X281921142Y-260223628D01*
X283492571Y-261437914D02*
X283421142Y-261509342D01*
X283206857Y-261580771D01*
X283064000Y-261580771D01*
X282849714Y-261509342D01*
X282706857Y-261366485D01*
X282635428Y-261223628D01*
X282564000Y-260937914D01*
X282564000Y-260723628D01*
X282635428Y-260437914D01*
X282706857Y-260295057D01*
X282849714Y-260152200D01*
X283064000Y-260080771D01*
X283206857Y-260080771D01*
X283421142Y-260152200D01*
X283492571Y-260223628D01*
X284778285Y-261580771D02*
X284778285Y-260795057D01*
X284706857Y-260652200D01*
X284564000Y-260580771D01*
X284278285Y-260580771D01*
X284135428Y-260652200D01*
X284778285Y-261509342D02*
X284635428Y-261580771D01*
X284278285Y-261580771D01*
X284135428Y-261509342D01*
X284064000Y-261366485D01*
X284064000Y-261223628D01*
X284135428Y-261080771D01*
X284278285Y-261009342D01*
X284635428Y-261009342D01*
X284778285Y-260937914D01*
X286135428Y-261580771D02*
X286135428Y-260080771D01*
X286135428Y-261509342D02*
X285992571Y-261580771D01*
X285706857Y-261580771D01*
X285564000Y-261509342D01*
X285492571Y-261437914D01*
X285421142Y-261295057D01*
X285421142Y-260866485D01*
X285492571Y-260723628D01*
X285564000Y-260652200D01*
X285706857Y-260580771D01*
X285992571Y-260580771D01*
X286135428Y-260652200D01*
X287992571Y-260795057D02*
X288492571Y-260795057D01*
X288706857Y-261580771D02*
X287992571Y-261580771D01*
X287992571Y-260080771D01*
X288706857Y-260080771D01*
X289349714Y-261437914D02*
X289421142Y-261509342D01*
X289349714Y-261580771D01*
X289278285Y-261509342D01*
X289349714Y-261437914D01*
X289349714Y-261580771D01*
X290064000Y-261580771D02*
X290064000Y-260080771D01*
X290421142Y-260080771D01*
X290635428Y-260152200D01*
X290778285Y-260295057D01*
X290849714Y-260437914D01*
X290921142Y-260723628D01*
X290921142Y-260937914D01*
X290849714Y-261223628D01*
X290778285Y-261366485D01*
X290635428Y-261509342D01*
X290421142Y-261580771D01*
X290064000Y-261580771D01*
X291564000Y-261437914D02*
X291635428Y-261509342D01*
X291564000Y-261580771D01*
X291492571Y-261509342D01*
X291564000Y-261437914D01*
X291564000Y-261580771D01*
X292206857Y-261152200D02*
X292921142Y-261152200D01*
X292064000Y-261580771D02*
X292564000Y-260080771D01*
X293064000Y-261580771D01*
X293564000Y-261437914D02*
X293635428Y-261509342D01*
X293564000Y-261580771D01*
X293492571Y-261509342D01*
X293564000Y-261437914D01*
X293564000Y-261580771D01*
X296564000Y-261580771D02*
X296564000Y-260080771D01*
X296706857Y-261009342D02*
X297135428Y-261580771D01*
X297135428Y-260580771D02*
X296564000Y-261152200D01*
X297778285Y-261580771D02*
X297778285Y-260580771D01*
X297778285Y-260080771D02*
X297706857Y-260152200D01*
X297778285Y-260223628D01*
X297849714Y-260152200D01*
X297778285Y-260080771D01*
X297778285Y-260223628D01*
X299135428Y-261509342D02*
X298992571Y-261580771D01*
X298706857Y-261580771D01*
X298564000Y-261509342D01*
X298492571Y-261437914D01*
X298421142Y-261295057D01*
X298421142Y-260866485D01*
X298492571Y-260723628D01*
X298564000Y-260652200D01*
X298706857Y-260580771D01*
X298992571Y-260580771D01*
X299135428Y-260652200D01*
X300421142Y-261580771D02*
X300421142Y-260795057D01*
X300349714Y-260652200D01*
X300206857Y-260580771D01*
X299921142Y-260580771D01*
X299778285Y-260652200D01*
X300421142Y-261509342D02*
X300278285Y-261580771D01*
X299921142Y-261580771D01*
X299778285Y-261509342D01*
X299706857Y-261366485D01*
X299706857Y-261223628D01*
X299778285Y-261080771D01*
X299921142Y-261009342D01*
X300278285Y-261009342D01*
X300421142Y-260937914D01*
X301778285Y-261580771D02*
X301778285Y-260080771D01*
X301778285Y-261509342D02*
X301635428Y-261580771D01*
X301349714Y-261580771D01*
X301206857Y-261509342D01*
X301135428Y-261437914D01*
X301064000Y-261295057D01*
X301064000Y-260866485D01*
X301135428Y-260723628D01*
X301206857Y-260652200D01*
X301349714Y-260580771D01*
X301635428Y-260580771D01*
X301778285Y-260652200D01*
X304064000Y-262152200D02*
X303992571Y-262080771D01*
X303849714Y-261866485D01*
X303778285Y-261723628D01*
X303706857Y-261509342D01*
X303635428Y-261152200D01*
X303635428Y-260866485D01*
X303706857Y-260509342D01*
X303778285Y-260295057D01*
X303849714Y-260152200D01*
X303992571Y-259937914D01*
X304064000Y-259866485D01*
X305278285Y-260080771D02*
X304992571Y-260080771D01*
X304849714Y-260152200D01*
X304778285Y-260223628D01*
X304635428Y-260437914D01*
X304564000Y-260723628D01*
X304564000Y-261295057D01*
X304635428Y-261437914D01*
X304706857Y-261509342D01*
X304849714Y-261580771D01*
X305135428Y-261580771D01*
X305278285Y-261509342D01*
X305349714Y-261437914D01*
X305421142Y-261295057D01*
X305421142Y-260937914D01*
X305349714Y-260795057D01*
X305278285Y-260723628D01*
X305135428Y-260652200D01*
X304849714Y-260652200D01*
X304706857Y-260723628D01*
X304635428Y-260795057D01*
X304564000Y-260937914D01*
X306064000Y-261437914D02*
X306135428Y-261509342D01*
X306064000Y-261580771D01*
X305992571Y-261509342D01*
X306064000Y-261437914D01*
X306064000Y-261580771D01*
X307064000Y-260080771D02*
X307206857Y-260080771D01*
X307349714Y-260152200D01*
X307421142Y-260223628D01*
X307492571Y-260366485D01*
X307564000Y-260652200D01*
X307564000Y-261009342D01*
X307492571Y-261295057D01*
X307421142Y-261437914D01*
X307349714Y-261509342D01*
X307206857Y-261580771D01*
X307064000Y-261580771D01*
X306921142Y-261509342D01*
X306849714Y-261437914D01*
X306778285Y-261295057D01*
X306706857Y-261009342D01*
X306706857Y-260652200D01*
X306778285Y-260366485D01*
X306849714Y-260223628D01*
X306921142Y-260152200D01*
X307064000Y-260080771D01*
X308206857Y-261437914D02*
X308278285Y-261509342D01*
X308206857Y-261580771D01*
X308135428Y-261509342D01*
X308206857Y-261437914D01*
X308206857Y-261580771D01*
X308992571Y-261580771D02*
X309278285Y-261580771D01*
X309421142Y-261509342D01*
X309492571Y-261437914D01*
X309635428Y-261223628D01*
X309706857Y-260937914D01*
X309706857Y-260366485D01*
X309635428Y-260223628D01*
X309564000Y-260152200D01*
X309421142Y-260080771D01*
X309135428Y-260080771D01*
X308992571Y-260152200D01*
X308921142Y-260223628D01*
X308849714Y-260366485D01*
X308849714Y-260723628D01*
X308921142Y-260866485D01*
X308992571Y-260937914D01*
X309135428Y-261009342D01*
X309421142Y-261009342D01*
X309564000Y-260937914D01*
X309635428Y-260866485D01*
X309706857Y-260723628D01*
X310206857Y-262152200D02*
X310278285Y-262080771D01*
X310421142Y-261866485D01*
X310492571Y-261723628D01*
X310564000Y-261509342D01*
X310635428Y-261152200D01*
X310635428Y-260866485D01*
X310564000Y-260509342D01*
X310492571Y-260295057D01*
X310421142Y-260152200D01*
X310278285Y-259937914D01*
X310206857Y-259866485D01*
D10*
D11*
X278989000Y-256502200D02*
X386989000Y-256502200D01*
D10*
D12*
X366398285Y-258780771D02*
X365898285Y-258066485D01*
X365541142Y-258780771D02*
X365541142Y-257280771D01*
X366112571Y-257280771D01*
X366255428Y-257352200D01*
X366326857Y-257423628D01*
X366398285Y-257566485D01*
X366398285Y-257780771D01*
X366326857Y-257923628D01*
X366255428Y-257995057D01*
X366112571Y-258066485D01*
X365541142Y-258066485D01*
X367612571Y-258709342D02*
X367469714Y-258780771D01*
X367184000Y-258780771D01*
X367041142Y-258709342D01*
X366969714Y-258566485D01*
X366969714Y-257995057D01*
X367041142Y-257852200D01*
X367184000Y-257780771D01*
X367469714Y-257780771D01*
X367612571Y-257852200D01*
X367684000Y-257995057D01*
X367684000Y-258137914D01*
X366969714Y-258280771D01*
X368184000Y-257780771D02*
X368541142Y-258780771D01*
X368898285Y-257780771D01*
X369469714Y-258637914D02*
X369541142Y-258709342D01*
X369469714Y-258780771D01*
X369398285Y-258709342D01*
X369469714Y-258637914D01*
X369469714Y-258780771D01*
X369469714Y-257852200D02*
X369541142Y-257923628D01*
X369469714Y-257995057D01*
X369398285Y-257923628D01*
X369469714Y-257852200D01*
X369469714Y-257995057D01*
D10*
D11*
X280349714Y-258709342D02*
X280564000Y-258780771D01*
X280921142Y-258780771D01*
X281064000Y-258709342D01*
X281135428Y-258637914D01*
X281206857Y-258495057D01*
X281206857Y-258352200D01*
X281135428Y-258209342D01*
X281064000Y-258137914D01*
X280921142Y-258066485D01*
X280635428Y-257995057D01*
X280492571Y-257923628D01*
X280421142Y-257852200D01*
X280349714Y-257709342D01*
X280349714Y-257566485D01*
X280421142Y-257423628D01*
X280492571Y-257352200D01*
X280635428Y-257280771D01*
X280992571Y-257280771D01*
X281206857Y-257352200D01*
X281849714Y-258780771D02*
X281849714Y-257780771D01*
X281849714Y-257280771D02*
X281778285Y-257352200D01*
X281849714Y-257423628D01*
X281921142Y-257352200D01*
X281849714Y-257280771D01*
X281849714Y-257423628D01*
X282421142Y-257780771D02*
X283206857Y-257780771D01*
X282421142Y-258780771D01*
X283206857Y-258780771D01*
X284349714Y-258709342D02*
X284206857Y-258780771D01*
X283921142Y-258780771D01*
X283778285Y-258709342D01*
X283706857Y-258566485D01*
X283706857Y-257995057D01*
X283778285Y-257852200D01*
X283921142Y-257780771D01*
X284206857Y-257780771D01*
X284349714Y-257852200D01*
X284421142Y-257995057D01*
X284421142Y-258137914D01*
X283706857Y-258280771D01*
X285064000Y-258637914D02*
X285135428Y-258709342D01*
X285064000Y-258780771D01*
X284992571Y-258709342D01*
X285064000Y-258637914D01*
X285064000Y-258780771D01*
X285064000Y-257852200D02*
X285135428Y-257923628D01*
X285064000Y-257995057D01*
X284992571Y-257923628D01*
X285064000Y-257852200D01*
X285064000Y-257995057D01*
X286849714Y-258352200D02*
X287564000Y-258352200D01*
X286706857Y-258780771D02*
X287206857Y-257280771D01*
X287706857Y-258780771D01*
X288064000Y-257280771D02*
X288992571Y-257280771D01*
X288492571Y-257852200D01*
X288706857Y-257852200D01*
X288849714Y-257923628D01*
X288921142Y-257995057D01*
X288992571Y-258137914D01*
X288992571Y-258495057D01*
X288921142Y-258637914D01*
X288849714Y-258709342D01*
X288706857Y-258780771D01*
X288278285Y-258780771D01*
X288135428Y-258709342D01*
X288064000Y-258637914D01*
D10*
D11*
X365421142Y-261580771D02*
X365421142Y-260080771D01*
X366778285Y-261580771D02*
X366778285Y-260080771D01*
X366778285Y-261509342D02*
X366635428Y-261580771D01*
X366349714Y-261580771D01*
X366206857Y-261509342D01*
X366135428Y-261437914D01*
X366064000Y-261295057D01*
X366064000Y-260866485D01*
X366135428Y-260723628D01*
X366206857Y-260652200D01*
X366349714Y-260580771D01*
X366635428Y-260580771D01*
X366778285Y-260652200D01*
X367492571Y-261437914D02*
X367564000Y-261509342D01*
X367492571Y-261580771D01*
X367421142Y-261509342D01*
X367492571Y-261437914D01*
X367492571Y-261580771D01*
X367492571Y-260652200D02*
X367564000Y-260723628D01*
X367492571Y-260795057D01*
X367421142Y-260723628D01*
X367492571Y-260652200D01*
X367492571Y-260795057D01*
X370135428Y-261580771D02*
X369278285Y-261580771D01*
X369706857Y-261580771D02*
X369706857Y-260080771D01*
X369564000Y-260295057D01*
X369421142Y-260437914D01*
X369278285Y-260509342D01*
X371849714Y-260009342D02*
X370564000Y-261937914D01*
X373135428Y-261580771D02*
X372278285Y-261580771D01*
X372706857Y-261580771D02*
X372706857Y-260080771D01*
X372564000Y-260295057D01*
X372421142Y-260437914D01*
X372278285Y-260509342D01*
D10*
D11*
X278989000Y-252502200D02*
X386989000Y-252502200D01*
D10*
D13*
X280701380Y-253206961D02*
X281844238Y-253206961D01*
X281022809Y-255206961D02*
X281272809Y-253206961D01*
X282260904Y-255206961D02*
X282427571Y-253873628D01*
X282510904Y-253206961D02*
X282403761Y-253302200D01*
X282487095Y-253397438D01*
X282594238Y-253302200D01*
X282510904Y-253206961D01*
X282487095Y-253397438D01*
X283094238Y-253873628D02*
X283856142Y-253873628D01*
X283463285Y-253206961D02*
X283249000Y-254921247D01*
X283320428Y-255111723D01*
X283499000Y-255206961D01*
X283689476Y-255206961D01*
X284641857Y-255206961D02*
X284463285Y-255111723D01*
X284391857Y-254921247D01*
X284606142Y-253206961D01*
X286177571Y-255111723D02*
X285975190Y-255206961D01*
X285594238Y-255206961D01*
X285415666Y-255111723D01*
X285344238Y-254921247D01*
X285439476Y-254159342D01*
X285558523Y-253968866D01*
X285760904Y-253873628D01*
X286141857Y-253873628D01*
X286320428Y-253968866D01*
X286391857Y-254159342D01*
X286368047Y-254349819D01*
X285391857Y-254540295D01*
X287141857Y-255016485D02*
X287225190Y-255111723D01*
X287118047Y-255206961D01*
X287034714Y-255111723D01*
X287141857Y-255016485D01*
X287118047Y-255206961D01*
X287272809Y-253968866D02*
X287356142Y-254064104D01*
X287249000Y-254159342D01*
X287165666Y-254064104D01*
X287272809Y-253968866D01*
X287249000Y-254159342D01*
D10*
D11*
X280921142Y-250595057D02*
X280421142Y-250595057D01*
X280421142Y-251380771D02*
X280421142Y-249880771D01*
X281135428Y-249880771D01*
X281706857Y-251380771D02*
X281706857Y-250380771D01*
X281706857Y-249880771D02*
X281635428Y-249952200D01*
X281706857Y-250023628D01*
X281778285Y-249952200D01*
X281706857Y-249880771D01*
X281706857Y-250023628D01*
X282635428Y-251380771D02*
X282492571Y-251309342D01*
X282421142Y-251166485D01*
X282421142Y-249880771D01*
X283778285Y-251309342D02*
X283635428Y-251380771D01*
X283349714Y-251380771D01*
X283206857Y-251309342D01*
X283135428Y-251166485D01*
X283135428Y-250595057D01*
X283206857Y-250452200D01*
X283349714Y-250380771D01*
X283635428Y-250380771D01*
X283778285Y-250452200D01*
X283849714Y-250595057D01*
X283849714Y-250737914D01*
X283135428Y-250880771D01*
X284492571Y-251237914D02*
X284564000Y-251309342D01*
X284492571Y-251380771D01*
X284421142Y-251309342D01*
X284492571Y-251237914D01*
X284492571Y-251380771D01*
X284492571Y-250452200D02*
X284564000Y-250523628D01*
X284492571Y-250595057D01*
X284421142Y-250523628D01*
X284492571Y-250452200D01*
X284492571Y-250595057D01*
X286206857Y-249880771D02*
X286564000Y-251380771D01*
X286849714Y-250309342D01*
X287135428Y-251380771D01*
X287492571Y-249880771D01*
X288635428Y-251309342D02*
X288492571Y-251380771D01*
X288206857Y-251380771D01*
X288064000Y-251309342D01*
X287992571Y-251166485D01*
X287992571Y-250595057D01*
X288064000Y-250452200D01*
X288206857Y-250380771D01*
X288492571Y-250380771D01*
X288635428Y-250452200D01*
X288706857Y-250595057D01*
X288706857Y-250737914D01*
X287992571Y-250880771D01*
X289992571Y-251380771D02*
X289992571Y-250595057D01*
X289921142Y-250452200D01*
X289778285Y-250380771D01*
X289492571Y-250380771D01*
X289349714Y-250452200D01*
X289992571Y-251309342D02*
X289849714Y-251380771D01*
X289492571Y-251380771D01*
X289349714Y-251309342D01*
X289278285Y-251166485D01*
X289278285Y-251023628D01*
X289349714Y-250880771D01*
X289492571Y-250809342D01*
X289849714Y-250809342D01*
X289992571Y-250737914D01*
X290492571Y-250380771D02*
X291064000Y-250380771D01*
X290706857Y-249880771D02*
X290706857Y-251166485D01*
X290778285Y-251309342D01*
X290921142Y-251380771D01*
X291064000Y-251380771D01*
X291564000Y-251380771D02*
X291564000Y-249880771D01*
X292206857Y-251380771D02*
X292206857Y-250595057D01*
X292135428Y-250452200D01*
X291992571Y-250380771D01*
X291778285Y-250380771D01*
X291635428Y-250452200D01*
X291564000Y-250523628D01*
X293492571Y-251309342D02*
X293349714Y-251380771D01*
X293064000Y-251380771D01*
X292921142Y-251309342D01*
X292849714Y-251166485D01*
X292849714Y-250595057D01*
X292921142Y-250452200D01*
X293064000Y-250380771D01*
X293349714Y-250380771D01*
X293492571Y-250452200D01*
X293564000Y-250595057D01*
X293564000Y-250737914D01*
X292849714Y-250880771D01*
X294206857Y-251380771D02*
X294206857Y-250380771D01*
X294206857Y-250666485D02*
X294278285Y-250523628D01*
X294349714Y-250452200D01*
X294492571Y-250380771D01*
X294635428Y-250380771D01*
X295135428Y-251380771D02*
X295135428Y-249880771D01*
X295992571Y-251380771D02*
X295349714Y-250523628D01*
X295992571Y-249880771D02*
X295135428Y-250737914D01*
X296635428Y-251380771D02*
X296635428Y-250380771D01*
X296635428Y-249880771D02*
X296564000Y-249952200D01*
X296635428Y-250023628D01*
X296706857Y-249952200D01*
X296635428Y-249880771D01*
X296635428Y-250023628D01*
X297992571Y-251380771D02*
X297992571Y-249880771D01*
X297992571Y-251309342D02*
X297849714Y-251380771D01*
X297564000Y-251380771D01*
X297421142Y-251309342D01*
X297349714Y-251237914D01*
X297278285Y-251095057D01*
X297278285Y-250666485D01*
X297349714Y-250523628D01*
X297421142Y-250452200D01*
X297564000Y-250380771D01*
X297849714Y-250380771D01*
X297992571Y-250452200D01*
X298635428Y-251309342D02*
X298778285Y-251380771D01*
X299064000Y-251380771D01*
X299206857Y-251309342D01*
X299278285Y-251166485D01*
X299278285Y-251095057D01*
X299206857Y-250952200D01*
X299064000Y-250880771D01*
X298849714Y-250880771D01*
X298706857Y-250809342D01*
X298635428Y-250666485D01*
X298635428Y-250595057D01*
X298706857Y-250452200D01*
X298849714Y-250380771D01*
X299064000Y-250380771D01*
X299206857Y-250452200D01*
X299564000Y-251523628D02*
X300706857Y-251523628D01*
X301921142Y-251237914D02*
X301849714Y-251309342D01*
X301635428Y-251380771D01*
X301492571Y-251380771D01*
X301278285Y-251309342D01*
X301135428Y-251166485D01*
X301064000Y-251023628D01*
X300992571Y-250737914D01*
X300992571Y-250523628D01*
X301064000Y-250237914D01*
X301135428Y-250095057D01*
X301278285Y-249952200D01*
X301492571Y-249880771D01*
X301635428Y-249880771D01*
X301849714Y-249952200D01*
X301921142Y-250023628D01*
X302778285Y-251380771D02*
X302635428Y-251309342D01*
X302564000Y-251237914D01*
X302492571Y-251095057D01*
X302492571Y-250666485D01*
X302564000Y-250523628D01*
X302635428Y-250452200D01*
X302778285Y-250380771D01*
X302992571Y-250380771D01*
X303135428Y-250452200D01*
X303206857Y-250523628D01*
X303278285Y-250666485D01*
X303278285Y-251095057D01*
X303206857Y-251237914D01*
X303135428Y-251309342D01*
X302992571Y-251380771D01*
X302778285Y-251380771D01*
X303921142Y-251380771D02*
X303921142Y-250380771D01*
X303921142Y-250523628D02*
X303992571Y-250452200D01*
X304135428Y-250380771D01*
X304349714Y-250380771D01*
X304492571Y-250452200D01*
X304564000Y-250595057D01*
X304564000Y-251380771D01*
X304564000Y-250595057D02*
X304635428Y-250452200D01*
X304778285Y-250380771D01*
X304992571Y-250380771D01*
X305135428Y-250452200D01*
X305206857Y-250595057D01*
X305206857Y-251380771D01*
X305921142Y-250380771D02*
X305921142Y-251880771D01*
X305921142Y-250452200D02*
X306064000Y-250380771D01*
X306349714Y-250380771D01*
X306492571Y-250452200D01*
X306564000Y-250523628D01*
X306635428Y-250666485D01*
X306635428Y-251095057D01*
X306564000Y-251237914D01*
X306492571Y-251309342D01*
X306349714Y-251380771D01*
X306064000Y-251380771D01*
X305921142Y-251309342D01*
X307921142Y-251380771D02*
X307921142Y-250595057D01*
X307849714Y-250452200D01*
X307706857Y-250380771D01*
X307421142Y-250380771D01*
X307278285Y-250452200D01*
X307921142Y-251309342D02*
X307778285Y-251380771D01*
X307421142Y-251380771D01*
X307278285Y-251309342D01*
X307206857Y-251166485D01*
X307206857Y-251023628D01*
X307278285Y-250880771D01*
X307421142Y-250809342D01*
X307778285Y-250809342D01*
X307921142Y-250737914D01*
X309278285Y-251309342D02*
X309135428Y-251380771D01*
X308849714Y-251380771D01*
X308706857Y-251309342D01*
X308635428Y-251237914D01*
X308564000Y-251095057D01*
X308564000Y-250666485D01*
X308635428Y-250523628D01*
X308706857Y-250452200D01*
X308849714Y-250380771D01*
X309135428Y-250380771D01*
X309278285Y-250452200D01*
X309706857Y-250380771D02*
X310278285Y-250380771D01*
X309921142Y-249880771D02*
X309921142Y-251166485D01*
X309992571Y-251309342D01*
X310135428Y-251380771D01*
X310278285Y-251380771D01*
X311206857Y-251952200D02*
X311135428Y-251880771D01*
X310992571Y-251666485D01*
X310921142Y-251523628D01*
X310849714Y-251309342D01*
X310778285Y-250952200D01*
X310778285Y-250666485D01*
X310849714Y-250309342D01*
X310921142Y-250095057D01*
X310992571Y-249952200D01*
X311135428Y-249737914D01*
X311206857Y-249666485D01*
X311564000Y-249880771D02*
X312064000Y-251380771D01*
X312564000Y-249880771D01*
X312992571Y-250023628D02*
X313064000Y-249952200D01*
X313206857Y-249880771D01*
X313564000Y-249880771D01*
X313706857Y-249952200D01*
X313778285Y-250023628D01*
X313849714Y-250166485D01*
X313849714Y-250309342D01*
X313778285Y-250523628D01*
X312921142Y-251380771D01*
X313849714Y-251380771D01*
X314492571Y-251237914D02*
X314564000Y-251309342D01*
X314492571Y-251380771D01*
X314421142Y-251309342D01*
X314492571Y-251237914D01*
X314492571Y-251380771D01*
X315992571Y-251380771D02*
X315135428Y-251380771D01*
X315564000Y-251380771D02*
X315564000Y-249880771D01*
X315421142Y-250095057D01*
X315278285Y-250237914D01*
X315135428Y-250309342D01*
X316492571Y-251952200D02*
X316564000Y-251880771D01*
X316706857Y-251666485D01*
X316778285Y-251523628D01*
X316849714Y-251309342D01*
X316921142Y-250952200D01*
X316921142Y-250666485D01*
X316849714Y-250309342D01*
X316778285Y-250095057D01*
X316706857Y-249952200D01*
X316564000Y-249737914D01*
X316492571Y-249666485D01*
X317635428Y-251237914D02*
X317706857Y-251309342D01*
X317635428Y-251380771D01*
X317564000Y-251309342D01*
X317635428Y-251237914D01*
X317635428Y-251380771D01*
X318349714Y-251380771D02*
X318349714Y-249880771D01*
X318492571Y-250809342D02*
X318921142Y-251380771D01*
X318921142Y-250380771D02*
X318349714Y-250952200D01*
X319564000Y-251380771D02*
X319564000Y-250380771D01*
X319564000Y-249880771D02*
X319492571Y-249952200D01*
X319564000Y-250023628D01*
X319635428Y-249952200D01*
X319564000Y-249880771D01*
X319564000Y-250023628D01*
X320921142Y-251309342D02*
X320778285Y-251380771D01*
X320492571Y-251380771D01*
X320349714Y-251309342D01*
X320278285Y-251237914D01*
X320206857Y-251095057D01*
X320206857Y-250666485D01*
X320278285Y-250523628D01*
X320349714Y-250452200D01*
X320492571Y-250380771D01*
X320778285Y-250380771D01*
X320921142Y-250452200D01*
X322206857Y-251380771D02*
X322206857Y-250595057D01*
X322135428Y-250452200D01*
X321992571Y-250380771D01*
X321706857Y-250380771D01*
X321564000Y-250452200D01*
X322206857Y-251309342D02*
X322064000Y-251380771D01*
X321706857Y-251380771D01*
X321564000Y-251309342D01*
X321492571Y-251166485D01*
X321492571Y-251023628D01*
X321564000Y-250880771D01*
X321706857Y-250809342D01*
X322064000Y-250809342D01*
X322206857Y-250737914D01*
X323564000Y-251380771D02*
X323564000Y-249880771D01*
X323564000Y-251309342D02*
X323421142Y-251380771D01*
X323135428Y-251380771D01*
X322992571Y-251309342D01*
X322921142Y-251237914D01*
X322849714Y-251095057D01*
X322849714Y-250666485D01*
X322921142Y-250523628D01*
X322992571Y-250452200D01*
X323135428Y-250380771D01*
X323421142Y-250380771D01*
X323564000Y-250452200D01*
X323921142Y-251523628D02*
X325064000Y-251523628D01*
X325421142Y-250380771D02*
X325421142Y-251880771D01*
X325421142Y-250452200D02*
X325564000Y-250380771D01*
X325849714Y-250380771D01*
X325992571Y-250452200D01*
X326064000Y-250523628D01*
X326135428Y-250666485D01*
X326135428Y-251095057D01*
X326064000Y-251237914D01*
X325992571Y-251309342D01*
X325849714Y-251380771D01*
X325564000Y-251380771D01*
X325421142Y-251309342D01*
X327421142Y-251309342D02*
X327278285Y-251380771D01*
X326992571Y-251380771D01*
X326849714Y-251309342D01*
X326778285Y-251237914D01*
X326706857Y-251095057D01*
X326706857Y-250666485D01*
X326778285Y-250523628D01*
X326849714Y-250452200D01*
X326992571Y-250380771D01*
X327278285Y-250380771D01*
X327421142Y-250452200D01*
X328064000Y-251380771D02*
X328064000Y-249880771D01*
X328064000Y-250452200D02*
X328206857Y-250380771D01*
X328492571Y-250380771D01*
X328635428Y-250452200D01*
X328706857Y-250523628D01*
X328778285Y-250666485D01*
X328778285Y-251095057D01*
X328706857Y-251237914D01*
X328635428Y-251309342D01*
X328492571Y-251380771D01*
X328206857Y-251380771D01*
X328064000Y-251309342D01*
D10*
D11*
X278989000Y-246502200D02*
X386989000Y-246502200D01*
D10*
D11*
X280349714Y-248609342D02*
X280564000Y-248680771D01*
X280921142Y-248680771D01*
X281064000Y-248609342D01*
X281135428Y-248537914D01*
X281206857Y-248395057D01*
X281206857Y-248252200D01*
X281135428Y-248109342D01*
X281064000Y-248037914D01*
X280921142Y-247966485D01*
X280635428Y-247895057D01*
X280492571Y-247823628D01*
X280421142Y-247752200D01*
X280349714Y-247609342D01*
X280349714Y-247466485D01*
X280421142Y-247323628D01*
X280492571Y-247252200D01*
X280635428Y-247180771D01*
X280992571Y-247180771D01*
X281206857Y-247252200D01*
X281849714Y-248680771D02*
X281849714Y-247180771D01*
X282492571Y-248680771D02*
X282492571Y-247895057D01*
X282421142Y-247752200D01*
X282278285Y-247680771D01*
X282064000Y-247680771D01*
X281921142Y-247752200D01*
X281849714Y-247823628D01*
X283778285Y-248609342D02*
X283635428Y-248680771D01*
X283349714Y-248680771D01*
X283206857Y-248609342D01*
X283135428Y-248466485D01*
X283135428Y-247895057D01*
X283206857Y-247752200D01*
X283349714Y-247680771D01*
X283635428Y-247680771D01*
X283778285Y-247752200D01*
X283849714Y-247895057D01*
X283849714Y-248037914D01*
X283135428Y-248180771D01*
X285064000Y-248609342D02*
X284921142Y-248680771D01*
X284635428Y-248680771D01*
X284492571Y-248609342D01*
X284421142Y-248466485D01*
X284421142Y-247895057D01*
X284492571Y-247752200D01*
X284635428Y-247680771D01*
X284921142Y-247680771D01*
X285064000Y-247752200D01*
X285135428Y-247895057D01*
X285135428Y-248037914D01*
X284421142Y-248180771D01*
X285564000Y-247680771D02*
X286135428Y-247680771D01*
X285778285Y-247180771D02*
X285778285Y-248466485D01*
X285849714Y-248609342D01*
X285992571Y-248680771D01*
X286135428Y-248680771D01*
X286635428Y-248537914D02*
X286706857Y-248609342D01*
X286635428Y-248680771D01*
X286564000Y-248609342D01*
X286635428Y-248537914D01*
X286635428Y-248680771D01*
X286635428Y-247752200D02*
X286706857Y-247823628D01*
X286635428Y-247895057D01*
X286564000Y-247823628D01*
X286635428Y-247752200D01*
X286635428Y-247895057D01*
D10*
D12*
D10*
D11*
D10*
D11*
D10*
D11*
D10*
D11*
D10*
D11*
X298989000Y-256502200D02*
X298989000Y-259502200D01*
D10*
D11*
X362989000Y-256502200D02*
X362989000Y-263002200D01*
D14*
X0Y-70000000D02*
X53000000Y-70000000D01*
X4351225Y-24600000D02*
G75*
G03*
X4351225Y-26600000I50025J-1000000D01*
G01*
X9200000Y-5451225D02*
G75*
G03*
X7200000Y-5451225I-1000000J-50025D01*
G01*
X53000000Y-70000000D02*
X53000000Y0D01*
X9200000Y-5451225D02*
X9200000Y-24600000D01*
X7200000Y-23600000D02*
X7200000Y-5451225D01*
X6100000Y-24600000D02*
G75*
G03*
X7200000Y-23600000I50000J1050000D01*
G01*
X0Y0D02*
X0Y-70000000D01*
X53000000Y0D02*
X0Y0D01*
X7100000Y-26600000D02*
G75*
G03*
X9200000Y-24600000I50000J2050000D01*
G01*
X4351225Y-26600000D02*
X7100000Y-26600000D01*
X4351225Y-24600000D02*
X6100000Y-24600000D01*
D15*
%TO.C,C8*%
X11200000Y-7025000D03*
X11200000Y-8575000D03*
%TD*%
D16*
%TO.C,C10*%
X12480000Y-10000000D03*
X11520000Y-10000000D03*
%TD*%
D17*
%TO.C,U3*%
X23745000Y-14072500D03*
X21457500Y-14835000D03*
X22220000Y-14072500D03*
X20695000Y-15597500D03*
X21457500Y-13310000D03*
X23745000Y-15597500D03*
X22982500Y-14835000D03*
X20695000Y-14072500D03*
X22220000Y-15597500D03*
X22982500Y-16360000D03*
X21457500Y-16360000D03*
D18*
X22220000Y-14835000D03*
D17*
X22982500Y-13310000D03*
D19*
X31650000Y-7495000D03*
X31650000Y-8765000D03*
X31650000Y-10035000D03*
X31650000Y-11305000D03*
X31650000Y-12575000D03*
X31650000Y-13845000D03*
X31650000Y-15115000D03*
X31650000Y-16385000D03*
X31650000Y-17655000D03*
X31650000Y-18925000D03*
X31650000Y-20195000D03*
X31650000Y-21465000D03*
X31650000Y-22735000D03*
X31650000Y-24005000D03*
D20*
X28620000Y-25255000D03*
X27350000Y-25255000D03*
X26080000Y-25255000D03*
X24810000Y-25255000D03*
X23540000Y-25255000D03*
X22270000Y-25255000D03*
X21000000Y-25255000D03*
X19730000Y-25255000D03*
X18460000Y-25255000D03*
X17190000Y-25255000D03*
D19*
X14150000Y-24005000D03*
X14150000Y-22735000D03*
X14150000Y-21465000D03*
X14150000Y-20195000D03*
X14150000Y-18925000D03*
X14150000Y-17655000D03*
X14150000Y-16385000D03*
X14150000Y-15115000D03*
X14150000Y-13845000D03*
X14150000Y-12575000D03*
X14150000Y-11305000D03*
X14150000Y-10035000D03*
X14150000Y-8765000D03*
X14150000Y-7495000D03*
%TD*%
D21*
%TO.C,C6*%
X33700000Y-28150000D03*
X33700000Y-30050000D03*
%TD*%
D22*
%TO.C,U11*%
X22662500Y-53450000D03*
X22662500Y-51550000D03*
X24937500Y-51550000D03*
X24937500Y-52500000D03*
X24937500Y-53450000D03*
%TD*%
D23*
%TO.C,R24*%
X38480000Y-8010000D03*
X38480000Y-6990000D03*
%TD*%
D24*
%TO.C,R21*%
X18552500Y-48040000D03*
X19572500Y-48040000D03*
%TD*%
D25*
%TO.C,R11*%
X27350000Y-26800000D03*
X27350000Y-27820000D03*
%TD*%
D26*
%TO.C,C25*%
X44630000Y-18650000D03*
X43670000Y-18650000D03*
%TD*%
D27*
%TO.C,SW3*%
X40825000Y-26800000D03*
X40825000Y-20800000D03*
X44575000Y-26800000D03*
X44575000Y-20800000D03*
%TD*%
D28*
%TO.C,H2*%
X50000000Y-3000000D03*
%TD*%
D24*
%TO.C,R2*%
X22800000Y-56900000D03*
X23820000Y-56900000D03*
%TD*%
D21*
%TO.C,C9*%
X33750000Y-41200000D03*
X33750000Y-43100000D03*
%TD*%
D29*
%TO.C,R8*%
X36310000Y-50050000D03*
X35290000Y-50050000D03*
%TD*%
D30*
%TO.C,D4*%
X36550000Y-30440000D03*
X36550000Y-34440000D03*
%TD*%
D31*
%TO.C,L2*%
X38112500Y-46700000D03*
X38112500Y-44700000D03*
%TD*%
D32*
%TO.C,R1*%
X42962500Y-39350000D03*
X44612500Y-39350000D03*
%TD*%
D33*
%TO.C,U15*%
X38530000Y-11800000D03*
D34*
X40030000Y-14250000D03*
X39530000Y-14250000D03*
X39030000Y-14250000D03*
X38530000Y-14250000D03*
X38030000Y-14250000D03*
X37530000Y-14250000D03*
X37030000Y-14250000D03*
D35*
X36080000Y-13300000D03*
X36080000Y-12800000D03*
X36080000Y-12300000D03*
X36080000Y-11800000D03*
X36080000Y-11300000D03*
X36080000Y-10800000D03*
X36080000Y-10300000D03*
D34*
X37030000Y-9350000D03*
X37530000Y-9350000D03*
X38030000Y-9350000D03*
X38530000Y-9350000D03*
X39030000Y-9350000D03*
X39530000Y-9350000D03*
X40030000Y-9350000D03*
D35*
X40980000Y-10300000D03*
X40980000Y-10800000D03*
X40980000Y-11300000D03*
X40980000Y-11800000D03*
X40980000Y-12300000D03*
X40980000Y-12800000D03*
X40980000Y-13300000D03*
%TD*%
D24*
%TO.C,R14*%
X3080000Y-18700000D03*
X4100000Y-18700000D03*
%TD*%
D36*
%TO.C,D7*%
X12312500Y-37050000D03*
X14187500Y-36100000D03*
X14187500Y-38000000D03*
%TD*%
D37*
%TO.C,D3*%
X40450000Y-37940000D03*
X36450000Y-37940000D03*
%TD*%
D38*
%TO.C,C2*%
X44412500Y-44800000D03*
X42512500Y-44800000D03*
%TD*%
D39*
%TO.C,D2*%
X23337500Y-59150000D03*
X21462500Y-59150000D03*
%TD*%
D40*
%TO.C,C3*%
X43962500Y-55060000D03*
X45862500Y-55060000D03*
%TD*%
D41*
%TO.C,C16*%
X6300000Y-20780000D03*
X6300000Y-19820000D03*
%TD*%
D42*
%TO.C,U7*%
X12305000Y-34505000D03*
X12305000Y-33235000D03*
X12305000Y-31965000D03*
X12305000Y-30695000D03*
X17255000Y-30695000D03*
X17255000Y-31965000D03*
X17255000Y-33235000D03*
X17255000Y-34505000D03*
%TD*%
D43*
%TO.C,J2*%
X51500000Y-59495000D03*
D44*
X51500000Y-63305000D03*
%TD*%
D45*
%TO.C,C20*%
X40037500Y-54900000D03*
X36962500Y-54900000D03*
%TD*%
D46*
%TO.C,U1*%
X44337500Y-40950000D03*
X44337500Y-41900000D03*
X44337500Y-42850000D03*
X42062500Y-42850000D03*
X42062500Y-41900000D03*
X42062500Y-40950000D03*
%TD*%
D47*
%TO.C,SW1*%
X47725000Y-41600000D03*
X47725000Y-39600000D03*
X48725000Y-43650000D03*
X50725000Y-43650000D03*
X48725000Y-37550000D03*
X50725000Y-37550000D03*
%TD*%
D16*
%TO.C,C26*%
X38020000Y-19500000D03*
X38980000Y-19500000D03*
%TD*%
D48*
%TO.C,U9*%
X20890900Y-49990001D03*
X20890900Y-49490000D03*
X20890900Y-48990000D03*
X20890900Y-48489999D03*
X23634100Y-48489999D03*
X23634100Y-48990000D03*
X23634100Y-49490000D03*
X23634100Y-49990001D03*
%TD*%
D22*
%TO.C,U4*%
X33712500Y-46650000D03*
X33712500Y-44750000D03*
X35987500Y-44750000D03*
X35987500Y-45700000D03*
X35987500Y-46650000D03*
%TD*%
D49*
%TO.C,J11*%
X47700000Y-16620000D03*
D50*
X51880000Y-7980000D03*
D49*
X47700000Y-7980000D03*
D50*
X51880000Y-16620000D03*
D51*
X46785000Y-15550000D03*
X46785000Y-14750000D03*
D52*
X46785000Y-14050000D03*
X46785000Y-13050000D03*
X46785000Y-11550000D03*
X46785000Y-10550000D03*
D51*
X46785000Y-9850000D03*
X46785000Y-9050000D03*
X46785000Y-9050000D03*
X46785000Y-9850000D03*
D52*
X46785000Y-11050000D03*
X46785000Y-12050000D03*
X46785000Y-12550000D03*
X46785000Y-13550000D03*
D51*
X46785000Y-14750000D03*
X46785000Y-15550000D03*
D53*
X48230000Y-15190000D03*
X48230000Y-9410000D03*
%TD*%
D54*
%TO.C,D1*%
X26362500Y-59200000D03*
X28237500Y-59200000D03*
%TD*%
D16*
%TO.C,C18*%
X11640000Y-15100000D03*
X12600000Y-15100000D03*
%TD*%
D55*
%TO.C,J6*%
X4350000Y-38400000D03*
X4350000Y-36400000D03*
X4350000Y-34400000D03*
X4350000Y-32400000D03*
D56*
X4350000Y-30400000D03*
%TD*%
D27*
%TO.C,SW2*%
X47025000Y-26800000D03*
X47025000Y-20800000D03*
X50775000Y-26800000D03*
X50775000Y-20800000D03*
%TD*%
D25*
%TO.C,R4*%
X31050000Y-29340000D03*
X31050000Y-30360000D03*
%TD*%
%TO.C,R10*%
X18450000Y-26890000D03*
X18450000Y-27910000D03*
%TD*%
D57*
%TO.C,U5*%
X2660000Y-11100000D03*
X5200000Y-11100000D03*
X5200000Y-13800000D03*
X2660000Y-13800000D03*
%TD*%
D58*
%TO.C,J10*%
X19000000Y-66800000D03*
X20000000Y-66800000D03*
X21000000Y-66800000D03*
X22000000Y-66800000D03*
X23000000Y-66800000D03*
X24000000Y-66800000D03*
X25000000Y-66800000D03*
X28000000Y-66800000D03*
X29000000Y-66800000D03*
X30000000Y-66800000D03*
X31000000Y-66800000D03*
X32000000Y-66800000D03*
X33000000Y-66800000D03*
X34000000Y-66800000D03*
X35000000Y-66800000D03*
X36000000Y-66800000D03*
X37000000Y-66800000D03*
X38000000Y-66800000D03*
D28*
X14200000Y-67490000D03*
X42800000Y-67490000D03*
%TD*%
D29*
%TO.C,R12*%
X2110000Y-16400000D03*
X1090000Y-16400000D03*
%TD*%
D25*
%TO.C,R25*%
X41290000Y-15490000D03*
X41290000Y-16510000D03*
%TD*%
D16*
%TO.C,C11*%
X35320000Y-48000000D03*
X36280000Y-48000000D03*
%TD*%
D23*
%TO.C,R17*%
X24762500Y-39550000D03*
X24762500Y-38530000D03*
%TD*%
D59*
%TO.C,Q1*%
X38990000Y-17937500D03*
X38040000Y-16062500D03*
X39940000Y-16062500D03*
%TD*%
D29*
%TO.C,R9*%
X12510000Y-24000000D03*
X11490000Y-24000000D03*
%TD*%
D25*
%TO.C,R22*%
X16700000Y-45400000D03*
X16700000Y-46420000D03*
%TD*%
D59*
%TO.C,Q2*%
X43690000Y-16837500D03*
X42740000Y-14962500D03*
X44640000Y-14962500D03*
%TD*%
D24*
%TO.C,R7*%
X35290000Y-49000000D03*
X36310000Y-49000000D03*
%TD*%
D41*
%TO.C,C7*%
X12500000Y-8780000D03*
X12500000Y-7820000D03*
%TD*%
D21*
%TO.C,C4*%
X30450000Y-32690000D03*
X30450000Y-34590000D03*
%TD*%
D26*
%TO.C,C23*%
X43310000Y-8400000D03*
X42350000Y-8400000D03*
%TD*%
D60*
%TO.C,U8*%
X5175000Y-19800000D03*
X4525000Y-19800000D03*
X3875000Y-19800000D03*
X3225000Y-19800000D03*
X3225000Y-21400000D03*
X3875000Y-21400000D03*
X4525000Y-21400000D03*
X5175000Y-21400000D03*
%TD*%
D25*
%TO.C,R16*%
X25000000Y-49250000D03*
X25000000Y-50270000D03*
%TD*%
D21*
%TO.C,C5*%
X39912500Y-41000000D03*
X39912500Y-42900000D03*
%TD*%
D61*
%TO.C,U6*%
X5200000Y-15400000D03*
X5200000Y-16400000D03*
X5200000Y-17400000D03*
X3200000Y-17400000D03*
X3200000Y-16400000D03*
X3200000Y-15400000D03*
%TD*%
D62*
%TO.C,L1*%
X34050000Y-34240000D03*
X32050000Y-34240000D03*
%TD*%
D43*
%TO.C,J3*%
X51500000Y-51695000D03*
D44*
X51500000Y-55505000D03*
%TD*%
D24*
%TO.C,R15*%
X4540000Y-22450000D03*
X5560000Y-22450000D03*
%TD*%
%TO.C,R6*%
X30790000Y-56900000D03*
X31810000Y-56900000D03*
%TD*%
%TO.C,R20*%
X11580000Y-16100000D03*
X12600000Y-16100000D03*
%TD*%
D30*
%TO.C,D5*%
X40150000Y-30440000D03*
X40150000Y-34440000D03*
%TD*%
D63*
%TO.C,Y1*%
X19780000Y-35700000D03*
X19780000Y-33200000D03*
%TD*%
D22*
%TO.C,U13*%
X12962500Y-47330000D03*
X12962500Y-45430000D03*
X15237500Y-45430000D03*
X15237500Y-46380000D03*
X15237500Y-47330000D03*
%TD*%
D64*
%TO.C,C15*%
X10480000Y-33540000D03*
X10480000Y-34500000D03*
%TD*%
D26*
%TO.C,C24*%
X43310000Y-9400000D03*
X42350000Y-9400000D03*
%TD*%
D55*
%TO.C,J4*%
X48550000Y-31100000D03*
D65*
X48550000Y-33100000D03*
%TD*%
D24*
%TO.C,R26*%
X41280000Y-18500000D03*
X42300000Y-18500000D03*
%TD*%
D41*
%TO.C,C17*%
X20900000Y-51870000D03*
X20900000Y-50910000D03*
%TD*%
D22*
%TO.C,U14*%
X21025000Y-39490000D03*
X21025000Y-37590000D03*
X23300000Y-37590000D03*
X23300000Y-38540000D03*
X23300000Y-39490000D03*
%TD*%
%TO.C,U10*%
X21025000Y-43090000D03*
X21025000Y-41190000D03*
X23300000Y-41190000D03*
X23300000Y-42140000D03*
X23300000Y-43090000D03*
%TD*%
D26*
%TO.C,C22*%
X43310000Y-7400000D03*
X42350000Y-7400000D03*
%TD*%
D28*
%TO.C,H1*%
X3000000Y-3000000D03*
%TD*%
D55*
%TO.C,J7*%
X4350000Y-51400000D03*
X4350000Y-49400000D03*
X4350000Y-47400000D03*
X4350000Y-45400000D03*
D56*
X4350000Y-43400000D03*
%TD*%
D29*
%TO.C,R5*%
X12590000Y-11000000D03*
X11570000Y-11000000D03*
%TD*%
D38*
%TO.C,C21*%
X38750000Y-61150000D03*
X36850000Y-61150000D03*
%TD*%
D46*
%TO.C,U12*%
X23300000Y-44690000D03*
X23300000Y-46590000D03*
X21025000Y-46590000D03*
X21025000Y-45640000D03*
X21025000Y-44690000D03*
%TD*%
D24*
%TO.C,R19*%
X18552500Y-49040000D03*
X19572500Y-49040000D03*
%TD*%
%TO.C,R13*%
X18980000Y-31950000D03*
X20000000Y-31950000D03*
%TD*%
D25*
%TO.C,R23*%
X39530000Y-6990000D03*
X39530000Y-8010000D03*
%TD*%
D43*
%TO.C,J1*%
X1505000Y-67485000D03*
X1505000Y-63985000D03*
X1505000Y-60485000D03*
D44*
X1505000Y-56985000D03*
%TD*%
D39*
%TO.C,D6*%
X33537500Y-59200000D03*
X31662500Y-59200000D03*
%TD*%
D26*
%TO.C,C13*%
X4280000Y-9700000D03*
X3320000Y-9700000D03*
%TD*%
D23*
%TO.C,R3*%
X32150000Y-30360000D03*
X32150000Y-29340000D03*
%TD*%
D66*
%TO.C,C1*%
X42962500Y-57800000D03*
X46037500Y-57800000D03*
%TD*%
D67*
%TO.C,C14*%
X1350000Y-19700000D03*
X1350000Y-17800000D03*
%TD*%
D68*
%TO.C,U2*%
X32609999Y-31939997D03*
X34090001Y-31939997D03*
X32609999Y-31439998D03*
X32609999Y-32439999D03*
X34090001Y-32439999D03*
X34090001Y-31439998D03*
%TD*%
D69*
%TO.C,D8*%
X42750000Y-11300000D03*
X44650000Y-11300000D03*
X44650000Y-13300000D03*
D70*
X42950000Y-13300000D03*
%TD*%
D21*
%TO.C,C12*%
X40312500Y-44700000D03*
X40312500Y-46600000D03*
%TD*%
D24*
%TO.C,R18*%
X18540000Y-50050000D03*
X19560000Y-50050000D03*
%TD*%
D45*
%TO.C,C19*%
X40087500Y-58450000D03*
X37012500Y-58450000D03*
%TD*%
M02*
