<?xml version="1.0" standalone="no"?>
<!DOCTYPE svg PUBLIC "-//W3C//DTD SVG 1.1//EN" "http://www.w3.org/Graphics/SVG/1.1/DTD/svg11.dtd">
<svg width="121.0mm" height="68.99999999999989mm"
 viewBox="0 0 121.0 68.99999999999989"
 xmlns="http://www.w3.org/2000/svg" version="1.1"
 xmlns:xlink="http://www.w3.org/1999/xlink">
<desc>Output from Flights of Ideas SVG Sketchup Plugin</desc>

  <path id="face0-cut"
 style="fill:none;stroke:#0000FF;stroke-width:1;stroke-miterlimit:4;stroke-dasharray:none;stroke-linejoin:round;stroke-linecap:round"
        d="M 83.99999999993281,27.563679468690566 L 10.0,27.563679468690566 L 10.0,58.999999999999886 L 111.0,58.999999999999886 L 111.0,10.0 L 83.99999999993258,10.000000000000227 L 83.99999999993281,27.563679468690566 M 56.10000000000002,29.58000000000004 L 56.10000000000002,32.51999999999998 L 17.0,32.51999999999998 L 17.0,29.579999999999814 L 56.10000000000002,29.58000000000004 M 56.10000000000002,57.91999999999996 L 17.0,57.920000000000186 L 17.0,54.98000000000002 L 56.10000000000002,54.979999999999905 L 56.10000000000002,57.91999999999996 M 109.37880376801058,38.97520001061673 L 109.37880376801058,42.3752181483851 L 94.97880376801061,42.3752181483851 L 94.97880376801061,38.97520001061673 L 109.37880376801058,38.97520001061673 M 104.49999999999989,14.499999999999886 L 104.49999999999989,16.5 L 102.49999999999989,16.5 L 102.49999999999989,14.499999999999886 L 104.49999999999989,14.499999999999886 M 100.49999999999989,14.499999999999886 L 100.49999999999989,16.5 L 98.5,16.5 L 98.5,14.499999999999886 L 100.49999999999989,14.499999999999886 M 104.49999999999989,20.5 L 102.49999999999989,20.5 L 102.49999999999989,18.499999999999886 L 104.49999999999989,18.499999999999886 L 104.49999999999989,20.5 M 106.5,18.499999999999886 L 108.5,18.499999999999886 L 108.5,20.5 L 106.5,20.5 L 106.5,18.499999999999886 M 106.5,22.499999999999886 L 108.5,22.499999999999886 L 108.5,24.5 L 106.5,24.5 L 106.5,22.499999999999886 M 104.49999999999989,22.499999999999886 L 104.49999999999989,24.5 L 102.49999999999989,24.5 L 102.49999999999989,22.499999999999886 L 104.49999999999989,22.499999999999886 M 106.5,28.5 L 106.5,26.499999999999886 L 108.5,26.499999999999886 L 108.5,28.5 L 106.5,28.5 M 108.5,30.499999999999886 L 108.5,32.5 L 106.5,32.5 L 106.5,30.499999999999886 L 108.5,30.499999999999886 M 104.5,30.499999999999886 L 104.5,32.5 L 102.49999999999989,32.5 L 102.49999999999989,30.499999999999886 L 104.5,30.499999999999886 M 104.49999999999989,26.499999999999886 L 104.5,28.5 L 102.49999999999989,28.5 L 102.49999999999989,26.499999999999886 L 104.49999999999989,26.499999999999886 M 98.5,20.5 L 98.5,18.499999999999886 L 100.49999999999989,18.499999999999886 L 100.49999999999989,20.5 L 98.5,20.5 M 100.49999999999989,22.499999999999886 L 100.49999999999989,24.5 L 98.5,24.5 L 98.5,22.499999999999886 L 100.49999999999989,22.499999999999886 M 98.5,26.5 L 100.49999999999989,26.499999999999886 L 100.49999999999989,28.5 L 98.5,28.5 L 98.5,26.5 M 98.5,32.5 L 98.5,30.5 L 100.49999999999989,30.499999999999886 L 100.49999999999989,32.5 L 98.5,32.5 M 96.5,32.5 L 94.5,32.5 L 94.5,30.5 L 96.5,30.5 L 96.5,32.5 M 94.5,28.5 L 94.5,26.5 L 96.5,26.5 L 96.5,28.5 L 94.5,28.5 M 94.49999999999989,22.500000000000114 L 96.5,22.500000000000114 L 96.5,24.5 L 94.49999999999989,24.5 L 94.49999999999989,22.500000000000114 M 94.49999999999989,20.5 L 94.49999999999989,18.500000000000114 L 96.5,18.500000000000114 L 96.5,20.5 L 94.49999999999989,20.5 M 94.49999999999989,14.500000000000114 L 96.49999999999989,14.499999999999886 L 96.5,16.5 L 94.49999999999989,16.5 L 94.49999999999989,14.500000000000114 M 90.49999999999989,14.500000000000114 L 92.49999999999989,14.500000000000114 L 92.49999999999989,16.5 L 90.49999999999989,16.5 L 90.49999999999989,14.500000000000114 M 92.49999999999989,18.500000000000114 L 92.49999999999989,20.5 L 90.49999999999989,20.5 L 90.49999999999989,18.500000000000114 L 92.49999999999989,18.500000000000114 M 90.49999999999989,24.5 L 90.49999999999989,22.500000000000114 L 92.49999999999989,22.500000000000114 L 92.49999999999989,24.5 L 90.49999999999989,24.5 M 92.49999999999989,28.5 L 90.49999999999989,28.5 L 90.49999999999989,26.5 L 92.49999999999989,26.5 L 92.49999999999989,28.5 M 92.49999999999989,30.5 L 92.49999999999989,32.5 L 90.49999999999989,32.5 L 90.49999999999989,30.5 L 92.49999999999989,30.5 "
  />
  <path id="face0-interior"
 style="fill:none;stroke:#FF0000;stroke-width:1;stroke-miterlimit:4;stroke-dasharray:none;stroke-linejoin:round;stroke-linecap:round"
        d="M 83.99999999993281,27.563679468690566 M 10.0,27.563679468690566 M 10.0,58.999999999999886 M 111.0,58.999999999999886 M 111.0,10.0 M 83.99999999993258,10.000000000000227 M 56.10000000000002,29.58000000000004 M 56.10000000000002,32.51999999999998 M 17.0,32.51999999999998 M 17.0,29.579999999999814 M 56.10000000000002,57.91999999999996 M 17.0,57.920000000000186 M 17.0,54.98000000000002 M 56.10000000000002,54.979999999999905 M 109.37880376801058,38.97520001061673 M 109.37880376801058,42.3752181483851 M 94.97880376801061,42.3752181483851 M 94.97880376801061,38.97520001061673 M 104.49999999999989,14.499999999999886 M 104.49999999999989,16.5 M 102.49999999999989,16.5 M 102.49999999999989,14.499999999999886 M 100.49999999999989,14.499999999999886 M 100.49999999999989,16.5 M 98.5,16.5 M 98.5,14.499999999999886 M 104.49999999999989,20.5 M 102.49999999999989,20.5 M 102.49999999999989,18.499999999999886 M 104.49999999999989,18.499999999999886 M 106.5,18.499999999999886 M 108.5,18.499999999999886 M 108.5,20.5 M 106.5,20.5 M 106.5,22.499999999999886 M 108.5,22.499999999999886 M 108.5,24.5 M 106.5,24.5 M 104.49999999999989,22.499999999999886 M 104.49999999999989,24.5 M 102.49999999999989,24.5 M 102.49999999999989,22.499999999999886 M 106.5,28.5 M 106.5,26.499999999999886 M 108.5,26.499999999999886 M 108.5,28.5 M 108.5,30.499999999999886 M 108.5,32.5 M 106.5,32.5 M 106.5,30.499999999999886 M 104.5,30.499999999999886 M 104.5,32.5 M 102.49999999999989,32.5 M 102.49999999999989,30.499999999999886 M 104.49999999999989,26.499999999999886 M 104.5,28.5 M 102.49999999999989,28.5 M 102.49999999999989,26.499999999999886 M 98.5,20.5 M 98.5,18.499999999999886 M 100.49999999999989,18.499999999999886 M 100.49999999999989,20.5 M 100.49999999999989,22.499999999999886 M 100.49999999999989,24.5 M 98.5,24.5 M 98.5,22.499999999999886 M 98.5,26.5 M 100.49999999999989,26.499999999999886 M 100.49999999999989,28.5 M 98.5,28.5 M 98.5,32.5 M 98.5,30.5 M 100.49999999999989,30.499999999999886 M 100.49999999999989,32.5 M 96.5,32.5 M 94.5,32.5 M 94.5,30.5 M 96.5,30.5 M 94.5,28.5 M 94.5,26.5 M 96.5,26.5 M 96.5,28.5 M 94.49999999999989,22.500000000000114 M 96.5,22.500000000000114 M 96.5,24.5 M 94.49999999999989,24.5 M 94.49999999999989,20.5 M 94.49999999999989,18.500000000000114 M 96.5,18.500000000000114 M 96.5,20.5 M 94.49999999999989,14.500000000000114 M 96.49999999999989,14.499999999999886 M 96.5,16.5 M 94.49999999999989,16.5 M 90.49999999999989,14.500000000000114 M 92.49999999999989,14.500000000000114 M 92.49999999999989,16.5 M 90.49999999999989,16.5 M 92.49999999999989,18.500000000000114 M 92.49999999999989,20.5 M 90.49999999999989,20.5 M 90.49999999999989,18.500000000000114 M 90.49999999999989,24.5 M 90.49999999999989,22.500000000000114 M 92.49999999999989,22.500000000000114 M 92.49999999999989,24.5 M 92.49999999999989,28.5 M 90.49999999999989,28.5 M 90.49999999999989,26.5 M 92.49999999999989,26.5 M 92.49999999999989,30.5 M 92.49999999999989,32.5 M 90.49999999999989,32.5 M 90.49999999999989,30.5 "
  />
  <path id="face0-interior"
 style="fill:none;stroke:#00FF00;stroke-width:1;stroke-miterlimit:4;stroke-dasharray:none;stroke-linejoin:round;stroke-linecap:round"
        d="M 83.99999999993281,27.563679468690566 M 10.0,27.563679468690566 M 10.0,58.999999999999886 M 111.0,58.999999999999886 M 111.0,10.0 M 83.99999999993258,10.000000000000227 M 56.10000000000002,29.58000000000004 M 56.10000000000002,32.51999999999998 M 17.0,32.51999999999998 M 17.0,29.579999999999814 M 56.10000000000002,57.91999999999996 M 17.0,57.920000000000186 M 17.0,54.98000000000002 M 56.10000000000002,54.979999999999905 M 109.37880376801058,38.97520001061673 M 109.37880376801058,42.3752181483851 M 94.97880376801061,42.3752181483851 M 94.97880376801061,38.97520001061673 M 104.49999999999989,14.499999999999886 M 104.49999999999989,16.5 M 102.49999999999989,16.5 M 102.49999999999989,14.499999999999886 M 100.49999999999989,14.499999999999886 M 100.49999999999989,16.5 M 98.5,16.5 M 98.5,14.499999999999886 M 104.49999999999989,20.5 M 102.49999999999989,20.5 M 102.49999999999989,18.499999999999886 M 104.49999999999989,18.499999999999886 M 106.5,18.499999999999886 M 108.5,18.499999999999886 M 108.5,20.5 M 106.5,20.5 M 106.5,22.499999999999886 M 108.5,22.499999999999886 M 108.5,24.5 M 106.5,24.5 M 104.49999999999989,22.499999999999886 M 104.49999999999989,24.5 M 102.49999999999989,24.5 M 102.49999999999989,22.499999999999886 M 106.5,28.5 M 106.5,26.499999999999886 M 108.5,26.499999999999886 M 108.5,28.5 M 108.5,30.499999999999886 M 108.5,32.5 M 106.5,32.5 M 106.5,30.499999999999886 M 104.5,30.499999999999886 M 104.5,32.5 M 102.49999999999989,32.5 M 102.49999999999989,30.499999999999886 M 104.49999999999989,26.499999999999886 M 104.5,28.5 M 102.49999999999989,28.5 M 102.49999999999989,26.499999999999886 M 98.5,20.5 M 98.5,18.499999999999886 M 100.49999999999989,18.499999999999886 M 100.49999999999989,20.5 M 100.49999999999989,22.499999999999886 M 100.49999999999989,24.5 M 98.5,24.5 M 98.5,22.499999999999886 M 98.5,26.5 M 100.49999999999989,26.499999999999886 M 100.49999999999989,28.5 M 98.5,28.5 M 98.5,32.5 M 98.5,30.5 M 100.49999999999989,30.499999999999886 M 100.49999999999989,32.5 M 96.5,32.5 M 94.5,32.5 M 94.5,30.5 M 96.5,30.5 M 94.5,28.5 M 94.5,26.5 M 96.5,26.5 M 96.5,28.5 M 94.49999999999989,22.500000000000114 M 96.5,22.500000000000114 M 96.5,24.5 M 94.49999999999989,24.5 M 94.49999999999989,20.5 M 94.49999999999989,18.500000000000114 M 96.5,18.500000000000114 M 96.5,20.5 M 94.49999999999989,14.500000000000114 M 96.49999999999989,14.499999999999886 M 96.5,16.5 M 94.49999999999989,16.5 M 90.49999999999989,14.500000000000114 M 92.49999999999989,14.500000000000114 M 92.49999999999989,16.5 M 90.49999999999989,16.5 M 92.49999999999989,18.500000000000114 M 92.49999999999989,20.5 M 90.49999999999989,20.5 M 90.49999999999989,18.500000000000114 M 90.49999999999989,24.5 M 90.49999999999989,22.500000000000114 M 92.49999999999989,22.500000000000114 M 92.49999999999989,24.5 M 92.49999999999989,28.5 M 90.49999999999989,28.5 M 90.49999999999989,26.5 M 92.49999999999989,26.5 M 92.49999999999989,30.5 M 92.49999999999989,32.5 M 90.49999999999989,32.5 M 90.49999999999989,30.5 "
  />
</svg>
