%TF.GenerationSoftware,KiCad,Pcbnew,(6.0.9)*%
%TF.CreationDate,2023-05-10T12:51:21+05:30*%
%TF.ProjectId,WeatherKids_Compact(V1.0),57656174-6865-4724-9b69-64735f436f6d,rev?*%
%TF.SameCoordinates,Original*%
%TF.FileFunction,Soldermask,Top*%
%TF.FilePolarity,Negative*%
%FSLAX46Y46*%
G04 Gerber Fmt 4.6, Leading zero omitted, Abs format (unit mm)*
G04 Created by KiCad (PCBNEW (6.0.9)) date 2023-05-10 12:51:21*
%MOMM*%
%LPD*%
G01*
G04 APERTURE LIST*
G04 Aperture macros list*
%AMRoundRect*
0 Rectangle with rounded corners*
0 $1 Rounding radius*
0 $2 $3 $4 $5 $6 $7 $8 $9 X,Y pos of 4 corners*
0 Add a 4 corners polygon primitive as box body*
4,1,4,$2,$3,$4,$5,$6,$7,$8,$9,$2,$3,0*
0 Add four circle primitives for the rounded corners*
1,1,$1+$1,$2,$3*
1,1,$1+$1,$4,$5*
1,1,$1+$1,$6,$7*
1,1,$1+$1,$8,$9*
0 Add four rect primitives between the rounded corners*
20,1,$1+$1,$2,$3,$4,$5,0*
20,1,$1+$1,$4,$5,$6,$7,0*
20,1,$1+$1,$6,$7,$8,$9,0*
20,1,$1+$1,$8,$9,$2,$3,0*%
G04 Aperture macros list end*
%ADD10C,3.100000*%
%ADD11C,1.500000*%
%ADD12RoundRect,0.300000X-0.350000X-0.625000X0.350000X-0.625000X0.350000X0.625000X-0.350000X0.625000X0*%
%ADD13O,1.300000X1.850000*%
%ADD14RoundRect,0.200000X-0.587500X-0.150000X0.587500X-0.150000X0.587500X0.150000X-0.587500X0.150000X0*%
%ADD15RoundRect,0.300000X-0.475000X0.250000X-0.475000X-0.250000X0.475000X-0.250000X0.475000X0.250000X0*%
%ADD16RoundRect,0.050000X-0.400000X-1.000000X0.400000X-1.000000X0.400000X1.000000X-0.400000X1.000000X0*%
%ADD17RoundRect,0.300000X0.625000X-0.350000X0.625000X0.350000X-0.625000X0.350000X-0.625000X-0.350000X0*%
%ADD18O,1.850000X1.300000*%
%ADD19RoundRect,0.200000X0.512500X0.150000X-0.512500X0.150000X-0.512500X-0.150000X0.512500X-0.150000X0*%
%ADD20RoundRect,0.185000X0.185000X-0.135000X0.185000X0.135000X-0.185000X0.135000X-0.185000X-0.135000X0*%
%ADD21RoundRect,0.200000X-0.825000X-0.150000X0.825000X-0.150000X0.825000X0.150000X-0.825000X0.150000X0*%
%ADD22RoundRect,0.185000X-0.185000X0.135000X-0.185000X-0.135000X0.185000X-0.135000X0.185000X0.135000X0*%
%ADD23RoundRect,0.050000X-0.900000X0.500000X-0.900000X-0.500000X0.900000X-0.500000X0.900000X0.500000X0*%
%ADD24RoundRect,0.293750X0.456250X-0.243750X0.456250X0.243750X-0.456250X0.243750X-0.456250X-0.243750X0*%
%ADD25RoundRect,0.300000X0.625000X-0.312500X0.625000X0.312500X-0.625000X0.312500X-0.625000X-0.312500X0*%
%ADD26RoundRect,0.293750X-0.456250X0.243750X-0.456250X-0.243750X0.456250X-0.243750X0.456250X0.243750X0*%
%ADD27RoundRect,0.200000X-0.512500X-0.150000X0.512500X-0.150000X0.512500X0.150000X-0.512500X0.150000X0*%
%ADD28RoundRect,0.050000X0.400000X0.250000X-0.400000X0.250000X-0.400000X-0.250000X0.400000X-0.250000X0*%
%ADD29RoundRect,0.185000X0.135000X0.185000X-0.135000X0.185000X-0.135000X-0.185000X0.135000X-0.185000X0*%
%ADD30RoundRect,0.185000X-0.135000X-0.185000X0.135000X-0.185000X0.135000X0.185000X-0.135000X0.185000X0*%
%ADD31RoundRect,0.050000X0.250000X0.175000X-0.250000X0.175000X-0.250000X-0.175000X0.250000X-0.175000X0*%
%ADD32RoundRect,0.190000X-0.140000X-0.170000X0.140000X-0.170000X0.140000X0.170000X-0.140000X0.170000X0*%
%ADD33C,1.700000*%
%ADD34C,2.300000*%
%ADD35RoundRect,0.190000X0.170000X-0.140000X0.170000X0.140000X-0.170000X0.140000X-0.170000X-0.140000X0*%
%ADD36RoundRect,0.250000X-0.200000X-0.275000X0.200000X-0.275000X0.200000X0.275000X-0.200000X0.275000X0*%
%ADD37RoundRect,0.300000X0.475000X-0.250000X0.475000X0.250000X-0.475000X0.250000X-0.475000X-0.250000X0*%
%ADD38RoundRect,0.190000X0.140000X0.170000X-0.140000X0.170000X-0.140000X-0.170000X0.140000X-0.170000X0*%
%ADD39RoundRect,0.300000X-0.312500X-0.625000X0.312500X-0.625000X0.312500X0.625000X-0.312500X0.625000X0*%
%ADD40RoundRect,0.190000X-0.170000X0.140000X-0.170000X-0.140000X0.170000X-0.140000X0.170000X0.140000X0*%
%ADD41RoundRect,0.050000X-1.250000X-0.900000X1.250000X-0.900000X1.250000X0.900000X-1.250000X0.900000X0*%
%ADD42RoundRect,0.300000X0.250000X0.475000X-0.250000X0.475000X-0.250000X-0.475000X0.250000X-0.475000X0*%
%ADD43RoundRect,0.050000X0.400000X-0.400000X0.400000X0.400000X-0.400000X0.400000X-0.400000X-0.400000X0*%
%ADD44R,0.670001X0.299999*%
%ADD45RoundRect,0.200000X0.150000X-0.587500X0.150000X0.587500X-0.150000X0.587500X-0.150000X-0.587500X0*%
%ADD46RoundRect,0.050000X-1.200000X-0.800000X1.200000X-0.800000X1.200000X0.800000X-1.200000X0.800000X0*%
%ADD47O,2.500000X1.700000*%
G04 APERTURE END LIST*
D10*
%TO.C,J10*%
X5500000Y-40400000D03*
X10500000Y-40400000D03*
X8000000Y-32800000D03*
%TD*%
%TO.C,J9*%
X8000000Y-96000000D03*
X5500000Y-88400000D03*
X10500000Y-88400000D03*
%TD*%
D11*
%TO.C,SW1*%
X38250000Y-43100000D03*
X38250000Y-46300000D03*
X38250000Y-48500000D03*
X38250000Y-50700000D03*
X33170000Y-50700000D03*
X33170000Y-48500000D03*
X33170000Y-46300000D03*
X33170000Y-43100000D03*
%TD*%
D12*
%TO.C,J4*%
X24700000Y-95150000D03*
D13*
X26700000Y-95150000D03*
%TD*%
D14*
%TO.C,D4*%
X31412500Y-66600000D03*
X31412500Y-68500000D03*
X33287500Y-67550000D03*
%TD*%
D15*
%TO.C,C11*%
X17600000Y-36850000D03*
X17600000Y-38750000D03*
%TD*%
D16*
%TO.C,L1*%
X17600000Y-34700000D03*
X19600000Y-34700000D03*
%TD*%
D17*
%TO.C,J3*%
X42950000Y-41100000D03*
D18*
X42950000Y-39100000D03*
X42950000Y-37100000D03*
X42950000Y-35100000D03*
X42950000Y-33100000D03*
%TD*%
D19*
%TO.C,U2*%
X35450000Y-58150000D03*
X35450000Y-57200000D03*
X35450000Y-56250000D03*
X33175000Y-56250000D03*
X33175000Y-58150000D03*
%TD*%
D20*
%TO.C,R10*%
X31550000Y-43310000D03*
X31550000Y-42290000D03*
%TD*%
D21*
%TO.C,U9*%
X35650000Y-62450000D03*
X35650000Y-63720000D03*
X35650000Y-64990000D03*
X35650000Y-66260000D03*
X40600000Y-66260000D03*
X40600000Y-64990000D03*
X40600000Y-63720000D03*
X40600000Y-62450000D03*
%TD*%
D22*
%TO.C,R9*%
X12200000Y-10790000D03*
X12200000Y-11810000D03*
%TD*%
D23*
%TO.C,Y1*%
X33125000Y-64950000D03*
X33125000Y-62450000D03*
%TD*%
D24*
%TO.C,D5*%
X30000000Y-14437500D03*
X30000000Y-12562500D03*
%TD*%
D25*
%TO.C,R26*%
X37600000Y-55862500D03*
X37600000Y-52937500D03*
%TD*%
D26*
%TO.C,D2*%
X30000000Y-2562500D03*
X30000000Y-4437500D03*
%TD*%
D15*
%TO.C,C5*%
X10600000Y-11800000D03*
X10600000Y-13700000D03*
%TD*%
D27*
%TO.C,U6*%
X19725000Y-40450000D03*
X19725000Y-41400000D03*
X19725000Y-42350000D03*
X22000000Y-42350000D03*
X22000000Y-41400000D03*
X22000000Y-40450000D03*
%TD*%
D28*
%TO.C,U5*%
X7400000Y-13500000D03*
X7400000Y-12500000D03*
X7400000Y-11500000D03*
X5400000Y-11500000D03*
X5400000Y-12500000D03*
X5400000Y-13500000D03*
%TD*%
D29*
%TO.C,R3*%
X35320000Y-37100000D03*
X34300000Y-37100000D03*
%TD*%
D30*
%TO.C,R18*%
X21180000Y-39100000D03*
X22200000Y-39100000D03*
%TD*%
%TO.C,R5*%
X42490000Y-86600000D03*
X43510000Y-86600000D03*
%TD*%
D29*
%TO.C,R25*%
X33210000Y-14400000D03*
X32190000Y-14400000D03*
%TD*%
D17*
%TO.C,J5*%
X42950000Y-48500000D03*
D18*
X42950000Y-46500000D03*
%TD*%
D29*
%TO.C,R24*%
X41010000Y-67700000D03*
X39990000Y-67700000D03*
%TD*%
D20*
%TO.C,R14*%
X23650000Y-45110000D03*
X23650000Y-44090000D03*
%TD*%
D31*
%TO.C,U3*%
X13300000Y-12875000D03*
X13300000Y-12225000D03*
X13300000Y-11575000D03*
X13300000Y-10925000D03*
X14900000Y-10925000D03*
X14900000Y-11575000D03*
X14900000Y-12225000D03*
X14900000Y-12875000D03*
%TD*%
D32*
%TO.C,C10*%
X21210000Y-38000000D03*
X22170000Y-38000000D03*
%TD*%
D20*
%TO.C,R23*%
X43400000Y-72360000D03*
X43400000Y-71340000D03*
%TD*%
D33*
%TO.C,SW2*%
X44525000Y-7550000D03*
X42525000Y-7550000D03*
X44525000Y-13650000D03*
X42525000Y-13650000D03*
X41525000Y-9600000D03*
X41525000Y-11600000D03*
%TD*%
D22*
%TO.C,R4*%
X9000000Y-11390000D03*
X9000000Y-12410000D03*
%TD*%
%TO.C,R6*%
X30400000Y-42290000D03*
X30400000Y-43310000D03*
%TD*%
D24*
%TO.C,D1*%
X30000000Y-9437500D03*
X30000000Y-7562500D03*
%TD*%
D29*
%TO.C,R13*%
X31660000Y-46300000D03*
X30640000Y-46300000D03*
%TD*%
D32*
%TO.C,C3*%
X34420000Y-54900000D03*
X35380000Y-54900000D03*
%TD*%
D34*
%TO.C,H2*%
X45000000Y-97000000D03*
%TD*%
D35*
%TO.C,C2*%
X42450000Y-62430000D03*
X42450000Y-61470000D03*
%TD*%
D20*
%TO.C,R12*%
X31650000Y-48310000D03*
X31650000Y-47290000D03*
%TD*%
D36*
%TO.C,R17*%
X23675000Y-40450000D03*
X25325000Y-40450000D03*
%TD*%
D37*
%TO.C,C16*%
X22000000Y-45950000D03*
X22000000Y-44050000D03*
%TD*%
D38*
%TO.C,C4*%
X14900000Y-14000000D03*
X13940000Y-14000000D03*
%TD*%
D29*
%TO.C,R19*%
X17610000Y-29500000D03*
X16590000Y-29500000D03*
%TD*%
D20*
%TO.C,R22*%
X42450000Y-67320000D03*
X42450000Y-66300000D03*
%TD*%
D37*
%TO.C,C15*%
X17600000Y-42350000D03*
X17600000Y-40450000D03*
%TD*%
%TO.C,C13*%
X19150000Y-30300000D03*
X19150000Y-28400000D03*
%TD*%
D39*
%TO.C,R2*%
X32537500Y-53200000D03*
X35462500Y-53200000D03*
%TD*%
D30*
%TO.C,R1*%
X34840000Y-68750000D03*
X35860000Y-68750000D03*
%TD*%
D32*
%TO.C,C7*%
X16820000Y-9700000D03*
X17780000Y-9700000D03*
%TD*%
D29*
%TO.C,R8*%
X15710000Y-9700000D03*
X14690000Y-9700000D03*
%TD*%
D34*
%TO.C,H4*%
X45000000Y-3000000D03*
%TD*%
D40*
%TO.C,C6*%
X31662500Y-57200000D03*
X31662500Y-58160000D03*
%TD*%
D41*
%TO.C,D6*%
X33900000Y-39500000D03*
X37900000Y-39500000D03*
%TD*%
D22*
%TO.C,R11*%
X29300000Y-42300000D03*
X29300000Y-43320000D03*
%TD*%
D30*
%TO.C,R7*%
X36290000Y-37100000D03*
X37310000Y-37100000D03*
%TD*%
D34*
%TO.C,H1*%
X19000000Y-97000000D03*
%TD*%
D42*
%TO.C,C12*%
X28240000Y-36200000D03*
X26340000Y-36200000D03*
%TD*%
D17*
%TO.C,J1*%
X42950000Y-27600000D03*
D18*
X42950000Y-25600000D03*
X42950000Y-23600000D03*
X42950000Y-21600000D03*
X42950000Y-19600000D03*
%TD*%
D34*
%TO.C,H3*%
X3000000Y-3000000D03*
%TD*%
D29*
%TO.C,R21*%
X17610000Y-30550000D03*
X16590000Y-30550000D03*
%TD*%
D40*
%TO.C,C9*%
X23800000Y-88220000D03*
X23800000Y-89180000D03*
%TD*%
D43*
%TO.C,U4*%
X16830000Y-13700000D03*
X19370000Y-13700000D03*
X19370000Y-11000000D03*
X16830000Y-11000000D03*
%TD*%
D16*
%TO.C,L2*%
X26090000Y-34000000D03*
X28090000Y-34000000D03*
%TD*%
D22*
%TO.C,R16*%
X24900000Y-88190000D03*
X24900000Y-89210000D03*
%TD*%
D44*
%TO.C,U1*%
X19090001Y-32249997D03*
X19090001Y-32749999D03*
X17609999Y-32249997D03*
X19090001Y-31749998D03*
X17609999Y-31749998D03*
X17609999Y-32749999D03*
%TD*%
D12*
%TO.C,J2*%
X32000000Y-95150000D03*
D13*
X34000000Y-95150000D03*
X36000000Y-95150000D03*
X38000000Y-95150000D03*
X40000000Y-95150000D03*
%TD*%
D45*
%TO.C,Q1*%
X29600000Y-40700000D03*
X31500000Y-40700000D03*
X30550000Y-38825000D03*
%TD*%
D30*
%TO.C,R20*%
X23180000Y-38000000D03*
X24200000Y-38000000D03*
%TD*%
D22*
%TO.C,R15*%
X23000000Y-85640000D03*
X23000000Y-86660000D03*
%TD*%
D19*
%TO.C,U7*%
X24427500Y-36650000D03*
X24427500Y-35700000D03*
X24427500Y-34750000D03*
X22152500Y-34750000D03*
X22152500Y-36650000D03*
%TD*%
D46*
%TO.C,MOD1*%
X20550000Y-56140000D03*
D47*
X20550000Y-58680000D03*
X20550000Y-61220000D03*
X20550000Y-63760000D03*
X20550000Y-66300000D03*
X20550000Y-68840000D03*
X20550000Y-71380000D03*
X20550000Y-73920000D03*
X20550000Y-76460000D03*
X20550000Y-79000000D03*
X20550000Y-81540000D03*
X20550000Y-84080000D03*
X20550000Y-86620000D03*
X20550000Y-89160000D03*
X20550000Y-91700000D03*
X45950000Y-91700000D03*
X45950000Y-89160000D03*
X45950000Y-86620000D03*
X45950000Y-84080000D03*
X45950000Y-81540000D03*
X45950000Y-79000000D03*
X45950000Y-76460000D03*
X45950000Y-73920000D03*
X45950000Y-71380000D03*
X45950000Y-68840000D03*
X45950000Y-66300000D03*
X45950000Y-63760000D03*
X45950000Y-61220000D03*
X45950000Y-58680000D03*
X45950000Y-56140000D03*
%TD*%
D37*
%TO.C,C8*%
X21250000Y-30300000D03*
X21250000Y-28400000D03*
%TD*%
G36*
X35960773Y-57549000D02*
G01*
X35960773Y-57551000D01*
X35959850Y-57551829D01*
X35897010Y-57579628D01*
X35858254Y-57638383D01*
X35857416Y-57708763D01*
X35894753Y-57768412D01*
X35959937Y-57798181D01*
X35961097Y-57799810D01*
X35960266Y-57801629D01*
X35959106Y-57802000D01*
X34940959Y-57802000D01*
X34939227Y-57801000D01*
X34939227Y-57799000D01*
X34940150Y-57798171D01*
X35002990Y-57770372D01*
X35041746Y-57711617D01*
X35042584Y-57641237D01*
X35005247Y-57581588D01*
X34940063Y-57551819D01*
X34938903Y-57550190D01*
X34939734Y-57548371D01*
X34940894Y-57548000D01*
X35959041Y-57548000D01*
X35960773Y-57549000D01*
G37*
G36*
X35960773Y-56599000D02*
G01*
X35960773Y-56601000D01*
X35959850Y-56601829D01*
X35897010Y-56629628D01*
X35858254Y-56688383D01*
X35857416Y-56758763D01*
X35894753Y-56818412D01*
X35959937Y-56848181D01*
X35961097Y-56849810D01*
X35960266Y-56851629D01*
X35959106Y-56852000D01*
X34940959Y-56852000D01*
X34939227Y-56851000D01*
X34939227Y-56849000D01*
X34940150Y-56848171D01*
X35002990Y-56820372D01*
X35041746Y-56761617D01*
X35042584Y-56691237D01*
X35005247Y-56631588D01*
X34940063Y-56601819D01*
X34938903Y-56600190D01*
X34939734Y-56598371D01*
X34940894Y-56598000D01*
X35959041Y-56598000D01*
X35960773Y-56599000D01*
G37*
G36*
X20235773Y-41749000D02*
G01*
X20235773Y-41751000D01*
X20234850Y-41751829D01*
X20172010Y-41779628D01*
X20133254Y-41838383D01*
X20132416Y-41908763D01*
X20169753Y-41968412D01*
X20234937Y-41998181D01*
X20236097Y-41999810D01*
X20235266Y-42001629D01*
X20234106Y-42002000D01*
X19215959Y-42002000D01*
X19214227Y-42001000D01*
X19214227Y-41999000D01*
X19215150Y-41998171D01*
X19277990Y-41970372D01*
X19316746Y-41911617D01*
X19317584Y-41841237D01*
X19280247Y-41781588D01*
X19215063Y-41751819D01*
X19213903Y-41750190D01*
X19214734Y-41748371D01*
X19215894Y-41748000D01*
X20234041Y-41748000D01*
X20235773Y-41749000D01*
G37*
G36*
X22510773Y-41749000D02*
G01*
X22510773Y-41751000D01*
X22509850Y-41751829D01*
X22447010Y-41779628D01*
X22408254Y-41838383D01*
X22407416Y-41908763D01*
X22444753Y-41968412D01*
X22509937Y-41998181D01*
X22511097Y-41999810D01*
X22510266Y-42001629D01*
X22509106Y-42002000D01*
X21490959Y-42002000D01*
X21489227Y-42001000D01*
X21489227Y-41999000D01*
X21490150Y-41998171D01*
X21552990Y-41970372D01*
X21591746Y-41911617D01*
X21592584Y-41841237D01*
X21555247Y-41781588D01*
X21490063Y-41751819D01*
X21488903Y-41750190D01*
X21489734Y-41748371D01*
X21490894Y-41748000D01*
X22509041Y-41748000D01*
X22510773Y-41749000D01*
G37*
G36*
X22510773Y-40799000D02*
G01*
X22510773Y-40801000D01*
X22509850Y-40801829D01*
X22447010Y-40829628D01*
X22408254Y-40888383D01*
X22407416Y-40958763D01*
X22444753Y-41018412D01*
X22509937Y-41048181D01*
X22511097Y-41049810D01*
X22510266Y-41051629D01*
X22509106Y-41052000D01*
X21490959Y-41052000D01*
X21489227Y-41051000D01*
X21489227Y-41049000D01*
X21490150Y-41048171D01*
X21552990Y-41020372D01*
X21591746Y-40961617D01*
X21592584Y-40891237D01*
X21555247Y-40831588D01*
X21490063Y-40801819D01*
X21488903Y-40800190D01*
X21489734Y-40798371D01*
X21490894Y-40798000D01*
X22509041Y-40798000D01*
X22510773Y-40799000D01*
G37*
G36*
X20235773Y-40799000D02*
G01*
X20235773Y-40801000D01*
X20234850Y-40801829D01*
X20172010Y-40829628D01*
X20133254Y-40888383D01*
X20132416Y-40958763D01*
X20169753Y-41018412D01*
X20234937Y-41048181D01*
X20236097Y-41049810D01*
X20235266Y-41051629D01*
X20234106Y-41052000D01*
X19215959Y-41052000D01*
X19214227Y-41051000D01*
X19214227Y-41049000D01*
X19215150Y-41048171D01*
X19277990Y-41020372D01*
X19316746Y-40961617D01*
X19317584Y-40891237D01*
X19280247Y-40831588D01*
X19215063Y-40801819D01*
X19213903Y-40800190D01*
X19214734Y-40798371D01*
X19215894Y-40798000D01*
X20234041Y-40798000D01*
X20235773Y-40799000D01*
G37*
G36*
X24938273Y-36049000D02*
G01*
X24938273Y-36051000D01*
X24937350Y-36051829D01*
X24874510Y-36079628D01*
X24835754Y-36138383D01*
X24834916Y-36208763D01*
X24872253Y-36268412D01*
X24937437Y-36298181D01*
X24938597Y-36299810D01*
X24937766Y-36301629D01*
X24936606Y-36302000D01*
X23918459Y-36302000D01*
X23916727Y-36301000D01*
X23916727Y-36299000D01*
X23917650Y-36298171D01*
X23980490Y-36270372D01*
X24019246Y-36211617D01*
X24020084Y-36141237D01*
X23982747Y-36081588D01*
X23917563Y-36051819D01*
X23916403Y-36050190D01*
X23917234Y-36048371D01*
X23918394Y-36048000D01*
X24936541Y-36048000D01*
X24938273Y-36049000D01*
G37*
G36*
X24938273Y-35099000D02*
G01*
X24938273Y-35101000D01*
X24937350Y-35101829D01*
X24874510Y-35129628D01*
X24835754Y-35188383D01*
X24834916Y-35258763D01*
X24872253Y-35318412D01*
X24937437Y-35348181D01*
X24938597Y-35349810D01*
X24937766Y-35351629D01*
X24936606Y-35352000D01*
X23918459Y-35352000D01*
X23916727Y-35351000D01*
X23916727Y-35349000D01*
X23917650Y-35348171D01*
X23980490Y-35320372D01*
X24019246Y-35261617D01*
X24020084Y-35191237D01*
X23982747Y-35131588D01*
X23917563Y-35101819D01*
X23916403Y-35100190D01*
X23917234Y-35098371D01*
X23918394Y-35098000D01*
X24936541Y-35098000D01*
X24938273Y-35099000D01*
G37*
G36*
X19423799Y-32398996D02*
G01*
X19423730Y-32401107D01*
X19414802Y-32414469D01*
X19414674Y-32414641D01*
X19385003Y-32450143D01*
X19376230Y-32519976D01*
X19406680Y-32583624D01*
X19422746Y-32597546D01*
X19423099Y-32597946D01*
X19423729Y-32598889D01*
X19423860Y-32600885D01*
X19422066Y-32602000D01*
X18757935Y-32602000D01*
X18756203Y-32601000D01*
X18756272Y-32598889D01*
X18765200Y-32585527D01*
X18765328Y-32585355D01*
X18794999Y-32549853D01*
X18803772Y-32480020D01*
X18773322Y-32416372D01*
X18757256Y-32402450D01*
X18756903Y-32402050D01*
X18756273Y-32401107D01*
X18756142Y-32399111D01*
X18757936Y-32397996D01*
X19422067Y-32397996D01*
X19423799Y-32398996D01*
G37*
G36*
X17943797Y-32398996D02*
G01*
X17943728Y-32401107D01*
X17934800Y-32414469D01*
X17934672Y-32414641D01*
X17905001Y-32450143D01*
X17896228Y-32519976D01*
X17926678Y-32583624D01*
X17942744Y-32597546D01*
X17943097Y-32597946D01*
X17943727Y-32598889D01*
X17943858Y-32600885D01*
X17942064Y-32602000D01*
X17277933Y-32602000D01*
X17276201Y-32601000D01*
X17276270Y-32598889D01*
X17285198Y-32585527D01*
X17285326Y-32585355D01*
X17314997Y-32549853D01*
X17323770Y-32480020D01*
X17293320Y-32416372D01*
X17277254Y-32402450D01*
X17276901Y-32402050D01*
X17276271Y-32401107D01*
X17276140Y-32399111D01*
X17277934Y-32397996D01*
X17942065Y-32397996D01*
X17943797Y-32398996D01*
G37*
G36*
X19423799Y-31898997D02*
G01*
X19423730Y-31901108D01*
X19414797Y-31914477D01*
X19414669Y-31914648D01*
X19385004Y-31950146D01*
X19376234Y-32019982D01*
X19406686Y-32083627D01*
X19422746Y-32097542D01*
X19423099Y-32097943D01*
X19423730Y-32098887D01*
X19423861Y-32100882D01*
X19422067Y-32101998D01*
X18757935Y-32101998D01*
X18756203Y-32100998D01*
X18756272Y-32098887D01*
X18765206Y-32085517D01*
X18765334Y-32085345D01*
X18794996Y-32049853D01*
X18803769Y-31980020D01*
X18773319Y-31916372D01*
X18757257Y-31902453D01*
X18756904Y-31902053D01*
X18756273Y-31901108D01*
X18756143Y-31899112D01*
X18757936Y-31897997D01*
X19422067Y-31897997D01*
X19423799Y-31898997D01*
G37*
G36*
X17943797Y-31898997D02*
G01*
X17943728Y-31901108D01*
X17934795Y-31914477D01*
X17934667Y-31914648D01*
X17905002Y-31950146D01*
X17896232Y-32019982D01*
X17926684Y-32083627D01*
X17942744Y-32097542D01*
X17943097Y-32097943D01*
X17943728Y-32098887D01*
X17943859Y-32100882D01*
X17942065Y-32101998D01*
X17277933Y-32101998D01*
X17276201Y-32100998D01*
X17276270Y-32098887D01*
X17285204Y-32085517D01*
X17285332Y-32085345D01*
X17314994Y-32049853D01*
X17323767Y-31980020D01*
X17293317Y-31916372D01*
X17277255Y-31902453D01*
X17276902Y-31902053D01*
X17276271Y-31901108D01*
X17276141Y-31899112D01*
X17277934Y-31897997D01*
X17942065Y-31897997D01*
X17943797Y-31898997D01*
G37*
G36*
X13566789Y-12445641D02*
G01*
X13567179Y-12447603D01*
X13566820Y-12448243D01*
X13523443Y-12500149D01*
X13514672Y-12569983D01*
X13545123Y-12633628D01*
X13565540Y-12651318D01*
X13566194Y-12653208D01*
X13564884Y-12654720D01*
X13563840Y-12654792D01*
X13549801Y-12652000D01*
X13050199Y-12652000D01*
X13035105Y-12655002D01*
X13033211Y-12654359D01*
X13032821Y-12652397D01*
X13033180Y-12651757D01*
X13076557Y-12599851D01*
X13085328Y-12530017D01*
X13054877Y-12466372D01*
X13034460Y-12448682D01*
X13033806Y-12446792D01*
X13035116Y-12445280D01*
X13036160Y-12445208D01*
X13050199Y-12448000D01*
X13549801Y-12448000D01*
X13564895Y-12444998D01*
X13566789Y-12445641D01*
G37*
G36*
X15166789Y-12445641D02*
G01*
X15167179Y-12447603D01*
X15166820Y-12448243D01*
X15123443Y-12500149D01*
X15114672Y-12569983D01*
X15145123Y-12633628D01*
X15165540Y-12651318D01*
X15166194Y-12653208D01*
X15164884Y-12654720D01*
X15163840Y-12654792D01*
X15149801Y-12652000D01*
X14650199Y-12652000D01*
X14635105Y-12655002D01*
X14633211Y-12654359D01*
X14632821Y-12652397D01*
X14633180Y-12651757D01*
X14676557Y-12599851D01*
X14685328Y-12530017D01*
X14654877Y-12466372D01*
X14634460Y-12448682D01*
X14633806Y-12446792D01*
X14635116Y-12445280D01*
X14636160Y-12445208D01*
X14650199Y-12448000D01*
X15149801Y-12448000D01*
X15164895Y-12444998D01*
X15166789Y-12445641D01*
G37*
G36*
X15166789Y-11795641D02*
G01*
X15167179Y-11797603D01*
X15166820Y-11798243D01*
X15123443Y-11850149D01*
X15114672Y-11919983D01*
X15145123Y-11983628D01*
X15165540Y-12001318D01*
X15166194Y-12003208D01*
X15164884Y-12004720D01*
X15163840Y-12004792D01*
X15149801Y-12002000D01*
X14650199Y-12002000D01*
X14635105Y-12005002D01*
X14633211Y-12004359D01*
X14632821Y-12002397D01*
X14633180Y-12001757D01*
X14676557Y-11949851D01*
X14685328Y-11880017D01*
X14654877Y-11816372D01*
X14634460Y-11798682D01*
X14633806Y-11796792D01*
X14635116Y-11795280D01*
X14636160Y-11795208D01*
X14650199Y-11798000D01*
X15149801Y-11798000D01*
X15164895Y-11794998D01*
X15166789Y-11795641D01*
G37*
G36*
X13566789Y-11795641D02*
G01*
X13567179Y-11797603D01*
X13566820Y-11798243D01*
X13523443Y-11850149D01*
X13514672Y-11919983D01*
X13545123Y-11983628D01*
X13565540Y-12001318D01*
X13566194Y-12003208D01*
X13564884Y-12004720D01*
X13563840Y-12004792D01*
X13549801Y-12002000D01*
X13050199Y-12002000D01*
X13035105Y-12005002D01*
X13033211Y-12004359D01*
X13032821Y-12002397D01*
X13033180Y-12001757D01*
X13076557Y-11949851D01*
X13085328Y-11880017D01*
X13054877Y-11816372D01*
X13034460Y-11798682D01*
X13033806Y-11796792D01*
X13035116Y-11795280D01*
X13036160Y-11795208D01*
X13050199Y-11798000D01*
X13549801Y-11798000D01*
X13564895Y-11794998D01*
X13566789Y-11795641D01*
G37*
G36*
X13566789Y-11145641D02*
G01*
X13567179Y-11147603D01*
X13566820Y-11148243D01*
X13523443Y-11200149D01*
X13514672Y-11269983D01*
X13545123Y-11333628D01*
X13565540Y-11351318D01*
X13566194Y-11353208D01*
X13564884Y-11354720D01*
X13563840Y-11354792D01*
X13549801Y-11352000D01*
X13050199Y-11352000D01*
X13035105Y-11355002D01*
X13033211Y-11354359D01*
X13032821Y-11352397D01*
X13033180Y-11351757D01*
X13076557Y-11299851D01*
X13085328Y-11230017D01*
X13054877Y-11166372D01*
X13034460Y-11148682D01*
X13033806Y-11146792D01*
X13035116Y-11145280D01*
X13036160Y-11145208D01*
X13050199Y-11148000D01*
X13549801Y-11148000D01*
X13564895Y-11144998D01*
X13566789Y-11145641D01*
G37*
G36*
X15166789Y-11145641D02*
G01*
X15167179Y-11147603D01*
X15166820Y-11148243D01*
X15123443Y-11200149D01*
X15114672Y-11269983D01*
X15145123Y-11333628D01*
X15165540Y-11351318D01*
X15166194Y-11353208D01*
X15164884Y-11354720D01*
X15163840Y-11354792D01*
X15149801Y-11352000D01*
X14650199Y-11352000D01*
X14635105Y-11355002D01*
X14633211Y-11354359D01*
X14632821Y-11352397D01*
X14633180Y-11351757D01*
X14676557Y-11299851D01*
X14685328Y-11230017D01*
X14654877Y-11166372D01*
X14634460Y-11148682D01*
X14633806Y-11146792D01*
X14635116Y-11145280D01*
X14636160Y-11145208D01*
X14650199Y-11148000D01*
X15149801Y-11148000D01*
X15164895Y-11144998D01*
X15166789Y-11145641D01*
G37*
M02*
