%TF.GenerationSoftware,KiCad,Pcbnew,(6.0.9)*%
%TF.CreationDate,2023-07-16T00:02:42+05:30*%
%TF.ProjectId,WeatherKids_Compact(V2.1),57656174-6865-4724-9b69-64735f436f6d,rev?*%
%TF.SameCoordinates,Original*%
%TF.FileFunction,Copper,L1,Top*%
%TF.FilePolarity,Positive*%
%FSLAX46Y46*%
G04 Gerber Fmt 4.6, Leading zero omitted, Abs format (unit mm)*
G04 Created by KiCad (PCBNEW (6.0.9)) date 2023-07-16 00:02:42*
%MOMM*%
%LPD*%
G01*
G04 APERTURE LIST*
G04 Aperture macros list*
%AMRoundRect*
0 Rectangle with rounded corners*
0 $1 Rounding radius*
0 $2 $3 $4 $5 $6 $7 $8 $9 X,Y pos of 4 corners*
0 Add a 4 corners polygon primitive as box body*
4,1,4,$2,$3,$4,$5,$6,$7,$8,$9,$2,$3,0*
0 Add four circle primitives for the rounded corners*
1,1,$1+$1,$2,$3*
1,1,$1+$1,$4,$5*
1,1,$1+$1,$6,$7*
1,1,$1+$1,$8,$9*
0 Add four rect primitives between the rounded corners*
20,1,$1+$1,$2,$3,$4,$5,0*
20,1,$1+$1,$4,$5,$6,$7,0*
20,1,$1+$1,$6,$7,$8,$9,0*
20,1,$1+$1,$8,$9,$2,$3,0*%
G04 Aperture macros list end*
%ADD10C,0.100000*%
%ADD11C,0.150000*%
%ADD12C,0.300000*%
%ADD13C,0.400000*%
%TA.AperFunction,Profile*%
%ADD14C,0.050000*%
%TD*%
%TA.AperFunction,SMDPad,CuDef*%
%ADD15RoundRect,0.150000X0.512500X0.150000X-0.512500X0.150000X-0.512500X-0.150000X0.512500X-0.150000X0*%
%TD*%
%TA.AperFunction,SMDPad,CuDef*%
%ADD16RoundRect,0.135000X0.135000X0.185000X-0.135000X0.185000X-0.135000X-0.185000X0.135000X-0.185000X0*%
%TD*%
%TA.AperFunction,SMDPad,CuDef*%
%ADD17RoundRect,0.250000X0.475000X-0.250000X0.475000X0.250000X-0.475000X0.250000X-0.475000X-0.250000X0*%
%TD*%
%TA.AperFunction,SMDPad,CuDef*%
%ADD18RoundRect,0.135000X-0.185000X0.135000X-0.185000X-0.135000X0.185000X-0.135000X0.185000X0.135000X0*%
%TD*%
%TA.AperFunction,SMDPad,CuDef*%
%ADD19RoundRect,0.135000X0.185000X-0.135000X0.185000X0.135000X-0.185000X0.135000X-0.185000X-0.135000X0*%
%TD*%
%TA.AperFunction,SMDPad,CuDef*%
%ADD20RoundRect,0.140000X-0.140000X-0.170000X0.140000X-0.170000X0.140000X0.170000X-0.140000X0.170000X0*%
%TD*%
%TA.AperFunction,SMDPad,CuDef*%
%ADD21RoundRect,0.187500X-0.187500X0.312500X-0.187500X-0.312500X0.187500X-0.312500X0.187500X0.312500X0*%
%TD*%
%TA.AperFunction,SMDPad,CuDef*%
%ADD22RoundRect,0.135000X-0.135000X-0.185000X0.135000X-0.185000X0.135000X0.185000X-0.135000X0.185000X0*%
%TD*%
%TA.AperFunction,SMDPad,CuDef*%
%ADD23R,1.800000X2.500000*%
%TD*%
%TA.AperFunction,SMDPad,CuDef*%
%ADD24R,2.000000X0.800000*%
%TD*%
%TA.AperFunction,SMDPad,CuDef*%
%ADD25RoundRect,0.200000X0.200000X0.275000X-0.200000X0.275000X-0.200000X-0.275000X0.200000X-0.275000X0*%
%TD*%
%TA.AperFunction,SMDPad,CuDef*%
%ADD26RoundRect,0.062500X0.337500X0.062500X-0.337500X0.062500X-0.337500X-0.062500X0.337500X-0.062500X0*%
%TD*%
%TA.AperFunction,SMDPad,CuDef*%
%ADD27RoundRect,0.062500X0.062500X0.337500X-0.062500X0.337500X-0.062500X-0.337500X0.062500X-0.337500X0*%
%TD*%
%TA.AperFunction,SMDPad,CuDef*%
%ADD28R,3.350000X3.350000*%
%TD*%
%TA.AperFunction,SMDPad,CuDef*%
%ADD29RoundRect,0.150000X0.587500X0.150000X-0.587500X0.150000X-0.587500X-0.150000X0.587500X-0.150000X0*%
%TD*%
%TA.AperFunction,SMDPad,CuDef*%
%ADD30R,2.500000X1.800000*%
%TD*%
%TA.AperFunction,SMDPad,CuDef*%
%ADD31RoundRect,0.250000X-0.250000X-0.475000X0.250000X-0.475000X0.250000X0.475000X-0.250000X0.475000X0*%
%TD*%
%TA.AperFunction,SMDPad,CuDef*%
%ADD32RoundRect,0.243750X-0.243750X-0.456250X0.243750X-0.456250X0.243750X0.456250X-0.243750X0.456250X0*%
%TD*%
%TA.AperFunction,SMDPad,CuDef*%
%ADD33RoundRect,0.250000X0.250000X0.475000X-0.250000X0.475000X-0.250000X-0.475000X0.250000X-0.475000X0*%
%TD*%
%TA.AperFunction,SMDPad,CuDef*%
%ADD34RoundRect,0.140000X-0.170000X0.140000X-0.170000X-0.140000X0.170000X-0.140000X0.170000X0.140000X0*%
%TD*%
%TA.AperFunction,SMDPad,CuDef*%
%ADD35RoundRect,0.150000X0.825000X0.150000X-0.825000X0.150000X-0.825000X-0.150000X0.825000X-0.150000X0*%
%TD*%
%TA.AperFunction,ComponentPad*%
%ADD36R,2.400000X2.400000*%
%TD*%
%TA.AperFunction,ComponentPad*%
%ADD37C,2.400000*%
%TD*%
%TA.AperFunction,SMDPad,CuDef*%
%ADD38RoundRect,0.250000X-0.412500X-0.925000X0.412500X-0.925000X0.412500X0.925000X-0.412500X0.925000X0*%
%TD*%
%TA.AperFunction,SMDPad,CuDef*%
%ADD39RoundRect,0.150000X-0.512500X-0.150000X0.512500X-0.150000X0.512500X0.150000X-0.512500X0.150000X0*%
%TD*%
%TA.AperFunction,ComponentPad*%
%ADD40C,1.600000*%
%TD*%
%TA.AperFunction,SMDPad,CuDef*%
%ADD41RoundRect,0.140000X0.140000X0.170000X-0.140000X0.170000X-0.140000X-0.170000X0.140000X-0.170000X0*%
%TD*%
%TA.AperFunction,SMDPad,CuDef*%
%ADD42R,1.168400X0.254000*%
%TD*%
%TA.AperFunction,SMDPad,CuDef*%
%ADD43R,1.450000X0.600000*%
%TD*%
%TA.AperFunction,SMDPad,CuDef*%
%ADD44R,1.450000X0.300000*%
%TD*%
%TA.AperFunction,ComponentPad*%
%ADD45O,1.600000X1.000000*%
%TD*%
%TA.AperFunction,ComponentPad*%
%ADD46O,2.100000X1.000000*%
%TD*%
%TA.AperFunction,SMDPad,CuDef*%
%ADD47RoundRect,0.243750X0.243750X0.456250X-0.243750X0.456250X-0.243750X-0.456250X0.243750X-0.456250X0*%
%TD*%
%TA.AperFunction,ComponentPad*%
%ADD48RoundRect,0.250000X-0.625000X0.350000X-0.625000X-0.350000X0.625000X-0.350000X0.625000X0.350000X0*%
%TD*%
%TA.AperFunction,ComponentPad*%
%ADD49O,1.750000X1.200000*%
%TD*%
%TA.AperFunction,SMDPad,CuDef*%
%ADD50R,0.800000X0.800000*%
%TD*%
%TA.AperFunction,SMDPad,CuDef*%
%ADD51R,0.700000X3.600000*%
%TD*%
%TA.AperFunction,SMDPad,CuDef*%
%ADD52RoundRect,0.150000X-0.150000X0.587500X-0.150000X-0.587500X0.150000X-0.587500X0.150000X0.587500X0*%
%TD*%
%TA.AperFunction,SMDPad,CuDef*%
%ADD53R,1.500000X0.900000*%
%TD*%
%TA.AperFunction,SMDPad,CuDef*%
%ADD54R,0.900000X1.500000*%
%TD*%
%TA.AperFunction,ComponentPad*%
%ADD55C,0.600000*%
%TD*%
%TA.AperFunction,SMDPad,CuDef*%
%ADD56R,1.050000X1.050000*%
%TD*%
%TA.AperFunction,SMDPad,CuDef*%
%ADD57R,4.200000X4.200000*%
%TD*%
%TA.AperFunction,SMDPad,CuDef*%
%ADD58R,0.350000X0.500000*%
%TD*%
%TA.AperFunction,SMDPad,CuDef*%
%ADD59R,0.800000X0.500000*%
%TD*%
%TA.AperFunction,SMDPad,CuDef*%
%ADD60R,0.800000X2.000000*%
%TD*%
%TA.AperFunction,SMDPad,CuDef*%
%ADD61R,1.800000X1.000000*%
%TD*%
%TA.AperFunction,SMDPad,CuDef*%
%ADD62RoundRect,0.140000X0.170000X-0.140000X0.170000X0.140000X-0.170000X0.140000X-0.170000X-0.140000X0*%
%TD*%
%TA.AperFunction,ComponentPad*%
%ADD63RoundRect,0.250000X0.625000X-0.350000X0.625000X0.350000X-0.625000X0.350000X-0.625000X-0.350000X0*%
%TD*%
%TA.AperFunction,SMDPad,CuDef*%
%ADD64RoundRect,0.250000X0.412500X0.925000X-0.412500X0.925000X-0.412500X-0.925000X0.412500X-0.925000X0*%
%TD*%
%TA.AperFunction,SMDPad,CuDef*%
%ADD65RoundRect,0.250000X-0.475000X0.250000X-0.475000X-0.250000X0.475000X-0.250000X0.475000X0.250000X0*%
%TD*%
%TA.AperFunction,SMDPad,CuDef*%
%ADD66R,0.670001X0.299999*%
%TD*%
%TA.AperFunction,SMDPad,CuDef*%
%ADD67R,1.000000X0.700000*%
%TD*%
%TA.AperFunction,SMDPad,CuDef*%
%ADD68R,0.600000X0.700000*%
%TD*%
%TA.AperFunction,ViaPad*%
%ADD69C,0.600000*%
%TD*%
%TA.AperFunction,Conductor*%
%ADD70C,0.127000*%
%TD*%
%TA.AperFunction,Conductor*%
%ADD71C,0.203200*%
%TD*%
%TA.AperFunction,Conductor*%
%ADD72C,0.254000*%
%TD*%
%TA.AperFunction,Conductor*%
%ADD73C,0.381000*%
%TD*%
%TA.AperFunction,Conductor*%
%ADD74C,0.508000*%
%TD*%
G04 APERTURE END LIST*
D10*
D11*
X299989000Y-253002200D02*
X299989000Y-285002200D01*
X407989000Y-285002200D01*
X407989000Y-253002200D01*
X299989000Y-253002200D01*
D10*
D11*
X10000000Y-10000000D02*
X10000000Y-287002200D01*
X409989000Y-287002200D01*
X409989000Y-10000000D01*
X10000000Y-10000000D01*
D10*
D11*
X12000000Y-12000000D02*
X12000000Y-285002200D01*
X407989000Y-285002200D01*
X407989000Y-12000000D01*
X12000000Y-12000000D01*
D10*
D11*
X60000000Y-12000000D02*
X60000000Y-10000000D01*
D10*
D11*
X110000000Y-12000000D02*
X110000000Y-10000000D01*
D10*
D11*
X160000000Y-12000000D02*
X160000000Y-10000000D01*
D10*
D11*
X210000000Y-12000000D02*
X210000000Y-10000000D01*
D10*
D11*
X260000000Y-12000000D02*
X260000000Y-10000000D01*
D10*
D11*
X310000000Y-12000000D02*
X310000000Y-10000000D01*
D10*
D11*
X360000000Y-12000000D02*
X360000000Y-10000000D01*
D10*
D11*
X36065476Y-11588095D02*
X35322619Y-11588095D01*
X35694047Y-11588095D02*
X35694047Y-10288095D01*
X35570238Y-10473809D01*
X35446428Y-10597619D01*
X35322619Y-10659523D01*
D10*
D11*
X85322619Y-10411904D02*
X85384523Y-10350000D01*
X85508333Y-10288095D01*
X85817857Y-10288095D01*
X85941666Y-10350000D01*
X86003571Y-10411904D01*
X86065476Y-10535714D01*
X86065476Y-10659523D01*
X86003571Y-10845238D01*
X85260714Y-11588095D01*
X86065476Y-11588095D01*
D10*
D11*
X135260714Y-10288095D02*
X136065476Y-10288095D01*
X135632142Y-10783333D01*
X135817857Y-10783333D01*
X135941666Y-10845238D01*
X136003571Y-10907142D01*
X136065476Y-11030952D01*
X136065476Y-11340476D01*
X136003571Y-11464285D01*
X135941666Y-11526190D01*
X135817857Y-11588095D01*
X135446428Y-11588095D01*
X135322619Y-11526190D01*
X135260714Y-11464285D01*
D10*
D11*
X185941666Y-10721428D02*
X185941666Y-11588095D01*
X185632142Y-10226190D02*
X185322619Y-11154761D01*
X186127380Y-11154761D01*
D10*
D11*
X236003571Y-10288095D02*
X235384523Y-10288095D01*
X235322619Y-10907142D01*
X235384523Y-10845238D01*
X235508333Y-10783333D01*
X235817857Y-10783333D01*
X235941666Y-10845238D01*
X236003571Y-10907142D01*
X236065476Y-11030952D01*
X236065476Y-11340476D01*
X236003571Y-11464285D01*
X235941666Y-11526190D01*
X235817857Y-11588095D01*
X235508333Y-11588095D01*
X235384523Y-11526190D01*
X235322619Y-11464285D01*
D10*
D11*
X285941666Y-10288095D02*
X285694047Y-10288095D01*
X285570238Y-10350000D01*
X285508333Y-10411904D01*
X285384523Y-10597619D01*
X285322619Y-10845238D01*
X285322619Y-11340476D01*
X285384523Y-11464285D01*
X285446428Y-11526190D01*
X285570238Y-11588095D01*
X285817857Y-11588095D01*
X285941666Y-11526190D01*
X286003571Y-11464285D01*
X286065476Y-11340476D01*
X286065476Y-11030952D01*
X286003571Y-10907142D01*
X285941666Y-10845238D01*
X285817857Y-10783333D01*
X285570238Y-10783333D01*
X285446428Y-10845238D01*
X285384523Y-10907142D01*
X285322619Y-11030952D01*
D10*
D11*
X335260714Y-10288095D02*
X336127380Y-10288095D01*
X335570238Y-11588095D01*
D10*
D11*
X385570238Y-10845238D02*
X385446428Y-10783333D01*
X385384523Y-10721428D01*
X385322619Y-10597619D01*
X385322619Y-10535714D01*
X385384523Y-10411904D01*
X385446428Y-10350000D01*
X385570238Y-10288095D01*
X385817857Y-10288095D01*
X385941666Y-10350000D01*
X386003571Y-10411904D01*
X386065476Y-10535714D01*
X386065476Y-10597619D01*
X386003571Y-10721428D01*
X385941666Y-10783333D01*
X385817857Y-10845238D01*
X385570238Y-10845238D01*
X385446428Y-10907142D01*
X385384523Y-10969047D01*
X385322619Y-11092857D01*
X385322619Y-11340476D01*
X385384523Y-11464285D01*
X385446428Y-11526190D01*
X385570238Y-11588095D01*
X385817857Y-11588095D01*
X385941666Y-11526190D01*
X386003571Y-11464285D01*
X386065476Y-11340476D01*
X386065476Y-11092857D01*
X386003571Y-10969047D01*
X385941666Y-10907142D01*
X385817857Y-10845238D01*
D10*
D11*
X60000000Y-285002200D02*
X60000000Y-287002200D01*
D10*
D11*
X110000000Y-285002200D02*
X110000000Y-287002200D01*
D10*
D11*
X160000000Y-285002200D02*
X160000000Y-287002200D01*
D10*
D11*
X210000000Y-285002200D02*
X210000000Y-287002200D01*
D10*
D11*
X260000000Y-285002200D02*
X260000000Y-287002200D01*
D10*
D11*
X310000000Y-285002200D02*
X310000000Y-287002200D01*
D10*
D11*
X360000000Y-285002200D02*
X360000000Y-287002200D01*
D10*
D11*
X36065476Y-286590295D02*
X35322619Y-286590295D01*
X35694047Y-286590295D02*
X35694047Y-285290295D01*
X35570238Y-285476009D01*
X35446428Y-285599819D01*
X35322619Y-285661723D01*
D10*
D11*
X85322619Y-285414104D02*
X85384523Y-285352200D01*
X85508333Y-285290295D01*
X85817857Y-285290295D01*
X85941666Y-285352200D01*
X86003571Y-285414104D01*
X86065476Y-285537914D01*
X86065476Y-285661723D01*
X86003571Y-285847438D01*
X85260714Y-286590295D01*
X86065476Y-286590295D01*
D10*
D11*
X135260714Y-285290295D02*
X136065476Y-285290295D01*
X135632142Y-285785533D01*
X135817857Y-285785533D01*
X135941666Y-285847438D01*
X136003571Y-285909342D01*
X136065476Y-286033152D01*
X136065476Y-286342676D01*
X136003571Y-286466485D01*
X135941666Y-286528390D01*
X135817857Y-286590295D01*
X135446428Y-286590295D01*
X135322619Y-286528390D01*
X135260714Y-286466485D01*
D10*
D11*
X185941666Y-285723628D02*
X185941666Y-286590295D01*
X185632142Y-285228390D02*
X185322619Y-286156961D01*
X186127380Y-286156961D01*
D10*
D11*
X236003571Y-285290295D02*
X235384523Y-285290295D01*
X235322619Y-285909342D01*
X235384523Y-285847438D01*
X235508333Y-285785533D01*
X235817857Y-285785533D01*
X235941666Y-285847438D01*
X236003571Y-285909342D01*
X236065476Y-286033152D01*
X236065476Y-286342676D01*
X236003571Y-286466485D01*
X235941666Y-286528390D01*
X235817857Y-286590295D01*
X235508333Y-286590295D01*
X235384523Y-286528390D01*
X235322619Y-286466485D01*
D10*
D11*
X285941666Y-285290295D02*
X285694047Y-285290295D01*
X285570238Y-285352200D01*
X285508333Y-285414104D01*
X285384523Y-285599819D01*
X285322619Y-285847438D01*
X285322619Y-286342676D01*
X285384523Y-286466485D01*
X285446428Y-286528390D01*
X285570238Y-286590295D01*
X285817857Y-286590295D01*
X285941666Y-286528390D01*
X286003571Y-286466485D01*
X286065476Y-286342676D01*
X286065476Y-286033152D01*
X286003571Y-285909342D01*
X285941666Y-285847438D01*
X285817857Y-285785533D01*
X285570238Y-285785533D01*
X285446428Y-285847438D01*
X285384523Y-285909342D01*
X285322619Y-286033152D01*
D10*
D11*
X335260714Y-285290295D02*
X336127380Y-285290295D01*
X335570238Y-286590295D01*
D10*
D11*
X385570238Y-285847438D02*
X385446428Y-285785533D01*
X385384523Y-285723628D01*
X385322619Y-285599819D01*
X385322619Y-285537914D01*
X385384523Y-285414104D01*
X385446428Y-285352200D01*
X385570238Y-285290295D01*
X385817857Y-285290295D01*
X385941666Y-285352200D01*
X386003571Y-285414104D01*
X386065476Y-285537914D01*
X386065476Y-285599819D01*
X386003571Y-285723628D01*
X385941666Y-285785533D01*
X385817857Y-285847438D01*
X385570238Y-285847438D01*
X385446428Y-285909342D01*
X385384523Y-285971247D01*
X385322619Y-286095057D01*
X385322619Y-286342676D01*
X385384523Y-286466485D01*
X385446428Y-286528390D01*
X385570238Y-286590295D01*
X385817857Y-286590295D01*
X385941666Y-286528390D01*
X386003571Y-286466485D01*
X386065476Y-286342676D01*
X386065476Y-286095057D01*
X386003571Y-285971247D01*
X385941666Y-285909342D01*
X385817857Y-285847438D01*
D10*
D11*
X10000000Y-60000000D02*
X12000000Y-60000000D01*
D10*
D11*
X10000000Y-110000000D02*
X12000000Y-110000000D01*
D10*
D11*
X10000000Y-160000000D02*
X12000000Y-160000000D01*
D10*
D11*
X10000000Y-210000000D02*
X12000000Y-210000000D01*
D10*
D11*
X10000000Y-260000000D02*
X12000000Y-260000000D01*
D10*
D11*
X10690476Y-35216666D02*
X11309523Y-35216666D01*
X10566666Y-35588095D02*
X11000000Y-34288095D01*
X11433333Y-35588095D01*
D10*
D11*
X11092857Y-84907142D02*
X11278571Y-84969047D01*
X11340476Y-85030952D01*
X11402380Y-85154761D01*
X11402380Y-85340476D01*
X11340476Y-85464285D01*
X11278571Y-85526190D01*
X11154761Y-85588095D01*
X10659523Y-85588095D01*
X10659523Y-84288095D01*
X11092857Y-84288095D01*
X11216666Y-84350000D01*
X11278571Y-84411904D01*
X11340476Y-84535714D01*
X11340476Y-84659523D01*
X11278571Y-84783333D01*
X11216666Y-84845238D01*
X11092857Y-84907142D01*
X10659523Y-84907142D01*
D10*
D11*
X11402380Y-135464285D02*
X11340476Y-135526190D01*
X11154761Y-135588095D01*
X11030952Y-135588095D01*
X10845238Y-135526190D01*
X10721428Y-135402380D01*
X10659523Y-135278571D01*
X10597619Y-135030952D01*
X10597619Y-134845238D01*
X10659523Y-134597619D01*
X10721428Y-134473809D01*
X10845238Y-134350000D01*
X11030952Y-134288095D01*
X11154761Y-134288095D01*
X11340476Y-134350000D01*
X11402380Y-134411904D01*
D10*
D11*
X10659523Y-185588095D02*
X10659523Y-184288095D01*
X10969047Y-184288095D01*
X11154761Y-184350000D01*
X11278571Y-184473809D01*
X11340476Y-184597619D01*
X11402380Y-184845238D01*
X11402380Y-185030952D01*
X11340476Y-185278571D01*
X11278571Y-185402380D01*
X11154761Y-185526190D01*
X10969047Y-185588095D01*
X10659523Y-185588095D01*
D10*
D11*
X10721428Y-234907142D02*
X11154761Y-234907142D01*
X11340476Y-235588095D02*
X10721428Y-235588095D01*
X10721428Y-234288095D01*
X11340476Y-234288095D01*
D10*
D11*
X11185714Y-284907142D02*
X10752380Y-284907142D01*
X10752380Y-285588095D02*
X10752380Y-284288095D01*
X11371428Y-284288095D01*
D10*
D11*
X409989000Y-60000000D02*
X407989000Y-60000000D01*
D10*
D11*
X409989000Y-110000000D02*
X407989000Y-110000000D01*
D10*
D11*
X409989000Y-160000000D02*
X407989000Y-160000000D01*
D10*
D11*
X409989000Y-210000000D02*
X407989000Y-210000000D01*
D10*
D11*
X409989000Y-260000000D02*
X407989000Y-260000000D01*
D10*
D11*
X408679476Y-35216666D02*
X409298523Y-35216666D01*
X408555666Y-35588095D02*
X408989000Y-34288095D01*
X409422333Y-35588095D01*
D10*
D11*
X409081857Y-84907142D02*
X409267571Y-84969047D01*
X409329476Y-85030952D01*
X409391380Y-85154761D01*
X409391380Y-85340476D01*
X409329476Y-85464285D01*
X409267571Y-85526190D01*
X409143761Y-85588095D01*
X408648523Y-85588095D01*
X408648523Y-84288095D01*
X409081857Y-84288095D01*
X409205666Y-84350000D01*
X409267571Y-84411904D01*
X409329476Y-84535714D01*
X409329476Y-84659523D01*
X409267571Y-84783333D01*
X409205666Y-84845238D01*
X409081857Y-84907142D01*
X408648523Y-84907142D01*
D10*
D11*
X409391380Y-135464285D02*
X409329476Y-135526190D01*
X409143761Y-135588095D01*
X409019952Y-135588095D01*
X408834238Y-135526190D01*
X408710428Y-135402380D01*
X408648523Y-135278571D01*
X408586619Y-135030952D01*
X408586619Y-134845238D01*
X408648523Y-134597619D01*
X408710428Y-134473809D01*
X408834238Y-134350000D01*
X409019952Y-134288095D01*
X409143761Y-134288095D01*
X409329476Y-134350000D01*
X409391380Y-134411904D01*
D10*
D11*
X408648523Y-185588095D02*
X408648523Y-184288095D01*
X408958047Y-184288095D01*
X409143761Y-184350000D01*
X409267571Y-184473809D01*
X409329476Y-184597619D01*
X409391380Y-184845238D01*
X409391380Y-185030952D01*
X409329476Y-185278571D01*
X409267571Y-185402380D01*
X409143761Y-185526190D01*
X408958047Y-185588095D01*
X408648523Y-185588095D01*
D10*
D11*
X408710428Y-234907142D02*
X409143761Y-234907142D01*
X409329476Y-235588095D02*
X408710428Y-235588095D01*
X408710428Y-234288095D01*
X409329476Y-234288095D01*
D10*
D11*
X409174714Y-284907142D02*
X408741380Y-284907142D01*
X408741380Y-285588095D02*
X408741380Y-284288095D01*
X409360428Y-284288095D01*
D10*
D11*
X323421142Y-280780771D02*
X323421142Y-279280771D01*
X323778285Y-279280771D01*
X323992571Y-279352200D01*
X324135428Y-279495057D01*
X324206857Y-279637914D01*
X324278285Y-279923628D01*
X324278285Y-280137914D01*
X324206857Y-280423628D01*
X324135428Y-280566485D01*
X323992571Y-280709342D01*
X323778285Y-280780771D01*
X323421142Y-280780771D01*
X325564000Y-280780771D02*
X325564000Y-279995057D01*
X325492571Y-279852200D01*
X325349714Y-279780771D01*
X325064000Y-279780771D01*
X324921142Y-279852200D01*
X325564000Y-280709342D02*
X325421142Y-280780771D01*
X325064000Y-280780771D01*
X324921142Y-280709342D01*
X324849714Y-280566485D01*
X324849714Y-280423628D01*
X324921142Y-280280771D01*
X325064000Y-280209342D01*
X325421142Y-280209342D01*
X325564000Y-280137914D01*
X326064000Y-279780771D02*
X326635428Y-279780771D01*
X326278285Y-279280771D02*
X326278285Y-280566485D01*
X326349714Y-280709342D01*
X326492571Y-280780771D01*
X326635428Y-280780771D01*
X327706857Y-280709342D02*
X327564000Y-280780771D01*
X327278285Y-280780771D01*
X327135428Y-280709342D01*
X327064000Y-280566485D01*
X327064000Y-279995057D01*
X327135428Y-279852200D01*
X327278285Y-279780771D01*
X327564000Y-279780771D01*
X327706857Y-279852200D01*
X327778285Y-279995057D01*
X327778285Y-280137914D01*
X327064000Y-280280771D01*
X328421142Y-280637914D02*
X328492571Y-280709342D01*
X328421142Y-280780771D01*
X328349714Y-280709342D01*
X328421142Y-280637914D01*
X328421142Y-280780771D01*
X328421142Y-279852200D02*
X328492571Y-279923628D01*
X328421142Y-279995057D01*
X328349714Y-279923628D01*
X328421142Y-279852200D01*
X328421142Y-279995057D01*
D10*
D11*
X299989000Y-281502200D02*
X407989000Y-281502200D01*
D10*
D11*
X301421142Y-283580771D02*
X301421142Y-282080771D01*
X302278285Y-283580771D02*
X301635428Y-282723628D01*
X302278285Y-282080771D02*
X301421142Y-282937914D01*
X302921142Y-283580771D02*
X302921142Y-282580771D01*
X302921142Y-282080771D02*
X302849714Y-282152200D01*
X302921142Y-282223628D01*
X302992571Y-282152200D01*
X302921142Y-282080771D01*
X302921142Y-282223628D01*
X304492571Y-283437914D02*
X304421142Y-283509342D01*
X304206857Y-283580771D01*
X304064000Y-283580771D01*
X303849714Y-283509342D01*
X303706857Y-283366485D01*
X303635428Y-283223628D01*
X303564000Y-282937914D01*
X303564000Y-282723628D01*
X303635428Y-282437914D01*
X303706857Y-282295057D01*
X303849714Y-282152200D01*
X304064000Y-282080771D01*
X304206857Y-282080771D01*
X304421142Y-282152200D01*
X304492571Y-282223628D01*
X305778285Y-283580771D02*
X305778285Y-282795057D01*
X305706857Y-282652200D01*
X305564000Y-282580771D01*
X305278285Y-282580771D01*
X305135428Y-282652200D01*
X305778285Y-283509342D02*
X305635428Y-283580771D01*
X305278285Y-283580771D01*
X305135428Y-283509342D01*
X305064000Y-283366485D01*
X305064000Y-283223628D01*
X305135428Y-283080771D01*
X305278285Y-283009342D01*
X305635428Y-283009342D01*
X305778285Y-282937914D01*
X307135428Y-283580771D02*
X307135428Y-282080771D01*
X307135428Y-283509342D02*
X306992571Y-283580771D01*
X306706857Y-283580771D01*
X306564000Y-283509342D01*
X306492571Y-283437914D01*
X306421142Y-283295057D01*
X306421142Y-282866485D01*
X306492571Y-282723628D01*
X306564000Y-282652200D01*
X306706857Y-282580771D01*
X306992571Y-282580771D01*
X307135428Y-282652200D01*
X308992571Y-282795057D02*
X309492571Y-282795057D01*
X309706857Y-283580771D02*
X308992571Y-283580771D01*
X308992571Y-282080771D01*
X309706857Y-282080771D01*
X310349714Y-283437914D02*
X310421142Y-283509342D01*
X310349714Y-283580771D01*
X310278285Y-283509342D01*
X310349714Y-283437914D01*
X310349714Y-283580771D01*
X311064000Y-283580771D02*
X311064000Y-282080771D01*
X311421142Y-282080771D01*
X311635428Y-282152200D01*
X311778285Y-282295057D01*
X311849714Y-282437914D01*
X311921142Y-282723628D01*
X311921142Y-282937914D01*
X311849714Y-283223628D01*
X311778285Y-283366485D01*
X311635428Y-283509342D01*
X311421142Y-283580771D01*
X311064000Y-283580771D01*
X312564000Y-283437914D02*
X312635428Y-283509342D01*
X312564000Y-283580771D01*
X312492571Y-283509342D01*
X312564000Y-283437914D01*
X312564000Y-283580771D01*
X313206857Y-283152200D02*
X313921142Y-283152200D01*
X313064000Y-283580771D02*
X313564000Y-282080771D01*
X314064000Y-283580771D01*
X314564000Y-283437914D02*
X314635428Y-283509342D01*
X314564000Y-283580771D01*
X314492571Y-283509342D01*
X314564000Y-283437914D01*
X314564000Y-283580771D01*
X317564000Y-283580771D02*
X317564000Y-282080771D01*
X317706857Y-283009342D02*
X318135428Y-283580771D01*
X318135428Y-282580771D02*
X317564000Y-283152200D01*
X318778285Y-283580771D02*
X318778285Y-282580771D01*
X318778285Y-282080771D02*
X318706857Y-282152200D01*
X318778285Y-282223628D01*
X318849714Y-282152200D01*
X318778285Y-282080771D01*
X318778285Y-282223628D01*
X320135428Y-283509342D02*
X319992571Y-283580771D01*
X319706857Y-283580771D01*
X319564000Y-283509342D01*
X319492571Y-283437914D01*
X319421142Y-283295057D01*
X319421142Y-282866485D01*
X319492571Y-282723628D01*
X319564000Y-282652200D01*
X319706857Y-282580771D01*
X319992571Y-282580771D01*
X320135428Y-282652200D01*
X321421142Y-283580771D02*
X321421142Y-282795057D01*
X321349714Y-282652200D01*
X321206857Y-282580771D01*
X320921142Y-282580771D01*
X320778285Y-282652200D01*
X321421142Y-283509342D02*
X321278285Y-283580771D01*
X320921142Y-283580771D01*
X320778285Y-283509342D01*
X320706857Y-283366485D01*
X320706857Y-283223628D01*
X320778285Y-283080771D01*
X320921142Y-283009342D01*
X321278285Y-283009342D01*
X321421142Y-282937914D01*
X322778285Y-283580771D02*
X322778285Y-282080771D01*
X322778285Y-283509342D02*
X322635428Y-283580771D01*
X322349714Y-283580771D01*
X322206857Y-283509342D01*
X322135428Y-283437914D01*
X322064000Y-283295057D01*
X322064000Y-282866485D01*
X322135428Y-282723628D01*
X322206857Y-282652200D01*
X322349714Y-282580771D01*
X322635428Y-282580771D01*
X322778285Y-282652200D01*
X325064000Y-284152200D02*
X324992571Y-284080771D01*
X324849714Y-283866485D01*
X324778285Y-283723628D01*
X324706857Y-283509342D01*
X324635428Y-283152200D01*
X324635428Y-282866485D01*
X324706857Y-282509342D01*
X324778285Y-282295057D01*
X324849714Y-282152200D01*
X324992571Y-281937914D01*
X325064000Y-281866485D01*
X326278285Y-282080771D02*
X325992571Y-282080771D01*
X325849714Y-282152200D01*
X325778285Y-282223628D01*
X325635428Y-282437914D01*
X325564000Y-282723628D01*
X325564000Y-283295057D01*
X325635428Y-283437914D01*
X325706857Y-283509342D01*
X325849714Y-283580771D01*
X326135428Y-283580771D01*
X326278285Y-283509342D01*
X326349714Y-283437914D01*
X326421142Y-283295057D01*
X326421142Y-282937914D01*
X326349714Y-282795057D01*
X326278285Y-282723628D01*
X326135428Y-282652200D01*
X325849714Y-282652200D01*
X325706857Y-282723628D01*
X325635428Y-282795057D01*
X325564000Y-282937914D01*
X327064000Y-283437914D02*
X327135428Y-283509342D01*
X327064000Y-283580771D01*
X326992571Y-283509342D01*
X327064000Y-283437914D01*
X327064000Y-283580771D01*
X328064000Y-282080771D02*
X328206857Y-282080771D01*
X328349714Y-282152200D01*
X328421142Y-282223628D01*
X328492571Y-282366485D01*
X328564000Y-282652200D01*
X328564000Y-283009342D01*
X328492571Y-283295057D01*
X328421142Y-283437914D01*
X328349714Y-283509342D01*
X328206857Y-283580771D01*
X328064000Y-283580771D01*
X327921142Y-283509342D01*
X327849714Y-283437914D01*
X327778285Y-283295057D01*
X327706857Y-283009342D01*
X327706857Y-282652200D01*
X327778285Y-282366485D01*
X327849714Y-282223628D01*
X327921142Y-282152200D01*
X328064000Y-282080771D01*
X329206857Y-283437914D02*
X329278285Y-283509342D01*
X329206857Y-283580771D01*
X329135428Y-283509342D01*
X329206857Y-283437914D01*
X329206857Y-283580771D01*
X329992571Y-283580771D02*
X330278285Y-283580771D01*
X330421142Y-283509342D01*
X330492571Y-283437914D01*
X330635428Y-283223628D01*
X330706857Y-282937914D01*
X330706857Y-282366485D01*
X330635428Y-282223628D01*
X330564000Y-282152200D01*
X330421142Y-282080771D01*
X330135428Y-282080771D01*
X329992571Y-282152200D01*
X329921142Y-282223628D01*
X329849714Y-282366485D01*
X329849714Y-282723628D01*
X329921142Y-282866485D01*
X329992571Y-282937914D01*
X330135428Y-283009342D01*
X330421142Y-283009342D01*
X330564000Y-282937914D01*
X330635428Y-282866485D01*
X330706857Y-282723628D01*
X331206857Y-284152200D02*
X331278285Y-284080771D01*
X331421142Y-283866485D01*
X331492571Y-283723628D01*
X331564000Y-283509342D01*
X331635428Y-283152200D01*
X331635428Y-282866485D01*
X331564000Y-282509342D01*
X331492571Y-282295057D01*
X331421142Y-282152200D01*
X331278285Y-281937914D01*
X331206857Y-281866485D01*
D10*
D11*
X299989000Y-278502200D02*
X407989000Y-278502200D01*
D10*
D12*
X387398285Y-280780771D02*
X386898285Y-280066485D01*
X386541142Y-280780771D02*
X386541142Y-279280771D01*
X387112571Y-279280771D01*
X387255428Y-279352200D01*
X387326857Y-279423628D01*
X387398285Y-279566485D01*
X387398285Y-279780771D01*
X387326857Y-279923628D01*
X387255428Y-279995057D01*
X387112571Y-280066485D01*
X386541142Y-280066485D01*
X388612571Y-280709342D02*
X388469714Y-280780771D01*
X388184000Y-280780771D01*
X388041142Y-280709342D01*
X387969714Y-280566485D01*
X387969714Y-279995057D01*
X388041142Y-279852200D01*
X388184000Y-279780771D01*
X388469714Y-279780771D01*
X388612571Y-279852200D01*
X388684000Y-279995057D01*
X388684000Y-280137914D01*
X387969714Y-280280771D01*
X389184000Y-279780771D02*
X389541142Y-280780771D01*
X389898285Y-279780771D01*
X390469714Y-280637914D02*
X390541142Y-280709342D01*
X390469714Y-280780771D01*
X390398285Y-280709342D01*
X390469714Y-280637914D01*
X390469714Y-280780771D01*
X390469714Y-279852200D02*
X390541142Y-279923628D01*
X390469714Y-279995057D01*
X390398285Y-279923628D01*
X390469714Y-279852200D01*
X390469714Y-279995057D01*
D10*
D11*
X301349714Y-280709342D02*
X301564000Y-280780771D01*
X301921142Y-280780771D01*
X302064000Y-280709342D01*
X302135428Y-280637914D01*
X302206857Y-280495057D01*
X302206857Y-280352200D01*
X302135428Y-280209342D01*
X302064000Y-280137914D01*
X301921142Y-280066485D01*
X301635428Y-279995057D01*
X301492571Y-279923628D01*
X301421142Y-279852200D01*
X301349714Y-279709342D01*
X301349714Y-279566485D01*
X301421142Y-279423628D01*
X301492571Y-279352200D01*
X301635428Y-279280771D01*
X301992571Y-279280771D01*
X302206857Y-279352200D01*
X302849714Y-280780771D02*
X302849714Y-279780771D01*
X302849714Y-279280771D02*
X302778285Y-279352200D01*
X302849714Y-279423628D01*
X302921142Y-279352200D01*
X302849714Y-279280771D01*
X302849714Y-279423628D01*
X303421142Y-279780771D02*
X304206857Y-279780771D01*
X303421142Y-280780771D01*
X304206857Y-280780771D01*
X305349714Y-280709342D02*
X305206857Y-280780771D01*
X304921142Y-280780771D01*
X304778285Y-280709342D01*
X304706857Y-280566485D01*
X304706857Y-279995057D01*
X304778285Y-279852200D01*
X304921142Y-279780771D01*
X305206857Y-279780771D01*
X305349714Y-279852200D01*
X305421142Y-279995057D01*
X305421142Y-280137914D01*
X304706857Y-280280771D01*
X306064000Y-280637914D02*
X306135428Y-280709342D01*
X306064000Y-280780771D01*
X305992571Y-280709342D01*
X306064000Y-280637914D01*
X306064000Y-280780771D01*
X306064000Y-279852200D02*
X306135428Y-279923628D01*
X306064000Y-279995057D01*
X305992571Y-279923628D01*
X306064000Y-279852200D01*
X306064000Y-279995057D01*
X307849714Y-280352200D02*
X308564000Y-280352200D01*
X307706857Y-280780771D02*
X308206857Y-279280771D01*
X308706857Y-280780771D01*
X309064000Y-279280771D02*
X309992571Y-279280771D01*
X309492571Y-279852200D01*
X309706857Y-279852200D01*
X309849714Y-279923628D01*
X309921142Y-279995057D01*
X309992571Y-280137914D01*
X309992571Y-280495057D01*
X309921142Y-280637914D01*
X309849714Y-280709342D01*
X309706857Y-280780771D01*
X309278285Y-280780771D01*
X309135428Y-280709342D01*
X309064000Y-280637914D01*
D10*
D11*
X386421142Y-283580771D02*
X386421142Y-282080771D01*
X387778285Y-283580771D02*
X387778285Y-282080771D01*
X387778285Y-283509342D02*
X387635428Y-283580771D01*
X387349714Y-283580771D01*
X387206857Y-283509342D01*
X387135428Y-283437914D01*
X387064000Y-283295057D01*
X387064000Y-282866485D01*
X387135428Y-282723628D01*
X387206857Y-282652200D01*
X387349714Y-282580771D01*
X387635428Y-282580771D01*
X387778285Y-282652200D01*
X388492571Y-283437914D02*
X388564000Y-283509342D01*
X388492571Y-283580771D01*
X388421142Y-283509342D01*
X388492571Y-283437914D01*
X388492571Y-283580771D01*
X388492571Y-282652200D02*
X388564000Y-282723628D01*
X388492571Y-282795057D01*
X388421142Y-282723628D01*
X388492571Y-282652200D01*
X388492571Y-282795057D01*
X391135428Y-283580771D02*
X390278285Y-283580771D01*
X390706857Y-283580771D02*
X390706857Y-282080771D01*
X390564000Y-282295057D01*
X390421142Y-282437914D01*
X390278285Y-282509342D01*
X392849714Y-282009342D02*
X391564000Y-283937914D01*
X394135428Y-283580771D02*
X393278285Y-283580771D01*
X393706857Y-283580771D02*
X393706857Y-282080771D01*
X393564000Y-282295057D01*
X393421142Y-282437914D01*
X393278285Y-282509342D01*
D10*
D11*
X299989000Y-274502200D02*
X407989000Y-274502200D01*
D10*
D13*
X301701380Y-275206961D02*
X302844238Y-275206961D01*
X302022809Y-277206961D02*
X302272809Y-275206961D01*
X303260904Y-277206961D02*
X303427571Y-275873628D01*
X303510904Y-275206961D02*
X303403761Y-275302200D01*
X303487095Y-275397438D01*
X303594238Y-275302200D01*
X303510904Y-275206961D01*
X303487095Y-275397438D01*
X304094238Y-275873628D02*
X304856142Y-275873628D01*
X304463285Y-275206961D02*
X304249000Y-276921247D01*
X304320428Y-277111723D01*
X304499000Y-277206961D01*
X304689476Y-277206961D01*
X305641857Y-277206961D02*
X305463285Y-277111723D01*
X305391857Y-276921247D01*
X305606142Y-275206961D01*
X307177571Y-277111723D02*
X306975190Y-277206961D01*
X306594238Y-277206961D01*
X306415666Y-277111723D01*
X306344238Y-276921247D01*
X306439476Y-276159342D01*
X306558523Y-275968866D01*
X306760904Y-275873628D01*
X307141857Y-275873628D01*
X307320428Y-275968866D01*
X307391857Y-276159342D01*
X307368047Y-276349819D01*
X306391857Y-276540295D01*
X308141857Y-277016485D02*
X308225190Y-277111723D01*
X308118047Y-277206961D01*
X308034714Y-277111723D01*
X308141857Y-277016485D01*
X308118047Y-277206961D01*
X308272809Y-275968866D02*
X308356142Y-276064104D01*
X308249000Y-276159342D01*
X308165666Y-276064104D01*
X308272809Y-275968866D01*
X308249000Y-276159342D01*
D10*
D11*
X301921142Y-272595057D02*
X301421142Y-272595057D01*
X301421142Y-273380771D02*
X301421142Y-271880771D01*
X302135428Y-271880771D01*
X302706857Y-273380771D02*
X302706857Y-272380771D01*
X302706857Y-271880771D02*
X302635428Y-271952200D01*
X302706857Y-272023628D01*
X302778285Y-271952200D01*
X302706857Y-271880771D01*
X302706857Y-272023628D01*
X303635428Y-273380771D02*
X303492571Y-273309342D01*
X303421142Y-273166485D01*
X303421142Y-271880771D01*
X304778285Y-273309342D02*
X304635428Y-273380771D01*
X304349714Y-273380771D01*
X304206857Y-273309342D01*
X304135428Y-273166485D01*
X304135428Y-272595057D01*
X304206857Y-272452200D01*
X304349714Y-272380771D01*
X304635428Y-272380771D01*
X304778285Y-272452200D01*
X304849714Y-272595057D01*
X304849714Y-272737914D01*
X304135428Y-272880771D01*
X305492571Y-273237914D02*
X305564000Y-273309342D01*
X305492571Y-273380771D01*
X305421142Y-273309342D01*
X305492571Y-273237914D01*
X305492571Y-273380771D01*
X305492571Y-272452200D02*
X305564000Y-272523628D01*
X305492571Y-272595057D01*
X305421142Y-272523628D01*
X305492571Y-272452200D01*
X305492571Y-272595057D01*
X307206857Y-271880771D02*
X307564000Y-273380771D01*
X307849714Y-272309342D01*
X308135428Y-273380771D01*
X308492571Y-271880771D01*
X309635428Y-273309342D02*
X309492571Y-273380771D01*
X309206857Y-273380771D01*
X309064000Y-273309342D01*
X308992571Y-273166485D01*
X308992571Y-272595057D01*
X309064000Y-272452200D01*
X309206857Y-272380771D01*
X309492571Y-272380771D01*
X309635428Y-272452200D01*
X309706857Y-272595057D01*
X309706857Y-272737914D01*
X308992571Y-272880771D01*
X310992571Y-273380771D02*
X310992571Y-272595057D01*
X310921142Y-272452200D01*
X310778285Y-272380771D01*
X310492571Y-272380771D01*
X310349714Y-272452200D01*
X310992571Y-273309342D02*
X310849714Y-273380771D01*
X310492571Y-273380771D01*
X310349714Y-273309342D01*
X310278285Y-273166485D01*
X310278285Y-273023628D01*
X310349714Y-272880771D01*
X310492571Y-272809342D01*
X310849714Y-272809342D01*
X310992571Y-272737914D01*
X311492571Y-272380771D02*
X312064000Y-272380771D01*
X311706857Y-271880771D02*
X311706857Y-273166485D01*
X311778285Y-273309342D01*
X311921142Y-273380771D01*
X312064000Y-273380771D01*
X312564000Y-273380771D02*
X312564000Y-271880771D01*
X313206857Y-273380771D02*
X313206857Y-272595057D01*
X313135428Y-272452200D01*
X312992571Y-272380771D01*
X312778285Y-272380771D01*
X312635428Y-272452200D01*
X312564000Y-272523628D01*
X314492571Y-273309342D02*
X314349714Y-273380771D01*
X314064000Y-273380771D01*
X313921142Y-273309342D01*
X313849714Y-273166485D01*
X313849714Y-272595057D01*
X313921142Y-272452200D01*
X314064000Y-272380771D01*
X314349714Y-272380771D01*
X314492571Y-272452200D01*
X314564000Y-272595057D01*
X314564000Y-272737914D01*
X313849714Y-272880771D01*
X315206857Y-273380771D02*
X315206857Y-272380771D01*
X315206857Y-272666485D02*
X315278285Y-272523628D01*
X315349714Y-272452200D01*
X315492571Y-272380771D01*
X315635428Y-272380771D01*
X316135428Y-273380771D02*
X316135428Y-271880771D01*
X316992571Y-273380771D02*
X316349714Y-272523628D01*
X316992571Y-271880771D02*
X316135428Y-272737914D01*
X317635428Y-273380771D02*
X317635428Y-272380771D01*
X317635428Y-271880771D02*
X317564000Y-271952200D01*
X317635428Y-272023628D01*
X317706857Y-271952200D01*
X317635428Y-271880771D01*
X317635428Y-272023628D01*
X318992571Y-273380771D02*
X318992571Y-271880771D01*
X318992571Y-273309342D02*
X318849714Y-273380771D01*
X318564000Y-273380771D01*
X318421142Y-273309342D01*
X318349714Y-273237914D01*
X318278285Y-273095057D01*
X318278285Y-272666485D01*
X318349714Y-272523628D01*
X318421142Y-272452200D01*
X318564000Y-272380771D01*
X318849714Y-272380771D01*
X318992571Y-272452200D01*
X319635428Y-273309342D02*
X319778285Y-273380771D01*
X320064000Y-273380771D01*
X320206857Y-273309342D01*
X320278285Y-273166485D01*
X320278285Y-273095057D01*
X320206857Y-272952200D01*
X320064000Y-272880771D01*
X319849714Y-272880771D01*
X319706857Y-272809342D01*
X319635428Y-272666485D01*
X319635428Y-272595057D01*
X319706857Y-272452200D01*
X319849714Y-272380771D01*
X320064000Y-272380771D01*
X320206857Y-272452200D01*
X320564000Y-273523628D02*
X321706857Y-273523628D01*
X322921142Y-273237914D02*
X322849714Y-273309342D01*
X322635428Y-273380771D01*
X322492571Y-273380771D01*
X322278285Y-273309342D01*
X322135428Y-273166485D01*
X322064000Y-273023628D01*
X321992571Y-272737914D01*
X321992571Y-272523628D01*
X322064000Y-272237914D01*
X322135428Y-272095057D01*
X322278285Y-271952200D01*
X322492571Y-271880771D01*
X322635428Y-271880771D01*
X322849714Y-271952200D01*
X322921142Y-272023628D01*
X323778285Y-273380771D02*
X323635428Y-273309342D01*
X323564000Y-273237914D01*
X323492571Y-273095057D01*
X323492571Y-272666485D01*
X323564000Y-272523628D01*
X323635428Y-272452200D01*
X323778285Y-272380771D01*
X323992571Y-272380771D01*
X324135428Y-272452200D01*
X324206857Y-272523628D01*
X324278285Y-272666485D01*
X324278285Y-273095057D01*
X324206857Y-273237914D01*
X324135428Y-273309342D01*
X323992571Y-273380771D01*
X323778285Y-273380771D01*
X324921142Y-273380771D02*
X324921142Y-272380771D01*
X324921142Y-272523628D02*
X324992571Y-272452200D01*
X325135428Y-272380771D01*
X325349714Y-272380771D01*
X325492571Y-272452200D01*
X325564000Y-272595057D01*
X325564000Y-273380771D01*
X325564000Y-272595057D02*
X325635428Y-272452200D01*
X325778285Y-272380771D01*
X325992571Y-272380771D01*
X326135428Y-272452200D01*
X326206857Y-272595057D01*
X326206857Y-273380771D01*
X326921142Y-272380771D02*
X326921142Y-273880771D01*
X326921142Y-272452200D02*
X327064000Y-272380771D01*
X327349714Y-272380771D01*
X327492571Y-272452200D01*
X327564000Y-272523628D01*
X327635428Y-272666485D01*
X327635428Y-273095057D01*
X327564000Y-273237914D01*
X327492571Y-273309342D01*
X327349714Y-273380771D01*
X327064000Y-273380771D01*
X326921142Y-273309342D01*
X328921142Y-273380771D02*
X328921142Y-272595057D01*
X328849714Y-272452200D01*
X328706857Y-272380771D01*
X328421142Y-272380771D01*
X328278285Y-272452200D01*
X328921142Y-273309342D02*
X328778285Y-273380771D01*
X328421142Y-273380771D01*
X328278285Y-273309342D01*
X328206857Y-273166485D01*
X328206857Y-273023628D01*
X328278285Y-272880771D01*
X328421142Y-272809342D01*
X328778285Y-272809342D01*
X328921142Y-272737914D01*
X330278285Y-273309342D02*
X330135428Y-273380771D01*
X329849714Y-273380771D01*
X329706857Y-273309342D01*
X329635428Y-273237914D01*
X329564000Y-273095057D01*
X329564000Y-272666485D01*
X329635428Y-272523628D01*
X329706857Y-272452200D01*
X329849714Y-272380771D01*
X330135428Y-272380771D01*
X330278285Y-272452200D01*
X330706857Y-272380771D02*
X331278285Y-272380771D01*
X330921142Y-271880771D02*
X330921142Y-273166485D01*
X330992571Y-273309342D01*
X331135428Y-273380771D01*
X331278285Y-273380771D01*
X332206857Y-273952200D02*
X332135428Y-273880771D01*
X331992571Y-273666485D01*
X331921142Y-273523628D01*
X331849714Y-273309342D01*
X331778285Y-272952200D01*
X331778285Y-272666485D01*
X331849714Y-272309342D01*
X331921142Y-272095057D01*
X331992571Y-271952200D01*
X332135428Y-271737914D01*
X332206857Y-271666485D01*
X332564000Y-271880771D02*
X333064000Y-273380771D01*
X333564000Y-271880771D01*
X333992571Y-272023628D02*
X334064000Y-271952200D01*
X334206857Y-271880771D01*
X334564000Y-271880771D01*
X334706857Y-271952200D01*
X334778285Y-272023628D01*
X334849714Y-272166485D01*
X334849714Y-272309342D01*
X334778285Y-272523628D01*
X333921142Y-273380771D01*
X334849714Y-273380771D01*
X335492571Y-273237914D02*
X335564000Y-273309342D01*
X335492571Y-273380771D01*
X335421142Y-273309342D01*
X335492571Y-273237914D01*
X335492571Y-273380771D01*
X336992571Y-273380771D02*
X336135428Y-273380771D01*
X336564000Y-273380771D02*
X336564000Y-271880771D01*
X336421142Y-272095057D01*
X336278285Y-272237914D01*
X336135428Y-272309342D01*
X337492571Y-273952200D02*
X337564000Y-273880771D01*
X337706857Y-273666485D01*
X337778285Y-273523628D01*
X337849714Y-273309342D01*
X337921142Y-272952200D01*
X337921142Y-272666485D01*
X337849714Y-272309342D01*
X337778285Y-272095057D01*
X337706857Y-271952200D01*
X337564000Y-271737914D01*
X337492571Y-271666485D01*
X338635428Y-273237914D02*
X338706857Y-273309342D01*
X338635428Y-273380771D01*
X338564000Y-273309342D01*
X338635428Y-273237914D01*
X338635428Y-273380771D01*
X339349714Y-273380771D02*
X339349714Y-271880771D01*
X339492571Y-272809342D02*
X339921142Y-273380771D01*
X339921142Y-272380771D02*
X339349714Y-272952200D01*
X340564000Y-273380771D02*
X340564000Y-272380771D01*
X340564000Y-271880771D02*
X340492571Y-271952200D01*
X340564000Y-272023628D01*
X340635428Y-271952200D01*
X340564000Y-271880771D01*
X340564000Y-272023628D01*
X341921142Y-273309342D02*
X341778285Y-273380771D01*
X341492571Y-273380771D01*
X341349714Y-273309342D01*
X341278285Y-273237914D01*
X341206857Y-273095057D01*
X341206857Y-272666485D01*
X341278285Y-272523628D01*
X341349714Y-272452200D01*
X341492571Y-272380771D01*
X341778285Y-272380771D01*
X341921142Y-272452200D01*
X343206857Y-273380771D02*
X343206857Y-272595057D01*
X343135428Y-272452200D01*
X342992571Y-272380771D01*
X342706857Y-272380771D01*
X342564000Y-272452200D01*
X343206857Y-273309342D02*
X343064000Y-273380771D01*
X342706857Y-273380771D01*
X342564000Y-273309342D01*
X342492571Y-273166485D01*
X342492571Y-273023628D01*
X342564000Y-272880771D01*
X342706857Y-272809342D01*
X343064000Y-272809342D01*
X343206857Y-272737914D01*
X344564000Y-273380771D02*
X344564000Y-271880771D01*
X344564000Y-273309342D02*
X344421142Y-273380771D01*
X344135428Y-273380771D01*
X343992571Y-273309342D01*
X343921142Y-273237914D01*
X343849714Y-273095057D01*
X343849714Y-272666485D01*
X343921142Y-272523628D01*
X343992571Y-272452200D01*
X344135428Y-272380771D01*
X344421142Y-272380771D01*
X344564000Y-272452200D01*
X344921142Y-273523628D02*
X346064000Y-273523628D01*
X346421142Y-272380771D02*
X346421142Y-273880771D01*
X346421142Y-272452200D02*
X346564000Y-272380771D01*
X346849714Y-272380771D01*
X346992571Y-272452200D01*
X347064000Y-272523628D01*
X347135428Y-272666485D01*
X347135428Y-273095057D01*
X347064000Y-273237914D01*
X346992571Y-273309342D01*
X346849714Y-273380771D01*
X346564000Y-273380771D01*
X346421142Y-273309342D01*
X348421142Y-273309342D02*
X348278285Y-273380771D01*
X347992571Y-273380771D01*
X347849714Y-273309342D01*
X347778285Y-273237914D01*
X347706857Y-273095057D01*
X347706857Y-272666485D01*
X347778285Y-272523628D01*
X347849714Y-272452200D01*
X347992571Y-272380771D01*
X348278285Y-272380771D01*
X348421142Y-272452200D01*
X349064000Y-273380771D02*
X349064000Y-271880771D01*
X349064000Y-272452200D02*
X349206857Y-272380771D01*
X349492571Y-272380771D01*
X349635428Y-272452200D01*
X349706857Y-272523628D01*
X349778285Y-272666485D01*
X349778285Y-273095057D01*
X349706857Y-273237914D01*
X349635428Y-273309342D01*
X349492571Y-273380771D01*
X349206857Y-273380771D01*
X349064000Y-273309342D01*
D10*
D11*
X299989000Y-268502200D02*
X407989000Y-268502200D01*
D10*
D11*
X301349714Y-270609342D02*
X301564000Y-270680771D01*
X301921142Y-270680771D01*
X302064000Y-270609342D01*
X302135428Y-270537914D01*
X302206857Y-270395057D01*
X302206857Y-270252200D01*
X302135428Y-270109342D01*
X302064000Y-270037914D01*
X301921142Y-269966485D01*
X301635428Y-269895057D01*
X301492571Y-269823628D01*
X301421142Y-269752200D01*
X301349714Y-269609342D01*
X301349714Y-269466485D01*
X301421142Y-269323628D01*
X301492571Y-269252200D01*
X301635428Y-269180771D01*
X301992571Y-269180771D01*
X302206857Y-269252200D01*
X302849714Y-270680771D02*
X302849714Y-269180771D01*
X303492571Y-270680771D02*
X303492571Y-269895057D01*
X303421142Y-269752200D01*
X303278285Y-269680771D01*
X303064000Y-269680771D01*
X302921142Y-269752200D01*
X302849714Y-269823628D01*
X304778285Y-270609342D02*
X304635428Y-270680771D01*
X304349714Y-270680771D01*
X304206857Y-270609342D01*
X304135428Y-270466485D01*
X304135428Y-269895057D01*
X304206857Y-269752200D01*
X304349714Y-269680771D01*
X304635428Y-269680771D01*
X304778285Y-269752200D01*
X304849714Y-269895057D01*
X304849714Y-270037914D01*
X304135428Y-270180771D01*
X306064000Y-270609342D02*
X305921142Y-270680771D01*
X305635428Y-270680771D01*
X305492571Y-270609342D01*
X305421142Y-270466485D01*
X305421142Y-269895057D01*
X305492571Y-269752200D01*
X305635428Y-269680771D01*
X305921142Y-269680771D01*
X306064000Y-269752200D01*
X306135428Y-269895057D01*
X306135428Y-270037914D01*
X305421142Y-270180771D01*
X306564000Y-269680771D02*
X307135428Y-269680771D01*
X306778285Y-269180771D02*
X306778285Y-270466485D01*
X306849714Y-270609342D01*
X306992571Y-270680771D01*
X307135428Y-270680771D01*
X307635428Y-270537914D02*
X307706857Y-270609342D01*
X307635428Y-270680771D01*
X307564000Y-270609342D01*
X307635428Y-270537914D01*
X307635428Y-270680771D01*
X307635428Y-269752200D02*
X307706857Y-269823628D01*
X307635428Y-269895057D01*
X307564000Y-269823628D01*
X307635428Y-269752200D01*
X307635428Y-269895057D01*
D10*
D12*
D10*
D11*
D10*
D11*
D10*
D11*
D10*
D11*
D10*
D11*
X319989000Y-278502200D02*
X319989000Y-281502200D01*
D10*
D11*
X383989000Y-278502200D02*
X383989000Y-285002200D01*
D14*
X21000000Y-92000000D02*
X74000000Y-92000000D01*
X25351225Y-46600000D02*
G75*
G03*
X25351225Y-48600000I50025J-1000000D01*
G01*
X30200000Y-27451225D02*
G75*
G03*
X28200000Y-27451225I-1000000J-50025D01*
G01*
X74000000Y-92000000D02*
X74000000Y-22000000D01*
X30200000Y-27451225D02*
X30200000Y-46600000D01*
X28200000Y-45600000D02*
X28200000Y-27451225D01*
X27100000Y-46600000D02*
G75*
G03*
X28200000Y-45600000I50000J1050000D01*
G01*
X21000000Y-22000000D02*
X21000000Y-92000000D01*
X74000000Y-22000000D02*
X21000000Y-22000000D01*
X28100000Y-48600000D02*
G75*
G03*
X30200000Y-46600000I50000J2050000D01*
G01*
X25351225Y-48600000D02*
X28100000Y-48600000D01*
X25351225Y-46600000D02*
X27100000Y-46600000D01*
D15*
%TO.P,U4,1,EN*%
%TO.N,+5V*%
X56987500Y-68650000D03*
%TO.P,U4,2,GND*%
%TO.N,GND*%
X56987500Y-67700000D03*
%TO.P,U4,3,LX*%
%TO.N,Net-(L2-Pad1)*%
X56987500Y-66750000D03*
%TO.P,U4,4,VIN*%
%TO.N,+5V*%
X54712500Y-66750000D03*
%TO.P,U4,5,FB*%
%TO.N,Net-(C11-Pad2)*%
X54712500Y-68650000D03*
%TD*%
D16*
%TO.P,R7,1*%
%TO.N,+3V3*%
X57310000Y-71000000D03*
%TO.P,R7,2*%
%TO.N,Net-(C11-Pad2)*%
X56290000Y-71000000D03*
%TD*%
D17*
%TO.P,C6,1*%
%TO.N,Net-(C6-Pad1)*%
X54700000Y-52050000D03*
%TO.P,C6,2*%
%TO.N,GND*%
X54700000Y-50150000D03*
%TD*%
D15*
%TO.P,U11,1,NC*%
%TO.N,unconnected-(U11-Pad1)*%
X45937500Y-75450000D03*
%TO.P,U11,2,A*%
%TO.N,/GBUS.MOSI*%
X45937500Y-74500000D03*
%TO.P,U11,3,GND*%
%TO.N,GND*%
X45937500Y-73550000D03*
%TO.P,U11,4,Y*%
%TO.N,/Bus/GBUS_5V_MOSI*%
X43662500Y-73550000D03*
%TO.P,U11,5,VCC*%
%TO.N,+5V*%
X43662500Y-75450000D03*
%TD*%
D18*
%TO.P,R24,1*%
%TO.N,GND*%
X59480000Y-28990000D03*
%TO.P,R24,2*%
%TO.N,Net-(R24-Pad2)*%
X59480000Y-30010000D03*
%TD*%
D16*
%TO.P,R21,1*%
%TO.N,/Bus/GBUS_5V_SDA*%
X40572500Y-70040000D03*
%TO.P,R21,2*%
%TO.N,+5V*%
X39552500Y-70040000D03*
%TD*%
D19*
%TO.P,R11,1*%
%TO.N,+3V3*%
X48350000Y-49820000D03*
%TO.P,R11,2*%
%TO.N,/~{I2C_INT}*%
X48350000Y-48800000D03*
%TD*%
D20*
%TO.P,C25,1*%
%TO.N,/ESP32_IO0*%
X64670000Y-40650000D03*
%TO.P,C25,2*%
%TO.N,GND*%
X65630000Y-40650000D03*
%TD*%
D21*
%TO.P,SW3,1,1*%
%TO.N,/~{ESP23_EN}*%
X65575000Y-42800000D03*
%TO.P,SW3,2,2*%
%TO.N,GND*%
X65575000Y-48800000D03*
%TO.P,SW3,3*%
%TO.N,N/C*%
X61825000Y-42800000D03*
%TO.P,SW3,4*%
X61825000Y-48800000D03*
%TD*%
D16*
%TO.P,R2,1*%
%TO.N,Net-(D1-Pad2)*%
X44820000Y-78900000D03*
%TO.P,R2,2*%
%TO.N,VBUS*%
X43800000Y-78900000D03*
%TD*%
D17*
%TO.P,C9,1*%
%TO.N,+5V*%
X54750000Y-65100000D03*
%TO.P,C9,2*%
%TO.N,GND*%
X54750000Y-63200000D03*
%TD*%
D22*
%TO.P,R8,1*%
%TO.N,Net-(C11-Pad2)*%
X56290000Y-72050000D03*
%TO.P,R8,2*%
%TO.N,GND*%
X57310000Y-72050000D03*
%TD*%
D23*
%TO.P,D4,1,K*%
%TO.N,+5V*%
X57550000Y-56440000D03*
%TO.P,D4,2,A*%
%TO.N,Net-(C6-Pad1)*%
X57550000Y-52440000D03*
%TD*%
D24*
%TO.P,L2,1*%
%TO.N,Net-(L2-Pad1)*%
X59112500Y-66700000D03*
%TO.P,L2,2*%
%TO.N,+3V3*%
X59112500Y-68700000D03*
%TD*%
D25*
%TO.P,R1,1*%
%TO.N,Net-(R1-Pad1)*%
X65612500Y-61350000D03*
%TO.P,R1,2*%
%TO.N,GND*%
X63962500Y-61350000D03*
%TD*%
D26*
%TO.P,U15,1,~{DCD}*%
%TO.N,unconnected-(U15-Pad1)*%
X61980000Y-35300000D03*
%TO.P,U15,2,~{RI}/CLK*%
%TO.N,unconnected-(U15-Pad2)*%
X61980000Y-34800000D03*
%TO.P,U15,3,GND*%
%TO.N,GND*%
X61980000Y-34300000D03*
%TO.P,U15,4,D+*%
%TO.N,/USB SERIAL/USBD_P*%
X61980000Y-33800000D03*
%TO.P,U15,5,D-*%
%TO.N,/USB SERIAL/USBD_N*%
X61980000Y-33300000D03*
%TO.P,U15,6,VDD*%
%TO.N,Net-(C24-Pad1)*%
X61980000Y-32800000D03*
%TO.P,U15,7,VREGIN*%
%TO.N,VBUS*%
X61980000Y-32300000D03*
D27*
%TO.P,U15,8,VBUS*%
X61030000Y-31350000D03*
%TO.P,U15,9,~{RST}*%
%TO.N,Net-(R23-Pad1)*%
X60530000Y-31350000D03*
%TO.P,U15,10,NC*%
%TO.N,unconnected-(U15-Pad10)*%
X60030000Y-31350000D03*
%TO.P,U15,11,~{SUSPEND}*%
%TO.N,Net-(R24-Pad2)*%
X59530000Y-31350000D03*
%TO.P,U15,12,SUSPEND*%
%TO.N,unconnected-(U15-Pad12)*%
X59030000Y-31350000D03*
%TO.P,U15,13,CHREN*%
%TO.N,unconnected-(U15-Pad13)*%
X58530000Y-31350000D03*
%TO.P,U15,14,CHR1*%
%TO.N,unconnected-(U15-Pad14)*%
X58030000Y-31350000D03*
D26*
%TO.P,U15,15,CHR0*%
%TO.N,unconnected-(U15-Pad15)*%
X57080000Y-32300000D03*
%TO.P,U15,16,~{WAKEUP}/GPIO.3*%
%TO.N,unconnected-(U15-Pad16)*%
X57080000Y-32800000D03*
%TO.P,U15,17,RS485/GPIO.2*%
%TO.N,unconnected-(U15-Pad17)*%
X57080000Y-33300000D03*
%TO.P,U15,18,~{RXT}/GPIO.1*%
%TO.N,unconnected-(U15-Pad18)*%
X57080000Y-33800000D03*
%TO.P,U15,19,~{TXT}/GPIO.0*%
%TO.N,unconnected-(U15-Pad19)*%
X57080000Y-34300000D03*
%TO.P,U15,20,GPIO.6*%
%TO.N,unconnected-(U15-Pad20)*%
X57080000Y-34800000D03*
%TO.P,U15,21,GPIO.5*%
%TO.N,unconnected-(U15-Pad21)*%
X57080000Y-35300000D03*
D27*
%TO.P,U15,22,GPIO.4*%
%TO.N,unconnected-(U15-Pad22)*%
X58030000Y-36250000D03*
%TO.P,U15,23,~{CTS}*%
%TO.N,unconnected-(U15-Pad23)*%
X58530000Y-36250000D03*
%TO.P,U15,24,~{RTS}*%
%TO.N,/USB SERIAL/RTS*%
X59030000Y-36250000D03*
%TO.P,U15,25,RXD*%
%TO.N,/TXDO*%
X59530000Y-36250000D03*
%TO.P,U15,26,TXD*%
%TO.N,/RXDO*%
X60030000Y-36250000D03*
%TO.P,U15,27,~{DSR}*%
%TO.N,unconnected-(U15-Pad27)*%
X60530000Y-36250000D03*
%TO.P,U15,28,~{DTR}*%
%TO.N,/USB SERIAL/DTR*%
X61030000Y-36250000D03*
D28*
%TO.P,U15,29,GND*%
%TO.N,GND*%
X59530000Y-33800000D03*
%TD*%
D16*
%TO.P,R14,1*%
%TO.N,+3V3*%
X25100000Y-40700000D03*
%TO.P,R14,2*%
%TO.N,Net-(R14-Pad2)*%
X24080000Y-40700000D03*
%TD*%
D29*
%TO.P,D7,1,A*%
%TO.N,+BATT*%
X35187500Y-60000000D03*
%TO.P,D7,2,A*%
%TO.N,+3V3*%
X35187500Y-58100000D03*
%TO.P,D7,3,K*%
%TO.N,Net-(C15-Pad1)*%
X33312500Y-59050000D03*
%TD*%
D30*
%TO.P,D3,1,K*%
%TO.N,/BAT*%
X57450000Y-59940000D03*
%TO.P,D3,2,A*%
%TO.N,Net-(D3-Pad2)*%
X61450000Y-59940000D03*
%TD*%
D31*
%TO.P,C2,1*%
%TO.N,GND*%
X63512500Y-66800000D03*
%TO.P,C2,2*%
%TO.N,VBUS*%
X65412500Y-66800000D03*
%TD*%
D32*
%TO.P,D2,1,K*%
%TO.N,Net-(D2-Pad1)*%
X42462500Y-81150000D03*
%TO.P,D2,2,A*%
%TO.N,Net-(D1-Pad2)*%
X44337500Y-81150000D03*
%TD*%
D33*
%TO.P,C3,1*%
%TO.N,+3V3*%
X66862500Y-77060000D03*
%TO.P,C3,2*%
%TO.N,GND*%
X64962500Y-77060000D03*
%TD*%
D34*
%TO.P,C16,1*%
%TO.N,+3V3*%
X27300000Y-41820000D03*
%TO.P,C16,2*%
%TO.N,GND*%
X27300000Y-42780000D03*
%TD*%
D35*
%TO.P,U7,1,OSCI*%
%TO.N,Net-(U7-Pad1)*%
X38255000Y-56505000D03*
%TO.P,U7,2,OSCO*%
%TO.N,Net-(U7-Pad2)*%
X38255000Y-55235000D03*
%TO.P,U7,3,~{INT}*%
%TO.N,/~{RTC_INT}*%
X38255000Y-53965000D03*
%TO.P,U7,4,VSS*%
%TO.N,GND*%
X38255000Y-52695000D03*
%TO.P,U7,5,SDA*%
%TO.N,/I2C_SDA*%
X33305000Y-52695000D03*
%TO.P,U7,6,SCL*%
%TO.N,/I2C_SCL*%
X33305000Y-53965000D03*
%TO.P,U7,7,CLKO*%
%TO.N,unconnected-(U7-Pad7)*%
X33305000Y-55235000D03*
%TO.P,U7,8,VDD*%
%TO.N,Net-(C15-Pad1)*%
X33305000Y-56505000D03*
%TD*%
D36*
%TO.P,J2,1,Pin_1*%
%TO.N,GND*%
X72500000Y-85305000D03*
D37*
%TO.P,J2,2,Pin_2*%
X72500000Y-81495000D03*
%TD*%
D38*
%TO.P,C20,1*%
%TO.N,+5V*%
X57962500Y-76900000D03*
%TO.P,C20,2*%
%TO.N,GND*%
X61037500Y-76900000D03*
%TD*%
D39*
%TO.P,U1,1,~{CHRG}*%
%TO.N,Net-(D2-Pad1)*%
X63062500Y-62950000D03*
%TO.P,U1,2,GND*%
%TO.N,GND*%
X63062500Y-63900000D03*
%TO.P,U1,3,BAT*%
%TO.N,+BATT*%
X63062500Y-64850000D03*
%TO.P,U1,4,VCC*%
%TO.N,VBUS*%
X65337500Y-64850000D03*
%TO.P,U1,5,~{STDBY}*%
%TO.N,Net-(D1-Pad1)*%
X65337500Y-63900000D03*
%TO.P,U1,6,PROG*%
%TO.N,Net-(R1-Pad1)*%
X65337500Y-62950000D03*
%TD*%
D40*
%TO.P,SW1,1*%
%TO.N,N/C*%
X71725000Y-59550000D03*
%TO.P,SW1,2,B*%
%TO.N,Net-(D3-Pad2)*%
X69725000Y-59550000D03*
%TO.P,SW1,3*%
%TO.N,N/C*%
X71725000Y-65650000D03*
%TO.P,SW1,4,A*%
%TO.N,+BATT*%
X69725000Y-65650000D03*
%TO.P,SW1,5*%
%TO.N,N/C*%
X68725000Y-61600000D03*
%TO.P,SW1,6*%
X68725000Y-63600000D03*
%TD*%
D41*
%TO.P,C26,1*%
%TO.N,/~{ESP23_EN}*%
X59980000Y-41500000D03*
%TO.P,C26,2*%
%TO.N,GND*%
X59020000Y-41500000D03*
%TD*%
D42*
%TO.P,U9,1,GND*%
%TO.N,GND*%
X44634100Y-71990001D03*
%TO.P,U9,2,VREF1*%
%TO.N,+3V3*%
X44634100Y-71490000D03*
%TO.P,U9,3,SCL1*%
%TO.N,/GBUS.SCL*%
X44634100Y-70990000D03*
%TO.P,U9,4,SDA1*%
%TO.N,/GBUS.SDA*%
X44634100Y-70489999D03*
%TO.P,U9,5,SDA2*%
%TO.N,/Bus/GBUS_5V_SDA*%
X41890900Y-70489999D03*
%TO.P,U9,6,SCL2*%
%TO.N,/Bus/GBUS_5V_SCL*%
X41890900Y-70990000D03*
%TO.P,U9,7,VREF2*%
%TO.N,Net-(C17-Pad1)*%
X41890900Y-71490000D03*
%TO.P,U9,8,EN*%
X41890900Y-71990001D03*
%TD*%
D43*
%TO.P,J11,A1,GND*%
%TO.N,GND*%
X67785000Y-37550000D03*
%TO.P,J11,A4,VBUS*%
%TO.N,VBUS*%
X67785000Y-36750000D03*
D44*
%TO.P,J11,A5,CC1*%
%TO.N,unconnected-(J11-PadA5)*%
X67785000Y-35550000D03*
%TO.P,J11,A6,D+*%
%TO.N,/USB SERIAL/USBD_P*%
X67785000Y-34550000D03*
%TO.P,J11,A7,D-*%
%TO.N,/USB SERIAL/USBD_N*%
X67785000Y-34050000D03*
%TO.P,J11,A8,SBU1*%
%TO.N,unconnected-(J11-PadA8)*%
X67785000Y-33050000D03*
D43*
%TO.P,J11,A9,VBUS*%
%TO.N,VBUS*%
X67785000Y-31850000D03*
%TO.P,J11,A12,GND*%
%TO.N,GND*%
X67785000Y-31050000D03*
%TO.P,J11,B1,GND*%
X67785000Y-31050000D03*
%TO.P,J11,B4,VBUS*%
%TO.N,VBUS*%
X67785000Y-31850000D03*
D44*
%TO.P,J11,B5,CC2*%
%TO.N,unconnected-(J11-PadB5)*%
X67785000Y-32550000D03*
%TO.P,J11,B6,D+*%
%TO.N,/USB SERIAL/USBD_P*%
X67785000Y-33550000D03*
%TO.P,J11,B7,D-*%
%TO.N,/USB SERIAL/USBD_N*%
X67785000Y-35050000D03*
%TO.P,J11,B8,SBU2*%
%TO.N,unconnected-(J11-PadB8)*%
X67785000Y-36050000D03*
D43*
%TO.P,J11,B9,VBUS*%
%TO.N,VBUS*%
X67785000Y-36750000D03*
%TO.P,J11,B12,GND*%
%TO.N,GND*%
X67785000Y-37550000D03*
D45*
%TO.P,J11,S1,SHIELD*%
X72880000Y-38620000D03*
D46*
X68700000Y-29980000D03*
D45*
X72880000Y-29980000D03*
D46*
X68700000Y-38620000D03*
%TD*%
D47*
%TO.P,D1,1,K*%
%TO.N,Net-(D1-Pad1)*%
X49237500Y-81200000D03*
%TO.P,D1,2,A*%
%TO.N,Net-(D1-Pad2)*%
X47362500Y-81200000D03*
%TD*%
D41*
%TO.P,C18,1*%
%TO.N,/GBUS.DETECT*%
X33600000Y-37100000D03*
%TO.P,C18,2*%
%TO.N,GND*%
X32640000Y-37100000D03*
%TD*%
D48*
%TO.P,J6,1,Pin_1*%
%TO.N,+3V3*%
X25350000Y-52400000D03*
D49*
%TO.P,J6,2,Pin_2*%
%TO.N,GND*%
X25350000Y-54400000D03*
%TO.P,J6,3,Pin_3*%
%TO.N,/I2C_SDA*%
X25350000Y-56400000D03*
%TO.P,J6,4,Pin_4*%
%TO.N,/I2C_SCL*%
X25350000Y-58400000D03*
%TO.P,J6,5,Pin_5*%
%TO.N,/~{I2C_INT}*%
X25350000Y-60400000D03*
%TD*%
D21*
%TO.P,SW2,1,1*%
%TO.N,/ESP32_IO0*%
X71775000Y-42800000D03*
%TO.P,SW2,2,2*%
%TO.N,GND*%
X71775000Y-48800000D03*
%TO.P,SW2,3*%
%TO.N,N/C*%
X68025000Y-42800000D03*
%TO.P,SW2,4*%
X68025000Y-48800000D03*
%TD*%
D19*
%TO.P,R4,1*%
%TO.N,Net-(R3-Pad2)*%
X52050000Y-52360000D03*
%TO.P,R4,2*%
%TO.N,GND*%
X52050000Y-51340000D03*
%TD*%
%TO.P,R10,1*%
%TO.N,+3V3*%
X39450000Y-49910000D03*
%TO.P,R10,2*%
%TO.N,/I2C_SDA*%
X39450000Y-48890000D03*
%TD*%
D50*
%TO.P,U5,1,SCL*%
%TO.N,/I2C_SCL*%
X23660000Y-35800000D03*
%TO.P,U5,2,SDA*%
%TO.N,/I2C_SDA*%
X26200000Y-35800000D03*
%TO.P,U5,3,GND*%
%TO.N,GND*%
X26200000Y-33100000D03*
%TO.P,U5,4,VDD*%
%TO.N,+3V3*%
X23660000Y-33100000D03*
%TD*%
D51*
%TO.P,J10,B1,B1*%
%TO.N,+5V*%
X59000000Y-88800000D03*
%TO.P,J10,B2,B2*%
X58000000Y-88800000D03*
%TO.P,J10,B3,B3*%
X57000000Y-88800000D03*
%TO.P,J10,B4,B4*%
%TO.N,GND*%
X56000000Y-88800000D03*
%TO.P,J10,B5,B5*%
%TO.N,/Bus/GBUS_5V_SCL*%
X55000000Y-88800000D03*
%TO.P,J10,B6,B6*%
%TO.N,/Bus/GBUS_5V_SDA*%
X54000000Y-88800000D03*
%TO.P,J10,B7,B7*%
%TO.N,GND*%
X53000000Y-88800000D03*
%TO.P,J10,B8,B8*%
%TO.N,unconnected-(J10-PadB8)*%
X52000000Y-88800000D03*
%TO.P,J10,B9,B9*%
%TO.N,unconnected-(J10-PadB9)*%
X51000000Y-88800000D03*
%TO.P,J10,B10,B10*%
%TO.N,unconnected-(J10-PadB10)*%
X50000000Y-88800000D03*
%TO.P,J10,B11,B11*%
%TO.N,unconnected-(J10-PadB11)*%
X49000000Y-88800000D03*
%TO.P,J10,B12,B12*%
%TO.N,/Bus/~{GBUS_5V_INT}*%
X46000000Y-88800000D03*
%TO.P,J10,B13,B13*%
%TO.N,GND*%
X45000000Y-88800000D03*
%TO.P,J10,B14,B14*%
%TO.N,/Bus/GBUS_5V_MOSI*%
X44000000Y-88800000D03*
%TO.P,J10,B15,B15*%
%TO.N,GND*%
X43000000Y-88800000D03*
%TO.P,J10,B16,B16*%
X42000000Y-88800000D03*
%TO.P,J10,B17,B17*%
%TO.N,/GBUS.DETECT*%
X41000000Y-88800000D03*
%TO.P,J10,B18,B18*%
%TO.N,GND*%
X40000000Y-88800000D03*
%TD*%
D22*
%TO.P,R12,1*%
%TO.N,+3V3*%
X22090000Y-38400000D03*
%TO.P,R12,2*%
%TO.N,Net-(R12-Pad2)*%
X23110000Y-38400000D03*
%TD*%
D19*
%TO.P,R25,1*%
%TO.N,Net-(Q1-Pad1)*%
X62290000Y-38510000D03*
%TO.P,R25,2*%
%TO.N,/USB SERIAL/DTR*%
X62290000Y-37490000D03*
%TD*%
D41*
%TO.P,C11,1*%
%TO.N,+3V3*%
X57280000Y-70000000D03*
%TO.P,C11,2*%
%TO.N,Net-(C11-Pad2)*%
X56320000Y-70000000D03*
%TD*%
D18*
%TO.P,R17,1*%
%TO.N,/GBUS.~{RESET}*%
X45762500Y-60530000D03*
%TO.P,R17,2*%
%TO.N,+3V3*%
X45762500Y-61550000D03*
%TD*%
D52*
%TO.P,Q1,1,B*%
%TO.N,Net-(Q1-Pad1)*%
X60940000Y-38062500D03*
%TO.P,Q1,2,E*%
%TO.N,/USB SERIAL/RTS*%
X59040000Y-38062500D03*
%TO.P,Q1,3,C*%
%TO.N,/~{ESP23_EN}*%
X59990000Y-39937500D03*
%TD*%
D22*
%TO.P,R9,1*%
%TO.N,+3V3*%
X32490000Y-46000000D03*
%TO.P,R9,2*%
%TO.N,/I2C_SCL*%
X33510000Y-46000000D03*
%TD*%
D53*
%TO.P,U3,1,GND*%
%TO.N,GND*%
X35150000Y-29495000D03*
%TO.P,U3,2,VDD*%
%TO.N,+3V3*%
X35150000Y-30765000D03*
%TO.P,U3,3,EN*%
%TO.N,/~{ESP23_EN}*%
X35150000Y-32035000D03*
%TO.P,U3,4,SENSOR_VP*%
%TO.N,unconnected-(U3-Pad4)*%
X35150000Y-33305000D03*
%TO.P,U3,5,SENSOR_VN*%
%TO.N,unconnected-(U3-Pad5)*%
X35150000Y-34575000D03*
%TO.P,U3,6,IO34*%
%TO.N,/GBUS.~{INT}*%
X35150000Y-35845000D03*
%TO.P,U3,7,IO35*%
%TO.N,/GBUS.DETECT*%
X35150000Y-37115000D03*
%TO.P,U3,8,IO32*%
%TO.N,unconnected-(U3-Pad8)*%
X35150000Y-38385000D03*
%TO.P,U3,9,IO33*%
%TO.N,unconnected-(U3-Pad9)*%
X35150000Y-39655000D03*
%TO.P,U3,10,IO25*%
%TO.N,/ESP32_IO25*%
X35150000Y-40925000D03*
%TO.P,U3,11,IO26*%
%TO.N,/ESP32_IO26*%
X35150000Y-42195000D03*
%TO.P,U3,12,IO27*%
%TO.N,unconnected-(U3-Pad12)*%
X35150000Y-43465000D03*
%TO.P,U3,13,IO14*%
%TO.N,/ESP32_IO14*%
X35150000Y-44735000D03*
%TO.P,U3,14,IO12*%
%TO.N,/I2C_SCL*%
X35150000Y-46005000D03*
D54*
%TO.P,U3,15,GND*%
%TO.N,GND*%
X38190000Y-47255000D03*
%TO.P,U3,16,IO13*%
%TO.N,/I2C_SDA*%
X39460000Y-47255000D03*
%TO.P,U3,17,SHD/SD2*%
%TO.N,unconnected-(U3-Pad17)*%
X40730000Y-47255000D03*
%TO.P,U3,18,SWP/SD3*%
%TO.N,unconnected-(U3-Pad18)*%
X42000000Y-47255000D03*
%TO.P,U3,19,SCS/CMD*%
%TO.N,unconnected-(U3-Pad19)*%
X43270000Y-47255000D03*
%TO.P,U3,20,SCK/CLK*%
%TO.N,unconnected-(U3-Pad20)*%
X44540000Y-47255000D03*
%TO.P,U3,21,SDO/SD0*%
%TO.N,unconnected-(U3-Pad21)*%
X45810000Y-47255000D03*
%TO.P,U3,22,SDI/SD1*%
%TO.N,unconnected-(U3-Pad22)*%
X47080000Y-47255000D03*
%TO.P,U3,23,IO15*%
%TO.N,/~{I2C_INT}*%
X48350000Y-47255000D03*
%TO.P,U3,24,IO2*%
%TO.N,/ESP32_IO2*%
X49620000Y-47255000D03*
D53*
%TO.P,U3,25,IO0*%
%TO.N,/ESP32_IO0*%
X52650000Y-46005000D03*
%TO.P,U3,26,IO4*%
%TO.N,unconnected-(U3-Pad26)*%
X52650000Y-44735000D03*
%TO.P,U3,27,IO16*%
%TO.N,/~{RTC_INT}*%
X52650000Y-43465000D03*
%TO.P,U3,28,IO17*%
%TO.N,unconnected-(U3-Pad28)*%
X52650000Y-42195000D03*
%TO.P,U3,29,IO5*%
%TO.N,/GBUS.~{RESET}*%
X52650000Y-40925000D03*
%TO.P,U3,30,IO18*%
%TO.N,/GBUS.CLK*%
X52650000Y-39655000D03*
%TO.P,U3,31,IO19*%
%TO.N,/GBUS.MISO*%
X52650000Y-38385000D03*
%TO.P,U3,32,NC*%
%TO.N,unconnected-(U3-Pad32)*%
X52650000Y-37115000D03*
%TO.P,U3,33,IO21*%
%TO.N,/GBUS.SCL*%
X52650000Y-35845000D03*
%TO.P,U3,34,RXD0/IO3*%
%TO.N,/TXDO*%
X52650000Y-34575000D03*
%TO.P,U3,35,TXD0/IO1*%
%TO.N,/RXDO*%
X52650000Y-33305000D03*
%TO.P,U3,36,IO22*%
%TO.N,/GBUS.SDA*%
X52650000Y-32035000D03*
%TO.P,U3,37,IO23*%
%TO.N,/GBUS.MOSI*%
X52650000Y-30765000D03*
%TO.P,U3,38,GND*%
%TO.N,GND*%
X52650000Y-29495000D03*
D55*
%TO.P,U3,39,GND*%
X43982500Y-35310000D03*
D56*
X43220000Y-38360000D03*
D57*
X43220000Y-36835000D03*
D55*
X42457500Y-38360000D03*
D56*
X43220000Y-35310000D03*
X43220000Y-36835000D03*
X44745000Y-38360000D03*
D55*
X43982500Y-38360000D03*
X43220000Y-37597500D03*
X41695000Y-36072500D03*
X43982500Y-36835000D03*
D56*
X41695000Y-38360000D03*
D55*
X44745000Y-37597500D03*
X42457500Y-35310000D03*
D56*
X44745000Y-35310000D03*
D55*
X41695000Y-37597500D03*
X43220000Y-36072500D03*
D56*
X41695000Y-36835000D03*
D55*
X42457500Y-36835000D03*
D56*
X41695000Y-35310000D03*
X44745000Y-36835000D03*
D55*
X44745000Y-36072500D03*
%TD*%
D19*
%TO.P,R22,1*%
%TO.N,/Bus/~{GBUS_5V_INT}*%
X37700000Y-68420000D03*
%TO.P,R22,2*%
%TO.N,+5V*%
X37700000Y-67400000D03*
%TD*%
D52*
%TO.P,Q2,1,B*%
%TO.N,Net-(Q2-Pad1)*%
X65640000Y-36962500D03*
%TO.P,Q2,2,E*%
%TO.N,/USB SERIAL/DTR*%
X63740000Y-36962500D03*
%TO.P,Q2,3,C*%
%TO.N,/ESP32_IO0*%
X64690000Y-38837500D03*
%TD*%
D41*
%TO.P,C7,1*%
%TO.N,+3V3*%
X33580000Y-30900000D03*
%TO.P,C7,2*%
%TO.N,GND*%
X32620000Y-30900000D03*
%TD*%
D17*
%TO.P,C4,1*%
%TO.N,/BAT*%
X51450000Y-56590000D03*
%TO.P,C4,2*%
%TO.N,GND*%
X51450000Y-54690000D03*
%TD*%
D20*
%TO.P,C23,1*%
%TO.N,VBUS*%
X63350000Y-30400000D03*
%TO.P,C23,2*%
%TO.N,GND*%
X64310000Y-30400000D03*
%TD*%
D58*
%TO.P,U8,1,GND*%
%TO.N,GND*%
X26175000Y-43400000D03*
%TO.P,U8,2,CSB*%
%TO.N,Net-(R15-Pad2)*%
X25525000Y-43400000D03*
%TO.P,U8,3,SDI*%
%TO.N,/I2C_SDA*%
X24875000Y-43400000D03*
%TO.P,U8,4,SCK*%
%TO.N,/I2C_SCL*%
X24225000Y-43400000D03*
%TO.P,U8,5,SDO*%
%TO.N,Net-(R14-Pad2)*%
X24225000Y-41800000D03*
%TO.P,U8,6,VDDIO*%
%TO.N,+3V3*%
X24875000Y-41800000D03*
%TO.P,U8,7,GND*%
%TO.N,GND*%
X25525000Y-41800000D03*
%TO.P,U8,8,VDD*%
%TO.N,+3V3*%
X26175000Y-41800000D03*
%TD*%
D19*
%TO.P,R16,1*%
%TO.N,GND*%
X46000000Y-72270000D03*
%TO.P,R16,2*%
%TO.N,+3V3*%
X46000000Y-71250000D03*
%TD*%
D17*
%TO.P,C5,1*%
%TO.N,+BATT*%
X60912500Y-64900000D03*
%TO.P,C5,2*%
%TO.N,GND*%
X60912500Y-63000000D03*
%TD*%
D59*
%TO.P,U6,1,NC*%
%TO.N,unconnected-(U6-Pad1)*%
X24200000Y-37400000D03*
%TO.P,U6,2,VDD*%
%TO.N,Net-(R12-Pad2)*%
X24200000Y-38400000D03*
%TO.P,U6,3,SCL*%
%TO.N,/I2C_SCL*%
X24200000Y-39400000D03*
%TO.P,U6,4,SDA*%
%TO.N,/I2C_SDA*%
X26200000Y-39400000D03*
%TO.P,U6,5,GND*%
%TO.N,GND*%
X26200000Y-38400000D03*
%TO.P,U6,6,NC*%
%TO.N,unconnected-(U6-Pad6)*%
X26200000Y-37400000D03*
%TD*%
D60*
%TO.P,L1,1*%
%TO.N,/BAT*%
X53050000Y-56240000D03*
%TO.P,L1,2*%
%TO.N,Net-(L1-Pad2)*%
X55050000Y-56240000D03*
%TD*%
D36*
%TO.P,J3,1,Pin_1*%
%TO.N,+3V3*%
X72500000Y-77505000D03*
D37*
%TO.P,J3,2,Pin_2*%
X72500000Y-73695000D03*
%TD*%
D16*
%TO.P,R15,1*%
%TO.N,+3V3*%
X26560000Y-44450000D03*
%TO.P,R15,2*%
%TO.N,Net-(R15-Pad2)*%
X25540000Y-44450000D03*
%TD*%
%TO.P,R6,1*%
%TO.N,GND*%
X52810000Y-78900000D03*
%TO.P,R6,2*%
%TO.N,Net-(D6-Pad1)*%
X51790000Y-78900000D03*
%TD*%
%TO.P,R20,1*%
%TO.N,/GBUS.DETECT*%
X33600000Y-38100000D03*
%TO.P,R20,2*%
%TO.N,+3V3*%
X32580000Y-38100000D03*
%TD*%
D23*
%TO.P,D5,1,K*%
%TO.N,+5V*%
X61150000Y-56440000D03*
%TO.P,D5,2,A*%
%TO.N,VBUS*%
X61150000Y-52440000D03*
%TD*%
D61*
%TO.P,Y1,1,1*%
%TO.N,Net-(U7-Pad2)*%
X40780000Y-55200000D03*
%TO.P,Y1,2,2*%
%TO.N,Net-(U7-Pad1)*%
X40780000Y-57700000D03*
%TD*%
D15*
%TO.P,U13,1,NC*%
%TO.N,unconnected-(U13-Pad1)*%
X36237500Y-69330000D03*
%TO.P,U13,2,A*%
%TO.N,/Bus/~{GBUS_5V_INT}*%
X36237500Y-68380000D03*
%TO.P,U13,3,GND*%
%TO.N,GND*%
X36237500Y-67430000D03*
%TO.P,U13,4,Y*%
%TO.N,/GBUS.~{INT}*%
X33962500Y-67430000D03*
%TO.P,U13,5,VCC*%
%TO.N,+3V3*%
X33962500Y-69330000D03*
%TD*%
D62*
%TO.P,C15,1*%
%TO.N,Net-(C15-Pad1)*%
X31480000Y-56500000D03*
%TO.P,C15,2*%
%TO.N,GND*%
X31480000Y-55540000D03*
%TD*%
D20*
%TO.P,C24,1*%
%TO.N,Net-(C24-Pad1)*%
X63350000Y-31400000D03*
%TO.P,C24,2*%
%TO.N,GND*%
X64310000Y-31400000D03*
%TD*%
D63*
%TO.P,J4,1,Pin_1*%
%TO.N,VBUS*%
X69550000Y-55100000D03*
D49*
%TO.P,J4,2,Pin_2*%
%TO.N,GND*%
X69550000Y-53100000D03*
%TD*%
D16*
%TO.P,R26,1*%
%TO.N,Net-(Q2-Pad1)*%
X63300000Y-40500000D03*
%TO.P,R26,2*%
%TO.N,/USB SERIAL/RTS*%
X62280000Y-40500000D03*
%TD*%
D34*
%TO.P,C17,1*%
%TO.N,Net-(C17-Pad1)*%
X41900000Y-72910000D03*
%TO.P,C17,2*%
%TO.N,GND*%
X41900000Y-73870000D03*
%TD*%
D15*
%TO.P,U14,1,NC*%
%TO.N,unconnected-(U14-Pad1)*%
X44300000Y-61490000D03*
%TO.P,U14,2,A*%
%TO.N,/GBUS.~{RESET}*%
X44300000Y-60540000D03*
%TO.P,U14,3,GND*%
%TO.N,GND*%
X44300000Y-59590000D03*
%TO.P,U14,4,Y*%
%TO.N,/Bus/~{GBUS_5V_RESET}*%
X42025000Y-59590000D03*
%TO.P,U14,5,VCC*%
%TO.N,+5V*%
X42025000Y-61490000D03*
%TD*%
%TO.P,U10,1,NC*%
%TO.N,unconnected-(U10-Pad1)*%
X44300000Y-65090000D03*
%TO.P,U10,2,A*%
%TO.N,/GBUS.CLK*%
X44300000Y-64140000D03*
%TO.P,U10,3,GND*%
%TO.N,GND*%
X44300000Y-63190000D03*
%TO.P,U10,4,Y*%
%TO.N,/Bus/GBUS_5V_SCLK*%
X42025000Y-63190000D03*
%TO.P,U10,5,VCC*%
%TO.N,+5V*%
X42025000Y-65090000D03*
%TD*%
D20*
%TO.P,C22,1*%
%TO.N,VBUS*%
X63350000Y-29400000D03*
%TO.P,C22,2*%
%TO.N,GND*%
X64310000Y-29400000D03*
%TD*%
D48*
%TO.P,J7,1,Pin_1*%
%TO.N,+3V3*%
X25350000Y-65400000D03*
D49*
%TO.P,J7,2,Pin_2*%
%TO.N,GND*%
X25350000Y-67400000D03*
%TO.P,J7,3,Pin_3*%
%TO.N,/I2C_SDA*%
X25350000Y-69400000D03*
%TO.P,J7,4,Pin_4*%
%TO.N,/I2C_SCL*%
X25350000Y-71400000D03*
%TO.P,J7,5,Pin_5*%
%TO.N,/~{I2C_INT}*%
X25350000Y-73400000D03*
%TD*%
D22*
%TO.P,R5,1*%
%TO.N,+3V3*%
X32570000Y-33000000D03*
%TO.P,R5,2*%
%TO.N,/~{ESP23_EN}*%
X33590000Y-33000000D03*
%TD*%
D31*
%TO.P,C21,1*%
%TO.N,+5V*%
X57850000Y-83150000D03*
%TO.P,C21,2*%
%TO.N,GND*%
X59750000Y-83150000D03*
%TD*%
D39*
%TO.P,U12,1,NC*%
%TO.N,unconnected-(U12-Pad1)*%
X42025000Y-66690000D03*
%TO.P,U12,2,A*%
%TO.N,/Bus/GBUS_5V_MISO*%
X42025000Y-67640000D03*
%TO.P,U12,3,GND*%
%TO.N,GND*%
X42025000Y-68590000D03*
%TO.P,U12,4,Y*%
%TO.N,/GBUS.MISO*%
X44300000Y-68590000D03*
%TO.P,U12,5,VCC*%
%TO.N,+3V3*%
X44300000Y-66690000D03*
%TD*%
D16*
%TO.P,R19,1*%
%TO.N,/Bus/GBUS_5V_SCL*%
X40572500Y-71040000D03*
%TO.P,R19,2*%
%TO.N,+5V*%
X39552500Y-71040000D03*
%TD*%
%TO.P,R13,1*%
%TO.N,+3V3*%
X41000000Y-53950000D03*
%TO.P,R13,2*%
%TO.N,/~{RTC_INT}*%
X39980000Y-53950000D03*
%TD*%
D19*
%TO.P,R23,1*%
%TO.N,Net-(R23-Pad1)*%
X60530000Y-30010000D03*
%TO.P,R23,2*%
%TO.N,VBUS*%
X60530000Y-28990000D03*
%TD*%
D36*
%TO.P,J1,1,Pin_1*%
%TO.N,/ESP32_IO25*%
X22505000Y-78985000D03*
D37*
%TO.P,J1,2,Pin_2*%
%TO.N,/ESP32_IO26*%
X22505000Y-82485000D03*
%TO.P,J1,3,Pin_3*%
%TO.N,/ESP32_IO14*%
X22505000Y-85985000D03*
%TO.P,J1,4,Pin_4*%
%TO.N,/ESP32_IO2*%
X22505000Y-89485000D03*
%TD*%
D32*
%TO.P,D6,1,K*%
%TO.N,Net-(D6-Pad1)*%
X52662500Y-81200000D03*
%TO.P,D6,2,A*%
%TO.N,+3V3*%
X54537500Y-81200000D03*
%TD*%
D20*
%TO.P,C13,1*%
%TO.N,+3V3*%
X24320000Y-31700000D03*
%TO.P,C13,2*%
%TO.N,GND*%
X25280000Y-31700000D03*
%TD*%
D41*
%TO.P,C8,1*%
%TO.N,+3V3*%
X33580000Y-29900000D03*
%TO.P,C8,2*%
%TO.N,GND*%
X32620000Y-29900000D03*
%TD*%
D18*
%TO.P,R3,1*%
%TO.N,Net-(C6-Pad1)*%
X53150000Y-51340000D03*
%TO.P,R3,2*%
%TO.N,Net-(R3-Pad2)*%
X53150000Y-52360000D03*
%TD*%
D64*
%TO.P,C1,1*%
%TO.N,+3V3*%
X67037500Y-79800000D03*
%TO.P,C1,2*%
%TO.N,GND*%
X63962500Y-79800000D03*
%TD*%
D65*
%TO.P,C14,1*%
%TO.N,+3V3*%
X22350000Y-39800000D03*
%TO.P,C14,2*%
%TO.N,GND*%
X22350000Y-41700000D03*
%TD*%
D66*
%TO.P,U2,1,FB*%
%TO.N,Net-(R3-Pad2)*%
X53609999Y-53439998D03*
%TO.P,U2,2,EN*%
%TO.N,/BAT*%
X53609999Y-53939997D03*
%TO.P,U2,3,VIN*%
X53609999Y-54439999D03*
%TO.P,U2,4,GND*%
%TO.N,GND*%
X55090001Y-54439999D03*
%TO.P,U2,5,SW*%
%TO.N,Net-(L1-Pad2)*%
X55090001Y-53939997D03*
%TO.P,U2,6,VOUT*%
%TO.N,Net-(C6-Pad1)*%
X55090001Y-53439998D03*
%TD*%
D67*
%TO.P,D8,1,A*%
%TO.N,GND*%
X63950000Y-35300000D03*
D68*
%TO.P,D8,2,K*%
%TO.N,/USB SERIAL/USBD_P*%
X65650000Y-35300000D03*
%TO.P,D8,3,K*%
%TO.N,/USB SERIAL/USBD_N*%
X65650000Y-33300000D03*
%TO.P,D8,4,K*%
%TO.N,VBUS*%
X63750000Y-33300000D03*
%TD*%
D17*
%TO.P,C12,1*%
%TO.N,+3V3*%
X61312500Y-68600000D03*
%TO.P,C12,2*%
%TO.N,GND*%
X61312500Y-66700000D03*
%TD*%
D16*
%TO.P,R18,1*%
%TO.N,Net-(C17-Pad1)*%
X40560000Y-72050000D03*
%TO.P,R18,2*%
%TO.N,+5V*%
X39540000Y-72050000D03*
%TD*%
D38*
%TO.P,C19,1*%
%TO.N,+5V*%
X58012500Y-80450000D03*
%TO.P,C19,2*%
%TO.N,GND*%
X61087500Y-80450000D03*
%TD*%
D41*
%TO.P,C10,1*%
%TO.N,/~{ESP23_EN}*%
X33580000Y-32000000D03*
%TO.P,C10,2*%
%TO.N,GND*%
X32620000Y-32000000D03*
%TD*%
D69*
%TO.N,+5V*%
X58000000Y-86300000D03*
X58000000Y-85500000D03*
%TO.N,GND*%
X42000000Y-91026502D03*
X45000000Y-91026502D03*
X53000000Y-91026502D03*
X40000000Y-91100000D03*
X43000000Y-91000000D03*
X56000000Y-91000000D03*
%TO.N,+3V3*%
X45210000Y-49910000D03*
X46900000Y-57900000D03*
X44500000Y-30800000D03*
X42500000Y-30800000D03*
X24500000Y-45400000D03*
X23056000Y-46500000D03*
X35100000Y-62700000D03*
X33500000Y-61200000D03*
X58200000Y-70400000D03*
X47000000Y-66700000D03*
X46900000Y-61600000D03*
X48600000Y-69700000D03*
%TO.N,+5V*%
X38500000Y-73300000D03*
X41300000Y-76900000D03*
X40500000Y-65500000D03*
X39300000Y-66700000D03*
%TO.N,+3V3*%
X58200000Y-69700000D03*
%TO.N,GND*%
X58300000Y-67700000D03*
X41000000Y-73900000D03*
X38200000Y-45900000D03*
X54700000Y-48800000D03*
X56000000Y-54400000D03*
X51400000Y-53600000D03*
X51357234Y-51657234D03*
X32600000Y-36200000D03*
X36200000Y-66100000D03*
X40800000Y-68300000D03*
%TO.N,+3V3*%
X54600000Y-78900000D03*
%TO.N,+5V*%
X53000000Y-71700000D03*
X53000000Y-74800000D03*
%TO.N,+3V3*%
X58200000Y-71100000D03*
%TO.N,GND*%
X64200000Y-68600000D03*
%TO.N,/GBUS.~{INT}*%
X36900000Y-47800000D03*
X36900000Y-49500000D03*
X36900000Y-51300000D03*
X32126503Y-58600000D03*
%TO.N,/GBUS.DETECT*%
X36100000Y-47800000D03*
X36100000Y-51244000D03*
X31400000Y-58600000D03*
X36100000Y-49500000D03*
%TO.N,/~{ESP23_EN}*%
X55300000Y-28500000D03*
X61000000Y-40400000D03*
%TO.N,/~{I2C_INT}*%
X27400000Y-70200000D03*
X27400000Y-73400000D03*
X47200000Y-49200000D03*
X27400000Y-60400000D03*
%TO.N,/ESP32_IO2*%
X49300000Y-48700000D03*
X30726503Y-56700000D03*
%TO.N,/ESP32_IO14*%
X32400000Y-45100000D03*
X30000000Y-56700000D03*
%TO.N,/ESP32_IO26*%
X31800000Y-43000000D03*
X29226503Y-56700000D03*
%TO.N,/ESP32_IO25*%
X31200000Y-42100000D03*
X28500000Y-56700000D03*
%TO.N,GND*%
X53200000Y-63500000D03*
X53600000Y-78900000D03*
%TO.N,Net-(D1-Pad1)*%
X63700000Y-71900000D03*
X65600000Y-70000000D03*
%TO.N,VBUS*%
X63000000Y-71300000D03*
X64900000Y-69400000D03*
%TO.N,GND*%
X71800000Y-47700000D03*
X65600000Y-47600000D03*
X66500000Y-40600000D03*
X59020000Y-39820000D03*
X60200000Y-33800000D03*
X58700000Y-33800000D03*
X58200000Y-35100000D03*
X60800000Y-35100000D03*
X60800000Y-32500000D03*
X58200000Y-32500000D03*
X64700000Y-36400000D03*
%TO.N,VBUS*%
X62200000Y-31600000D03*
X63950000Y-32450000D03*
%TO.N,GND*%
X59500000Y-28200000D03*
X55300000Y-29500000D03*
X36405000Y-29495000D03*
X31500000Y-32000000D03*
X27300000Y-43500000D03*
X22400000Y-42800000D03*
X26000000Y-40600000D03*
X25300000Y-30600000D03*
X27000000Y-38400000D03*
X36700000Y-52700000D03*
X31480000Y-54680000D03*
%TO.N,+BATT*%
X36700000Y-60000000D03*
%TO.N,GND*%
X45700000Y-63200000D03*
X43800000Y-58800000D03*
%TO.N,Net-(D2-Pad1)*%
X52500000Y-65500000D03*
X57000000Y-65300000D03*
%TO.N,GND*%
X62200000Y-61700000D03*
X58150000Y-72050000D03*
X62700000Y-78500000D03*
X62500000Y-81000000D03*
X62900000Y-77000000D03*
X62500000Y-80400000D03*
X62900000Y-76100000D03*
X47170000Y-72270000D03*
%TO.N,+BATT*%
X59300000Y-64900000D03*
%TO.N,+5V*%
X63350000Y-56000000D03*
X57050000Y-61550000D03*
X63350000Y-56700000D03*
X63350000Y-57400000D03*
%TO.N,/USB SERIAL/USBD_P*%
X69000000Y-34550000D03*
X69050000Y-33560000D03*
%TO.N,/I2C_SDA*%
X31900000Y-50140000D03*
X31900000Y-49160000D03*
%TO.N,/I2C_SCL*%
X35100000Y-49500000D03*
X35150000Y-47800000D03*
%TO.N,/Bus/~{GBUS_5V_RESET}*%
X48450000Y-83691700D03*
X39900000Y-68300000D03*
X40150000Y-73300000D03*
%TO.N,/Bus/GBUS_5V_SCLK*%
X40600000Y-64250000D03*
%TO.N,/Bus/GBUS_5V_MISO*%
X42000000Y-69750000D03*
%TO.N,/Bus/GBUS_5V_SDA*%
X39750000Y-69050000D03*
X39400000Y-73300000D03*
%TO.N,/Bus/GBUS_5V_MOSI*%
X44000000Y-74550000D03*
X44000000Y-85700000D03*
%TO.N,/GBUS.~{RESET}*%
X54350000Y-46495000D03*
X54350000Y-43500000D03*
%TO.N,/GBUS.CLK*%
X55100000Y-43500000D03*
X55100000Y-46495000D03*
%TO.N,/GBUS.MISO*%
X55826503Y-46495000D03*
X55826503Y-43500000D03*
%TO.N,/GBUS.SCL*%
X50550000Y-58800000D03*
X56553006Y-43500000D03*
%TO.N,/TXDO*%
X57900000Y-38526503D03*
X60171483Y-38021483D03*
%TO.N,/RXDO*%
X57900000Y-37800000D03*
X60200176Y-37295547D03*
%TO.N,/GBUS.SDA*%
X51276503Y-58800000D03*
X50000000Y-66800000D03*
X51300000Y-65500000D03*
X55300000Y-32800000D03*
X57300000Y-43500000D03*
X55300000Y-35200000D03*
%TO.N,/GBUS.MOSI*%
X52003006Y-58800000D03*
X55300000Y-30800000D03*
%TD*%
D70*
%TO.N,GND*%
X41030000Y-73870000D02*
X41900000Y-73870000D01*
X41000000Y-73900000D02*
X41030000Y-73870000D01*
D71*
X65575000Y-47625000D02*
X65575000Y-48800000D01*
X65600000Y-47600000D02*
X65575000Y-47625000D01*
X71775000Y-47725000D02*
X71775000Y-48800000D01*
X71800000Y-47700000D02*
X71775000Y-47725000D01*
X55295000Y-29495000D02*
X52650000Y-29495000D01*
X55300000Y-29500000D02*
X55295000Y-29495000D01*
D72*
X36405000Y-29495000D02*
X35150000Y-29495000D01*
D71*
X42000000Y-88800000D02*
X42000000Y-91026502D01*
X45000000Y-88800000D02*
X45000000Y-91026502D01*
X53000000Y-88800000D02*
X53000000Y-91026502D01*
X40000000Y-88800000D02*
X40000000Y-91100000D01*
X43000000Y-88800000D02*
X43000000Y-91000000D01*
X56000000Y-88800000D02*
X56000000Y-91000000D01*
D72*
%TO.N,+3V3*%
X46900000Y-61600000D02*
X46900000Y-57900000D01*
D71*
X32570000Y-33930000D02*
X32570000Y-33000000D01*
X31500000Y-35000000D02*
X32570000Y-33930000D01*
X31500000Y-37020000D02*
X31500000Y-35000000D01*
X32580000Y-38100000D02*
X31500000Y-37020000D01*
X42465000Y-30765000D02*
X35150000Y-30765000D01*
X49400000Y-30800000D02*
X44500000Y-30800000D01*
X50600000Y-32000000D02*
X49400000Y-30800000D01*
X50600000Y-48900000D02*
X50600000Y-32000000D01*
X49680000Y-49820000D02*
X50600000Y-48900000D01*
X42500000Y-30800000D02*
X42465000Y-30765000D01*
X48350000Y-49820000D02*
X49680000Y-49820000D01*
X30600000Y-40080000D02*
X32580000Y-38100000D01*
X30600000Y-44110000D02*
X30600000Y-40080000D01*
X32490000Y-46000000D02*
X30600000Y-44110000D01*
X26100000Y-45400000D02*
X26560000Y-44940000D01*
X24500000Y-45400000D02*
X26100000Y-45400000D01*
X26560000Y-44940000D02*
X26560000Y-44450000D01*
X23056000Y-48556000D02*
X23056000Y-46500000D01*
X23200000Y-48700000D02*
X23056000Y-48556000D01*
X25350000Y-52400000D02*
X25350000Y-50850000D01*
X25350000Y-50850000D02*
X23200000Y-48700000D01*
D70*
%TO.N,Net-(C17-Pad1)*%
X40619999Y-71990001D02*
X41890900Y-71990001D01*
X40560000Y-72050000D02*
X40619999Y-71990001D01*
D72*
X41900000Y-71499100D02*
X41890900Y-71490000D01*
X41900000Y-72910000D02*
X41900000Y-71499100D01*
%TO.N,+3V3*%
X35100000Y-68200000D02*
X35100000Y-62700000D01*
X35000000Y-68300000D02*
X35100000Y-68200000D01*
X33970000Y-69330000D02*
X35000000Y-68300000D01*
X33962500Y-69330000D02*
X33970000Y-69330000D01*
X35187500Y-58612500D02*
X35187500Y-58100000D01*
X33500000Y-60300000D02*
X35187500Y-58612500D01*
X33500000Y-61200000D02*
X33500000Y-60300000D01*
X47050000Y-71250000D02*
X46000000Y-71250000D01*
X48600000Y-69700000D02*
X47050000Y-71250000D01*
X46990000Y-66690000D02*
X44300000Y-66690000D01*
X47000000Y-66700000D02*
X46990000Y-66690000D01*
X45812500Y-61600000D02*
X45762500Y-61550000D01*
X46900000Y-61600000D02*
X45812500Y-61600000D01*
%TO.N,+5V*%
X38500000Y-72600000D02*
X39050000Y-72050000D01*
X38500000Y-73300000D02*
X38500000Y-72600000D01*
X39050000Y-72050000D02*
X39540000Y-72050000D01*
X57500000Y-82800000D02*
X57850000Y-83150000D01*
X41602894Y-82800000D02*
X57500000Y-82800000D01*
X41300000Y-82497106D02*
X41602894Y-82800000D01*
X42750000Y-75450000D02*
X41300000Y-76900000D01*
X41300000Y-76900000D02*
X41300000Y-82497106D01*
X43662500Y-75450000D02*
X42750000Y-75450000D01*
X40900000Y-65100000D02*
X42015000Y-65100000D01*
X42015000Y-65100000D02*
X42025000Y-65090000D01*
X40500000Y-65500000D02*
X40900000Y-65100000D01*
X38600000Y-67400000D02*
X39300000Y-66700000D01*
X37700000Y-67400000D02*
X38600000Y-67400000D01*
D70*
%TO.N,GND*%
X56987500Y-67700000D02*
X58300000Y-67700000D01*
X45670000Y-72270000D02*
X46000000Y-72270000D01*
X45390001Y-71990001D02*
X45670000Y-72270000D01*
X44634100Y-71990001D02*
X45390001Y-71990001D01*
%TO.N,+3V3*%
X45310000Y-71490000D02*
X45550000Y-71250000D01*
X44634100Y-71490000D02*
X45310000Y-71490000D01*
X45550000Y-71250000D02*
X46000000Y-71250000D01*
%TO.N,GND*%
X38190000Y-45910000D02*
X38200000Y-45900000D01*
X38190000Y-47255000D02*
X38190000Y-45910000D01*
X54700000Y-50150000D02*
X54700000Y-48800000D01*
X55960001Y-54439999D02*
X55090001Y-54439999D01*
X56000000Y-54400000D02*
X55960001Y-54439999D01*
X51400000Y-54640000D02*
X51400000Y-53600000D01*
X51450000Y-54690000D02*
X51400000Y-54640000D01*
X51674468Y-51340000D02*
X51357234Y-51657234D01*
X52050000Y-51340000D02*
X51674468Y-51340000D01*
X32640000Y-36240000D02*
X32600000Y-36200000D01*
X32640000Y-37100000D02*
X32640000Y-36240000D01*
%TO.N,/Bus/GBUS_5V_SCL*%
X42690000Y-70990000D02*
X41890900Y-70990000D01*
X43150000Y-71450000D02*
X42690000Y-70990000D01*
X43150000Y-72150000D02*
X43150000Y-71450000D01*
X42600000Y-72700000D02*
X43150000Y-72150000D01*
X40750000Y-76600000D02*
X42600000Y-74750000D01*
X41471382Y-83117500D02*
X40750000Y-82396118D01*
X40750000Y-82396118D02*
X40750000Y-76600000D01*
X52617500Y-83117500D02*
X41471382Y-83117500D01*
X42600000Y-74750000D02*
X42600000Y-72700000D01*
X55000000Y-88800000D02*
X55000000Y-85500000D01*
X55000000Y-85500000D02*
X52617500Y-83117500D01*
%TO.N,/Bus/~{GBUS_5V_INT}*%
X37660000Y-68380000D02*
X37700000Y-68420000D01*
X36237500Y-68380000D02*
X37660000Y-68380000D01*
%TO.N,/GBUS.~{INT}*%
X32730000Y-67430000D02*
X33962500Y-67430000D01*
D72*
%TO.N,GND*%
X36237500Y-66137500D02*
X36200000Y-66100000D01*
X36237500Y-67430000D02*
X36237500Y-66137500D01*
%TO.N,+5V*%
X38700000Y-69400000D02*
X39340000Y-70040000D01*
X37700000Y-67500000D02*
X38700000Y-68500000D01*
X39340000Y-70040000D02*
X39552500Y-70040000D01*
X37700000Y-67400000D02*
X37700000Y-67500000D01*
X38700000Y-68500000D02*
X38700000Y-69400000D01*
D70*
%TO.N,/Bus/~{GBUS_5V_INT}*%
X44900000Y-84550000D02*
X41000000Y-84550000D01*
X46000000Y-85650000D02*
X44900000Y-84550000D01*
X41000000Y-84550000D02*
X37700000Y-81250000D01*
X37700000Y-81250000D02*
X37700000Y-68420000D01*
X46000000Y-88800000D02*
X46000000Y-85650000D01*
D71*
%TO.N,+3V3*%
X36100000Y-52300000D02*
X36500000Y-51900000D01*
X38000000Y-51900000D02*
X39450000Y-50450000D01*
X36100000Y-53000000D02*
X36100000Y-52300000D01*
X36500000Y-51900000D02*
X38000000Y-51900000D01*
X35187500Y-53912500D02*
X36100000Y-53000000D01*
X39450000Y-50450000D02*
X39450000Y-49910000D01*
X35187500Y-58100000D02*
X35187500Y-53912500D01*
X41800000Y-58700000D02*
X42300000Y-58200000D01*
X38500000Y-58700000D02*
X41800000Y-58700000D01*
X42300000Y-58200000D02*
X42300000Y-54500000D01*
X42300000Y-54500000D02*
X41750000Y-53950000D01*
X37900000Y-58100000D02*
X38500000Y-58700000D01*
X41750000Y-53950000D02*
X41000000Y-53950000D01*
X35187500Y-58100000D02*
X37900000Y-58100000D01*
D70*
%TO.N,/Bus/GBUS_5V_SDA*%
X39400000Y-82300000D02*
X39400000Y-73300000D01*
X41319800Y-84219800D02*
X39400000Y-82300000D01*
X52519800Y-84219800D02*
X41319800Y-84219800D01*
X54000000Y-88800000D02*
X54000000Y-85700000D01*
X54000000Y-85700000D02*
X52519800Y-84219800D01*
%TO.N,/Bus/~{GBUS_5V_RESET}*%
X40150000Y-82450000D02*
X40150000Y-73300000D01*
X41391700Y-83691700D02*
X40150000Y-82450000D01*
X48450000Y-83691700D02*
X41391700Y-83691700D01*
D71*
%TO.N,GND*%
X41090000Y-68590000D02*
X40800000Y-68300000D01*
X42025000Y-68590000D02*
X41090000Y-68590000D01*
D70*
%TO.N,+5V*%
X42890000Y-61490000D02*
X42025000Y-61490000D01*
X43200000Y-64800000D02*
X43200000Y-61800000D01*
X42910000Y-65090000D02*
X43200000Y-64800000D01*
X42025000Y-65090000D02*
X42910000Y-65090000D01*
X43200000Y-61800000D02*
X42890000Y-61490000D01*
%TO.N,+3V3*%
X54600000Y-81137500D02*
X54537500Y-81200000D01*
X54600000Y-78900000D02*
X54600000Y-81137500D01*
D73*
%TO.N,+5V*%
X55100000Y-76900000D02*
X57962500Y-76900000D01*
X53000000Y-74800000D02*
X55100000Y-76900000D01*
X53400000Y-67500000D02*
X53000000Y-67900000D01*
X53000000Y-67900000D02*
X53000000Y-71700000D01*
X54150000Y-66750000D02*
X53400000Y-67500000D01*
X54712500Y-66750000D02*
X54150000Y-66750000D01*
D70*
%TO.N,GND*%
X64200000Y-67487500D02*
X64200000Y-68600000D01*
X63512500Y-66800000D02*
X64200000Y-67487500D01*
%TO.N,/GBUS.~{INT}*%
X32100000Y-66800000D02*
X32100000Y-58626503D01*
X32730000Y-67430000D02*
X32100000Y-66800000D01*
X32100000Y-58626503D02*
X32126503Y-58600000D01*
X35845000Y-35845000D02*
X35150000Y-35845000D01*
X36900000Y-36900000D02*
X35845000Y-35845000D01*
X36900000Y-47800000D02*
X36900000Y-36900000D01*
X36900000Y-51300000D02*
X36900000Y-49500000D01*
%TO.N,/GBUS.DETECT*%
X36600000Y-37900000D02*
X35815000Y-37115000D01*
X36600000Y-46900000D02*
X36600000Y-37900000D01*
X36100000Y-47400000D02*
X36600000Y-46900000D01*
X36100000Y-47800000D02*
X36100000Y-47400000D01*
X35815000Y-37115000D02*
X35150000Y-37115000D01*
X36100000Y-51244000D02*
X36100000Y-49500000D01*
X31600000Y-83400000D02*
X31400000Y-83200000D01*
X34100000Y-85900000D02*
X31600000Y-83400000D01*
X37500000Y-85900000D02*
X34100000Y-85900000D01*
X31400000Y-83200000D02*
X31400000Y-58600000D01*
X39550000Y-85900000D02*
X37500000Y-85900000D01*
X41000000Y-87350000D02*
X39550000Y-85900000D01*
X41000000Y-88800000D02*
X41000000Y-87350000D01*
%TO.N,/~{ESP23_EN}*%
X42365000Y-32035000D02*
X35150000Y-32035000D01*
X55300000Y-28500000D02*
X45900000Y-28500000D01*
X45900000Y-28500000D02*
X42365000Y-32035000D01*
X60537500Y-39937500D02*
X61000000Y-40400000D01*
X59990000Y-39937500D02*
X60537500Y-39937500D01*
%TO.N,/~{I2C_INT}*%
X25350000Y-60400000D02*
X27400000Y-60400000D01*
X27400000Y-60400000D02*
X27400000Y-70200000D01*
X25350000Y-73400000D02*
X27400000Y-73400000D01*
X47950000Y-49200000D02*
X48350000Y-48800000D01*
X47200000Y-49200000D02*
X47950000Y-49200000D01*
%TO.N,/ESP32_IO2*%
X49620000Y-48380000D02*
X49620000Y-47255000D01*
X49300000Y-48700000D02*
X49620000Y-48380000D01*
X30726503Y-87273497D02*
X30726503Y-56700000D01*
X30500000Y-87500000D02*
X30726503Y-87273497D01*
X28515000Y-89485000D02*
X30500000Y-87500000D01*
X22505000Y-89485000D02*
X28515000Y-89485000D01*
%TO.N,/ESP32_IO14*%
X32765000Y-44735000D02*
X35150000Y-44735000D01*
X32400000Y-45100000D02*
X32765000Y-44735000D01*
X30000000Y-84100000D02*
X30000000Y-56700000D01*
X29600000Y-84500000D02*
X30000000Y-84100000D01*
X28115000Y-85985000D02*
X29600000Y-84500000D01*
X22505000Y-85985000D02*
X28115000Y-85985000D01*
%TO.N,/ESP32_IO26*%
X32605000Y-42195000D02*
X35150000Y-42195000D01*
X31800000Y-43000000D02*
X32605000Y-42195000D01*
X29226503Y-80973497D02*
X29226503Y-56700000D01*
X28600000Y-81600000D02*
X29226503Y-80973497D01*
X27715000Y-82485000D02*
X28600000Y-81600000D01*
X22505000Y-82485000D02*
X27715000Y-82485000D01*
%TO.N,/ESP32_IO25*%
X32375000Y-40925000D02*
X35150000Y-40925000D01*
X31200000Y-42100000D02*
X32375000Y-40925000D01*
X28500000Y-77700000D02*
X28500000Y-56700000D01*
X27215000Y-78985000D02*
X28400000Y-77800000D01*
X22505000Y-78985000D02*
X27215000Y-78985000D01*
X28400000Y-77800000D02*
X28500000Y-77700000D01*
%TO.N,GND*%
X53500000Y-63200000D02*
X53200000Y-63500000D01*
X54750000Y-63200000D02*
X53500000Y-63200000D01*
X52810000Y-78900000D02*
X53600000Y-78900000D01*
%TO.N,Net-(D6-Pad1)*%
X51790000Y-80327500D02*
X52662500Y-81200000D01*
X51790000Y-78900000D02*
X51790000Y-80327500D01*
%TO.N,Net-(D1-Pad1)*%
X51002894Y-73500000D02*
X49200000Y-75302894D01*
X62100000Y-73500000D02*
X51002894Y-73500000D01*
X63700000Y-71900000D02*
X62100000Y-73500000D01*
X49200000Y-75302894D02*
X49200000Y-81162500D01*
X49200000Y-81162500D02*
X49237500Y-81200000D01*
%TO.N,Net-(D1-Pad2)*%
X47362500Y-81162500D02*
X47362500Y-81200000D01*
X45100000Y-78900000D02*
X47362500Y-81162500D01*
X44820000Y-78900000D02*
X45100000Y-78900000D01*
X44337500Y-79382500D02*
X44337500Y-81150000D01*
X44820000Y-78900000D02*
X44337500Y-79382500D01*
%TO.N,Net-(D1-Pad1)*%
X66700000Y-64200000D02*
X66700000Y-68900000D01*
X66700000Y-68900000D02*
X65600000Y-70000000D01*
X66400000Y-63900000D02*
X66700000Y-64200000D01*
X65337500Y-63900000D02*
X66400000Y-63900000D01*
D71*
%TO.N,VBUS*%
X43800000Y-78500000D02*
X43800000Y-78900000D01*
X44400000Y-77900000D02*
X43800000Y-78500000D01*
X46100000Y-77900000D02*
X44400000Y-77900000D01*
X50900000Y-73100000D02*
X46100000Y-77900000D01*
X61200000Y-73100000D02*
X50900000Y-73100000D01*
X63000000Y-71300000D02*
X61200000Y-73100000D01*
X65412500Y-68887500D02*
X64900000Y-69400000D01*
X65412500Y-66800000D02*
X65412500Y-68887500D01*
%TO.N,GND*%
X66450000Y-40650000D02*
X65630000Y-40650000D01*
X66500000Y-40600000D02*
X66450000Y-40650000D01*
X67785000Y-37705000D02*
X68700000Y-38620000D01*
X67785000Y-37550000D02*
X67785000Y-37705000D01*
X59020000Y-39820000D02*
X59020000Y-41500000D01*
X63950000Y-35650000D02*
X64700000Y-36400000D01*
X63950000Y-35300000D02*
X63950000Y-35650000D01*
D73*
%TO.N,VBUS*%
X63950000Y-32450000D02*
X64200000Y-32200000D01*
D71*
%TO.N,GND*%
X59480000Y-28220000D02*
X59500000Y-28200000D01*
X59480000Y-28990000D02*
X59480000Y-28220000D01*
%TO.N,+3V3*%
X48260000Y-49910000D02*
X48350000Y-49820000D01*
X39450000Y-49910000D02*
X48260000Y-49910000D01*
X33580000Y-29480000D02*
X33580000Y-29900000D01*
X32800000Y-28700000D02*
X33580000Y-29480000D01*
X30700000Y-29500000D02*
X31500000Y-28700000D01*
X30700000Y-32200000D02*
X30700000Y-29500000D01*
X31500000Y-28700000D02*
X32800000Y-28700000D01*
X32570000Y-33000000D02*
X31500000Y-33000000D01*
X31500000Y-33000000D02*
X30700000Y-32200000D01*
D72*
%TO.N,GND*%
X32620000Y-32000000D02*
X31500000Y-32000000D01*
%TO.N,+3V3*%
X26800000Y-41320000D02*
X27300000Y-41820000D01*
X26800000Y-40500000D02*
X26800000Y-41320000D01*
X25800000Y-40000000D02*
X26300000Y-40000000D01*
X26300000Y-40000000D02*
X26800000Y-40500000D01*
X25100000Y-40700000D02*
X25800000Y-40000000D01*
X27300000Y-41820000D02*
X27300000Y-39300000D01*
X25800000Y-34500000D02*
X24400000Y-33100000D01*
X27100000Y-34500000D02*
X25800000Y-34500000D01*
X27300000Y-39300000D02*
X27700000Y-38900000D01*
X27700000Y-38900000D02*
X27700000Y-35100000D01*
X27700000Y-35100000D02*
X27100000Y-34500000D01*
X24400000Y-33100000D02*
X23660000Y-33100000D01*
X27393000Y-41820000D02*
X27300000Y-41820000D01*
X27873000Y-42300000D02*
X27393000Y-41820000D01*
X27873000Y-43710475D02*
X27873000Y-42300000D01*
X27133475Y-44450000D02*
X27873000Y-43710475D01*
X26560000Y-44450000D02*
X27133475Y-44450000D01*
%TO.N,GND*%
X27300000Y-42780000D02*
X27300000Y-43500000D01*
X22350000Y-42750000D02*
X22400000Y-42800000D01*
X22350000Y-41700000D02*
X22350000Y-42750000D01*
X25525000Y-41375000D02*
X26000000Y-40900000D01*
X26000000Y-40900000D02*
X26000000Y-40600000D01*
X25525000Y-41800000D02*
X25525000Y-41375000D01*
X25280000Y-30620000D02*
X25280000Y-31700000D01*
X25300000Y-30600000D02*
X25280000Y-30620000D01*
X26200000Y-38400000D02*
X27000000Y-38400000D01*
X36705000Y-52695000D02*
X36700000Y-52700000D01*
X38255000Y-52695000D02*
X36705000Y-52695000D01*
X31480000Y-54680000D02*
X31480000Y-55540000D01*
%TO.N,+BATT*%
X35187500Y-60000000D02*
X36700000Y-60000000D01*
D71*
%TO.N,GND*%
X45690000Y-63190000D02*
X45700000Y-63200000D01*
X44300000Y-63190000D02*
X45690000Y-63190000D01*
X44300000Y-59300000D02*
X43800000Y-58800000D01*
X44300000Y-59590000D02*
X44300000Y-59300000D01*
D73*
%TO.N,+5V*%
X39540000Y-72050000D02*
X39540000Y-70052500D01*
X39540000Y-70052500D02*
X39552500Y-70040000D01*
D70*
%TO.N,Net-(D2-Pad1)*%
X43000000Y-77300000D02*
X42462500Y-77837500D01*
X42462500Y-77837500D02*
X42462500Y-81150000D01*
X46100000Y-77300000D02*
X43000000Y-77300000D01*
X52500000Y-70900000D02*
X46100000Y-77300000D01*
X52500000Y-65500000D02*
X52500000Y-70900000D01*
X58700000Y-64000000D02*
X58300000Y-64000000D01*
X58300000Y-64000000D02*
X57000000Y-65300000D01*
X61818460Y-64000000D02*
X58700000Y-64000000D01*
X62868460Y-62950000D02*
X61818460Y-64000000D01*
X63062500Y-62950000D02*
X62868460Y-62950000D01*
%TO.N,GND*%
X64100000Y-63500000D02*
X64100000Y-61487500D01*
X63700000Y-63900000D02*
X64100000Y-63500000D01*
X64100000Y-61487500D02*
X63962500Y-61350000D01*
X63062500Y-63900000D02*
X63700000Y-63900000D01*
X60912500Y-63000000D02*
X60912500Y-62987500D01*
X60912500Y-62987500D02*
X62200000Y-61700000D01*
X63612500Y-61700000D02*
X62200000Y-61700000D01*
X63962500Y-61350000D02*
X63612500Y-61700000D01*
D73*
%TO.N,+3V3*%
X61212500Y-68700000D02*
X61312500Y-68600000D01*
D72*
X22090000Y-38400000D02*
X22090000Y-34670000D01*
X24875000Y-41800000D02*
X24875000Y-40925000D01*
X35015000Y-30900000D02*
X35150000Y-30765000D01*
D73*
X63100000Y-68600000D02*
X61312500Y-68600000D01*
D72*
X33580000Y-29900000D02*
X33580000Y-30900000D01*
X22100000Y-38410000D02*
X22090000Y-38400000D01*
X27280000Y-41800000D02*
X27300000Y-41820000D01*
X22350000Y-39800000D02*
X22100000Y-39550000D01*
X33580000Y-30900000D02*
X35015000Y-30900000D01*
X26175000Y-41800000D02*
X27280000Y-41800000D01*
X23660000Y-32360000D02*
X24320000Y-31700000D01*
X23660000Y-33100000D02*
X23660000Y-32360000D01*
X22100000Y-39550000D02*
X22100000Y-38410000D01*
D73*
X66862500Y-72362500D02*
X63100000Y-68600000D01*
D72*
X24875000Y-40925000D02*
X25100000Y-40700000D01*
X22090000Y-34670000D02*
X23660000Y-33100000D01*
D73*
X66862500Y-77060000D02*
X66862500Y-72362500D01*
X59112500Y-68700000D02*
X61212500Y-68700000D01*
D72*
%TO.N,GND*%
X26175000Y-43175000D02*
X26175000Y-43400000D01*
D70*
X47170000Y-72270000D02*
X46000000Y-72270000D01*
D72*
X25280000Y-31700000D02*
X25650000Y-31700000D01*
X25525000Y-41800000D02*
X25525000Y-42525000D01*
D70*
X63412500Y-66700000D02*
X63512500Y-66800000D01*
D72*
X25650000Y-31700000D02*
X26200000Y-32250000D01*
X32620000Y-32000000D02*
X32620000Y-29900000D01*
D70*
X45937500Y-73550000D02*
X45937500Y-72332500D01*
D72*
X26680000Y-43400000D02*
X27300000Y-42780000D01*
X26200000Y-32250000D02*
X26200000Y-33100000D01*
X25525000Y-42525000D02*
X26175000Y-43175000D01*
D70*
X61312500Y-66700000D02*
X63412500Y-66700000D01*
D72*
X61980000Y-34300000D02*
X60030000Y-34300000D01*
D70*
X45937500Y-72332500D02*
X46000000Y-72270000D01*
X58150000Y-72050000D02*
X57310000Y-72050000D01*
D72*
X60030000Y-34300000D02*
X59530000Y-33800000D01*
X26175000Y-43400000D02*
X26680000Y-43400000D01*
D73*
%TO.N,VBUS*%
X60850000Y-50400000D02*
X60850000Y-47450000D01*
X63750000Y-33300000D02*
X63750000Y-32650000D01*
X68879501Y-36420499D02*
X68550000Y-36750000D01*
X62740000Y-52440000D02*
X65400000Y-55100000D01*
X63200000Y-45100000D02*
X71350000Y-45100000D01*
X73050000Y-43400000D02*
X73050000Y-40400000D01*
X65400000Y-55100000D02*
X69550000Y-55100000D01*
X68581761Y-31850000D02*
X67785000Y-31850000D01*
X73050000Y-40400000D02*
X70450000Y-37800000D01*
X69100000Y-36200000D02*
X69950000Y-36200000D01*
X65412500Y-66800000D02*
X65412500Y-64925000D01*
X64200000Y-32200000D02*
X66742500Y-32200000D01*
X65412500Y-64925000D02*
X65337500Y-64850000D01*
X66742500Y-32200000D02*
X67092500Y-31850000D01*
X67092500Y-31850000D02*
X67785000Y-31850000D01*
X70450000Y-37800000D02*
X70450000Y-37321761D01*
X68550000Y-36750000D02*
X69100000Y-36200000D01*
X69950000Y-36200000D02*
X70700000Y-35450000D01*
X61150000Y-52440000D02*
X62740000Y-52440000D01*
X70700000Y-33100000D02*
X69950000Y-32350000D01*
X71350000Y-45100000D02*
X73050000Y-43400000D01*
X61150000Y-50700000D02*
X60850000Y-50400000D01*
X69548738Y-36420499D02*
X68879501Y-36420499D01*
X67785000Y-36750000D02*
X68550000Y-36750000D01*
X63350000Y-30400000D02*
X63350000Y-29400000D01*
X60850000Y-47450000D02*
X63200000Y-45100000D01*
X70700000Y-35450000D02*
X70700000Y-33100000D01*
X69081761Y-32350000D02*
X68581761Y-31850000D01*
X69950000Y-32350000D02*
X69081761Y-32350000D01*
X70450000Y-37321761D02*
X69548738Y-36420499D01*
X63750000Y-32650000D02*
X63950000Y-32450000D01*
X61150000Y-52440000D02*
X61150000Y-50700000D01*
%TO.N,+BATT*%
X59300000Y-64900000D02*
X60912500Y-64900000D01*
X60912500Y-64900000D02*
X63012500Y-64900000D01*
X63012500Y-64900000D02*
X63062500Y-64850000D01*
%TO.N,+5V*%
X54712500Y-65137500D02*
X54750000Y-65100000D01*
X54712500Y-66750000D02*
X54712500Y-67012500D01*
X54712500Y-67012500D02*
X56300000Y-68600000D01*
X54712500Y-66750000D02*
X54712500Y-65137500D01*
X54750000Y-65100000D02*
X57050000Y-62800000D01*
X57050000Y-62800000D02*
X57050000Y-61550000D01*
D70*
%TO.N,/~{ESP23_EN}*%
X59980000Y-41500000D02*
X59980000Y-39947500D01*
X59980000Y-39947500D02*
X59990000Y-39937500D01*
X33590000Y-32010000D02*
X33580000Y-32000000D01*
X64275000Y-41500000D02*
X65575000Y-42800000D01*
X33580000Y-32000000D02*
X33615000Y-32035000D01*
X59980000Y-41500000D02*
X64275000Y-41500000D01*
X33615000Y-32035000D02*
X35150000Y-32035000D01*
X33590000Y-33000000D02*
X33590000Y-32010000D01*
D71*
%TO.N,Net-(C11-Pad2)*%
X56290000Y-71000000D02*
X56290000Y-70030000D01*
X56320000Y-70000000D02*
X54970000Y-68650000D01*
D70*
X56290000Y-72050000D02*
X56290000Y-71000000D01*
D71*
X54970000Y-68650000D02*
X54712500Y-68650000D01*
X56290000Y-70030000D02*
X56320000Y-70000000D01*
D70*
%TO.N,Net-(C15-Pad1)*%
X33300000Y-56500000D02*
X33305000Y-56505000D01*
X33312500Y-56512500D02*
X33305000Y-56505000D01*
X33312500Y-59050000D02*
X33312500Y-56512500D01*
X31480000Y-56500000D02*
X33300000Y-56500000D01*
%TO.N,/GBUS.DETECT*%
X33600000Y-37100000D02*
X33615000Y-37115000D01*
X33600000Y-38100000D02*
X33600000Y-37100000D01*
X33615000Y-37115000D02*
X35150000Y-37115000D01*
D72*
%TO.N,Net-(C24-Pad1)*%
X61980000Y-32800000D02*
X62700000Y-32800000D01*
X63350000Y-32150000D02*
X63350000Y-31400000D01*
X62700000Y-32800000D02*
X63350000Y-32150000D01*
D74*
%TO.N,Net-(D3-Pad2)*%
X61450000Y-59940000D02*
X69335000Y-59940000D01*
D73*
X69335000Y-59940000D02*
X69725000Y-59550000D01*
D70*
%TO.N,/USB SERIAL/USBD_P*%
X64251999Y-34427000D02*
X63386688Y-34427000D01*
X69050000Y-33560000D02*
X67795000Y-33560000D01*
X66450000Y-34550000D02*
X67785000Y-34550000D01*
X65124999Y-35300000D02*
X64251999Y-34427000D01*
X67795000Y-33560000D02*
X67785000Y-33550000D01*
X65650000Y-35300000D02*
X65700000Y-35300000D01*
X67785000Y-34550000D02*
X69000000Y-34550000D01*
X63386688Y-34427000D02*
X62759688Y-33800000D01*
X65650000Y-35300000D02*
X65124999Y-35300000D01*
X62759688Y-33800000D02*
X61980000Y-33800000D01*
X65700000Y-35300000D02*
X66450000Y-34550000D01*
%TO.N,/USB SERIAL/USBD_N*%
X67785000Y-35050000D02*
X69400000Y-35050000D01*
X63491898Y-34173000D02*
X62618898Y-33300000D01*
X69550000Y-34250000D02*
X69350000Y-34050000D01*
X65124999Y-33300000D02*
X64251999Y-34173000D01*
X69400000Y-35050000D02*
X69550000Y-34900000D01*
X62618898Y-33300000D02*
X61980000Y-33300000D01*
X69350000Y-34050000D02*
X67785000Y-34050000D01*
X65650000Y-33300000D02*
X65124999Y-33300000D01*
X64251999Y-34173000D02*
X63491898Y-34173000D01*
X65650000Y-33300000D02*
X65700000Y-33300000D01*
X66450000Y-34050000D02*
X67785000Y-34050000D01*
X65700000Y-33300000D02*
X66450000Y-34050000D01*
X69550000Y-34900000D02*
X69550000Y-34250000D01*
%TO.N,/I2C_SDA*%
X39460000Y-48880000D02*
X39460000Y-47255000D01*
X33305000Y-50095000D02*
X34510000Y-48890000D01*
X23800000Y-48350000D02*
X23800000Y-45159210D01*
X25300000Y-39400000D02*
X24800000Y-39900000D01*
X33305000Y-52695000D02*
X33305000Y-50095000D01*
X23604000Y-42004000D02*
X24875000Y-43275000D01*
X24400000Y-56400000D02*
X25350000Y-56400000D01*
X31900000Y-51290000D02*
X33305000Y-52695000D01*
X31355000Y-52695000D02*
X33305000Y-52695000D01*
X24875000Y-44084210D02*
X24875000Y-43400000D01*
X24610000Y-49160000D02*
X23800000Y-48350000D01*
X24875000Y-43275000D02*
X24875000Y-43400000D01*
X39450000Y-48890000D02*
X39460000Y-48880000D01*
X31900000Y-50140000D02*
X31900000Y-51290000D01*
X24800000Y-39900000D02*
X24099673Y-39900000D01*
X26200000Y-35800000D02*
X25250000Y-36750000D01*
X25350000Y-56400000D02*
X27650000Y-56400000D01*
X23800000Y-45159210D02*
X24875000Y-44084210D01*
X26200000Y-39400000D02*
X25300000Y-39400000D01*
X23150000Y-67200000D02*
X23150000Y-57650000D01*
X31900000Y-49160000D02*
X24610000Y-49160000D01*
X25350000Y-69400000D02*
X23150000Y-67200000D01*
X23150000Y-57650000D02*
X24400000Y-56400000D01*
X24099673Y-39900000D02*
X23604000Y-40395673D01*
X25250000Y-38750000D02*
X25900000Y-39400000D01*
X34510000Y-48890000D02*
X39450000Y-48890000D01*
X23604000Y-40395673D02*
X23604000Y-42004000D01*
X25250000Y-36750000D02*
X25250000Y-38750000D01*
X25900000Y-39400000D02*
X26200000Y-39400000D01*
X27650000Y-56400000D02*
X31355000Y-52695000D01*
%TO.N,/I2C_SCL*%
X24225000Y-44375000D02*
X23546000Y-45054000D01*
X25350000Y-71400000D02*
X27050000Y-71400000D01*
X23546000Y-48455210D02*
X24740790Y-49650000D01*
X33510000Y-46000000D02*
X33515000Y-46005000D01*
X23546000Y-45054000D02*
X23546000Y-48455210D01*
X28050000Y-59450000D02*
X27000000Y-58400000D01*
X27796000Y-56654000D02*
X30485000Y-53965000D01*
X23350000Y-42525000D02*
X24225000Y-43400000D01*
X24200000Y-39400000D02*
X23350000Y-40250000D01*
X24225000Y-43400000D02*
X24225000Y-44375000D01*
X28050000Y-70400000D02*
X28050000Y-59450000D01*
X25350000Y-58400000D02*
X27096000Y-56654000D01*
X34635000Y-53965000D02*
X33305000Y-53965000D01*
X30485000Y-53965000D02*
X33305000Y-53965000D01*
X27000000Y-58400000D02*
X25350000Y-58400000D01*
X23660000Y-35800000D02*
X23850000Y-35800000D01*
X32200000Y-49650000D02*
X33510000Y-48340000D01*
X35100000Y-53500000D02*
X34635000Y-53965000D01*
X24850000Y-38750000D02*
X24200000Y-39400000D01*
X27096000Y-56654000D02*
X27796000Y-56654000D01*
X24850000Y-36800000D02*
X24850000Y-38750000D01*
X23850000Y-35800000D02*
X24850000Y-36800000D01*
X35150000Y-47800000D02*
X35150000Y-46005000D01*
X23350000Y-40250000D02*
X23350000Y-42525000D01*
X33515000Y-46005000D02*
X35150000Y-46005000D01*
X27050000Y-71400000D02*
X28050000Y-70400000D01*
X35100000Y-49500000D02*
X35100000Y-53500000D01*
X33510000Y-48340000D02*
X33510000Y-46000000D01*
X24740790Y-49650000D02*
X32200000Y-49650000D01*
%TO.N,/~{I2C_INT}*%
X48350000Y-48800000D02*
X48350000Y-47255000D01*
%TO.N,/Bus/~{GBUS_5V_RESET}*%
X40810000Y-59590000D02*
X42025000Y-59590000D01*
X39900000Y-60500000D02*
X40810000Y-59590000D01*
X39900000Y-68300000D02*
X39900000Y-60500000D01*
D71*
%TO.N,/Bus/GBUS_5V_SCLK*%
X40600000Y-64250000D02*
X40600000Y-63700000D01*
X40600000Y-63700000D02*
X41110000Y-63190000D01*
X41110000Y-63190000D02*
X42025000Y-63190000D01*
%TO.N,/Bus/GBUS_5V_MISO*%
X43050000Y-68100000D02*
X42590000Y-67640000D01*
X42000000Y-69750000D02*
X42062921Y-69750000D01*
X42590000Y-67640000D02*
X42025000Y-67640000D01*
X42062921Y-69750000D02*
X43050000Y-68762921D01*
X43050000Y-68762921D02*
X43050000Y-68100000D01*
%TO.N,/Bus/GBUS_5V_SCL*%
X41890900Y-70990000D02*
X40622500Y-70990000D01*
X40622500Y-70990000D02*
X40572500Y-71040000D01*
%TO.N,/Bus/GBUS_5V_SDA*%
X40572500Y-70040000D02*
X41440901Y-70040000D01*
X40300000Y-69050000D02*
X40572500Y-69322500D01*
X40572500Y-69322500D02*
X40572500Y-70040000D01*
X41440901Y-70040000D02*
X41890900Y-70489999D01*
X39750000Y-69050000D02*
X40300000Y-69050000D01*
%TO.N,/Bus/GBUS_5V_MOSI*%
X44000000Y-88800000D02*
X44000000Y-85700000D01*
X44000000Y-73887500D02*
X43662500Y-73550000D01*
X44000000Y-74550000D02*
X44000000Y-73887500D01*
D70*
%TO.N,Net-(Q1-Pad1)*%
X60940000Y-38062500D02*
X61842500Y-38062500D01*
X61842500Y-38062500D02*
X62290000Y-38510000D01*
%TO.N,/USB SERIAL/RTS*%
X59412500Y-38062500D02*
X61850000Y-40500000D01*
X59040000Y-36260000D02*
X59030000Y-36250000D01*
X61850000Y-40500000D02*
X62280000Y-40500000D01*
X59040000Y-38062500D02*
X59412500Y-38062500D01*
X59040000Y-38062500D02*
X59040000Y-36260000D01*
%TO.N,Net-(Q2-Pad1)*%
X65187500Y-36962500D02*
X65640000Y-36962500D01*
X63300000Y-40500000D02*
X63300000Y-38850000D01*
X63300000Y-38850000D02*
X65187500Y-36962500D01*
%TO.N,/USB SERIAL/DTR*%
X61800000Y-37000000D02*
X61250000Y-37000000D01*
X62290000Y-37490000D02*
X63212500Y-37490000D01*
X61030000Y-36780000D02*
X61030000Y-36250000D01*
X62290000Y-37490000D02*
X61800000Y-37000000D01*
X63212500Y-37490000D02*
X63740000Y-36962500D01*
X61250000Y-37000000D02*
X61030000Y-36780000D01*
%TO.N,/ESP32_IO0*%
X64670000Y-40650000D02*
X64670000Y-38857500D01*
X70900000Y-43675000D02*
X70900000Y-43700000D01*
X63250000Y-43700000D02*
X60945000Y-46005000D01*
X71775000Y-42800000D02*
X70900000Y-43675000D01*
X65400000Y-41500000D02*
X70700000Y-41500000D01*
X60945000Y-46005000D02*
X52650000Y-46005000D01*
X71775000Y-42575000D02*
X71775000Y-42800000D01*
X70900000Y-43700000D02*
X63250000Y-43700000D01*
X64670000Y-40650000D02*
X64670000Y-40770000D01*
X70700000Y-41500000D02*
X71775000Y-42575000D01*
X64670000Y-40770000D02*
X65400000Y-41500000D01*
X64670000Y-38857500D02*
X64690000Y-38837500D01*
%TO.N,Net-(R1-Pad1)*%
X65337500Y-62950000D02*
X65337500Y-61625000D01*
X65337500Y-61625000D02*
X65612500Y-61350000D01*
%TO.N,Net-(R3-Pad2)*%
X53609999Y-52819999D02*
X53150000Y-52360000D01*
X53609999Y-53439998D02*
X53609999Y-52819999D01*
X52050000Y-52360000D02*
X53150000Y-52360000D01*
D72*
%TO.N,Net-(R12-Pad2)*%
X23110000Y-38400000D02*
X24200000Y-38400000D01*
D70*
%TO.N,/~{RTC_INT}*%
X42000000Y-51150000D02*
X49200000Y-51150000D01*
X51050000Y-49300000D02*
X51050000Y-43950000D01*
X49200000Y-51150000D02*
X51050000Y-49300000D01*
X51050000Y-43950000D02*
X51535000Y-43465000D01*
X38255000Y-53965000D02*
X39965000Y-53965000D01*
X39980000Y-53950000D02*
X39980000Y-53170000D01*
X39980000Y-53170000D02*
X42000000Y-51150000D01*
X51535000Y-43465000D02*
X52650000Y-43465000D01*
X39965000Y-53965000D02*
X39980000Y-53950000D01*
%TO.N,Net-(R14-Pad2)*%
X24225000Y-41425000D02*
X24080000Y-41280000D01*
X24225000Y-41800000D02*
X24225000Y-41425000D01*
X24080000Y-41280000D02*
X24080000Y-40700000D01*
%TO.N,Net-(R15-Pad2)*%
X25540000Y-43415000D02*
X25525000Y-43400000D01*
X25540000Y-44450000D02*
X25540000Y-43415000D01*
%TO.N,/GBUS.~{RESET}*%
X45762500Y-60530000D02*
X45762500Y-55082500D01*
X54350000Y-43500000D02*
X54350000Y-41950000D01*
D71*
X45752500Y-60540000D02*
X45762500Y-60530000D01*
X44300000Y-60540000D02*
X45752500Y-60540000D01*
D70*
X45762500Y-55082500D02*
X54350000Y-46495000D01*
X54350000Y-41950000D02*
X53400000Y-41000000D01*
%TO.N,Net-(R23-Pad1)*%
X60530000Y-31350000D02*
X60530000Y-30010000D01*
%TO.N,Net-(R24-Pad2)*%
X59480000Y-30630000D02*
X59530000Y-30680000D01*
X59530000Y-30680000D02*
X59530000Y-31350000D01*
X59480000Y-30010000D02*
X59480000Y-30630000D01*
%TO.N,/GBUS.CLK*%
X47800000Y-63050000D02*
X48050000Y-62800000D01*
X46710000Y-64140000D02*
X47800000Y-63050000D01*
X48050000Y-62800000D02*
X48050000Y-54000000D01*
X48050000Y-54000000D02*
X48050000Y-53545000D01*
X48050000Y-53545000D02*
X55100000Y-46495000D01*
X44300000Y-64140000D02*
X46710000Y-64140000D01*
X55100000Y-43500000D02*
X55100000Y-41400000D01*
X55100000Y-41400000D02*
X53400000Y-39700000D01*
%TO.N,/GBUS.MISO*%
X55826503Y-40976503D02*
X53400000Y-38550000D01*
X44300000Y-68590000D02*
X46760000Y-68590000D01*
X49400000Y-53650000D02*
X49400000Y-52921503D01*
X49400000Y-65950000D02*
X49400000Y-53650000D01*
X55826503Y-43500000D02*
X55826503Y-40976503D01*
X46760000Y-68590000D02*
X47350000Y-68000000D01*
X47350000Y-68000000D02*
X49400000Y-65950000D01*
X49400000Y-52921503D02*
X55826503Y-46495000D01*
%TO.N,/GBUS.SCL*%
X56553006Y-40707006D02*
X54600000Y-38754000D01*
X56553006Y-43500000D02*
X56553006Y-40707006D01*
X54600000Y-38754000D02*
X54600000Y-36950000D01*
X45479673Y-70990000D02*
X46119673Y-70350000D01*
X46119673Y-70350000D02*
X47200000Y-70350000D01*
X47200000Y-70350000D02*
X50550000Y-67000000D01*
X50550000Y-67000000D02*
X50550000Y-58800000D01*
X54600000Y-36950000D02*
X53400000Y-35750000D01*
X44634100Y-70990000D02*
X45479673Y-70990000D01*
%TO.N,/TXDO*%
X57900000Y-38526503D02*
X56967293Y-38526503D01*
X55575000Y-34575000D02*
X52650000Y-34575000D01*
X59530000Y-36250000D02*
X59530000Y-37380000D01*
X56046000Y-37605210D02*
X56046000Y-35046000D01*
X56967293Y-38526503D02*
X56046000Y-37605210D01*
X56046000Y-35046000D02*
X55575000Y-34575000D01*
X59530000Y-37380000D02*
X60171483Y-38021483D01*
%TO.N,/RXDO*%
X60200176Y-36950176D02*
X60030000Y-36780000D01*
X56600000Y-37800000D02*
X56300000Y-37500000D01*
X60200176Y-37295547D02*
X60200176Y-36950176D01*
X56300000Y-34200000D02*
X55405000Y-33305000D01*
X56300000Y-37500000D02*
X56300000Y-34200000D01*
X60030000Y-36780000D02*
X60030000Y-36250000D01*
X57900000Y-37800000D02*
X56600000Y-37800000D01*
X55405000Y-33305000D02*
X52650000Y-33305000D01*
%TO.N,/GBUS.SDA*%
X55700000Y-38800000D02*
X55300000Y-38400000D01*
X57300000Y-43500000D02*
X57300000Y-40400000D01*
X54535000Y-32035000D02*
X52650000Y-32035000D01*
X55300000Y-38400000D02*
X55300000Y-35200000D01*
X51300000Y-58823497D02*
X51276503Y-58800000D01*
X57300000Y-40400000D02*
X55700000Y-38800000D01*
X55300000Y-32800000D02*
X54535000Y-32035000D01*
X46900000Y-69900000D02*
X50000000Y-66800000D01*
X44634100Y-70489999D02*
X45224099Y-69900000D01*
X51300000Y-65500000D02*
X51300000Y-58823497D01*
X45224099Y-69900000D02*
X46900000Y-69900000D01*
%TO.N,/GBUS.MOSI*%
X55265000Y-30765000D02*
X52650000Y-30765000D01*
X45937500Y-74500000D02*
X47300000Y-74500000D01*
X52003006Y-69796994D02*
X52003006Y-58800000D01*
X55300000Y-30800000D02*
X55265000Y-30765000D01*
X47300000Y-74500000D02*
X52003006Y-69796994D01*
D73*
%TO.N,Net-(L2-Pad1)*%
X56987500Y-66750000D02*
X59062500Y-66750000D01*
X59062500Y-66750000D02*
X59112500Y-66700000D01*
D70*
%TO.N,Net-(U7-Pad1)*%
X39450000Y-57700000D02*
X40780000Y-57700000D01*
X38255000Y-56505000D02*
X39450000Y-57700000D01*
%TO.N,Net-(U7-Pad2)*%
X38290000Y-55200000D02*
X40780000Y-55200000D01*
X38255000Y-55235000D02*
X38290000Y-55200000D01*
%TD*%
%TA.AperFunction,Conductor*%
%TO.N,GND*%
G36*
X64742121Y-28970002D02*
G01*
X64788614Y-29023658D01*
X64800000Y-29076000D01*
X64800000Y-29450000D01*
X73474000Y-29450000D01*
X73542121Y-29470002D01*
X73588614Y-29523658D01*
X73600000Y-29576000D01*
X73600000Y-30324000D01*
X73579998Y-30392121D01*
X73526342Y-30438614D01*
X73474000Y-30450000D01*
X68750000Y-30450000D01*
X68750000Y-31040845D01*
X68731663Y-31103297D01*
X68732964Y-31104048D01*
X68728837Y-31111196D01*
X68723808Y-31117750D01*
X68686341Y-31208204D01*
X68680990Y-31221121D01*
X68636441Y-31276401D01*
X68569077Y-31298822D01*
X68547322Y-31297071D01*
X68547298Y-31297314D01*
X68541135Y-31296707D01*
X68535067Y-31295500D01*
X67785122Y-31295500D01*
X67034934Y-31295501D01*
X66999182Y-31302612D01*
X66972874Y-31307844D01*
X66972872Y-31307845D01*
X66960699Y-31310266D01*
X66950379Y-31317161D01*
X66950378Y-31317162D01*
X66915358Y-31340562D01*
X66876516Y-31366516D01*
X66820266Y-31450699D01*
X66817846Y-31462866D01*
X66817845Y-31462868D01*
X66817305Y-31465584D01*
X66814495Y-31470955D01*
X66813095Y-31474336D01*
X66812793Y-31474211D01*
X66784398Y-31528494D01*
X66779280Y-31533503D01*
X66741286Y-31568625D01*
X66737630Y-31574919D01*
X66732253Y-31580922D01*
X66595080Y-31718095D01*
X66532768Y-31752121D01*
X66505985Y-31755000D01*
X64233887Y-31755000D01*
X64219077Y-31754127D01*
X64195218Y-31751303D01*
X64195217Y-31751303D01*
X64185864Y-31750196D01*
X64178811Y-31751484D01*
X64111245Y-31733932D01*
X64063088Y-31681764D01*
X64050000Y-31625845D01*
X64050000Y-29076000D01*
X64070002Y-29007879D01*
X64123658Y-28961386D01*
X64176000Y-28950000D01*
X64674000Y-28950000D01*
X64742121Y-28970002D01*
G37*
%TD.AperFunction*%
%TD*%
%TA.AperFunction,Conductor*%
%TO.N,+5V*%
G36*
X58689016Y-75604292D02*
G01*
X58702890Y-75608009D01*
X58763514Y-75644958D01*
X58791991Y-75697110D01*
X58795708Y-75710984D01*
X58800000Y-75743591D01*
X58800000Y-82156409D01*
X58795708Y-82189016D01*
X58791991Y-82202890D01*
X58755042Y-82263514D01*
X58702890Y-82291991D01*
X58689016Y-82295708D01*
X58656409Y-82300000D01*
X58627000Y-82300000D01*
X58619030Y-82302136D01*
X58619027Y-82302136D01*
X58589958Y-82309925D01*
X58563500Y-82317015D01*
X58517015Y-82363500D01*
X58500000Y-82427000D01*
X58500000Y-86673000D01*
X58517015Y-86736500D01*
X58563500Y-86782985D01*
X58589958Y-86790075D01*
X58619027Y-86797864D01*
X58619030Y-86797864D01*
X58627000Y-86800000D01*
X59456409Y-86800000D01*
X59489016Y-86804292D01*
X59502890Y-86808009D01*
X59563514Y-86844958D01*
X59591991Y-86897110D01*
X59595708Y-86910984D01*
X59600000Y-86943591D01*
X59600000Y-90656409D01*
X59595708Y-90689016D01*
X59591991Y-90702890D01*
X59555042Y-90763514D01*
X59502890Y-90791991D01*
X59489016Y-90795708D01*
X59456409Y-90800000D01*
X56743591Y-90800000D01*
X56710984Y-90795708D01*
X56697110Y-90791991D01*
X56636486Y-90755042D01*
X56608009Y-90702890D01*
X56604292Y-90689016D01*
X56600000Y-90656409D01*
X56600000Y-87043591D01*
X56604292Y-87010984D01*
X56608009Y-86997110D01*
X56644958Y-86936486D01*
X56697110Y-86908009D01*
X56710984Y-86904292D01*
X56743591Y-86900000D01*
X57073000Y-86900000D01*
X57080970Y-86897864D01*
X57080973Y-86897864D01*
X57110042Y-86890075D01*
X57136500Y-86882985D01*
X57182985Y-86836500D01*
X57196174Y-86787278D01*
X57197864Y-86780973D01*
X57197864Y-86780970D01*
X57200000Y-86773000D01*
X57200000Y-75743591D01*
X57204292Y-75710984D01*
X57208009Y-75697110D01*
X57244958Y-75636486D01*
X57297110Y-75608009D01*
X57310984Y-75604292D01*
X57343591Y-75600000D01*
X58656409Y-75600000D01*
X58689016Y-75604292D01*
G37*
%TD.AperFunction*%
%TD*%
%TA.AperFunction,Conductor*%
%TO.N,Net-(C6-Pad1)*%
G36*
X53285882Y-51051227D02*
G01*
X53308975Y-51054473D01*
X53329640Y-51057378D01*
X53363355Y-51067047D01*
X53403717Y-51085020D01*
X53419242Y-51093276D01*
X54084495Y-51509060D01*
X54084500Y-51509063D01*
X54088227Y-51511392D01*
X54152823Y-51540157D01*
X54161546Y-51541383D01*
X54161549Y-51541384D01*
X54218482Y-51549387D01*
X54218488Y-51549387D01*
X54222846Y-51550000D01*
X55267610Y-51550000D01*
X55279940Y-51549217D01*
X55295746Y-51548214D01*
X55295752Y-51548213D01*
X55299740Y-51547960D01*
X55303667Y-51547204D01*
X55303672Y-51547203D01*
X55314137Y-51545187D01*
X55331354Y-51541871D01*
X56614792Y-51209128D01*
X56622576Y-51207372D01*
X56625557Y-51206798D01*
X56629184Y-51206099D01*
X56642400Y-51203554D01*
X56658245Y-51201533D01*
X56678405Y-51200253D01*
X56686389Y-51200000D01*
X58183589Y-51200000D01*
X58208171Y-51202421D01*
X58268622Y-51214446D01*
X58314042Y-51233260D01*
X58354766Y-51260471D01*
X58389529Y-51295234D01*
X58416740Y-51335958D01*
X58435554Y-51381378D01*
X58447579Y-51441829D01*
X58450000Y-51466411D01*
X58450000Y-53433589D01*
X58447579Y-53458171D01*
X58435554Y-53518622D01*
X58416740Y-53564042D01*
X58389529Y-53604766D01*
X58354766Y-53639529D01*
X58314042Y-53666740D01*
X58268622Y-53685554D01*
X58208171Y-53697579D01*
X58183589Y-53700000D01*
X56667076Y-53700000D01*
X56663312Y-53699944D01*
X56653777Y-53699659D01*
X56646291Y-53699212D01*
X56636740Y-53698354D01*
X56633076Y-53697969D01*
X56146075Y-53639529D01*
X55580958Y-53571714D01*
X55547195Y-53559229D01*
X55546086Y-53561908D01*
X55534622Y-53557159D01*
X55524302Y-53550264D01*
X55450068Y-53535498D01*
X55430570Y-53535498D01*
X54952253Y-53535499D01*
X54882253Y-53514265D01*
X54845232Y-53489528D01*
X54810471Y-53454766D01*
X54783260Y-53414042D01*
X54764446Y-53368622D01*
X54752421Y-53308171D01*
X54750000Y-53283589D01*
X54750000Y-52838621D01*
X54732154Y-52745093D01*
X54681122Y-52664707D01*
X54604077Y-52608761D01*
X54511845Y-52585115D01*
X54505923Y-52584745D01*
X54505917Y-52584744D01*
X54166994Y-52563562D01*
X54073800Y-52557738D01*
X54028037Y-52546003D01*
X54024014Y-52544111D01*
X53970882Y-52497020D01*
X53960492Y-52476491D01*
X53958769Y-52472141D01*
X53950254Y-52434992D01*
X53950000Y-52431542D01*
X53950000Y-52426905D01*
X53939101Y-52353300D01*
X53907341Y-52286011D01*
X53525404Y-51713106D01*
X53433915Y-51630055D01*
X53418827Y-51626271D01*
X53418826Y-51626271D01*
X53378225Y-51616090D01*
X53314063Y-51600000D01*
X53066411Y-51600000D01*
X53041829Y-51597579D01*
X52981378Y-51585554D01*
X52935958Y-51566740D01*
X52895234Y-51539529D01*
X52860471Y-51504766D01*
X52833260Y-51464042D01*
X52814446Y-51418622D01*
X52802421Y-51358171D01*
X52800000Y-51333589D01*
X52800000Y-51316411D01*
X52802421Y-51291829D01*
X52814446Y-51231378D01*
X52833260Y-51185958D01*
X52860471Y-51145234D01*
X52895234Y-51110471D01*
X52935958Y-51083260D01*
X52981378Y-51064446D01*
X53041829Y-51052421D01*
X53066411Y-51050000D01*
X53268344Y-51050000D01*
X53285882Y-51051227D01*
G37*
%TD.AperFunction*%
%TD*%
%TA.AperFunction,Conductor*%
%TO.N,/BAT*%
G36*
X53882987Y-53864498D02*
G01*
X53929481Y-53918153D01*
X53938446Y-53945915D01*
X53947579Y-53991830D01*
X53950000Y-54016411D01*
X53950000Y-54962590D01*
X53947579Y-54987170D01*
X53938855Y-55031033D01*
X53937763Y-55036521D01*
X53918948Y-55081944D01*
X53898022Y-55113261D01*
X53863261Y-55148022D01*
X53831944Y-55168948D01*
X53786524Y-55187762D01*
X53638896Y-55217127D01*
X53565901Y-55265901D01*
X53517127Y-55338896D01*
X53500000Y-55425000D01*
X53500000Y-57193342D01*
X53519809Y-57291682D01*
X53526864Y-57302076D01*
X53526865Y-57302078D01*
X53572630Y-57369502D01*
X53576147Y-57374683D01*
X55778728Y-59534906D01*
X55854045Y-59580160D01*
X55868857Y-59581225D01*
X55868858Y-59581225D01*
X55901196Y-59583549D01*
X55941686Y-59586459D01*
X56022701Y-59552440D01*
X56079571Y-59485459D01*
X56100000Y-59400000D01*
X56100000Y-59216411D01*
X56102421Y-59191829D01*
X56114446Y-59131378D01*
X56133260Y-59085958D01*
X56160471Y-59045234D01*
X56195234Y-59010471D01*
X56235958Y-58983260D01*
X56281378Y-58964446D01*
X56341829Y-58952421D01*
X56366411Y-58950000D01*
X58533589Y-58950000D01*
X58558171Y-58952421D01*
X58618622Y-58964446D01*
X58664042Y-58983260D01*
X58704766Y-59010471D01*
X58739529Y-59045234D01*
X58766740Y-59085958D01*
X58785554Y-59131378D01*
X58797579Y-59191829D01*
X58800000Y-59216411D01*
X58800000Y-60633589D01*
X58797579Y-60658171D01*
X58785554Y-60718622D01*
X58766740Y-60764042D01*
X58739529Y-60804766D01*
X58704766Y-60839529D01*
X58664042Y-60866740D01*
X58618622Y-60885554D01*
X58558171Y-60897579D01*
X58533589Y-60900000D01*
X56317621Y-60900000D01*
X56293040Y-60897579D01*
X56265499Y-60892101D01*
X56232590Y-60885555D01*
X56187170Y-60866741D01*
X56135920Y-60832497D01*
X56116827Y-60816827D01*
X52679488Y-57379488D01*
X52663818Y-57360395D01*
X52632301Y-57313227D01*
X52613487Y-57267806D01*
X52601207Y-57206067D01*
X52601206Y-57206065D01*
X52600000Y-57200000D01*
X52570711Y-57129289D01*
X52560871Y-57125213D01*
X52511466Y-57104749D01*
X52511465Y-57104749D01*
X52500000Y-57100000D01*
X50966411Y-57100000D01*
X50941829Y-57097579D01*
X50881378Y-57085554D01*
X50835958Y-57066740D01*
X50795234Y-57039529D01*
X50760471Y-57004766D01*
X50733260Y-56964042D01*
X50714446Y-56918622D01*
X50702421Y-56858171D01*
X50700000Y-56833589D01*
X50700000Y-56316411D01*
X50702421Y-56291829D01*
X50714446Y-56231378D01*
X50733260Y-56185958D01*
X50760471Y-56145234D01*
X50795234Y-56110471D01*
X50835958Y-56083260D01*
X50881378Y-56064446D01*
X50941829Y-56052421D01*
X50966411Y-56050000D01*
X52396000Y-56050000D01*
X52426649Y-56043903D01*
X52481033Y-56033086D01*
X52481035Y-56033085D01*
X52493202Y-56030665D01*
X52503517Y-56023773D01*
X52503519Y-56023772D01*
X52565289Y-55982498D01*
X52575605Y-55975605D01*
X52582498Y-55965289D01*
X52623772Y-55903519D01*
X52623773Y-55903517D01*
X52630665Y-55893202D01*
X52650000Y-55796000D01*
X52650000Y-55466411D01*
X52652421Y-55441829D01*
X52664446Y-55381378D01*
X52683260Y-55335958D01*
X52710471Y-55295234D01*
X52745234Y-55260471D01*
X52785958Y-55233260D01*
X52831378Y-55214446D01*
X52891829Y-55202421D01*
X52916411Y-55200000D01*
X52996000Y-55200000D01*
X53026649Y-55193903D01*
X53081033Y-55183086D01*
X53081035Y-55183085D01*
X53093202Y-55180665D01*
X53103517Y-55173773D01*
X53103519Y-55173772D01*
X53165289Y-55132498D01*
X53175605Y-55125605D01*
X53183853Y-55113261D01*
X53223772Y-55053519D01*
X53223773Y-55053517D01*
X53230665Y-55043202D01*
X53250000Y-54946000D01*
X53250000Y-54016411D01*
X53252421Y-53991829D01*
X53261554Y-53945915D01*
X53294462Y-53883006D01*
X53356157Y-53847874D01*
X53385133Y-53844497D01*
X53585204Y-53844497D01*
X53814868Y-53844496D01*
X53882987Y-53864498D01*
G37*
%TD.AperFunction*%
%TD*%
%TA.AperFunction,Conductor*%
%TO.N,+3V3*%
G36*
X73589016Y-71804292D02*
G01*
X73602890Y-71808009D01*
X73663514Y-71844958D01*
X73691991Y-71897110D01*
X73695708Y-71910984D01*
X73700000Y-71943591D01*
X73700000Y-72782165D01*
X73699403Y-72782165D01*
X73699404Y-72833008D01*
X73667602Y-72886609D01*
X72872021Y-73682189D01*
X72864408Y-73696132D01*
X72864539Y-73697966D01*
X72868790Y-73704580D01*
X73665022Y-74500811D01*
X73699047Y-74563124D01*
X73700000Y-74580898D01*
X73700000Y-75925000D01*
X73679998Y-75993121D01*
X73626342Y-76039614D01*
X73574000Y-76051000D01*
X72772115Y-76051000D01*
X72756876Y-76055475D01*
X72755671Y-76056865D01*
X72754000Y-76064548D01*
X72754000Y-78940884D01*
X72758475Y-78956123D01*
X72759865Y-78957328D01*
X72767548Y-78958999D01*
X73574000Y-78958999D01*
X73642121Y-78979001D01*
X73688614Y-79032657D01*
X73700000Y-79084999D01*
X73700000Y-79256409D01*
X73695708Y-79289016D01*
X73691991Y-79302890D01*
X73655042Y-79363514D01*
X73602890Y-79391991D01*
X73589016Y-79395708D01*
X73556409Y-79400000D01*
X68127000Y-79400000D01*
X68119030Y-79402136D01*
X68119027Y-79402136D01*
X68089958Y-79409925D01*
X68063500Y-79417015D01*
X68017015Y-79463500D01*
X68000000Y-79527000D01*
X68000000Y-80956409D01*
X67995708Y-80989016D01*
X67991991Y-81002890D01*
X67955042Y-81063514D01*
X67902890Y-81091991D01*
X67889016Y-81095708D01*
X67856409Y-81100000D01*
X66443591Y-81100000D01*
X66410984Y-81095708D01*
X66397110Y-81091991D01*
X66336486Y-81055042D01*
X66308009Y-81002890D01*
X66304292Y-80989016D01*
X66300000Y-80956409D01*
X66300000Y-78723828D01*
X71046001Y-78723828D01*
X71047209Y-78736088D01*
X71058315Y-78791931D01*
X71067633Y-78814427D01*
X71109983Y-78877808D01*
X71127192Y-78895017D01*
X71190575Y-78937368D01*
X71213066Y-78946684D01*
X71268915Y-78957793D01*
X71281170Y-78959000D01*
X72227885Y-78959000D01*
X72243124Y-78954525D01*
X72244329Y-78953135D01*
X72246000Y-78945452D01*
X72246000Y-77777115D01*
X72241525Y-77761876D01*
X72240135Y-77760671D01*
X72232452Y-77759000D01*
X71064116Y-77759000D01*
X71048877Y-77763475D01*
X71047672Y-77764865D01*
X71046001Y-77772548D01*
X71046001Y-78723828D01*
X66300000Y-78723828D01*
X66300000Y-77232885D01*
X71046000Y-77232885D01*
X71050475Y-77248124D01*
X71051865Y-77249329D01*
X71059548Y-77251000D01*
X72227885Y-77251000D01*
X72243124Y-77246525D01*
X72244329Y-77245135D01*
X72246000Y-77237452D01*
X72246000Y-76069116D01*
X72241525Y-76053877D01*
X72240135Y-76052672D01*
X72232452Y-76051001D01*
X71281172Y-76051001D01*
X71268912Y-76052209D01*
X71213069Y-76063315D01*
X71190573Y-76072633D01*
X71127192Y-76114983D01*
X71109983Y-76132192D01*
X71067632Y-76195575D01*
X71058316Y-76218066D01*
X71047207Y-76273915D01*
X71046000Y-76286170D01*
X71046000Y-77232885D01*
X66300000Y-77232885D01*
X66300000Y-76143591D01*
X66304292Y-76110984D01*
X66308009Y-76097110D01*
X66344958Y-76036486D01*
X66397110Y-76008009D01*
X66410984Y-76004292D01*
X66443591Y-76000000D01*
X70573000Y-76000000D01*
X70580970Y-75997864D01*
X70580973Y-75997864D01*
X70610042Y-75990075D01*
X70636500Y-75982985D01*
X70682985Y-75936500D01*
X70700000Y-75873000D01*
X70700000Y-74890035D01*
X71669794Y-74890035D01*
X71675075Y-74897090D01*
X71865136Y-75008153D01*
X71874419Y-75012600D01*
X72088126Y-75094207D01*
X72098028Y-75097084D01*
X72322175Y-75142687D01*
X72332427Y-75143910D01*
X72561020Y-75152292D01*
X72571306Y-75151825D01*
X72798209Y-75122758D01*
X72808295Y-75120615D01*
X73027399Y-75054880D01*
X73036994Y-75051119D01*
X73242414Y-74950485D01*
X73251273Y-74945204D01*
X73318077Y-74897554D01*
X73326478Y-74886854D01*
X73319492Y-74873703D01*
X72512811Y-74067021D01*
X72498868Y-74059408D01*
X72497034Y-74059539D01*
X72490420Y-74063790D01*
X71676551Y-74877660D01*
X71669794Y-74890035D01*
X70700000Y-74890035D01*
X70700000Y-73664510D01*
X71041750Y-73664510D01*
X71054918Y-73892882D01*
X71056354Y-73903103D01*
X71106644Y-74126253D01*
X71109724Y-74136081D01*
X71195788Y-74348036D01*
X71200431Y-74357227D01*
X71296645Y-74514234D01*
X71307102Y-74523694D01*
X71315878Y-74519911D01*
X72127979Y-73707811D01*
X72135592Y-73693868D01*
X72135461Y-73692034D01*
X72131210Y-73685420D01*
X71320758Y-72874969D01*
X71309227Y-72868673D01*
X71296942Y-72878298D01*
X71234341Y-72970068D01*
X71229243Y-72979042D01*
X71132934Y-73186521D01*
X71129371Y-73196208D01*
X71068242Y-73416631D01*
X71066311Y-73426751D01*
X71042002Y-73654221D01*
X71041750Y-73664510D01*
X70700000Y-73664510D01*
X70700000Y-72502857D01*
X71672653Y-72502857D01*
X71679397Y-72515186D01*
X72487189Y-73322979D01*
X72501132Y-73330592D01*
X72502966Y-73330461D01*
X72509580Y-73326210D01*
X73321746Y-72514043D01*
X73328763Y-72501192D01*
X73320989Y-72490523D01*
X73311449Y-72482988D01*
X73302858Y-72477281D01*
X73102605Y-72366735D01*
X73093193Y-72362505D01*
X72877566Y-72286147D01*
X72867595Y-72283513D01*
X72642391Y-72243398D01*
X72632138Y-72242429D01*
X72403395Y-72239634D01*
X72393112Y-72240354D01*
X72166997Y-72274955D01*
X72156969Y-72277344D01*
X71939539Y-72348409D01*
X71930031Y-72352406D01*
X71727136Y-72458028D01*
X71718401Y-72463529D01*
X71681107Y-72491530D01*
X71672653Y-72502857D01*
X70700000Y-72502857D01*
X70700000Y-71943591D01*
X70704292Y-71910984D01*
X70708009Y-71897110D01*
X70744958Y-71836486D01*
X70797110Y-71808009D01*
X70810984Y-71804292D01*
X70843591Y-71800000D01*
X73556409Y-71800000D01*
X73589016Y-71804292D01*
G37*
%TD.AperFunction*%
%TD*%
%TA.AperFunction,Conductor*%
%TO.N,GND*%
G36*
X65489016Y-75504292D02*
G01*
X65502890Y-75508009D01*
X65563514Y-75544958D01*
X65591991Y-75597110D01*
X65595708Y-75610984D01*
X65600000Y-75643591D01*
X65600000Y-78156409D01*
X65595708Y-78189016D01*
X65591991Y-78202890D01*
X65555042Y-78263514D01*
X65502890Y-78291991D01*
X65489016Y-78295708D01*
X65456409Y-78300000D01*
X64927000Y-78300000D01*
X64919030Y-78302136D01*
X64919027Y-78302136D01*
X64889958Y-78309925D01*
X64863500Y-78317015D01*
X64817015Y-78363500D01*
X64800000Y-78427000D01*
X64800000Y-81056409D01*
X64795708Y-81089016D01*
X64791991Y-81102890D01*
X64755042Y-81163514D01*
X64702890Y-81191991D01*
X64689016Y-81195708D01*
X64656409Y-81200000D01*
X62127000Y-81200000D01*
X62119030Y-81202136D01*
X62119027Y-81202136D01*
X62089958Y-81209925D01*
X62063500Y-81217015D01*
X62017015Y-81263500D01*
X62000000Y-81327000D01*
X62000000Y-81756409D01*
X61995708Y-81789016D01*
X61991991Y-81802890D01*
X61955042Y-81863514D01*
X61902890Y-81891991D01*
X61889016Y-81895708D01*
X61856409Y-81900000D01*
X60627000Y-81900000D01*
X60619030Y-81902136D01*
X60619027Y-81902136D01*
X60589958Y-81909925D01*
X60563500Y-81917015D01*
X60517015Y-81963500D01*
X60500000Y-82027000D01*
X60500000Y-83856409D01*
X60495708Y-83889016D01*
X60491991Y-83902890D01*
X60455042Y-83963514D01*
X60402890Y-83991991D01*
X60389016Y-83995708D01*
X60356409Y-84000000D01*
X59343591Y-84000000D01*
X59310984Y-83995708D01*
X59297110Y-83991991D01*
X59236486Y-83955042D01*
X59208009Y-83902890D01*
X59204292Y-83889016D01*
X59200000Y-83856409D01*
X59200000Y-82142967D01*
X59201111Y-82126272D01*
X59202230Y-82117908D01*
X59211004Y-82085689D01*
X59214276Y-82077924D01*
X59221785Y-82062966D01*
X60180345Y-80433413D01*
X60182466Y-80429808D01*
X60195538Y-80398785D01*
X60200000Y-80365417D01*
X60200000Y-75643591D01*
X60204292Y-75610984D01*
X60208009Y-75597110D01*
X60244958Y-75536486D01*
X60297110Y-75508009D01*
X60310984Y-75504292D01*
X60343591Y-75500000D01*
X65456409Y-75500000D01*
X65489016Y-75504292D01*
G37*
%TD.AperFunction*%
%TD*%
%TA.AperFunction,Conductor*%
%TO.N,Net-(L1-Pad2)*%
G36*
X55289016Y-53804292D02*
G01*
X55302890Y-53808009D01*
X55363514Y-53844958D01*
X55391991Y-53897110D01*
X55395708Y-53910984D01*
X55400000Y-53943591D01*
X55400000Y-53956409D01*
X55395708Y-53989016D01*
X55391991Y-54002890D01*
X55355042Y-54063514D01*
X55302890Y-54091991D01*
X55289016Y-54095708D01*
X55256409Y-54100000D01*
X54627000Y-54100000D01*
X54619030Y-54102136D01*
X54619027Y-54102136D01*
X54589958Y-54109925D01*
X54563500Y-54117015D01*
X54517015Y-54163500D01*
X54500000Y-54227000D01*
X54500000Y-55073000D01*
X54517015Y-55136500D01*
X54563500Y-55182985D01*
X54589958Y-55190075D01*
X54619027Y-55197864D01*
X54619030Y-55197864D01*
X54627000Y-55200000D01*
X55356409Y-55200000D01*
X55389016Y-55204292D01*
X55402890Y-55208009D01*
X55463514Y-55244958D01*
X55491991Y-55297110D01*
X55495708Y-55310984D01*
X55500000Y-55343591D01*
X55500000Y-57156409D01*
X55495708Y-57189016D01*
X55491991Y-57202890D01*
X55455042Y-57263514D01*
X55402890Y-57291991D01*
X55389016Y-57295708D01*
X55356409Y-57300000D01*
X54343591Y-57300000D01*
X54310984Y-57295708D01*
X54297110Y-57291991D01*
X54236486Y-57255042D01*
X54208009Y-57202890D01*
X54204292Y-57189016D01*
X54200000Y-57156409D01*
X54200000Y-55060482D01*
X54201846Y-55039033D01*
X54202093Y-55037793D01*
X54202325Y-55036230D01*
X54205600Y-55014153D01*
X54205602Y-55014134D01*
X54205829Y-55012606D01*
X54208250Y-54988026D01*
X54208324Y-54986511D01*
X54208326Y-54986490D01*
X54209424Y-54964140D01*
X54209424Y-54964133D01*
X54209500Y-54962590D01*
X54209500Y-54016411D01*
X54209424Y-54014861D01*
X54208326Y-53992516D01*
X54208325Y-53992503D01*
X54208250Y-53990976D01*
X54205829Y-53966395D01*
X54204739Y-53959043D01*
X54203826Y-53952889D01*
X54206755Y-53901792D01*
X54208010Y-53897108D01*
X54244960Y-53836484D01*
X54297110Y-53808009D01*
X54310984Y-53804292D01*
X54343591Y-53800000D01*
X55256409Y-53800000D01*
X55289016Y-53804292D01*
G37*
%TD.AperFunction*%
%TD*%
%TA.AperFunction,Conductor*%
%TO.N,+5V*%
G36*
X63758171Y-55102421D02*
G01*
X63818622Y-55114446D01*
X63864042Y-55133260D01*
X63904766Y-55160471D01*
X63939529Y-55195234D01*
X63966740Y-55235958D01*
X63985554Y-55281378D01*
X63997579Y-55341829D01*
X64000000Y-55366411D01*
X64000000Y-57483589D01*
X63997579Y-57508171D01*
X63985554Y-57568622D01*
X63966740Y-57614042D01*
X63939529Y-57654766D01*
X63904766Y-57689529D01*
X63864042Y-57716740D01*
X63818622Y-57735554D01*
X63758171Y-57747579D01*
X63733589Y-57750000D01*
X56866411Y-57750000D01*
X56841829Y-57747579D01*
X56781378Y-57735554D01*
X56735958Y-57716740D01*
X56695234Y-57689529D01*
X56660471Y-57654766D01*
X56633260Y-57614042D01*
X56614446Y-57568622D01*
X56602421Y-57508171D01*
X56600000Y-57483589D01*
X56600000Y-55366411D01*
X56602421Y-55341829D01*
X56614446Y-55281378D01*
X56633260Y-55235958D01*
X56660471Y-55195234D01*
X56695234Y-55160471D01*
X56735958Y-55133260D01*
X56781378Y-55114446D01*
X56841829Y-55102421D01*
X56866411Y-55100000D01*
X63733589Y-55100000D01*
X63758171Y-55102421D01*
G37*
%TD.AperFunction*%
%TD*%
%TA.AperFunction,Conductor*%
%TO.N,VBUS*%
G36*
X61274542Y-28420002D02*
G01*
X61284266Y-28426923D01*
X61950000Y-28950000D01*
X61963726Y-28949992D01*
X62039168Y-28949948D01*
X63622606Y-28949022D01*
X63690737Y-28968984D01*
X63737261Y-29022613D01*
X63748671Y-29076348D01*
X63746287Y-29302876D01*
X63731342Y-30722608D01*
X63710624Y-30790515D01*
X63656482Y-30836440D01*
X63585639Y-30845731D01*
X63541421Y-30838727D01*
X63525933Y-30836274D01*
X63525931Y-30836274D01*
X63521045Y-30835500D01*
X63350035Y-30835500D01*
X63178956Y-30835501D01*
X63099844Y-30848030D01*
X63080261Y-30849581D01*
X62989327Y-30849669D01*
X62668115Y-30849982D01*
X62668114Y-30849982D01*
X62650000Y-30850000D01*
X62650000Y-32258287D01*
X62629998Y-32326408D01*
X62613095Y-32347382D01*
X62578882Y-32381595D01*
X62516570Y-32415621D01*
X62489787Y-32418500D01*
X61948308Y-32418500D01*
X61943176Y-32419354D01*
X61938001Y-32419782D01*
X61937978Y-32419500D01*
X61925879Y-32420500D01*
X61626000Y-32420500D01*
X61557879Y-32400498D01*
X61511386Y-32346842D01*
X61500000Y-32294500D01*
X61500000Y-31850000D01*
X61035500Y-31850000D01*
X60967379Y-31829998D01*
X60920886Y-31776342D01*
X60909500Y-31724000D01*
X60909500Y-30975356D01*
X60903422Y-30929189D01*
X60903495Y-30929179D01*
X60900000Y-30904701D01*
X60900000Y-30879745D01*
X60913302Y-30823396D01*
X61250000Y-30150000D01*
X61250000Y-29300000D01*
X61237794Y-29299491D01*
X61237792Y-29299491D01*
X60293315Y-29260138D01*
X60175255Y-29255219D01*
X60108026Y-29232398D01*
X60063807Y-29176853D01*
X60054500Y-29129328D01*
X60054499Y-28829303D01*
X60054499Y-28824348D01*
X60051551Y-28805733D01*
X60050000Y-28786024D01*
X60050000Y-28526000D01*
X60070002Y-28457879D01*
X60123658Y-28411386D01*
X60176000Y-28400000D01*
X61206421Y-28400000D01*
X61274542Y-28420002D01*
G37*
%TD.AperFunction*%
%TD*%
%TA.AperFunction,Conductor*%
%TO.N,+3V3*%
G36*
X62442121Y-67920002D02*
G01*
X62488614Y-67973658D01*
X62500000Y-68026000D01*
X62500000Y-69574000D01*
X62479998Y-69642121D01*
X62426342Y-69688614D01*
X62374000Y-69700000D01*
X58500000Y-69700000D01*
X58500000Y-71374000D01*
X58479998Y-71442121D01*
X58426342Y-71488614D01*
X58374000Y-71500000D01*
X56926000Y-71500000D01*
X56857879Y-71479998D01*
X56811386Y-71426342D01*
X56800000Y-71374000D01*
X56800000Y-69326000D01*
X56820002Y-69257879D01*
X56873658Y-69211386D01*
X56926000Y-69200000D01*
X58000000Y-69200000D01*
X58000000Y-68225558D01*
X58020002Y-68157437D01*
X58073658Y-68110944D01*
X58143932Y-68100840D01*
X58163575Y-68105291D01*
X58230948Y-68126340D01*
X58353383Y-68128584D01*
X58367920Y-68124621D01*
X58462863Y-68098737D01*
X58471527Y-68096375D01*
X58575881Y-68032301D01*
X58658058Y-67941513D01*
X58660878Y-67944065D01*
X58701891Y-67910185D01*
X58751519Y-67900000D01*
X62374000Y-67900000D01*
X62442121Y-67920002D01*
G37*
%TD.AperFunction*%
%TD*%
M02*
