%TF.GenerationSoftware,KiCad,Pcbnew,(6.0.9)*%
%TF.CreationDate,2023-07-16T00:02:42+05:30*%
%TF.ProjectId,WeatherKids_Compact(V2.1),57656174-6865-4724-9b69-64735f436f6d,rev?*%
%TF.SameCoordinates,Original*%
%TF.FileFunction,Legend,Top*%
%TF.FilePolarity,Positive*%
%FSLAX46Y46*%
G04 Gerber Fmt 4.6, Leading zero omitted, Abs format (unit mm)*
G04 Created by KiCad (PCBNEW (6.0.9)) date 2023-07-16 00:02:42*
%MOMM*%
%LPD*%
G01*
G04 APERTURE LIST*
%ADD10C,0.100000*%
%ADD11C,0.150000*%
%ADD12C,0.300000*%
%ADD13C,0.400000*%
%TA.AperFunction,Profile*%
%ADD14C,0.050000*%
%TD*%
%ADD15C,0.120000*%
%ADD16C,0.152400*%
%ADD17C,0.600000*%
G04 APERTURE END LIST*
D10*
D11*
X299989000Y-253002200D02*
X299989000Y-285002200D01*
X407989000Y-285002200D01*
X407989000Y-253002200D01*
X299989000Y-253002200D01*
D10*
D11*
X10000000Y-10000000D02*
X10000000Y-287002200D01*
X409989000Y-287002200D01*
X409989000Y-10000000D01*
X10000000Y-10000000D01*
D10*
D11*
X12000000Y-12000000D02*
X12000000Y-285002200D01*
X407989000Y-285002200D01*
X407989000Y-12000000D01*
X12000000Y-12000000D01*
D10*
D11*
X60000000Y-12000000D02*
X60000000Y-10000000D01*
D10*
D11*
X110000000Y-12000000D02*
X110000000Y-10000000D01*
D10*
D11*
X160000000Y-12000000D02*
X160000000Y-10000000D01*
D10*
D11*
X210000000Y-12000000D02*
X210000000Y-10000000D01*
D10*
D11*
X260000000Y-12000000D02*
X260000000Y-10000000D01*
D10*
D11*
X310000000Y-12000000D02*
X310000000Y-10000000D01*
D10*
D11*
X360000000Y-12000000D02*
X360000000Y-10000000D01*
D10*
D11*
X36065476Y-11588095D02*
X35322619Y-11588095D01*
X35694047Y-11588095D02*
X35694047Y-10288095D01*
X35570238Y-10473809D01*
X35446428Y-10597619D01*
X35322619Y-10659523D01*
D10*
D11*
X85322619Y-10411904D02*
X85384523Y-10350000D01*
X85508333Y-10288095D01*
X85817857Y-10288095D01*
X85941666Y-10350000D01*
X86003571Y-10411904D01*
X86065476Y-10535714D01*
X86065476Y-10659523D01*
X86003571Y-10845238D01*
X85260714Y-11588095D01*
X86065476Y-11588095D01*
D10*
D11*
X135260714Y-10288095D02*
X136065476Y-10288095D01*
X135632142Y-10783333D01*
X135817857Y-10783333D01*
X135941666Y-10845238D01*
X136003571Y-10907142D01*
X136065476Y-11030952D01*
X136065476Y-11340476D01*
X136003571Y-11464285D01*
X135941666Y-11526190D01*
X135817857Y-11588095D01*
X135446428Y-11588095D01*
X135322619Y-11526190D01*
X135260714Y-11464285D01*
D10*
D11*
X185941666Y-10721428D02*
X185941666Y-11588095D01*
X185632142Y-10226190D02*
X185322619Y-11154761D01*
X186127380Y-11154761D01*
D10*
D11*
X236003571Y-10288095D02*
X235384523Y-10288095D01*
X235322619Y-10907142D01*
X235384523Y-10845238D01*
X235508333Y-10783333D01*
X235817857Y-10783333D01*
X235941666Y-10845238D01*
X236003571Y-10907142D01*
X236065476Y-11030952D01*
X236065476Y-11340476D01*
X236003571Y-11464285D01*
X235941666Y-11526190D01*
X235817857Y-11588095D01*
X235508333Y-11588095D01*
X235384523Y-11526190D01*
X235322619Y-11464285D01*
D10*
D11*
X285941666Y-10288095D02*
X285694047Y-10288095D01*
X285570238Y-10350000D01*
X285508333Y-10411904D01*
X285384523Y-10597619D01*
X285322619Y-10845238D01*
X285322619Y-11340476D01*
X285384523Y-11464285D01*
X285446428Y-11526190D01*
X285570238Y-11588095D01*
X285817857Y-11588095D01*
X285941666Y-11526190D01*
X286003571Y-11464285D01*
X286065476Y-11340476D01*
X286065476Y-11030952D01*
X286003571Y-10907142D01*
X285941666Y-10845238D01*
X285817857Y-10783333D01*
X285570238Y-10783333D01*
X285446428Y-10845238D01*
X285384523Y-10907142D01*
X285322619Y-11030952D01*
D10*
D11*
X335260714Y-10288095D02*
X336127380Y-10288095D01*
X335570238Y-11588095D01*
D10*
D11*
X385570238Y-10845238D02*
X385446428Y-10783333D01*
X385384523Y-10721428D01*
X385322619Y-10597619D01*
X385322619Y-10535714D01*
X385384523Y-10411904D01*
X385446428Y-10350000D01*
X385570238Y-10288095D01*
X385817857Y-10288095D01*
X385941666Y-10350000D01*
X386003571Y-10411904D01*
X386065476Y-10535714D01*
X386065476Y-10597619D01*
X386003571Y-10721428D01*
X385941666Y-10783333D01*
X385817857Y-10845238D01*
X385570238Y-10845238D01*
X385446428Y-10907142D01*
X385384523Y-10969047D01*
X385322619Y-11092857D01*
X385322619Y-11340476D01*
X385384523Y-11464285D01*
X385446428Y-11526190D01*
X385570238Y-11588095D01*
X385817857Y-11588095D01*
X385941666Y-11526190D01*
X386003571Y-11464285D01*
X386065476Y-11340476D01*
X386065476Y-11092857D01*
X386003571Y-10969047D01*
X385941666Y-10907142D01*
X385817857Y-10845238D01*
D10*
D11*
X60000000Y-285002200D02*
X60000000Y-287002200D01*
D10*
D11*
X110000000Y-285002200D02*
X110000000Y-287002200D01*
D10*
D11*
X160000000Y-285002200D02*
X160000000Y-287002200D01*
D10*
D11*
X210000000Y-285002200D02*
X210000000Y-287002200D01*
D10*
D11*
X260000000Y-285002200D02*
X260000000Y-287002200D01*
D10*
D11*
X310000000Y-285002200D02*
X310000000Y-287002200D01*
D10*
D11*
X360000000Y-285002200D02*
X360000000Y-287002200D01*
D10*
D11*
X36065476Y-286590295D02*
X35322619Y-286590295D01*
X35694047Y-286590295D02*
X35694047Y-285290295D01*
X35570238Y-285476009D01*
X35446428Y-285599819D01*
X35322619Y-285661723D01*
D10*
D11*
X85322619Y-285414104D02*
X85384523Y-285352200D01*
X85508333Y-285290295D01*
X85817857Y-285290295D01*
X85941666Y-285352200D01*
X86003571Y-285414104D01*
X86065476Y-285537914D01*
X86065476Y-285661723D01*
X86003571Y-285847438D01*
X85260714Y-286590295D01*
X86065476Y-286590295D01*
D10*
D11*
X135260714Y-285290295D02*
X136065476Y-285290295D01*
X135632142Y-285785533D01*
X135817857Y-285785533D01*
X135941666Y-285847438D01*
X136003571Y-285909342D01*
X136065476Y-286033152D01*
X136065476Y-286342676D01*
X136003571Y-286466485D01*
X135941666Y-286528390D01*
X135817857Y-286590295D01*
X135446428Y-286590295D01*
X135322619Y-286528390D01*
X135260714Y-286466485D01*
D10*
D11*
X185941666Y-285723628D02*
X185941666Y-286590295D01*
X185632142Y-285228390D02*
X185322619Y-286156961D01*
X186127380Y-286156961D01*
D10*
D11*
X236003571Y-285290295D02*
X235384523Y-285290295D01*
X235322619Y-285909342D01*
X235384523Y-285847438D01*
X235508333Y-285785533D01*
X235817857Y-285785533D01*
X235941666Y-285847438D01*
X236003571Y-285909342D01*
X236065476Y-286033152D01*
X236065476Y-286342676D01*
X236003571Y-286466485D01*
X235941666Y-286528390D01*
X235817857Y-286590295D01*
X235508333Y-286590295D01*
X235384523Y-286528390D01*
X235322619Y-286466485D01*
D10*
D11*
X285941666Y-285290295D02*
X285694047Y-285290295D01*
X285570238Y-285352200D01*
X285508333Y-285414104D01*
X285384523Y-285599819D01*
X285322619Y-285847438D01*
X285322619Y-286342676D01*
X285384523Y-286466485D01*
X285446428Y-286528390D01*
X285570238Y-286590295D01*
X285817857Y-286590295D01*
X285941666Y-286528390D01*
X286003571Y-286466485D01*
X286065476Y-286342676D01*
X286065476Y-286033152D01*
X286003571Y-285909342D01*
X285941666Y-285847438D01*
X285817857Y-285785533D01*
X285570238Y-285785533D01*
X285446428Y-285847438D01*
X285384523Y-285909342D01*
X285322619Y-286033152D01*
D10*
D11*
X335260714Y-285290295D02*
X336127380Y-285290295D01*
X335570238Y-286590295D01*
D10*
D11*
X385570238Y-285847438D02*
X385446428Y-285785533D01*
X385384523Y-285723628D01*
X385322619Y-285599819D01*
X385322619Y-285537914D01*
X385384523Y-285414104D01*
X385446428Y-285352200D01*
X385570238Y-285290295D01*
X385817857Y-285290295D01*
X385941666Y-285352200D01*
X386003571Y-285414104D01*
X386065476Y-285537914D01*
X386065476Y-285599819D01*
X386003571Y-285723628D01*
X385941666Y-285785533D01*
X385817857Y-285847438D01*
X385570238Y-285847438D01*
X385446428Y-285909342D01*
X385384523Y-285971247D01*
X385322619Y-286095057D01*
X385322619Y-286342676D01*
X385384523Y-286466485D01*
X385446428Y-286528390D01*
X385570238Y-286590295D01*
X385817857Y-286590295D01*
X385941666Y-286528390D01*
X386003571Y-286466485D01*
X386065476Y-286342676D01*
X386065476Y-286095057D01*
X386003571Y-285971247D01*
X385941666Y-285909342D01*
X385817857Y-285847438D01*
D10*
D11*
X10000000Y-60000000D02*
X12000000Y-60000000D01*
D10*
D11*
X10000000Y-110000000D02*
X12000000Y-110000000D01*
D10*
D11*
X10000000Y-160000000D02*
X12000000Y-160000000D01*
D10*
D11*
X10000000Y-210000000D02*
X12000000Y-210000000D01*
D10*
D11*
X10000000Y-260000000D02*
X12000000Y-260000000D01*
D10*
D11*
X10690476Y-35216666D02*
X11309523Y-35216666D01*
X10566666Y-35588095D02*
X11000000Y-34288095D01*
X11433333Y-35588095D01*
D10*
D11*
X11092857Y-84907142D02*
X11278571Y-84969047D01*
X11340476Y-85030952D01*
X11402380Y-85154761D01*
X11402380Y-85340476D01*
X11340476Y-85464285D01*
X11278571Y-85526190D01*
X11154761Y-85588095D01*
X10659523Y-85588095D01*
X10659523Y-84288095D01*
X11092857Y-84288095D01*
X11216666Y-84350000D01*
X11278571Y-84411904D01*
X11340476Y-84535714D01*
X11340476Y-84659523D01*
X11278571Y-84783333D01*
X11216666Y-84845238D01*
X11092857Y-84907142D01*
X10659523Y-84907142D01*
D10*
D11*
X11402380Y-135464285D02*
X11340476Y-135526190D01*
X11154761Y-135588095D01*
X11030952Y-135588095D01*
X10845238Y-135526190D01*
X10721428Y-135402380D01*
X10659523Y-135278571D01*
X10597619Y-135030952D01*
X10597619Y-134845238D01*
X10659523Y-134597619D01*
X10721428Y-134473809D01*
X10845238Y-134350000D01*
X11030952Y-134288095D01*
X11154761Y-134288095D01*
X11340476Y-134350000D01*
X11402380Y-134411904D01*
D10*
D11*
X10659523Y-185588095D02*
X10659523Y-184288095D01*
X10969047Y-184288095D01*
X11154761Y-184350000D01*
X11278571Y-184473809D01*
X11340476Y-184597619D01*
X11402380Y-184845238D01*
X11402380Y-185030952D01*
X11340476Y-185278571D01*
X11278571Y-185402380D01*
X11154761Y-185526190D01*
X10969047Y-185588095D01*
X10659523Y-185588095D01*
D10*
D11*
X10721428Y-234907142D02*
X11154761Y-234907142D01*
X11340476Y-235588095D02*
X10721428Y-235588095D01*
X10721428Y-234288095D01*
X11340476Y-234288095D01*
D10*
D11*
X11185714Y-284907142D02*
X10752380Y-284907142D01*
X10752380Y-285588095D02*
X10752380Y-284288095D01*
X11371428Y-284288095D01*
D10*
D11*
X409989000Y-60000000D02*
X407989000Y-60000000D01*
D10*
D11*
X409989000Y-110000000D02*
X407989000Y-110000000D01*
D10*
D11*
X409989000Y-160000000D02*
X407989000Y-160000000D01*
D10*
D11*
X409989000Y-210000000D02*
X407989000Y-210000000D01*
D10*
D11*
X409989000Y-260000000D02*
X407989000Y-260000000D01*
D10*
D11*
X408679476Y-35216666D02*
X409298523Y-35216666D01*
X408555666Y-35588095D02*
X408989000Y-34288095D01*
X409422333Y-35588095D01*
D10*
D11*
X409081857Y-84907142D02*
X409267571Y-84969047D01*
X409329476Y-85030952D01*
X409391380Y-85154761D01*
X409391380Y-85340476D01*
X409329476Y-85464285D01*
X409267571Y-85526190D01*
X409143761Y-85588095D01*
X408648523Y-85588095D01*
X408648523Y-84288095D01*
X409081857Y-84288095D01*
X409205666Y-84350000D01*
X409267571Y-84411904D01*
X409329476Y-84535714D01*
X409329476Y-84659523D01*
X409267571Y-84783333D01*
X409205666Y-84845238D01*
X409081857Y-84907142D01*
X408648523Y-84907142D01*
D10*
D11*
X409391380Y-135464285D02*
X409329476Y-135526190D01*
X409143761Y-135588095D01*
X409019952Y-135588095D01*
X408834238Y-135526190D01*
X408710428Y-135402380D01*
X408648523Y-135278571D01*
X408586619Y-135030952D01*
X408586619Y-134845238D01*
X408648523Y-134597619D01*
X408710428Y-134473809D01*
X408834238Y-134350000D01*
X409019952Y-134288095D01*
X409143761Y-134288095D01*
X409329476Y-134350000D01*
X409391380Y-134411904D01*
D10*
D11*
X408648523Y-185588095D02*
X408648523Y-184288095D01*
X408958047Y-184288095D01*
X409143761Y-184350000D01*
X409267571Y-184473809D01*
X409329476Y-184597619D01*
X409391380Y-184845238D01*
X409391380Y-185030952D01*
X409329476Y-185278571D01*
X409267571Y-185402380D01*
X409143761Y-185526190D01*
X408958047Y-185588095D01*
X408648523Y-185588095D01*
D10*
D11*
X408710428Y-234907142D02*
X409143761Y-234907142D01*
X409329476Y-235588095D02*
X408710428Y-235588095D01*
X408710428Y-234288095D01*
X409329476Y-234288095D01*
D10*
D11*
X409174714Y-284907142D02*
X408741380Y-284907142D01*
X408741380Y-285588095D02*
X408741380Y-284288095D01*
X409360428Y-284288095D01*
D10*
D11*
X323421142Y-280780771D02*
X323421142Y-279280771D01*
X323778285Y-279280771D01*
X323992571Y-279352200D01*
X324135428Y-279495057D01*
X324206857Y-279637914D01*
X324278285Y-279923628D01*
X324278285Y-280137914D01*
X324206857Y-280423628D01*
X324135428Y-280566485D01*
X323992571Y-280709342D01*
X323778285Y-280780771D01*
X323421142Y-280780771D01*
X325564000Y-280780771D02*
X325564000Y-279995057D01*
X325492571Y-279852200D01*
X325349714Y-279780771D01*
X325064000Y-279780771D01*
X324921142Y-279852200D01*
X325564000Y-280709342D02*
X325421142Y-280780771D01*
X325064000Y-280780771D01*
X324921142Y-280709342D01*
X324849714Y-280566485D01*
X324849714Y-280423628D01*
X324921142Y-280280771D01*
X325064000Y-280209342D01*
X325421142Y-280209342D01*
X325564000Y-280137914D01*
X326064000Y-279780771D02*
X326635428Y-279780771D01*
X326278285Y-279280771D02*
X326278285Y-280566485D01*
X326349714Y-280709342D01*
X326492571Y-280780771D01*
X326635428Y-280780771D01*
X327706857Y-280709342D02*
X327564000Y-280780771D01*
X327278285Y-280780771D01*
X327135428Y-280709342D01*
X327064000Y-280566485D01*
X327064000Y-279995057D01*
X327135428Y-279852200D01*
X327278285Y-279780771D01*
X327564000Y-279780771D01*
X327706857Y-279852200D01*
X327778285Y-279995057D01*
X327778285Y-280137914D01*
X327064000Y-280280771D01*
X328421142Y-280637914D02*
X328492571Y-280709342D01*
X328421142Y-280780771D01*
X328349714Y-280709342D01*
X328421142Y-280637914D01*
X328421142Y-280780771D01*
X328421142Y-279852200D02*
X328492571Y-279923628D01*
X328421142Y-279995057D01*
X328349714Y-279923628D01*
X328421142Y-279852200D01*
X328421142Y-279995057D01*
D10*
D11*
X299989000Y-281502200D02*
X407989000Y-281502200D01*
D10*
D11*
X301421142Y-283580771D02*
X301421142Y-282080771D01*
X302278285Y-283580771D02*
X301635428Y-282723628D01*
X302278285Y-282080771D02*
X301421142Y-282937914D01*
X302921142Y-283580771D02*
X302921142Y-282580771D01*
X302921142Y-282080771D02*
X302849714Y-282152200D01*
X302921142Y-282223628D01*
X302992571Y-282152200D01*
X302921142Y-282080771D01*
X302921142Y-282223628D01*
X304492571Y-283437914D02*
X304421142Y-283509342D01*
X304206857Y-283580771D01*
X304064000Y-283580771D01*
X303849714Y-283509342D01*
X303706857Y-283366485D01*
X303635428Y-283223628D01*
X303564000Y-282937914D01*
X303564000Y-282723628D01*
X303635428Y-282437914D01*
X303706857Y-282295057D01*
X303849714Y-282152200D01*
X304064000Y-282080771D01*
X304206857Y-282080771D01*
X304421142Y-282152200D01*
X304492571Y-282223628D01*
X305778285Y-283580771D02*
X305778285Y-282795057D01*
X305706857Y-282652200D01*
X305564000Y-282580771D01*
X305278285Y-282580771D01*
X305135428Y-282652200D01*
X305778285Y-283509342D02*
X305635428Y-283580771D01*
X305278285Y-283580771D01*
X305135428Y-283509342D01*
X305064000Y-283366485D01*
X305064000Y-283223628D01*
X305135428Y-283080771D01*
X305278285Y-283009342D01*
X305635428Y-283009342D01*
X305778285Y-282937914D01*
X307135428Y-283580771D02*
X307135428Y-282080771D01*
X307135428Y-283509342D02*
X306992571Y-283580771D01*
X306706857Y-283580771D01*
X306564000Y-283509342D01*
X306492571Y-283437914D01*
X306421142Y-283295057D01*
X306421142Y-282866485D01*
X306492571Y-282723628D01*
X306564000Y-282652200D01*
X306706857Y-282580771D01*
X306992571Y-282580771D01*
X307135428Y-282652200D01*
X308992571Y-282795057D02*
X309492571Y-282795057D01*
X309706857Y-283580771D02*
X308992571Y-283580771D01*
X308992571Y-282080771D01*
X309706857Y-282080771D01*
X310349714Y-283437914D02*
X310421142Y-283509342D01*
X310349714Y-283580771D01*
X310278285Y-283509342D01*
X310349714Y-283437914D01*
X310349714Y-283580771D01*
X311064000Y-283580771D02*
X311064000Y-282080771D01*
X311421142Y-282080771D01*
X311635428Y-282152200D01*
X311778285Y-282295057D01*
X311849714Y-282437914D01*
X311921142Y-282723628D01*
X311921142Y-282937914D01*
X311849714Y-283223628D01*
X311778285Y-283366485D01*
X311635428Y-283509342D01*
X311421142Y-283580771D01*
X311064000Y-283580771D01*
X312564000Y-283437914D02*
X312635428Y-283509342D01*
X312564000Y-283580771D01*
X312492571Y-283509342D01*
X312564000Y-283437914D01*
X312564000Y-283580771D01*
X313206857Y-283152200D02*
X313921142Y-283152200D01*
X313064000Y-283580771D02*
X313564000Y-282080771D01*
X314064000Y-283580771D01*
X314564000Y-283437914D02*
X314635428Y-283509342D01*
X314564000Y-283580771D01*
X314492571Y-283509342D01*
X314564000Y-283437914D01*
X314564000Y-283580771D01*
X317564000Y-283580771D02*
X317564000Y-282080771D01*
X317706857Y-283009342D02*
X318135428Y-283580771D01*
X318135428Y-282580771D02*
X317564000Y-283152200D01*
X318778285Y-283580771D02*
X318778285Y-282580771D01*
X318778285Y-282080771D02*
X318706857Y-282152200D01*
X318778285Y-282223628D01*
X318849714Y-282152200D01*
X318778285Y-282080771D01*
X318778285Y-282223628D01*
X320135428Y-283509342D02*
X319992571Y-283580771D01*
X319706857Y-283580771D01*
X319564000Y-283509342D01*
X319492571Y-283437914D01*
X319421142Y-283295057D01*
X319421142Y-282866485D01*
X319492571Y-282723628D01*
X319564000Y-282652200D01*
X319706857Y-282580771D01*
X319992571Y-282580771D01*
X320135428Y-282652200D01*
X321421142Y-283580771D02*
X321421142Y-282795057D01*
X321349714Y-282652200D01*
X321206857Y-282580771D01*
X320921142Y-282580771D01*
X320778285Y-282652200D01*
X321421142Y-283509342D02*
X321278285Y-283580771D01*
X320921142Y-283580771D01*
X320778285Y-283509342D01*
X320706857Y-283366485D01*
X320706857Y-283223628D01*
X320778285Y-283080771D01*
X320921142Y-283009342D01*
X321278285Y-283009342D01*
X321421142Y-282937914D01*
X322778285Y-283580771D02*
X322778285Y-282080771D01*
X322778285Y-283509342D02*
X322635428Y-283580771D01*
X322349714Y-283580771D01*
X322206857Y-283509342D01*
X322135428Y-283437914D01*
X322064000Y-283295057D01*
X322064000Y-282866485D01*
X322135428Y-282723628D01*
X322206857Y-282652200D01*
X322349714Y-282580771D01*
X322635428Y-282580771D01*
X322778285Y-282652200D01*
X325064000Y-284152200D02*
X324992571Y-284080771D01*
X324849714Y-283866485D01*
X324778285Y-283723628D01*
X324706857Y-283509342D01*
X324635428Y-283152200D01*
X324635428Y-282866485D01*
X324706857Y-282509342D01*
X324778285Y-282295057D01*
X324849714Y-282152200D01*
X324992571Y-281937914D01*
X325064000Y-281866485D01*
X326278285Y-282080771D02*
X325992571Y-282080771D01*
X325849714Y-282152200D01*
X325778285Y-282223628D01*
X325635428Y-282437914D01*
X325564000Y-282723628D01*
X325564000Y-283295057D01*
X325635428Y-283437914D01*
X325706857Y-283509342D01*
X325849714Y-283580771D01*
X326135428Y-283580771D01*
X326278285Y-283509342D01*
X326349714Y-283437914D01*
X326421142Y-283295057D01*
X326421142Y-282937914D01*
X326349714Y-282795057D01*
X326278285Y-282723628D01*
X326135428Y-282652200D01*
X325849714Y-282652200D01*
X325706857Y-282723628D01*
X325635428Y-282795057D01*
X325564000Y-282937914D01*
X327064000Y-283437914D02*
X327135428Y-283509342D01*
X327064000Y-283580771D01*
X326992571Y-283509342D01*
X327064000Y-283437914D01*
X327064000Y-283580771D01*
X328064000Y-282080771D02*
X328206857Y-282080771D01*
X328349714Y-282152200D01*
X328421142Y-282223628D01*
X328492571Y-282366485D01*
X328564000Y-282652200D01*
X328564000Y-283009342D01*
X328492571Y-283295057D01*
X328421142Y-283437914D01*
X328349714Y-283509342D01*
X328206857Y-283580771D01*
X328064000Y-283580771D01*
X327921142Y-283509342D01*
X327849714Y-283437914D01*
X327778285Y-283295057D01*
X327706857Y-283009342D01*
X327706857Y-282652200D01*
X327778285Y-282366485D01*
X327849714Y-282223628D01*
X327921142Y-282152200D01*
X328064000Y-282080771D01*
X329206857Y-283437914D02*
X329278285Y-283509342D01*
X329206857Y-283580771D01*
X329135428Y-283509342D01*
X329206857Y-283437914D01*
X329206857Y-283580771D01*
X329992571Y-283580771D02*
X330278285Y-283580771D01*
X330421142Y-283509342D01*
X330492571Y-283437914D01*
X330635428Y-283223628D01*
X330706857Y-282937914D01*
X330706857Y-282366485D01*
X330635428Y-282223628D01*
X330564000Y-282152200D01*
X330421142Y-282080771D01*
X330135428Y-282080771D01*
X329992571Y-282152200D01*
X329921142Y-282223628D01*
X329849714Y-282366485D01*
X329849714Y-282723628D01*
X329921142Y-282866485D01*
X329992571Y-282937914D01*
X330135428Y-283009342D01*
X330421142Y-283009342D01*
X330564000Y-282937914D01*
X330635428Y-282866485D01*
X330706857Y-282723628D01*
X331206857Y-284152200D02*
X331278285Y-284080771D01*
X331421142Y-283866485D01*
X331492571Y-283723628D01*
X331564000Y-283509342D01*
X331635428Y-283152200D01*
X331635428Y-282866485D01*
X331564000Y-282509342D01*
X331492571Y-282295057D01*
X331421142Y-282152200D01*
X331278285Y-281937914D01*
X331206857Y-281866485D01*
D10*
D11*
X299989000Y-278502200D02*
X407989000Y-278502200D01*
D10*
D12*
X387398285Y-280780771D02*
X386898285Y-280066485D01*
X386541142Y-280780771D02*
X386541142Y-279280771D01*
X387112571Y-279280771D01*
X387255428Y-279352200D01*
X387326857Y-279423628D01*
X387398285Y-279566485D01*
X387398285Y-279780771D01*
X387326857Y-279923628D01*
X387255428Y-279995057D01*
X387112571Y-280066485D01*
X386541142Y-280066485D01*
X388612571Y-280709342D02*
X388469714Y-280780771D01*
X388184000Y-280780771D01*
X388041142Y-280709342D01*
X387969714Y-280566485D01*
X387969714Y-279995057D01*
X388041142Y-279852200D01*
X388184000Y-279780771D01*
X388469714Y-279780771D01*
X388612571Y-279852200D01*
X388684000Y-279995057D01*
X388684000Y-280137914D01*
X387969714Y-280280771D01*
X389184000Y-279780771D02*
X389541142Y-280780771D01*
X389898285Y-279780771D01*
X390469714Y-280637914D02*
X390541142Y-280709342D01*
X390469714Y-280780771D01*
X390398285Y-280709342D01*
X390469714Y-280637914D01*
X390469714Y-280780771D01*
X390469714Y-279852200D02*
X390541142Y-279923628D01*
X390469714Y-279995057D01*
X390398285Y-279923628D01*
X390469714Y-279852200D01*
X390469714Y-279995057D01*
D10*
D11*
X301349714Y-280709342D02*
X301564000Y-280780771D01*
X301921142Y-280780771D01*
X302064000Y-280709342D01*
X302135428Y-280637914D01*
X302206857Y-280495057D01*
X302206857Y-280352200D01*
X302135428Y-280209342D01*
X302064000Y-280137914D01*
X301921142Y-280066485D01*
X301635428Y-279995057D01*
X301492571Y-279923628D01*
X301421142Y-279852200D01*
X301349714Y-279709342D01*
X301349714Y-279566485D01*
X301421142Y-279423628D01*
X301492571Y-279352200D01*
X301635428Y-279280771D01*
X301992571Y-279280771D01*
X302206857Y-279352200D01*
X302849714Y-280780771D02*
X302849714Y-279780771D01*
X302849714Y-279280771D02*
X302778285Y-279352200D01*
X302849714Y-279423628D01*
X302921142Y-279352200D01*
X302849714Y-279280771D01*
X302849714Y-279423628D01*
X303421142Y-279780771D02*
X304206857Y-279780771D01*
X303421142Y-280780771D01*
X304206857Y-280780771D01*
X305349714Y-280709342D02*
X305206857Y-280780771D01*
X304921142Y-280780771D01*
X304778285Y-280709342D01*
X304706857Y-280566485D01*
X304706857Y-279995057D01*
X304778285Y-279852200D01*
X304921142Y-279780771D01*
X305206857Y-279780771D01*
X305349714Y-279852200D01*
X305421142Y-279995057D01*
X305421142Y-280137914D01*
X304706857Y-280280771D01*
X306064000Y-280637914D02*
X306135428Y-280709342D01*
X306064000Y-280780771D01*
X305992571Y-280709342D01*
X306064000Y-280637914D01*
X306064000Y-280780771D01*
X306064000Y-279852200D02*
X306135428Y-279923628D01*
X306064000Y-279995057D01*
X305992571Y-279923628D01*
X306064000Y-279852200D01*
X306064000Y-279995057D01*
X307849714Y-280352200D02*
X308564000Y-280352200D01*
X307706857Y-280780771D02*
X308206857Y-279280771D01*
X308706857Y-280780771D01*
X309064000Y-279280771D02*
X309992571Y-279280771D01*
X309492571Y-279852200D01*
X309706857Y-279852200D01*
X309849714Y-279923628D01*
X309921142Y-279995057D01*
X309992571Y-280137914D01*
X309992571Y-280495057D01*
X309921142Y-280637914D01*
X309849714Y-280709342D01*
X309706857Y-280780771D01*
X309278285Y-280780771D01*
X309135428Y-280709342D01*
X309064000Y-280637914D01*
D10*
D11*
X386421142Y-283580771D02*
X386421142Y-282080771D01*
X387778285Y-283580771D02*
X387778285Y-282080771D01*
X387778285Y-283509342D02*
X387635428Y-283580771D01*
X387349714Y-283580771D01*
X387206857Y-283509342D01*
X387135428Y-283437914D01*
X387064000Y-283295057D01*
X387064000Y-282866485D01*
X387135428Y-282723628D01*
X387206857Y-282652200D01*
X387349714Y-282580771D01*
X387635428Y-282580771D01*
X387778285Y-282652200D01*
X388492571Y-283437914D02*
X388564000Y-283509342D01*
X388492571Y-283580771D01*
X388421142Y-283509342D01*
X388492571Y-283437914D01*
X388492571Y-283580771D01*
X388492571Y-282652200D02*
X388564000Y-282723628D01*
X388492571Y-282795057D01*
X388421142Y-282723628D01*
X388492571Y-282652200D01*
X388492571Y-282795057D01*
X391135428Y-283580771D02*
X390278285Y-283580771D01*
X390706857Y-283580771D02*
X390706857Y-282080771D01*
X390564000Y-282295057D01*
X390421142Y-282437914D01*
X390278285Y-282509342D01*
X392849714Y-282009342D02*
X391564000Y-283937914D01*
X394135428Y-283580771D02*
X393278285Y-283580771D01*
X393706857Y-283580771D02*
X393706857Y-282080771D01*
X393564000Y-282295057D01*
X393421142Y-282437914D01*
X393278285Y-282509342D01*
D10*
D11*
X299989000Y-274502200D02*
X407989000Y-274502200D01*
D10*
D13*
X301701380Y-275206961D02*
X302844238Y-275206961D01*
X302022809Y-277206961D02*
X302272809Y-275206961D01*
X303260904Y-277206961D02*
X303427571Y-275873628D01*
X303510904Y-275206961D02*
X303403761Y-275302200D01*
X303487095Y-275397438D01*
X303594238Y-275302200D01*
X303510904Y-275206961D01*
X303487095Y-275397438D01*
X304094238Y-275873628D02*
X304856142Y-275873628D01*
X304463285Y-275206961D02*
X304249000Y-276921247D01*
X304320428Y-277111723D01*
X304499000Y-277206961D01*
X304689476Y-277206961D01*
X305641857Y-277206961D02*
X305463285Y-277111723D01*
X305391857Y-276921247D01*
X305606142Y-275206961D01*
X307177571Y-277111723D02*
X306975190Y-277206961D01*
X306594238Y-277206961D01*
X306415666Y-277111723D01*
X306344238Y-276921247D01*
X306439476Y-276159342D01*
X306558523Y-275968866D01*
X306760904Y-275873628D01*
X307141857Y-275873628D01*
X307320428Y-275968866D01*
X307391857Y-276159342D01*
X307368047Y-276349819D01*
X306391857Y-276540295D01*
X308141857Y-277016485D02*
X308225190Y-277111723D01*
X308118047Y-277206961D01*
X308034714Y-277111723D01*
X308141857Y-277016485D01*
X308118047Y-277206961D01*
X308272809Y-275968866D02*
X308356142Y-276064104D01*
X308249000Y-276159342D01*
X308165666Y-276064104D01*
X308272809Y-275968866D01*
X308249000Y-276159342D01*
D10*
D11*
X301921142Y-272595057D02*
X301421142Y-272595057D01*
X301421142Y-273380771D02*
X301421142Y-271880771D01*
X302135428Y-271880771D01*
X302706857Y-273380771D02*
X302706857Y-272380771D01*
X302706857Y-271880771D02*
X302635428Y-271952200D01*
X302706857Y-272023628D01*
X302778285Y-271952200D01*
X302706857Y-271880771D01*
X302706857Y-272023628D01*
X303635428Y-273380771D02*
X303492571Y-273309342D01*
X303421142Y-273166485D01*
X303421142Y-271880771D01*
X304778285Y-273309342D02*
X304635428Y-273380771D01*
X304349714Y-273380771D01*
X304206857Y-273309342D01*
X304135428Y-273166485D01*
X304135428Y-272595057D01*
X304206857Y-272452200D01*
X304349714Y-272380771D01*
X304635428Y-272380771D01*
X304778285Y-272452200D01*
X304849714Y-272595057D01*
X304849714Y-272737914D01*
X304135428Y-272880771D01*
X305492571Y-273237914D02*
X305564000Y-273309342D01*
X305492571Y-273380771D01*
X305421142Y-273309342D01*
X305492571Y-273237914D01*
X305492571Y-273380771D01*
X305492571Y-272452200D02*
X305564000Y-272523628D01*
X305492571Y-272595057D01*
X305421142Y-272523628D01*
X305492571Y-272452200D01*
X305492571Y-272595057D01*
X307206857Y-271880771D02*
X307564000Y-273380771D01*
X307849714Y-272309342D01*
X308135428Y-273380771D01*
X308492571Y-271880771D01*
X309635428Y-273309342D02*
X309492571Y-273380771D01*
X309206857Y-273380771D01*
X309064000Y-273309342D01*
X308992571Y-273166485D01*
X308992571Y-272595057D01*
X309064000Y-272452200D01*
X309206857Y-272380771D01*
X309492571Y-272380771D01*
X309635428Y-272452200D01*
X309706857Y-272595057D01*
X309706857Y-272737914D01*
X308992571Y-272880771D01*
X310992571Y-273380771D02*
X310992571Y-272595057D01*
X310921142Y-272452200D01*
X310778285Y-272380771D01*
X310492571Y-272380771D01*
X310349714Y-272452200D01*
X310992571Y-273309342D02*
X310849714Y-273380771D01*
X310492571Y-273380771D01*
X310349714Y-273309342D01*
X310278285Y-273166485D01*
X310278285Y-273023628D01*
X310349714Y-272880771D01*
X310492571Y-272809342D01*
X310849714Y-272809342D01*
X310992571Y-272737914D01*
X311492571Y-272380771D02*
X312064000Y-272380771D01*
X311706857Y-271880771D02*
X311706857Y-273166485D01*
X311778285Y-273309342D01*
X311921142Y-273380771D01*
X312064000Y-273380771D01*
X312564000Y-273380771D02*
X312564000Y-271880771D01*
X313206857Y-273380771D02*
X313206857Y-272595057D01*
X313135428Y-272452200D01*
X312992571Y-272380771D01*
X312778285Y-272380771D01*
X312635428Y-272452200D01*
X312564000Y-272523628D01*
X314492571Y-273309342D02*
X314349714Y-273380771D01*
X314064000Y-273380771D01*
X313921142Y-273309342D01*
X313849714Y-273166485D01*
X313849714Y-272595057D01*
X313921142Y-272452200D01*
X314064000Y-272380771D01*
X314349714Y-272380771D01*
X314492571Y-272452200D01*
X314564000Y-272595057D01*
X314564000Y-272737914D01*
X313849714Y-272880771D01*
X315206857Y-273380771D02*
X315206857Y-272380771D01*
X315206857Y-272666485D02*
X315278285Y-272523628D01*
X315349714Y-272452200D01*
X315492571Y-272380771D01*
X315635428Y-272380771D01*
X316135428Y-273380771D02*
X316135428Y-271880771D01*
X316992571Y-273380771D02*
X316349714Y-272523628D01*
X316992571Y-271880771D02*
X316135428Y-272737914D01*
X317635428Y-273380771D02*
X317635428Y-272380771D01*
X317635428Y-271880771D02*
X317564000Y-271952200D01*
X317635428Y-272023628D01*
X317706857Y-271952200D01*
X317635428Y-271880771D01*
X317635428Y-272023628D01*
X318992571Y-273380771D02*
X318992571Y-271880771D01*
X318992571Y-273309342D02*
X318849714Y-273380771D01*
X318564000Y-273380771D01*
X318421142Y-273309342D01*
X318349714Y-273237914D01*
X318278285Y-273095057D01*
X318278285Y-272666485D01*
X318349714Y-272523628D01*
X318421142Y-272452200D01*
X318564000Y-272380771D01*
X318849714Y-272380771D01*
X318992571Y-272452200D01*
X319635428Y-273309342D02*
X319778285Y-273380771D01*
X320064000Y-273380771D01*
X320206857Y-273309342D01*
X320278285Y-273166485D01*
X320278285Y-273095057D01*
X320206857Y-272952200D01*
X320064000Y-272880771D01*
X319849714Y-272880771D01*
X319706857Y-272809342D01*
X319635428Y-272666485D01*
X319635428Y-272595057D01*
X319706857Y-272452200D01*
X319849714Y-272380771D01*
X320064000Y-272380771D01*
X320206857Y-272452200D01*
X320564000Y-273523628D02*
X321706857Y-273523628D01*
X322921142Y-273237914D02*
X322849714Y-273309342D01*
X322635428Y-273380771D01*
X322492571Y-273380771D01*
X322278285Y-273309342D01*
X322135428Y-273166485D01*
X322064000Y-273023628D01*
X321992571Y-272737914D01*
X321992571Y-272523628D01*
X322064000Y-272237914D01*
X322135428Y-272095057D01*
X322278285Y-271952200D01*
X322492571Y-271880771D01*
X322635428Y-271880771D01*
X322849714Y-271952200D01*
X322921142Y-272023628D01*
X323778285Y-273380771D02*
X323635428Y-273309342D01*
X323564000Y-273237914D01*
X323492571Y-273095057D01*
X323492571Y-272666485D01*
X323564000Y-272523628D01*
X323635428Y-272452200D01*
X323778285Y-272380771D01*
X323992571Y-272380771D01*
X324135428Y-272452200D01*
X324206857Y-272523628D01*
X324278285Y-272666485D01*
X324278285Y-273095057D01*
X324206857Y-273237914D01*
X324135428Y-273309342D01*
X323992571Y-273380771D01*
X323778285Y-273380771D01*
X324921142Y-273380771D02*
X324921142Y-272380771D01*
X324921142Y-272523628D02*
X324992571Y-272452200D01*
X325135428Y-272380771D01*
X325349714Y-272380771D01*
X325492571Y-272452200D01*
X325564000Y-272595057D01*
X325564000Y-273380771D01*
X325564000Y-272595057D02*
X325635428Y-272452200D01*
X325778285Y-272380771D01*
X325992571Y-272380771D01*
X326135428Y-272452200D01*
X326206857Y-272595057D01*
X326206857Y-273380771D01*
X326921142Y-272380771D02*
X326921142Y-273880771D01*
X326921142Y-272452200D02*
X327064000Y-272380771D01*
X327349714Y-272380771D01*
X327492571Y-272452200D01*
X327564000Y-272523628D01*
X327635428Y-272666485D01*
X327635428Y-273095057D01*
X327564000Y-273237914D01*
X327492571Y-273309342D01*
X327349714Y-273380771D01*
X327064000Y-273380771D01*
X326921142Y-273309342D01*
X328921142Y-273380771D02*
X328921142Y-272595057D01*
X328849714Y-272452200D01*
X328706857Y-272380771D01*
X328421142Y-272380771D01*
X328278285Y-272452200D01*
X328921142Y-273309342D02*
X328778285Y-273380771D01*
X328421142Y-273380771D01*
X328278285Y-273309342D01*
X328206857Y-273166485D01*
X328206857Y-273023628D01*
X328278285Y-272880771D01*
X328421142Y-272809342D01*
X328778285Y-272809342D01*
X328921142Y-272737914D01*
X330278285Y-273309342D02*
X330135428Y-273380771D01*
X329849714Y-273380771D01*
X329706857Y-273309342D01*
X329635428Y-273237914D01*
X329564000Y-273095057D01*
X329564000Y-272666485D01*
X329635428Y-272523628D01*
X329706857Y-272452200D01*
X329849714Y-272380771D01*
X330135428Y-272380771D01*
X330278285Y-272452200D01*
X330706857Y-272380771D02*
X331278285Y-272380771D01*
X330921142Y-271880771D02*
X330921142Y-273166485D01*
X330992571Y-273309342D01*
X331135428Y-273380771D01*
X331278285Y-273380771D01*
X332206857Y-273952200D02*
X332135428Y-273880771D01*
X331992571Y-273666485D01*
X331921142Y-273523628D01*
X331849714Y-273309342D01*
X331778285Y-272952200D01*
X331778285Y-272666485D01*
X331849714Y-272309342D01*
X331921142Y-272095057D01*
X331992571Y-271952200D01*
X332135428Y-271737914D01*
X332206857Y-271666485D01*
X332564000Y-271880771D02*
X333064000Y-273380771D01*
X333564000Y-271880771D01*
X333992571Y-272023628D02*
X334064000Y-271952200D01*
X334206857Y-271880771D01*
X334564000Y-271880771D01*
X334706857Y-271952200D01*
X334778285Y-272023628D01*
X334849714Y-272166485D01*
X334849714Y-272309342D01*
X334778285Y-272523628D01*
X333921142Y-273380771D01*
X334849714Y-273380771D01*
X335492571Y-273237914D02*
X335564000Y-273309342D01*
X335492571Y-273380771D01*
X335421142Y-273309342D01*
X335492571Y-273237914D01*
X335492571Y-273380771D01*
X336992571Y-273380771D02*
X336135428Y-273380771D01*
X336564000Y-273380771D02*
X336564000Y-271880771D01*
X336421142Y-272095057D01*
X336278285Y-272237914D01*
X336135428Y-272309342D01*
X337492571Y-273952200D02*
X337564000Y-273880771D01*
X337706857Y-273666485D01*
X337778285Y-273523628D01*
X337849714Y-273309342D01*
X337921142Y-272952200D01*
X337921142Y-272666485D01*
X337849714Y-272309342D01*
X337778285Y-272095057D01*
X337706857Y-271952200D01*
X337564000Y-271737914D01*
X337492571Y-271666485D01*
X338635428Y-273237914D02*
X338706857Y-273309342D01*
X338635428Y-273380771D01*
X338564000Y-273309342D01*
X338635428Y-273237914D01*
X338635428Y-273380771D01*
X339349714Y-273380771D02*
X339349714Y-271880771D01*
X339492571Y-272809342D02*
X339921142Y-273380771D01*
X339921142Y-272380771D02*
X339349714Y-272952200D01*
X340564000Y-273380771D02*
X340564000Y-272380771D01*
X340564000Y-271880771D02*
X340492571Y-271952200D01*
X340564000Y-272023628D01*
X340635428Y-271952200D01*
X340564000Y-271880771D01*
X340564000Y-272023628D01*
X341921142Y-273309342D02*
X341778285Y-273380771D01*
X341492571Y-273380771D01*
X341349714Y-273309342D01*
X341278285Y-273237914D01*
X341206857Y-273095057D01*
X341206857Y-272666485D01*
X341278285Y-272523628D01*
X341349714Y-272452200D01*
X341492571Y-272380771D01*
X341778285Y-272380771D01*
X341921142Y-272452200D01*
X343206857Y-273380771D02*
X343206857Y-272595057D01*
X343135428Y-272452200D01*
X342992571Y-272380771D01*
X342706857Y-272380771D01*
X342564000Y-272452200D01*
X343206857Y-273309342D02*
X343064000Y-273380771D01*
X342706857Y-273380771D01*
X342564000Y-273309342D01*
X342492571Y-273166485D01*
X342492571Y-273023628D01*
X342564000Y-272880771D01*
X342706857Y-272809342D01*
X343064000Y-272809342D01*
X343206857Y-272737914D01*
X344564000Y-273380771D02*
X344564000Y-271880771D01*
X344564000Y-273309342D02*
X344421142Y-273380771D01*
X344135428Y-273380771D01*
X343992571Y-273309342D01*
X343921142Y-273237914D01*
X343849714Y-273095057D01*
X343849714Y-272666485D01*
X343921142Y-272523628D01*
X343992571Y-272452200D01*
X344135428Y-272380771D01*
X344421142Y-272380771D01*
X344564000Y-272452200D01*
X344921142Y-273523628D02*
X346064000Y-273523628D01*
X346421142Y-272380771D02*
X346421142Y-273880771D01*
X346421142Y-272452200D02*
X346564000Y-272380771D01*
X346849714Y-272380771D01*
X346992571Y-272452200D01*
X347064000Y-272523628D01*
X347135428Y-272666485D01*
X347135428Y-273095057D01*
X347064000Y-273237914D01*
X346992571Y-273309342D01*
X346849714Y-273380771D01*
X346564000Y-273380771D01*
X346421142Y-273309342D01*
X348421142Y-273309342D02*
X348278285Y-273380771D01*
X347992571Y-273380771D01*
X347849714Y-273309342D01*
X347778285Y-273237914D01*
X347706857Y-273095057D01*
X347706857Y-272666485D01*
X347778285Y-272523628D01*
X347849714Y-272452200D01*
X347992571Y-272380771D01*
X348278285Y-272380771D01*
X348421142Y-272452200D01*
X349064000Y-273380771D02*
X349064000Y-271880771D01*
X349064000Y-272452200D02*
X349206857Y-272380771D01*
X349492571Y-272380771D01*
X349635428Y-272452200D01*
X349706857Y-272523628D01*
X349778285Y-272666485D01*
X349778285Y-273095057D01*
X349706857Y-273237914D01*
X349635428Y-273309342D01*
X349492571Y-273380771D01*
X349206857Y-273380771D01*
X349064000Y-273309342D01*
D10*
D11*
X299989000Y-268502200D02*
X407989000Y-268502200D01*
D10*
D11*
X301349714Y-270609342D02*
X301564000Y-270680771D01*
X301921142Y-270680771D01*
X302064000Y-270609342D01*
X302135428Y-270537914D01*
X302206857Y-270395057D01*
X302206857Y-270252200D01*
X302135428Y-270109342D01*
X302064000Y-270037914D01*
X301921142Y-269966485D01*
X301635428Y-269895057D01*
X301492571Y-269823628D01*
X301421142Y-269752200D01*
X301349714Y-269609342D01*
X301349714Y-269466485D01*
X301421142Y-269323628D01*
X301492571Y-269252200D01*
X301635428Y-269180771D01*
X301992571Y-269180771D01*
X302206857Y-269252200D01*
X302849714Y-270680771D02*
X302849714Y-269180771D01*
X303492571Y-270680771D02*
X303492571Y-269895057D01*
X303421142Y-269752200D01*
X303278285Y-269680771D01*
X303064000Y-269680771D01*
X302921142Y-269752200D01*
X302849714Y-269823628D01*
X304778285Y-270609342D02*
X304635428Y-270680771D01*
X304349714Y-270680771D01*
X304206857Y-270609342D01*
X304135428Y-270466485D01*
X304135428Y-269895057D01*
X304206857Y-269752200D01*
X304349714Y-269680771D01*
X304635428Y-269680771D01*
X304778285Y-269752200D01*
X304849714Y-269895057D01*
X304849714Y-270037914D01*
X304135428Y-270180771D01*
X306064000Y-270609342D02*
X305921142Y-270680771D01*
X305635428Y-270680771D01*
X305492571Y-270609342D01*
X305421142Y-270466485D01*
X305421142Y-269895057D01*
X305492571Y-269752200D01*
X305635428Y-269680771D01*
X305921142Y-269680771D01*
X306064000Y-269752200D01*
X306135428Y-269895057D01*
X306135428Y-270037914D01*
X305421142Y-270180771D01*
X306564000Y-269680771D02*
X307135428Y-269680771D01*
X306778285Y-269180771D02*
X306778285Y-270466485D01*
X306849714Y-270609342D01*
X306992571Y-270680771D01*
X307135428Y-270680771D01*
X307635428Y-270537914D02*
X307706857Y-270609342D01*
X307635428Y-270680771D01*
X307564000Y-270609342D01*
X307635428Y-270537914D01*
X307635428Y-270680771D01*
X307635428Y-269752200D02*
X307706857Y-269823628D01*
X307635428Y-269895057D01*
X307564000Y-269823628D01*
X307635428Y-269752200D01*
X307635428Y-269895057D01*
D10*
D12*
D10*
D11*
D10*
D11*
D10*
D11*
D10*
D11*
D10*
D11*
X319989000Y-278502200D02*
X319989000Y-281502200D01*
D10*
D11*
X383989000Y-278502200D02*
X383989000Y-285002200D01*
D14*
X21000000Y-92000000D02*
X74000000Y-92000000D01*
X25351225Y-46600000D02*
G75*
G03*
X25351225Y-48600000I50025J-1000000D01*
G01*
X30200000Y-27451225D02*
G75*
G03*
X28200000Y-27451225I-1000000J-50025D01*
G01*
X74000000Y-92000000D02*
X74000000Y-22000000D01*
X30200000Y-27451225D02*
X30200000Y-46600000D01*
X28200000Y-45600000D02*
X28200000Y-27451225D01*
X27100000Y-46600000D02*
G75*
G03*
X28200000Y-45600000I50000J1050000D01*
G01*
X21000000Y-22000000D02*
X21000000Y-92000000D01*
X74000000Y-22000000D02*
X21000000Y-22000000D01*
X28100000Y-48600000D02*
G75*
G03*
X30200000Y-46600000I50000J2050000D01*
G01*
X25351225Y-48600000D02*
X28100000Y-48600000D01*
X25351225Y-46600000D02*
X27100000Y-46600000D01*
D11*
%TO.C,U4*%
X55088095Y-69552380D02*
X55088095Y-70361904D01*
X55135714Y-70457142D01*
X55183333Y-70504761D01*
X55278571Y-70552380D01*
X55469047Y-70552380D01*
X55564285Y-70504761D01*
X55611904Y-70457142D01*
X55659523Y-70361904D01*
X55659523Y-69552380D01*
X56564285Y-69885714D02*
X56564285Y-70552380D01*
X56326190Y-69504761D02*
X56088095Y-70219047D01*
X56707142Y-70219047D01*
%TO.C,R7*%
X56633333Y-72622380D02*
X56300000Y-72146190D01*
X56061904Y-72622380D02*
X56061904Y-71622380D01*
X56442857Y-71622380D01*
X56538095Y-71670000D01*
X56585714Y-71717619D01*
X56633333Y-71812857D01*
X56633333Y-71955714D01*
X56585714Y-72050952D01*
X56538095Y-72098571D01*
X56442857Y-72146190D01*
X56061904Y-72146190D01*
X56966666Y-71622380D02*
X57633333Y-71622380D01*
X57204761Y-72622380D01*
%TO.C,C6*%
X53377142Y-51266666D02*
X53424761Y-51314285D01*
X53472380Y-51457142D01*
X53472380Y-51552380D01*
X53424761Y-51695238D01*
X53329523Y-51790476D01*
X53234285Y-51838095D01*
X53043809Y-51885714D01*
X52900952Y-51885714D01*
X52710476Y-51838095D01*
X52615238Y-51790476D01*
X52520000Y-51695238D01*
X52472380Y-51552380D01*
X52472380Y-51457142D01*
X52520000Y-51314285D01*
X52567619Y-51266666D01*
X52472380Y-50409523D02*
X52472380Y-50600000D01*
X52520000Y-50695238D01*
X52567619Y-50742857D01*
X52710476Y-50838095D01*
X52900952Y-50885714D01*
X53281904Y-50885714D01*
X53377142Y-50838095D01*
X53424761Y-50790476D01*
X53472380Y-50695238D01*
X53472380Y-50504761D01*
X53424761Y-50409523D01*
X53377142Y-50361904D01*
X53281904Y-50314285D01*
X53043809Y-50314285D01*
X52948571Y-50361904D01*
X52900952Y-50409523D01*
X52853333Y-50504761D01*
X52853333Y-50695238D01*
X52900952Y-50790476D01*
X52948571Y-50838095D01*
X53043809Y-50885714D01*
%TO.C,U11*%
X43561904Y-76352380D02*
X43561904Y-77161904D01*
X43609523Y-77257142D01*
X43657142Y-77304761D01*
X43752380Y-77352380D01*
X43942857Y-77352380D01*
X44038095Y-77304761D01*
X44085714Y-77257142D01*
X44133333Y-77161904D01*
X44133333Y-76352380D01*
X45133333Y-77352380D02*
X44561904Y-77352380D01*
X44847619Y-77352380D02*
X44847619Y-76352380D01*
X44752380Y-76495238D01*
X44657142Y-76590476D01*
X44561904Y-76638095D01*
X46085714Y-77352380D02*
X45514285Y-77352380D01*
X45800000Y-77352380D02*
X45800000Y-76352380D01*
X45704761Y-76495238D01*
X45609523Y-76590476D01*
X45514285Y-76638095D01*
%TO.C,R24*%
X61102380Y-30142857D02*
X60626190Y-30476190D01*
X61102380Y-30714285D02*
X60102380Y-30714285D01*
X60102380Y-30333333D01*
X60150000Y-30238095D01*
X60197619Y-30190476D01*
X60292857Y-30142857D01*
X60435714Y-30142857D01*
X60530952Y-30190476D01*
X60578571Y-30238095D01*
X60626190Y-30333333D01*
X60626190Y-30714285D01*
X60197619Y-29761904D02*
X60150000Y-29714285D01*
X60102380Y-29619047D01*
X60102380Y-29380952D01*
X60150000Y-29285714D01*
X60197619Y-29238095D01*
X60292857Y-29190476D01*
X60388095Y-29190476D01*
X60530952Y-29238095D01*
X61102380Y-29809523D01*
X61102380Y-29190476D01*
X60435714Y-28333333D02*
X61102380Y-28333333D01*
X60054761Y-28571428D02*
X60769047Y-28809523D01*
X60769047Y-28190476D01*
%TO.C,R21*%
X39419642Y-71662380D02*
X39086309Y-71186190D01*
X38848214Y-71662380D02*
X38848214Y-70662380D01*
X39229166Y-70662380D01*
X39324404Y-70710000D01*
X39372023Y-70757619D01*
X39419642Y-70852857D01*
X39419642Y-70995714D01*
X39372023Y-71090952D01*
X39324404Y-71138571D01*
X39229166Y-71186190D01*
X38848214Y-71186190D01*
X39800595Y-70757619D02*
X39848214Y-70710000D01*
X39943452Y-70662380D01*
X40181547Y-70662380D01*
X40276785Y-70710000D01*
X40324404Y-70757619D01*
X40372023Y-70852857D01*
X40372023Y-70948095D01*
X40324404Y-71090952D01*
X39752976Y-71662380D01*
X40372023Y-71662380D01*
X41324404Y-71662380D02*
X40752976Y-71662380D01*
X41038690Y-71662380D02*
X41038690Y-70662380D01*
X40943452Y-70805238D01*
X40848214Y-70900476D01*
X40752976Y-70948095D01*
%TO.C,R11*%
X47302380Y-49952857D02*
X46826190Y-50286190D01*
X47302380Y-50524285D02*
X46302380Y-50524285D01*
X46302380Y-50143333D01*
X46350000Y-50048095D01*
X46397619Y-50000476D01*
X46492857Y-49952857D01*
X46635714Y-49952857D01*
X46730952Y-50000476D01*
X46778571Y-50048095D01*
X46826190Y-50143333D01*
X46826190Y-50524285D01*
X47302380Y-49000476D02*
X47302380Y-49571904D01*
X47302380Y-49286190D02*
X46302380Y-49286190D01*
X46445238Y-49381428D01*
X46540476Y-49476666D01*
X46588095Y-49571904D01*
X47302380Y-48048095D02*
X47302380Y-48619523D01*
X47302380Y-48333809D02*
X46302380Y-48333809D01*
X46445238Y-48429047D01*
X46540476Y-48524285D01*
X46588095Y-48619523D01*
%TO.C,C25*%
X64507142Y-39847142D02*
X64459523Y-39894761D01*
X64316666Y-39942380D01*
X64221428Y-39942380D01*
X64078571Y-39894761D01*
X63983333Y-39799523D01*
X63935714Y-39704285D01*
X63888095Y-39513809D01*
X63888095Y-39370952D01*
X63935714Y-39180476D01*
X63983333Y-39085238D01*
X64078571Y-38990000D01*
X64221428Y-38942380D01*
X64316666Y-38942380D01*
X64459523Y-38990000D01*
X64507142Y-39037619D01*
X64888095Y-39037619D02*
X64935714Y-38990000D01*
X65030952Y-38942380D01*
X65269047Y-38942380D01*
X65364285Y-38990000D01*
X65411904Y-39037619D01*
X65459523Y-39132857D01*
X65459523Y-39228095D01*
X65411904Y-39370952D01*
X64840476Y-39942380D01*
X65459523Y-39942380D01*
X66364285Y-38942380D02*
X65888095Y-38942380D01*
X65840476Y-39418571D01*
X65888095Y-39370952D01*
X65983333Y-39323333D01*
X66221428Y-39323333D01*
X66316666Y-39370952D01*
X66364285Y-39418571D01*
X66411904Y-39513809D01*
X66411904Y-39751904D01*
X66364285Y-39847142D01*
X66316666Y-39894761D01*
X66221428Y-39942380D01*
X65983333Y-39942380D01*
X65888095Y-39894761D01*
X65840476Y-39847142D01*
%TO.C,SW3*%
X78535238Y-44466666D02*
X78487619Y-44609523D01*
X78487619Y-44847619D01*
X78535238Y-44942857D01*
X78582857Y-44990476D01*
X78678095Y-45038095D01*
X78773333Y-45038095D01*
X78868571Y-44990476D01*
X78916190Y-44942857D01*
X78963809Y-44847619D01*
X79011428Y-44657142D01*
X79059047Y-44561904D01*
X79106666Y-44514285D01*
X79201904Y-44466666D01*
X79297142Y-44466666D01*
X79392380Y-44514285D01*
X79440000Y-44561904D01*
X79487619Y-44657142D01*
X79487619Y-44895238D01*
X79440000Y-45038095D01*
X79487619Y-45371428D02*
X78487619Y-45609523D01*
X79201904Y-45800000D01*
X78487619Y-45990476D01*
X79487619Y-46228571D01*
X79487619Y-46514285D02*
X79487619Y-47133333D01*
X79106666Y-46800000D01*
X79106666Y-46942857D01*
X79059047Y-47038095D01*
X79011428Y-47085714D01*
X78916190Y-47133333D01*
X78678095Y-47133333D01*
X78582857Y-47085714D01*
X78535238Y-47038095D01*
X78487619Y-46942857D01*
X78487619Y-46657142D01*
X78535238Y-46561904D01*
X78582857Y-46514285D01*
%TO.C,H2*%
X70238095Y-22252380D02*
X70238095Y-21252380D01*
X70238095Y-21728571D02*
X70809523Y-21728571D01*
X70809523Y-22252380D02*
X70809523Y-21252380D01*
X71238095Y-21347619D02*
X71285714Y-21300000D01*
X71380952Y-21252380D01*
X71619047Y-21252380D01*
X71714285Y-21300000D01*
X71761904Y-21347619D01*
X71809523Y-21442857D01*
X71809523Y-21538095D01*
X71761904Y-21680952D01*
X71190476Y-22252380D01*
X71809523Y-22252380D01*
%TO.C,R2*%
X44143333Y-80522380D02*
X43810000Y-80046190D01*
X43571904Y-80522380D02*
X43571904Y-79522380D01*
X43952857Y-79522380D01*
X44048095Y-79570000D01*
X44095714Y-79617619D01*
X44143333Y-79712857D01*
X44143333Y-79855714D01*
X44095714Y-79950952D01*
X44048095Y-79998571D01*
X43952857Y-80046190D01*
X43571904Y-80046190D01*
X44524285Y-79617619D02*
X44571904Y-79570000D01*
X44667142Y-79522380D01*
X44905238Y-79522380D01*
X45000476Y-79570000D01*
X45048095Y-79617619D01*
X45095714Y-79712857D01*
X45095714Y-79808095D01*
X45048095Y-79950952D01*
X44476666Y-80522380D01*
X45095714Y-80522380D01*
%TO.C,C9*%
X53427142Y-64316666D02*
X53474761Y-64364285D01*
X53522380Y-64507142D01*
X53522380Y-64602380D01*
X53474761Y-64745238D01*
X53379523Y-64840476D01*
X53284285Y-64888095D01*
X53093809Y-64935714D01*
X52950952Y-64935714D01*
X52760476Y-64888095D01*
X52665238Y-64840476D01*
X52570000Y-64745238D01*
X52522380Y-64602380D01*
X52522380Y-64507142D01*
X52570000Y-64364285D01*
X52617619Y-64316666D01*
X53522380Y-63840476D02*
X53522380Y-63650000D01*
X53474761Y-63554761D01*
X53427142Y-63507142D01*
X53284285Y-63411904D01*
X53093809Y-63364285D01*
X52712857Y-63364285D01*
X52617619Y-63411904D01*
X52570000Y-63459523D01*
X52522380Y-63554761D01*
X52522380Y-63745238D01*
X52570000Y-63840476D01*
X52617619Y-63888095D01*
X52712857Y-63935714D01*
X52950952Y-63935714D01*
X53046190Y-63888095D01*
X53093809Y-63840476D01*
X53141428Y-63745238D01*
X53141428Y-63554761D01*
X53093809Y-63459523D01*
X53046190Y-63411904D01*
X52950952Y-63364285D01*
%TO.C,R8*%
X56633333Y-71332380D02*
X56300000Y-70856190D01*
X56061904Y-71332380D02*
X56061904Y-70332380D01*
X56442857Y-70332380D01*
X56538095Y-70380000D01*
X56585714Y-70427619D01*
X56633333Y-70522857D01*
X56633333Y-70665714D01*
X56585714Y-70760952D01*
X56538095Y-70808571D01*
X56442857Y-70856190D01*
X56061904Y-70856190D01*
X57204761Y-70760952D02*
X57109523Y-70713333D01*
X57061904Y-70665714D01*
X57014285Y-70570476D01*
X57014285Y-70522857D01*
X57061904Y-70427619D01*
X57109523Y-70380000D01*
X57204761Y-70332380D01*
X57395238Y-70332380D01*
X57490476Y-70380000D01*
X57538095Y-70427619D01*
X57585714Y-70522857D01*
X57585714Y-70570476D01*
X57538095Y-70665714D01*
X57490476Y-70713333D01*
X57395238Y-70760952D01*
X57204761Y-70760952D01*
X57109523Y-70808571D01*
X57061904Y-70856190D01*
X57014285Y-70951428D01*
X57014285Y-71141904D01*
X57061904Y-71237142D01*
X57109523Y-71284761D01*
X57204761Y-71332380D01*
X57395238Y-71332380D01*
X57490476Y-71284761D01*
X57538095Y-71237142D01*
X57585714Y-71141904D01*
X57585714Y-70951428D01*
X57538095Y-70856190D01*
X57490476Y-70808571D01*
X57395238Y-70760952D01*
%TO.C,D4*%
X55502380Y-55178095D02*
X54502380Y-55178095D01*
X54502380Y-54940000D01*
X54550000Y-54797142D01*
X54645238Y-54701904D01*
X54740476Y-54654285D01*
X54930952Y-54606666D01*
X55073809Y-54606666D01*
X55264285Y-54654285D01*
X55359523Y-54701904D01*
X55454761Y-54797142D01*
X55502380Y-54940000D01*
X55502380Y-55178095D01*
X54835714Y-53749523D02*
X55502380Y-53749523D01*
X54454761Y-53987619D02*
X55169047Y-54225714D01*
X55169047Y-53606666D01*
%TO.C,L2*%
X58660119Y-67933333D02*
X58660119Y-67457142D01*
X59660119Y-67457142D01*
X59564880Y-68219047D02*
X59612500Y-68266666D01*
X59660119Y-68361904D01*
X59660119Y-68600000D01*
X59612500Y-68695238D01*
X59564880Y-68742857D01*
X59469642Y-68790476D01*
X59374404Y-68790476D01*
X59231547Y-68742857D01*
X58660119Y-68171428D01*
X58660119Y-68790476D01*
%TO.C,R1*%
X64620833Y-63232380D02*
X64287500Y-62756190D01*
X64049404Y-63232380D02*
X64049404Y-62232380D01*
X64430357Y-62232380D01*
X64525595Y-62280000D01*
X64573214Y-62327619D01*
X64620833Y-62422857D01*
X64620833Y-62565714D01*
X64573214Y-62660952D01*
X64525595Y-62708571D01*
X64430357Y-62756190D01*
X64049404Y-62756190D01*
X65573214Y-63232380D02*
X65001785Y-63232380D01*
X65287500Y-63232380D02*
X65287500Y-62232380D01*
X65192261Y-62375238D01*
X65097023Y-62470476D01*
X65001785Y-62518095D01*
%TO.C,U15*%
X58291904Y-37052380D02*
X58291904Y-37861904D01*
X58339523Y-37957142D01*
X58387142Y-38004761D01*
X58482380Y-38052380D01*
X58672857Y-38052380D01*
X58768095Y-38004761D01*
X58815714Y-37957142D01*
X58863333Y-37861904D01*
X58863333Y-37052380D01*
X59863333Y-38052380D02*
X59291904Y-38052380D01*
X59577619Y-38052380D02*
X59577619Y-37052380D01*
X59482380Y-37195238D01*
X59387142Y-37290476D01*
X59291904Y-37338095D01*
X60768095Y-37052380D02*
X60291904Y-37052380D01*
X60244285Y-37528571D01*
X60291904Y-37480952D01*
X60387142Y-37433333D01*
X60625238Y-37433333D01*
X60720476Y-37480952D01*
X60768095Y-37528571D01*
X60815714Y-37623809D01*
X60815714Y-37861904D01*
X60768095Y-37957142D01*
X60720476Y-38004761D01*
X60625238Y-38052380D01*
X60387142Y-38052380D01*
X60291904Y-38004761D01*
X60244285Y-37957142D01*
%TO.C,R14*%
X23947142Y-42322380D02*
X23613809Y-41846190D01*
X23375714Y-42322380D02*
X23375714Y-41322380D01*
X23756666Y-41322380D01*
X23851904Y-41370000D01*
X23899523Y-41417619D01*
X23947142Y-41512857D01*
X23947142Y-41655714D01*
X23899523Y-41750952D01*
X23851904Y-41798571D01*
X23756666Y-41846190D01*
X23375714Y-41846190D01*
X24899523Y-42322380D02*
X24328095Y-42322380D01*
X24613809Y-42322380D02*
X24613809Y-41322380D01*
X24518571Y-41465238D01*
X24423333Y-41560476D01*
X24328095Y-41608095D01*
X25756666Y-41655714D02*
X25756666Y-42322380D01*
X25518571Y-41274761D02*
X25280476Y-41989047D01*
X25899523Y-41989047D01*
%TO.C,D7*%
X33511904Y-61902380D02*
X33511904Y-60902380D01*
X33750000Y-60902380D01*
X33892857Y-60950000D01*
X33988095Y-61045238D01*
X34035714Y-61140476D01*
X34083333Y-61330952D01*
X34083333Y-61473809D01*
X34035714Y-61664285D01*
X33988095Y-61759523D01*
X33892857Y-61854761D01*
X33750000Y-61902380D01*
X33511904Y-61902380D01*
X34416666Y-60902380D02*
X35083333Y-60902380D01*
X34654761Y-61902380D01*
%TO.C,D3*%
X58711904Y-57892380D02*
X58711904Y-56892380D01*
X58950000Y-56892380D01*
X59092857Y-56940000D01*
X59188095Y-57035238D01*
X59235714Y-57130476D01*
X59283333Y-57320952D01*
X59283333Y-57463809D01*
X59235714Y-57654285D01*
X59188095Y-57749523D01*
X59092857Y-57844761D01*
X58950000Y-57892380D01*
X58711904Y-57892380D01*
X59616666Y-56892380D02*
X60235714Y-56892380D01*
X59902380Y-57273333D01*
X60045238Y-57273333D01*
X60140476Y-57320952D01*
X60188095Y-57368571D01*
X60235714Y-57463809D01*
X60235714Y-57701904D01*
X60188095Y-57797142D01*
X60140476Y-57844761D01*
X60045238Y-57892380D01*
X59759523Y-57892380D01*
X59664285Y-57844761D01*
X59616666Y-57797142D01*
%TO.C,C2*%
X64295833Y-65477142D02*
X64248214Y-65524761D01*
X64105357Y-65572380D01*
X64010119Y-65572380D01*
X63867261Y-65524761D01*
X63772023Y-65429523D01*
X63724404Y-65334285D01*
X63676785Y-65143809D01*
X63676785Y-65000952D01*
X63724404Y-64810476D01*
X63772023Y-64715238D01*
X63867261Y-64620000D01*
X64010119Y-64572380D01*
X64105357Y-64572380D01*
X64248214Y-64620000D01*
X64295833Y-64667619D01*
X64676785Y-64667619D02*
X64724404Y-64620000D01*
X64819642Y-64572380D01*
X65057738Y-64572380D01*
X65152976Y-64620000D01*
X65200595Y-64667619D01*
X65248214Y-64762857D01*
X65248214Y-64858095D01*
X65200595Y-65000952D01*
X64629166Y-65572380D01*
X65248214Y-65572380D01*
%TO.C,D2*%
X42661904Y-79952380D02*
X42661904Y-78952380D01*
X42900000Y-78952380D01*
X43042857Y-79000000D01*
X43138095Y-79095238D01*
X43185714Y-79190476D01*
X43233333Y-79380952D01*
X43233333Y-79523809D01*
X43185714Y-79714285D01*
X43138095Y-79809523D01*
X43042857Y-79904761D01*
X42900000Y-79952380D01*
X42661904Y-79952380D01*
X43614285Y-79047619D02*
X43661904Y-79000000D01*
X43757142Y-78952380D01*
X43995238Y-78952380D01*
X44090476Y-79000000D01*
X44138095Y-79047619D01*
X44185714Y-79142857D01*
X44185714Y-79238095D01*
X44138095Y-79380952D01*
X43566666Y-79952380D01*
X44185714Y-79952380D01*
%TO.C,C3*%
X65745833Y-79097142D02*
X65698214Y-79144761D01*
X65555357Y-79192380D01*
X65460119Y-79192380D01*
X65317261Y-79144761D01*
X65222023Y-79049523D01*
X65174404Y-78954285D01*
X65126785Y-78763809D01*
X65126785Y-78620952D01*
X65174404Y-78430476D01*
X65222023Y-78335238D01*
X65317261Y-78240000D01*
X65460119Y-78192380D01*
X65555357Y-78192380D01*
X65698214Y-78240000D01*
X65745833Y-78287619D01*
X66079166Y-78192380D02*
X66698214Y-78192380D01*
X66364880Y-78573333D01*
X66507738Y-78573333D01*
X66602976Y-78620952D01*
X66650595Y-78668571D01*
X66698214Y-78763809D01*
X66698214Y-79001904D01*
X66650595Y-79097142D01*
X66602976Y-79144761D01*
X66507738Y-79192380D01*
X66222023Y-79192380D01*
X66126785Y-79144761D01*
X66079166Y-79097142D01*
%TO.C,C16*%
X28817142Y-42942857D02*
X28864761Y-42990476D01*
X28912380Y-43133333D01*
X28912380Y-43228571D01*
X28864761Y-43371428D01*
X28769523Y-43466666D01*
X28674285Y-43514285D01*
X28483809Y-43561904D01*
X28340952Y-43561904D01*
X28150476Y-43514285D01*
X28055238Y-43466666D01*
X27960000Y-43371428D01*
X27912380Y-43228571D01*
X27912380Y-43133333D01*
X27960000Y-42990476D01*
X28007619Y-42942857D01*
X28912380Y-41990476D02*
X28912380Y-42561904D01*
X28912380Y-42276190D02*
X27912380Y-42276190D01*
X28055238Y-42371428D01*
X28150476Y-42466666D01*
X28198095Y-42561904D01*
X27912380Y-41133333D02*
X27912380Y-41323809D01*
X27960000Y-41419047D01*
X28007619Y-41466666D01*
X28150476Y-41561904D01*
X28340952Y-41609523D01*
X28721904Y-41609523D01*
X28817142Y-41561904D01*
X28864761Y-41514285D01*
X28912380Y-41419047D01*
X28912380Y-41228571D01*
X28864761Y-41133333D01*
X28817142Y-41085714D01*
X28721904Y-41038095D01*
X28483809Y-41038095D01*
X28388571Y-41085714D01*
X28340952Y-41133333D01*
X28293333Y-41228571D01*
X28293333Y-41419047D01*
X28340952Y-41514285D01*
X28388571Y-41561904D01*
X28483809Y-41609523D01*
%TO.C,U7*%
X35018095Y-57452380D02*
X35018095Y-58261904D01*
X35065714Y-58357142D01*
X35113333Y-58404761D01*
X35208571Y-58452380D01*
X35399047Y-58452380D01*
X35494285Y-58404761D01*
X35541904Y-58357142D01*
X35589523Y-58261904D01*
X35589523Y-57452380D01*
X35970476Y-57452380D02*
X36637142Y-57452380D01*
X36208571Y-58452380D01*
%TO.C,J2*%
X69152380Y-83633333D02*
X69866666Y-83633333D01*
X70009523Y-83680952D01*
X70104761Y-83776190D01*
X70152380Y-83919047D01*
X70152380Y-84014285D01*
X69247619Y-83204761D02*
X69200000Y-83157142D01*
X69152380Y-83061904D01*
X69152380Y-82823809D01*
X69200000Y-82728571D01*
X69247619Y-82680952D01*
X69342857Y-82633333D01*
X69438095Y-82633333D01*
X69580952Y-82680952D01*
X70152380Y-83252380D01*
X70152380Y-82633333D01*
%TO.C,C20*%
X58857142Y-74907142D02*
X58809523Y-74954761D01*
X58666666Y-75002380D01*
X58571428Y-75002380D01*
X58428571Y-74954761D01*
X58333333Y-74859523D01*
X58285714Y-74764285D01*
X58238095Y-74573809D01*
X58238095Y-74430952D01*
X58285714Y-74240476D01*
X58333333Y-74145238D01*
X58428571Y-74050000D01*
X58571428Y-74002380D01*
X58666666Y-74002380D01*
X58809523Y-74050000D01*
X58857142Y-74097619D01*
X59238095Y-74097619D02*
X59285714Y-74050000D01*
X59380952Y-74002380D01*
X59619047Y-74002380D01*
X59714285Y-74050000D01*
X59761904Y-74097619D01*
X59809523Y-74192857D01*
X59809523Y-74288095D01*
X59761904Y-74430952D01*
X59190476Y-75002380D01*
X59809523Y-75002380D01*
X60428571Y-74002380D02*
X60523809Y-74002380D01*
X60619047Y-74050000D01*
X60666666Y-74097619D01*
X60714285Y-74192857D01*
X60761904Y-74383333D01*
X60761904Y-74621428D01*
X60714285Y-74811904D01*
X60666666Y-74907142D01*
X60619047Y-74954761D01*
X60523809Y-75002380D01*
X60428571Y-75002380D01*
X60333333Y-74954761D01*
X60285714Y-74907142D01*
X60238095Y-74811904D01*
X60190476Y-74621428D01*
X60190476Y-74383333D01*
X60238095Y-74192857D01*
X60285714Y-74097619D01*
X60333333Y-74050000D01*
X60428571Y-74002380D01*
%TO.C,U1*%
X63438095Y-60952380D02*
X63438095Y-61761904D01*
X63485714Y-61857142D01*
X63533333Y-61904761D01*
X63628571Y-61952380D01*
X63819047Y-61952380D01*
X63914285Y-61904761D01*
X63961904Y-61857142D01*
X64009523Y-61761904D01*
X64009523Y-60952380D01*
X65009523Y-61952380D02*
X64438095Y-61952380D01*
X64723809Y-61952380D02*
X64723809Y-60952380D01*
X64628571Y-61095238D01*
X64533333Y-61190476D01*
X64438095Y-61238095D01*
%TO.C,SW1*%
X74120238Y-61266666D02*
X74072619Y-61409523D01*
X74072619Y-61647619D01*
X74120238Y-61742857D01*
X74167857Y-61790476D01*
X74263095Y-61838095D01*
X74358333Y-61838095D01*
X74453571Y-61790476D01*
X74501190Y-61742857D01*
X74548809Y-61647619D01*
X74596428Y-61457142D01*
X74644047Y-61361904D01*
X74691666Y-61314285D01*
X74786904Y-61266666D01*
X74882142Y-61266666D01*
X74977380Y-61314285D01*
X75025000Y-61361904D01*
X75072619Y-61457142D01*
X75072619Y-61695238D01*
X75025000Y-61838095D01*
X75072619Y-62171428D02*
X74072619Y-62409523D01*
X74786904Y-62600000D01*
X74072619Y-62790476D01*
X75072619Y-63028571D01*
X74072619Y-63933333D02*
X74072619Y-63361904D01*
X74072619Y-63647619D02*
X75072619Y-63647619D01*
X74929761Y-63552380D01*
X74834523Y-63457142D01*
X74786904Y-63361904D01*
%TO.C,C26*%
X58857142Y-43017142D02*
X58809523Y-43064761D01*
X58666666Y-43112380D01*
X58571428Y-43112380D01*
X58428571Y-43064761D01*
X58333333Y-42969523D01*
X58285714Y-42874285D01*
X58238095Y-42683809D01*
X58238095Y-42540952D01*
X58285714Y-42350476D01*
X58333333Y-42255238D01*
X58428571Y-42160000D01*
X58571428Y-42112380D01*
X58666666Y-42112380D01*
X58809523Y-42160000D01*
X58857142Y-42207619D01*
X59238095Y-42207619D02*
X59285714Y-42160000D01*
X59380952Y-42112380D01*
X59619047Y-42112380D01*
X59714285Y-42160000D01*
X59761904Y-42207619D01*
X59809523Y-42302857D01*
X59809523Y-42398095D01*
X59761904Y-42540952D01*
X59190476Y-43112380D01*
X59809523Y-43112380D01*
X60666666Y-42112380D02*
X60476190Y-42112380D01*
X60380952Y-42160000D01*
X60333333Y-42207619D01*
X60238095Y-42350476D01*
X60190476Y-42540952D01*
X60190476Y-42921904D01*
X60238095Y-43017142D01*
X60285714Y-43064761D01*
X60380952Y-43112380D01*
X60571428Y-43112380D01*
X60666666Y-43064761D01*
X60714285Y-43017142D01*
X60761904Y-42921904D01*
X60761904Y-42683809D01*
X60714285Y-42588571D01*
X60666666Y-42540952D01*
X60571428Y-42493333D01*
X60380952Y-42493333D01*
X60285714Y-42540952D01*
X60238095Y-42588571D01*
X60190476Y-42683809D01*
%TO.C,U9*%
X42500595Y-70692380D02*
X42500595Y-71501904D01*
X42548214Y-71597142D01*
X42595833Y-71644761D01*
X42691071Y-71692380D01*
X42881547Y-71692380D01*
X42976785Y-71644761D01*
X43024404Y-71597142D01*
X43072023Y-71501904D01*
X43072023Y-70692380D01*
X43595833Y-71692380D02*
X43786309Y-71692380D01*
X43881547Y-71644761D01*
X43929166Y-71597142D01*
X44024404Y-71454285D01*
X44072023Y-71263809D01*
X44072023Y-70882857D01*
X44024404Y-70787619D01*
X43976785Y-70740000D01*
X43881547Y-70692380D01*
X43691071Y-70692380D01*
X43595833Y-70740000D01*
X43548214Y-70787619D01*
X43500595Y-70882857D01*
X43500595Y-71120952D01*
X43548214Y-71216190D01*
X43595833Y-71263809D01*
X43691071Y-71311428D01*
X43881547Y-71311428D01*
X43976785Y-71263809D01*
X44024404Y-71216190D01*
X44072023Y-71120952D01*
%TO.C,J11*%
X65637380Y-35109523D02*
X66351666Y-35109523D01*
X66494523Y-35157142D01*
X66589761Y-35252380D01*
X66637380Y-35395238D01*
X66637380Y-35490476D01*
X66637380Y-34109523D02*
X66637380Y-34680952D01*
X66637380Y-34395238D02*
X65637380Y-34395238D01*
X65780238Y-34490476D01*
X65875476Y-34585714D01*
X65923095Y-34680952D01*
X66637380Y-33157142D02*
X66637380Y-33728571D01*
X66637380Y-33442857D02*
X65637380Y-33442857D01*
X65780238Y-33538095D01*
X65875476Y-33633333D01*
X65923095Y-33728571D01*
%TO.C,D1*%
X47561904Y-83302380D02*
X47561904Y-82302380D01*
X47800000Y-82302380D01*
X47942857Y-82350000D01*
X48038095Y-82445238D01*
X48085714Y-82540476D01*
X48133333Y-82730952D01*
X48133333Y-82873809D01*
X48085714Y-83064285D01*
X48038095Y-83159523D01*
X47942857Y-83254761D01*
X47800000Y-83302380D01*
X47561904Y-83302380D01*
X49085714Y-83302380D02*
X48514285Y-83302380D01*
X48800000Y-83302380D02*
X48800000Y-82302380D01*
X48704761Y-82445238D01*
X48609523Y-82540476D01*
X48514285Y-82588095D01*
%TO.C,C18*%
X32477142Y-38617142D02*
X32429523Y-38664761D01*
X32286666Y-38712380D01*
X32191428Y-38712380D01*
X32048571Y-38664761D01*
X31953333Y-38569523D01*
X31905714Y-38474285D01*
X31858095Y-38283809D01*
X31858095Y-38140952D01*
X31905714Y-37950476D01*
X31953333Y-37855238D01*
X32048571Y-37760000D01*
X32191428Y-37712380D01*
X32286666Y-37712380D01*
X32429523Y-37760000D01*
X32477142Y-37807619D01*
X33429523Y-38712380D02*
X32858095Y-38712380D01*
X33143809Y-38712380D02*
X33143809Y-37712380D01*
X33048571Y-37855238D01*
X32953333Y-37950476D01*
X32858095Y-37998095D01*
X34000952Y-38140952D02*
X33905714Y-38093333D01*
X33858095Y-38045714D01*
X33810476Y-37950476D01*
X33810476Y-37902857D01*
X33858095Y-37807619D01*
X33905714Y-37760000D01*
X34000952Y-37712380D01*
X34191428Y-37712380D01*
X34286666Y-37760000D01*
X34334285Y-37807619D01*
X34381904Y-37902857D01*
X34381904Y-37950476D01*
X34334285Y-38045714D01*
X34286666Y-38093333D01*
X34191428Y-38140952D01*
X34000952Y-38140952D01*
X33905714Y-38188571D01*
X33858095Y-38236190D01*
X33810476Y-38331428D01*
X33810476Y-38521904D01*
X33858095Y-38617142D01*
X33905714Y-38664761D01*
X34000952Y-38712380D01*
X34191428Y-38712380D01*
X34286666Y-38664761D01*
X34334285Y-38617142D01*
X34381904Y-38521904D01*
X34381904Y-38331428D01*
X34334285Y-38236190D01*
X34286666Y-38188571D01*
X34191428Y-38140952D01*
%TO.C,J6*%
X27352380Y-56733333D02*
X28066666Y-56733333D01*
X28209523Y-56780952D01*
X28304761Y-56876190D01*
X28352380Y-57019047D01*
X28352380Y-57114285D01*
X27352380Y-55828571D02*
X27352380Y-56019047D01*
X27400000Y-56114285D01*
X27447619Y-56161904D01*
X27590476Y-56257142D01*
X27780952Y-56304761D01*
X28161904Y-56304761D01*
X28257142Y-56257142D01*
X28304761Y-56209523D01*
X28352380Y-56114285D01*
X28352380Y-55923809D01*
X28304761Y-55828571D01*
X28257142Y-55780952D01*
X28161904Y-55733333D01*
X27923809Y-55733333D01*
X27828571Y-55780952D01*
X27780952Y-55828571D01*
X27733333Y-55923809D01*
X27733333Y-56114285D01*
X27780952Y-56209523D01*
X27828571Y-56257142D01*
X27923809Y-56304761D01*
%TO.C,SW2*%
X84735238Y-44466666D02*
X84687619Y-44609523D01*
X84687619Y-44847619D01*
X84735238Y-44942857D01*
X84782857Y-44990476D01*
X84878095Y-45038095D01*
X84973333Y-45038095D01*
X85068571Y-44990476D01*
X85116190Y-44942857D01*
X85163809Y-44847619D01*
X85211428Y-44657142D01*
X85259047Y-44561904D01*
X85306666Y-44514285D01*
X85401904Y-44466666D01*
X85497142Y-44466666D01*
X85592380Y-44514285D01*
X85640000Y-44561904D01*
X85687619Y-44657142D01*
X85687619Y-44895238D01*
X85640000Y-45038095D01*
X85687619Y-45371428D02*
X84687619Y-45609523D01*
X85401904Y-45800000D01*
X84687619Y-45990476D01*
X85687619Y-46228571D01*
X85592380Y-46561904D02*
X85640000Y-46609523D01*
X85687619Y-46704761D01*
X85687619Y-46942857D01*
X85640000Y-47038095D01*
X85592380Y-47085714D01*
X85497142Y-47133333D01*
X85401904Y-47133333D01*
X85259047Y-47085714D01*
X84687619Y-46514285D01*
X84687619Y-47133333D01*
%TO.C,R4*%
X51332380Y-52016666D02*
X50856190Y-52350000D01*
X51332380Y-52588095D02*
X50332380Y-52588095D01*
X50332380Y-52207142D01*
X50380000Y-52111904D01*
X50427619Y-52064285D01*
X50522857Y-52016666D01*
X50665714Y-52016666D01*
X50760952Y-52064285D01*
X50808571Y-52111904D01*
X50856190Y-52207142D01*
X50856190Y-52588095D01*
X50665714Y-51159523D02*
X51332380Y-51159523D01*
X50284761Y-51397619D02*
X50999047Y-51635714D01*
X50999047Y-51016666D01*
%TO.C,R10*%
X38402380Y-50042857D02*
X37926190Y-50376190D01*
X38402380Y-50614285D02*
X37402380Y-50614285D01*
X37402380Y-50233333D01*
X37450000Y-50138095D01*
X37497619Y-50090476D01*
X37592857Y-50042857D01*
X37735714Y-50042857D01*
X37830952Y-50090476D01*
X37878571Y-50138095D01*
X37926190Y-50233333D01*
X37926190Y-50614285D01*
X38402380Y-49090476D02*
X38402380Y-49661904D01*
X38402380Y-49376190D02*
X37402380Y-49376190D01*
X37545238Y-49471428D01*
X37640476Y-49566666D01*
X37688095Y-49661904D01*
X37402380Y-48471428D02*
X37402380Y-48376190D01*
X37450000Y-48280952D01*
X37497619Y-48233333D01*
X37592857Y-48185714D01*
X37783333Y-48138095D01*
X38021428Y-48138095D01*
X38211904Y-48185714D01*
X38307142Y-48233333D01*
X38354761Y-48280952D01*
X38402380Y-48376190D01*
X38402380Y-48471428D01*
X38354761Y-48566666D01*
X38307142Y-48614285D01*
X38211904Y-48661904D01*
X38021428Y-48709523D01*
X37783333Y-48709523D01*
X37592857Y-48661904D01*
X37497619Y-48614285D01*
X37450000Y-48566666D01*
X37402380Y-48471428D01*
%TO.C,U5*%
X24382380Y-35211904D02*
X25191904Y-35211904D01*
X25287142Y-35164285D01*
X25334761Y-35116666D01*
X25382380Y-35021428D01*
X25382380Y-34830952D01*
X25334761Y-34735714D01*
X25287142Y-34688095D01*
X25191904Y-34640476D01*
X24382380Y-34640476D01*
X24382380Y-33688095D02*
X24382380Y-34164285D01*
X24858571Y-34211904D01*
X24810952Y-34164285D01*
X24763333Y-34069047D01*
X24763333Y-33830952D01*
X24810952Y-33735714D01*
X24858571Y-33688095D01*
X24953809Y-33640476D01*
X25191904Y-33640476D01*
X25287142Y-33688095D01*
X25334761Y-33735714D01*
X25382380Y-33830952D01*
X25382380Y-34069047D01*
X25334761Y-34164285D01*
X25287142Y-34211904D01*
%TO.C,J10*%
X49340476Y-75114880D02*
X49340476Y-75829166D01*
X49292857Y-75972023D01*
X49197619Y-76067261D01*
X49054761Y-76114880D01*
X48959523Y-76114880D01*
X50340476Y-76114880D02*
X49769047Y-76114880D01*
X50054761Y-76114880D02*
X50054761Y-75114880D01*
X49959523Y-75257738D01*
X49864285Y-75352976D01*
X49769047Y-75400595D01*
X50959523Y-75114880D02*
X51054761Y-75114880D01*
X51150000Y-75162500D01*
X51197619Y-75210119D01*
X51245238Y-75305357D01*
X51292857Y-75495833D01*
X51292857Y-75733928D01*
X51245238Y-75924404D01*
X51197619Y-76019642D01*
X51150000Y-76067261D01*
X51054761Y-76114880D01*
X50959523Y-76114880D01*
X50864285Y-76067261D01*
X50816666Y-76019642D01*
X50769047Y-75924404D01*
X50721428Y-75733928D01*
X50721428Y-75495833D01*
X50769047Y-75305357D01*
X50816666Y-75210119D01*
X50864285Y-75162500D01*
X50959523Y-75114880D01*
%TO.C,R12*%
X21957142Y-37682380D02*
X21623809Y-37206190D01*
X21385714Y-37682380D02*
X21385714Y-36682380D01*
X21766666Y-36682380D01*
X21861904Y-36730000D01*
X21909523Y-36777619D01*
X21957142Y-36872857D01*
X21957142Y-37015714D01*
X21909523Y-37110952D01*
X21861904Y-37158571D01*
X21766666Y-37206190D01*
X21385714Y-37206190D01*
X22909523Y-37682380D02*
X22338095Y-37682380D01*
X22623809Y-37682380D02*
X22623809Y-36682380D01*
X22528571Y-36825238D01*
X22433333Y-36920476D01*
X22338095Y-36968095D01*
X23290476Y-36777619D02*
X23338095Y-36730000D01*
X23433333Y-36682380D01*
X23671428Y-36682380D01*
X23766666Y-36730000D01*
X23814285Y-36777619D01*
X23861904Y-36872857D01*
X23861904Y-36968095D01*
X23814285Y-37110952D01*
X23242857Y-37682380D01*
X23861904Y-37682380D01*
%TO.C,R25*%
X61572380Y-38642857D02*
X61096190Y-38976190D01*
X61572380Y-39214285D02*
X60572380Y-39214285D01*
X60572380Y-38833333D01*
X60620000Y-38738095D01*
X60667619Y-38690476D01*
X60762857Y-38642857D01*
X60905714Y-38642857D01*
X61000952Y-38690476D01*
X61048571Y-38738095D01*
X61096190Y-38833333D01*
X61096190Y-39214285D01*
X60667619Y-38261904D02*
X60620000Y-38214285D01*
X60572380Y-38119047D01*
X60572380Y-37880952D01*
X60620000Y-37785714D01*
X60667619Y-37738095D01*
X60762857Y-37690476D01*
X60858095Y-37690476D01*
X61000952Y-37738095D01*
X61572380Y-38309523D01*
X61572380Y-37690476D01*
X60572380Y-36785714D02*
X60572380Y-37261904D01*
X61048571Y-37309523D01*
X61000952Y-37261904D01*
X60953333Y-37166666D01*
X60953333Y-36928571D01*
X61000952Y-36833333D01*
X61048571Y-36785714D01*
X61143809Y-36738095D01*
X61381904Y-36738095D01*
X61477142Y-36785714D01*
X61524761Y-36833333D01*
X61572380Y-36928571D01*
X61572380Y-37166666D01*
X61524761Y-37261904D01*
X61477142Y-37309523D01*
%TO.C,C11*%
X56157142Y-71517142D02*
X56109523Y-71564761D01*
X55966666Y-71612380D01*
X55871428Y-71612380D01*
X55728571Y-71564761D01*
X55633333Y-71469523D01*
X55585714Y-71374285D01*
X55538095Y-71183809D01*
X55538095Y-71040952D01*
X55585714Y-70850476D01*
X55633333Y-70755238D01*
X55728571Y-70660000D01*
X55871428Y-70612380D01*
X55966666Y-70612380D01*
X56109523Y-70660000D01*
X56157142Y-70707619D01*
X57109523Y-71612380D02*
X56538095Y-71612380D01*
X56823809Y-71612380D02*
X56823809Y-70612380D01*
X56728571Y-70755238D01*
X56633333Y-70850476D01*
X56538095Y-70898095D01*
X58061904Y-71612380D02*
X57490476Y-71612380D01*
X57776190Y-71612380D02*
X57776190Y-70612380D01*
X57680952Y-70755238D01*
X57585714Y-70850476D01*
X57490476Y-70898095D01*
%TO.C,R17*%
X47384880Y-61682857D02*
X46908690Y-62016190D01*
X47384880Y-62254285D02*
X46384880Y-62254285D01*
X46384880Y-61873333D01*
X46432500Y-61778095D01*
X46480119Y-61730476D01*
X46575357Y-61682857D01*
X46718214Y-61682857D01*
X46813452Y-61730476D01*
X46861071Y-61778095D01*
X46908690Y-61873333D01*
X46908690Y-62254285D01*
X47384880Y-60730476D02*
X47384880Y-61301904D01*
X47384880Y-61016190D02*
X46384880Y-61016190D01*
X46527738Y-61111428D01*
X46622976Y-61206666D01*
X46670595Y-61301904D01*
X46384880Y-60397142D02*
X46384880Y-59730476D01*
X47384880Y-60159047D01*
%TO.C,Q1*%
X62937619Y-39095238D02*
X62890000Y-39190476D01*
X62794761Y-39285714D01*
X62651904Y-39428571D01*
X62604285Y-39523809D01*
X62604285Y-39619047D01*
X62842380Y-39571428D02*
X62794761Y-39666666D01*
X62699523Y-39761904D01*
X62509047Y-39809523D01*
X62175714Y-39809523D01*
X61985238Y-39761904D01*
X61890000Y-39666666D01*
X61842380Y-39571428D01*
X61842380Y-39380952D01*
X61890000Y-39285714D01*
X61985238Y-39190476D01*
X62175714Y-39142857D01*
X62509047Y-39142857D01*
X62699523Y-39190476D01*
X62794761Y-39285714D01*
X62842380Y-39380952D01*
X62842380Y-39571428D01*
X62842380Y-38190476D02*
X62842380Y-38761904D01*
X62842380Y-38476190D02*
X61842380Y-38476190D01*
X61985238Y-38571428D01*
X62080476Y-38666666D01*
X62128095Y-38761904D01*
%TO.C,R9*%
X32679692Y-47952380D02*
X32346359Y-47476190D01*
X32108263Y-47952380D02*
X32108263Y-46952380D01*
X32489216Y-46952380D01*
X32584454Y-47000000D01*
X32632073Y-47047619D01*
X32679692Y-47142857D01*
X32679692Y-47285714D01*
X32632073Y-47380952D01*
X32584454Y-47428571D01*
X32489216Y-47476190D01*
X32108263Y-47476190D01*
X33155882Y-47952380D02*
X33346359Y-47952380D01*
X33441597Y-47904761D01*
X33489216Y-47857142D01*
X33584454Y-47714285D01*
X33632073Y-47523809D01*
X33632073Y-47142857D01*
X33584454Y-47047619D01*
X33536835Y-47000000D01*
X33441597Y-46952380D01*
X33251120Y-46952380D01*
X33155882Y-47000000D01*
X33108263Y-47047619D01*
X33060644Y-47142857D01*
X33060644Y-47380952D01*
X33108263Y-47476190D01*
X33155882Y-47523809D01*
X33251120Y-47571428D01*
X33441597Y-47571428D01*
X33536835Y-47523809D01*
X33584454Y-47476190D01*
X33632073Y-47380952D01*
%TO.C,U3*%
X32742380Y-46936904D02*
X33551904Y-46936904D01*
X33647142Y-46889285D01*
X33694761Y-46841666D01*
X33742380Y-46746428D01*
X33742380Y-46555952D01*
X33694761Y-46460714D01*
X33647142Y-46413095D01*
X33551904Y-46365476D01*
X32742380Y-46365476D01*
X32742380Y-45984523D02*
X32742380Y-45365476D01*
X33123333Y-45698809D01*
X33123333Y-45555952D01*
X33170952Y-45460714D01*
X33218571Y-45413095D01*
X33313809Y-45365476D01*
X33551904Y-45365476D01*
X33647142Y-45413095D01*
X33694761Y-45460714D01*
X33742380Y-45555952D01*
X33742380Y-45841666D01*
X33694761Y-45936904D01*
X33647142Y-45984523D01*
%TO.C,R22*%
X36982380Y-68552857D02*
X36506190Y-68886190D01*
X36982380Y-69124285D02*
X35982380Y-69124285D01*
X35982380Y-68743333D01*
X36030000Y-68648095D01*
X36077619Y-68600476D01*
X36172857Y-68552857D01*
X36315714Y-68552857D01*
X36410952Y-68600476D01*
X36458571Y-68648095D01*
X36506190Y-68743333D01*
X36506190Y-69124285D01*
X36077619Y-68171904D02*
X36030000Y-68124285D01*
X35982380Y-68029047D01*
X35982380Y-67790952D01*
X36030000Y-67695714D01*
X36077619Y-67648095D01*
X36172857Y-67600476D01*
X36268095Y-67600476D01*
X36410952Y-67648095D01*
X36982380Y-68219523D01*
X36982380Y-67600476D01*
X36077619Y-67219523D02*
X36030000Y-67171904D01*
X35982380Y-67076666D01*
X35982380Y-66838571D01*
X36030000Y-66743333D01*
X36077619Y-66695714D01*
X36172857Y-66648095D01*
X36268095Y-66648095D01*
X36410952Y-66695714D01*
X36982380Y-67267142D01*
X36982380Y-66648095D01*
%TO.C,Q2*%
X67637619Y-37995238D02*
X67590000Y-38090476D01*
X67494761Y-38185714D01*
X67351904Y-38328571D01*
X67304285Y-38423809D01*
X67304285Y-38519047D01*
X67542380Y-38471428D02*
X67494761Y-38566666D01*
X67399523Y-38661904D01*
X67209047Y-38709523D01*
X66875714Y-38709523D01*
X66685238Y-38661904D01*
X66590000Y-38566666D01*
X66542380Y-38471428D01*
X66542380Y-38280952D01*
X66590000Y-38185714D01*
X66685238Y-38090476D01*
X66875714Y-38042857D01*
X67209047Y-38042857D01*
X67399523Y-38090476D01*
X67494761Y-38185714D01*
X67542380Y-38280952D01*
X67542380Y-38471428D01*
X66637619Y-37661904D02*
X66590000Y-37614285D01*
X66542380Y-37519047D01*
X66542380Y-37280952D01*
X66590000Y-37185714D01*
X66637619Y-37138095D01*
X66732857Y-37090476D01*
X66828095Y-37090476D01*
X66970952Y-37138095D01*
X67542380Y-37709523D01*
X67542380Y-37090476D01*
%TO.C,C7*%
X32933333Y-32417142D02*
X32885714Y-32464761D01*
X32742857Y-32512380D01*
X32647619Y-32512380D01*
X32504761Y-32464761D01*
X32409523Y-32369523D01*
X32361904Y-32274285D01*
X32314285Y-32083809D01*
X32314285Y-31940952D01*
X32361904Y-31750476D01*
X32409523Y-31655238D01*
X32504761Y-31560000D01*
X32647619Y-31512380D01*
X32742857Y-31512380D01*
X32885714Y-31560000D01*
X32933333Y-31607619D01*
X33266666Y-31512380D02*
X33933333Y-31512380D01*
X33504761Y-32512380D01*
%TO.C,C4*%
X50007142Y-56906666D02*
X50054761Y-56954285D01*
X50102380Y-57097142D01*
X50102380Y-57192380D01*
X50054761Y-57335238D01*
X49959523Y-57430476D01*
X49864285Y-57478095D01*
X49673809Y-57525714D01*
X49530952Y-57525714D01*
X49340476Y-57478095D01*
X49245238Y-57430476D01*
X49150000Y-57335238D01*
X49102380Y-57192380D01*
X49102380Y-57097142D01*
X49150000Y-56954285D01*
X49197619Y-56906666D01*
X49435714Y-56049523D02*
X50102380Y-56049523D01*
X49054761Y-56287619D02*
X49769047Y-56525714D01*
X49769047Y-55906666D01*
%TO.C,C23*%
X63187142Y-29597142D02*
X63139523Y-29644761D01*
X62996666Y-29692380D01*
X62901428Y-29692380D01*
X62758571Y-29644761D01*
X62663333Y-29549523D01*
X62615714Y-29454285D01*
X62568095Y-29263809D01*
X62568095Y-29120952D01*
X62615714Y-28930476D01*
X62663333Y-28835238D01*
X62758571Y-28740000D01*
X62901428Y-28692380D01*
X62996666Y-28692380D01*
X63139523Y-28740000D01*
X63187142Y-28787619D01*
X63568095Y-28787619D02*
X63615714Y-28740000D01*
X63710952Y-28692380D01*
X63949047Y-28692380D01*
X64044285Y-28740000D01*
X64091904Y-28787619D01*
X64139523Y-28882857D01*
X64139523Y-28978095D01*
X64091904Y-29120952D01*
X63520476Y-29692380D01*
X64139523Y-29692380D01*
X64472857Y-28692380D02*
X65091904Y-28692380D01*
X64758571Y-29073333D01*
X64901428Y-29073333D01*
X64996666Y-29120952D01*
X65044285Y-29168571D01*
X65091904Y-29263809D01*
X65091904Y-29501904D01*
X65044285Y-29597142D01*
X64996666Y-29644761D01*
X64901428Y-29692380D01*
X64615714Y-29692380D01*
X64520476Y-29644761D01*
X64472857Y-29597142D01*
%TO.C,U8*%
X24438095Y-57514880D02*
X24438095Y-58324404D01*
X24485714Y-58419642D01*
X24533333Y-58467261D01*
X24628571Y-58514880D01*
X24819047Y-58514880D01*
X24914285Y-58467261D01*
X24961904Y-58419642D01*
X25009523Y-58324404D01*
X25009523Y-57514880D01*
X25628571Y-57943452D02*
X25533333Y-57895833D01*
X25485714Y-57848214D01*
X25438095Y-57752976D01*
X25438095Y-57705357D01*
X25485714Y-57610119D01*
X25533333Y-57562500D01*
X25628571Y-57514880D01*
X25819047Y-57514880D01*
X25914285Y-57562500D01*
X25961904Y-57610119D01*
X26009523Y-57705357D01*
X26009523Y-57752976D01*
X25961904Y-57848214D01*
X25914285Y-57895833D01*
X25819047Y-57943452D01*
X25628571Y-57943452D01*
X25533333Y-57991071D01*
X25485714Y-58038690D01*
X25438095Y-58133928D01*
X25438095Y-58324404D01*
X25485714Y-58419642D01*
X25533333Y-58467261D01*
X25628571Y-58514880D01*
X25819047Y-58514880D01*
X25914285Y-58467261D01*
X25961904Y-58419642D01*
X26009523Y-58324404D01*
X26009523Y-58133928D01*
X25961904Y-58038690D01*
X25914285Y-57991071D01*
X25819047Y-57943452D01*
%TO.C,R16*%
X45282380Y-72402857D02*
X44806190Y-72736190D01*
X45282380Y-72974285D02*
X44282380Y-72974285D01*
X44282380Y-72593333D01*
X44330000Y-72498095D01*
X44377619Y-72450476D01*
X44472857Y-72402857D01*
X44615714Y-72402857D01*
X44710952Y-72450476D01*
X44758571Y-72498095D01*
X44806190Y-72593333D01*
X44806190Y-72974285D01*
X45282380Y-71450476D02*
X45282380Y-72021904D01*
X45282380Y-71736190D02*
X44282380Y-71736190D01*
X44425238Y-71831428D01*
X44520476Y-71926666D01*
X44568095Y-72021904D01*
X44282380Y-70593333D02*
X44282380Y-70783809D01*
X44330000Y-70879047D01*
X44377619Y-70926666D01*
X44520476Y-71021904D01*
X44710952Y-71069523D01*
X45091904Y-71069523D01*
X45187142Y-71021904D01*
X45234761Y-70974285D01*
X45282380Y-70879047D01*
X45282380Y-70688571D01*
X45234761Y-70593333D01*
X45187142Y-70545714D01*
X45091904Y-70498095D01*
X44853809Y-70498095D01*
X44758571Y-70545714D01*
X44710952Y-70593333D01*
X44663333Y-70688571D01*
X44663333Y-70879047D01*
X44710952Y-70974285D01*
X44758571Y-71021904D01*
X44853809Y-71069523D01*
%TO.C,C5*%
X59589642Y-64116666D02*
X59637261Y-64164285D01*
X59684880Y-64307142D01*
X59684880Y-64402380D01*
X59637261Y-64545238D01*
X59542023Y-64640476D01*
X59446785Y-64688095D01*
X59256309Y-64735714D01*
X59113452Y-64735714D01*
X58922976Y-64688095D01*
X58827738Y-64640476D01*
X58732500Y-64545238D01*
X58684880Y-64402380D01*
X58684880Y-64307142D01*
X58732500Y-64164285D01*
X58780119Y-64116666D01*
X58684880Y-63211904D02*
X58684880Y-63688095D01*
X59161071Y-63735714D01*
X59113452Y-63688095D01*
X59065833Y-63592857D01*
X59065833Y-63354761D01*
X59113452Y-63259523D01*
X59161071Y-63211904D01*
X59256309Y-63164285D01*
X59494404Y-63164285D01*
X59589642Y-63211904D01*
X59637261Y-63259523D01*
X59684880Y-63354761D01*
X59684880Y-63592857D01*
X59637261Y-63688095D01*
X59589642Y-63735714D01*
%TO.C,U6*%
X24438095Y-37852380D02*
X24438095Y-38661904D01*
X24485714Y-38757142D01*
X24533333Y-38804761D01*
X24628571Y-38852380D01*
X24819047Y-38852380D01*
X24914285Y-38804761D01*
X24961904Y-38757142D01*
X25009523Y-38661904D01*
X25009523Y-37852380D01*
X25914285Y-37852380D02*
X25723809Y-37852380D01*
X25628571Y-37900000D01*
X25580952Y-37947619D01*
X25485714Y-38090476D01*
X25438095Y-38280952D01*
X25438095Y-38661904D01*
X25485714Y-38757142D01*
X25533333Y-38804761D01*
X25628571Y-38852380D01*
X25819047Y-38852380D01*
X25914285Y-38804761D01*
X25961904Y-38757142D01*
X26009523Y-38661904D01*
X26009523Y-38423809D01*
X25961904Y-38328571D01*
X25914285Y-38280952D01*
X25819047Y-38233333D01*
X25628571Y-38233333D01*
X25533333Y-38280952D01*
X25485714Y-38328571D01*
X25438095Y-38423809D01*
%TO.C,L1*%
X54283333Y-56692380D02*
X53807142Y-56692380D01*
X53807142Y-55692380D01*
X55140476Y-56692380D02*
X54569047Y-56692380D01*
X54854761Y-56692380D02*
X54854761Y-55692380D01*
X54759523Y-55835238D01*
X54664285Y-55930476D01*
X54569047Y-55978095D01*
%TO.C,J3*%
X69152380Y-75833333D02*
X69866666Y-75833333D01*
X70009523Y-75880952D01*
X70104761Y-75976190D01*
X70152380Y-76119047D01*
X70152380Y-76214285D01*
X69152380Y-75452380D02*
X69152380Y-74833333D01*
X69533333Y-75166666D01*
X69533333Y-75023809D01*
X69580952Y-74928571D01*
X69628571Y-74880952D01*
X69723809Y-74833333D01*
X69961904Y-74833333D01*
X70057142Y-74880952D01*
X70104761Y-74928571D01*
X70152380Y-75023809D01*
X70152380Y-75309523D01*
X70104761Y-75404761D01*
X70057142Y-75452380D01*
%TO.C,R15*%
X25407142Y-46072380D02*
X25073809Y-45596190D01*
X24835714Y-46072380D02*
X24835714Y-45072380D01*
X25216666Y-45072380D01*
X25311904Y-45120000D01*
X25359523Y-45167619D01*
X25407142Y-45262857D01*
X25407142Y-45405714D01*
X25359523Y-45500952D01*
X25311904Y-45548571D01*
X25216666Y-45596190D01*
X24835714Y-45596190D01*
X26359523Y-46072380D02*
X25788095Y-46072380D01*
X26073809Y-46072380D02*
X26073809Y-45072380D01*
X25978571Y-45215238D01*
X25883333Y-45310476D01*
X25788095Y-45358095D01*
X27264285Y-45072380D02*
X26788095Y-45072380D01*
X26740476Y-45548571D01*
X26788095Y-45500952D01*
X26883333Y-45453333D01*
X27121428Y-45453333D01*
X27216666Y-45500952D01*
X27264285Y-45548571D01*
X27311904Y-45643809D01*
X27311904Y-45881904D01*
X27264285Y-45977142D01*
X27216666Y-46024761D01*
X27121428Y-46072380D01*
X26883333Y-46072380D01*
X26788095Y-46024761D01*
X26740476Y-45977142D01*
%TO.C,R6*%
X52133333Y-80522380D02*
X51800000Y-80046190D01*
X51561904Y-80522380D02*
X51561904Y-79522380D01*
X51942857Y-79522380D01*
X52038095Y-79570000D01*
X52085714Y-79617619D01*
X52133333Y-79712857D01*
X52133333Y-79855714D01*
X52085714Y-79950952D01*
X52038095Y-79998571D01*
X51942857Y-80046190D01*
X51561904Y-80046190D01*
X52990476Y-79522380D02*
X52800000Y-79522380D01*
X52704761Y-79570000D01*
X52657142Y-79617619D01*
X52561904Y-79760476D01*
X52514285Y-79950952D01*
X52514285Y-80331904D01*
X52561904Y-80427142D01*
X52609523Y-80474761D01*
X52704761Y-80522380D01*
X52895238Y-80522380D01*
X52990476Y-80474761D01*
X53038095Y-80427142D01*
X53085714Y-80331904D01*
X53085714Y-80093809D01*
X53038095Y-79998571D01*
X52990476Y-79950952D01*
X52895238Y-79903333D01*
X52704761Y-79903333D01*
X52609523Y-79950952D01*
X52561904Y-79998571D01*
X52514285Y-80093809D01*
%TO.C,R20*%
X32447142Y-39722380D02*
X32113809Y-39246190D01*
X31875714Y-39722380D02*
X31875714Y-38722380D01*
X32256666Y-38722380D01*
X32351904Y-38770000D01*
X32399523Y-38817619D01*
X32447142Y-38912857D01*
X32447142Y-39055714D01*
X32399523Y-39150952D01*
X32351904Y-39198571D01*
X32256666Y-39246190D01*
X31875714Y-39246190D01*
X32828095Y-38817619D02*
X32875714Y-38770000D01*
X32970952Y-38722380D01*
X33209047Y-38722380D01*
X33304285Y-38770000D01*
X33351904Y-38817619D01*
X33399523Y-38912857D01*
X33399523Y-39008095D01*
X33351904Y-39150952D01*
X32780476Y-39722380D01*
X33399523Y-39722380D01*
X34018571Y-38722380D02*
X34113809Y-38722380D01*
X34209047Y-38770000D01*
X34256666Y-38817619D01*
X34304285Y-38912857D01*
X34351904Y-39103333D01*
X34351904Y-39341428D01*
X34304285Y-39531904D01*
X34256666Y-39627142D01*
X34209047Y-39674761D01*
X34113809Y-39722380D01*
X34018571Y-39722380D01*
X33923333Y-39674761D01*
X33875714Y-39627142D01*
X33828095Y-39531904D01*
X33780476Y-39341428D01*
X33780476Y-39103333D01*
X33828095Y-38912857D01*
X33875714Y-38817619D01*
X33923333Y-38770000D01*
X34018571Y-38722380D01*
%TO.C,D5*%
X59102380Y-55178095D02*
X58102380Y-55178095D01*
X58102380Y-54940000D01*
X58150000Y-54797142D01*
X58245238Y-54701904D01*
X58340476Y-54654285D01*
X58530952Y-54606666D01*
X58673809Y-54606666D01*
X58864285Y-54654285D01*
X58959523Y-54701904D01*
X59054761Y-54797142D01*
X59102380Y-54940000D01*
X59102380Y-55178095D01*
X58102380Y-53701904D02*
X58102380Y-54178095D01*
X58578571Y-54225714D01*
X58530952Y-54178095D01*
X58483333Y-54082857D01*
X58483333Y-53844761D01*
X58530952Y-53749523D01*
X58578571Y-53701904D01*
X58673809Y-53654285D01*
X58911904Y-53654285D01*
X59007142Y-53701904D01*
X59054761Y-53749523D01*
X59102380Y-53844761D01*
X59102380Y-54082857D01*
X59054761Y-54178095D01*
X59007142Y-54225714D01*
%TO.C,Y1*%
X38756190Y-56926190D02*
X39232380Y-56926190D01*
X38232380Y-57259523D02*
X38756190Y-56926190D01*
X38232380Y-56592857D01*
X39232380Y-55735714D02*
X39232380Y-56307142D01*
X39232380Y-56021428D02*
X38232380Y-56021428D01*
X38375238Y-56116666D01*
X38470476Y-56211904D01*
X38518095Y-56307142D01*
%TO.C,U13*%
X33861904Y-70232380D02*
X33861904Y-71041904D01*
X33909523Y-71137142D01*
X33957142Y-71184761D01*
X34052380Y-71232380D01*
X34242857Y-71232380D01*
X34338095Y-71184761D01*
X34385714Y-71137142D01*
X34433333Y-71041904D01*
X34433333Y-70232380D01*
X35433333Y-71232380D02*
X34861904Y-71232380D01*
X35147619Y-71232380D02*
X35147619Y-70232380D01*
X35052380Y-70375238D01*
X34957142Y-70470476D01*
X34861904Y-70518095D01*
X35766666Y-70232380D02*
X36385714Y-70232380D01*
X36052380Y-70613333D01*
X36195238Y-70613333D01*
X36290476Y-70660952D01*
X36338095Y-70708571D01*
X36385714Y-70803809D01*
X36385714Y-71041904D01*
X36338095Y-71137142D01*
X36290476Y-71184761D01*
X36195238Y-71232380D01*
X35909523Y-71232380D01*
X35814285Y-71184761D01*
X35766666Y-71137142D01*
%TO.C,C15*%
X30677142Y-56662857D02*
X30724761Y-56710476D01*
X30772380Y-56853333D01*
X30772380Y-56948571D01*
X30724761Y-57091428D01*
X30629523Y-57186666D01*
X30534285Y-57234285D01*
X30343809Y-57281904D01*
X30200952Y-57281904D01*
X30010476Y-57234285D01*
X29915238Y-57186666D01*
X29820000Y-57091428D01*
X29772380Y-56948571D01*
X29772380Y-56853333D01*
X29820000Y-56710476D01*
X29867619Y-56662857D01*
X30772380Y-55710476D02*
X30772380Y-56281904D01*
X30772380Y-55996190D02*
X29772380Y-55996190D01*
X29915238Y-56091428D01*
X30010476Y-56186666D01*
X30058095Y-56281904D01*
X29772380Y-54805714D02*
X29772380Y-55281904D01*
X30248571Y-55329523D01*
X30200952Y-55281904D01*
X30153333Y-55186666D01*
X30153333Y-54948571D01*
X30200952Y-54853333D01*
X30248571Y-54805714D01*
X30343809Y-54758095D01*
X30581904Y-54758095D01*
X30677142Y-54805714D01*
X30724761Y-54853333D01*
X30772380Y-54948571D01*
X30772380Y-55186666D01*
X30724761Y-55281904D01*
X30677142Y-55329523D01*
%TO.C,C24*%
X63187142Y-30597142D02*
X63139523Y-30644761D01*
X62996666Y-30692380D01*
X62901428Y-30692380D01*
X62758571Y-30644761D01*
X62663333Y-30549523D01*
X62615714Y-30454285D01*
X62568095Y-30263809D01*
X62568095Y-30120952D01*
X62615714Y-29930476D01*
X62663333Y-29835238D01*
X62758571Y-29740000D01*
X62901428Y-29692380D01*
X62996666Y-29692380D01*
X63139523Y-29740000D01*
X63187142Y-29787619D01*
X63568095Y-29787619D02*
X63615714Y-29740000D01*
X63710952Y-29692380D01*
X63949047Y-29692380D01*
X64044285Y-29740000D01*
X64091904Y-29787619D01*
X64139523Y-29882857D01*
X64139523Y-29978095D01*
X64091904Y-30120952D01*
X63520476Y-30692380D01*
X64139523Y-30692380D01*
X64996666Y-30025714D02*
X64996666Y-30692380D01*
X64758571Y-29644761D02*
X64520476Y-30359047D01*
X65139523Y-30359047D01*
%TO.C,J4*%
X66452380Y-54433333D02*
X67166666Y-54433333D01*
X67309523Y-54480952D01*
X67404761Y-54576190D01*
X67452380Y-54719047D01*
X67452380Y-54814285D01*
X66785714Y-53528571D02*
X67452380Y-53528571D01*
X66404761Y-53766666D02*
X67119047Y-54004761D01*
X67119047Y-53385714D01*
%TO.C,R26*%
X62147142Y-42122380D02*
X61813809Y-41646190D01*
X61575714Y-42122380D02*
X61575714Y-41122380D01*
X61956666Y-41122380D01*
X62051904Y-41170000D01*
X62099523Y-41217619D01*
X62147142Y-41312857D01*
X62147142Y-41455714D01*
X62099523Y-41550952D01*
X62051904Y-41598571D01*
X61956666Y-41646190D01*
X61575714Y-41646190D01*
X62528095Y-41217619D02*
X62575714Y-41170000D01*
X62670952Y-41122380D01*
X62909047Y-41122380D01*
X63004285Y-41170000D01*
X63051904Y-41217619D01*
X63099523Y-41312857D01*
X63099523Y-41408095D01*
X63051904Y-41550952D01*
X62480476Y-42122380D01*
X63099523Y-42122380D01*
X63956666Y-41122380D02*
X63766190Y-41122380D01*
X63670952Y-41170000D01*
X63623333Y-41217619D01*
X63528095Y-41360476D01*
X63480476Y-41550952D01*
X63480476Y-41931904D01*
X63528095Y-42027142D01*
X63575714Y-42074761D01*
X63670952Y-42122380D01*
X63861428Y-42122380D01*
X63956666Y-42074761D01*
X64004285Y-42027142D01*
X64051904Y-41931904D01*
X64051904Y-41693809D01*
X64004285Y-41598571D01*
X63956666Y-41550952D01*
X63861428Y-41503333D01*
X63670952Y-41503333D01*
X63575714Y-41550952D01*
X63528095Y-41598571D01*
X63480476Y-41693809D01*
%TO.C,C17*%
X43417142Y-74032857D02*
X43464761Y-74080476D01*
X43512380Y-74223333D01*
X43512380Y-74318571D01*
X43464761Y-74461428D01*
X43369523Y-74556666D01*
X43274285Y-74604285D01*
X43083809Y-74651904D01*
X42940952Y-74651904D01*
X42750476Y-74604285D01*
X42655238Y-74556666D01*
X42560000Y-74461428D01*
X42512380Y-74318571D01*
X42512380Y-74223333D01*
X42560000Y-74080476D01*
X42607619Y-74032857D01*
X43512380Y-73080476D02*
X43512380Y-73651904D01*
X43512380Y-73366190D02*
X42512380Y-73366190D01*
X42655238Y-73461428D01*
X42750476Y-73556666D01*
X42798095Y-73651904D01*
X42512380Y-72747142D02*
X42512380Y-72080476D01*
X43512380Y-72509047D01*
%TO.C,U14*%
X41924404Y-62392380D02*
X41924404Y-63201904D01*
X41972023Y-63297142D01*
X42019642Y-63344761D01*
X42114880Y-63392380D01*
X42305357Y-63392380D01*
X42400595Y-63344761D01*
X42448214Y-63297142D01*
X42495833Y-63201904D01*
X42495833Y-62392380D01*
X43495833Y-63392380D02*
X42924404Y-63392380D01*
X43210119Y-63392380D02*
X43210119Y-62392380D01*
X43114880Y-62535238D01*
X43019642Y-62630476D01*
X42924404Y-62678095D01*
X44352976Y-62725714D02*
X44352976Y-63392380D01*
X44114880Y-62344761D02*
X43876785Y-63059047D01*
X44495833Y-63059047D01*
%TO.C,U10*%
X41924404Y-65992380D02*
X41924404Y-66801904D01*
X41972023Y-66897142D01*
X42019642Y-66944761D01*
X42114880Y-66992380D01*
X42305357Y-66992380D01*
X42400595Y-66944761D01*
X42448214Y-66897142D01*
X42495833Y-66801904D01*
X42495833Y-65992380D01*
X43495833Y-66992380D02*
X42924404Y-66992380D01*
X43210119Y-66992380D02*
X43210119Y-65992380D01*
X43114880Y-66135238D01*
X43019642Y-66230476D01*
X42924404Y-66278095D01*
X44114880Y-65992380D02*
X44210119Y-65992380D01*
X44305357Y-66040000D01*
X44352976Y-66087619D01*
X44400595Y-66182857D01*
X44448214Y-66373333D01*
X44448214Y-66611428D01*
X44400595Y-66801904D01*
X44352976Y-66897142D01*
X44305357Y-66944761D01*
X44210119Y-66992380D01*
X44114880Y-66992380D01*
X44019642Y-66944761D01*
X43972023Y-66897142D01*
X43924404Y-66801904D01*
X43876785Y-66611428D01*
X43876785Y-66373333D01*
X43924404Y-66182857D01*
X43972023Y-66087619D01*
X44019642Y-66040000D01*
X44114880Y-65992380D01*
%TO.C,C22*%
X63187142Y-28597142D02*
X63139523Y-28644761D01*
X62996666Y-28692380D01*
X62901428Y-28692380D01*
X62758571Y-28644761D01*
X62663333Y-28549523D01*
X62615714Y-28454285D01*
X62568095Y-28263809D01*
X62568095Y-28120952D01*
X62615714Y-27930476D01*
X62663333Y-27835238D01*
X62758571Y-27740000D01*
X62901428Y-27692380D01*
X62996666Y-27692380D01*
X63139523Y-27740000D01*
X63187142Y-27787619D01*
X63568095Y-27787619D02*
X63615714Y-27740000D01*
X63710952Y-27692380D01*
X63949047Y-27692380D01*
X64044285Y-27740000D01*
X64091904Y-27787619D01*
X64139523Y-27882857D01*
X64139523Y-27978095D01*
X64091904Y-28120952D01*
X63520476Y-28692380D01*
X64139523Y-28692380D01*
X64520476Y-27787619D02*
X64568095Y-27740000D01*
X64663333Y-27692380D01*
X64901428Y-27692380D01*
X64996666Y-27740000D01*
X65044285Y-27787619D01*
X65091904Y-27882857D01*
X65091904Y-27978095D01*
X65044285Y-28120952D01*
X64472857Y-28692380D01*
X65091904Y-28692380D01*
%TO.C,H1*%
X23238095Y-22252380D02*
X23238095Y-21252380D01*
X23238095Y-21728571D02*
X23809523Y-21728571D01*
X23809523Y-22252380D02*
X23809523Y-21252380D01*
X24809523Y-22252380D02*
X24238095Y-22252380D01*
X24523809Y-22252380D02*
X24523809Y-21252380D01*
X24428571Y-21395238D01*
X24333333Y-21490476D01*
X24238095Y-21538095D01*
%TO.C,J7*%
X27352380Y-69733333D02*
X28066666Y-69733333D01*
X28209523Y-69780952D01*
X28304761Y-69876190D01*
X28352380Y-70019047D01*
X28352380Y-70114285D01*
X27352380Y-69352380D02*
X27352380Y-68685714D01*
X28352380Y-69114285D01*
%TO.C,R5*%
X32913333Y-32282380D02*
X32580000Y-31806190D01*
X32341904Y-32282380D02*
X32341904Y-31282380D01*
X32722857Y-31282380D01*
X32818095Y-31330000D01*
X32865714Y-31377619D01*
X32913333Y-31472857D01*
X32913333Y-31615714D01*
X32865714Y-31710952D01*
X32818095Y-31758571D01*
X32722857Y-31806190D01*
X32341904Y-31806190D01*
X33818095Y-31282380D02*
X33341904Y-31282380D01*
X33294285Y-31758571D01*
X33341904Y-31710952D01*
X33437142Y-31663333D01*
X33675238Y-31663333D01*
X33770476Y-31710952D01*
X33818095Y-31758571D01*
X33865714Y-31853809D01*
X33865714Y-32091904D01*
X33818095Y-32187142D01*
X33770476Y-32234761D01*
X33675238Y-32282380D01*
X33437142Y-32282380D01*
X33341904Y-32234761D01*
X33294285Y-32187142D01*
%TO.C,C21*%
X58157142Y-81827142D02*
X58109523Y-81874761D01*
X57966666Y-81922380D01*
X57871428Y-81922380D01*
X57728571Y-81874761D01*
X57633333Y-81779523D01*
X57585714Y-81684285D01*
X57538095Y-81493809D01*
X57538095Y-81350952D01*
X57585714Y-81160476D01*
X57633333Y-81065238D01*
X57728571Y-80970000D01*
X57871428Y-80922380D01*
X57966666Y-80922380D01*
X58109523Y-80970000D01*
X58157142Y-81017619D01*
X58538095Y-81017619D02*
X58585714Y-80970000D01*
X58680952Y-80922380D01*
X58919047Y-80922380D01*
X59014285Y-80970000D01*
X59061904Y-81017619D01*
X59109523Y-81112857D01*
X59109523Y-81208095D01*
X59061904Y-81350952D01*
X58490476Y-81922380D01*
X59109523Y-81922380D01*
X60061904Y-81922380D02*
X59490476Y-81922380D01*
X59776190Y-81922380D02*
X59776190Y-80922380D01*
X59680952Y-81065238D01*
X59585714Y-81160476D01*
X59490476Y-81208095D01*
%TO.C,U12*%
X41924404Y-64692380D02*
X41924404Y-65501904D01*
X41972023Y-65597142D01*
X42019642Y-65644761D01*
X42114880Y-65692380D01*
X42305357Y-65692380D01*
X42400595Y-65644761D01*
X42448214Y-65597142D01*
X42495833Y-65501904D01*
X42495833Y-64692380D01*
X43495833Y-65692380D02*
X42924404Y-65692380D01*
X43210119Y-65692380D02*
X43210119Y-64692380D01*
X43114880Y-64835238D01*
X43019642Y-64930476D01*
X42924404Y-64978095D01*
X43876785Y-64787619D02*
X43924404Y-64740000D01*
X44019642Y-64692380D01*
X44257738Y-64692380D01*
X44352976Y-64740000D01*
X44400595Y-64787619D01*
X44448214Y-64882857D01*
X44448214Y-64978095D01*
X44400595Y-65120952D01*
X43829166Y-65692380D01*
X44448214Y-65692380D01*
%TO.C,R19*%
X39419642Y-72662380D02*
X39086309Y-72186190D01*
X38848214Y-72662380D02*
X38848214Y-71662380D01*
X39229166Y-71662380D01*
X39324404Y-71710000D01*
X39372023Y-71757619D01*
X39419642Y-71852857D01*
X39419642Y-71995714D01*
X39372023Y-72090952D01*
X39324404Y-72138571D01*
X39229166Y-72186190D01*
X38848214Y-72186190D01*
X40372023Y-72662380D02*
X39800595Y-72662380D01*
X40086309Y-72662380D02*
X40086309Y-71662380D01*
X39991071Y-71805238D01*
X39895833Y-71900476D01*
X39800595Y-71948095D01*
X40848214Y-72662380D02*
X41038690Y-72662380D01*
X41133928Y-72614761D01*
X41181547Y-72567142D01*
X41276785Y-72424285D01*
X41324404Y-72233809D01*
X41324404Y-71852857D01*
X41276785Y-71757619D01*
X41229166Y-71710000D01*
X41133928Y-71662380D01*
X40943452Y-71662380D01*
X40848214Y-71710000D01*
X40800595Y-71757619D01*
X40752976Y-71852857D01*
X40752976Y-72090952D01*
X40800595Y-72186190D01*
X40848214Y-72233809D01*
X40943452Y-72281428D01*
X41133928Y-72281428D01*
X41229166Y-72233809D01*
X41276785Y-72186190D01*
X41324404Y-72090952D01*
%TO.C,R13*%
X39847142Y-55572380D02*
X39513809Y-55096190D01*
X39275714Y-55572380D02*
X39275714Y-54572380D01*
X39656666Y-54572380D01*
X39751904Y-54620000D01*
X39799523Y-54667619D01*
X39847142Y-54762857D01*
X39847142Y-54905714D01*
X39799523Y-55000952D01*
X39751904Y-55048571D01*
X39656666Y-55096190D01*
X39275714Y-55096190D01*
X40799523Y-55572380D02*
X40228095Y-55572380D01*
X40513809Y-55572380D02*
X40513809Y-54572380D01*
X40418571Y-54715238D01*
X40323333Y-54810476D01*
X40228095Y-54858095D01*
X41132857Y-54572380D02*
X41751904Y-54572380D01*
X41418571Y-54953333D01*
X41561428Y-54953333D01*
X41656666Y-55000952D01*
X41704285Y-55048571D01*
X41751904Y-55143809D01*
X41751904Y-55381904D01*
X41704285Y-55477142D01*
X41656666Y-55524761D01*
X41561428Y-55572380D01*
X41275714Y-55572380D01*
X41180476Y-55524761D01*
X41132857Y-55477142D01*
%TO.C,R23*%
X59812380Y-30142857D02*
X59336190Y-30476190D01*
X59812380Y-30714285D02*
X58812380Y-30714285D01*
X58812380Y-30333333D01*
X58860000Y-30238095D01*
X58907619Y-30190476D01*
X59002857Y-30142857D01*
X59145714Y-30142857D01*
X59240952Y-30190476D01*
X59288571Y-30238095D01*
X59336190Y-30333333D01*
X59336190Y-30714285D01*
X58907619Y-29761904D02*
X58860000Y-29714285D01*
X58812380Y-29619047D01*
X58812380Y-29380952D01*
X58860000Y-29285714D01*
X58907619Y-29238095D01*
X59002857Y-29190476D01*
X59098095Y-29190476D01*
X59240952Y-29238095D01*
X59812380Y-29809523D01*
X59812380Y-29190476D01*
X58812380Y-28857142D02*
X58812380Y-28238095D01*
X59193333Y-28571428D01*
X59193333Y-28428571D01*
X59240952Y-28333333D01*
X59288571Y-28285714D01*
X59383809Y-28238095D01*
X59621904Y-28238095D01*
X59717142Y-28285714D01*
X59764761Y-28333333D01*
X59812380Y-28428571D01*
X59812380Y-28714285D01*
X59764761Y-28809523D01*
X59717142Y-28857142D01*
%TO.C,J1*%
X42192619Y-76901666D02*
X41478333Y-76901666D01*
X41335476Y-76854047D01*
X41240238Y-76758809D01*
X41192619Y-76615952D01*
X41192619Y-76520714D01*
X41192619Y-77901666D02*
X41192619Y-77330238D01*
X41192619Y-77615952D02*
X42192619Y-77615952D01*
X42049761Y-77520714D01*
X41954523Y-77425476D01*
X41906904Y-77330238D01*
%TO.C,D6*%
X52861904Y-80002380D02*
X52861904Y-79002380D01*
X53100000Y-79002380D01*
X53242857Y-79050000D01*
X53338095Y-79145238D01*
X53385714Y-79240476D01*
X53433333Y-79430952D01*
X53433333Y-79573809D01*
X53385714Y-79764285D01*
X53338095Y-79859523D01*
X53242857Y-79954761D01*
X53100000Y-80002380D01*
X52861904Y-80002380D01*
X54290476Y-79002380D02*
X54100000Y-79002380D01*
X54004761Y-79050000D01*
X53957142Y-79097619D01*
X53861904Y-79240476D01*
X53814285Y-79430952D01*
X53814285Y-79811904D01*
X53861904Y-79907142D01*
X53909523Y-79954761D01*
X54004761Y-80002380D01*
X54195238Y-80002380D01*
X54290476Y-79954761D01*
X54338095Y-79907142D01*
X54385714Y-79811904D01*
X54385714Y-79573809D01*
X54338095Y-79478571D01*
X54290476Y-79430952D01*
X54195238Y-79383333D01*
X54004761Y-79383333D01*
X53909523Y-79430952D01*
X53861904Y-79478571D01*
X53814285Y-79573809D01*
%TO.C,C13*%
X24157142Y-30897142D02*
X24109523Y-30944761D01*
X23966666Y-30992380D01*
X23871428Y-30992380D01*
X23728571Y-30944761D01*
X23633333Y-30849523D01*
X23585714Y-30754285D01*
X23538095Y-30563809D01*
X23538095Y-30420952D01*
X23585714Y-30230476D01*
X23633333Y-30135238D01*
X23728571Y-30040000D01*
X23871428Y-29992380D01*
X23966666Y-29992380D01*
X24109523Y-30040000D01*
X24157142Y-30087619D01*
X25109523Y-30992380D02*
X24538095Y-30992380D01*
X24823809Y-30992380D02*
X24823809Y-29992380D01*
X24728571Y-30135238D01*
X24633333Y-30230476D01*
X24538095Y-30278095D01*
X25442857Y-29992380D02*
X26061904Y-29992380D01*
X25728571Y-30373333D01*
X25871428Y-30373333D01*
X25966666Y-30420952D01*
X26014285Y-30468571D01*
X26061904Y-30563809D01*
X26061904Y-30801904D01*
X26014285Y-30897142D01*
X25966666Y-30944761D01*
X25871428Y-30992380D01*
X25585714Y-30992380D01*
X25490476Y-30944761D01*
X25442857Y-30897142D01*
%TO.C,C8*%
X32933333Y-31417142D02*
X32885714Y-31464761D01*
X32742857Y-31512380D01*
X32647619Y-31512380D01*
X32504761Y-31464761D01*
X32409523Y-31369523D01*
X32361904Y-31274285D01*
X32314285Y-31083809D01*
X32314285Y-30940952D01*
X32361904Y-30750476D01*
X32409523Y-30655238D01*
X32504761Y-30560000D01*
X32647619Y-30512380D01*
X32742857Y-30512380D01*
X32885714Y-30560000D01*
X32933333Y-30607619D01*
X33504761Y-30940952D02*
X33409523Y-30893333D01*
X33361904Y-30845714D01*
X33314285Y-30750476D01*
X33314285Y-30702857D01*
X33361904Y-30607619D01*
X33409523Y-30560000D01*
X33504761Y-30512380D01*
X33695238Y-30512380D01*
X33790476Y-30560000D01*
X33838095Y-30607619D01*
X33885714Y-30702857D01*
X33885714Y-30750476D01*
X33838095Y-30845714D01*
X33790476Y-30893333D01*
X33695238Y-30940952D01*
X33504761Y-30940952D01*
X33409523Y-30988571D01*
X33361904Y-31036190D01*
X33314285Y-31131428D01*
X33314285Y-31321904D01*
X33361904Y-31417142D01*
X33409523Y-31464761D01*
X33504761Y-31512380D01*
X33695238Y-31512380D01*
X33790476Y-31464761D01*
X33838095Y-31417142D01*
X33885714Y-31321904D01*
X33885714Y-31131428D01*
X33838095Y-31036190D01*
X33790476Y-30988571D01*
X33695238Y-30940952D01*
%TO.C,R3*%
X54772380Y-52016666D02*
X54296190Y-52350000D01*
X54772380Y-52588095D02*
X53772380Y-52588095D01*
X53772380Y-52207142D01*
X53820000Y-52111904D01*
X53867619Y-52064285D01*
X53962857Y-52016666D01*
X54105714Y-52016666D01*
X54200952Y-52064285D01*
X54248571Y-52111904D01*
X54296190Y-52207142D01*
X54296190Y-52588095D01*
X53772380Y-51683333D02*
X53772380Y-51064285D01*
X54153333Y-51397619D01*
X54153333Y-51254761D01*
X54200952Y-51159523D01*
X54248571Y-51111904D01*
X54343809Y-51064285D01*
X54581904Y-51064285D01*
X54677142Y-51111904D01*
X54724761Y-51159523D01*
X54772380Y-51254761D01*
X54772380Y-51540476D01*
X54724761Y-51635714D01*
X54677142Y-51683333D01*
%TO.C,C1*%
X65333333Y-82507142D02*
X65285714Y-82554761D01*
X65142857Y-82602380D01*
X65047619Y-82602380D01*
X64904761Y-82554761D01*
X64809523Y-82459523D01*
X64761904Y-82364285D01*
X64714285Y-82173809D01*
X64714285Y-82030952D01*
X64761904Y-81840476D01*
X64809523Y-81745238D01*
X64904761Y-81650000D01*
X65047619Y-81602380D01*
X65142857Y-81602380D01*
X65285714Y-81650000D01*
X65333333Y-81697619D01*
X66285714Y-82602380D02*
X65714285Y-82602380D01*
X66000000Y-82602380D02*
X66000000Y-81602380D01*
X65904761Y-81745238D01*
X65809523Y-81840476D01*
X65714285Y-81888095D01*
%TO.C,C14*%
X24387142Y-41392857D02*
X24434761Y-41440476D01*
X24482380Y-41583333D01*
X24482380Y-41678571D01*
X24434761Y-41821428D01*
X24339523Y-41916666D01*
X24244285Y-41964285D01*
X24053809Y-42011904D01*
X23910952Y-42011904D01*
X23720476Y-41964285D01*
X23625238Y-41916666D01*
X23530000Y-41821428D01*
X23482380Y-41678571D01*
X23482380Y-41583333D01*
X23530000Y-41440476D01*
X23577619Y-41392857D01*
X24482380Y-40440476D02*
X24482380Y-41011904D01*
X24482380Y-40726190D02*
X23482380Y-40726190D01*
X23625238Y-40821428D01*
X23720476Y-40916666D01*
X23768095Y-41011904D01*
X23815714Y-39583333D02*
X24482380Y-39583333D01*
X23434761Y-39821428D02*
X24149047Y-40059523D01*
X24149047Y-39440476D01*
%TO.C,U2*%
X53588095Y-53392380D02*
X53588095Y-54201904D01*
X53635714Y-54297142D01*
X53683333Y-54344761D01*
X53778571Y-54392380D01*
X53969047Y-54392380D01*
X54064285Y-54344761D01*
X54111904Y-54297142D01*
X54159523Y-54201904D01*
X54159523Y-53392380D01*
X54588095Y-53487619D02*
X54635714Y-53440000D01*
X54730952Y-53392380D01*
X54969047Y-53392380D01*
X55064285Y-53440000D01*
X55111904Y-53487619D01*
X55159523Y-53582857D01*
X55159523Y-53678095D01*
X55111904Y-53820952D01*
X54540476Y-54392380D01*
X55159523Y-54392380D01*
%TO.C,D8*%
X62772380Y-35018095D02*
X61772380Y-35018095D01*
X61772380Y-34780000D01*
X61820000Y-34637142D01*
X61915238Y-34541904D01*
X62010476Y-34494285D01*
X62200952Y-34446666D01*
X62343809Y-34446666D01*
X62534285Y-34494285D01*
X62629523Y-34541904D01*
X62724761Y-34637142D01*
X62772380Y-34780000D01*
X62772380Y-35018095D01*
X62200952Y-33875238D02*
X62153333Y-33970476D01*
X62105714Y-34018095D01*
X62010476Y-34065714D01*
X61962857Y-34065714D01*
X61867619Y-34018095D01*
X61820000Y-33970476D01*
X61772380Y-33875238D01*
X61772380Y-33684761D01*
X61820000Y-33589523D01*
X61867619Y-33541904D01*
X61962857Y-33494285D01*
X62010476Y-33494285D01*
X62105714Y-33541904D01*
X62153333Y-33589523D01*
X62200952Y-33684761D01*
X62200952Y-33875238D01*
X62248571Y-33970476D01*
X62296190Y-34018095D01*
X62391428Y-34065714D01*
X62581904Y-34065714D01*
X62677142Y-34018095D01*
X62724761Y-33970476D01*
X62772380Y-33875238D01*
X62772380Y-33684761D01*
X62724761Y-33589523D01*
X62677142Y-33541904D01*
X62581904Y-33494285D01*
X62391428Y-33494285D01*
X62296190Y-33541904D01*
X62248571Y-33589523D01*
X62200952Y-33684761D01*
%TO.C,C12*%
X59989642Y-68292857D02*
X60037261Y-68340476D01*
X60084880Y-68483333D01*
X60084880Y-68578571D01*
X60037261Y-68721428D01*
X59942023Y-68816666D01*
X59846785Y-68864285D01*
X59656309Y-68911904D01*
X59513452Y-68911904D01*
X59322976Y-68864285D01*
X59227738Y-68816666D01*
X59132500Y-68721428D01*
X59084880Y-68578571D01*
X59084880Y-68483333D01*
X59132500Y-68340476D01*
X59180119Y-68292857D01*
X60084880Y-67340476D02*
X60084880Y-67911904D01*
X60084880Y-67626190D02*
X59084880Y-67626190D01*
X59227738Y-67721428D01*
X59322976Y-67816666D01*
X59370595Y-67911904D01*
X59180119Y-66959523D02*
X59132500Y-66911904D01*
X59084880Y-66816666D01*
X59084880Y-66578571D01*
X59132500Y-66483333D01*
X59180119Y-66435714D01*
X59275357Y-66388095D01*
X59370595Y-66388095D01*
X59513452Y-66435714D01*
X60084880Y-67007142D01*
X60084880Y-66388095D01*
%TO.C,R18*%
X39407142Y-73672380D02*
X39073809Y-73196190D01*
X38835714Y-73672380D02*
X38835714Y-72672380D01*
X39216666Y-72672380D01*
X39311904Y-72720000D01*
X39359523Y-72767619D01*
X39407142Y-72862857D01*
X39407142Y-73005714D01*
X39359523Y-73100952D01*
X39311904Y-73148571D01*
X39216666Y-73196190D01*
X38835714Y-73196190D01*
X40359523Y-73672380D02*
X39788095Y-73672380D01*
X40073809Y-73672380D02*
X40073809Y-72672380D01*
X39978571Y-72815238D01*
X39883333Y-72910476D01*
X39788095Y-72958095D01*
X40930952Y-73100952D02*
X40835714Y-73053333D01*
X40788095Y-73005714D01*
X40740476Y-72910476D01*
X40740476Y-72862857D01*
X40788095Y-72767619D01*
X40835714Y-72720000D01*
X40930952Y-72672380D01*
X41121428Y-72672380D01*
X41216666Y-72720000D01*
X41264285Y-72767619D01*
X41311904Y-72862857D01*
X41311904Y-72910476D01*
X41264285Y-73005714D01*
X41216666Y-73053333D01*
X41121428Y-73100952D01*
X40930952Y-73100952D01*
X40835714Y-73148571D01*
X40788095Y-73196190D01*
X40740476Y-73291428D01*
X40740476Y-73481904D01*
X40788095Y-73577142D01*
X40835714Y-73624761D01*
X40930952Y-73672380D01*
X41121428Y-73672380D01*
X41216666Y-73624761D01*
X41264285Y-73577142D01*
X41311904Y-73481904D01*
X41311904Y-73291428D01*
X41264285Y-73196190D01*
X41216666Y-73148571D01*
X41121428Y-73100952D01*
%TO.C,C19*%
X58907142Y-78457142D02*
X58859523Y-78504761D01*
X58716666Y-78552380D01*
X58621428Y-78552380D01*
X58478571Y-78504761D01*
X58383333Y-78409523D01*
X58335714Y-78314285D01*
X58288095Y-78123809D01*
X58288095Y-77980952D01*
X58335714Y-77790476D01*
X58383333Y-77695238D01*
X58478571Y-77600000D01*
X58621428Y-77552380D01*
X58716666Y-77552380D01*
X58859523Y-77600000D01*
X58907142Y-77647619D01*
X59859523Y-78552380D02*
X59288095Y-78552380D01*
X59573809Y-78552380D02*
X59573809Y-77552380D01*
X59478571Y-77695238D01*
X59383333Y-77790476D01*
X59288095Y-77838095D01*
X60335714Y-78552380D02*
X60526190Y-78552380D01*
X60621428Y-78504761D01*
X60669047Y-78457142D01*
X60764285Y-78314285D01*
X60811904Y-78123809D01*
X60811904Y-77742857D01*
X60764285Y-77647619D01*
X60716666Y-77600000D01*
X60621428Y-77552380D01*
X60430952Y-77552380D01*
X60335714Y-77600000D01*
X60288095Y-77647619D01*
X60240476Y-77742857D01*
X60240476Y-77980952D01*
X60288095Y-78076190D01*
X60335714Y-78123809D01*
X60430952Y-78171428D01*
X60621428Y-78171428D01*
X60716666Y-78123809D01*
X60764285Y-78076190D01*
X60811904Y-77980952D01*
%TO.C,C10*%
X32457142Y-33517142D02*
X32409523Y-33564761D01*
X32266666Y-33612380D01*
X32171428Y-33612380D01*
X32028571Y-33564761D01*
X31933333Y-33469523D01*
X31885714Y-33374285D01*
X31838095Y-33183809D01*
X31838095Y-33040952D01*
X31885714Y-32850476D01*
X31933333Y-32755238D01*
X32028571Y-32660000D01*
X32171428Y-32612380D01*
X32266666Y-32612380D01*
X32409523Y-32660000D01*
X32457142Y-32707619D01*
X33409523Y-33612380D02*
X32838095Y-33612380D01*
X33123809Y-33612380D02*
X33123809Y-32612380D01*
X33028571Y-32755238D01*
X32933333Y-32850476D01*
X32838095Y-32898095D01*
X34028571Y-32612380D02*
X34123809Y-32612380D01*
X34219047Y-32660000D01*
X34266666Y-32707619D01*
X34314285Y-32802857D01*
X34361904Y-32993333D01*
X34361904Y-33231428D01*
X34314285Y-33421904D01*
X34266666Y-33517142D01*
X34219047Y-33564761D01*
X34123809Y-33612380D01*
X34028571Y-33612380D01*
X33933333Y-33564761D01*
X33885714Y-33517142D01*
X33838095Y-33421904D01*
X33790476Y-33231428D01*
X33790476Y-32993333D01*
X33838095Y-32802857D01*
X33885714Y-32707619D01*
X33933333Y-32660000D01*
X34028571Y-32612380D01*
D15*
%TO.C,U4*%
X55850000Y-66140000D02*
X56650000Y-66140000D01*
X55850000Y-66140000D02*
X55050000Y-66140000D01*
X55850000Y-69260000D02*
X57650000Y-69260000D01*
X55850000Y-69260000D02*
X55050000Y-69260000D01*
%TO.C,R7*%
X56953641Y-70620000D02*
X56646359Y-70620000D01*
X56953641Y-71380000D02*
X56646359Y-71380000D01*
%TO.C,C6*%
X55435000Y-51361252D02*
X55435000Y-50838748D01*
X53965000Y-51361252D02*
X53965000Y-50838748D01*
%TO.C,U11*%
X44800000Y-72940000D02*
X45600000Y-72940000D01*
X44800000Y-76060000D02*
X46600000Y-76060000D01*
X44800000Y-76060000D02*
X44000000Y-76060000D01*
X44800000Y-72940000D02*
X44000000Y-72940000D01*
%TO.C,R24*%
X59860000Y-29346359D02*
X59860000Y-29653641D01*
X59100000Y-29346359D02*
X59100000Y-29653641D01*
%TO.C,R21*%
X40216141Y-69660000D02*
X39908859Y-69660000D01*
X40216141Y-70420000D02*
X39908859Y-70420000D01*
%TO.C,R11*%
X48730000Y-49463641D02*
X48730000Y-49156359D01*
X47970000Y-49463641D02*
X47970000Y-49156359D01*
%TO.C,C25*%
X65042164Y-41010000D02*
X65257836Y-41010000D01*
X65042164Y-40290000D02*
X65257836Y-40290000D01*
%TO.C,R2*%
X44463641Y-78520000D02*
X44156359Y-78520000D01*
X44463641Y-79280000D02*
X44156359Y-79280000D01*
%TO.C,C9*%
X54015000Y-64411252D02*
X54015000Y-63888748D01*
X55485000Y-64411252D02*
X55485000Y-63888748D01*
%TO.C,R8*%
X56646359Y-72430000D02*
X56953641Y-72430000D01*
X56646359Y-71670000D02*
X56953641Y-71670000D01*
%TO.C,D4*%
X55900000Y-57840000D02*
X55900000Y-52440000D01*
X59200000Y-57840000D02*
X59200000Y-52440000D01*
X55900000Y-57840000D02*
X59200000Y-57840000D01*
%TO.C,R1*%
X65024758Y-60827500D02*
X64550242Y-60827500D01*
X65024758Y-61872500D02*
X64550242Y-61872500D01*
%TO.C,U15*%
X57645000Y-31190000D02*
X56920000Y-31190000D01*
X56920000Y-36410000D02*
X56920000Y-35685000D01*
X62140000Y-31190000D02*
X62140000Y-31915000D01*
X61415000Y-31190000D02*
X62140000Y-31190000D01*
X56920000Y-31190000D02*
X56920000Y-31915000D01*
X57645000Y-36410000D02*
X56920000Y-36410000D01*
X61415000Y-36410000D02*
X62140000Y-36410000D01*
%TO.C,R14*%
X24743641Y-41080000D02*
X24436359Y-41080000D01*
X24743641Y-40320000D02*
X24436359Y-40320000D01*
%TO.C,D7*%
X34250000Y-57490000D02*
X33600000Y-57490000D01*
X34250000Y-60610000D02*
X35925000Y-60610000D01*
X34250000Y-57490000D02*
X34900000Y-57490000D01*
X34250000Y-60610000D02*
X33600000Y-60610000D01*
%TO.C,D3*%
X56050000Y-61590000D02*
X61450000Y-61590000D01*
X56050000Y-58290000D02*
X56050000Y-61590000D01*
X56050000Y-58290000D02*
X61450000Y-58290000D01*
%TO.C,C2*%
X64201248Y-67535000D02*
X64723752Y-67535000D01*
X64201248Y-66065000D02*
X64723752Y-66065000D01*
%TO.C,D2*%
X41715000Y-80190000D02*
X41715000Y-82110000D01*
X44400000Y-80190000D02*
X41715000Y-80190000D01*
X41715000Y-82110000D02*
X44400000Y-82110000D01*
%TO.C,C3*%
X66173752Y-76325000D02*
X65651248Y-76325000D01*
X66173752Y-77795000D02*
X65651248Y-77795000D01*
%TO.C,C16*%
X26940000Y-42192164D02*
X26940000Y-42407836D01*
X27660000Y-42192164D02*
X27660000Y-42407836D01*
%TO.C,U7*%
X35780000Y-52040000D02*
X37730000Y-52040000D01*
X35780000Y-52040000D02*
X33830000Y-52040000D01*
X35780000Y-57160000D02*
X33830000Y-57160000D01*
X35780000Y-57160000D02*
X39230000Y-57160000D01*
%TO.C,J2*%
X76000000Y-87220000D02*
X76000000Y-79590000D01*
X74890000Y-87220000D02*
X74890000Y-79590000D01*
X68600000Y-87220000D02*
X68600000Y-79590000D01*
X68600000Y-79590000D02*
X76000000Y-79590000D01*
X68600000Y-87220000D02*
X76000000Y-87220000D01*
%TO.C,C20*%
X57040000Y-78410000D02*
X61250000Y-78410000D01*
X61250000Y-75390000D02*
X57040000Y-75390000D01*
X57040000Y-75390000D02*
X57040000Y-78410000D01*
%TO.C,U1*%
X64200000Y-65460000D02*
X63400000Y-65460000D01*
X64200000Y-62340000D02*
X65000000Y-62340000D01*
X64200000Y-62340000D02*
X62400000Y-62340000D01*
X64200000Y-65460000D02*
X65000000Y-65460000D01*
%TO.C,SW1*%
X74025000Y-65500000D02*
X72925000Y-65500000D01*
X74025000Y-59700000D02*
X72925000Y-59700000D01*
X74025000Y-65500000D02*
X74025000Y-59700000D01*
%TO.C,C26*%
X59607836Y-41140000D02*
X59392164Y-41140000D01*
X59607836Y-41860000D02*
X59392164Y-41860000D01*
D16*
%TO.C,U9*%
X42756795Y-72294100D02*
X43768205Y-72294100D01*
X43768205Y-70185900D02*
X42756795Y-70185900D01*
X43567300Y-72294100D02*
G75*
G03*
X42957700Y-72294100I-304800J0D01*
G01*
D15*
%TO.C,J11*%
X69930000Y-29600000D02*
X71930000Y-29600000D01*
X69930000Y-39000000D02*
X71930000Y-39000000D01*
X75730000Y-39000000D02*
X75730000Y-29600000D01*
X73830000Y-39000000D02*
X75730000Y-39000000D01*
X73830000Y-29600000D02*
X75730000Y-29600000D01*
%TO.C,D1*%
X49985000Y-82160000D02*
X49985000Y-80240000D01*
X47300000Y-82160000D02*
X49985000Y-82160000D01*
X49985000Y-80240000D02*
X47300000Y-80240000D01*
%TO.C,C18*%
X33227836Y-37460000D02*
X33012164Y-37460000D01*
X33227836Y-36740000D02*
X33012164Y-36740000D01*
%TO.C,J6*%
X21250000Y-61700000D02*
X21250000Y-60700000D01*
X21250000Y-52100000D02*
X18990000Y-52100000D01*
X18990000Y-50340000D02*
X18990000Y-62460000D01*
X21250000Y-60700000D02*
X22850000Y-60700000D01*
X25210000Y-61540000D02*
X25210000Y-61260000D01*
X21250000Y-51100000D02*
X21250000Y-52100000D01*
X26810000Y-61540000D02*
X25210000Y-61540000D01*
X25210000Y-51540000D02*
X25210000Y-51260000D01*
X18990000Y-52900000D02*
X23350000Y-52900000D01*
X21250000Y-52100000D02*
X22850000Y-52100000D01*
X25210000Y-51260000D02*
X26810000Y-51260000D01*
X26810000Y-62460000D02*
X26810000Y-61540000D01*
X25210000Y-50340000D02*
X25210000Y-51260000D01*
X23350000Y-52900000D02*
X23350000Y-59900000D01*
X25210000Y-51540000D02*
X26425000Y-51540000D01*
X22850000Y-52100000D02*
X22850000Y-51100000D01*
X23350000Y-59900000D02*
X18990000Y-59900000D01*
X26810000Y-50340000D02*
X18990000Y-50340000D01*
X22850000Y-60700000D02*
X22850000Y-61700000D01*
X21250000Y-51600000D02*
X18990000Y-51600000D01*
X26810000Y-51260000D02*
X26810000Y-50340000D01*
X22850000Y-51100000D02*
X21250000Y-51100000D01*
X25210000Y-62460000D02*
X25210000Y-61540000D01*
X18990000Y-62460000D02*
X26810000Y-62460000D01*
X22850000Y-61700000D02*
X21250000Y-61700000D01*
%TO.C,R4*%
X51670000Y-52003641D02*
X51670000Y-51696359D01*
X52430000Y-52003641D02*
X52430000Y-51696359D01*
%TO.C,R10*%
X39070000Y-49553641D02*
X39070000Y-49246359D01*
X39830000Y-49553641D02*
X39830000Y-49246359D01*
%TO.C,U5*%
X22930000Y-32450000D02*
X22930000Y-33450000D01*
X23930000Y-32450000D02*
X22930000Y-32450000D01*
X25930000Y-36450000D02*
X26930000Y-36450000D01*
X22930000Y-35450000D02*
X22930000Y-36450000D01*
X26930000Y-33450000D02*
X26930000Y-32450000D01*
X26930000Y-32450000D02*
X25930000Y-32450000D01*
X26930000Y-36450000D02*
X26930000Y-35450000D01*
%TO.C,J10*%
X32100000Y-91500000D02*
X32600000Y-92000000D01*
X66900000Y-91500000D02*
X66900000Y-86000000D01*
X46550000Y-91500000D02*
X46550000Y-86850000D01*
X46050000Y-92000000D02*
X32600000Y-92000000D01*
X32100000Y-91500000D02*
X32100000Y-86000000D01*
X48950000Y-92000000D02*
X66400000Y-92000000D01*
X46050000Y-92000000D02*
X46550000Y-91500000D01*
X48950000Y-92000000D02*
X48450000Y-91500000D01*
X66400000Y-92000000D02*
X66900000Y-91500000D01*
X48450000Y-91500000D02*
X48450000Y-86850000D01*
X48450000Y-86850000D02*
G75*
G03*
X46550000Y-86850000I-950000J0D01*
G01*
%TO.C,R12*%
X22446359Y-38020000D02*
X22753641Y-38020000D01*
X22446359Y-38780000D02*
X22753641Y-38780000D01*
%TO.C,R25*%
X62670000Y-38153641D02*
X62670000Y-37846359D01*
X61910000Y-38153641D02*
X61910000Y-37846359D01*
%TO.C,C11*%
X56907836Y-69640000D02*
X56692164Y-69640000D01*
X56907836Y-70360000D02*
X56692164Y-70360000D01*
%TO.C,R17*%
X46142500Y-60886359D02*
X46142500Y-61193641D01*
X45382500Y-60886359D02*
X45382500Y-61193641D01*
%TO.C,Q1*%
X58430000Y-39000000D02*
X58430000Y-38350000D01*
X61550000Y-39000000D02*
X61550000Y-37325000D01*
X61550000Y-39000000D02*
X61550000Y-39650000D01*
X58430000Y-39000000D02*
X58430000Y-39650000D01*
%TO.C,R9*%
X32846359Y-45620000D02*
X33153641Y-45620000D01*
X32846359Y-46380000D02*
X33153641Y-46380000D01*
%TO.C,U3*%
X34780000Y-46845000D02*
X34780000Y-47625000D01*
X34780000Y-28300000D02*
X34400000Y-28300000D01*
X34780000Y-47625000D02*
X35780000Y-47625000D01*
X53020000Y-21885000D02*
X53020000Y-28300000D01*
X53020000Y-47625000D02*
X52020000Y-47625000D01*
X34780000Y-21885000D02*
X53020000Y-21885000D01*
X34780000Y-21885000D02*
X34780000Y-28300000D01*
X53020000Y-46845000D02*
X53020000Y-47625000D01*
%TO.C,R22*%
X38080000Y-68063641D02*
X38080000Y-67756359D01*
X37320000Y-68063641D02*
X37320000Y-67756359D01*
%TO.C,Q2*%
X66250000Y-37900000D02*
X66250000Y-36225000D01*
X66250000Y-37900000D02*
X66250000Y-38550000D01*
X63130000Y-37900000D02*
X63130000Y-37250000D01*
X63130000Y-37900000D02*
X63130000Y-38550000D01*
%TO.C,C7*%
X33207836Y-30540000D02*
X32992164Y-30540000D01*
X33207836Y-31260000D02*
X32992164Y-31260000D01*
%TO.C,C4*%
X52185000Y-55901252D02*
X52185000Y-55378748D01*
X50715000Y-55901252D02*
X50715000Y-55378748D01*
%TO.C,C23*%
X63722164Y-30760000D02*
X63937836Y-30760000D01*
X63722164Y-30040000D02*
X63937836Y-30040000D01*
D10*
%TO.C,U8*%
X26550000Y-41500000D02*
X26550000Y-42140000D01*
X26550000Y-41500000D02*
X26070000Y-41500000D01*
X23850000Y-43060000D02*
X23850000Y-43700000D01*
X26550000Y-43060000D02*
X26550000Y-43700000D01*
X24330000Y-41500000D02*
X23850000Y-41500000D01*
X23850000Y-41500000D02*
X23850000Y-42140000D01*
X24330000Y-43700000D02*
X23850000Y-43700000D01*
D15*
%TO.C,R16*%
X46380000Y-71913641D02*
X46380000Y-71606359D01*
X45620000Y-71913641D02*
X45620000Y-71606359D01*
%TO.C,C5*%
X60177500Y-64211252D02*
X60177500Y-63688748D01*
X61647500Y-64211252D02*
X61647500Y-63688748D01*
%TO.C,U6*%
X24700000Y-36650000D02*
X23700000Y-36650000D01*
X24200000Y-40150000D02*
X23450000Y-40150000D01*
X26950000Y-36650000D02*
X26200000Y-36650000D01*
X26950000Y-37400000D02*
X26950000Y-36650000D01*
X26950000Y-40150000D02*
X26200000Y-40150000D01*
X23450000Y-40150000D02*
X23450000Y-39400000D01*
X26950000Y-40150000D02*
X26950000Y-39400000D01*
%TO.C,J3*%
X68600000Y-71790000D02*
X76000000Y-71790000D01*
X74890000Y-79420000D02*
X74890000Y-71790000D01*
X68600000Y-79420000D02*
X76000000Y-79420000D01*
X76000000Y-79420000D02*
X76000000Y-71790000D01*
X68600000Y-79420000D02*
X68600000Y-71790000D01*
%TO.C,R15*%
X26203641Y-44830000D02*
X25896359Y-44830000D01*
X26203641Y-44070000D02*
X25896359Y-44070000D01*
%TO.C,R6*%
X52453641Y-79280000D02*
X52146359Y-79280000D01*
X52453641Y-78520000D02*
X52146359Y-78520000D01*
%TO.C,R20*%
X33243641Y-38480000D02*
X32936359Y-38480000D01*
X33243641Y-37720000D02*
X32936359Y-37720000D01*
%TO.C,D5*%
X59500000Y-57840000D02*
X59500000Y-52440000D01*
X62800000Y-57840000D02*
X62800000Y-52440000D01*
X59500000Y-57840000D02*
X62800000Y-57840000D01*
%TO.C,Y1*%
X39905000Y-57125000D02*
X39905000Y-55775000D01*
X41655000Y-57125000D02*
X41655000Y-55775000D01*
%TO.C,U13*%
X35100000Y-66820000D02*
X34300000Y-66820000D01*
X35100000Y-66820000D02*
X35900000Y-66820000D01*
X35100000Y-69940000D02*
X36900000Y-69940000D01*
X35100000Y-69940000D02*
X34300000Y-69940000D01*
%TO.C,C15*%
X31120000Y-56127836D02*
X31120000Y-55912164D01*
X31840000Y-56127836D02*
X31840000Y-55912164D01*
%TO.C,C24*%
X63722164Y-31760000D02*
X63937836Y-31760000D01*
X63722164Y-31040000D02*
X63937836Y-31040000D01*
%TO.C,J4*%
X71550000Y-53600000D02*
X75910000Y-53600000D01*
X75910000Y-51040000D02*
X68090000Y-51040000D01*
X73650000Y-55400000D02*
X72050000Y-55400000D01*
X73650000Y-55900000D02*
X75910000Y-55900000D01*
X69690000Y-55960000D02*
X69690000Y-56240000D01*
X75910000Y-57160000D02*
X75910000Y-51040000D01*
X68090000Y-56240000D02*
X68090000Y-57160000D01*
X71550000Y-54600000D02*
X71550000Y-53600000D01*
X69690000Y-57160000D02*
X69690000Y-56240000D01*
X73650000Y-52800000D02*
X72050000Y-52800000D01*
X68090000Y-51960000D02*
X69690000Y-51960000D01*
X69690000Y-51040000D02*
X69690000Y-51960000D01*
X73650000Y-56400000D02*
X73650000Y-55400000D01*
X69690000Y-51960000D02*
X69690000Y-52240000D01*
X72050000Y-52800000D02*
X72050000Y-51800000D01*
X68090000Y-51040000D02*
X68090000Y-51960000D01*
X69690000Y-56240000D02*
X68090000Y-56240000D01*
X72050000Y-56400000D02*
X73650000Y-56400000D01*
X73650000Y-55400000D02*
X75910000Y-55400000D01*
X68090000Y-57160000D02*
X75910000Y-57160000D01*
X72050000Y-51800000D02*
X73650000Y-51800000D01*
X72050000Y-55400000D02*
X72050000Y-56400000D01*
X75910000Y-54600000D02*
X71550000Y-54600000D01*
X73650000Y-51800000D02*
X73650000Y-52800000D01*
X69690000Y-55960000D02*
X68475000Y-55960000D01*
%TO.C,R26*%
X62943641Y-40120000D02*
X62636359Y-40120000D01*
X62943641Y-40880000D02*
X62636359Y-40880000D01*
%TO.C,C17*%
X41540000Y-73282164D02*
X41540000Y-73497836D01*
X42260000Y-73282164D02*
X42260000Y-73497836D01*
%TO.C,U14*%
X43162500Y-62100000D02*
X44962500Y-62100000D01*
X43162500Y-62100000D02*
X42362500Y-62100000D01*
X43162500Y-58980000D02*
X42362500Y-58980000D01*
X43162500Y-58980000D02*
X43962500Y-58980000D01*
%TO.C,U10*%
X43162500Y-65700000D02*
X44962500Y-65700000D01*
X43162500Y-62580000D02*
X43962500Y-62580000D01*
X43162500Y-62580000D02*
X42362500Y-62580000D01*
X43162500Y-65700000D02*
X42362500Y-65700000D01*
%TO.C,C22*%
X63722164Y-29040000D02*
X63937836Y-29040000D01*
X63722164Y-29760000D02*
X63937836Y-29760000D01*
%TO.C,J7*%
X18990000Y-65900000D02*
X23350000Y-65900000D01*
X18990000Y-63340000D02*
X18990000Y-75460000D01*
X21250000Y-74700000D02*
X21250000Y-73700000D01*
X21250000Y-64100000D02*
X21250000Y-65100000D01*
X22850000Y-64100000D02*
X21250000Y-64100000D01*
X25210000Y-75460000D02*
X25210000Y-74540000D01*
X18990000Y-75460000D02*
X26810000Y-75460000D01*
X23350000Y-72900000D02*
X18990000Y-72900000D01*
X25210000Y-64540000D02*
X25210000Y-64260000D01*
X26810000Y-64260000D02*
X26810000Y-63340000D01*
X25210000Y-64540000D02*
X26425000Y-64540000D01*
X21250000Y-65100000D02*
X18990000Y-65100000D01*
X21250000Y-73700000D02*
X22850000Y-73700000D01*
X25210000Y-63340000D02*
X25210000Y-64260000D01*
X26810000Y-74540000D02*
X25210000Y-74540000D01*
X26810000Y-75460000D02*
X26810000Y-74540000D01*
X22850000Y-74700000D02*
X21250000Y-74700000D01*
X22850000Y-65100000D02*
X22850000Y-64100000D01*
X22850000Y-73700000D02*
X22850000Y-74700000D01*
X21250000Y-64600000D02*
X18990000Y-64600000D01*
X23350000Y-65900000D02*
X23350000Y-72900000D01*
X21250000Y-65100000D02*
X22850000Y-65100000D01*
X26810000Y-63340000D02*
X18990000Y-63340000D01*
X25210000Y-64260000D02*
X26810000Y-64260000D01*
X25210000Y-74540000D02*
X25210000Y-74260000D01*
%TO.C,R5*%
X32926359Y-33380000D02*
X33233641Y-33380000D01*
X32926359Y-32620000D02*
X33233641Y-32620000D01*
%TO.C,C21*%
X58538748Y-83885000D02*
X59061252Y-83885000D01*
X58538748Y-82415000D02*
X59061252Y-82415000D01*
%TO.C,U12*%
X43162500Y-69200000D02*
X42362500Y-69200000D01*
X43162500Y-66080000D02*
X43962500Y-66080000D01*
X43162500Y-69200000D02*
X43962500Y-69200000D01*
X43162500Y-66080000D02*
X41362500Y-66080000D01*
%TO.C,R19*%
X40216141Y-70660000D02*
X39908859Y-70660000D01*
X40216141Y-71420000D02*
X39908859Y-71420000D01*
%TO.C,R13*%
X40643641Y-53570000D02*
X40336359Y-53570000D01*
X40643641Y-54330000D02*
X40336359Y-54330000D01*
%TO.C,R23*%
X60910000Y-29653641D02*
X60910000Y-29346359D01*
X60150000Y-29653641D02*
X60150000Y-29346359D01*
%TO.C,J1*%
X26405000Y-77235000D02*
X19005000Y-77235000D01*
X26405000Y-77235000D02*
X26405000Y-91555000D01*
X20115000Y-77235000D02*
X20115000Y-91555000D01*
X26405000Y-91555000D02*
X19005000Y-91555000D01*
X19005000Y-77235000D02*
X19005000Y-91555000D01*
%TO.C,D6*%
X51915000Y-82160000D02*
X54600000Y-82160000D01*
X51915000Y-80240000D02*
X51915000Y-82160000D01*
X54600000Y-80240000D02*
X51915000Y-80240000D01*
%TO.C,C13*%
X24692164Y-32060000D02*
X24907836Y-32060000D01*
X24692164Y-31340000D02*
X24907836Y-31340000D01*
%TO.C,C8*%
X33207836Y-30260000D02*
X32992164Y-30260000D01*
X33207836Y-29540000D02*
X32992164Y-29540000D01*
%TO.C,R3*%
X53530000Y-51696359D02*
X53530000Y-52003641D01*
X52770000Y-51696359D02*
X52770000Y-52003641D01*
%TO.C,C1*%
X67960000Y-78290000D02*
X63750000Y-78290000D01*
X63750000Y-81310000D02*
X67960000Y-81310000D01*
X67960000Y-81310000D02*
X67960000Y-78290000D01*
%TO.C,C14*%
X21615000Y-40488748D02*
X21615000Y-41011252D01*
X23085000Y-40488748D02*
X23085000Y-41011252D01*
D16*
%TO.C,U2*%
X53850001Y-54890001D02*
X54849999Y-54890001D01*
X53449999Y-52989999D02*
X54849999Y-52989999D01*
D15*
%TO.C,D8*%
X63140000Y-33650000D02*
X63140000Y-35650000D01*
X66260000Y-34950000D02*
X66260000Y-33650000D01*
%TO.C,C12*%
X60577500Y-67911252D02*
X60577500Y-67388748D01*
X62047500Y-67911252D02*
X62047500Y-67388748D01*
%TO.C,R18*%
X40203641Y-72430000D02*
X39896359Y-72430000D01*
X40203641Y-71670000D02*
X39896359Y-71670000D01*
%TO.C,C19*%
X61300000Y-78940000D02*
X57090000Y-78940000D01*
X57090000Y-81960000D02*
X61300000Y-81960000D01*
X57090000Y-78940000D02*
X57090000Y-81960000D01*
%TO.C,C10*%
X33207836Y-31640000D02*
X32992164Y-31640000D01*
X33207836Y-32360000D02*
X32992164Y-32360000D01*
%TD*%
D17*
%TO.C,U3*%
X42457500Y-35310000D03*
%TD*%
M02*
