%TF.GenerationSoftware,KiCad,Pcbnew,(6.0.9)*%
%TF.CreationDate,2023-07-16T00:02:42+05:30*%
%TF.ProjectId,WeatherKids_Compact(V2.1),57656174-6865-4724-9b69-64735f436f6d,rev?*%
%TF.SameCoordinates,Original*%
%TF.FileFunction,Soldermask,Top*%
%TF.FilePolarity,Negative*%
%FSLAX46Y46*%
G04 Gerber Fmt 4.6, Leading zero omitted, Abs format (unit mm)*
G04 Created by KiCad (PCBNEW (6.0.9)) date 2023-07-16 00:02:42*
%MOMM*%
%LPD*%
G01*
G04 APERTURE LIST*
G04 Aperture macros list*
%AMRoundRect*
0 Rectangle with rounded corners*
0 $1 Rounding radius*
0 $2 $3 $4 $5 $6 $7 $8 $9 X,Y pos of 4 corners*
0 Add a 4 corners polygon primitive as box body*
4,1,4,$2,$3,$4,$5,$6,$7,$8,$9,$2,$3,0*
0 Add four circle primitives for the rounded corners*
1,1,$1+$1,$2,$3*
1,1,$1+$1,$4,$5*
1,1,$1+$1,$6,$7*
1,1,$1+$1,$8,$9*
0 Add four rect primitives between the rounded corners*
20,1,$1+$1,$2,$3,$4,$5,0*
20,1,$1+$1,$4,$5,$6,$7,0*
20,1,$1+$1,$6,$7,$8,$9,0*
20,1,$1+$1,$8,$9,$2,$3,0*%
G04 Aperture macros list end*
%ADD10C,0.100000*%
%ADD11C,0.150000*%
%ADD12C,0.300000*%
%ADD13C,0.400000*%
%TA.AperFunction,Profile*%
%ADD14C,0.050000*%
%TD*%
%ADD15RoundRect,0.150000X0.512500X0.150000X-0.512500X0.150000X-0.512500X-0.150000X0.512500X-0.150000X0*%
%ADD16RoundRect,0.135000X0.135000X0.185000X-0.135000X0.185000X-0.135000X-0.185000X0.135000X-0.185000X0*%
%ADD17RoundRect,0.250000X0.475000X-0.250000X0.475000X0.250000X-0.475000X0.250000X-0.475000X-0.250000X0*%
%ADD18RoundRect,0.135000X-0.185000X0.135000X-0.185000X-0.135000X0.185000X-0.135000X0.185000X0.135000X0*%
%ADD19RoundRect,0.135000X0.185000X-0.135000X0.185000X0.135000X-0.185000X0.135000X-0.185000X-0.135000X0*%
%ADD20RoundRect,0.140000X-0.140000X-0.170000X0.140000X-0.170000X0.140000X0.170000X-0.140000X0.170000X0*%
%ADD21RoundRect,0.187500X-0.187500X0.312500X-0.187500X-0.312500X0.187500X-0.312500X0.187500X0.312500X0*%
%ADD22C,2.200000*%
%ADD23RoundRect,0.135000X-0.135000X-0.185000X0.135000X-0.185000X0.135000X0.185000X-0.135000X0.185000X0*%
%ADD24R,1.800000X2.500000*%
%ADD25R,2.000000X0.800000*%
%ADD26RoundRect,0.200000X0.200000X0.275000X-0.200000X0.275000X-0.200000X-0.275000X0.200000X-0.275000X0*%
%ADD27RoundRect,0.062500X0.337500X0.062500X-0.337500X0.062500X-0.337500X-0.062500X0.337500X-0.062500X0*%
%ADD28RoundRect,0.062500X0.062500X0.337500X-0.062500X0.337500X-0.062500X-0.337500X0.062500X-0.337500X0*%
%ADD29R,3.350000X3.350000*%
%ADD30RoundRect,0.150000X0.587500X0.150000X-0.587500X0.150000X-0.587500X-0.150000X0.587500X-0.150000X0*%
%ADD31R,2.500000X1.800000*%
%ADD32RoundRect,0.250000X-0.250000X-0.475000X0.250000X-0.475000X0.250000X0.475000X-0.250000X0.475000X0*%
%ADD33RoundRect,0.243750X-0.243750X-0.456250X0.243750X-0.456250X0.243750X0.456250X-0.243750X0.456250X0*%
%ADD34RoundRect,0.250000X0.250000X0.475000X-0.250000X0.475000X-0.250000X-0.475000X0.250000X-0.475000X0*%
%ADD35RoundRect,0.140000X-0.170000X0.140000X-0.170000X-0.140000X0.170000X-0.140000X0.170000X0.140000X0*%
%ADD36RoundRect,0.150000X0.825000X0.150000X-0.825000X0.150000X-0.825000X-0.150000X0.825000X-0.150000X0*%
%ADD37R,2.400000X2.400000*%
%ADD38C,2.400000*%
%ADD39RoundRect,0.250000X-0.412500X-0.925000X0.412500X-0.925000X0.412500X0.925000X-0.412500X0.925000X0*%
%ADD40RoundRect,0.150000X-0.512500X-0.150000X0.512500X-0.150000X0.512500X0.150000X-0.512500X0.150000X0*%
%ADD41C,1.600000*%
%ADD42RoundRect,0.140000X0.140000X0.170000X-0.140000X0.170000X-0.140000X-0.170000X0.140000X-0.170000X0*%
%ADD43R,1.168400X0.254000*%
%ADD44C,0.650000*%
%ADD45R,1.450000X0.600000*%
%ADD46R,1.450000X0.300000*%
%ADD47O,1.600000X1.000000*%
%ADD48O,2.100000X1.000000*%
%ADD49RoundRect,0.243750X0.243750X0.456250X-0.243750X0.456250X-0.243750X-0.456250X0.243750X-0.456250X0*%
%ADD50RoundRect,0.250000X-0.625000X0.350000X-0.625000X-0.350000X0.625000X-0.350000X0.625000X0.350000X0*%
%ADD51O,1.750000X1.200000*%
%ADD52R,0.800000X0.800000*%
%ADD53R,0.700000X3.600000*%
%ADD54RoundRect,0.150000X-0.150000X0.587500X-0.150000X-0.587500X0.150000X-0.587500X0.150000X0.587500X0*%
%ADD55R,1.500000X0.900000*%
%ADD56R,0.900000X1.500000*%
%ADD57C,0.600000*%
%ADD58R,4.200000X4.200000*%
%ADD59R,0.350000X0.500000*%
%ADD60R,0.800000X0.500000*%
%ADD61R,0.800000X2.000000*%
%ADD62R,1.800000X1.000000*%
%ADD63RoundRect,0.140000X0.170000X-0.140000X0.170000X0.140000X-0.170000X0.140000X-0.170000X-0.140000X0*%
%ADD64RoundRect,0.250000X0.625000X-0.350000X0.625000X0.350000X-0.625000X0.350000X-0.625000X-0.350000X0*%
%ADD65RoundRect,0.250000X0.412500X0.925000X-0.412500X0.925000X-0.412500X-0.925000X0.412500X-0.925000X0*%
%ADD66RoundRect,0.250000X-0.475000X0.250000X-0.475000X-0.250000X0.475000X-0.250000X0.475000X0.250000X0*%
%ADD67R,0.670001X0.299999*%
%ADD68R,1.000000X0.700000*%
%ADD69R,0.600000X0.700000*%
G04 APERTURE END LIST*
D10*
D11*
X299989000Y-253002200D02*
X299989000Y-285002200D01*
X407989000Y-285002200D01*
X407989000Y-253002200D01*
X299989000Y-253002200D01*
D10*
D11*
X10000000Y-10000000D02*
X10000000Y-287002200D01*
X409989000Y-287002200D01*
X409989000Y-10000000D01*
X10000000Y-10000000D01*
D10*
D11*
X12000000Y-12000000D02*
X12000000Y-285002200D01*
X407989000Y-285002200D01*
X407989000Y-12000000D01*
X12000000Y-12000000D01*
D10*
D11*
X60000000Y-12000000D02*
X60000000Y-10000000D01*
D10*
D11*
X110000000Y-12000000D02*
X110000000Y-10000000D01*
D10*
D11*
X160000000Y-12000000D02*
X160000000Y-10000000D01*
D10*
D11*
X210000000Y-12000000D02*
X210000000Y-10000000D01*
D10*
D11*
X260000000Y-12000000D02*
X260000000Y-10000000D01*
D10*
D11*
X310000000Y-12000000D02*
X310000000Y-10000000D01*
D10*
D11*
X360000000Y-12000000D02*
X360000000Y-10000000D01*
D10*
D11*
X36065476Y-11588095D02*
X35322619Y-11588095D01*
X35694047Y-11588095D02*
X35694047Y-10288095D01*
X35570238Y-10473809D01*
X35446428Y-10597619D01*
X35322619Y-10659523D01*
D10*
D11*
X85322619Y-10411904D02*
X85384523Y-10350000D01*
X85508333Y-10288095D01*
X85817857Y-10288095D01*
X85941666Y-10350000D01*
X86003571Y-10411904D01*
X86065476Y-10535714D01*
X86065476Y-10659523D01*
X86003571Y-10845238D01*
X85260714Y-11588095D01*
X86065476Y-11588095D01*
D10*
D11*
X135260714Y-10288095D02*
X136065476Y-10288095D01*
X135632142Y-10783333D01*
X135817857Y-10783333D01*
X135941666Y-10845238D01*
X136003571Y-10907142D01*
X136065476Y-11030952D01*
X136065476Y-11340476D01*
X136003571Y-11464285D01*
X135941666Y-11526190D01*
X135817857Y-11588095D01*
X135446428Y-11588095D01*
X135322619Y-11526190D01*
X135260714Y-11464285D01*
D10*
D11*
X185941666Y-10721428D02*
X185941666Y-11588095D01*
X185632142Y-10226190D02*
X185322619Y-11154761D01*
X186127380Y-11154761D01*
D10*
D11*
X236003571Y-10288095D02*
X235384523Y-10288095D01*
X235322619Y-10907142D01*
X235384523Y-10845238D01*
X235508333Y-10783333D01*
X235817857Y-10783333D01*
X235941666Y-10845238D01*
X236003571Y-10907142D01*
X236065476Y-11030952D01*
X236065476Y-11340476D01*
X236003571Y-11464285D01*
X235941666Y-11526190D01*
X235817857Y-11588095D01*
X235508333Y-11588095D01*
X235384523Y-11526190D01*
X235322619Y-11464285D01*
D10*
D11*
X285941666Y-10288095D02*
X285694047Y-10288095D01*
X285570238Y-10350000D01*
X285508333Y-10411904D01*
X285384523Y-10597619D01*
X285322619Y-10845238D01*
X285322619Y-11340476D01*
X285384523Y-11464285D01*
X285446428Y-11526190D01*
X285570238Y-11588095D01*
X285817857Y-11588095D01*
X285941666Y-11526190D01*
X286003571Y-11464285D01*
X286065476Y-11340476D01*
X286065476Y-11030952D01*
X286003571Y-10907142D01*
X285941666Y-10845238D01*
X285817857Y-10783333D01*
X285570238Y-10783333D01*
X285446428Y-10845238D01*
X285384523Y-10907142D01*
X285322619Y-11030952D01*
D10*
D11*
X335260714Y-10288095D02*
X336127380Y-10288095D01*
X335570238Y-11588095D01*
D10*
D11*
X385570238Y-10845238D02*
X385446428Y-10783333D01*
X385384523Y-10721428D01*
X385322619Y-10597619D01*
X385322619Y-10535714D01*
X385384523Y-10411904D01*
X385446428Y-10350000D01*
X385570238Y-10288095D01*
X385817857Y-10288095D01*
X385941666Y-10350000D01*
X386003571Y-10411904D01*
X386065476Y-10535714D01*
X386065476Y-10597619D01*
X386003571Y-10721428D01*
X385941666Y-10783333D01*
X385817857Y-10845238D01*
X385570238Y-10845238D01*
X385446428Y-10907142D01*
X385384523Y-10969047D01*
X385322619Y-11092857D01*
X385322619Y-11340476D01*
X385384523Y-11464285D01*
X385446428Y-11526190D01*
X385570238Y-11588095D01*
X385817857Y-11588095D01*
X385941666Y-11526190D01*
X386003571Y-11464285D01*
X386065476Y-11340476D01*
X386065476Y-11092857D01*
X386003571Y-10969047D01*
X385941666Y-10907142D01*
X385817857Y-10845238D01*
D10*
D11*
X60000000Y-285002200D02*
X60000000Y-287002200D01*
D10*
D11*
X110000000Y-285002200D02*
X110000000Y-287002200D01*
D10*
D11*
X160000000Y-285002200D02*
X160000000Y-287002200D01*
D10*
D11*
X210000000Y-285002200D02*
X210000000Y-287002200D01*
D10*
D11*
X260000000Y-285002200D02*
X260000000Y-287002200D01*
D10*
D11*
X310000000Y-285002200D02*
X310000000Y-287002200D01*
D10*
D11*
X360000000Y-285002200D02*
X360000000Y-287002200D01*
D10*
D11*
X36065476Y-286590295D02*
X35322619Y-286590295D01*
X35694047Y-286590295D02*
X35694047Y-285290295D01*
X35570238Y-285476009D01*
X35446428Y-285599819D01*
X35322619Y-285661723D01*
D10*
D11*
X85322619Y-285414104D02*
X85384523Y-285352200D01*
X85508333Y-285290295D01*
X85817857Y-285290295D01*
X85941666Y-285352200D01*
X86003571Y-285414104D01*
X86065476Y-285537914D01*
X86065476Y-285661723D01*
X86003571Y-285847438D01*
X85260714Y-286590295D01*
X86065476Y-286590295D01*
D10*
D11*
X135260714Y-285290295D02*
X136065476Y-285290295D01*
X135632142Y-285785533D01*
X135817857Y-285785533D01*
X135941666Y-285847438D01*
X136003571Y-285909342D01*
X136065476Y-286033152D01*
X136065476Y-286342676D01*
X136003571Y-286466485D01*
X135941666Y-286528390D01*
X135817857Y-286590295D01*
X135446428Y-286590295D01*
X135322619Y-286528390D01*
X135260714Y-286466485D01*
D10*
D11*
X185941666Y-285723628D02*
X185941666Y-286590295D01*
X185632142Y-285228390D02*
X185322619Y-286156961D01*
X186127380Y-286156961D01*
D10*
D11*
X236003571Y-285290295D02*
X235384523Y-285290295D01*
X235322619Y-285909342D01*
X235384523Y-285847438D01*
X235508333Y-285785533D01*
X235817857Y-285785533D01*
X235941666Y-285847438D01*
X236003571Y-285909342D01*
X236065476Y-286033152D01*
X236065476Y-286342676D01*
X236003571Y-286466485D01*
X235941666Y-286528390D01*
X235817857Y-286590295D01*
X235508333Y-286590295D01*
X235384523Y-286528390D01*
X235322619Y-286466485D01*
D10*
D11*
X285941666Y-285290295D02*
X285694047Y-285290295D01*
X285570238Y-285352200D01*
X285508333Y-285414104D01*
X285384523Y-285599819D01*
X285322619Y-285847438D01*
X285322619Y-286342676D01*
X285384523Y-286466485D01*
X285446428Y-286528390D01*
X285570238Y-286590295D01*
X285817857Y-286590295D01*
X285941666Y-286528390D01*
X286003571Y-286466485D01*
X286065476Y-286342676D01*
X286065476Y-286033152D01*
X286003571Y-285909342D01*
X285941666Y-285847438D01*
X285817857Y-285785533D01*
X285570238Y-285785533D01*
X285446428Y-285847438D01*
X285384523Y-285909342D01*
X285322619Y-286033152D01*
D10*
D11*
X335260714Y-285290295D02*
X336127380Y-285290295D01*
X335570238Y-286590295D01*
D10*
D11*
X385570238Y-285847438D02*
X385446428Y-285785533D01*
X385384523Y-285723628D01*
X385322619Y-285599819D01*
X385322619Y-285537914D01*
X385384523Y-285414104D01*
X385446428Y-285352200D01*
X385570238Y-285290295D01*
X385817857Y-285290295D01*
X385941666Y-285352200D01*
X386003571Y-285414104D01*
X386065476Y-285537914D01*
X386065476Y-285599819D01*
X386003571Y-285723628D01*
X385941666Y-285785533D01*
X385817857Y-285847438D01*
X385570238Y-285847438D01*
X385446428Y-285909342D01*
X385384523Y-285971247D01*
X385322619Y-286095057D01*
X385322619Y-286342676D01*
X385384523Y-286466485D01*
X385446428Y-286528390D01*
X385570238Y-286590295D01*
X385817857Y-286590295D01*
X385941666Y-286528390D01*
X386003571Y-286466485D01*
X386065476Y-286342676D01*
X386065476Y-286095057D01*
X386003571Y-285971247D01*
X385941666Y-285909342D01*
X385817857Y-285847438D01*
D10*
D11*
X10000000Y-60000000D02*
X12000000Y-60000000D01*
D10*
D11*
X10000000Y-110000000D02*
X12000000Y-110000000D01*
D10*
D11*
X10000000Y-160000000D02*
X12000000Y-160000000D01*
D10*
D11*
X10000000Y-210000000D02*
X12000000Y-210000000D01*
D10*
D11*
X10000000Y-260000000D02*
X12000000Y-260000000D01*
D10*
D11*
X10690476Y-35216666D02*
X11309523Y-35216666D01*
X10566666Y-35588095D02*
X11000000Y-34288095D01*
X11433333Y-35588095D01*
D10*
D11*
X11092857Y-84907142D02*
X11278571Y-84969047D01*
X11340476Y-85030952D01*
X11402380Y-85154761D01*
X11402380Y-85340476D01*
X11340476Y-85464285D01*
X11278571Y-85526190D01*
X11154761Y-85588095D01*
X10659523Y-85588095D01*
X10659523Y-84288095D01*
X11092857Y-84288095D01*
X11216666Y-84350000D01*
X11278571Y-84411904D01*
X11340476Y-84535714D01*
X11340476Y-84659523D01*
X11278571Y-84783333D01*
X11216666Y-84845238D01*
X11092857Y-84907142D01*
X10659523Y-84907142D01*
D10*
D11*
X11402380Y-135464285D02*
X11340476Y-135526190D01*
X11154761Y-135588095D01*
X11030952Y-135588095D01*
X10845238Y-135526190D01*
X10721428Y-135402380D01*
X10659523Y-135278571D01*
X10597619Y-135030952D01*
X10597619Y-134845238D01*
X10659523Y-134597619D01*
X10721428Y-134473809D01*
X10845238Y-134350000D01*
X11030952Y-134288095D01*
X11154761Y-134288095D01*
X11340476Y-134350000D01*
X11402380Y-134411904D01*
D10*
D11*
X10659523Y-185588095D02*
X10659523Y-184288095D01*
X10969047Y-184288095D01*
X11154761Y-184350000D01*
X11278571Y-184473809D01*
X11340476Y-184597619D01*
X11402380Y-184845238D01*
X11402380Y-185030952D01*
X11340476Y-185278571D01*
X11278571Y-185402380D01*
X11154761Y-185526190D01*
X10969047Y-185588095D01*
X10659523Y-185588095D01*
D10*
D11*
X10721428Y-234907142D02*
X11154761Y-234907142D01*
X11340476Y-235588095D02*
X10721428Y-235588095D01*
X10721428Y-234288095D01*
X11340476Y-234288095D01*
D10*
D11*
X11185714Y-284907142D02*
X10752380Y-284907142D01*
X10752380Y-285588095D02*
X10752380Y-284288095D01*
X11371428Y-284288095D01*
D10*
D11*
X409989000Y-60000000D02*
X407989000Y-60000000D01*
D10*
D11*
X409989000Y-110000000D02*
X407989000Y-110000000D01*
D10*
D11*
X409989000Y-160000000D02*
X407989000Y-160000000D01*
D10*
D11*
X409989000Y-210000000D02*
X407989000Y-210000000D01*
D10*
D11*
X409989000Y-260000000D02*
X407989000Y-260000000D01*
D10*
D11*
X408679476Y-35216666D02*
X409298523Y-35216666D01*
X408555666Y-35588095D02*
X408989000Y-34288095D01*
X409422333Y-35588095D01*
D10*
D11*
X409081857Y-84907142D02*
X409267571Y-84969047D01*
X409329476Y-85030952D01*
X409391380Y-85154761D01*
X409391380Y-85340476D01*
X409329476Y-85464285D01*
X409267571Y-85526190D01*
X409143761Y-85588095D01*
X408648523Y-85588095D01*
X408648523Y-84288095D01*
X409081857Y-84288095D01*
X409205666Y-84350000D01*
X409267571Y-84411904D01*
X409329476Y-84535714D01*
X409329476Y-84659523D01*
X409267571Y-84783333D01*
X409205666Y-84845238D01*
X409081857Y-84907142D01*
X408648523Y-84907142D01*
D10*
D11*
X409391380Y-135464285D02*
X409329476Y-135526190D01*
X409143761Y-135588095D01*
X409019952Y-135588095D01*
X408834238Y-135526190D01*
X408710428Y-135402380D01*
X408648523Y-135278571D01*
X408586619Y-135030952D01*
X408586619Y-134845238D01*
X408648523Y-134597619D01*
X408710428Y-134473809D01*
X408834238Y-134350000D01*
X409019952Y-134288095D01*
X409143761Y-134288095D01*
X409329476Y-134350000D01*
X409391380Y-134411904D01*
D10*
D11*
X408648523Y-185588095D02*
X408648523Y-184288095D01*
X408958047Y-184288095D01*
X409143761Y-184350000D01*
X409267571Y-184473809D01*
X409329476Y-184597619D01*
X409391380Y-184845238D01*
X409391380Y-185030952D01*
X409329476Y-185278571D01*
X409267571Y-185402380D01*
X409143761Y-185526190D01*
X408958047Y-185588095D01*
X408648523Y-185588095D01*
D10*
D11*
X408710428Y-234907142D02*
X409143761Y-234907142D01*
X409329476Y-235588095D02*
X408710428Y-235588095D01*
X408710428Y-234288095D01*
X409329476Y-234288095D01*
D10*
D11*
X409174714Y-284907142D02*
X408741380Y-284907142D01*
X408741380Y-285588095D02*
X408741380Y-284288095D01*
X409360428Y-284288095D01*
D10*
D11*
X323421142Y-280780771D02*
X323421142Y-279280771D01*
X323778285Y-279280771D01*
X323992571Y-279352200D01*
X324135428Y-279495057D01*
X324206857Y-279637914D01*
X324278285Y-279923628D01*
X324278285Y-280137914D01*
X324206857Y-280423628D01*
X324135428Y-280566485D01*
X323992571Y-280709342D01*
X323778285Y-280780771D01*
X323421142Y-280780771D01*
X325564000Y-280780771D02*
X325564000Y-279995057D01*
X325492571Y-279852200D01*
X325349714Y-279780771D01*
X325064000Y-279780771D01*
X324921142Y-279852200D01*
X325564000Y-280709342D02*
X325421142Y-280780771D01*
X325064000Y-280780771D01*
X324921142Y-280709342D01*
X324849714Y-280566485D01*
X324849714Y-280423628D01*
X324921142Y-280280771D01*
X325064000Y-280209342D01*
X325421142Y-280209342D01*
X325564000Y-280137914D01*
X326064000Y-279780771D02*
X326635428Y-279780771D01*
X326278285Y-279280771D02*
X326278285Y-280566485D01*
X326349714Y-280709342D01*
X326492571Y-280780771D01*
X326635428Y-280780771D01*
X327706857Y-280709342D02*
X327564000Y-280780771D01*
X327278285Y-280780771D01*
X327135428Y-280709342D01*
X327064000Y-280566485D01*
X327064000Y-279995057D01*
X327135428Y-279852200D01*
X327278285Y-279780771D01*
X327564000Y-279780771D01*
X327706857Y-279852200D01*
X327778285Y-279995057D01*
X327778285Y-280137914D01*
X327064000Y-280280771D01*
X328421142Y-280637914D02*
X328492571Y-280709342D01*
X328421142Y-280780771D01*
X328349714Y-280709342D01*
X328421142Y-280637914D01*
X328421142Y-280780771D01*
X328421142Y-279852200D02*
X328492571Y-279923628D01*
X328421142Y-279995057D01*
X328349714Y-279923628D01*
X328421142Y-279852200D01*
X328421142Y-279995057D01*
D10*
D11*
X299989000Y-281502200D02*
X407989000Y-281502200D01*
D10*
D11*
X301421142Y-283580771D02*
X301421142Y-282080771D01*
X302278285Y-283580771D02*
X301635428Y-282723628D01*
X302278285Y-282080771D02*
X301421142Y-282937914D01*
X302921142Y-283580771D02*
X302921142Y-282580771D01*
X302921142Y-282080771D02*
X302849714Y-282152200D01*
X302921142Y-282223628D01*
X302992571Y-282152200D01*
X302921142Y-282080771D01*
X302921142Y-282223628D01*
X304492571Y-283437914D02*
X304421142Y-283509342D01*
X304206857Y-283580771D01*
X304064000Y-283580771D01*
X303849714Y-283509342D01*
X303706857Y-283366485D01*
X303635428Y-283223628D01*
X303564000Y-282937914D01*
X303564000Y-282723628D01*
X303635428Y-282437914D01*
X303706857Y-282295057D01*
X303849714Y-282152200D01*
X304064000Y-282080771D01*
X304206857Y-282080771D01*
X304421142Y-282152200D01*
X304492571Y-282223628D01*
X305778285Y-283580771D02*
X305778285Y-282795057D01*
X305706857Y-282652200D01*
X305564000Y-282580771D01*
X305278285Y-282580771D01*
X305135428Y-282652200D01*
X305778285Y-283509342D02*
X305635428Y-283580771D01*
X305278285Y-283580771D01*
X305135428Y-283509342D01*
X305064000Y-283366485D01*
X305064000Y-283223628D01*
X305135428Y-283080771D01*
X305278285Y-283009342D01*
X305635428Y-283009342D01*
X305778285Y-282937914D01*
X307135428Y-283580771D02*
X307135428Y-282080771D01*
X307135428Y-283509342D02*
X306992571Y-283580771D01*
X306706857Y-283580771D01*
X306564000Y-283509342D01*
X306492571Y-283437914D01*
X306421142Y-283295057D01*
X306421142Y-282866485D01*
X306492571Y-282723628D01*
X306564000Y-282652200D01*
X306706857Y-282580771D01*
X306992571Y-282580771D01*
X307135428Y-282652200D01*
X308992571Y-282795057D02*
X309492571Y-282795057D01*
X309706857Y-283580771D02*
X308992571Y-283580771D01*
X308992571Y-282080771D01*
X309706857Y-282080771D01*
X310349714Y-283437914D02*
X310421142Y-283509342D01*
X310349714Y-283580771D01*
X310278285Y-283509342D01*
X310349714Y-283437914D01*
X310349714Y-283580771D01*
X311064000Y-283580771D02*
X311064000Y-282080771D01*
X311421142Y-282080771D01*
X311635428Y-282152200D01*
X311778285Y-282295057D01*
X311849714Y-282437914D01*
X311921142Y-282723628D01*
X311921142Y-282937914D01*
X311849714Y-283223628D01*
X311778285Y-283366485D01*
X311635428Y-283509342D01*
X311421142Y-283580771D01*
X311064000Y-283580771D01*
X312564000Y-283437914D02*
X312635428Y-283509342D01*
X312564000Y-283580771D01*
X312492571Y-283509342D01*
X312564000Y-283437914D01*
X312564000Y-283580771D01*
X313206857Y-283152200D02*
X313921142Y-283152200D01*
X313064000Y-283580771D02*
X313564000Y-282080771D01*
X314064000Y-283580771D01*
X314564000Y-283437914D02*
X314635428Y-283509342D01*
X314564000Y-283580771D01*
X314492571Y-283509342D01*
X314564000Y-283437914D01*
X314564000Y-283580771D01*
X317564000Y-283580771D02*
X317564000Y-282080771D01*
X317706857Y-283009342D02*
X318135428Y-283580771D01*
X318135428Y-282580771D02*
X317564000Y-283152200D01*
X318778285Y-283580771D02*
X318778285Y-282580771D01*
X318778285Y-282080771D02*
X318706857Y-282152200D01*
X318778285Y-282223628D01*
X318849714Y-282152200D01*
X318778285Y-282080771D01*
X318778285Y-282223628D01*
X320135428Y-283509342D02*
X319992571Y-283580771D01*
X319706857Y-283580771D01*
X319564000Y-283509342D01*
X319492571Y-283437914D01*
X319421142Y-283295057D01*
X319421142Y-282866485D01*
X319492571Y-282723628D01*
X319564000Y-282652200D01*
X319706857Y-282580771D01*
X319992571Y-282580771D01*
X320135428Y-282652200D01*
X321421142Y-283580771D02*
X321421142Y-282795057D01*
X321349714Y-282652200D01*
X321206857Y-282580771D01*
X320921142Y-282580771D01*
X320778285Y-282652200D01*
X321421142Y-283509342D02*
X321278285Y-283580771D01*
X320921142Y-283580771D01*
X320778285Y-283509342D01*
X320706857Y-283366485D01*
X320706857Y-283223628D01*
X320778285Y-283080771D01*
X320921142Y-283009342D01*
X321278285Y-283009342D01*
X321421142Y-282937914D01*
X322778285Y-283580771D02*
X322778285Y-282080771D01*
X322778285Y-283509342D02*
X322635428Y-283580771D01*
X322349714Y-283580771D01*
X322206857Y-283509342D01*
X322135428Y-283437914D01*
X322064000Y-283295057D01*
X322064000Y-282866485D01*
X322135428Y-282723628D01*
X322206857Y-282652200D01*
X322349714Y-282580771D01*
X322635428Y-282580771D01*
X322778285Y-282652200D01*
X325064000Y-284152200D02*
X324992571Y-284080771D01*
X324849714Y-283866485D01*
X324778285Y-283723628D01*
X324706857Y-283509342D01*
X324635428Y-283152200D01*
X324635428Y-282866485D01*
X324706857Y-282509342D01*
X324778285Y-282295057D01*
X324849714Y-282152200D01*
X324992571Y-281937914D01*
X325064000Y-281866485D01*
X326278285Y-282080771D02*
X325992571Y-282080771D01*
X325849714Y-282152200D01*
X325778285Y-282223628D01*
X325635428Y-282437914D01*
X325564000Y-282723628D01*
X325564000Y-283295057D01*
X325635428Y-283437914D01*
X325706857Y-283509342D01*
X325849714Y-283580771D01*
X326135428Y-283580771D01*
X326278285Y-283509342D01*
X326349714Y-283437914D01*
X326421142Y-283295057D01*
X326421142Y-282937914D01*
X326349714Y-282795057D01*
X326278285Y-282723628D01*
X326135428Y-282652200D01*
X325849714Y-282652200D01*
X325706857Y-282723628D01*
X325635428Y-282795057D01*
X325564000Y-282937914D01*
X327064000Y-283437914D02*
X327135428Y-283509342D01*
X327064000Y-283580771D01*
X326992571Y-283509342D01*
X327064000Y-283437914D01*
X327064000Y-283580771D01*
X328064000Y-282080771D02*
X328206857Y-282080771D01*
X328349714Y-282152200D01*
X328421142Y-282223628D01*
X328492571Y-282366485D01*
X328564000Y-282652200D01*
X328564000Y-283009342D01*
X328492571Y-283295057D01*
X328421142Y-283437914D01*
X328349714Y-283509342D01*
X328206857Y-283580771D01*
X328064000Y-283580771D01*
X327921142Y-283509342D01*
X327849714Y-283437914D01*
X327778285Y-283295057D01*
X327706857Y-283009342D01*
X327706857Y-282652200D01*
X327778285Y-282366485D01*
X327849714Y-282223628D01*
X327921142Y-282152200D01*
X328064000Y-282080771D01*
X329206857Y-283437914D02*
X329278285Y-283509342D01*
X329206857Y-283580771D01*
X329135428Y-283509342D01*
X329206857Y-283437914D01*
X329206857Y-283580771D01*
X329992571Y-283580771D02*
X330278285Y-283580771D01*
X330421142Y-283509342D01*
X330492571Y-283437914D01*
X330635428Y-283223628D01*
X330706857Y-282937914D01*
X330706857Y-282366485D01*
X330635428Y-282223628D01*
X330564000Y-282152200D01*
X330421142Y-282080771D01*
X330135428Y-282080771D01*
X329992571Y-282152200D01*
X329921142Y-282223628D01*
X329849714Y-282366485D01*
X329849714Y-282723628D01*
X329921142Y-282866485D01*
X329992571Y-282937914D01*
X330135428Y-283009342D01*
X330421142Y-283009342D01*
X330564000Y-282937914D01*
X330635428Y-282866485D01*
X330706857Y-282723628D01*
X331206857Y-284152200D02*
X331278285Y-284080771D01*
X331421142Y-283866485D01*
X331492571Y-283723628D01*
X331564000Y-283509342D01*
X331635428Y-283152200D01*
X331635428Y-282866485D01*
X331564000Y-282509342D01*
X331492571Y-282295057D01*
X331421142Y-282152200D01*
X331278285Y-281937914D01*
X331206857Y-281866485D01*
D10*
D11*
X299989000Y-278502200D02*
X407989000Y-278502200D01*
D10*
D12*
X387398285Y-280780771D02*
X386898285Y-280066485D01*
X386541142Y-280780771D02*
X386541142Y-279280771D01*
X387112571Y-279280771D01*
X387255428Y-279352200D01*
X387326857Y-279423628D01*
X387398285Y-279566485D01*
X387398285Y-279780771D01*
X387326857Y-279923628D01*
X387255428Y-279995057D01*
X387112571Y-280066485D01*
X386541142Y-280066485D01*
X388612571Y-280709342D02*
X388469714Y-280780771D01*
X388184000Y-280780771D01*
X388041142Y-280709342D01*
X387969714Y-280566485D01*
X387969714Y-279995057D01*
X388041142Y-279852200D01*
X388184000Y-279780771D01*
X388469714Y-279780771D01*
X388612571Y-279852200D01*
X388684000Y-279995057D01*
X388684000Y-280137914D01*
X387969714Y-280280771D01*
X389184000Y-279780771D02*
X389541142Y-280780771D01*
X389898285Y-279780771D01*
X390469714Y-280637914D02*
X390541142Y-280709342D01*
X390469714Y-280780771D01*
X390398285Y-280709342D01*
X390469714Y-280637914D01*
X390469714Y-280780771D01*
X390469714Y-279852200D02*
X390541142Y-279923628D01*
X390469714Y-279995057D01*
X390398285Y-279923628D01*
X390469714Y-279852200D01*
X390469714Y-279995057D01*
D10*
D11*
X301349714Y-280709342D02*
X301564000Y-280780771D01*
X301921142Y-280780771D01*
X302064000Y-280709342D01*
X302135428Y-280637914D01*
X302206857Y-280495057D01*
X302206857Y-280352200D01*
X302135428Y-280209342D01*
X302064000Y-280137914D01*
X301921142Y-280066485D01*
X301635428Y-279995057D01*
X301492571Y-279923628D01*
X301421142Y-279852200D01*
X301349714Y-279709342D01*
X301349714Y-279566485D01*
X301421142Y-279423628D01*
X301492571Y-279352200D01*
X301635428Y-279280771D01*
X301992571Y-279280771D01*
X302206857Y-279352200D01*
X302849714Y-280780771D02*
X302849714Y-279780771D01*
X302849714Y-279280771D02*
X302778285Y-279352200D01*
X302849714Y-279423628D01*
X302921142Y-279352200D01*
X302849714Y-279280771D01*
X302849714Y-279423628D01*
X303421142Y-279780771D02*
X304206857Y-279780771D01*
X303421142Y-280780771D01*
X304206857Y-280780771D01*
X305349714Y-280709342D02*
X305206857Y-280780771D01*
X304921142Y-280780771D01*
X304778285Y-280709342D01*
X304706857Y-280566485D01*
X304706857Y-279995057D01*
X304778285Y-279852200D01*
X304921142Y-279780771D01*
X305206857Y-279780771D01*
X305349714Y-279852200D01*
X305421142Y-279995057D01*
X305421142Y-280137914D01*
X304706857Y-280280771D01*
X306064000Y-280637914D02*
X306135428Y-280709342D01*
X306064000Y-280780771D01*
X305992571Y-280709342D01*
X306064000Y-280637914D01*
X306064000Y-280780771D01*
X306064000Y-279852200D02*
X306135428Y-279923628D01*
X306064000Y-279995057D01*
X305992571Y-279923628D01*
X306064000Y-279852200D01*
X306064000Y-279995057D01*
X307849714Y-280352200D02*
X308564000Y-280352200D01*
X307706857Y-280780771D02*
X308206857Y-279280771D01*
X308706857Y-280780771D01*
X309064000Y-279280771D02*
X309992571Y-279280771D01*
X309492571Y-279852200D01*
X309706857Y-279852200D01*
X309849714Y-279923628D01*
X309921142Y-279995057D01*
X309992571Y-280137914D01*
X309992571Y-280495057D01*
X309921142Y-280637914D01*
X309849714Y-280709342D01*
X309706857Y-280780771D01*
X309278285Y-280780771D01*
X309135428Y-280709342D01*
X309064000Y-280637914D01*
D10*
D11*
X386421142Y-283580771D02*
X386421142Y-282080771D01*
X387778285Y-283580771D02*
X387778285Y-282080771D01*
X387778285Y-283509342D02*
X387635428Y-283580771D01*
X387349714Y-283580771D01*
X387206857Y-283509342D01*
X387135428Y-283437914D01*
X387064000Y-283295057D01*
X387064000Y-282866485D01*
X387135428Y-282723628D01*
X387206857Y-282652200D01*
X387349714Y-282580771D01*
X387635428Y-282580771D01*
X387778285Y-282652200D01*
X388492571Y-283437914D02*
X388564000Y-283509342D01*
X388492571Y-283580771D01*
X388421142Y-283509342D01*
X388492571Y-283437914D01*
X388492571Y-283580771D01*
X388492571Y-282652200D02*
X388564000Y-282723628D01*
X388492571Y-282795057D01*
X388421142Y-282723628D01*
X388492571Y-282652200D01*
X388492571Y-282795057D01*
X391135428Y-283580771D02*
X390278285Y-283580771D01*
X390706857Y-283580771D02*
X390706857Y-282080771D01*
X390564000Y-282295057D01*
X390421142Y-282437914D01*
X390278285Y-282509342D01*
X392849714Y-282009342D02*
X391564000Y-283937914D01*
X394135428Y-283580771D02*
X393278285Y-283580771D01*
X393706857Y-283580771D02*
X393706857Y-282080771D01*
X393564000Y-282295057D01*
X393421142Y-282437914D01*
X393278285Y-282509342D01*
D10*
D11*
X299989000Y-274502200D02*
X407989000Y-274502200D01*
D10*
D13*
X301701380Y-275206961D02*
X302844238Y-275206961D01*
X302022809Y-277206961D02*
X302272809Y-275206961D01*
X303260904Y-277206961D02*
X303427571Y-275873628D01*
X303510904Y-275206961D02*
X303403761Y-275302200D01*
X303487095Y-275397438D01*
X303594238Y-275302200D01*
X303510904Y-275206961D01*
X303487095Y-275397438D01*
X304094238Y-275873628D02*
X304856142Y-275873628D01*
X304463285Y-275206961D02*
X304249000Y-276921247D01*
X304320428Y-277111723D01*
X304499000Y-277206961D01*
X304689476Y-277206961D01*
X305641857Y-277206961D02*
X305463285Y-277111723D01*
X305391857Y-276921247D01*
X305606142Y-275206961D01*
X307177571Y-277111723D02*
X306975190Y-277206961D01*
X306594238Y-277206961D01*
X306415666Y-277111723D01*
X306344238Y-276921247D01*
X306439476Y-276159342D01*
X306558523Y-275968866D01*
X306760904Y-275873628D01*
X307141857Y-275873628D01*
X307320428Y-275968866D01*
X307391857Y-276159342D01*
X307368047Y-276349819D01*
X306391857Y-276540295D01*
X308141857Y-277016485D02*
X308225190Y-277111723D01*
X308118047Y-277206961D01*
X308034714Y-277111723D01*
X308141857Y-277016485D01*
X308118047Y-277206961D01*
X308272809Y-275968866D02*
X308356142Y-276064104D01*
X308249000Y-276159342D01*
X308165666Y-276064104D01*
X308272809Y-275968866D01*
X308249000Y-276159342D01*
D10*
D11*
X301921142Y-272595057D02*
X301421142Y-272595057D01*
X301421142Y-273380771D02*
X301421142Y-271880771D01*
X302135428Y-271880771D01*
X302706857Y-273380771D02*
X302706857Y-272380771D01*
X302706857Y-271880771D02*
X302635428Y-271952200D01*
X302706857Y-272023628D01*
X302778285Y-271952200D01*
X302706857Y-271880771D01*
X302706857Y-272023628D01*
X303635428Y-273380771D02*
X303492571Y-273309342D01*
X303421142Y-273166485D01*
X303421142Y-271880771D01*
X304778285Y-273309342D02*
X304635428Y-273380771D01*
X304349714Y-273380771D01*
X304206857Y-273309342D01*
X304135428Y-273166485D01*
X304135428Y-272595057D01*
X304206857Y-272452200D01*
X304349714Y-272380771D01*
X304635428Y-272380771D01*
X304778285Y-272452200D01*
X304849714Y-272595057D01*
X304849714Y-272737914D01*
X304135428Y-272880771D01*
X305492571Y-273237914D02*
X305564000Y-273309342D01*
X305492571Y-273380771D01*
X305421142Y-273309342D01*
X305492571Y-273237914D01*
X305492571Y-273380771D01*
X305492571Y-272452200D02*
X305564000Y-272523628D01*
X305492571Y-272595057D01*
X305421142Y-272523628D01*
X305492571Y-272452200D01*
X305492571Y-272595057D01*
X307206857Y-271880771D02*
X307564000Y-273380771D01*
X307849714Y-272309342D01*
X308135428Y-273380771D01*
X308492571Y-271880771D01*
X309635428Y-273309342D02*
X309492571Y-273380771D01*
X309206857Y-273380771D01*
X309064000Y-273309342D01*
X308992571Y-273166485D01*
X308992571Y-272595057D01*
X309064000Y-272452200D01*
X309206857Y-272380771D01*
X309492571Y-272380771D01*
X309635428Y-272452200D01*
X309706857Y-272595057D01*
X309706857Y-272737914D01*
X308992571Y-272880771D01*
X310992571Y-273380771D02*
X310992571Y-272595057D01*
X310921142Y-272452200D01*
X310778285Y-272380771D01*
X310492571Y-272380771D01*
X310349714Y-272452200D01*
X310992571Y-273309342D02*
X310849714Y-273380771D01*
X310492571Y-273380771D01*
X310349714Y-273309342D01*
X310278285Y-273166485D01*
X310278285Y-273023628D01*
X310349714Y-272880771D01*
X310492571Y-272809342D01*
X310849714Y-272809342D01*
X310992571Y-272737914D01*
X311492571Y-272380771D02*
X312064000Y-272380771D01*
X311706857Y-271880771D02*
X311706857Y-273166485D01*
X311778285Y-273309342D01*
X311921142Y-273380771D01*
X312064000Y-273380771D01*
X312564000Y-273380771D02*
X312564000Y-271880771D01*
X313206857Y-273380771D02*
X313206857Y-272595057D01*
X313135428Y-272452200D01*
X312992571Y-272380771D01*
X312778285Y-272380771D01*
X312635428Y-272452200D01*
X312564000Y-272523628D01*
X314492571Y-273309342D02*
X314349714Y-273380771D01*
X314064000Y-273380771D01*
X313921142Y-273309342D01*
X313849714Y-273166485D01*
X313849714Y-272595057D01*
X313921142Y-272452200D01*
X314064000Y-272380771D01*
X314349714Y-272380771D01*
X314492571Y-272452200D01*
X314564000Y-272595057D01*
X314564000Y-272737914D01*
X313849714Y-272880771D01*
X315206857Y-273380771D02*
X315206857Y-272380771D01*
X315206857Y-272666485D02*
X315278285Y-272523628D01*
X315349714Y-272452200D01*
X315492571Y-272380771D01*
X315635428Y-272380771D01*
X316135428Y-273380771D02*
X316135428Y-271880771D01*
X316992571Y-273380771D02*
X316349714Y-272523628D01*
X316992571Y-271880771D02*
X316135428Y-272737914D01*
X317635428Y-273380771D02*
X317635428Y-272380771D01*
X317635428Y-271880771D02*
X317564000Y-271952200D01*
X317635428Y-272023628D01*
X317706857Y-271952200D01*
X317635428Y-271880771D01*
X317635428Y-272023628D01*
X318992571Y-273380771D02*
X318992571Y-271880771D01*
X318992571Y-273309342D02*
X318849714Y-273380771D01*
X318564000Y-273380771D01*
X318421142Y-273309342D01*
X318349714Y-273237914D01*
X318278285Y-273095057D01*
X318278285Y-272666485D01*
X318349714Y-272523628D01*
X318421142Y-272452200D01*
X318564000Y-272380771D01*
X318849714Y-272380771D01*
X318992571Y-272452200D01*
X319635428Y-273309342D02*
X319778285Y-273380771D01*
X320064000Y-273380771D01*
X320206857Y-273309342D01*
X320278285Y-273166485D01*
X320278285Y-273095057D01*
X320206857Y-272952200D01*
X320064000Y-272880771D01*
X319849714Y-272880771D01*
X319706857Y-272809342D01*
X319635428Y-272666485D01*
X319635428Y-272595057D01*
X319706857Y-272452200D01*
X319849714Y-272380771D01*
X320064000Y-272380771D01*
X320206857Y-272452200D01*
X320564000Y-273523628D02*
X321706857Y-273523628D01*
X322921142Y-273237914D02*
X322849714Y-273309342D01*
X322635428Y-273380771D01*
X322492571Y-273380771D01*
X322278285Y-273309342D01*
X322135428Y-273166485D01*
X322064000Y-273023628D01*
X321992571Y-272737914D01*
X321992571Y-272523628D01*
X322064000Y-272237914D01*
X322135428Y-272095057D01*
X322278285Y-271952200D01*
X322492571Y-271880771D01*
X322635428Y-271880771D01*
X322849714Y-271952200D01*
X322921142Y-272023628D01*
X323778285Y-273380771D02*
X323635428Y-273309342D01*
X323564000Y-273237914D01*
X323492571Y-273095057D01*
X323492571Y-272666485D01*
X323564000Y-272523628D01*
X323635428Y-272452200D01*
X323778285Y-272380771D01*
X323992571Y-272380771D01*
X324135428Y-272452200D01*
X324206857Y-272523628D01*
X324278285Y-272666485D01*
X324278285Y-273095057D01*
X324206857Y-273237914D01*
X324135428Y-273309342D01*
X323992571Y-273380771D01*
X323778285Y-273380771D01*
X324921142Y-273380771D02*
X324921142Y-272380771D01*
X324921142Y-272523628D02*
X324992571Y-272452200D01*
X325135428Y-272380771D01*
X325349714Y-272380771D01*
X325492571Y-272452200D01*
X325564000Y-272595057D01*
X325564000Y-273380771D01*
X325564000Y-272595057D02*
X325635428Y-272452200D01*
X325778285Y-272380771D01*
X325992571Y-272380771D01*
X326135428Y-272452200D01*
X326206857Y-272595057D01*
X326206857Y-273380771D01*
X326921142Y-272380771D02*
X326921142Y-273880771D01*
X326921142Y-272452200D02*
X327064000Y-272380771D01*
X327349714Y-272380771D01*
X327492571Y-272452200D01*
X327564000Y-272523628D01*
X327635428Y-272666485D01*
X327635428Y-273095057D01*
X327564000Y-273237914D01*
X327492571Y-273309342D01*
X327349714Y-273380771D01*
X327064000Y-273380771D01*
X326921142Y-273309342D01*
X328921142Y-273380771D02*
X328921142Y-272595057D01*
X328849714Y-272452200D01*
X328706857Y-272380771D01*
X328421142Y-272380771D01*
X328278285Y-272452200D01*
X328921142Y-273309342D02*
X328778285Y-273380771D01*
X328421142Y-273380771D01*
X328278285Y-273309342D01*
X328206857Y-273166485D01*
X328206857Y-273023628D01*
X328278285Y-272880771D01*
X328421142Y-272809342D01*
X328778285Y-272809342D01*
X328921142Y-272737914D01*
X330278285Y-273309342D02*
X330135428Y-273380771D01*
X329849714Y-273380771D01*
X329706857Y-273309342D01*
X329635428Y-273237914D01*
X329564000Y-273095057D01*
X329564000Y-272666485D01*
X329635428Y-272523628D01*
X329706857Y-272452200D01*
X329849714Y-272380771D01*
X330135428Y-272380771D01*
X330278285Y-272452200D01*
X330706857Y-272380771D02*
X331278285Y-272380771D01*
X330921142Y-271880771D02*
X330921142Y-273166485D01*
X330992571Y-273309342D01*
X331135428Y-273380771D01*
X331278285Y-273380771D01*
X332206857Y-273952200D02*
X332135428Y-273880771D01*
X331992571Y-273666485D01*
X331921142Y-273523628D01*
X331849714Y-273309342D01*
X331778285Y-272952200D01*
X331778285Y-272666485D01*
X331849714Y-272309342D01*
X331921142Y-272095057D01*
X331992571Y-271952200D01*
X332135428Y-271737914D01*
X332206857Y-271666485D01*
X332564000Y-271880771D02*
X333064000Y-273380771D01*
X333564000Y-271880771D01*
X333992571Y-272023628D02*
X334064000Y-271952200D01*
X334206857Y-271880771D01*
X334564000Y-271880771D01*
X334706857Y-271952200D01*
X334778285Y-272023628D01*
X334849714Y-272166485D01*
X334849714Y-272309342D01*
X334778285Y-272523628D01*
X333921142Y-273380771D01*
X334849714Y-273380771D01*
X335492571Y-273237914D02*
X335564000Y-273309342D01*
X335492571Y-273380771D01*
X335421142Y-273309342D01*
X335492571Y-273237914D01*
X335492571Y-273380771D01*
X336992571Y-273380771D02*
X336135428Y-273380771D01*
X336564000Y-273380771D02*
X336564000Y-271880771D01*
X336421142Y-272095057D01*
X336278285Y-272237914D01*
X336135428Y-272309342D01*
X337492571Y-273952200D02*
X337564000Y-273880771D01*
X337706857Y-273666485D01*
X337778285Y-273523628D01*
X337849714Y-273309342D01*
X337921142Y-272952200D01*
X337921142Y-272666485D01*
X337849714Y-272309342D01*
X337778285Y-272095057D01*
X337706857Y-271952200D01*
X337564000Y-271737914D01*
X337492571Y-271666485D01*
X338635428Y-273237914D02*
X338706857Y-273309342D01*
X338635428Y-273380771D01*
X338564000Y-273309342D01*
X338635428Y-273237914D01*
X338635428Y-273380771D01*
X339349714Y-273380771D02*
X339349714Y-271880771D01*
X339492571Y-272809342D02*
X339921142Y-273380771D01*
X339921142Y-272380771D02*
X339349714Y-272952200D01*
X340564000Y-273380771D02*
X340564000Y-272380771D01*
X340564000Y-271880771D02*
X340492571Y-271952200D01*
X340564000Y-272023628D01*
X340635428Y-271952200D01*
X340564000Y-271880771D01*
X340564000Y-272023628D01*
X341921142Y-273309342D02*
X341778285Y-273380771D01*
X341492571Y-273380771D01*
X341349714Y-273309342D01*
X341278285Y-273237914D01*
X341206857Y-273095057D01*
X341206857Y-272666485D01*
X341278285Y-272523628D01*
X341349714Y-272452200D01*
X341492571Y-272380771D01*
X341778285Y-272380771D01*
X341921142Y-272452200D01*
X343206857Y-273380771D02*
X343206857Y-272595057D01*
X343135428Y-272452200D01*
X342992571Y-272380771D01*
X342706857Y-272380771D01*
X342564000Y-272452200D01*
X343206857Y-273309342D02*
X343064000Y-273380771D01*
X342706857Y-273380771D01*
X342564000Y-273309342D01*
X342492571Y-273166485D01*
X342492571Y-273023628D01*
X342564000Y-272880771D01*
X342706857Y-272809342D01*
X343064000Y-272809342D01*
X343206857Y-272737914D01*
X344564000Y-273380771D02*
X344564000Y-271880771D01*
X344564000Y-273309342D02*
X344421142Y-273380771D01*
X344135428Y-273380771D01*
X343992571Y-273309342D01*
X343921142Y-273237914D01*
X343849714Y-273095057D01*
X343849714Y-272666485D01*
X343921142Y-272523628D01*
X343992571Y-272452200D01*
X344135428Y-272380771D01*
X344421142Y-272380771D01*
X344564000Y-272452200D01*
X344921142Y-273523628D02*
X346064000Y-273523628D01*
X346421142Y-272380771D02*
X346421142Y-273880771D01*
X346421142Y-272452200D02*
X346564000Y-272380771D01*
X346849714Y-272380771D01*
X346992571Y-272452200D01*
X347064000Y-272523628D01*
X347135428Y-272666485D01*
X347135428Y-273095057D01*
X347064000Y-273237914D01*
X346992571Y-273309342D01*
X346849714Y-273380771D01*
X346564000Y-273380771D01*
X346421142Y-273309342D01*
X348421142Y-273309342D02*
X348278285Y-273380771D01*
X347992571Y-273380771D01*
X347849714Y-273309342D01*
X347778285Y-273237914D01*
X347706857Y-273095057D01*
X347706857Y-272666485D01*
X347778285Y-272523628D01*
X347849714Y-272452200D01*
X347992571Y-272380771D01*
X348278285Y-272380771D01*
X348421142Y-272452200D01*
X349064000Y-273380771D02*
X349064000Y-271880771D01*
X349064000Y-272452200D02*
X349206857Y-272380771D01*
X349492571Y-272380771D01*
X349635428Y-272452200D01*
X349706857Y-272523628D01*
X349778285Y-272666485D01*
X349778285Y-273095057D01*
X349706857Y-273237914D01*
X349635428Y-273309342D01*
X349492571Y-273380771D01*
X349206857Y-273380771D01*
X349064000Y-273309342D01*
D10*
D11*
X299989000Y-268502200D02*
X407989000Y-268502200D01*
D10*
D11*
X301349714Y-270609342D02*
X301564000Y-270680771D01*
X301921142Y-270680771D01*
X302064000Y-270609342D01*
X302135428Y-270537914D01*
X302206857Y-270395057D01*
X302206857Y-270252200D01*
X302135428Y-270109342D01*
X302064000Y-270037914D01*
X301921142Y-269966485D01*
X301635428Y-269895057D01*
X301492571Y-269823628D01*
X301421142Y-269752200D01*
X301349714Y-269609342D01*
X301349714Y-269466485D01*
X301421142Y-269323628D01*
X301492571Y-269252200D01*
X301635428Y-269180771D01*
X301992571Y-269180771D01*
X302206857Y-269252200D01*
X302849714Y-270680771D02*
X302849714Y-269180771D01*
X303492571Y-270680771D02*
X303492571Y-269895057D01*
X303421142Y-269752200D01*
X303278285Y-269680771D01*
X303064000Y-269680771D01*
X302921142Y-269752200D01*
X302849714Y-269823628D01*
X304778285Y-270609342D02*
X304635428Y-270680771D01*
X304349714Y-270680771D01*
X304206857Y-270609342D01*
X304135428Y-270466485D01*
X304135428Y-269895057D01*
X304206857Y-269752200D01*
X304349714Y-269680771D01*
X304635428Y-269680771D01*
X304778285Y-269752200D01*
X304849714Y-269895057D01*
X304849714Y-270037914D01*
X304135428Y-270180771D01*
X306064000Y-270609342D02*
X305921142Y-270680771D01*
X305635428Y-270680771D01*
X305492571Y-270609342D01*
X305421142Y-270466485D01*
X305421142Y-269895057D01*
X305492571Y-269752200D01*
X305635428Y-269680771D01*
X305921142Y-269680771D01*
X306064000Y-269752200D01*
X306135428Y-269895057D01*
X306135428Y-270037914D01*
X305421142Y-270180771D01*
X306564000Y-269680771D02*
X307135428Y-269680771D01*
X306778285Y-269180771D02*
X306778285Y-270466485D01*
X306849714Y-270609342D01*
X306992571Y-270680771D01*
X307135428Y-270680771D01*
X307635428Y-270537914D02*
X307706857Y-270609342D01*
X307635428Y-270680771D01*
X307564000Y-270609342D01*
X307635428Y-270537914D01*
X307635428Y-270680771D01*
X307635428Y-269752200D02*
X307706857Y-269823628D01*
X307635428Y-269895057D01*
X307564000Y-269823628D01*
X307635428Y-269752200D01*
X307635428Y-269895057D01*
D10*
D12*
D10*
D11*
D10*
D11*
D10*
D11*
D10*
D11*
D10*
D11*
X319989000Y-278502200D02*
X319989000Y-281502200D01*
D10*
D11*
X383989000Y-278502200D02*
X383989000Y-285002200D01*
D14*
X21000000Y-92000000D02*
X74000000Y-92000000D01*
X25351225Y-46600000D02*
G75*
G03*
X25351225Y-48600000I50025J-1000000D01*
G01*
X30200000Y-27451225D02*
G75*
G03*
X28200000Y-27451225I-1000000J-50025D01*
G01*
X74000000Y-92000000D02*
X74000000Y-22000000D01*
X30200000Y-27451225D02*
X30200000Y-46600000D01*
X28200000Y-45600000D02*
X28200000Y-27451225D01*
X27100000Y-46600000D02*
G75*
G03*
X28200000Y-45600000I50000J1050000D01*
G01*
X21000000Y-22000000D02*
X21000000Y-92000000D01*
X74000000Y-22000000D02*
X21000000Y-22000000D01*
X28100000Y-48600000D02*
G75*
G03*
X30200000Y-46600000I50000J2050000D01*
G01*
X25351225Y-48600000D02*
X28100000Y-48600000D01*
X25351225Y-46600000D02*
X27100000Y-46600000D01*
D15*
%TO.C,U4*%
X56987500Y-68650000D03*
X56987500Y-67700000D03*
X56987500Y-66750000D03*
X54712500Y-66750000D03*
X54712500Y-68650000D03*
%TD*%
D16*
%TO.C,R7*%
X57310000Y-71000000D03*
X56290000Y-71000000D03*
%TD*%
D17*
%TO.C,C6*%
X54700000Y-52050000D03*
X54700000Y-50150000D03*
%TD*%
D15*
%TO.C,U11*%
X45937500Y-75450000D03*
X45937500Y-74500000D03*
X45937500Y-73550000D03*
X43662500Y-73550000D03*
X43662500Y-75450000D03*
%TD*%
D18*
%TO.C,R24*%
X59480000Y-28990000D03*
X59480000Y-30010000D03*
%TD*%
D16*
%TO.C,R21*%
X40572500Y-70040000D03*
X39552500Y-70040000D03*
%TD*%
D19*
%TO.C,R11*%
X48350000Y-49820000D03*
X48350000Y-48800000D03*
%TD*%
D20*
%TO.C,C25*%
X64670000Y-40650000D03*
X65630000Y-40650000D03*
%TD*%
D21*
%TO.C,SW3*%
X65575000Y-42800000D03*
X65575000Y-48800000D03*
X61825000Y-42800000D03*
X61825000Y-48800000D03*
%TD*%
D22*
%TO.C,H2*%
X71000000Y-25000000D03*
%TD*%
D16*
%TO.C,R2*%
X44820000Y-78900000D03*
X43800000Y-78900000D03*
%TD*%
D17*
%TO.C,C9*%
X54750000Y-65100000D03*
X54750000Y-63200000D03*
%TD*%
D23*
%TO.C,R8*%
X56290000Y-72050000D03*
X57310000Y-72050000D03*
%TD*%
D24*
%TO.C,D4*%
X57550000Y-56440000D03*
X57550000Y-52440000D03*
%TD*%
D25*
%TO.C,L2*%
X59112500Y-66700000D03*
X59112500Y-68700000D03*
%TD*%
D26*
%TO.C,R1*%
X65612500Y-61350000D03*
X63962500Y-61350000D03*
%TD*%
D27*
%TO.C,U15*%
X61980000Y-35300000D03*
X61980000Y-34800000D03*
X61980000Y-34300000D03*
X61980000Y-33800000D03*
X61980000Y-33300000D03*
X61980000Y-32800000D03*
X61980000Y-32300000D03*
D28*
X61030000Y-31350000D03*
X60530000Y-31350000D03*
X60030000Y-31350000D03*
X59530000Y-31350000D03*
X59030000Y-31350000D03*
X58530000Y-31350000D03*
X58030000Y-31350000D03*
D27*
X57080000Y-32300000D03*
X57080000Y-32800000D03*
X57080000Y-33300000D03*
X57080000Y-33800000D03*
X57080000Y-34300000D03*
X57080000Y-34800000D03*
X57080000Y-35300000D03*
D28*
X58030000Y-36250000D03*
X58530000Y-36250000D03*
X59030000Y-36250000D03*
X59530000Y-36250000D03*
X60030000Y-36250000D03*
X60530000Y-36250000D03*
X61030000Y-36250000D03*
D29*
X59530000Y-33800000D03*
%TD*%
D16*
%TO.C,R14*%
X25100000Y-40700000D03*
X24080000Y-40700000D03*
%TD*%
D30*
%TO.C,D7*%
X35187500Y-60000000D03*
X35187500Y-58100000D03*
X33312500Y-59050000D03*
%TD*%
D31*
%TO.C,D3*%
X57450000Y-59940000D03*
X61450000Y-59940000D03*
%TD*%
D32*
%TO.C,C2*%
X63512500Y-66800000D03*
X65412500Y-66800000D03*
%TD*%
D33*
%TO.C,D2*%
X42462500Y-81150000D03*
X44337500Y-81150000D03*
%TD*%
D34*
%TO.C,C3*%
X66862500Y-77060000D03*
X64962500Y-77060000D03*
%TD*%
D35*
%TO.C,C16*%
X27300000Y-41820000D03*
X27300000Y-42780000D03*
%TD*%
D36*
%TO.C,U7*%
X38255000Y-56505000D03*
X38255000Y-55235000D03*
X38255000Y-53965000D03*
X38255000Y-52695000D03*
X33305000Y-52695000D03*
X33305000Y-53965000D03*
X33305000Y-55235000D03*
X33305000Y-56505000D03*
%TD*%
D37*
%TO.C,J2*%
X72500000Y-85305000D03*
D38*
X72500000Y-81495000D03*
%TD*%
D39*
%TO.C,C20*%
X57962500Y-76900000D03*
X61037500Y-76900000D03*
%TD*%
D40*
%TO.C,U1*%
X63062500Y-62950000D03*
X63062500Y-63900000D03*
X63062500Y-64850000D03*
X65337500Y-64850000D03*
X65337500Y-63900000D03*
X65337500Y-62950000D03*
%TD*%
D41*
%TO.C,SW1*%
X71725000Y-59550000D03*
X69725000Y-59550000D03*
X71725000Y-65650000D03*
X69725000Y-65650000D03*
X68725000Y-61600000D03*
X68725000Y-63600000D03*
%TD*%
D42*
%TO.C,C26*%
X59980000Y-41500000D03*
X59020000Y-41500000D03*
%TD*%
D43*
%TO.C,U9*%
X44634100Y-71990001D03*
X44634100Y-71490000D03*
X44634100Y-70990000D03*
X44634100Y-70489999D03*
X41890900Y-70489999D03*
X41890900Y-70990000D03*
X41890900Y-71490000D03*
X41890900Y-71990001D03*
%TD*%
D44*
%TO.C,J11*%
X69230000Y-31410000D03*
X69230000Y-37190000D03*
D45*
X67785000Y-37550000D03*
X67785000Y-36750000D03*
D46*
X67785000Y-35550000D03*
X67785000Y-34550000D03*
X67785000Y-34050000D03*
X67785000Y-33050000D03*
D45*
X67785000Y-31850000D03*
X67785000Y-31050000D03*
X67785000Y-31050000D03*
X67785000Y-31850000D03*
D46*
X67785000Y-32550000D03*
X67785000Y-33550000D03*
X67785000Y-35050000D03*
X67785000Y-36050000D03*
D45*
X67785000Y-36750000D03*
X67785000Y-37550000D03*
D47*
X72880000Y-38620000D03*
D48*
X68700000Y-29980000D03*
D47*
X72880000Y-29980000D03*
D48*
X68700000Y-38620000D03*
%TD*%
D49*
%TO.C,D1*%
X49237500Y-81200000D03*
X47362500Y-81200000D03*
%TD*%
D42*
%TO.C,C18*%
X33600000Y-37100000D03*
X32640000Y-37100000D03*
%TD*%
D50*
%TO.C,J6*%
X25350000Y-52400000D03*
D51*
X25350000Y-54400000D03*
X25350000Y-56400000D03*
X25350000Y-58400000D03*
X25350000Y-60400000D03*
%TD*%
D21*
%TO.C,SW2*%
X71775000Y-42800000D03*
X71775000Y-48800000D03*
X68025000Y-42800000D03*
X68025000Y-48800000D03*
%TD*%
D19*
%TO.C,R4*%
X52050000Y-52360000D03*
X52050000Y-51340000D03*
%TD*%
%TO.C,R10*%
X39450000Y-49910000D03*
X39450000Y-48890000D03*
%TD*%
D52*
%TO.C,U5*%
X23660000Y-35800000D03*
X26200000Y-35800000D03*
X26200000Y-33100000D03*
X23660000Y-33100000D03*
%TD*%
D22*
%TO.C,J10*%
X63800000Y-89490000D03*
X35200000Y-89490000D03*
D53*
X59000000Y-88800000D03*
X58000000Y-88800000D03*
X57000000Y-88800000D03*
X56000000Y-88800000D03*
X55000000Y-88800000D03*
X54000000Y-88800000D03*
X53000000Y-88800000D03*
X52000000Y-88800000D03*
X51000000Y-88800000D03*
X50000000Y-88800000D03*
X49000000Y-88800000D03*
X46000000Y-88800000D03*
X45000000Y-88800000D03*
X44000000Y-88800000D03*
X43000000Y-88800000D03*
X42000000Y-88800000D03*
X41000000Y-88800000D03*
X40000000Y-88800000D03*
%TD*%
D23*
%TO.C,R12*%
X22090000Y-38400000D03*
X23110000Y-38400000D03*
%TD*%
D19*
%TO.C,R25*%
X62290000Y-38510000D03*
X62290000Y-37490000D03*
%TD*%
D42*
%TO.C,C11*%
X57280000Y-70000000D03*
X56320000Y-70000000D03*
%TD*%
D18*
%TO.C,R17*%
X45762500Y-60530000D03*
X45762500Y-61550000D03*
%TD*%
D54*
%TO.C,Q1*%
X60940000Y-38062500D03*
X59040000Y-38062500D03*
X59990000Y-39937500D03*
%TD*%
D23*
%TO.C,R9*%
X32490000Y-46000000D03*
X33510000Y-46000000D03*
%TD*%
D55*
%TO.C,U3*%
X35150000Y-29495000D03*
X35150000Y-30765000D03*
X35150000Y-32035000D03*
X35150000Y-33305000D03*
X35150000Y-34575000D03*
X35150000Y-35845000D03*
X35150000Y-37115000D03*
X35150000Y-38385000D03*
X35150000Y-39655000D03*
X35150000Y-40925000D03*
X35150000Y-42195000D03*
X35150000Y-43465000D03*
X35150000Y-44735000D03*
X35150000Y-46005000D03*
D56*
X38190000Y-47255000D03*
X39460000Y-47255000D03*
X40730000Y-47255000D03*
X42000000Y-47255000D03*
X43270000Y-47255000D03*
X44540000Y-47255000D03*
X45810000Y-47255000D03*
X47080000Y-47255000D03*
X48350000Y-47255000D03*
X49620000Y-47255000D03*
D55*
X52650000Y-46005000D03*
X52650000Y-44735000D03*
X52650000Y-43465000D03*
X52650000Y-42195000D03*
X52650000Y-40925000D03*
X52650000Y-39655000D03*
X52650000Y-38385000D03*
X52650000Y-37115000D03*
X52650000Y-35845000D03*
X52650000Y-34575000D03*
X52650000Y-33305000D03*
X52650000Y-32035000D03*
X52650000Y-30765000D03*
X52650000Y-29495000D03*
D57*
X43982500Y-35310000D03*
D58*
X43220000Y-36835000D03*
D57*
X42457500Y-38360000D03*
X43982500Y-38360000D03*
X43220000Y-37597500D03*
X41695000Y-36072500D03*
X43982500Y-36835000D03*
X44745000Y-37597500D03*
X42457500Y-35310000D03*
X41695000Y-37597500D03*
X43220000Y-36072500D03*
X42457500Y-36835000D03*
X44745000Y-36072500D03*
%TD*%
D19*
%TO.C,R22*%
X37700000Y-68420000D03*
X37700000Y-67400000D03*
%TD*%
D54*
%TO.C,Q2*%
X65640000Y-36962500D03*
X63740000Y-36962500D03*
X64690000Y-38837500D03*
%TD*%
D42*
%TO.C,C7*%
X33580000Y-30900000D03*
X32620000Y-30900000D03*
%TD*%
D17*
%TO.C,C4*%
X51450000Y-56590000D03*
X51450000Y-54690000D03*
%TD*%
D20*
%TO.C,C23*%
X63350000Y-30400000D03*
X64310000Y-30400000D03*
%TD*%
D59*
%TO.C,U8*%
X26175000Y-43400000D03*
X25525000Y-43400000D03*
X24875000Y-43400000D03*
X24225000Y-43400000D03*
X24225000Y-41800000D03*
X24875000Y-41800000D03*
X25525000Y-41800000D03*
X26175000Y-41800000D03*
%TD*%
D19*
%TO.C,R16*%
X46000000Y-72270000D03*
X46000000Y-71250000D03*
%TD*%
D17*
%TO.C,C5*%
X60912500Y-64900000D03*
X60912500Y-63000000D03*
%TD*%
D60*
%TO.C,U6*%
X24200000Y-37400000D03*
X24200000Y-38400000D03*
X24200000Y-39400000D03*
X26200000Y-39400000D03*
X26200000Y-38400000D03*
X26200000Y-37400000D03*
%TD*%
D61*
%TO.C,L1*%
X53050000Y-56240000D03*
X55050000Y-56240000D03*
%TD*%
D37*
%TO.C,J3*%
X72500000Y-77505000D03*
D38*
X72500000Y-73695000D03*
%TD*%
D16*
%TO.C,R15*%
X26560000Y-44450000D03*
X25540000Y-44450000D03*
%TD*%
%TO.C,R6*%
X52810000Y-78900000D03*
X51790000Y-78900000D03*
%TD*%
%TO.C,R20*%
X33600000Y-38100000D03*
X32580000Y-38100000D03*
%TD*%
D24*
%TO.C,D5*%
X61150000Y-56440000D03*
X61150000Y-52440000D03*
%TD*%
D62*
%TO.C,Y1*%
X40780000Y-55200000D03*
X40780000Y-57700000D03*
%TD*%
D15*
%TO.C,U13*%
X36237500Y-69330000D03*
X36237500Y-68380000D03*
X36237500Y-67430000D03*
X33962500Y-67430000D03*
X33962500Y-69330000D03*
%TD*%
D63*
%TO.C,C15*%
X31480000Y-56500000D03*
X31480000Y-55540000D03*
%TD*%
D20*
%TO.C,C24*%
X63350000Y-31400000D03*
X64310000Y-31400000D03*
%TD*%
D64*
%TO.C,J4*%
X69550000Y-55100000D03*
D51*
X69550000Y-53100000D03*
%TD*%
D16*
%TO.C,R26*%
X63300000Y-40500000D03*
X62280000Y-40500000D03*
%TD*%
D35*
%TO.C,C17*%
X41900000Y-72910000D03*
X41900000Y-73870000D03*
%TD*%
D15*
%TO.C,U14*%
X44300000Y-61490000D03*
X44300000Y-60540000D03*
X44300000Y-59590000D03*
X42025000Y-59590000D03*
X42025000Y-61490000D03*
%TD*%
%TO.C,U10*%
X44300000Y-65090000D03*
X44300000Y-64140000D03*
X44300000Y-63190000D03*
X42025000Y-63190000D03*
X42025000Y-65090000D03*
%TD*%
D20*
%TO.C,C22*%
X63350000Y-29400000D03*
X64310000Y-29400000D03*
%TD*%
D22*
%TO.C,H1*%
X24000000Y-25000000D03*
%TD*%
D50*
%TO.C,J7*%
X25350000Y-65400000D03*
D51*
X25350000Y-67400000D03*
X25350000Y-69400000D03*
X25350000Y-71400000D03*
X25350000Y-73400000D03*
%TD*%
D23*
%TO.C,R5*%
X32570000Y-33000000D03*
X33590000Y-33000000D03*
%TD*%
D32*
%TO.C,C21*%
X57850000Y-83150000D03*
X59750000Y-83150000D03*
%TD*%
D40*
%TO.C,U12*%
X42025000Y-66690000D03*
X42025000Y-67640000D03*
X42025000Y-68590000D03*
X44300000Y-68590000D03*
X44300000Y-66690000D03*
%TD*%
D16*
%TO.C,R19*%
X40572500Y-71040000D03*
X39552500Y-71040000D03*
%TD*%
%TO.C,R13*%
X41000000Y-53950000D03*
X39980000Y-53950000D03*
%TD*%
D19*
%TO.C,R23*%
X60530000Y-30010000D03*
X60530000Y-28990000D03*
%TD*%
D37*
%TO.C,J1*%
X22505000Y-78985000D03*
D38*
X22505000Y-82485000D03*
X22505000Y-85985000D03*
X22505000Y-89485000D03*
%TD*%
D33*
%TO.C,D6*%
X52662500Y-81200000D03*
X54537500Y-81200000D03*
%TD*%
D20*
%TO.C,C13*%
X24320000Y-31700000D03*
X25280000Y-31700000D03*
%TD*%
D42*
%TO.C,C8*%
X33580000Y-29900000D03*
X32620000Y-29900000D03*
%TD*%
D18*
%TO.C,R3*%
X53150000Y-51340000D03*
X53150000Y-52360000D03*
%TD*%
D65*
%TO.C,C1*%
X67037500Y-79800000D03*
X63962500Y-79800000D03*
%TD*%
D66*
%TO.C,C14*%
X22350000Y-39800000D03*
X22350000Y-41700000D03*
%TD*%
D67*
%TO.C,U2*%
X55090001Y-53439998D03*
X55090001Y-54439999D03*
X53609999Y-54439999D03*
X53609999Y-53439998D03*
X55090001Y-53939997D03*
X53609999Y-53939997D03*
%TD*%
D68*
%TO.C,D8*%
X63950000Y-35300000D03*
D69*
X65650000Y-35300000D03*
X65650000Y-33300000D03*
X63750000Y-33300000D03*
%TD*%
D17*
%TO.C,C12*%
X61312500Y-68600000D03*
X61312500Y-66700000D03*
%TD*%
D16*
%TO.C,R18*%
X40560000Y-72050000D03*
X39540000Y-72050000D03*
%TD*%
D39*
%TO.C,C19*%
X58012500Y-80450000D03*
X61087500Y-80450000D03*
%TD*%
D42*
%TO.C,C10*%
X33580000Y-32000000D03*
X32620000Y-32000000D03*
%TD*%
M02*
