%TF.GenerationSoftware,KiCad,Pcbnew,(6.0.9)*%
%TF.CreationDate,2023-07-16T00:02:42+05:30*%
%TF.ProjectId,WeatherKids_Compact(V2.1),57656174-6865-4724-9b69-64735f436f6d,rev?*%
%TF.SameCoordinates,Original*%
%TF.FileFunction,Other,User*%
%FSLAX46Y46*%
G04 Gerber Fmt 4.6, Leading zero omitted, Abs format (unit mm)*
G04 Created by KiCad (PCBNEW (6.0.9)) date 2023-07-16 00:02:42*
%MOMM*%
%LPD*%
G01*
G04 APERTURE LIST*
%ADD10C,0.100000*%
%ADD11C,0.150000*%
%ADD12C,0.300000*%
%ADD13C,0.400000*%
%TA.AperFunction,Profile*%
%ADD14C,0.050000*%
%TD*%
%ADD15C,0.050000*%
%ADD16C,0.076200*%
G04 APERTURE END LIST*
D10*
D11*
X299989000Y-253002200D02*
X299989000Y-285002200D01*
X407989000Y-285002200D01*
X407989000Y-253002200D01*
X299989000Y-253002200D01*
D10*
D11*
X10000000Y-10000000D02*
X10000000Y-287002200D01*
X409989000Y-287002200D01*
X409989000Y-10000000D01*
X10000000Y-10000000D01*
D10*
D11*
X12000000Y-12000000D02*
X12000000Y-285002200D01*
X407989000Y-285002200D01*
X407989000Y-12000000D01*
X12000000Y-12000000D01*
D10*
D11*
X60000000Y-12000000D02*
X60000000Y-10000000D01*
D10*
D11*
X110000000Y-12000000D02*
X110000000Y-10000000D01*
D10*
D11*
X160000000Y-12000000D02*
X160000000Y-10000000D01*
D10*
D11*
X210000000Y-12000000D02*
X210000000Y-10000000D01*
D10*
D11*
X260000000Y-12000000D02*
X260000000Y-10000000D01*
D10*
D11*
X310000000Y-12000000D02*
X310000000Y-10000000D01*
D10*
D11*
X360000000Y-12000000D02*
X360000000Y-10000000D01*
D10*
D11*
X36065476Y-11588095D02*
X35322619Y-11588095D01*
X35694047Y-11588095D02*
X35694047Y-10288095D01*
X35570238Y-10473809D01*
X35446428Y-10597619D01*
X35322619Y-10659523D01*
D10*
D11*
X85322619Y-10411904D02*
X85384523Y-10350000D01*
X85508333Y-10288095D01*
X85817857Y-10288095D01*
X85941666Y-10350000D01*
X86003571Y-10411904D01*
X86065476Y-10535714D01*
X86065476Y-10659523D01*
X86003571Y-10845238D01*
X85260714Y-11588095D01*
X86065476Y-11588095D01*
D10*
D11*
X135260714Y-10288095D02*
X136065476Y-10288095D01*
X135632142Y-10783333D01*
X135817857Y-10783333D01*
X135941666Y-10845238D01*
X136003571Y-10907142D01*
X136065476Y-11030952D01*
X136065476Y-11340476D01*
X136003571Y-11464285D01*
X135941666Y-11526190D01*
X135817857Y-11588095D01*
X135446428Y-11588095D01*
X135322619Y-11526190D01*
X135260714Y-11464285D01*
D10*
D11*
X185941666Y-10721428D02*
X185941666Y-11588095D01*
X185632142Y-10226190D02*
X185322619Y-11154761D01*
X186127380Y-11154761D01*
D10*
D11*
X236003571Y-10288095D02*
X235384523Y-10288095D01*
X235322619Y-10907142D01*
X235384523Y-10845238D01*
X235508333Y-10783333D01*
X235817857Y-10783333D01*
X235941666Y-10845238D01*
X236003571Y-10907142D01*
X236065476Y-11030952D01*
X236065476Y-11340476D01*
X236003571Y-11464285D01*
X235941666Y-11526190D01*
X235817857Y-11588095D01*
X235508333Y-11588095D01*
X235384523Y-11526190D01*
X235322619Y-11464285D01*
D10*
D11*
X285941666Y-10288095D02*
X285694047Y-10288095D01*
X285570238Y-10350000D01*
X285508333Y-10411904D01*
X285384523Y-10597619D01*
X285322619Y-10845238D01*
X285322619Y-11340476D01*
X285384523Y-11464285D01*
X285446428Y-11526190D01*
X285570238Y-11588095D01*
X285817857Y-11588095D01*
X285941666Y-11526190D01*
X286003571Y-11464285D01*
X286065476Y-11340476D01*
X286065476Y-11030952D01*
X286003571Y-10907142D01*
X285941666Y-10845238D01*
X285817857Y-10783333D01*
X285570238Y-10783333D01*
X285446428Y-10845238D01*
X285384523Y-10907142D01*
X285322619Y-11030952D01*
D10*
D11*
X335260714Y-10288095D02*
X336127380Y-10288095D01*
X335570238Y-11588095D01*
D10*
D11*
X385570238Y-10845238D02*
X385446428Y-10783333D01*
X385384523Y-10721428D01*
X385322619Y-10597619D01*
X385322619Y-10535714D01*
X385384523Y-10411904D01*
X385446428Y-10350000D01*
X385570238Y-10288095D01*
X385817857Y-10288095D01*
X385941666Y-10350000D01*
X386003571Y-10411904D01*
X386065476Y-10535714D01*
X386065476Y-10597619D01*
X386003571Y-10721428D01*
X385941666Y-10783333D01*
X385817857Y-10845238D01*
X385570238Y-10845238D01*
X385446428Y-10907142D01*
X385384523Y-10969047D01*
X385322619Y-11092857D01*
X385322619Y-11340476D01*
X385384523Y-11464285D01*
X385446428Y-11526190D01*
X385570238Y-11588095D01*
X385817857Y-11588095D01*
X385941666Y-11526190D01*
X386003571Y-11464285D01*
X386065476Y-11340476D01*
X386065476Y-11092857D01*
X386003571Y-10969047D01*
X385941666Y-10907142D01*
X385817857Y-10845238D01*
D10*
D11*
X60000000Y-285002200D02*
X60000000Y-287002200D01*
D10*
D11*
X110000000Y-285002200D02*
X110000000Y-287002200D01*
D10*
D11*
X160000000Y-285002200D02*
X160000000Y-287002200D01*
D10*
D11*
X210000000Y-285002200D02*
X210000000Y-287002200D01*
D10*
D11*
X260000000Y-285002200D02*
X260000000Y-287002200D01*
D10*
D11*
X310000000Y-285002200D02*
X310000000Y-287002200D01*
D10*
D11*
X360000000Y-285002200D02*
X360000000Y-287002200D01*
D10*
D11*
X36065476Y-286590295D02*
X35322619Y-286590295D01*
X35694047Y-286590295D02*
X35694047Y-285290295D01*
X35570238Y-285476009D01*
X35446428Y-285599819D01*
X35322619Y-285661723D01*
D10*
D11*
X85322619Y-285414104D02*
X85384523Y-285352200D01*
X85508333Y-285290295D01*
X85817857Y-285290295D01*
X85941666Y-285352200D01*
X86003571Y-285414104D01*
X86065476Y-285537914D01*
X86065476Y-285661723D01*
X86003571Y-285847438D01*
X85260714Y-286590295D01*
X86065476Y-286590295D01*
D10*
D11*
X135260714Y-285290295D02*
X136065476Y-285290295D01*
X135632142Y-285785533D01*
X135817857Y-285785533D01*
X135941666Y-285847438D01*
X136003571Y-285909342D01*
X136065476Y-286033152D01*
X136065476Y-286342676D01*
X136003571Y-286466485D01*
X135941666Y-286528390D01*
X135817857Y-286590295D01*
X135446428Y-286590295D01*
X135322619Y-286528390D01*
X135260714Y-286466485D01*
D10*
D11*
X185941666Y-285723628D02*
X185941666Y-286590295D01*
X185632142Y-285228390D02*
X185322619Y-286156961D01*
X186127380Y-286156961D01*
D10*
D11*
X236003571Y-285290295D02*
X235384523Y-285290295D01*
X235322619Y-285909342D01*
X235384523Y-285847438D01*
X235508333Y-285785533D01*
X235817857Y-285785533D01*
X235941666Y-285847438D01*
X236003571Y-285909342D01*
X236065476Y-286033152D01*
X236065476Y-286342676D01*
X236003571Y-286466485D01*
X235941666Y-286528390D01*
X235817857Y-286590295D01*
X235508333Y-286590295D01*
X235384523Y-286528390D01*
X235322619Y-286466485D01*
D10*
D11*
X285941666Y-285290295D02*
X285694047Y-285290295D01*
X285570238Y-285352200D01*
X285508333Y-285414104D01*
X285384523Y-285599819D01*
X285322619Y-285847438D01*
X285322619Y-286342676D01*
X285384523Y-286466485D01*
X285446428Y-286528390D01*
X285570238Y-286590295D01*
X285817857Y-286590295D01*
X285941666Y-286528390D01*
X286003571Y-286466485D01*
X286065476Y-286342676D01*
X286065476Y-286033152D01*
X286003571Y-285909342D01*
X285941666Y-285847438D01*
X285817857Y-285785533D01*
X285570238Y-285785533D01*
X285446428Y-285847438D01*
X285384523Y-285909342D01*
X285322619Y-286033152D01*
D10*
D11*
X335260714Y-285290295D02*
X336127380Y-285290295D01*
X335570238Y-286590295D01*
D10*
D11*
X385570238Y-285847438D02*
X385446428Y-285785533D01*
X385384523Y-285723628D01*
X385322619Y-285599819D01*
X385322619Y-285537914D01*
X385384523Y-285414104D01*
X385446428Y-285352200D01*
X385570238Y-285290295D01*
X385817857Y-285290295D01*
X385941666Y-285352200D01*
X386003571Y-285414104D01*
X386065476Y-285537914D01*
X386065476Y-285599819D01*
X386003571Y-285723628D01*
X385941666Y-285785533D01*
X385817857Y-285847438D01*
X385570238Y-285847438D01*
X385446428Y-285909342D01*
X385384523Y-285971247D01*
X385322619Y-286095057D01*
X385322619Y-286342676D01*
X385384523Y-286466485D01*
X385446428Y-286528390D01*
X385570238Y-286590295D01*
X385817857Y-286590295D01*
X385941666Y-286528390D01*
X386003571Y-286466485D01*
X386065476Y-286342676D01*
X386065476Y-286095057D01*
X386003571Y-285971247D01*
X385941666Y-285909342D01*
X385817857Y-285847438D01*
D10*
D11*
X10000000Y-60000000D02*
X12000000Y-60000000D01*
D10*
D11*
X10000000Y-110000000D02*
X12000000Y-110000000D01*
D10*
D11*
X10000000Y-160000000D02*
X12000000Y-160000000D01*
D10*
D11*
X10000000Y-210000000D02*
X12000000Y-210000000D01*
D10*
D11*
X10000000Y-260000000D02*
X12000000Y-260000000D01*
D10*
D11*
X10690476Y-35216666D02*
X11309523Y-35216666D01*
X10566666Y-35588095D02*
X11000000Y-34288095D01*
X11433333Y-35588095D01*
D10*
D11*
X11092857Y-84907142D02*
X11278571Y-84969047D01*
X11340476Y-85030952D01*
X11402380Y-85154761D01*
X11402380Y-85340476D01*
X11340476Y-85464285D01*
X11278571Y-85526190D01*
X11154761Y-85588095D01*
X10659523Y-85588095D01*
X10659523Y-84288095D01*
X11092857Y-84288095D01*
X11216666Y-84350000D01*
X11278571Y-84411904D01*
X11340476Y-84535714D01*
X11340476Y-84659523D01*
X11278571Y-84783333D01*
X11216666Y-84845238D01*
X11092857Y-84907142D01*
X10659523Y-84907142D01*
D10*
D11*
X11402380Y-135464285D02*
X11340476Y-135526190D01*
X11154761Y-135588095D01*
X11030952Y-135588095D01*
X10845238Y-135526190D01*
X10721428Y-135402380D01*
X10659523Y-135278571D01*
X10597619Y-135030952D01*
X10597619Y-134845238D01*
X10659523Y-134597619D01*
X10721428Y-134473809D01*
X10845238Y-134350000D01*
X11030952Y-134288095D01*
X11154761Y-134288095D01*
X11340476Y-134350000D01*
X11402380Y-134411904D01*
D10*
D11*
X10659523Y-185588095D02*
X10659523Y-184288095D01*
X10969047Y-184288095D01*
X11154761Y-184350000D01*
X11278571Y-184473809D01*
X11340476Y-184597619D01*
X11402380Y-184845238D01*
X11402380Y-185030952D01*
X11340476Y-185278571D01*
X11278571Y-185402380D01*
X11154761Y-185526190D01*
X10969047Y-185588095D01*
X10659523Y-185588095D01*
D10*
D11*
X10721428Y-234907142D02*
X11154761Y-234907142D01*
X11340476Y-235588095D02*
X10721428Y-235588095D01*
X10721428Y-234288095D01*
X11340476Y-234288095D01*
D10*
D11*
X11185714Y-284907142D02*
X10752380Y-284907142D01*
X10752380Y-285588095D02*
X10752380Y-284288095D01*
X11371428Y-284288095D01*
D10*
D11*
X409989000Y-60000000D02*
X407989000Y-60000000D01*
D10*
D11*
X409989000Y-110000000D02*
X407989000Y-110000000D01*
D10*
D11*
X409989000Y-160000000D02*
X407989000Y-160000000D01*
D10*
D11*
X409989000Y-210000000D02*
X407989000Y-210000000D01*
D10*
D11*
X409989000Y-260000000D02*
X407989000Y-260000000D01*
D10*
D11*
X408679476Y-35216666D02*
X409298523Y-35216666D01*
X408555666Y-35588095D02*
X408989000Y-34288095D01*
X409422333Y-35588095D01*
D10*
D11*
X409081857Y-84907142D02*
X409267571Y-84969047D01*
X409329476Y-85030952D01*
X409391380Y-85154761D01*
X409391380Y-85340476D01*
X409329476Y-85464285D01*
X409267571Y-85526190D01*
X409143761Y-85588095D01*
X408648523Y-85588095D01*
X408648523Y-84288095D01*
X409081857Y-84288095D01*
X409205666Y-84350000D01*
X409267571Y-84411904D01*
X409329476Y-84535714D01*
X409329476Y-84659523D01*
X409267571Y-84783333D01*
X409205666Y-84845238D01*
X409081857Y-84907142D01*
X408648523Y-84907142D01*
D10*
D11*
X409391380Y-135464285D02*
X409329476Y-135526190D01*
X409143761Y-135588095D01*
X409019952Y-135588095D01*
X408834238Y-135526190D01*
X408710428Y-135402380D01*
X408648523Y-135278571D01*
X408586619Y-135030952D01*
X408586619Y-134845238D01*
X408648523Y-134597619D01*
X408710428Y-134473809D01*
X408834238Y-134350000D01*
X409019952Y-134288095D01*
X409143761Y-134288095D01*
X409329476Y-134350000D01*
X409391380Y-134411904D01*
D10*
D11*
X408648523Y-185588095D02*
X408648523Y-184288095D01*
X408958047Y-184288095D01*
X409143761Y-184350000D01*
X409267571Y-184473809D01*
X409329476Y-184597619D01*
X409391380Y-184845238D01*
X409391380Y-185030952D01*
X409329476Y-185278571D01*
X409267571Y-185402380D01*
X409143761Y-185526190D01*
X408958047Y-185588095D01*
X408648523Y-185588095D01*
D10*
D11*
X408710428Y-234907142D02*
X409143761Y-234907142D01*
X409329476Y-235588095D02*
X408710428Y-235588095D01*
X408710428Y-234288095D01*
X409329476Y-234288095D01*
D10*
D11*
X409174714Y-284907142D02*
X408741380Y-284907142D01*
X408741380Y-285588095D02*
X408741380Y-284288095D01*
X409360428Y-284288095D01*
D10*
D11*
X323421142Y-280780771D02*
X323421142Y-279280771D01*
X323778285Y-279280771D01*
X323992571Y-279352200D01*
X324135428Y-279495057D01*
X324206857Y-279637914D01*
X324278285Y-279923628D01*
X324278285Y-280137914D01*
X324206857Y-280423628D01*
X324135428Y-280566485D01*
X323992571Y-280709342D01*
X323778285Y-280780771D01*
X323421142Y-280780771D01*
X325564000Y-280780771D02*
X325564000Y-279995057D01*
X325492571Y-279852200D01*
X325349714Y-279780771D01*
X325064000Y-279780771D01*
X324921142Y-279852200D01*
X325564000Y-280709342D02*
X325421142Y-280780771D01*
X325064000Y-280780771D01*
X324921142Y-280709342D01*
X324849714Y-280566485D01*
X324849714Y-280423628D01*
X324921142Y-280280771D01*
X325064000Y-280209342D01*
X325421142Y-280209342D01*
X325564000Y-280137914D01*
X326064000Y-279780771D02*
X326635428Y-279780771D01*
X326278285Y-279280771D02*
X326278285Y-280566485D01*
X326349714Y-280709342D01*
X326492571Y-280780771D01*
X326635428Y-280780771D01*
X327706857Y-280709342D02*
X327564000Y-280780771D01*
X327278285Y-280780771D01*
X327135428Y-280709342D01*
X327064000Y-280566485D01*
X327064000Y-279995057D01*
X327135428Y-279852200D01*
X327278285Y-279780771D01*
X327564000Y-279780771D01*
X327706857Y-279852200D01*
X327778285Y-279995057D01*
X327778285Y-280137914D01*
X327064000Y-280280771D01*
X328421142Y-280637914D02*
X328492571Y-280709342D01*
X328421142Y-280780771D01*
X328349714Y-280709342D01*
X328421142Y-280637914D01*
X328421142Y-280780771D01*
X328421142Y-279852200D02*
X328492571Y-279923628D01*
X328421142Y-279995057D01*
X328349714Y-279923628D01*
X328421142Y-279852200D01*
X328421142Y-279995057D01*
D10*
D11*
X299989000Y-281502200D02*
X407989000Y-281502200D01*
D10*
D11*
X301421142Y-283580771D02*
X301421142Y-282080771D01*
X302278285Y-283580771D02*
X301635428Y-282723628D01*
X302278285Y-282080771D02*
X301421142Y-282937914D01*
X302921142Y-283580771D02*
X302921142Y-282580771D01*
X302921142Y-282080771D02*
X302849714Y-282152200D01*
X302921142Y-282223628D01*
X302992571Y-282152200D01*
X302921142Y-282080771D01*
X302921142Y-282223628D01*
X304492571Y-283437914D02*
X304421142Y-283509342D01*
X304206857Y-283580771D01*
X304064000Y-283580771D01*
X303849714Y-283509342D01*
X303706857Y-283366485D01*
X303635428Y-283223628D01*
X303564000Y-282937914D01*
X303564000Y-282723628D01*
X303635428Y-282437914D01*
X303706857Y-282295057D01*
X303849714Y-282152200D01*
X304064000Y-282080771D01*
X304206857Y-282080771D01*
X304421142Y-282152200D01*
X304492571Y-282223628D01*
X305778285Y-283580771D02*
X305778285Y-282795057D01*
X305706857Y-282652200D01*
X305564000Y-282580771D01*
X305278285Y-282580771D01*
X305135428Y-282652200D01*
X305778285Y-283509342D02*
X305635428Y-283580771D01*
X305278285Y-283580771D01*
X305135428Y-283509342D01*
X305064000Y-283366485D01*
X305064000Y-283223628D01*
X305135428Y-283080771D01*
X305278285Y-283009342D01*
X305635428Y-283009342D01*
X305778285Y-282937914D01*
X307135428Y-283580771D02*
X307135428Y-282080771D01*
X307135428Y-283509342D02*
X306992571Y-283580771D01*
X306706857Y-283580771D01*
X306564000Y-283509342D01*
X306492571Y-283437914D01*
X306421142Y-283295057D01*
X306421142Y-282866485D01*
X306492571Y-282723628D01*
X306564000Y-282652200D01*
X306706857Y-282580771D01*
X306992571Y-282580771D01*
X307135428Y-282652200D01*
X308992571Y-282795057D02*
X309492571Y-282795057D01*
X309706857Y-283580771D02*
X308992571Y-283580771D01*
X308992571Y-282080771D01*
X309706857Y-282080771D01*
X310349714Y-283437914D02*
X310421142Y-283509342D01*
X310349714Y-283580771D01*
X310278285Y-283509342D01*
X310349714Y-283437914D01*
X310349714Y-283580771D01*
X311064000Y-283580771D02*
X311064000Y-282080771D01*
X311421142Y-282080771D01*
X311635428Y-282152200D01*
X311778285Y-282295057D01*
X311849714Y-282437914D01*
X311921142Y-282723628D01*
X311921142Y-282937914D01*
X311849714Y-283223628D01*
X311778285Y-283366485D01*
X311635428Y-283509342D01*
X311421142Y-283580771D01*
X311064000Y-283580771D01*
X312564000Y-283437914D02*
X312635428Y-283509342D01*
X312564000Y-283580771D01*
X312492571Y-283509342D01*
X312564000Y-283437914D01*
X312564000Y-283580771D01*
X313206857Y-283152200D02*
X313921142Y-283152200D01*
X313064000Y-283580771D02*
X313564000Y-282080771D01*
X314064000Y-283580771D01*
X314564000Y-283437914D02*
X314635428Y-283509342D01*
X314564000Y-283580771D01*
X314492571Y-283509342D01*
X314564000Y-283437914D01*
X314564000Y-283580771D01*
X317564000Y-283580771D02*
X317564000Y-282080771D01*
X317706857Y-283009342D02*
X318135428Y-283580771D01*
X318135428Y-282580771D02*
X317564000Y-283152200D01*
X318778285Y-283580771D02*
X318778285Y-282580771D01*
X318778285Y-282080771D02*
X318706857Y-282152200D01*
X318778285Y-282223628D01*
X318849714Y-282152200D01*
X318778285Y-282080771D01*
X318778285Y-282223628D01*
X320135428Y-283509342D02*
X319992571Y-283580771D01*
X319706857Y-283580771D01*
X319564000Y-283509342D01*
X319492571Y-283437914D01*
X319421142Y-283295057D01*
X319421142Y-282866485D01*
X319492571Y-282723628D01*
X319564000Y-282652200D01*
X319706857Y-282580771D01*
X319992571Y-282580771D01*
X320135428Y-282652200D01*
X321421142Y-283580771D02*
X321421142Y-282795057D01*
X321349714Y-282652200D01*
X321206857Y-282580771D01*
X320921142Y-282580771D01*
X320778285Y-282652200D01*
X321421142Y-283509342D02*
X321278285Y-283580771D01*
X320921142Y-283580771D01*
X320778285Y-283509342D01*
X320706857Y-283366485D01*
X320706857Y-283223628D01*
X320778285Y-283080771D01*
X320921142Y-283009342D01*
X321278285Y-283009342D01*
X321421142Y-282937914D01*
X322778285Y-283580771D02*
X322778285Y-282080771D01*
X322778285Y-283509342D02*
X322635428Y-283580771D01*
X322349714Y-283580771D01*
X322206857Y-283509342D01*
X322135428Y-283437914D01*
X322064000Y-283295057D01*
X322064000Y-282866485D01*
X322135428Y-282723628D01*
X322206857Y-282652200D01*
X322349714Y-282580771D01*
X322635428Y-282580771D01*
X322778285Y-282652200D01*
X325064000Y-284152200D02*
X324992571Y-284080771D01*
X324849714Y-283866485D01*
X324778285Y-283723628D01*
X324706857Y-283509342D01*
X324635428Y-283152200D01*
X324635428Y-282866485D01*
X324706857Y-282509342D01*
X324778285Y-282295057D01*
X324849714Y-282152200D01*
X324992571Y-281937914D01*
X325064000Y-281866485D01*
X326278285Y-282080771D02*
X325992571Y-282080771D01*
X325849714Y-282152200D01*
X325778285Y-282223628D01*
X325635428Y-282437914D01*
X325564000Y-282723628D01*
X325564000Y-283295057D01*
X325635428Y-283437914D01*
X325706857Y-283509342D01*
X325849714Y-283580771D01*
X326135428Y-283580771D01*
X326278285Y-283509342D01*
X326349714Y-283437914D01*
X326421142Y-283295057D01*
X326421142Y-282937914D01*
X326349714Y-282795057D01*
X326278285Y-282723628D01*
X326135428Y-282652200D01*
X325849714Y-282652200D01*
X325706857Y-282723628D01*
X325635428Y-282795057D01*
X325564000Y-282937914D01*
X327064000Y-283437914D02*
X327135428Y-283509342D01*
X327064000Y-283580771D01*
X326992571Y-283509342D01*
X327064000Y-283437914D01*
X327064000Y-283580771D01*
X328064000Y-282080771D02*
X328206857Y-282080771D01*
X328349714Y-282152200D01*
X328421142Y-282223628D01*
X328492571Y-282366485D01*
X328564000Y-282652200D01*
X328564000Y-283009342D01*
X328492571Y-283295057D01*
X328421142Y-283437914D01*
X328349714Y-283509342D01*
X328206857Y-283580771D01*
X328064000Y-283580771D01*
X327921142Y-283509342D01*
X327849714Y-283437914D01*
X327778285Y-283295057D01*
X327706857Y-283009342D01*
X327706857Y-282652200D01*
X327778285Y-282366485D01*
X327849714Y-282223628D01*
X327921142Y-282152200D01*
X328064000Y-282080771D01*
X329206857Y-283437914D02*
X329278285Y-283509342D01*
X329206857Y-283580771D01*
X329135428Y-283509342D01*
X329206857Y-283437914D01*
X329206857Y-283580771D01*
X329992571Y-283580771D02*
X330278285Y-283580771D01*
X330421142Y-283509342D01*
X330492571Y-283437914D01*
X330635428Y-283223628D01*
X330706857Y-282937914D01*
X330706857Y-282366485D01*
X330635428Y-282223628D01*
X330564000Y-282152200D01*
X330421142Y-282080771D01*
X330135428Y-282080771D01*
X329992571Y-282152200D01*
X329921142Y-282223628D01*
X329849714Y-282366485D01*
X329849714Y-282723628D01*
X329921142Y-282866485D01*
X329992571Y-282937914D01*
X330135428Y-283009342D01*
X330421142Y-283009342D01*
X330564000Y-282937914D01*
X330635428Y-282866485D01*
X330706857Y-282723628D01*
X331206857Y-284152200D02*
X331278285Y-284080771D01*
X331421142Y-283866485D01*
X331492571Y-283723628D01*
X331564000Y-283509342D01*
X331635428Y-283152200D01*
X331635428Y-282866485D01*
X331564000Y-282509342D01*
X331492571Y-282295057D01*
X331421142Y-282152200D01*
X331278285Y-281937914D01*
X331206857Y-281866485D01*
D10*
D11*
X299989000Y-278502200D02*
X407989000Y-278502200D01*
D10*
D12*
X387398285Y-280780771D02*
X386898285Y-280066485D01*
X386541142Y-280780771D02*
X386541142Y-279280771D01*
X387112571Y-279280771D01*
X387255428Y-279352200D01*
X387326857Y-279423628D01*
X387398285Y-279566485D01*
X387398285Y-279780771D01*
X387326857Y-279923628D01*
X387255428Y-279995057D01*
X387112571Y-280066485D01*
X386541142Y-280066485D01*
X388612571Y-280709342D02*
X388469714Y-280780771D01*
X388184000Y-280780771D01*
X388041142Y-280709342D01*
X387969714Y-280566485D01*
X387969714Y-279995057D01*
X388041142Y-279852200D01*
X388184000Y-279780771D01*
X388469714Y-279780771D01*
X388612571Y-279852200D01*
X388684000Y-279995057D01*
X388684000Y-280137914D01*
X387969714Y-280280771D01*
X389184000Y-279780771D02*
X389541142Y-280780771D01*
X389898285Y-279780771D01*
X390469714Y-280637914D02*
X390541142Y-280709342D01*
X390469714Y-280780771D01*
X390398285Y-280709342D01*
X390469714Y-280637914D01*
X390469714Y-280780771D01*
X390469714Y-279852200D02*
X390541142Y-279923628D01*
X390469714Y-279995057D01*
X390398285Y-279923628D01*
X390469714Y-279852200D01*
X390469714Y-279995057D01*
D10*
D11*
X301349714Y-280709342D02*
X301564000Y-280780771D01*
X301921142Y-280780771D01*
X302064000Y-280709342D01*
X302135428Y-280637914D01*
X302206857Y-280495057D01*
X302206857Y-280352200D01*
X302135428Y-280209342D01*
X302064000Y-280137914D01*
X301921142Y-280066485D01*
X301635428Y-279995057D01*
X301492571Y-279923628D01*
X301421142Y-279852200D01*
X301349714Y-279709342D01*
X301349714Y-279566485D01*
X301421142Y-279423628D01*
X301492571Y-279352200D01*
X301635428Y-279280771D01*
X301992571Y-279280771D01*
X302206857Y-279352200D01*
X302849714Y-280780771D02*
X302849714Y-279780771D01*
X302849714Y-279280771D02*
X302778285Y-279352200D01*
X302849714Y-279423628D01*
X302921142Y-279352200D01*
X302849714Y-279280771D01*
X302849714Y-279423628D01*
X303421142Y-279780771D02*
X304206857Y-279780771D01*
X303421142Y-280780771D01*
X304206857Y-280780771D01*
X305349714Y-280709342D02*
X305206857Y-280780771D01*
X304921142Y-280780771D01*
X304778285Y-280709342D01*
X304706857Y-280566485D01*
X304706857Y-279995057D01*
X304778285Y-279852200D01*
X304921142Y-279780771D01*
X305206857Y-279780771D01*
X305349714Y-279852200D01*
X305421142Y-279995057D01*
X305421142Y-280137914D01*
X304706857Y-280280771D01*
X306064000Y-280637914D02*
X306135428Y-280709342D01*
X306064000Y-280780771D01*
X305992571Y-280709342D01*
X306064000Y-280637914D01*
X306064000Y-280780771D01*
X306064000Y-279852200D02*
X306135428Y-279923628D01*
X306064000Y-279995057D01*
X305992571Y-279923628D01*
X306064000Y-279852200D01*
X306064000Y-279995057D01*
X307849714Y-280352200D02*
X308564000Y-280352200D01*
X307706857Y-280780771D02*
X308206857Y-279280771D01*
X308706857Y-280780771D01*
X309064000Y-279280771D02*
X309992571Y-279280771D01*
X309492571Y-279852200D01*
X309706857Y-279852200D01*
X309849714Y-279923628D01*
X309921142Y-279995057D01*
X309992571Y-280137914D01*
X309992571Y-280495057D01*
X309921142Y-280637914D01*
X309849714Y-280709342D01*
X309706857Y-280780771D01*
X309278285Y-280780771D01*
X309135428Y-280709342D01*
X309064000Y-280637914D01*
D10*
D11*
X386421142Y-283580771D02*
X386421142Y-282080771D01*
X387778285Y-283580771D02*
X387778285Y-282080771D01*
X387778285Y-283509342D02*
X387635428Y-283580771D01*
X387349714Y-283580771D01*
X387206857Y-283509342D01*
X387135428Y-283437914D01*
X387064000Y-283295057D01*
X387064000Y-282866485D01*
X387135428Y-282723628D01*
X387206857Y-282652200D01*
X387349714Y-282580771D01*
X387635428Y-282580771D01*
X387778285Y-282652200D01*
X388492571Y-283437914D02*
X388564000Y-283509342D01*
X388492571Y-283580771D01*
X388421142Y-283509342D01*
X388492571Y-283437914D01*
X388492571Y-283580771D01*
X388492571Y-282652200D02*
X388564000Y-282723628D01*
X388492571Y-282795057D01*
X388421142Y-282723628D01*
X388492571Y-282652200D01*
X388492571Y-282795057D01*
X391135428Y-283580771D02*
X390278285Y-283580771D01*
X390706857Y-283580771D02*
X390706857Y-282080771D01*
X390564000Y-282295057D01*
X390421142Y-282437914D01*
X390278285Y-282509342D01*
X392849714Y-282009342D02*
X391564000Y-283937914D01*
X394135428Y-283580771D02*
X393278285Y-283580771D01*
X393706857Y-283580771D02*
X393706857Y-282080771D01*
X393564000Y-282295057D01*
X393421142Y-282437914D01*
X393278285Y-282509342D01*
D10*
D11*
X299989000Y-274502200D02*
X407989000Y-274502200D01*
D10*
D13*
X301701380Y-275206961D02*
X302844238Y-275206961D01*
X302022809Y-277206961D02*
X302272809Y-275206961D01*
X303260904Y-277206961D02*
X303427571Y-275873628D01*
X303510904Y-275206961D02*
X303403761Y-275302200D01*
X303487095Y-275397438D01*
X303594238Y-275302200D01*
X303510904Y-275206961D01*
X303487095Y-275397438D01*
X304094238Y-275873628D02*
X304856142Y-275873628D01*
X304463285Y-275206961D02*
X304249000Y-276921247D01*
X304320428Y-277111723D01*
X304499000Y-277206961D01*
X304689476Y-277206961D01*
X305641857Y-277206961D02*
X305463285Y-277111723D01*
X305391857Y-276921247D01*
X305606142Y-275206961D01*
X307177571Y-277111723D02*
X306975190Y-277206961D01*
X306594238Y-277206961D01*
X306415666Y-277111723D01*
X306344238Y-276921247D01*
X306439476Y-276159342D01*
X306558523Y-275968866D01*
X306760904Y-275873628D01*
X307141857Y-275873628D01*
X307320428Y-275968866D01*
X307391857Y-276159342D01*
X307368047Y-276349819D01*
X306391857Y-276540295D01*
X308141857Y-277016485D02*
X308225190Y-277111723D01*
X308118047Y-277206961D01*
X308034714Y-277111723D01*
X308141857Y-277016485D01*
X308118047Y-277206961D01*
X308272809Y-275968866D02*
X308356142Y-276064104D01*
X308249000Y-276159342D01*
X308165666Y-276064104D01*
X308272809Y-275968866D01*
X308249000Y-276159342D01*
D10*
D11*
X301921142Y-272595057D02*
X301421142Y-272595057D01*
X301421142Y-273380771D02*
X301421142Y-271880771D01*
X302135428Y-271880771D01*
X302706857Y-273380771D02*
X302706857Y-272380771D01*
X302706857Y-271880771D02*
X302635428Y-271952200D01*
X302706857Y-272023628D01*
X302778285Y-271952200D01*
X302706857Y-271880771D01*
X302706857Y-272023628D01*
X303635428Y-273380771D02*
X303492571Y-273309342D01*
X303421142Y-273166485D01*
X303421142Y-271880771D01*
X304778285Y-273309342D02*
X304635428Y-273380771D01*
X304349714Y-273380771D01*
X304206857Y-273309342D01*
X304135428Y-273166485D01*
X304135428Y-272595057D01*
X304206857Y-272452200D01*
X304349714Y-272380771D01*
X304635428Y-272380771D01*
X304778285Y-272452200D01*
X304849714Y-272595057D01*
X304849714Y-272737914D01*
X304135428Y-272880771D01*
X305492571Y-273237914D02*
X305564000Y-273309342D01*
X305492571Y-273380771D01*
X305421142Y-273309342D01*
X305492571Y-273237914D01*
X305492571Y-273380771D01*
X305492571Y-272452200D02*
X305564000Y-272523628D01*
X305492571Y-272595057D01*
X305421142Y-272523628D01*
X305492571Y-272452200D01*
X305492571Y-272595057D01*
X307206857Y-271880771D02*
X307564000Y-273380771D01*
X307849714Y-272309342D01*
X308135428Y-273380771D01*
X308492571Y-271880771D01*
X309635428Y-273309342D02*
X309492571Y-273380771D01*
X309206857Y-273380771D01*
X309064000Y-273309342D01*
X308992571Y-273166485D01*
X308992571Y-272595057D01*
X309064000Y-272452200D01*
X309206857Y-272380771D01*
X309492571Y-272380771D01*
X309635428Y-272452200D01*
X309706857Y-272595057D01*
X309706857Y-272737914D01*
X308992571Y-272880771D01*
X310992571Y-273380771D02*
X310992571Y-272595057D01*
X310921142Y-272452200D01*
X310778285Y-272380771D01*
X310492571Y-272380771D01*
X310349714Y-272452200D01*
X310992571Y-273309342D02*
X310849714Y-273380771D01*
X310492571Y-273380771D01*
X310349714Y-273309342D01*
X310278285Y-273166485D01*
X310278285Y-273023628D01*
X310349714Y-272880771D01*
X310492571Y-272809342D01*
X310849714Y-272809342D01*
X310992571Y-272737914D01*
X311492571Y-272380771D02*
X312064000Y-272380771D01*
X311706857Y-271880771D02*
X311706857Y-273166485D01*
X311778285Y-273309342D01*
X311921142Y-273380771D01*
X312064000Y-273380771D01*
X312564000Y-273380771D02*
X312564000Y-271880771D01*
X313206857Y-273380771D02*
X313206857Y-272595057D01*
X313135428Y-272452200D01*
X312992571Y-272380771D01*
X312778285Y-272380771D01*
X312635428Y-272452200D01*
X312564000Y-272523628D01*
X314492571Y-273309342D02*
X314349714Y-273380771D01*
X314064000Y-273380771D01*
X313921142Y-273309342D01*
X313849714Y-273166485D01*
X313849714Y-272595057D01*
X313921142Y-272452200D01*
X314064000Y-272380771D01*
X314349714Y-272380771D01*
X314492571Y-272452200D01*
X314564000Y-272595057D01*
X314564000Y-272737914D01*
X313849714Y-272880771D01*
X315206857Y-273380771D02*
X315206857Y-272380771D01*
X315206857Y-272666485D02*
X315278285Y-272523628D01*
X315349714Y-272452200D01*
X315492571Y-272380771D01*
X315635428Y-272380771D01*
X316135428Y-273380771D02*
X316135428Y-271880771D01*
X316992571Y-273380771D02*
X316349714Y-272523628D01*
X316992571Y-271880771D02*
X316135428Y-272737914D01*
X317635428Y-273380771D02*
X317635428Y-272380771D01*
X317635428Y-271880771D02*
X317564000Y-271952200D01*
X317635428Y-272023628D01*
X317706857Y-271952200D01*
X317635428Y-271880771D01*
X317635428Y-272023628D01*
X318992571Y-273380771D02*
X318992571Y-271880771D01*
X318992571Y-273309342D02*
X318849714Y-273380771D01*
X318564000Y-273380771D01*
X318421142Y-273309342D01*
X318349714Y-273237914D01*
X318278285Y-273095057D01*
X318278285Y-272666485D01*
X318349714Y-272523628D01*
X318421142Y-272452200D01*
X318564000Y-272380771D01*
X318849714Y-272380771D01*
X318992571Y-272452200D01*
X319635428Y-273309342D02*
X319778285Y-273380771D01*
X320064000Y-273380771D01*
X320206857Y-273309342D01*
X320278285Y-273166485D01*
X320278285Y-273095057D01*
X320206857Y-272952200D01*
X320064000Y-272880771D01*
X319849714Y-272880771D01*
X319706857Y-272809342D01*
X319635428Y-272666485D01*
X319635428Y-272595057D01*
X319706857Y-272452200D01*
X319849714Y-272380771D01*
X320064000Y-272380771D01*
X320206857Y-272452200D01*
X320564000Y-273523628D02*
X321706857Y-273523628D01*
X322921142Y-273237914D02*
X322849714Y-273309342D01*
X322635428Y-273380771D01*
X322492571Y-273380771D01*
X322278285Y-273309342D01*
X322135428Y-273166485D01*
X322064000Y-273023628D01*
X321992571Y-272737914D01*
X321992571Y-272523628D01*
X322064000Y-272237914D01*
X322135428Y-272095057D01*
X322278285Y-271952200D01*
X322492571Y-271880771D01*
X322635428Y-271880771D01*
X322849714Y-271952200D01*
X322921142Y-272023628D01*
X323778285Y-273380771D02*
X323635428Y-273309342D01*
X323564000Y-273237914D01*
X323492571Y-273095057D01*
X323492571Y-272666485D01*
X323564000Y-272523628D01*
X323635428Y-272452200D01*
X323778285Y-272380771D01*
X323992571Y-272380771D01*
X324135428Y-272452200D01*
X324206857Y-272523628D01*
X324278285Y-272666485D01*
X324278285Y-273095057D01*
X324206857Y-273237914D01*
X324135428Y-273309342D01*
X323992571Y-273380771D01*
X323778285Y-273380771D01*
X324921142Y-273380771D02*
X324921142Y-272380771D01*
X324921142Y-272523628D02*
X324992571Y-272452200D01*
X325135428Y-272380771D01*
X325349714Y-272380771D01*
X325492571Y-272452200D01*
X325564000Y-272595057D01*
X325564000Y-273380771D01*
X325564000Y-272595057D02*
X325635428Y-272452200D01*
X325778285Y-272380771D01*
X325992571Y-272380771D01*
X326135428Y-272452200D01*
X326206857Y-272595057D01*
X326206857Y-273380771D01*
X326921142Y-272380771D02*
X326921142Y-273880771D01*
X326921142Y-272452200D02*
X327064000Y-272380771D01*
X327349714Y-272380771D01*
X327492571Y-272452200D01*
X327564000Y-272523628D01*
X327635428Y-272666485D01*
X327635428Y-273095057D01*
X327564000Y-273237914D01*
X327492571Y-273309342D01*
X327349714Y-273380771D01*
X327064000Y-273380771D01*
X326921142Y-273309342D01*
X328921142Y-273380771D02*
X328921142Y-272595057D01*
X328849714Y-272452200D01*
X328706857Y-272380771D01*
X328421142Y-272380771D01*
X328278285Y-272452200D01*
X328921142Y-273309342D02*
X328778285Y-273380771D01*
X328421142Y-273380771D01*
X328278285Y-273309342D01*
X328206857Y-273166485D01*
X328206857Y-273023628D01*
X328278285Y-272880771D01*
X328421142Y-272809342D01*
X328778285Y-272809342D01*
X328921142Y-272737914D01*
X330278285Y-273309342D02*
X330135428Y-273380771D01*
X329849714Y-273380771D01*
X329706857Y-273309342D01*
X329635428Y-273237914D01*
X329564000Y-273095057D01*
X329564000Y-272666485D01*
X329635428Y-272523628D01*
X329706857Y-272452200D01*
X329849714Y-272380771D01*
X330135428Y-272380771D01*
X330278285Y-272452200D01*
X330706857Y-272380771D02*
X331278285Y-272380771D01*
X330921142Y-271880771D02*
X330921142Y-273166485D01*
X330992571Y-273309342D01*
X331135428Y-273380771D01*
X331278285Y-273380771D01*
X332206857Y-273952200D02*
X332135428Y-273880771D01*
X331992571Y-273666485D01*
X331921142Y-273523628D01*
X331849714Y-273309342D01*
X331778285Y-272952200D01*
X331778285Y-272666485D01*
X331849714Y-272309342D01*
X331921142Y-272095057D01*
X331992571Y-271952200D01*
X332135428Y-271737914D01*
X332206857Y-271666485D01*
X332564000Y-271880771D02*
X333064000Y-273380771D01*
X333564000Y-271880771D01*
X333992571Y-272023628D02*
X334064000Y-271952200D01*
X334206857Y-271880771D01*
X334564000Y-271880771D01*
X334706857Y-271952200D01*
X334778285Y-272023628D01*
X334849714Y-272166485D01*
X334849714Y-272309342D01*
X334778285Y-272523628D01*
X333921142Y-273380771D01*
X334849714Y-273380771D01*
X335492571Y-273237914D02*
X335564000Y-273309342D01*
X335492571Y-273380771D01*
X335421142Y-273309342D01*
X335492571Y-273237914D01*
X335492571Y-273380771D01*
X336992571Y-273380771D02*
X336135428Y-273380771D01*
X336564000Y-273380771D02*
X336564000Y-271880771D01*
X336421142Y-272095057D01*
X336278285Y-272237914D01*
X336135428Y-272309342D01*
X337492571Y-273952200D02*
X337564000Y-273880771D01*
X337706857Y-273666485D01*
X337778285Y-273523628D01*
X337849714Y-273309342D01*
X337921142Y-272952200D01*
X337921142Y-272666485D01*
X337849714Y-272309342D01*
X337778285Y-272095057D01*
X337706857Y-271952200D01*
X337564000Y-271737914D01*
X337492571Y-271666485D01*
X338635428Y-273237914D02*
X338706857Y-273309342D01*
X338635428Y-273380771D01*
X338564000Y-273309342D01*
X338635428Y-273237914D01*
X338635428Y-273380771D01*
X339349714Y-273380771D02*
X339349714Y-271880771D01*
X339492571Y-272809342D02*
X339921142Y-273380771D01*
X339921142Y-272380771D02*
X339349714Y-272952200D01*
X340564000Y-273380771D02*
X340564000Y-272380771D01*
X340564000Y-271880771D02*
X340492571Y-271952200D01*
X340564000Y-272023628D01*
X340635428Y-271952200D01*
X340564000Y-271880771D01*
X340564000Y-272023628D01*
X341921142Y-273309342D02*
X341778285Y-273380771D01*
X341492571Y-273380771D01*
X341349714Y-273309342D01*
X341278285Y-273237914D01*
X341206857Y-273095057D01*
X341206857Y-272666485D01*
X341278285Y-272523628D01*
X341349714Y-272452200D01*
X341492571Y-272380771D01*
X341778285Y-272380771D01*
X341921142Y-272452200D01*
X343206857Y-273380771D02*
X343206857Y-272595057D01*
X343135428Y-272452200D01*
X342992571Y-272380771D01*
X342706857Y-272380771D01*
X342564000Y-272452200D01*
X343206857Y-273309342D02*
X343064000Y-273380771D01*
X342706857Y-273380771D01*
X342564000Y-273309342D01*
X342492571Y-273166485D01*
X342492571Y-273023628D01*
X342564000Y-272880771D01*
X342706857Y-272809342D01*
X343064000Y-272809342D01*
X343206857Y-272737914D01*
X344564000Y-273380771D02*
X344564000Y-271880771D01*
X344564000Y-273309342D02*
X344421142Y-273380771D01*
X344135428Y-273380771D01*
X343992571Y-273309342D01*
X343921142Y-273237914D01*
X343849714Y-273095057D01*
X343849714Y-272666485D01*
X343921142Y-272523628D01*
X343992571Y-272452200D01*
X344135428Y-272380771D01*
X344421142Y-272380771D01*
X344564000Y-272452200D01*
X344921142Y-273523628D02*
X346064000Y-273523628D01*
X346421142Y-272380771D02*
X346421142Y-273880771D01*
X346421142Y-272452200D02*
X346564000Y-272380771D01*
X346849714Y-272380771D01*
X346992571Y-272452200D01*
X347064000Y-272523628D01*
X347135428Y-272666485D01*
X347135428Y-273095057D01*
X347064000Y-273237914D01*
X346992571Y-273309342D01*
X346849714Y-273380771D01*
X346564000Y-273380771D01*
X346421142Y-273309342D01*
X348421142Y-273309342D02*
X348278285Y-273380771D01*
X347992571Y-273380771D01*
X347849714Y-273309342D01*
X347778285Y-273237914D01*
X347706857Y-273095057D01*
X347706857Y-272666485D01*
X347778285Y-272523628D01*
X347849714Y-272452200D01*
X347992571Y-272380771D01*
X348278285Y-272380771D01*
X348421142Y-272452200D01*
X349064000Y-273380771D02*
X349064000Y-271880771D01*
X349064000Y-272452200D02*
X349206857Y-272380771D01*
X349492571Y-272380771D01*
X349635428Y-272452200D01*
X349706857Y-272523628D01*
X349778285Y-272666485D01*
X349778285Y-273095057D01*
X349706857Y-273237914D01*
X349635428Y-273309342D01*
X349492571Y-273380771D01*
X349206857Y-273380771D01*
X349064000Y-273309342D01*
D10*
D11*
X299989000Y-268502200D02*
X407989000Y-268502200D01*
D10*
D11*
X301349714Y-270609342D02*
X301564000Y-270680771D01*
X301921142Y-270680771D01*
X302064000Y-270609342D01*
X302135428Y-270537914D01*
X302206857Y-270395057D01*
X302206857Y-270252200D01*
X302135428Y-270109342D01*
X302064000Y-270037914D01*
X301921142Y-269966485D01*
X301635428Y-269895057D01*
X301492571Y-269823628D01*
X301421142Y-269752200D01*
X301349714Y-269609342D01*
X301349714Y-269466485D01*
X301421142Y-269323628D01*
X301492571Y-269252200D01*
X301635428Y-269180771D01*
X301992571Y-269180771D01*
X302206857Y-269252200D01*
X302849714Y-270680771D02*
X302849714Y-269180771D01*
X303492571Y-270680771D02*
X303492571Y-269895057D01*
X303421142Y-269752200D01*
X303278285Y-269680771D01*
X303064000Y-269680771D01*
X302921142Y-269752200D01*
X302849714Y-269823628D01*
X304778285Y-270609342D02*
X304635428Y-270680771D01*
X304349714Y-270680771D01*
X304206857Y-270609342D01*
X304135428Y-270466485D01*
X304135428Y-269895057D01*
X304206857Y-269752200D01*
X304349714Y-269680771D01*
X304635428Y-269680771D01*
X304778285Y-269752200D01*
X304849714Y-269895057D01*
X304849714Y-270037914D01*
X304135428Y-270180771D01*
X306064000Y-270609342D02*
X305921142Y-270680771D01*
X305635428Y-270680771D01*
X305492571Y-270609342D01*
X305421142Y-270466485D01*
X305421142Y-269895057D01*
X305492571Y-269752200D01*
X305635428Y-269680771D01*
X305921142Y-269680771D01*
X306064000Y-269752200D01*
X306135428Y-269895057D01*
X306135428Y-270037914D01*
X305421142Y-270180771D01*
X306564000Y-269680771D02*
X307135428Y-269680771D01*
X306778285Y-269180771D02*
X306778285Y-270466485D01*
X306849714Y-270609342D01*
X306992571Y-270680771D01*
X307135428Y-270680771D01*
X307635428Y-270537914D02*
X307706857Y-270609342D01*
X307635428Y-270680771D01*
X307564000Y-270609342D01*
X307635428Y-270537914D01*
X307635428Y-270680771D01*
X307635428Y-269752200D02*
X307706857Y-269823628D01*
X307635428Y-269895057D01*
X307564000Y-269823628D01*
X307635428Y-269752200D01*
X307635428Y-269895057D01*
D10*
D12*
D10*
D11*
D10*
D11*
D10*
D11*
D10*
D11*
D10*
D11*
X319989000Y-278502200D02*
X319989000Y-281502200D01*
D10*
D11*
X383989000Y-278502200D02*
X383989000Y-285002200D01*
D14*
X21000000Y-92000000D02*
X74000000Y-92000000D01*
X25351225Y-46600000D02*
G75*
G03*
X25351225Y-48600000I50025J-1000000D01*
G01*
X30200000Y-27451225D02*
G75*
G03*
X28200000Y-27451225I-1000000J-50025D01*
G01*
X74000000Y-92000000D02*
X74000000Y-22000000D01*
X30200000Y-27451225D02*
X30200000Y-46600000D01*
X28200000Y-45600000D02*
X28200000Y-27451225D01*
X27100000Y-46600000D02*
G75*
G03*
X28200000Y-45600000I50000J1050000D01*
G01*
X21000000Y-22000000D02*
X21000000Y-92000000D01*
X74000000Y-22000000D02*
X21000000Y-22000000D01*
X28100000Y-48600000D02*
G75*
G03*
X30200000Y-46600000I50000J2050000D01*
G01*
X25351225Y-48600000D02*
X28100000Y-48600000D01*
X25351225Y-46600000D02*
X27100000Y-46600000D01*
D15*
%TO.C,U4*%
X53800000Y-66000000D02*
X53800000Y-69400000D01*
X57900000Y-66000000D02*
X53800000Y-66000000D01*
X53800000Y-69400000D02*
X57900000Y-69400000D01*
X57900000Y-69400000D02*
X57900000Y-66000000D01*
%TO.C,R7*%
X57730000Y-71470000D02*
X55870000Y-71470000D01*
X55870000Y-70530000D02*
X57730000Y-70530000D01*
X57730000Y-70530000D02*
X57730000Y-71470000D01*
X55870000Y-71470000D02*
X55870000Y-70530000D01*
%TO.C,C6*%
X55680000Y-52800000D02*
X53720000Y-52800000D01*
X55680000Y-49400000D02*
X55680000Y-52800000D01*
X53720000Y-49400000D02*
X55680000Y-49400000D01*
X53720000Y-52800000D02*
X53720000Y-49400000D01*
%TO.C,U11*%
X46850000Y-72800000D02*
X42750000Y-72800000D01*
X42750000Y-76200000D02*
X46850000Y-76200000D01*
X42750000Y-72800000D02*
X42750000Y-76200000D01*
X46850000Y-76200000D02*
X46850000Y-72800000D01*
%TO.C,R24*%
X59950000Y-30430000D02*
X59010000Y-30430000D01*
X59950000Y-28570000D02*
X59950000Y-30430000D01*
X59010000Y-30430000D02*
X59010000Y-28570000D01*
X59010000Y-28570000D02*
X59950000Y-28570000D01*
%TO.C,R21*%
X39132500Y-69570000D02*
X40992500Y-69570000D01*
X40992500Y-70510000D02*
X39132500Y-70510000D01*
X40992500Y-69570000D02*
X40992500Y-70510000D01*
X39132500Y-70510000D02*
X39132500Y-69570000D01*
%TO.C,R11*%
X48820000Y-48380000D02*
X48820000Y-50240000D01*
X47880000Y-48380000D02*
X48820000Y-48380000D01*
X48820000Y-50240000D02*
X47880000Y-50240000D01*
X47880000Y-50240000D02*
X47880000Y-48380000D01*
%TO.C,C25*%
X66060000Y-41110000D02*
X64240000Y-41110000D01*
X66060000Y-40190000D02*
X66060000Y-41110000D01*
X64240000Y-40190000D02*
X66060000Y-40190000D01*
X64240000Y-41110000D02*
X64240000Y-40190000D01*
%TO.C,SW3*%
X60700000Y-41500000D02*
X66700000Y-41500000D01*
X66700000Y-41500000D02*
X66700000Y-50100000D01*
X66700000Y-50100000D02*
X60700000Y-50100000D01*
X60700000Y-50100000D02*
X60700000Y-41500000D01*
%TO.C,H2*%
X73450000Y-25000000D02*
G75*
G03*
X73450000Y-25000000I-2450000J0D01*
G01*
%TO.C,R2*%
X45240000Y-79370000D02*
X43380000Y-79370000D01*
X43380000Y-78430000D02*
X45240000Y-78430000D01*
X43380000Y-79370000D02*
X43380000Y-78430000D01*
X45240000Y-78430000D02*
X45240000Y-79370000D01*
%TO.C,C9*%
X55730000Y-65850000D02*
X53770000Y-65850000D01*
X53770000Y-65850000D02*
X53770000Y-62450000D01*
X55730000Y-62450000D02*
X55730000Y-65850000D01*
X53770000Y-62450000D02*
X55730000Y-62450000D01*
%TO.C,R8*%
X57730000Y-72520000D02*
X55870000Y-72520000D01*
X55870000Y-71580000D02*
X57730000Y-71580000D01*
X55870000Y-72520000D02*
X55870000Y-71580000D01*
X57730000Y-71580000D02*
X57730000Y-72520000D01*
%TO.C,D4*%
X55800000Y-50940000D02*
X59300000Y-50940000D01*
X59300000Y-50940000D02*
X59300000Y-57940000D01*
X59300000Y-57940000D02*
X55800000Y-57940000D01*
X55800000Y-57940000D02*
X55800000Y-50940000D01*
D16*
%TO.C,L2*%
X60212500Y-69200000D02*
X58012500Y-69200000D01*
X60212500Y-66200000D02*
X60212500Y-69200000D01*
X58012500Y-66200000D02*
X60212500Y-66200000D01*
X58012500Y-69200000D02*
X58012500Y-66200000D01*
D15*
%TO.C,R1*%
X66267500Y-60620000D02*
X66267500Y-62080000D01*
X63307500Y-60620000D02*
X66267500Y-60620000D01*
X63307500Y-62080000D02*
X63307500Y-60620000D01*
X66267500Y-62080000D02*
X63307500Y-62080000D01*
%TO.C,U15*%
X62630000Y-30700000D02*
X56430000Y-30700000D01*
X56430000Y-36900000D02*
X62630000Y-36900000D01*
X62630000Y-36900000D02*
X62630000Y-30700000D01*
X56430000Y-30700000D02*
X56430000Y-36900000D01*
%TO.C,R14*%
X25520000Y-41170000D02*
X23660000Y-41170000D01*
X23660000Y-40230000D02*
X25520000Y-40230000D01*
X25520000Y-40230000D02*
X25520000Y-41170000D01*
X23660000Y-41170000D02*
X23660000Y-40230000D01*
%TO.C,D7*%
X36170000Y-60750000D02*
X36170000Y-57350000D01*
X32330000Y-57350000D02*
X32330000Y-60750000D01*
X32330000Y-60750000D02*
X36170000Y-60750000D01*
X36170000Y-57350000D02*
X32330000Y-57350000D01*
%TO.C,D3*%
X55950000Y-58190000D02*
X62950000Y-58190000D01*
X62950000Y-58190000D02*
X62950000Y-61690000D01*
X55950000Y-61690000D02*
X55950000Y-58190000D01*
X62950000Y-61690000D02*
X55950000Y-61690000D01*
%TO.C,C2*%
X62762500Y-65820000D02*
X66162500Y-65820000D01*
X66162500Y-65820000D02*
X66162500Y-67780000D01*
X62762500Y-67780000D02*
X62762500Y-65820000D01*
X66162500Y-67780000D02*
X62762500Y-67780000D01*
%TO.C,D2*%
X45080000Y-80200000D02*
X45080000Y-82100000D01*
X45080000Y-82100000D02*
X41720000Y-82100000D01*
X41720000Y-82100000D02*
X41720000Y-80200000D01*
X41720000Y-80200000D02*
X45080000Y-80200000D01*
%TO.C,C3*%
X67612500Y-78040000D02*
X64212500Y-78040000D01*
X64212500Y-78040000D02*
X64212500Y-76080000D01*
X67612500Y-76080000D02*
X67612500Y-78040000D01*
X64212500Y-76080000D02*
X67612500Y-76080000D01*
%TO.C,C16*%
X27760000Y-41390000D02*
X27760000Y-43210000D01*
X27760000Y-43210000D02*
X26840000Y-43210000D01*
X26840000Y-43210000D02*
X26840000Y-41390000D01*
X26840000Y-41390000D02*
X27760000Y-41390000D01*
%TO.C,U7*%
X39480000Y-51900000D02*
X32080000Y-51900000D01*
X39480000Y-57300000D02*
X39480000Y-51900000D01*
X32080000Y-57300000D02*
X39480000Y-57300000D01*
X32080000Y-51900000D02*
X32080000Y-57300000D01*
%TO.C,C20*%
X61950000Y-75250000D02*
X61950000Y-78550000D01*
X57050000Y-78550000D02*
X57050000Y-75250000D01*
X57050000Y-75250000D02*
X61950000Y-75250000D01*
X61950000Y-78550000D02*
X57050000Y-78550000D01*
%TO.C,U1*%
X62150000Y-62200000D02*
X62150000Y-65600000D01*
X66250000Y-65600000D02*
X66250000Y-62200000D01*
X66250000Y-62200000D02*
X62150000Y-62200000D01*
X62150000Y-65600000D02*
X66250000Y-65600000D01*
%TO.C,C26*%
X58590000Y-41040000D02*
X60410000Y-41040000D01*
X60410000Y-41040000D02*
X60410000Y-41960000D01*
X60410000Y-41960000D02*
X58590000Y-41960000D01*
X58590000Y-41960000D02*
X58590000Y-41040000D01*
D16*
%TO.C,U9*%
X41162500Y-70140000D02*
X45362500Y-70140000D01*
X45362500Y-72340000D02*
X41162500Y-72340000D01*
X45362500Y-70140000D02*
X45362500Y-72340000D01*
X41162500Y-72340000D02*
X41162500Y-70140000D01*
D15*
%TO.C,J11*%
X66560000Y-39620000D02*
X75980000Y-39620000D01*
X66560000Y-28980000D02*
X75980000Y-28980000D01*
X75980000Y-39620000D02*
X75980000Y-28980000D01*
X66560000Y-39620000D02*
X66560000Y-28980000D01*
%TO.C,D1*%
X49980000Y-82150000D02*
X46620000Y-82150000D01*
X46620000Y-80250000D02*
X49980000Y-80250000D01*
X46620000Y-82150000D02*
X46620000Y-80250000D01*
X49980000Y-80250000D02*
X49980000Y-82150000D01*
%TO.C,C18*%
X32210000Y-36640000D02*
X34030000Y-36640000D01*
X34030000Y-36640000D02*
X34030000Y-37560000D01*
X32210000Y-37560000D02*
X32210000Y-36640000D01*
X34030000Y-37560000D02*
X32210000Y-37560000D01*
%TO.C,J6*%
X27200000Y-62850000D02*
X27200000Y-49950000D01*
X18600000Y-62850000D02*
X27200000Y-62850000D01*
X18600000Y-49950000D02*
X18600000Y-62850000D01*
X27200000Y-49950000D02*
X18600000Y-49950000D01*
%TO.C,SW2*%
X66900000Y-41500000D02*
X72900000Y-41500000D01*
X72900000Y-41500000D02*
X72900000Y-50100000D01*
X72900000Y-50100000D02*
X66900000Y-50100000D01*
X66900000Y-50100000D02*
X66900000Y-41500000D01*
%TO.C,R4*%
X51580000Y-52780000D02*
X51580000Y-50920000D01*
X52520000Y-50920000D02*
X52520000Y-52780000D01*
X52520000Y-52780000D02*
X51580000Y-52780000D01*
X51580000Y-50920000D02*
X52520000Y-50920000D01*
%TO.C,R10*%
X38980000Y-48470000D02*
X39920000Y-48470000D01*
X38980000Y-50330000D02*
X38980000Y-48470000D01*
X39920000Y-48470000D02*
X39920000Y-50330000D01*
X39920000Y-50330000D02*
X38980000Y-50330000D01*
D16*
%TO.C,U5*%
X22930000Y-36450000D02*
X26930000Y-36450000D01*
X22930000Y-32450000D02*
X22930000Y-36450000D01*
X26930000Y-36450000D02*
X26930000Y-32450000D01*
X26930000Y-32450000D02*
X22930000Y-32450000D01*
D15*
%TO.C,R12*%
X23530000Y-38870000D02*
X21670000Y-38870000D01*
X21670000Y-38870000D02*
X21670000Y-37930000D01*
X23530000Y-37930000D02*
X23530000Y-38870000D01*
X21670000Y-37930000D02*
X23530000Y-37930000D01*
%TO.C,R25*%
X61820000Y-38930000D02*
X61820000Y-37070000D01*
X61820000Y-37070000D02*
X62760000Y-37070000D01*
X62760000Y-38930000D02*
X61820000Y-38930000D01*
X62760000Y-37070000D02*
X62760000Y-38930000D01*
%TO.C,C11*%
X57710000Y-70460000D02*
X55890000Y-70460000D01*
X55890000Y-70460000D02*
X55890000Y-69540000D01*
X55890000Y-69540000D02*
X57710000Y-69540000D01*
X57710000Y-69540000D02*
X57710000Y-70460000D01*
%TO.C,R17*%
X46232500Y-60110000D02*
X46232500Y-61970000D01*
X45292500Y-61970000D02*
X45292500Y-60110000D01*
X46232500Y-61970000D02*
X45292500Y-61970000D01*
X45292500Y-60110000D02*
X46232500Y-60110000D01*
%TO.C,Q1*%
X58290000Y-37080000D02*
X58290000Y-40920000D01*
X61690000Y-40920000D02*
X61690000Y-37080000D01*
X61690000Y-37080000D02*
X58290000Y-37080000D01*
X58290000Y-40920000D02*
X61690000Y-40920000D01*
%TO.C,R9*%
X33930000Y-45530000D02*
X33930000Y-46470000D01*
X32070000Y-46470000D02*
X32070000Y-45530000D01*
X32070000Y-45530000D02*
X33930000Y-45530000D01*
X33930000Y-46470000D02*
X32070000Y-46470000D01*
%TO.C,U3*%
X34150000Y-48255000D02*
X53650000Y-48255000D01*
X53650000Y-28025000D02*
X53650000Y-48255000D01*
X53650000Y-28025000D02*
X58150000Y-28025000D01*
X58150000Y-16745000D02*
X58150000Y-28025000D01*
X29650000Y-28025000D02*
X34150000Y-28025000D01*
X34150000Y-48255000D02*
X34150000Y-28025000D01*
X29650000Y-16745000D02*
X29650000Y-28025000D01*
X29650000Y-16745000D02*
X58150000Y-16745000D01*
%TO.C,R22*%
X37230000Y-68840000D02*
X37230000Y-66980000D01*
X38170000Y-66980000D02*
X38170000Y-68840000D01*
X38170000Y-68840000D02*
X37230000Y-68840000D01*
X37230000Y-66980000D02*
X38170000Y-66980000D01*
%TO.C,Q2*%
X62990000Y-35980000D02*
X62990000Y-39820000D01*
X66390000Y-39820000D02*
X66390000Y-35980000D01*
X62990000Y-39820000D02*
X66390000Y-39820000D01*
X66390000Y-35980000D02*
X62990000Y-35980000D01*
%TO.C,C7*%
X32190000Y-31360000D02*
X32190000Y-30440000D01*
X34010000Y-31360000D02*
X32190000Y-31360000D01*
X32190000Y-30440000D02*
X34010000Y-30440000D01*
X34010000Y-30440000D02*
X34010000Y-31360000D01*
%TO.C,C4*%
X50470000Y-57340000D02*
X50470000Y-53940000D01*
X50470000Y-53940000D02*
X52430000Y-53940000D01*
X52430000Y-57340000D02*
X50470000Y-57340000D01*
X52430000Y-53940000D02*
X52430000Y-57340000D01*
%TO.C,C23*%
X62920000Y-30860000D02*
X62920000Y-29940000D01*
X62920000Y-29940000D02*
X64740000Y-29940000D01*
X64740000Y-30860000D02*
X62920000Y-30860000D01*
X64740000Y-29940000D02*
X64740000Y-30860000D01*
%TO.C,U8*%
X26750000Y-41300000D02*
X26750000Y-43900000D01*
X26750000Y-43900000D02*
X23650000Y-43900000D01*
X23650000Y-43900000D02*
X23650000Y-41300000D01*
X23650000Y-41300000D02*
X26750000Y-41300000D01*
%TO.C,R16*%
X46470000Y-72690000D02*
X45530000Y-72690000D01*
X45530000Y-70830000D02*
X46470000Y-70830000D01*
X46470000Y-70830000D02*
X46470000Y-72690000D01*
X45530000Y-72690000D02*
X45530000Y-70830000D01*
%TO.C,C5*%
X59932500Y-65650000D02*
X59932500Y-62250000D01*
X59932500Y-62250000D02*
X61892500Y-62250000D01*
X61892500Y-62250000D02*
X61892500Y-65650000D01*
X61892500Y-65650000D02*
X59932500Y-65650000D01*
D16*
%TO.C,U6*%
X23700000Y-39900000D02*
X26700000Y-39900000D01*
X23700000Y-36900000D02*
X23700000Y-39900000D01*
X26700000Y-39900000D02*
X26700000Y-36900000D01*
X26700000Y-36900000D02*
X23700000Y-36900000D01*
%TO.C,L1*%
X52550000Y-57340000D02*
X52550000Y-55140000D01*
X52550000Y-55140000D02*
X55550000Y-55140000D01*
X55550000Y-57340000D02*
X52550000Y-57340000D01*
X55550000Y-55140000D02*
X55550000Y-57340000D01*
D15*
%TO.C,R15*%
X26980000Y-44920000D02*
X25120000Y-44920000D01*
X25120000Y-43980000D02*
X26980000Y-43980000D01*
X25120000Y-44920000D02*
X25120000Y-43980000D01*
X26980000Y-43980000D02*
X26980000Y-44920000D01*
%TO.C,R6*%
X51370000Y-79370000D02*
X51370000Y-78430000D01*
X53230000Y-79370000D02*
X51370000Y-79370000D01*
X51370000Y-78430000D02*
X53230000Y-78430000D01*
X53230000Y-78430000D02*
X53230000Y-79370000D01*
%TO.C,R20*%
X32160000Y-38570000D02*
X32160000Y-37630000D01*
X32160000Y-37630000D02*
X34020000Y-37630000D01*
X34020000Y-38570000D02*
X32160000Y-38570000D01*
X34020000Y-37630000D02*
X34020000Y-38570000D01*
%TO.C,D5*%
X59400000Y-57940000D02*
X59400000Y-50940000D01*
X62900000Y-57940000D02*
X59400000Y-57940000D01*
X62900000Y-50940000D02*
X62900000Y-57940000D01*
X59400000Y-50940000D02*
X62900000Y-50940000D01*
%TO.C,Y1*%
X41930000Y-58450000D02*
X41930000Y-54450000D01*
X39630000Y-58450000D02*
X41930000Y-58450000D01*
X39630000Y-54450000D02*
X41930000Y-54450000D01*
X39630000Y-58450000D02*
X39630000Y-54450000D01*
%TO.C,U13*%
X37150000Y-70080000D02*
X37150000Y-66680000D01*
X33050000Y-70080000D02*
X37150000Y-70080000D01*
X33050000Y-66680000D02*
X33050000Y-70080000D01*
X37150000Y-66680000D02*
X33050000Y-66680000D01*
%TO.C,C15*%
X31020000Y-56930000D02*
X31020000Y-55110000D01*
X31940000Y-56930000D02*
X31020000Y-56930000D01*
X31940000Y-55110000D02*
X31940000Y-56930000D01*
X31020000Y-55110000D02*
X31940000Y-55110000D01*
%TO.C,C24*%
X64740000Y-30940000D02*
X64740000Y-31860000D01*
X64740000Y-31860000D02*
X62920000Y-31860000D01*
X62920000Y-30940000D02*
X64740000Y-30940000D01*
X62920000Y-31860000D02*
X62920000Y-30940000D01*
%TO.C,J4*%
X67700000Y-50650000D02*
X67700000Y-57550000D01*
X67700000Y-57550000D02*
X76300000Y-57550000D01*
X76300000Y-57550000D02*
X76300000Y-50650000D01*
X76300000Y-50650000D02*
X67700000Y-50650000D01*
%TO.C,R26*%
X61860000Y-40970000D02*
X61860000Y-40030000D01*
X61860000Y-40030000D02*
X63720000Y-40030000D01*
X63720000Y-40030000D02*
X63720000Y-40970000D01*
X63720000Y-40970000D02*
X61860000Y-40970000D01*
%TO.C,C17*%
X42360000Y-74300000D02*
X41440000Y-74300000D01*
X41440000Y-74300000D02*
X41440000Y-72480000D01*
X41440000Y-72480000D02*
X42360000Y-72480000D01*
X42360000Y-72480000D02*
X42360000Y-74300000D01*
%TO.C,U14*%
X41112500Y-62240000D02*
X45212500Y-62240000D01*
X41112500Y-58840000D02*
X41112500Y-62240000D01*
X45212500Y-58840000D02*
X41112500Y-58840000D01*
X45212500Y-62240000D02*
X45212500Y-58840000D01*
%TO.C,U10*%
X45212500Y-65840000D02*
X45212500Y-62440000D01*
X41112500Y-62440000D02*
X41112500Y-65840000D01*
X45212500Y-62440000D02*
X41112500Y-62440000D01*
X41112500Y-65840000D02*
X45212500Y-65840000D01*
%TO.C,C22*%
X64740000Y-29860000D02*
X62920000Y-29860000D01*
X62920000Y-28940000D02*
X64740000Y-28940000D01*
X62920000Y-29860000D02*
X62920000Y-28940000D01*
X64740000Y-28940000D02*
X64740000Y-29860000D01*
%TO.C,H1*%
X26450000Y-25000000D02*
G75*
G03*
X26450000Y-25000000I-2450000J0D01*
G01*
%TO.C,J7*%
X27200000Y-62950000D02*
X18600000Y-62950000D01*
X27200000Y-75850000D02*
X27200000Y-62950000D01*
X18600000Y-75850000D02*
X27200000Y-75850000D01*
X18600000Y-62950000D02*
X18600000Y-75850000D01*
%TO.C,R5*%
X32150000Y-32530000D02*
X34010000Y-32530000D01*
X32150000Y-33470000D02*
X32150000Y-32530000D01*
X34010000Y-33470000D02*
X32150000Y-33470000D01*
X34010000Y-32530000D02*
X34010000Y-33470000D01*
%TO.C,C21*%
X57100000Y-82170000D02*
X60500000Y-82170000D01*
X60500000Y-84130000D02*
X57100000Y-84130000D01*
X57100000Y-84130000D02*
X57100000Y-82170000D01*
X60500000Y-82170000D02*
X60500000Y-84130000D01*
%TO.C,U12*%
X45212500Y-69340000D02*
X45212500Y-65940000D01*
X41112500Y-65940000D02*
X41112500Y-69340000D01*
X41112500Y-69340000D02*
X45212500Y-69340000D01*
X45212500Y-65940000D02*
X41112500Y-65940000D01*
%TO.C,R19*%
X40992500Y-70570000D02*
X40992500Y-71510000D01*
X39132500Y-71510000D02*
X39132500Y-70570000D01*
X40992500Y-71510000D02*
X39132500Y-71510000D01*
X39132500Y-70570000D02*
X40992500Y-70570000D01*
%TO.C,R13*%
X39560000Y-53480000D02*
X41420000Y-53480000D01*
X41420000Y-54420000D02*
X39560000Y-54420000D01*
X39560000Y-54420000D02*
X39560000Y-53480000D01*
X41420000Y-53480000D02*
X41420000Y-54420000D01*
%TO.C,R23*%
X60060000Y-30430000D02*
X60060000Y-28570000D01*
X61000000Y-30430000D02*
X60060000Y-30430000D01*
X61000000Y-28570000D02*
X61000000Y-30430000D01*
X60060000Y-28570000D02*
X61000000Y-28570000D01*
%TO.C,D6*%
X51920000Y-80250000D02*
X55280000Y-80250000D01*
X55280000Y-80250000D02*
X55280000Y-82150000D01*
X55280000Y-82150000D02*
X51920000Y-82150000D01*
X51920000Y-82150000D02*
X51920000Y-80250000D01*
%TO.C,C13*%
X25710000Y-32160000D02*
X23890000Y-32160000D01*
X25710000Y-31240000D02*
X25710000Y-32160000D01*
X23890000Y-31240000D02*
X25710000Y-31240000D01*
X23890000Y-32160000D02*
X23890000Y-31240000D01*
%TO.C,C8*%
X32190000Y-30360000D02*
X32190000Y-29440000D01*
X34010000Y-30360000D02*
X32190000Y-30360000D01*
X32190000Y-29440000D02*
X34010000Y-29440000D01*
X34010000Y-29440000D02*
X34010000Y-30360000D01*
%TO.C,R3*%
X52680000Y-52780000D02*
X52680000Y-50920000D01*
X52680000Y-50920000D02*
X53620000Y-50920000D01*
X53620000Y-50920000D02*
X53620000Y-52780000D01*
X53620000Y-52780000D02*
X52680000Y-52780000D01*
%TO.C,C1*%
X63050000Y-81450000D02*
X63050000Y-78150000D01*
X67950000Y-78150000D02*
X67950000Y-81450000D01*
X63050000Y-78150000D02*
X67950000Y-78150000D01*
X67950000Y-81450000D02*
X63050000Y-81450000D01*
%TO.C,C14*%
X23330000Y-39050000D02*
X23330000Y-42450000D01*
X23330000Y-42450000D02*
X21370000Y-42450000D01*
X21370000Y-42450000D02*
X21370000Y-39050000D01*
X21370000Y-39050000D02*
X23330000Y-39050000D01*
%TO.C,D8*%
X63000000Y-32700000D02*
X66400000Y-32700000D01*
X66400000Y-35900000D02*
X66400000Y-32700000D01*
X66400000Y-35900000D02*
X63000000Y-35900000D01*
X63000000Y-32700000D02*
X63000000Y-35900000D01*
%TO.C,C12*%
X60332500Y-69350000D02*
X60332500Y-65950000D01*
X60332500Y-65950000D02*
X62292500Y-65950000D01*
X62292500Y-65950000D02*
X62292500Y-69350000D01*
X62292500Y-69350000D02*
X60332500Y-69350000D01*
%TO.C,R18*%
X40980000Y-72520000D02*
X39120000Y-72520000D01*
X39120000Y-72520000D02*
X39120000Y-71580000D01*
X40980000Y-71580000D02*
X40980000Y-72520000D01*
X39120000Y-71580000D02*
X40980000Y-71580000D01*
%TO.C,C19*%
X57100000Y-82100000D02*
X57100000Y-78800000D01*
X62000000Y-82100000D02*
X57100000Y-82100000D01*
X57100000Y-78800000D02*
X62000000Y-78800000D01*
X62000000Y-78800000D02*
X62000000Y-82100000D01*
%TO.C,C10*%
X32190000Y-31540000D02*
X34010000Y-31540000D01*
X34010000Y-31540000D02*
X34010000Y-32460000D01*
X34010000Y-32460000D02*
X32190000Y-32460000D01*
X32190000Y-32460000D02*
X32190000Y-31540000D01*
%TD*%
M02*
