M48
; DRILL file {KiCad (6.0.9)} date Sun Jul 16 00:03:46 2023
; FORMAT={-:-/ absolute / metric / decimal}
; #@! TF.CreationDate,2023-07-16T00:03:46+05:30
; #@! TF.GenerationSoftware,Kicad,Pcbnew,(6.0.9)
; #@! TF.FileFunction,Plated,1,2,PTH
FMAT,2
METRIC
; #@! TA.AperFunction,Plated,PTH,ViaDrill
T1C0.300
; #@! TA.AperFunction,Plated,PTH,ComponentDrill
T2C0.300
; #@! TA.AperFunction,Plated,PTH,ComponentDrill
T3C0.600
; #@! TA.AperFunction,Plated,PTH,ComponentDrill
T4C0.750
; #@! TA.AperFunction,Plated,PTH,ComponentDrill
T5C0.800
; #@! TA.AperFunction,Plated,PTH,ComponentDrill
T6C1.400
%
G90
G05
T1
X22.4Y-42.8
X23.056Y-46.5
X24.5Y-45.4
X25.3Y-30.6
X26.0Y-40.6
X27.0Y-38.4
X27.3Y-43.5
X27.4Y-60.4
X27.4Y-70.2
X27.4Y-73.4
X28.5Y-56.7
X29.227Y-56.7
X30.0Y-56.7
X30.727Y-56.7
X31.2Y-42.1
X31.4Y-58.6
X31.48Y-54.68
X31.5Y-32.0
X31.8Y-43.0
X31.9Y-49.16
X31.9Y-50.14
X32.127Y-58.6
X32.4Y-45.1
X32.6Y-36.2
X33.5Y-61.2
X35.1Y-49.5
X35.1Y-62.7
X35.15Y-47.8
X36.1Y-47.8
X36.1Y-49.5
X36.1Y-51.244
X36.2Y-66.1
X36.405Y-29.495
X36.7Y-52.7
X36.7Y-60.0
X36.9Y-47.8
X36.9Y-49.5
X36.9Y-51.3
X38.2Y-45.9
X38.5Y-73.3
X39.3Y-66.7
X39.4Y-73.3
X39.75Y-69.05
X39.9Y-68.3
X40.0Y-91.1
X40.15Y-73.3
X40.5Y-65.5
X40.6Y-64.25
X40.8Y-68.3
X41.0Y-73.9
X41.3Y-76.9
X42.0Y-69.75
X42.0Y-91.027
X42.5Y-30.8
X43.0Y-91.0
X43.8Y-58.8
X44.0Y-74.55
X44.0Y-85.7
X44.5Y-30.8
X45.0Y-91.027
X45.21Y-49.91
X45.7Y-63.2
X46.9Y-57.9
X46.9Y-61.6
X47.0Y-66.7
X47.17Y-72.27
X47.2Y-49.2
X48.45Y-83.692
X48.6Y-69.7
X49.3Y-48.7
X50.0Y-66.8
X50.55Y-58.8
X51.277Y-58.8
X51.3Y-65.5
X51.357Y-51.657
X51.4Y-53.6
X52.003Y-58.8
X52.5Y-65.5
X53.0Y-71.7
X53.0Y-74.8
X53.0Y-91.027
X53.2Y-63.5
X53.6Y-78.9
X54.35Y-43.5
X54.35Y-46.495
X54.6Y-78.9
X54.7Y-48.8
X55.1Y-43.5
X55.1Y-46.495
X55.3Y-28.5
X55.3Y-29.5
X55.3Y-30.8
X55.3Y-32.8
X55.3Y-35.2
X55.827Y-43.5
X55.827Y-46.495
X56.0Y-54.4
X56.0Y-91.0
X56.553Y-43.5
X57.0Y-65.3
X57.05Y-61.55
X57.3Y-43.5
X57.9Y-37.8
X57.9Y-38.527
X58.0Y-85.5
X58.0Y-86.3
X58.15Y-72.05
X58.2Y-32.5
X58.2Y-35.1
X58.2Y-69.7
X58.2Y-70.4
X58.2Y-71.1
X58.3Y-67.7
X58.7Y-33.8
X59.02Y-39.82
X59.3Y-64.9
X59.5Y-28.2
X60.171Y-38.021
X60.2Y-33.8
X60.2Y-37.296
X60.8Y-32.5
X60.8Y-35.1
X61.0Y-40.4
X62.2Y-31.6
X62.2Y-61.7
X62.5Y-80.4
X62.5Y-81.0
X62.7Y-78.5
X62.9Y-76.1
X62.9Y-77.0
X63.0Y-71.3
X63.35Y-56.0
X63.35Y-56.7
X63.35Y-57.4
X63.7Y-71.9
X63.95Y-32.45
X64.2Y-68.6
X64.7Y-36.4
X64.9Y-69.4
X65.6Y-47.6
X65.6Y-70.0
X66.5Y-40.6
X69.0Y-34.55
X69.05Y-33.56
X71.8Y-47.7
T2
X41.695Y-36.072
X41.695Y-37.597
X42.457Y-35.31
X42.457Y-36.835
X42.457Y-38.36
X43.22Y-36.072
X43.22Y-37.597
X43.982Y-35.31
X43.982Y-36.835
X43.982Y-38.36
X44.745Y-36.072
X44.745Y-37.597
T4
X25.35Y-52.4
X25.35Y-54.4
X25.35Y-56.4
X25.35Y-58.4
X25.35Y-60.4
X25.35Y-65.4
X25.35Y-67.4
X25.35Y-69.4
X25.35Y-71.4
X25.35Y-73.4
X69.55Y-53.1
X69.55Y-55.1
T5
X68.725Y-61.6
X68.725Y-63.6
X69.725Y-59.55
X69.725Y-65.65
X71.725Y-59.55
X71.725Y-65.65
T6
X22.505Y-78.985
X22.505Y-82.485
X22.505Y-85.985
X22.505Y-89.485
X72.5Y-73.695
X72.5Y-77.505
X72.5Y-81.495
X72.5Y-85.305
T3
G00X68.15Y-29.98
M15
G01X69.25Y-29.98
M16
G05
G00X68.15Y-38.62
M15
G01X69.25Y-38.62
M16
G05
G00X72.58Y-29.98
M15
G01X73.18Y-29.98
M16
G05
G00X72.58Y-38.62
M15
G01X73.18Y-38.62
M16
G05
T0
M30
