solid Input Panel Mounter
facet normal 0.07170772462675185 0.3759050566772967 0.923879532511297
  outer loop
    vertex 303.7695623083491 616.7577097476451 6.027756813566469
    vertex 300.9053432821335 617.7214896898333 5.857926095308632
    vertex 300.82851551468457 617.3187444287389 6.027756813566502
  endloop
endfacet
facet normal 0.07170772462675185 0.3759050566772967 0.923879532511297
  outer loop
    vertex 300.9053432821335 617.7214896898333 5.857926095308632
    vertex 303.7695623083491 616.7577097476451 6.027756813566469
    vertex 303.84639007579807 617.1604550087396 5.85792609530861
  endloop
endfacet
facet normal 0.1486595918347302 0.7793008714910986 -0.6087614290087255
  outer loop
    vertex 300.7119187684186 616.7075228798525 8.350000000000048
    vertex 303.70358880878797 616.4118645514569 8.70208152801715
    vertex 303.65296556208324 616.1464881987587 8.35000000000002
  endloop
endfacet
facet normal 0.1486595918347302 0.7793008714910986 -0.6087614290087255
  outer loop
    vertex 303.70358880878797 616.4118645514569 8.70208152801715
    vertex 300.7119187684186 616.7075228798525 8.350000000000048
    vertex 300.76254201512336 616.9728992325505 8.702081528017178
  endloop
endfacet
facet normal -0.07170772462674355 -0.3759050566772973 -0.9238795325112972
  outer loop
    vertex 301.1470637494803 618.9886327549776 8.972243186433593
    vertex 304.0112827756959 618.0248528127895 9.142073904691458
    vertex 301.07023598203136 618.5858874938832 9.142073904691463
  endloop
endfacet
facet normal -0.07170772462674355 -0.3759050566772973 -0.9238795325112972
  outer loop
    vertex 304.0112827756959 618.0248528127895 9.142073904691458
    vertex 301.1470637494803 618.9886327549776 8.972243186433593
    vertex 304.08811054314486 618.4275980738839 8.972243186433598
  endloop
endfacet
facet normal 0.17311776132078913 0.9075150859949953 0.38268343236515345
  outer loop
    vertex 300.6800956651744 616.5407003305256 7.060007623325763
    vertex 303.65296556208324 616.1464881987587 6.650000000000064
    vertex 300.7119187684186 616.7075228798525 6.650000000000047
  endloop
endfacet
facet normal 0.17311776132078913 0.9075150859949953 0.38268343236515345
  outer loop
    vertex 303.65296556208324 616.1464881987587 6.650000000000064
    vertex 300.6800956651744 616.5407003305256 7.060007623325763
    vertex 303.6211424588391 615.9796656494319 7.06000762332578
  endloop
endfacet
facet normal -0.14865959183474903 -0.7793008714910956 -0.6087614290087248
  outer loop
    vertex 304.1540840427061 618.7734432700722 8.702081528017173
    vertex 301.2636604957462 619.599854303864 8.350000000000048
    vertex 304.2047072894108 619.0388196227703 8.350000000000039
  endloop
endfacet
facet normal -0.14865959183474903 -0.7793008714910956 -0.6087614290087248
  outer loop
    vertex 301.2636604957462 619.599854303864 8.350000000000048
    vertex 304.1540840427061 618.7734432700722 8.702081528017173
    vertex 301.21303724904146 619.334477951166 8.702081528017178
  endloop
endfacet
facet normal 0.18577824146347738 0.9738836471279596 -0.13052619222011339
  outer loop
    vertex 300.6692413972867 616.4838002656195 7.500000000000048
    vertex 303.6211424588391 615.9796656494319 7.939992376674325
    vertex 303.6102881909513 615.9227655845257 7.500000000000045
  endloop
endfacet
facet normal 0.18577824146347738 0.9738836471279596 -0.13052619222011339
  outer loop
    vertex 303.6211424588391 615.9796656494319 7.939992376674325
    vertex 300.6692413972867 616.4838002656195 7.500000000000048
    vertex 300.6800956651744 616.5407003305256 7.939992376674334
  endloop
endfacet
facet normal 0.11407051683675357 0.5979785904506671 0.7933533402912157
  outer loop
    vertex 303.70358880878797 616.4118645514569 6.2979184719828725
    vertex 300.82851551468457 617.3187444287389 6.027756813566502
    vertex 300.76254201512336 616.9728992325505 6.297918471982917
  endloop
endfacet
facet normal 0.11407051683675357 0.5979785904506671 0.7933533402912157
  outer loop
    vertex 300.82851551468457 617.3187444287389 6.027756813566502
    vertex 303.70358880878797 616.4118645514569 6.2979184719828725
    vertex 303.7695623083491 616.7577097476451 6.027756813566469
  endloop
endfacet
facet normal 0.17311776132078904 0.907515085994993 -0.38268343236515884
  outer loop
    vertex 300.6800956651744 616.5407003305256 7.939992376674334
    vertex 303.65296556208324 616.1464881987587 8.35000000000002
    vertex 303.6211424588391 615.9796656494319 7.939992376674325
  endloop
endfacet
facet normal 0.17311776132078904 0.907515085994993 -0.38268343236515884
  outer loop
    vertex 303.65296556208324 616.1464881987587 8.35000000000002
    vertex 300.6800956651744 616.5407003305256 7.939992376674334
    vertex 300.7119187684186 616.7075228798525 8.350000000000048
  endloop
endfacet
facet normal -0.024458169486065273 -0.1282142145039288 -0.9914448613738092
  outer loop
    vertex 301.07023598203136 618.5858874938832 9.142073904691463
    vertex 303.928836425747 617.5926539107645 9.200000000000047
    vertex 300.9877896320824 618.1536885918582 9.200000000000047
  endloop
endfacet
facet normal -0.024458169486065273 -0.1282142145039288 -0.9914448613738092
  outer loop
    vertex 303.928836425747 617.5926539107645 9.200000000000047
    vertex 301.07023598203136 618.5858874938832 9.142073904691463
    vertex 304.0112827756959 618.0248528127895 9.142073904691458
  endloop
endfacet
facet normal -0.1486595918347635 -0.7793008714910912 0.6087614290087271
  outer loop
    vertex 304.1540840427061 618.7734432700722 6.297918471982939
    vertex 301.2636604957462 619.599854303864 6.650000000000047
    vertex 301.21303724904146 619.334477951166 6.297918471982916
  endloop
endfacet
facet normal -0.1486595918347635 -0.7793008714910912 0.6087614290087271
  outer loop
    vertex 301.2636604957462 619.599854303864 6.650000000000047
    vertex 304.1540840427061 618.7734432700722 6.297918471982939
    vertex 304.2047072894108 619.0388196227702 6.65000000000007
  endloop
endfacet
facet normal 0.02445816948606299 0.12821421450392215 -0.99144486137381
  outer loop
    vertex 300.9877896320824 618.1536885918582 9.200000000000047
    vertex 303.84639007579807 617.1604550087396 9.142073904691458
    vertex 300.9053432821335 617.7214896898333 9.142073904691463
  endloop
endfacet
facet normal 0.02445816948606299 0.12821421450392215 -0.99144486137381
  outer loop
    vertex 303.84639007579807 617.1604550087396 9.142073904691458
    vertex 300.9877896320824 618.1536885918582 9.200000000000047
    vertex 303.928836425747 617.5926539107645 9.200000000000047
  endloop
endfacet
facet normal 0.1486595918347533 0.7793008714911449 0.6087614290086607
  outer loop
    vertex 300.76254201512336 616.9728992325505 6.297918471982917
    vertex 303.65296556208324 616.1464881987587 6.650000000000064
    vertex 303.70358880878797 616.4118645514569 6.2979184719828725
  endloop
endfacet
facet normal 0.1486595918347533 0.7793008714911449 0.6087614290086607
  outer loop
    vertex 303.65296556208324 616.1464881987587 6.650000000000064
    vertex 300.76254201512336 616.9728992325505 6.297918471982917
    vertex 300.7119187684186 616.7075228798525 6.650000000000047
  endloop
endfacet
facet normal -0.07170772462675633 -0.3759050566773163 0.9238795325112886
  outer loop
    vertex 304.0112827756959 618.0248528127895 5.857926095308655
    vertex 301.1470637494803 618.9886327549776 6.027756813566502
    vertex 301.07023598203136 618.5858874938832 5.857926095308632
  endloop
endfacet
facet normal -0.07170772462675633 -0.3759050566773163 0.9238795325112886
  outer loop
    vertex 301.1470637494803 618.9886327549776 6.027756813566502
    vertex 304.0112827756959 618.0248528127895 5.857926095308655
    vertex 304.08811054314486 618.4275980738839 6.027756813566537
  endloop
endfacet
facet normal -0.114070516836747 -0.5979785904506862 -0.7933533402912023
  outer loop
    vertex 301.21303724904146 619.334477951166 8.702081528017178
    vertex 304.08811054314486 618.4275980738839 8.972243186433598
    vertex 301.1470637494803 618.9886327549776 8.972243186433593
  endloop
endfacet
facet normal -0.114070516836747 -0.5979785904506862 -0.7933533402912023
  outer loop
    vertex 304.08811054314486 618.4275980738839 8.972243186433598
    vertex 301.21303724904146 619.334477951166 8.702081528017178
    vertex 304.1540840427061 618.7734432700722 8.702081528017173
  endloop
endfacet
facet normal -0.17311776132080572 -0.90751508599499 -0.3826834323651581
  outer loop
    vertex 304.2047072894108 619.0388196227703 8.350000000000039
    vertex 301.2954835989904 619.7666768531909 7.939992376674331
    vertex 304.236530392655 619.2056421720972 7.939992376674331
  endloop
endfacet
facet normal -0.17311776132080572 -0.90751508599499 -0.3826834323651581
  outer loop
    vertex 301.2954835989904 619.7666768531909 7.939992376674331
    vertex 304.2047072894108 619.0388196227703 8.350000000000039
    vertex 301.2636604957462 619.599854303864 8.350000000000048
  endloop
endfacet
facet normal -0.024458169486072014 -0.12821421450395853 0.991444861373805
  outer loop
    vertex 303.928836425747 617.5926539107645 5.800000000000036
    vertex 301.07023598203136 618.5858874938832 5.857926095308632
    vertex 300.9877896320824 618.1536885918582 5.800000000000048
  endloop
endfacet
facet normal -0.024458169486072014 -0.12821421450395853 0.991444861373805
  outer loop
    vertex 301.07023598203136 618.5858874938832 5.857926095308632
    vertex 303.928836425747 617.5926539107645 5.800000000000036
    vertex 304.0112827756959 618.0248528127895 5.857926095308655
  endloop
endfacet
facet normal -0.1140705168367603 -0.5979785904506909 0.7933533402911969
  outer loop
    vertex 304.08811054314486 618.4275980738839 6.027756813566537
    vertex 301.21303724904146 619.334477951166 6.297918471982916
    vertex 301.1470637494803 618.9886327549776 6.027756813566502
  endloop
endfacet
facet normal -0.1140705168367603 -0.5979785904506909 0.7933533402911969
  outer loop
    vertex 301.21303724904146 619.334477951166 6.297918471982916
    vertex 304.08811054314486 618.4275980738839 6.027756813566537
    vertex 304.1540840427061 618.7734432700722 6.297918471982939
  endloop
endfacet
facet normal 0.07170772462675082 -0.37590505667737634 0.9238795325112645
  outer loop
    vertex 300.9053432821335 649.6298065144034 5.85792609530863
    vertex 303.7695623083491 650.5935864565917 6.02775681356656
    vertex 300.82851551468457 650.0325517754978 6.0277568135665005
  endloop
endfacet
facet normal 0.07170772462675082 -0.37590505667737634 0.9238795325112645
  outer loop
    vertex 303.7695623083491 650.5935864565917 6.02775681356656
    vertex 300.9053432821335 649.6298065144034 5.85792609530863
    vertex 303.84639007579807 650.1908411954971 5.857926095308638
  endloop
endfacet
facet normal 0.024458169486062532 -0.12821421450392195 0.99144486137381
  outer loop
    vertex 300.9877896320824 649.1976076123784 5.800000000000047
    vertex 303.84639007579807 650.1908411954971 5.857926095308638
    vertex 300.9053432821335 649.6298065144034 5.85792609530863
  endloop
endfacet
facet normal 0.024458169486062532 -0.12821421450392195 0.99144486137381
  outer loop
    vertex 303.84639007579807 650.1908411954971 5.857926095308638
    vertex 300.9877896320824 649.1976076123784 5.800000000000047
    vertex 303.92883642574697 649.7586422934722 5.800000000000053
  endloop
endfacet
facet normal 0.14865959183474622 -0.7793008714910967 -0.608761429008724
  outer loop
    vertex 303.70358880878797 650.9394316527798 8.702081528017173
    vertex 300.7119187684186 650.6437733243843 8.350000000000044
    vertex 303.65296556208324 651.2048080054781 8.350000000000039
  endloop
endfacet
facet normal 0.14865959183474622 -0.7793008714910967 -0.608761429008724
  outer loop
    vertex 300.7119187684186 650.6437733243843 8.350000000000044
    vertex 303.70358880878797 650.9394316527798 8.702081528017173
    vertex 300.76254201512336 650.3783969716861 8.702081528017175
  endloop
endfacet
facet normal -0.9822872507286885 -0.18738131458572618 0.0
  outer loop
    vertex 301.96434854979503 644.0783064879556 13.000000000000002
    vertex 301.2636604957462 647.7514419003727 8.350000000000048
    vertex 301.96434854979503 644.0783064879556 0.0
  endloop
endfacet
facet normal -0.9822872507286885 -0.18738131458572618 0.0
  outer loop
    vertex 301.2636604957462 647.7514419003727 8.350000000000048
    vertex 301.96434854979503 644.0783064879556 13.000000000000002
    vertex 301.21303724904146 648.0168182530707 8.702081528017178
  endloop
endfacet
facet normal -0.9822872507286885 -0.18738131458572618 0.0
  outer loop
    vertex 301.21303724904146 648.0168182530707 8.702081528017178
    vertex 301.96434854979503 644.0783064879556 13.000000000000002
    vertex 301.1470637494803 648.362663449259 8.972243186433593
  endloop
endfacet
facet normal -0.9822872507286885 -0.18738131458572618 0.0
  outer loop
    vertex 301.1470637494803 648.362663449259 8.972243186433593
    vertex 301.96434854979503 644.0783064879556 13.000000000000002
    vertex 300.01123071436973 654.3169087368012 13.000000000000002
  endloop
endfacet
facet normal -0.9822872507286885 -0.18738131458572618 0.0
  outer loop
    vertex 301.96434854979503 644.0783064879556 0.0
    vertex 301.2636604957462 647.7514419003727 8.350000000000048
    vertex 301.2954835989904 647.5846193510458 7.939992376674331
  endloop
endfacet
facet normal -0.9822872507286885 -0.18738131458572618 0.0
  outer loop
    vertex 301.96434854979503 644.0783064879556 0.0
    vertex 301.2954835989904 647.5846193510458 7.939992376674331
    vertex 301.30633786687815 647.5277192861397 7.500000000000045
  endloop
endfacet
facet normal -0.9822872507286885 -0.18738131458572618 0.0
  outer loop
    vertex 301.1470637494803 648.362663449259 8.972243186433593
    vertex 300.01123071436973 654.3169087368012 13.000000000000002
    vertex 301.07023598203136 648.7654087103535 9.142073904691461
  endloop
endfacet
facet normal -0.9822872507286885 -0.18738131458572618 0.0
  outer loop
    vertex 301.07023598203136 648.7654087103535 9.142073904691461
    vertex 300.01123071436973 654.3169087368012 13.000000000000002
    vertex 300.9877896320824 649.1976076123784 9.200000000000045
  endloop
endfacet
facet normal -0.9822872507286885 -0.18738131458572618 0.0
  outer loop
    vertex 300.9877896320824 649.1976076123784 9.200000000000045
    vertex 300.01123071436973 654.3169087368012 13.000000000000002
    vertex 300.9053432821335 649.6298065144034 9.142073904691461
  endloop
endfacet
facet normal -0.9822872507286885 -0.18738131458572618 0.0
  outer loop
    vertex 300.9053432821335 649.6298065144034 9.142073904691461
    vertex 300.01123071436973 654.3169087368012 13.000000000000002
    vertex 300.82851551468457 650.0325517754978 8.97224318643359
  endloop
endfacet
facet normal -0.9822872507286885 -0.18738131458572618 0.0
  outer loop
    vertex 300.82851551468457 650.0325517754978 8.97224318643359
    vertex 300.01123071436973 654.3169087368012 13.000000000000002
    vertex 300.76254201512336 650.3783969716861 8.702081528017175
  endloop
endfacet
facet normal -0.9822872507286885 -0.18738131458572618 0.0
  outer loop
    vertex 300.76254201512336 650.3783969716861 8.702081528017175
    vertex 300.01123071436973 654.3169087368012 13.000000000000002
    vertex 300.7119187684186 650.6437733243843 8.350000000000044
  endloop
endfacet
facet normal -0.9822872507286885 -0.18738131458572618 0.0
  outer loop
    vertex 300.7119187684186 650.6437733243843 8.350000000000044
    vertex 300.01123071436973 654.3169087368012 13.000000000000002
    vertex 300.6800956651744 650.8105958737111 7.939992376674331
  endloop
endfacet
facet normal -0.9822872507286885 -0.18738131458572618 0.0
  outer loop
    vertex 300.6800956651744 650.8105958737111 7.939992376674331
    vertex 300.01123071436973 654.3169087368012 13.000000000000002
    vertex 300.6692413972867 650.8674959386173 7.500000000000045
  endloop
endfacet
facet normal -0.9822872507286885 -0.18738131458572618 0.0
  outer loop
    vertex 301.96434854979503 644.0783064879556 0.0
    vertex 301.21303724904146 648.0168182530707 6.297918471982916
    vertex 300.01123071436973 654.3169087368012 0.0
  endloop
endfacet
facet normal -0.9822872507286885 -0.18738131458572618 0.0
  outer loop
    vertex 301.21303724904146 648.0168182530707 6.297918471982916
    vertex 301.96434854979503 644.0783064879556 0.0
    vertex 301.2636604957462 647.7514419003727 6.650000000000047
  endloop
endfacet
facet normal -0.9822872507286885 -0.18738131458572618 0.0
  outer loop
    vertex 301.2636604957462 647.7514419003727 6.650000000000047
    vertex 301.96434854979503 644.0783064879556 0.0
    vertex 301.2954835989904 647.5846193510458 7.0600076233257605
  endloop
endfacet
facet normal -0.9822872507286885 -0.18738131458572618 0.0
  outer loop
    vertex 301.2954835989904 647.5846193510458 7.0600076233257605
    vertex 301.96434854979503 644.0783064879556 0.0
    vertex 301.30633786687815 647.5277192861397 7.500000000000045
  endloop
endfacet
facet normal -0.9822872507286885 -0.18738131458572618 0.0
  outer loop
    vertex 300.01123071436973 654.3169087368012 0.0
    vertex 301.21303724904146 648.0168182530707 6.297918471982916
    vertex 301.1470637494803 648.362663449259 6.027756813566501
  endloop
endfacet
facet normal -0.9822872507286885 -0.18738131458572618 0.0
  outer loop
    vertex 300.01123071436973 654.3169087368012 0.0
    vertex 301.1470637494803 648.362663449259 6.027756813566501
    vertex 301.07023598203136 648.7654087103535 5.857926095308631
  endloop
endfacet
facet normal -0.9822872507286885 -0.18738131458572618 0.0
  outer loop
    vertex 300.01123071436973 654.3169087368012 0.0
    vertex 301.07023598203136 648.7654087103535 5.857926095308631
    vertex 300.9877896320824 649.1976076123784 5.800000000000047
  endloop
endfacet
facet normal -0.9822872507286885 -0.18738131458572618 0.0
  outer loop
    vertex 300.01123071436973 654.3169087368012 0.0
    vertex 300.9877896320824 649.1976076123784 5.800000000000047
    vertex 300.9053432821335 649.6298065144034 5.85792609530863
  endloop
endfacet
facet normal -0.9822872507286885 -0.18738131458572618 0.0
  outer loop
    vertex 300.01123071436973 654.3169087368012 0.0
    vertex 300.9053432821335 649.6298065144034 5.85792609530863
    vertex 300.82851551468457 650.0325517754978 6.0277568135665005
  endloop
endfacet
facet normal -0.9822872507286885 -0.18738131458572618 0.0
  outer loop
    vertex 300.01123071436973 654.3169087368012 0.0
    vertex 300.82851551468457 650.0325517754978 6.0277568135665005
    vertex 300.76254201512336 650.3783969716861 6.297918471982915
  endloop
endfacet
facet normal -0.9822872507286885 -0.18738131458572618 0.0
  outer loop
    vertex 300.01123071436973 654.3169087368012 0.0
    vertex 300.76254201512336 650.3783969716861 6.297918471982915
    vertex 300.7119187684186 650.6437733243843 6.650000000000044
  endloop
endfacet
facet normal -0.9822872507286885 -0.18738131458572618 0.0
  outer loop
    vertex 300.01123071436973 654.3169087368012 0.0
    vertex 300.7119187684186 650.6437733243843 6.650000000000044
    vertex 300.6800956651744 650.8105958737111 7.0600076233257605
  endloop
endfacet
facet normal -0.9822872507286885 -0.18738131458572618 0.0
  outer loop
    vertex 300.01123071436973 654.3169087368012 0.0
    vertex 300.6800956651744 650.8105958737111 7.0600076233257605
    vertex 300.6692413972867 650.8674959386173 7.500000000000045
  endloop
endfacet
facet normal -0.9822872507286885 -0.18738131458572618 0.0
  outer loop
    vertex 300.01123071436973 654.3169087368012 0.0
    vertex 300.6692413972867 650.8674959386173 7.500000000000045
    vertex 300.01123071436973 654.3169087368012 13.000000000000002
  endloop
endfacet
facet normal -0.024458169486062685 0.12821421450392814 -0.9914448613738092
  outer loop
    vertex 303.928836425747 649.7586422934722 9.200000000000054
    vertex 301.07023598203136 648.7654087103535 9.142073904691461
    vertex 300.9877896320824 649.1976076123784 9.200000000000045
  endloop
endfacet
facet normal -0.024458169486062685 0.12821421450392814 -0.9914448613738092
  outer loop
    vertex 301.07023598203136 648.7654087103535 9.142073904691461
    vertex 303.928836425747 649.7586422934722 9.200000000000054
    vertex 304.0112827756959 649.3264433914471 9.142073904691458
  endloop
endfacet
facet normal -0.18577824146348915 0.9738836471279781 0.13052619221995704
  outer loop
    vertex 301.2954835989904 647.5846193510458 7.0600076233257605
    vertex 304.2473846605427 648.0887539672334 7.50000000000004
    vertex 304.236530392655 648.1456540321394 7.060007623325746
  endloop
endfacet
facet normal -0.18577824146348915 0.9738836471279781 0.13052619221995704
  outer loop
    vertex 304.2473846605427 648.0887539672334 7.50000000000004
    vertex 301.2954835989904 647.5846193510458 7.0600076233257605
    vertex 301.30633786687815 647.5277192861397 7.500000000000045
  endloop
endfacet
facet normal 0.17311776132081186 -0.9075150859949507 -0.38268343236524854
  outer loop
    vertex 303.621142458839 651.3716305548049 7.939992376674342
    vertex 300.7119187684186 650.6437733243843 8.350000000000044
    vertex 300.6800956651744 650.8105958737111 7.939992376674331
  endloop
endfacet
facet normal 0.17311776132081186 -0.9075150859949507 -0.38268343236524854
  outer loop
    vertex 300.7119187684186 650.6437733243843 8.350000000000044
    vertex 303.621142458839 651.3716305548049 7.939992376674342
    vertex 303.65296556208324 651.2048080054781 8.350000000000039
  endloop
endfacet
facet normal -0.17311776132078974 0.907515085994995 0.38268343236515334
  outer loop
    vertex 301.2636604957462 647.7514419003727 6.650000000000047
    vertex 304.236530392655 648.1456540321394 7.060007623325746
    vertex 304.2047072894108 648.3124765814663 6.6500000000000306
  endloop
endfacet
facet normal -0.17311776132078974 0.907515085994995 0.38268343236515334
  outer loop
    vertex 304.236530392655 648.1456540321394 7.060007623325746
    vertex 301.2636604957462 647.7514419003727 6.650000000000047
    vertex 301.2954835989904 647.5846193510458 7.0600076233257605
  endloop
endfacet
facet normal 0.18577824146351646 -0.9738836471279592 -0.13052619222006145
  outer loop
    vertex 303.6102881909513 651.4285306197111 7.500000000000057
    vertex 300.6800956651744 650.8105958737111 7.939992376674331
    vertex 300.6692413972867 650.8674959386173 7.500000000000045
  endloop
endfacet
facet normal 0.18577824146351646 -0.9738836471279592 -0.13052619222006145
  outer loop
    vertex 300.6800956651744 650.8105958737111 7.939992376674331
    vertex 303.6102881909513 651.4285306197111 7.500000000000057
    vertex 303.621142458839 651.3716305548049 7.939992376674342
  endloop
endfacet
facet normal -0.1486595918347448 0.7793008714910972 -0.6087614290087239
  outer loop
    vertex 301.21303724904146 648.0168182530707 8.702081528017178
    vertex 304.2047072894108 648.3124765814664 8.350000000000058
    vertex 301.2636604957462 647.7514419003727 8.350000000000048
  endloop
endfacet
facet normal -0.1486595918347448 0.7793008714910972 -0.6087614290087239
  outer loop
    vertex 304.2047072894108 648.3124765814664 8.350000000000058
    vertex 301.21303724904146 648.0168182530707 8.702081528017178
    vertex 304.1540840427061 648.5778529341645 8.702081528017196
  endloop
endfacet
facet normal -0.1731177613208039 0.9075150859949924 -0.38268343236515323
  outer loop
    vertex 301.2636604957462 647.7514419003727 8.350000000000048
    vertex 304.236530392655 648.1456540321395 7.939992376674342
    vertex 301.2954835989904 647.5846193510458 7.939992376674331
  endloop
endfacet
facet normal -0.1731177613208039 0.9075150859949924 -0.38268343236515323
  outer loop
    vertex 304.236530392655 648.1456540321395 7.939992376674342
    vertex 301.2636604957462 647.7514419003727 8.350000000000048
    vertex 304.2047072894108 648.3124765814664 8.350000000000058
  endloop
endfacet
facet normal -0.9822872507286887 0.18738131458572463 0.0
  outer loop
    vertex 300.01123071436973 613.0343874674355 13.000000000000002
    vertex 300.7119187684186 616.7075228798525 8.350000000000048
    vertex 300.01123071436973 613.0343874674355 0.0
  endloop
endfacet
facet normal -0.9822872507286887 0.18738131458572463 0.0
  outer loop
    vertex 300.7119187684186 616.7075228798525 8.350000000000048
    vertex 300.01123071436973 613.0343874674355 13.000000000000002
    vertex 300.76254201512336 616.9728992325505 8.702081528017178
  endloop
endfacet
facet normal -0.9822872507286887 0.18738131458572463 0.0
  outer loop
    vertex 300.76254201512336 616.9728992325505 8.702081528017178
    vertex 300.01123071436973 613.0343874674355 13.000000000000002
    vertex 300.82851551468457 617.3187444287389 8.972243186433593
  endloop
endfacet
facet normal -0.9822872507286887 0.18738131458572463 0.0
  outer loop
    vertex 300.82851551468457 617.3187444287389 8.972243186433593
    vertex 300.01123071436973 613.0343874674355 13.000000000000002
    vertex 301.96434854979503 623.2729897162811 13.000000000000002
  endloop
endfacet
facet normal -0.9822872507286887 0.18738131458572463 0.0
  outer loop
    vertex 300.01123071436973 613.0343874674355 0.0
    vertex 300.7119187684186 616.7075228798525 8.350000000000048
    vertex 300.6800956651744 616.5407003305256 7.939992376674334
  endloop
endfacet
facet normal -0.9822872507286887 0.18738131458572463 0.0
  outer loop
    vertex 300.01123071436973 613.0343874674355 0.0
    vertex 300.6800956651744 616.5407003305256 7.939992376674334
    vertex 300.6692413972867 616.4838002656195 7.500000000000048
  endloop
endfacet
facet normal -0.9822872507286887 0.18738131458572463 0.0
  outer loop
    vertex 300.82851551468457 617.3187444287389 8.972243186433593
    vertex 301.96434854979503 623.2729897162811 13.000000000000002
    vertex 300.9053432821335 617.7214896898333 9.142073904691463
  endloop
endfacet
facet normal -0.9822872507286887 0.18738131458572463 0.0
  outer loop
    vertex 300.9053432821335 617.7214896898333 9.142073904691463
    vertex 301.96434854979503 623.2729897162811 13.000000000000002
    vertex 300.9877896320824 618.1536885918582 9.200000000000047
  endloop
endfacet
facet normal -0.9822872507286887 0.18738131458572463 0.0
  outer loop
    vertex 300.9877896320824 618.1536885918582 9.200000000000047
    vertex 301.96434854979503 623.2729897162811 13.000000000000002
    vertex 301.07023598203136 618.5858874938832 9.142073904691463
  endloop
endfacet
facet normal -0.9822872507286887 0.18738131458572463 0.0
  outer loop
    vertex 301.07023598203136 618.5858874938832 9.142073904691463
    vertex 301.96434854979503 623.2729897162811 13.000000000000002
    vertex 301.1470637494803 618.9886327549776 8.972243186433593
  endloop
endfacet
facet normal -0.9822872507286887 0.18738131458572463 0.0
  outer loop
    vertex 301.1470637494803 618.9886327549776 8.972243186433593
    vertex 301.96434854979503 623.2729897162811 13.000000000000002
    vertex 301.21303724904146 619.334477951166 8.702081528017178
  endloop
endfacet
facet normal -0.9822872507286887 0.18738131458572463 0.0
  outer loop
    vertex 301.21303724904146 619.334477951166 8.702081528017178
    vertex 301.96434854979503 623.2729897162811 13.000000000000002
    vertex 301.2636604957462 619.599854303864 8.350000000000048
  endloop
endfacet
facet normal -0.9822872507286887 0.18738131458572463 0.0
  outer loop
    vertex 301.2636604957462 619.599854303864 8.350000000000048
    vertex 301.96434854979503 623.2729897162811 13.000000000000002
    vertex 301.2954835989904 619.7666768531909 7.939992376674331
  endloop
endfacet
facet normal -0.9822872507286887 0.18738131458572463 0.0
  outer loop
    vertex 301.2954835989904 619.7666768531909 7.939992376674331
    vertex 301.96434854979503 623.2729897162811 13.000000000000002
    vertex 301.30633786687815 619.823576918097 7.500000000000048
  endloop
endfacet
facet normal -0.9822872507286887 0.18738131458572463 0.0
  outer loop
    vertex 300.01123071436973 613.0343874674355 0.0
    vertex 300.76254201512336 616.9728992325505 6.297918471982917
    vertex 301.96434854979503 623.2729897162811 0.0
  endloop
endfacet
facet normal -0.9822872507286887 0.18738131458572463 0.0
  outer loop
    vertex 300.76254201512336 616.9728992325505 6.297918471982917
    vertex 300.01123071436973 613.0343874674355 0.0
    vertex 300.7119187684186 616.7075228798525 6.650000000000047
  endloop
endfacet
facet normal -0.9822872507286887 0.18738131458572463 0.0
  outer loop
    vertex 300.7119187684186 616.7075228798525 6.650000000000047
    vertex 300.01123071436973 613.0343874674355 0.0
    vertex 300.6800956651744 616.5407003305256 7.060007623325763
  endloop
endfacet
facet normal -0.9822872507286887 0.18738131458572463 0.0
  outer loop
    vertex 300.6800956651744 616.5407003305256 7.060007623325763
    vertex 300.01123071436973 613.0343874674355 0.0
    vertex 300.6692413972867 616.4838002656195 7.500000000000048
  endloop
endfacet
facet normal -0.9822872507286887 0.18738131458572463 0.0
  outer loop
    vertex 301.96434854979503 623.2729897162811 0.0
    vertex 300.76254201512336 616.9728992325505 6.297918471982917
    vertex 300.82851551468457 617.3187444287389 6.027756813566502
  endloop
endfacet
facet normal -0.9822872507286887 0.18738131458572463 0.0
  outer loop
    vertex 301.96434854979503 623.2729897162811 0.0
    vertex 300.82851551468457 617.3187444287389 6.027756813566502
    vertex 300.9053432821335 617.7214896898333 5.857926095308632
  endloop
endfacet
facet normal -0.9822872507286887 0.18738131458572463 0.0
  outer loop
    vertex 301.96434854979503 623.2729897162811 0.0
    vertex 300.9053432821335 617.7214896898333 5.857926095308632
    vertex 300.9877896320824 618.1536885918582 5.800000000000048
  endloop
endfacet
facet normal -0.9822872507286887 0.18738131458572463 0.0
  outer loop
    vertex 301.96434854979503 623.2729897162811 0.0
    vertex 300.9877896320824 618.1536885918582 5.800000000000048
    vertex 301.07023598203136 618.5858874938832 5.857926095308632
  endloop
endfacet
facet normal -0.9822872507286887 0.18738131458572463 0.0
  outer loop
    vertex 301.96434854979503 623.2729897162811 0.0
    vertex 301.07023598203136 618.5858874938832 5.857926095308632
    vertex 301.1470637494803 618.9886327549776 6.027756813566502
  endloop
endfacet
facet normal -0.9822872507286887 0.18738131458572463 0.0
  outer loop
    vertex 301.96434854979503 623.2729897162811 0.0
    vertex 301.1470637494803 618.9886327549776 6.027756813566502
    vertex 301.21303724904146 619.334477951166 6.297918471982916
  endloop
endfacet
facet normal -0.9822872507286887 0.18738131458572463 0.0
  outer loop
    vertex 301.96434854979503 623.2729897162811 0.0
    vertex 301.21303724904146 619.334477951166 6.297918471982916
    vertex 301.2636604957462 619.599854303864 6.650000000000047
  endloop
endfacet
facet normal -0.9822872507286887 0.18738131458572463 0.0
  outer loop
    vertex 301.96434854979503 623.2729897162811 0.0
    vertex 301.2636604957462 619.599854303864 6.650000000000047
    vertex 301.2954835989904 619.7666768531909 7.0600076233257605
  endloop
endfacet
facet normal -0.9822872507286887 0.18738131458572463 0.0
  outer loop
    vertex 301.96434854979503 623.2729897162811 0.0
    vertex 301.2954835989904 619.7666768531909 7.0600076233257605
    vertex 301.30633786687815 619.823576918097 7.500000000000048
  endloop
endfacet
facet normal -0.9822872507286887 0.18738131458572463 0.0
  outer loop
    vertex 301.96434854979503 623.2729897162811 0.0
    vertex 301.30633786687815 619.823576918097 7.500000000000048
    vertex 301.96434854979503 623.2729897162811 13.000000000000002
  endloop
endfacet
facet normal -0.9980267284282717 0.06279051952931416 0.0
  outer loop
    vertex 302.61882834069337 633.6756481021183 13.000000000000002
    vertex 301.96434854979503 623.2729897162811 0.0
    vertex 301.96434854979503 623.2729897162811 13.000000000000002
  endloop
endfacet
facet normal -0.9980267284282717 0.06279051952931416 0.0
  outer loop
    vertex 301.96434854979503 623.2729897162811 0.0
    vertex 302.61882834069337 633.6756481021183 13.000000000000002
    vertex 302.61882834069337 633.6756481021183 0.0
  endloop
endfacet
facet normal 0.9822872507286894 0.18738131458572174 0.0
  outer loop
    vertex 304.9406926537384 644.4543061886485 0.0
    vertex 304.2047072894108 648.3124765814663 6.6500000000000306
    vertex 304.9406926537384 644.4543061886485 13.000000000000002
  endloop
endfacet
facet normal 0.9822872507286894 0.18738131458572174 0.0
  outer loop
    vertex 304.2047072894108 648.3124765814663 6.6500000000000306
    vertex 304.9406926537384 644.4543061886485 0.0
    vertex 304.1540840427061 648.5778529341645 6.297918471982947
  endloop
endfacet
facet normal 0.9822872507286894 0.18738131458572174 0.0
  outer loop
    vertex 304.1540840427061 648.5778529341645 6.297918471982947
    vertex 304.9406926537384 644.4543061886485 0.0
    vertex 302.9169801977556 655.062978398296 0.0
  endloop
endfacet
facet normal 0.9822872507286894 0.18738131458572174 0.0
  outer loop
    vertex 304.9406926537384 644.4543061886485 13.000000000000002
    vertex 304.2047072894108 648.3124765814663 6.6500000000000306
    vertex 304.236530392655 648.1456540321394 7.060007623325746
  endloop
endfacet
facet normal 0.9822872507286894 0.18738131458572174 0.0
  outer loop
    vertex 304.9406926537384 644.4543061886485 13.000000000000002
    vertex 304.236530392655 648.1456540321394 7.060007623325746
    vertex 304.2473846605427 648.0887539672334 7.50000000000004
  endloop
endfacet
facet normal 0.9822872507286894 0.18738131458572174 0.0
  outer loop
    vertex 304.1540840427061 648.5778529341645 6.297918471982947
    vertex 302.9169801977556 655.062978398296 0.0
    vertex 304.08811054314486 648.9236981303528 6.027756813566515
  endloop
endfacet
facet normal 0.9822872507286894 0.18738131458572174 0.0
  outer loop
    vertex 304.08811054314486 648.9236981303528 6.027756813566515
    vertex 302.9169801977556 655.062978398296 0.0
    vertex 304.0112827756959 649.3264433914474 5.857926095308632
  endloop
endfacet
facet normal 0.9822872507286894 0.18738131458572174 0.0
  outer loop
    vertex 304.0112827756959 649.3264433914474 5.857926095308632
    vertex 302.9169801977556 655.062978398296 0.0
    vertex 303.92883642574697 649.7586422934722 5.800000000000053
  endloop
endfacet
facet normal 0.9822872507286894 0.18738131458572174 0.0
  outer loop
    vertex 303.92883642574697 649.7586422934722 5.800000000000053
    vertex 302.9169801977556 655.062978398296 0.0
    vertex 303.84639007579807 650.1908411954971 5.857926095308638
  endloop
endfacet
facet normal 0.9822872507286894 0.18738131458572174 0.0
  outer loop
    vertex 303.84639007579807 650.1908411954971 5.857926095308638
    vertex 302.9169801977556 655.062978398296 0.0
    vertex 303.7695623083491 650.5935864565917 6.02775681356656
  endloop
endfacet
facet normal 0.9822872507286894 0.18738131458572174 0.0
  outer loop
    vertex 303.7695623083491 650.5935864565917 6.02775681356656
    vertex 302.9169801977556 655.062978398296 0.0
    vertex 303.70358880878797 650.9394316527798 6.297918471982963
  endloop
endfacet
facet normal 0.9822872507286894 0.18738131458572174 0.0
  outer loop
    vertex 303.70358880878797 650.9394316527798 6.297918471982963
    vertex 302.9169801977556 655.062978398296 0.0
    vertex 303.65296556208324 651.2048080054781 6.65000000000007
  endloop
endfacet
facet normal 0.9822872507286894 0.18738131458572174 0.0
  outer loop
    vertex 303.65296556208324 651.2048080054781 6.65000000000007
    vertex 302.9169801977556 655.062978398296 0.0
    vertex 303.621142458839 651.3716305548048 7.0600076233257605
  endloop
endfacet
facet normal 0.9822872507286894 0.18738131458572174 0.0
  outer loop
    vertex 303.621142458839 651.3716305548048 7.0600076233257605
    vertex 302.9169801977556 655.062978398296 0.0
    vertex 303.6102881909513 651.4285306197111 7.500000000000057
  endloop
endfacet
facet normal 0.9822872507286894 0.18738131458572174 0.0
  outer loop
    vertex 304.9406926537384 644.4543061886485 13.000000000000002
    vertex 304.08811054314486 648.9236981303528 8.972243186433621
    vertex 302.9169801977556 655.062978398296 13.000000000000002
  endloop
endfacet
facet normal 0.9822872507286894 0.18738131458572174 0.0
  outer loop
    vertex 304.08811054314486 648.9236981303528 8.972243186433621
    vertex 304.9406926537384 644.4543061886485 13.000000000000002
    vertex 304.1540840427061 648.5778529341645 8.702081528017196
  endloop
endfacet
facet normal 0.9822872507286894 0.18738131458572174 0.0
  outer loop
    vertex 304.1540840427061 648.5778529341645 8.702081528017196
    vertex 304.9406926537384 644.4543061886485 13.000000000000002
    vertex 304.2047072894108 648.3124765814664 8.350000000000058
  endloop
endfacet
facet normal 0.9822872507286894 0.18738131458572174 0.0
  outer loop
    vertex 304.2047072894108 648.3124765814664 8.350000000000058
    vertex 304.9406926537384 644.4543061886485 13.000000000000002
    vertex 304.236530392655 648.1456540321395 7.939992376674342
  endloop
endfacet
facet normal 0.9822872507286894 0.18738131458572174 0.0
  outer loop
    vertex 304.236530392655 648.1456540321395 7.939992376674342
    vertex 304.9406926537384 644.4543061886485 13.000000000000002
    vertex 304.2473846605427 648.0887539672334 7.50000000000004
  endloop
endfacet
facet normal 0.9822872507286894 0.18738131458572174 0.0
  outer loop
    vertex 302.9169801977556 655.062978398296 13.000000000000002
    vertex 304.08811054314486 648.9236981303528 8.972243186433621
    vertex 304.0112827756959 649.3264433914471 9.142073904691458
  endloop
endfacet
facet normal 0.9822872507286894 0.18738131458572174 0.0
  outer loop
    vertex 302.9169801977556 655.062978398296 13.000000000000002
    vertex 304.0112827756959 649.3264433914471 9.142073904691458
    vertex 303.928836425747 649.7586422934722 9.200000000000054
  endloop
endfacet
facet normal 0.9822872507286894 0.18738131458572174 0.0
  outer loop
    vertex 302.9169801977556 655.062978398296 13.000000000000002
    vertex 303.928836425747 649.7586422934722 9.200000000000054
    vertex 303.84639007579807 650.1908411954971 9.142073904691452
  endloop
endfacet
facet normal 0.9822872507286894 0.18738131458572174 0.0
  outer loop
    vertex 302.9169801977556 655.062978398296 13.000000000000002
    vertex 303.84639007579807 650.1908411954971 9.142073904691452
    vertex 303.7695623083491 650.5935864565917 8.972243186433621
  endloop
endfacet
facet normal 0.9822872507286894 0.18738131458572174 0.0
  outer loop
    vertex 302.9169801977556 655.062978398296 13.000000000000002
    vertex 303.7695623083491 650.5935864565917 8.972243186433621
    vertex 303.70358880878797 650.9394316527798 8.702081528017173
  endloop
endfacet
facet normal 0.9822872507286894 0.18738131458572174 0.0
  outer loop
    vertex 302.9169801977556 655.062978398296 13.000000000000002
    vertex 303.70358880878797 650.9394316527798 8.702081528017173
    vertex 303.65296556208324 651.2048080054781 8.350000000000039
  endloop
endfacet
facet normal 0.9822872507286894 0.18738131458572174 0.0
  outer loop
    vertex 302.9169801977556 655.062978398296 13.000000000000002
    vertex 303.65296556208324 651.2048080054781 8.350000000000039
    vertex 303.621142458839 651.3716305548049 7.939992376674342
  endloop
endfacet
facet normal 0.9822872507286894 0.18738131458572174 0.0
  outer loop
    vertex 302.9169801977556 655.062978398296 13.000000000000002
    vertex 303.621142458839 651.3716305548049 7.939992376674342
    vertex 303.6102881909513 651.4285306197111 7.500000000000057
  endloop
endfacet
facet normal 0.9822872507286894 0.18738131458572174 0.0
  outer loop
    vertex 302.9169801977556 655.062978398296 13.000000000000002
    vertex 303.6102881909513 651.4285306197111 7.500000000000057
    vertex 302.9169801977556 655.062978398296 0.0
  endloop
endfacet
facet normal 0.9822872507286889 -0.18738131458572324 0.0
  outer loop
    vertex 302.9169801977556 612.2883178059409 0.0
    vertex 303.65296556208324 616.1464881987587 6.650000000000064
    vertex 302.9169801977556 612.2883178059409 13.000000000000002
  endloop
endfacet
facet normal 0.9822872507286889 -0.18738131458572324 0.0
  outer loop
    vertex 303.65296556208324 616.1464881987587 6.650000000000064
    vertex 302.9169801977556 612.2883178059409 0.0
    vertex 303.70358880878797 616.4118645514569 6.2979184719828725
  endloop
endfacet
facet normal 0.9822872507286889 -0.18738131458572324 0.0
  outer loop
    vertex 303.70358880878797 616.4118645514569 6.2979184719828725
    vertex 302.9169801977556 612.2883178059409 0.0
    vertex 304.9406926537384 622.8969900155882 0.0
  endloop
endfacet
facet normal 0.9822872507286889 -0.18738131458572324 0.0
  outer loop
    vertex 302.9169801977556 612.2883178059409 13.000000000000002
    vertex 303.65296556208324 616.1464881987587 6.650000000000064
    vertex 303.6211424588391 615.9796656494319 7.06000762332578
  endloop
endfacet
facet normal 0.9822872507286889 -0.18738131458572324 0.0
  outer loop
    vertex 302.9169801977556 612.2883178059409 13.000000000000002
    vertex 303.6211424588391 615.9796656494319 7.06000762332578
    vertex 303.6102881909513 615.9227655845257 7.500000000000045
  endloop
endfacet
facet normal 0.9822872507286889 -0.18738131458572324 0.0
  outer loop
    vertex 303.70358880878797 616.4118645514569 6.2979184719828725
    vertex 304.9406926537384 622.8969900155882 0.0
    vertex 303.7695623083491 616.7577097476451 6.027756813566469
  endloop
endfacet
facet normal 0.9822872507286889 -0.18738131458572324 0.0
  outer loop
    vertex 303.7695623083491 616.7577097476451 6.027756813566469
    vertex 304.9406926537384 622.8969900155882 0.0
    vertex 303.84639007579807 617.1604550087396 5.85792609530861
  endloop
endfacet
facet normal 0.9822872507286889 -0.18738131458572324 0.0
  outer loop
    vertex 303.84639007579807 617.1604550087396 5.85792609530861
    vertex 304.9406926537384 622.8969900155882 0.0
    vertex 303.928836425747 617.5926539107645 5.800000000000036
  endloop
endfacet
facet normal 0.9822872507286889 -0.18738131458572324 0.0
  outer loop
    vertex 303.928836425747 617.5926539107645 5.800000000000036
    vertex 304.9406926537384 622.8969900155882 0.0
    vertex 304.0112827756959 618.0248528127895 5.857926095308655
  endloop
endfacet
facet normal 0.9822872507286889 -0.18738131458572324 0.0
  outer loop
    vertex 304.0112827756959 618.0248528127895 5.857926095308655
    vertex 304.9406926537384 622.8969900155882 0.0
    vertex 304.08811054314486 618.4275980738839 6.027756813566537
  endloop
endfacet
facet normal 0.9822872507286889 -0.18738131458572324 0.0
  outer loop
    vertex 304.08811054314486 618.4275980738839 6.027756813566537
    vertex 304.9406926537384 622.8969900155882 0.0
    vertex 304.1540840427061 618.7734432700722 6.297918471982939
  endloop
endfacet
facet normal 0.9822872507286889 -0.18738131458572324 0.0
  outer loop
    vertex 304.1540840427061 618.7734432700722 6.297918471982939
    vertex 304.9406926537384 622.8969900155882 0.0
    vertex 304.2047072894108 619.0388196227702 6.65000000000007
  endloop
endfacet
facet normal 0.9822872507286889 -0.18738131458572324 0.0
  outer loop
    vertex 304.2047072894108 619.0388196227702 6.65000000000007
    vertex 304.9406926537384 622.8969900155882 0.0
    vertex 304.236530392655 619.2056421720972 7.0600076233257605
  endloop
endfacet
facet normal 0.9822872507286889 -0.18738131458572324 0.0
  outer loop
    vertex 304.236530392655 619.2056421720972 7.0600076233257605
    vertex 304.9406926537384 622.8969900155882 0.0
    vertex 304.24738466054276 619.2625422370032 7.500000000000045
  endloop
endfacet
facet normal 0.9822872507286889 -0.18738131458572324 0.0
  outer loop
    vertex 302.9169801977556 612.2883178059409 13.000000000000002
    vertex 303.7695623083491 616.7577097476453 8.972243186433598
    vertex 304.9406926537384 622.8969900155882 13.000000000000002
  endloop
endfacet
facet normal 0.9822872507286889 -0.18738131458572324 0.0
  outer loop
    vertex 303.7695623083491 616.7577097476453 8.972243186433598
    vertex 302.9169801977556 612.2883178059409 13.000000000000002
    vertex 303.70358880878797 616.4118645514569 8.70208152801715
  endloop
endfacet
facet normal 0.9822872507286889 -0.18738131458572324 0.0
  outer loop
    vertex 303.70358880878797 616.4118645514569 8.70208152801715
    vertex 302.9169801977556 612.2883178059409 13.000000000000002
    vertex 303.65296556208324 616.1464881987587 8.35000000000002
  endloop
endfacet
facet normal 0.9822872507286889 -0.18738131458572324 0.0
  outer loop
    vertex 303.65296556208324 616.1464881987587 8.35000000000002
    vertex 302.9169801977556 612.2883178059409 13.000000000000002
    vertex 303.6211424588391 615.9796656494319 7.939992376674325
  endloop
endfacet
facet normal 0.9822872507286889 -0.18738131458572324 0.0
  outer loop
    vertex 303.6211424588391 615.9796656494319 7.939992376674325
    vertex 302.9169801977556 612.2883178059409 13.000000000000002
    vertex 303.6102881909513 615.9227655845257 7.500000000000045
  endloop
endfacet
facet normal 0.9822872507286889 -0.18738131458572324 0.0
  outer loop
    vertex 304.9406926537384 622.8969900155882 13.000000000000002
    vertex 303.7695623083491 616.7577097476453 8.972243186433598
    vertex 303.84639007579807 617.1604550087396 9.142073904691458
  endloop
endfacet
facet normal 0.9822872507286889 -0.18738131458572324 0.0
  outer loop
    vertex 304.9406926537384 622.8969900155882 13.000000000000002
    vertex 303.84639007579807 617.1604550087396 9.142073904691458
    vertex 303.928836425747 617.5926539107645 9.200000000000047
  endloop
endfacet
facet normal 0.9822872507286889 -0.18738131458572324 0.0
  outer loop
    vertex 304.9406926537384 622.8969900155882 13.000000000000002
    vertex 303.928836425747 617.5926539107645 9.200000000000047
    vertex 304.0112827756959 618.0248528127895 9.142073904691458
  endloop
endfacet
facet normal 0.9822872507286889 -0.18738131458572324 0.0
  outer loop
    vertex 304.9406926537384 622.8969900155882 13.000000000000002
    vertex 304.0112827756959 618.0248528127895 9.142073904691458
    vertex 304.08811054314486 618.4275980738839 8.972243186433598
  endloop
endfacet
facet normal 0.9822872507286889 -0.18738131458572324 0.0
  outer loop
    vertex 304.9406926537384 622.8969900155882 13.000000000000002
    vertex 304.08811054314486 618.4275980738839 8.972243186433598
    vertex 304.1540840427061 618.7734432700722 8.702081528017173
  endloop
endfacet
facet normal 0.9822872507286889 -0.18738131458572324 0.0
  outer loop
    vertex 304.9406926537384 622.8969900155882 13.000000000000002
    vertex 304.1540840427061 618.7734432700722 8.702081528017173
    vertex 304.2047072894108 619.0388196227703 8.350000000000039
  endloop
endfacet
facet normal 0.9822872507286889 -0.18738131458572324 0.0
  outer loop
    vertex 304.9406926537384 622.8969900155882 13.000000000000002
    vertex 304.2047072894108 619.0388196227703 8.350000000000039
    vertex 304.236530392655 619.2056421720972 7.939992376674331
  endloop
endfacet
facet normal 0.9822872507286889 -0.18738131458572324 0.0
  outer loop
    vertex 304.9406926537384 622.8969900155882 13.000000000000002
    vertex 304.236530392655 619.2056421720972 7.939992376674331
    vertex 304.24738466054276 619.2625422370032 7.500000000000045
  endloop
endfacet
facet normal 0.9822872507286889 -0.18738131458572324 0.0
  outer loop
    vertex 304.9406926537384 622.8969900155882 13.000000000000002
    vertex 304.24738466054276 619.2625422370032 7.500000000000045
    vertex 304.9406926537384 622.8969900155882 0.0
  endloop
endfacet
facet normal 0.9980267284282716 0.06279051952931447 0.0
  outer loop
    vertex 304.9406926537384 644.4543061886485 0.0
    vertex 305.6188283406933 633.6756481021183 13.000000000000002
    vertex 305.6188283406933 633.6756481021183 0.0
  endloop
endfacet
facet normal 0.9980267284282716 0.06279051952931447 0.0
  outer loop
    vertex 305.6188283406933 633.6756481021183 13.000000000000002
    vertex 304.9406926537384 644.4543061886485 0.0
    vertex 304.9406926537384 644.4543061886485 13.000000000000002
  endloop
endfacet
facet normal 0.07170772462674141 -0.37590505667727064 -0.9238795325113082
  outer loop
    vertex 303.7695623083491 650.5935864565917 8.972243186433621
    vertex 300.9053432821335 649.6298065144034 9.142073904691461
    vertex 300.82851551468457 650.0325517754978 8.97224318643359
  endloop
endfacet
facet normal 0.07170772462674141 -0.37590505667727064 -0.9238795325113082
  outer loop
    vertex 300.9053432821335 649.6298065144034 9.142073904691461
    vertex 303.7695623083491 650.5935864565917 8.972243186433621
    vertex 303.84639007579807 650.1908411954971 9.142073904691452
  endloop
endfacet
facet normal -0.07170772462673614 0.37590505667729496 -0.9238795325112988
  outer loop
    vertex 304.0112827756959 649.3264433914471 9.142073904691458
    vertex 301.1470637494803 648.362663449259 8.972243186433593
    vertex 301.07023598203136 648.7654087103535 9.142073904691461
  endloop
endfacet
facet normal -0.07170772462673614 0.37590505667729496 -0.9238795325112988
  outer loop
    vertex 301.1470637494803 648.362663449259 8.972243186433593
    vertex 304.0112827756959 649.3264433914471 9.142073904691458
    vertex 304.08811054314486 648.9236981303528 8.972243186433621
  endloop
endfacet
facet normal -0.07170772462674939 0.3759050566773001 0.9238795325112956
  outer loop
    vertex 301.1470637494803 648.362663449259 6.027756813566501
    vertex 304.0112827756959 649.3264433914474 5.857926095308632
    vertex 301.07023598203136 648.7654087103535 5.857926095308631
  endloop
endfacet
facet normal -0.07170772462674939 0.3759050566773001 0.9238795325112956
  outer loop
    vertex 304.0112827756959 649.3264433914474 5.857926095308632
    vertex 301.1470637494803 648.362663449259 6.027756813566501
    vertex 304.08811054314486 648.9236981303528 6.027756813566515
  endloop
endfacet
facet normal -0.1140705168367411 0.5979785904506874 -0.7933533402912021
  outer loop
    vertex 304.08811054314486 648.9236981303528 8.972243186433621
    vertex 301.21303724904146 648.0168182530707 8.702081528017178
    vertex 301.1470637494803 648.362663449259 8.972243186433593
  endloop
endfacet
facet normal -0.1140705168367411 0.5979785904506874 -0.7933533402912021
  outer loop
    vertex 301.21303724904146 648.0168182530707 8.702081528017178
    vertex 304.08811054314486 648.9236981303528 8.972243186433621
    vertex 304.1540840427061 648.5778529341645 8.702081528017196
  endloop
endfacet
facet normal 0.9980267284282714 -0.06279051952931473 0.0
  outer loop
    vertex 305.6188283406933 633.6756481021183 0.0
    vertex 304.9406926537384 622.8969900155882 13.000000000000002
    vertex 304.9406926537384 622.8969900155882 0.0
  endloop
endfacet
facet normal 0.9980267284282714 -0.06279051952931473 0.0
  outer loop
    vertex 304.9406926537384 622.8969900155882 13.000000000000002
    vertex 305.6188283406933 633.6756481021183 0.0
    vertex 305.6188283406933 633.6756481021183 13.000000000000002
  endloop
endfacet
facet normal 0.173117761320794 -0.9075150859949729 0.382683432365204
  outer loop
    vertex 303.65296556208324 651.2048080054781 6.65000000000007
    vertex 300.6800956651744 650.8105958737111 7.0600076233257605
    vertex 300.7119187684186 650.6437733243843 6.650000000000044
  endloop
endfacet
facet normal 0.173117761320794 -0.9075150859949729 0.382683432365204
  outer loop
    vertex 300.6800956651744 650.8105958737111 7.0600076233257605
    vertex 303.65296556208324 651.2048080054781 6.65000000000007
    vertex 303.621142458839 651.3716305548048 7.0600076233257605
  endloop
endfacet
facet normal -0.1486595918347357 0.7793008714910261 0.6087614290088172
  outer loop
    vertex 301.2636604957462 647.7514419003727 6.650000000000047
    vertex 304.1540840427061 648.5778529341645 6.297918471982947
    vertex 301.21303724904146 648.0168182530707 6.297918471982916
  endloop
endfacet
facet normal -0.1486595918347357 0.7793008714910261 0.6087614290088172
  outer loop
    vertex 304.1540840427061 648.5778529341645 6.297918471982947
    vertex 301.2636604957462 647.7514419003727 6.650000000000047
    vertex 304.2047072894108 648.3124765814663 6.6500000000000306
  endloop
endfacet
facet normal 0.0 0.0 -1.0
  outer loop
    vertex 302.9169801977556 655.062978398296 0.0
    vertex 301.96434854979503 644.0783064879556 0.0
    vertex 300.01123071436973 654.3169087368012 0.0
  endloop
endfacet
facet normal 0.0 0.0 -1.0
  outer loop
    vertex 301.96434854979503 644.0783064879556 0.0
    vertex 302.9169801977556 655.062978398296 0.0
    vertex 302.61882834069337 633.6756481021183 0.0
  endloop
endfacet
facet normal 0.0 0.0 -1.0
  outer loop
    vertex 301.96434854979503 623.2729897162811 0.0
    vertex 302.9169801977556 612.2883178059409 0.0
    vertex 300.01123071436973 613.0343874674355 0.0
  endloop
endfacet
facet normal 0.0 0.0 -1.0
  outer loop
    vertex 302.9169801977556 612.2883178059409 0.0
    vertex 301.96434854979503 623.2729897162811 0.0
    vertex 302.61882834069337 633.6756481021183 0.0
  endloop
endfacet
facet normal 0.0 0.0 -1.0
  outer loop
    vertex 302.9169801977556 612.2883178059409 0.0
    vertex 302.61882834069337 633.6756481021183 0.0
    vertex 302.9169801977556 655.062978398296 0.0
  endloop
endfacet
facet normal 0.0 0.0 -1.0
  outer loop
    vertex 302.9169801977556 612.2883178059409 0.0
    vertex 302.9169801977556 655.062978398296 0.0
    vertex 304.9406926537384 644.4543061886485 0.0
  endloop
endfacet
facet normal 0.0 0.0 -1.0
  outer loop
    vertex 302.9169801977556 612.2883178059409 0.0
    vertex 304.9406926537384 644.4543061886485 0.0
    vertex 304.9406926537384 622.8969900155882 0.0
  endloop
endfacet
facet normal 0.0 0.0 -1.0
  outer loop
    vertex 304.9406926537384 622.8969900155882 0.0
    vertex 304.9406926537384 644.4543061886485 0.0
    vertex 305.6188283406933 633.6756481021183 0.0
  endloop
endfacet
facet normal -0.11407051683676267 0.5979785904507113 0.7933533402911809
  outer loop
    vertex 301.21303724904146 648.0168182530707 6.297918471982916
    vertex 304.08811054314486 648.9236981303528 6.027756813566515
    vertex 301.1470637494803 648.362663449259 6.027756813566501
  endloop
endfacet
facet normal -0.11407051683676267 0.5979785904507113 0.7933533402911809
  outer loop
    vertex 304.08811054314486 648.9236981303528 6.027756813566515
    vertex 301.21303724904146 648.0168182530707 6.297918471982916
    vertex 304.1540840427061 648.5778529341645 6.297918471982947
  endloop
endfacet
facet normal 0.185778241463499 -0.9738836471279495 0.1305261922201574
  outer loop
    vertex 303.6102881909513 651.4285306197111 7.500000000000057
    vertex 300.6800956651744 650.8105958737111 7.0600076233257605
    vertex 303.621142458839 651.3716305548048 7.0600076233257605
  endloop
endfacet
facet normal 0.185778241463499 -0.9738836471279495 0.1305261922201574
  outer loop
    vertex 300.6800956651744 650.8105958737111 7.0600076233257605
    vertex 303.6102881909513 651.4285306197111 7.500000000000057
    vertex 300.6692413972867 650.8674959386173 7.500000000000045
  endloop
endfacet
facet normal -0.024458169486065256 0.12821421450391546 0.9914448613738107
  outer loop
    vertex 301.07023598203136 648.7654087103535 5.857926095308631
    vertex 303.92883642574697 649.7586422934722 5.800000000000053
    vertex 300.9877896320824 649.1976076123784 5.800000000000047
  endloop
endfacet
facet normal -0.024458169486065256 0.12821421450391546 0.9914448613738107
  outer loop
    vertex 303.92883642574697 649.7586422934722 5.800000000000053
    vertex 301.07023598203136 648.7654087103535 5.857926095308631
    vertex 304.0112827756959 649.3264433914474 5.857926095308632
  endloop
endfacet
facet normal -0.9980267284282717 -0.0627905195293139 -0.0
  outer loop
    vertex 301.96434854979503 644.0783064879556 13.000000000000002
    vertex 302.61882834069337 633.6756481021183 0.0
    vertex 302.61882834069337 633.6756481021183 13.000000000000002
  endloop
endfacet
facet normal -0.9980267284282717 -0.0627905195293139 -0.0
  outer loop
    vertex 302.61882834069337 633.6756481021183 0.0
    vertex 301.96434854979503 644.0783064879556 13.000000000000002
    vertex 301.96434854979503 644.0783064879556 0.0
  endloop
endfacet
facet normal 0.11407051683672956 -0.5979785904506717 0.7933533402912157
  outer loop
    vertex 300.82851551468457 650.0325517754978 6.0277568135665005
    vertex 303.70358880878797 650.9394316527798 6.297918471982963
    vertex 300.76254201512336 650.3783969716861 6.297918471982915
  endloop
endfacet
facet normal 0.11407051683672956 -0.5979785904506717 0.7933533402912157
  outer loop
    vertex 303.70358880878797 650.9394316527798 6.297918471982963
    vertex 300.82851551468457 650.0325517754978 6.0277568135665005
    vertex 303.7695623083491 650.5935864565917 6.02775681356656
  endloop
endfacet
facet normal 0.024458169486066123 -0.128214214503941 -0.9914448613738075
  outer loop
    vertex 303.84639007579807 650.1908411954971 9.142073904691452
    vertex 300.9877896320824 649.1976076123784 9.200000000000045
    vertex 300.9053432821335 649.6298065144034 9.142073904691461
  endloop
endfacet
facet normal 0.024458169486066123 -0.128214214503941 -0.9914448613738075
  outer loop
    vertex 300.9877896320824 649.1976076123784 9.200000000000045
    vertex 303.84639007579807 650.1908411954971 9.142073904691452
    vertex 303.928836425747 649.7586422934722 9.200000000000054
  endloop
endfacet
facet normal 0.1486595918347367 -0.7793008714911082 0.6087614290087118
  outer loop
    vertex 303.70358880878797 650.9394316527798 6.297918471982963
    vertex 300.7119187684186 650.6437733243843 6.650000000000044
    vertex 300.76254201512336 650.3783969716861 6.297918471982915
  endloop
endfacet
facet normal 0.1486595918347367 -0.7793008714911082 0.6087614290087118
  outer loop
    vertex 300.7119187684186 650.6437733243843 6.650000000000044
    vertex 303.70358880878797 650.9394316527798 6.297918471982963
    vertex 303.65296556208324 651.2048080054781 6.65000000000007
  endloop
endfacet
facet normal -0.18577824146349564 0.9738836471279705 -0.13052619222000494
  outer loop
    vertex 301.30633786687815 647.5277192861397 7.500000000000045
    vertex 304.236530392655 648.1456540321395 7.939992376674342
    vertex 304.2473846605427 648.0887539672334 7.50000000000004
  endloop
endfacet
facet normal -0.18577824146349564 0.9738836471279705 -0.13052619222000494
  outer loop
    vertex 304.236530392655 648.1456540321395 7.939992376674342
    vertex 301.30633786687815 647.5277192861397 7.500000000000045
    vertex 301.2954835989904 647.5846193510458 7.939992376674331
  endloop
endfacet
facet normal 0.11407051683675323 -0.5979785904507009 -0.7933533402911903
  outer loop
    vertex 303.70358880878797 650.9394316527798 8.702081528017173
    vertex 300.82851551468457 650.0325517754978 8.97224318643359
    vertex 300.76254201512336 650.3783969716861 8.702081528017175
  endloop
endfacet
facet normal 0.11407051683675323 -0.5979785904507009 -0.7933533402911903
  outer loop
    vertex 300.82851551468457 650.0325517754978 8.97224318643359
    vertex 303.70358880878797 650.9394316527798 8.702081528017173
    vertex 303.7695623083491 650.5935864565917 8.972243186433621
  endloop
endfacet
facet normal 0.024458169486066127 0.12821421450390888 0.9914448613738116
  outer loop
    vertex 303.84639007579807 617.1604550087396 5.85792609530861
    vertex 300.9877896320824 618.1536885918582 5.800000000000048
    vertex 300.9053432821335 617.7214896898333 5.857926095308632
  endloop
endfacet
facet normal 0.024458169486066127 0.12821421450390888 0.9914448613738116
  outer loop
    vertex 300.9877896320824 618.1536885918582 5.800000000000048
    vertex 303.84639007579807 617.1604550087396 5.85792609530861
    vertex 303.928836425747 617.5926539107645 5.800000000000036
  endloop
endfacet
facet normal -0.1731177613208095 -0.9075150859949684 0.38268343236520747
  outer loop
    vertex 304.2047072894108 619.0388196227702 6.65000000000007
    vertex 301.2954835989904 619.7666768531909 7.0600076233257605
    vertex 301.2636604957462 619.599854303864 6.650000000000047
  endloop
endfacet
facet normal -0.1731177613208095 -0.9075150859949684 0.38268343236520747
  outer loop
    vertex 301.2954835989904 619.7666768531909 7.0600076233257605
    vertex 304.2047072894108 619.0388196227702 6.65000000000007
    vertex 304.236530392655 619.2056421720972 7.0600076233257605
  endloop
endfacet
facet normal -0.18577824146348637 -0.9738836471279648 0.13052619222006093
  outer loop
    vertex 304.24738466054276 619.2625422370032 7.500000000000045
    vertex 301.2954835989904 619.7666768531909 7.0600076233257605
    vertex 304.236530392655 619.2056421720972 7.0600076233257605
  endloop
endfacet
facet normal -0.18577824146348637 -0.9738836471279648 0.13052619222006093
  outer loop
    vertex 301.2954835989904 619.7666768531909 7.0600076233257605
    vertex 304.24738466054276 619.2625422370032 7.500000000000045
    vertex 301.30633786687815 619.823576918097 7.500000000000048
  endloop
endfacet
facet normal -0.18577824146348648 -0.9738836471279648 -0.1305261922200616
  outer loop
    vertex 304.236530392655 619.2056421720972 7.939992376674331
    vertex 301.30633786687815 619.823576918097 7.500000000000048
    vertex 304.24738466054276 619.2625422370032 7.500000000000045
  endloop
endfacet
facet normal -0.18577824146348648 -0.9738836471279648 -0.1305261922200616
  outer loop
    vertex 301.30633786687815 619.823576918097 7.500000000000048
    vertex 304.236530392655 619.2056421720972 7.939992376674331
    vertex 301.2954835989904 619.7666768531909 7.939992376674331
  endloop
endfacet
facet normal 0.18577824146347724 0.9738836471279594 0.13052619222011527
  outer loop
    vertex 300.6692413972867 616.4838002656195 7.500000000000048
    vertex 303.6211424588391 615.9796656494319 7.06000762332578
    vertex 300.6800956651744 616.5407003305256 7.060007623325763
  endloop
endfacet
facet normal 0.18577824146347724 0.9738836471279594 0.13052619222011527
  outer loop
    vertex 303.6211424588391 615.9796656494319 7.06000762332578
    vertex 300.6692413972867 616.4838002656195 7.500000000000048
    vertex 303.6102881909513 615.9227655845257 7.500000000000045
  endloop
endfacet
facet normal 0.07170772462675021 0.37590505667735086 -0.923879532511275
  outer loop
    vertex 300.9053432821335 617.7214896898333 9.142073904691463
    vertex 303.7695623083491 616.7577097476453 8.972243186433598
    vertex 300.82851551468457 617.3187444287389 8.972243186433593
  endloop
endfacet
facet normal 0.07170772462675021 0.37590505667735086 -0.923879532511275
  outer loop
    vertex 303.7695623083491 616.7577097476453 8.972243186433598
    vertex 300.9053432821335 617.7214896898333 9.142073904691463
    vertex 303.84639007579807 617.1604550087396 9.142073904691458
  endloop
endfacet
facet normal 0.11407051683672796 0.5979785904506779 -0.7933533402912112
  outer loop
    vertex 300.82851551468457 617.3187444287389 8.972243186433593
    vertex 303.70358880878797 616.4118645514569 8.70208152801715
    vertex 300.76254201512336 616.9728992325505 8.702081528017178
  endloop
endfacet
facet normal 0.11407051683672796 0.5979785904506779 -0.7933533402912112
  outer loop
    vertex 303.70358880878797 616.4118645514569 8.70208152801715
    vertex 300.82851551468457 617.3187444287389 8.972243186433593
    vertex 303.7695623083491 616.7577097476453 8.972243186433598
  endloop
endfacet
facet normal -0.24868988716489168 0.9685831611286216 0.0
  outer loop
    vertex 300.01123071436973 654.3169087368012 13.000000000000002
    vertex 302.9169801977556 655.062978398296 0.0
    vertex 300.01123071436973 654.3169087368012 0.0
  endloop
endfacet
facet normal -0.24868988716489168 0.9685831611286216 0.0
  outer loop
    vertex 302.9169801977556 655.062978398296 0.0
    vertex 300.01123071436973 654.3169087368012 13.000000000000002
    vertex 302.9169801977556 655.062978398296 13.000000000000002
  endloop
endfacet
facet normal 0.0 0.0 1.0
  outer loop
    vertex 302.9169801977556 612.2883178059409 13.000000000000002
    vertex 301.96434854979503 623.2729897162811 13.000000000000002
    vertex 300.01123071436973 613.0343874674355 13.000000000000002
  endloop
endfacet
facet normal 0.0 0.0 1.0
  outer loop
    vertex 301.96434854979503 623.2729897162811 13.000000000000002
    vertex 302.9169801977556 612.2883178059409 13.000000000000002
    vertex 302.61882834069337 633.6756481021183 13.000000000000002
  endloop
endfacet
facet normal 0.0 0.0 1.0
  outer loop
    vertex 301.96434854979503 644.0783064879556 13.000000000000002
    vertex 302.9169801977556 655.062978398296 13.000000000000002
    vertex 300.01123071436973 654.3169087368012 13.000000000000002
  endloop
endfacet
facet normal 0.0 0.0 1.0
  outer loop
    vertex 302.9169801977556 655.062978398296 13.000000000000002
    vertex 301.96434854979503 644.0783064879556 13.000000000000002
    vertex 302.61882834069337 633.6756481021183 13.000000000000002
  endloop
endfacet
facet normal 0.0 0.0 1.0
  outer loop
    vertex 302.9169801977556 655.062978398296 13.000000000000002
    vertex 302.61882834069337 633.6756481021183 13.000000000000002
    vertex 302.9169801977556 612.2883178059409 13.000000000000002
  endloop
endfacet
facet normal 0.0 0.0 1.0
  outer loop
    vertex 302.9169801977556 655.062978398296 13.000000000000002
    vertex 302.9169801977556 612.2883178059409 13.000000000000002
    vertex 304.9406926537384 622.8969900155882 13.000000000000002
  endloop
endfacet
facet normal 0.0 0.0 1.0
  outer loop
    vertex 302.9169801977556 655.062978398296 13.000000000000002
    vertex 304.9406926537384 622.8969900155882 13.000000000000002
    vertex 304.9406926537384 644.4543061886485 13.000000000000002
  endloop
endfacet
facet normal 0.0 0.0 1.0
  outer loop
    vertex 304.9406926537384 644.4543061886485 13.000000000000002
    vertex 304.9406926537384 622.8969900155882 13.000000000000002
    vertex 305.6188283406933 633.6756481021183 13.000000000000002
  endloop
endfacet
facet normal -0.24868988716486348 -0.9685831611286289 0.0
  outer loop
    vertex 302.9169801977556 612.2883178059409 13.000000000000002
    vertex 300.01123071436973 613.0343874674355 0.0
    vertex 302.9169801977556 612.2883178059409 0.0
  endloop
endfacet
facet normal -0.24868988716486348 -0.9685831611286289 0.0
  outer loop
    vertex 300.01123071436973 613.0343874674355 0.0
    vertex 302.9169801977556 612.2883178059409 13.000000000000002
    vertex 300.01123071436973 613.0343874674355 13.000000000000002
  endloop
endfacet
facet normal 1.0 0.0 0.0
  outer loop
    vertex 358.42895249993984 640.6756481021183 3.8069547514396615e-14
    vertex 358.42895249993984 626.6756481021182 3.000000000000038
    vertex 358.42895249993984 626.6756481021182 3.8069547514396615e-14
  endloop
endfacet
facet normal 1.0 0.0 0.0
  outer loop
    vertex 358.42895249993984 626.6756481021182 3.000000000000038
    vertex 358.42895249993984 640.6756481021183 3.8069547514396615e-14
    vertex 358.42895249993984 640.6756481021183 3.000000000000038
  endloop
endfacet
facet normal -1.0 0.0 0.0
  outer loop
    vertex 356.7745957503271 650.6756481021183 5.000000000000052
    vertex 356.7745957503271 643.6756481021183 4.370948047949241e-14
    vertex 356.7745957503271 643.6756481021183 5.000000000000052
  endloop
endfacet
facet normal -1.0 0.0 0.0
  outer loop
    vertex 356.7745957503271 643.6756481021183 4.370948047949241e-14
    vertex 356.7745957503271 650.6756481021183 5.000000000000052
    vertex 356.7745957503271 650.6756481021183 4.370948047949241e-14
  endloop
endfacet
facet normal 0.9848077530122077 2.052495403374893e-15 -0.17364817766693294
  outer loop
    vertex 368.95793344206515 640.6756481021183 3.000000000000037
    vertex 369.739807845198 626.6756481021182 7.43423008771166
    vertex 368.95793344206515 626.6756481021182 3.000000000000038
  endloop
endfacet
facet normal 0.9848077530122077 2.052495403374893e-15 -0.17364817766693294
  outer loop
    vertex 369.739807845198 626.6756481021182 7.43423008771166
    vertex 368.95793344206515 640.6756481021183 3.000000000000037
    vertex 369.739807845198 640.6756481021183 7.434230087711993
  endloop
endfacet
facet normal 0.0 -1.0 0.0
  outer loop
    vertex 356.7745957503271 623.6756481021184 3.4544589411211743e-14
    vertex 304.98968166815683 623.6756481021184 5.000000000000041
    vertex 304.98968166815683 623.6756481021184 2.4674706722294104e-14
  endloop
endfacet
facet normal 0.0 -1.0 0.0
  outer loop
    vertex 304.98968166815683 623.6756481021184 5.000000000000041
    vertex 356.7745957503271 623.6756481021184 3.4544589411211743e-14
    vertex 356.7745957503271 623.6756481021184 5.000000000000052
  endloop
endfacet
facet normal -1.0 0.0 0.0
  outer loop
    vertex 356.7745957503271 623.6756481021184 5.000000000000052
    vertex 356.7745957503271 616.6756481021182 3.1985759524966363e-14
    vertex 356.7745957503271 616.6756481021182 5.000000000000048
  endloop
endfacet
facet normal -1.0 0.0 0.0
  outer loop
    vertex 356.7745957503271 616.6756481021182 3.1985759524966363e-14
    vertex 356.7745957503271 623.6756481021184 5.000000000000052
    vertex 356.7745957503271 623.6756481021184 3.4544589411211743e-14
  endloop
endfacet
facet normal -6.695725108746058e-17 -5.035654433121223e-17 -1.0
  outer loop
    vertex 368.95793344206515 640.6756481021183 3.000000000000037
    vertex 358.42895249993984 626.6756481021182 3.000000000000038
    vertex 358.42895249993984 640.6756481021183 3.000000000000038
  endloop
endfacet
facet normal -6.695725108746058e-17 -5.035654433121223e-17 -1.0
  outer loop
    vertex 358.42895249993984 626.6756481021182 3.000000000000038
    vertex 368.95793344206515 640.6756481021183 3.000000000000037
    vertex 368.95793344206515 626.6756481021182 3.000000000000038
  endloop
endfacet
facet normal -1.0 8.588387839894514e-32 1.8047785488307365e-14
  outer loop
    vertex 356.77459575032714 638.6756481021183 4.999999999999911
    vertex 356.7745957503271 628.6756481021183 1.3888334926548394e-13
    vertex 356.77459575032714 628.6756481021183 4.999999999999911
  endloop
endfacet
facet normal -1.0 8.588387839894514e-32 1.8047785488307365e-14
  outer loop
    vertex 356.7745957503271 628.6756481021183 1.3888334926548394e-13
    vertex 356.77459575032714 638.6756481021183 4.999999999999911
    vertex 356.7745957503271 638.6756481021184 1.3888334926548394e-13
  endloop
endfacet
facet normal 9.969942576612403e-16 1.528281563919614e-14 1.0
  outer loop
    vertex 356.7745957503271 623.6756481021184 5.000000000000052
    vertex 305.3042550044251 628.6756481021183 5.000000000000026
    vertex 304.98968166815683 623.6756481021184 5.000000000000041
  endloop
endfacet
facet normal 9.969942576612403e-16 1.528281563919614e-14 1.0
  outer loop
    vertex 305.3042550044251 628.6756481021183 5.000000000000026
    vertex 356.7745957503271 623.6756481021184 5.000000000000052
    vertex 356.77459575032714 628.6756481021183 4.999999999999911
  endloop
endfacet
facet normal -1.6851359712943202e-16 -2.393758385269981e-14 1.0
  outer loop
    vertex 305.30425500442504 638.6756481021184 4.9999999999999085
    vertex 356.7745957503271 643.6756481021183 5.000000000000052
    vertex 304.98968166815683 643.6756481021183 5.000000000000042
  endloop
endfacet
facet normal -1.6851359712943202e-16 -2.393758385269981e-14 1.0
  outer loop
    vertex 356.7745957503271 643.6756481021183 5.000000000000052
    vertex 305.30425500442504 638.6756481021184 4.9999999999999085
    vertex 356.77459575032714 638.6756481021183 4.999999999999911
  endloop
endfacet
facet normal 0.0 1.0 0.0
  outer loop
    vertex 304.98968166815683 643.6756481021183 5.000000000000042
    vertex 356.7745957503271 643.6756481021183 4.370948047949241e-14
    vertex 304.98968166815683 643.6756481021183 3.3310854075097037e-14
  endloop
endfacet
facet normal 0.0 1.0 0.0
  outer loop
    vertex 356.7745957503271 643.6756481021183 4.370948047949241e-14
    vertex 304.98968166815683 643.6756481021183 5.000000000000042
    vertex 356.7745957503271 643.6756481021183 5.000000000000052
  endloop
endfacet
facet normal -3.529403101066234e-15 -7.62758132396533e-15 -1.0
  outer loop
    vertex 380.6018048489089 650.6756481021183 -7.693472169561931e-13
    vertex 356.7745957503271 643.6756481021183 4.370948047949241e-14
    vertex 356.7745957503271 650.6756481021183 4.370948047949241e-14
  endloop
endfacet
facet normal -3.529403101066234e-15 -7.62758132396533e-15 -1.0
  outer loop
    vertex 356.7745957503271 643.6756481021183 4.370948047949241e-14
    vertex 380.6018048489089 650.6756481021183 -7.693472169561931e-13
    vertex 358.42895249993984 640.6756481021183 3.8069547514396615e-14
  endloop
endfacet
facet normal -3.529403101066234e-15 -7.62758132396533e-15 -1.0
  outer loop
    vertex 356.7745957503271 643.6756481021183 4.370948047949241e-14
    vertex 358.42895249993984 640.6756481021183 3.8069547514396615e-14
    vertex 356.7745957503271 623.6756481021184 3.4544589411211743e-14
  endloop
endfacet
facet normal -3.529403101066234e-15 -7.62758132396533e-15 -1.0
  outer loop
    vertex 356.7745957503271 623.6756481021184 3.4544589411211743e-14
    vertex 358.42895249993984 640.6756481021183 3.8069547514396615e-14
    vertex 356.7745957503271 616.6756481021182 3.1985759524966363e-14
  endloop
endfacet
facet normal -3.529403101066234e-15 -7.62758132396533e-15 -1.0
  outer loop
    vertex 358.42895249993984 640.6756481021183 3.8069547514396615e-14
    vertex 380.6018048489089 650.6756481021183 -7.693472169561931e-13
    vertex 374.5215121712544 640.6756481021183 3.3839597790574766e-14
  endloop
endfacet
facet normal -3.529403101066234e-15 -7.62758132396533e-15 -1.0
  outer loop
    vertex 374.5215121712544 640.6756481021183 3.3839597790574766e-14
    vertex 380.6018048489089 650.6756481021183 -7.693472169561931e-13
    vertex 374.5215121712544 626.6756481021182 3.3134606169937796e-14
  endloop
endfacet
facet normal -3.529403101066234e-15 -7.62758132396533e-15 -1.0
  outer loop
    vertex 356.7745957503271 616.6756481021182 3.1985759524966363e-14
    vertex 358.42895249993984 626.6756481021182 3.8069547514396615e-14
    vertex 380.6018048489089 616.6756481021182 4.157879340970216e-15
  endloop
endfacet
facet normal -3.529403101066234e-15 -7.62758132396533e-15 -1.0
  outer loop
    vertex 358.42895249993984 626.6756481021182 3.8069547514396615e-14
    vertex 356.7745957503271 616.6756481021182 3.1985759524966363e-14
    vertex 358.42895249993984 640.6756481021183 3.8069547514396615e-14
  endloop
endfacet
facet normal -3.529403101066234e-15 -7.62758132396533e-15 -1.0
  outer loop
    vertex 380.6018048489089 616.6756481021182 4.157879340970216e-15
    vertex 358.42895249993984 626.6756481021182 3.8069547514396615e-14
    vertex 374.5215121712544 626.6756481021182 3.3134606169937796e-14
  endloop
endfacet
facet normal -3.529403101066234e-15 -7.62758132396533e-15 -1.0
  outer loop
    vertex 380.6018048489089 616.6756481021182 4.157879340970216e-15
    vertex 374.5215121712544 626.6756481021182 3.3134606169937796e-14
    vertex 380.6018048489089 650.6756481021183 -7.693472169561931e-13
  endloop
endfacet
facet normal -3.529403101066234e-15 -7.62758132396533e-15 -1.0
  outer loop
    vertex 356.7745957503271 643.6756481021183 4.370948047949241e-14
    vertex 305.30425500442493 638.6756481021184 3.172462292866385e-14
    vertex 304.98968166815683 643.6756481021183 3.3310854075097037e-14
  endloop
endfacet
facet normal -3.529403101066234e-15 -7.62758132396533e-15 -1.0
  outer loop
    vertex 305.30425500442493 638.6756481021184 3.172462292866385e-14
    vertex 356.7745957503271 643.6756481021183 4.370948047949241e-14
    vertex 330.98283100374 638.6756481021184 7.112973681382999e-14
  endloop
endfacet
facet normal -3.529403101066234e-15 -7.62758132396533e-15 -1.0
  outer loop
    vertex 330.98283100374 638.6756481021184 7.112973681382999e-14
    vertex 356.7745957503271 643.6756481021183 4.370948047949241e-14
    vertex 333.98283100374005 638.6756481021184 6.415423747796467e-14
  endloop
endfacet
facet normal -3.529403101066234e-15 -7.62758132396533e-15 -1.0
  outer loop
    vertex 330.98283100374 638.6756481021184 7.112973681382999e-14
    vertex 333.98283100374005 638.6756481021184 6.415423747796467e-14
    vertex 330.98283100374 628.6756481021183 7.112973681382999e-14
  endloop
endfacet
facet normal -3.529403101066234e-15 -7.62758132396533e-15 -1.0
  outer loop
    vertex 333.98283100374005 638.6756481021184 6.415423747796467e-14
    vertex 356.7745957503271 643.6756481021183 4.370948047949241e-14
    vertex 356.7745957503271 638.6756481021184 1.3888334926548394e-13
  endloop
endfacet
facet normal -3.529403101066234e-15 -7.62758132396533e-15 -1.0
  outer loop
    vertex 356.7745957503271 638.6756481021184 1.3888334926548394e-13
    vertex 356.7745957503271 643.6756481021183 4.370948047949241e-14
    vertex 356.7745957503271 628.6756481021183 1.3888334926548394e-13
  endloop
endfacet
facet normal -3.529403101066234e-15 -7.62758132396533e-15 -1.0
  outer loop
    vertex 305.304255004425 628.6756481021183 3.524958103184872e-15
    vertex 356.7745957503271 623.6756481021184 3.4544589411211743e-14
    vertex 304.98968166815683 623.6756481021184 2.4674706722294104e-14
  endloop
endfacet
facet normal -3.529403101066234e-15 -7.62758132396533e-15 -1.0
  outer loop
    vertex 356.7745957503271 623.6756481021184 3.4544589411211743e-14
    vertex 305.304255004425 628.6756481021183 3.524958103184872e-15
    vertex 330.98283100374 628.6756481021183 7.112973681382999e-14
  endloop
endfacet
facet normal -3.529403101066234e-15 -7.62758132396533e-15 -1.0
  outer loop
    vertex 356.7745957503271 623.6756481021184 3.4544589411211743e-14
    vertex 330.98283100374 628.6756481021183 7.112973681382999e-14
    vertex 333.98283100374005 628.6756481021183 6.415423747796467e-14
  endloop
endfacet
facet normal -3.529403101066234e-15 -7.62758132396533e-15 -1.0
  outer loop
    vertex 333.98283100374005 628.6756481021183 6.415423747796467e-14
    vertex 330.98283100374 628.6756481021183 7.112973681382999e-14
    vertex 333.98283100374005 638.6756481021184 6.415423747796467e-14
  endloop
endfacet
facet normal -3.529403101066234e-15 -7.62758132396533e-15 -1.0
  outer loop
    vertex 356.7745957503271 623.6756481021184 3.4544589411211743e-14
    vertex 333.98283100374005 628.6756481021183 6.415423747796467e-14
    vertex 356.7745957503271 628.6756481021183 1.3888334926548394e-13
  endloop
endfacet
facet normal -3.529403101066234e-15 -7.62758132396533e-15 -1.0
  outer loop
    vertex 356.7745957503271 623.6756481021184 3.4544589411211743e-14
    vertex 356.7745957503271 628.6756481021183 1.3888334926548394e-13
    vertex 356.7745957503271 643.6756481021183 4.370948047949241e-14
  endloop
endfacet
facet normal 0.0 1.0 0.0
  outer loop
    vertex 374.5215121712544 626.6756481021182 3.3134606169937796e-14
    vertex 368.95793344206515 626.6756481021182 3.000000000000038
    vertex 375.6478241727549 626.6756481021182 6.387632777327406
  endloop
endfacet
facet normal 0.0 1.0 0.0
  outer loop
    vertex 368.95793344206515 626.6756481021182 3.000000000000038
    vertex 374.5215121712544 626.6756481021182 3.3134606169937796e-14
    vertex 358.42895249993984 626.6756481021182 3.8069547514396615e-14
  endloop
endfacet
facet normal 0.0 1.0 0.0
  outer loop
    vertex 368.95793344206515 626.6756481021182 3.000000000000038
    vertex 358.42895249993984 626.6756481021182 3.8069547514396615e-14
    vertex 358.42895249993984 626.6756481021182 3.000000000000038
  endloop
endfacet
facet normal 0.0 1.0 0.0
  outer loop
    vertex 375.6478241727549 626.6756481021182 6.387632777327406
    vertex 368.95793344206515 626.6756481021182 3.000000000000038
    vertex 369.739807845198 626.6756481021182 7.43423008771166
  endloop
endfacet
facet normal -0.9720529338832825 -3.590469111065732e-15 0.23476178080961768
  outer loop
    vertex 357.87030756559625 616.6756481021183 9.536896427730259
    vertex 356.7745957503271 623.6756481021184 5.000000000000052
    vertex 356.7745957503271 616.6756481021182 5.000000000000048
  endloop
endfacet
facet normal -0.9720529338832825 -3.590469111065732e-15 0.23476178080961768
  outer loop
    vertex 356.7745957503271 623.6756481021184 5.000000000000052
    vertex 357.87030756559625 616.6756481021183 9.536896427730259
    vertex 357.8703075655961 650.6756481021183 9.536896427731138
  endloop
endfacet
facet normal -0.9720529338832825 -3.590469111065732e-15 0.23476178080961768
  outer loop
    vertex 356.7745957503271 623.6756481021184 5.000000000000052
    vertex 357.8703075655961 650.6756481021183 9.536896427731138
    vertex 356.77459575032714 628.6756481021183 4.999999999999911
  endloop
endfacet
facet normal -0.9720529338832825 -3.590469111065732e-15 0.23476178080961768
  outer loop
    vertex 356.77459575032714 628.6756481021183 4.999999999999911
    vertex 357.8703075655961 650.6756481021183 9.536896427731138
    vertex 356.77459575032714 638.6756481021183 4.999999999999911
  endloop
endfacet
facet normal -0.9720529338832825 -3.590469111065732e-15 0.23476178080961768
  outer loop
    vertex 356.77459575032714 638.6756481021183 4.999999999999911
    vertex 357.8703075655961 650.6756481021183 9.536896427731138
    vertex 356.7745957503271 643.6756481021183 5.000000000000052
  endloop
endfacet
facet normal -0.9720529338832825 -3.590469111065732e-15 0.23476178080961768
  outer loop
    vertex 356.7745957503271 643.6756481021183 5.000000000000052
    vertex 357.8703075655961 650.6756481021183 9.536896427731138
    vertex 356.7745957503271 650.6756481021183 5.000000000000052
  endloop
endfacet
facet normal 0.0 -1.0 0.0
  outer loop
    vertex 374.5215121712544 640.6756481021183 3.3839597790574766e-14
    vertex 368.95793344206515 640.6756481021183 3.000000000000037
    vertex 358.42895249993984 640.6756481021183 3.8069547514396615e-14
  endloop
endfacet
facet normal 0.0 -1.0 0.0
  outer loop
    vertex 368.95793344206515 640.6756481021183 3.000000000000037
    vertex 374.5215121712544 640.6756481021183 3.3839597790574766e-14
    vertex 375.64782417275495 640.6756481021183 6.387632777327717
  endloop
endfacet
facet normal 0.0 -1.0 0.0
  outer loop
    vertex 368.95793344206515 640.6756481021183 3.000000000000037
    vertex 375.64782417275495 640.6756481021183 6.387632777327717
    vertex 369.739807845198 640.6756481021183 7.434230087711993
  endloop
endfacet
facet normal 0.0 -1.0 0.0
  outer loop
    vertex 358.42895249993984 640.6756481021183 3.000000000000038
    vertex 358.42895249993984 640.6756481021183 3.8069547514396615e-14
    vertex 368.95793344206515 640.6756481021183 3.000000000000037
  endloop
endfacet
facet normal -0.9848077530122107 -3.4293815634126676e-16 0.17364817766691631
  outer loop
    vertex 375.64782417275495 640.6756481021183 6.387632777327717
    vertex 374.5215121712544 626.6756481021182 3.3134606169937796e-14
    vertex 375.6478241727549 626.6756481021182 6.387632777327406
  endloop
endfacet
facet normal -0.9848077530122107 -3.4293815634126676e-16 0.17364817766691631
  outer loop
    vertex 374.5215121712544 626.6756481021182 3.3134606169937796e-14
    vertex 375.64782417275495 640.6756481021183 6.387632777327717
    vertex 374.5215121712544 640.6756481021183 3.3839597790574766e-14
  endloop
endfacet
facet normal 0.17443282968942603 -1.752824811477124e-14 0.9846690753377705
  outer loop
    vertex 380.6018048489089 616.6756481021183 5.510041625932441
    vertex 369.739807845198 626.6756481021182 7.43423008771166
    vertex 357.87030756559625 616.6756481021183 9.536896427730259
  endloop
endfacet
facet normal 0.17443282968942603 -1.752824811477124e-14 0.9846690753377705
  outer loop
    vertex 369.739807845198 626.6756481021182 7.43423008771166
    vertex 380.6018048489089 616.6756481021183 5.510041625932441
    vertex 375.6478241727549 626.6756481021182 6.387632777327406
  endloop
endfacet
facet normal 0.17443282968942603 -1.752824811477124e-14 0.9846690753377705
  outer loop
    vertex 375.6478241727549 626.6756481021182 6.387632777327406
    vertex 380.6018048489089 616.6756481021183 5.510041625932441
    vertex 375.64782417275495 640.6756481021183 6.387632777327717
  endloop
endfacet
facet normal 0.17443282968942603 -1.752824811477124e-14 0.9846690753377705
  outer loop
    vertex 357.8703075655961 650.6756481021183 9.536896427731138
    vertex 369.739807845198 640.6756481021183 7.434230087711993
    vertex 380.60180484890907 650.6756481021183 5.510041625933248
  endloop
endfacet
facet normal 0.17443282968942603 -1.752824811477124e-14 0.9846690753377705
  outer loop
    vertex 369.739807845198 640.6756481021183 7.434230087711993
    vertex 357.8703075655961 650.6756481021183 9.536896427731138
    vertex 357.87030756559625 616.6756481021183 9.536896427730259
  endloop
endfacet
facet normal 0.17443282968942603 -1.752824811477124e-14 0.9846690753377705
  outer loop
    vertex 369.739807845198 640.6756481021183 7.434230087711993
    vertex 357.87030756559625 616.6756481021183 9.536896427730259
    vertex 369.739807845198 626.6756481021182 7.43423008771166
  endloop
endfacet
facet normal 0.17443282968942603 -1.752824811477124e-14 0.9846690753377705
  outer loop
    vertex 380.60180484890907 650.6756481021183 5.510041625933248
    vertex 369.739807845198 640.6756481021183 7.434230087711993
    vertex 375.64782417275495 640.6756481021183 6.387632777327717
  endloop
endfacet
facet normal 0.17443282968942603 -1.752824811477124e-14 0.9846690753377705
  outer loop
    vertex 380.60180484890907 650.6756481021183 5.510041625933248
    vertex 375.64782417275495 640.6756481021183 6.387632777327717
    vertex 380.6018048489089 616.6756481021183 5.510041625932441
  endloop
endfacet
facet normal 1.62899679327607e-15 -1.0 1.0945641962676296e-14
  outer loop
    vertex 380.6018048489089 616.6756481021183 5.510041625932441
    vertex 356.7745957503271 616.6756481021182 3.1985759524966363e-14
    vertex 380.6018048489089 616.6756481021182 4.157879340970216e-15
  endloop
endfacet
facet normal 1.62899679327607e-15 -1.0 1.0945641962676296e-14
  outer loop
    vertex 356.7745957503271 616.6756481021182 3.1985759524966363e-14
    vertex 380.6018048489089 616.6756481021183 5.510041625932441
    vertex 356.7745957503271 616.6756481021182 5.000000000000048
  endloop
endfacet
facet normal 1.62899679327607e-15 -1.0 1.0945641962676296e-14
  outer loop
    vertex 356.7745957503271 616.6756481021182 5.000000000000048
    vertex 380.6018048489089 616.6756481021183 5.510041625932441
    vertex 357.87030756559625 616.6756481021183 9.536896427730259
  endloop
endfacet
facet normal 0.0 1.0 0.0
  outer loop
    vertex 356.7745957503271 650.6756481021183 4.370948047949241e-14
    vertex 380.60180484890907 650.6756481021183 5.510041625933248
    vertex 380.6018048489089 650.6756481021183 -7.693472169561931e-13
  endloop
endfacet
facet normal 0.0 1.0 0.0
  outer loop
    vertex 380.60180484890907 650.6756481021183 5.510041625933248
    vertex 356.7745957503271 650.6756481021183 4.370948047949241e-14
    vertex 356.7745957503271 650.6756481021183 5.000000000000052
  endloop
endfacet
facet normal 0.0 1.0 0.0
  outer loop
    vertex 380.60180484890907 650.6756481021183 5.510041625933248
    vertex 356.7745957503271 650.6756481021183 5.000000000000052
    vertex 357.8703075655961 650.6756481021183 9.536896427731138
  endloop
endfacet
facet normal 1.0 -1.538163535935224e-15 -1.2282882812105155e-14
  outer loop
    vertex 380.6018048489089 650.6756481021183 -7.693472169561931e-13
    vertex 380.6018048489089 616.6756481021183 5.510041625932441
    vertex 380.6018048489089 616.6756481021182 4.157879340970216e-15
  endloop
endfacet
facet normal 1.0 -1.538163535935224e-15 -1.2282882812105155e-14
  outer loop
    vertex 380.6018048489089 616.6756481021183 5.510041625932441
    vertex 380.6018048489089 650.6756481021183 -7.693472169561931e-13
    vertex 380.60180484890907 650.6756481021183 5.510041625933248
  endloop
endfacet
facet normal 0.0 1.0 0.0
  outer loop
    vertex 305.3042550044251 628.6756481021183 5.000000000000026
    vertex 330.98283100374 628.6756481021183 7.112973681382999e-14
    vertex 305.304255004425 628.6756481021183 3.524958103184872e-15
  endloop
endfacet
facet normal 0.0 1.0 0.0
  outer loop
    vertex 330.98283100374 628.6756481021183 7.112973681382999e-14
    vertex 305.3042550044251 628.6756481021183 5.000000000000026
    vertex 330.98283100374 628.6756481021183 2.99999999999997
  endloop
endfacet
facet normal 0.0 1.0 0.0
  outer loop
    vertex 330.98283100374 628.6756481021183 2.99999999999997
    vertex 305.3042550044251 628.6756481021183 5.000000000000026
    vertex 333.98283100374005 628.6756481021183 2.99999999999997
  endloop
endfacet
facet normal 0.0 1.0 0.0
  outer loop
    vertex 333.98283100374005 628.6756481021183 2.99999999999997
    vertex 305.3042550044251 628.6756481021183 5.000000000000026
    vertex 356.77459575032714 628.6756481021183 4.999999999999911
  endloop
endfacet
facet normal 0.0 1.0 0.0
  outer loop
    vertex 333.98283100374005 628.6756481021183 2.99999999999997
    vertex 356.7745957503271 628.6756481021183 1.3888334926548394e-13
    vertex 333.98283100374005 628.6756481021183 6.415423747796467e-14
  endloop
endfacet
facet normal 0.0 1.0 0.0
  outer loop
    vertex 356.7745957503271 628.6756481021183 1.3888334926548394e-13
    vertex 333.98283100374005 628.6756481021183 2.99999999999997
    vertex 356.77459575032714 628.6756481021183 4.999999999999911
  endloop
endfacet
facet normal 0.0 1.0 0.0
  outer loop
    vertex 330.98283100374 638.6756481021184 7.112973681382999e-14
    vertex 333.98283100374005 638.6756481021184 2.99999999999997
    vertex 333.98283100374005 638.6756481021184 6.415423747796467e-14
  endloop
endfacet
facet normal 0.0 1.0 0.0
  outer loop
    vertex 333.98283100374005 638.6756481021184 2.99999999999997
    vertex 330.98283100374 638.6756481021184 7.112973681382999e-14
    vertex 330.98283100374 638.6756481021184 2.99999999999997
  endloop
endfacet
facet normal 1.0 0.0 0.0
  outer loop
    vertex 333.98283100374005 638.6756481021184 6.415423747796467e-14
    vertex 333.98283100374005 628.6756481021183 2.99999999999997
    vertex 333.98283100374005 628.6756481021183 6.415423747796467e-14
  endloop
endfacet
facet normal 1.0 0.0 0.0
  outer loop
    vertex 333.98283100374005 628.6756481021183 2.99999999999997
    vertex 333.98283100374005 638.6756481021184 6.415423747796467e-14
    vertex 333.98283100374005 638.6756481021184 2.99999999999997
  endloop
endfacet
facet normal -8.319014681488193e-16 -1.0 -5.411592003287112e-15
  outer loop
    vertex 356.7745957503271 638.6756481021184 1.3888334926548394e-13
    vertex 333.98283100374005 638.6756481021184 2.99999999999997
    vertex 333.98283100374005 638.6756481021184 6.415423747796467e-14
  endloop
endfacet
facet normal -8.319014681488193e-16 -1.0 -5.411592003287112e-15
  outer loop
    vertex 333.98283100374005 638.6756481021184 2.99999999999997
    vertex 356.7745957503271 638.6756481021184 1.3888334926548394e-13
    vertex 356.77459575032714 638.6756481021183 4.999999999999911
  endloop
endfacet
facet normal -8.319014681488193e-16 -1.0 -5.411592003287112e-15
  outer loop
    vertex 333.98283100374005 638.6756481021184 2.99999999999997
    vertex 356.77459575032714 638.6756481021183 4.999999999999911
    vertex 330.98283100374 638.6756481021184 2.99999999999997
  endloop
endfacet
facet normal -8.319014681488193e-16 -1.0 -5.411592003287112e-15
  outer loop
    vertex 330.98283100374 638.6756481021184 2.99999999999997
    vertex 356.77459575032714 638.6756481021183 4.999999999999911
    vertex 305.30425500442504 638.6756481021184 4.9999999999999085
  endloop
endfacet
facet normal -8.319014681488193e-16 -1.0 -5.411592003287112e-15
  outer loop
    vertex 330.98283100374 638.6756481021184 7.112973681382999e-14
    vertex 305.30425500442504 638.6756481021184 4.9999999999999085
    vertex 305.30425500442493 638.6756481021184 3.172462292866385e-14
  endloop
endfacet
facet normal -8.319014681488193e-16 -1.0 -5.411592003287112e-15
  outer loop
    vertex 305.30425500442504 638.6756481021184 4.9999999999999085
    vertex 330.98283100374 638.6756481021184 7.112973681382999e-14
    vertex 330.98283100374 638.6756481021184 2.99999999999997
  endloop
endfacet
facet normal -1.0 0.0 0.0
  outer loop
    vertex 330.98283100374 638.6756481021184 2.99999999999997
    vertex 330.98283100374 628.6756481021183 7.112973681382999e-14
    vertex 330.98283100374 628.6756481021183 2.99999999999997
  endloop
endfacet
facet normal -1.0 0.0 0.0
  outer loop
    vertex 330.98283100374 628.6756481021183 7.112973681382999e-14
    vertex 330.98283100374 638.6756481021184 2.99999999999997
    vertex 330.98283100374 638.6756481021184 7.112973681382999e-14
  endloop
endfacet
facet normal 0.0 0.0 1.0
  outer loop
    vertex 333.98283100374005 628.6756481021183 2.99999999999997
    vertex 330.98283100374 638.6756481021184 2.99999999999997
    vertex 330.98283100374 628.6756481021183 2.99999999999997
  endloop
endfacet
facet normal 0.0 0.0 1.0
  outer loop
    vertex 330.98283100374 638.6756481021184 2.99999999999997
    vertex 333.98283100374005 628.6756481021183 2.99999999999997
    vertex 333.98283100374005 638.6756481021184 2.99999999999997
  endloop
endfacet
endsolid Input Panel Mounter
