%TF.GenerationSoftware,KiCad,Pcbnew,(6.0.9)*%
%TF.CreationDate,2023-09-09T15:40:48+05:30*%
%TF.ProjectId,WeatherKids_V3,57656174-6865-4724-9b69-64735f56332e,rev?*%
%TF.SameCoordinates,PX1406f40PY14fb180*%
%TF.FileFunction,Paste,Top*%
%TF.FilePolarity,Positive*%
%FSLAX46Y46*%
G04 Gerber Fmt 4.6, Leading zero omitted, Abs format (unit mm)*
G04 Created by KiCad (PCBNEW (6.0.9)) date 2023-09-09 15:40:48*
%MOMM*%
%LPD*%
G01*
G04 APERTURE LIST*
G04 Aperture macros list*
%AMRoundRect*
0 Rectangle with rounded corners*
0 $1 Rounding radius*
0 $2 $3 $4 $5 $6 $7 $8 $9 X,Y pos of 4 corners*
0 Add a 4 corners polygon primitive as box body*
4,1,4,$2,$3,$4,$5,$6,$7,$8,$9,$2,$3,0*
0 Add four circle primitives for the rounded corners*
1,1,$1+$1,$2,$3*
1,1,$1+$1,$4,$5*
1,1,$1+$1,$6,$7*
1,1,$1+$1,$8,$9*
0 Add four rect primitives between the rounded corners*
20,1,$1+$1,$2,$3,$4,$5,0*
20,1,$1+$1,$4,$5,$6,$7,0*
20,1,$1+$1,$6,$7,$8,$9,0*
20,1,$1+$1,$8,$9,$2,$3,0*%
G04 Aperture macros list end*
%ADD10RoundRect,0.200000X0.275000X-0.200000X0.275000X0.200000X-0.275000X0.200000X-0.275000X-0.200000X0*%
%ADD11R,0.800000X2.000000*%
%ADD12RoundRect,0.225000X0.250000X-0.225000X0.250000X0.225000X-0.250000X0.225000X-0.250000X-0.225000X0*%
%ADD13RoundRect,0.140000X0.140000X0.170000X-0.140000X0.170000X-0.140000X-0.170000X0.140000X-0.170000X0*%
%ADD14RoundRect,0.135000X-0.185000X0.135000X-0.185000X-0.135000X0.185000X-0.135000X0.185000X0.135000X0*%
%ADD15RoundRect,0.250000X-0.250000X-1.500000X0.250000X-1.500000X0.250000X1.500000X-0.250000X1.500000X0*%
%ADD16RoundRect,0.250001X-0.499999X-1.449999X0.499999X-1.449999X0.499999X1.449999X-0.499999X1.449999X0*%
%ADD17RoundRect,0.225000X-0.250000X0.225000X-0.250000X-0.225000X0.250000X-0.225000X0.250000X0.225000X0*%
%ADD18R,1.000000X1.800000*%
%ADD19RoundRect,0.135000X0.135000X0.185000X-0.135000X0.185000X-0.135000X-0.185000X0.135000X-0.185000X0*%
%ADD20RoundRect,0.150000X0.512500X0.150000X-0.512500X0.150000X-0.512500X-0.150000X0.512500X-0.150000X0*%
%ADD21RoundRect,0.140000X0.170000X-0.140000X0.170000X0.140000X-0.170000X0.140000X-0.170000X-0.140000X0*%
%ADD22RoundRect,0.135000X-0.135000X-0.185000X0.135000X-0.185000X0.135000X0.185000X-0.135000X0.185000X0*%
%ADD23RoundRect,0.250000X-0.412500X-0.925000X0.412500X-0.925000X0.412500X0.925000X-0.412500X0.925000X0*%
%ADD24RoundRect,0.250000X-0.315000X0.315000X-0.315000X-0.315000X0.315000X-0.315000X0.315000X0.315000X0*%
%ADD25RoundRect,0.062500X-0.062500X0.350000X-0.062500X-0.350000X0.062500X-0.350000X0.062500X0.350000X0*%
%ADD26RoundRect,0.062500X-0.350000X0.062500X-0.350000X-0.062500X0.350000X-0.062500X0.350000X0.062500X0*%
%ADD27R,0.670001X0.299999*%
%ADD28R,0.700000X3.600000*%
%ADD29RoundRect,0.140000X-0.140000X-0.170000X0.140000X-0.170000X0.140000X0.170000X-0.140000X0.170000X0*%
%ADD30RoundRect,0.140000X-0.170000X0.140000X-0.170000X-0.140000X0.170000X-0.140000X0.170000X0.140000X0*%
%ADD31R,0.254000X1.168400*%
%ADD32R,0.800000X0.800000*%
%ADD33RoundRect,0.250000X0.475000X-0.250000X0.475000X0.250000X-0.475000X0.250000X-0.475000X-0.250000X0*%
%ADD34RoundRect,0.243750X-0.243750X-0.456250X0.243750X-0.456250X0.243750X0.456250X-0.243750X0.456250X0*%
%ADD35R,0.900000X1.300000*%
%ADD36R,1.800000X0.750000*%
%ADD37R,1.800000X0.600000*%
%ADD38RoundRect,0.250000X-0.475000X0.250000X-0.475000X-0.250000X0.475000X-0.250000X0.475000X0.250000X0*%
%ADD39R,1.800000X2.500000*%
%ADD40R,0.600000X0.450000*%
%ADD41RoundRect,0.150000X-0.150000X0.825000X-0.150000X-0.825000X0.150000X-0.825000X0.150000X0.825000X0*%
%ADD42R,0.350000X0.500000*%
%ADD43RoundRect,0.150000X-0.150000X0.512500X-0.150000X-0.512500X0.150000X-0.512500X0.150000X0.512500X0*%
%ADD44RoundRect,0.250000X-0.250000X-0.475000X0.250000X-0.475000X0.250000X0.475000X-0.250000X0.475000X0*%
%ADD45RoundRect,0.135000X0.185000X-0.135000X0.185000X0.135000X-0.185000X0.135000X-0.185000X-0.135000X0*%
%ADD46R,1.500000X2.000000*%
%ADD47R,3.800000X2.000000*%
%ADD48R,0.800000X0.500000*%
%ADD49RoundRect,0.150000X0.150000X-0.512500X0.150000X0.512500X-0.150000X0.512500X-0.150000X-0.512500X0*%
%ADD50R,1.500000X0.900000*%
%ADD51R,0.900000X1.500000*%
%ADD52R,1.050000X1.050000*%
G04 APERTURE END LIST*
D10*
%TO.C,R14*%
X38050000Y-30525000D03*
X38050000Y-28875000D03*
%TD*%
D11*
%TO.C,L1*%
X14600000Y-40500000D03*
X16600000Y-40500000D03*
%TD*%
%TO.C,L2*%
X49300000Y-32100000D03*
X47300000Y-32100000D03*
%TD*%
D12*
%TO.C,C6*%
X18050000Y-39525000D03*
X18050000Y-37975000D03*
%TD*%
D13*
%TO.C,C8*%
X21480000Y-11400000D03*
X20520000Y-11400000D03*
%TD*%
D14*
%TO.C,R11*%
X13545000Y-20715000D03*
X13545000Y-21735000D03*
%TD*%
D15*
%TO.C,J1*%
X4150000Y-40050000D03*
X6150000Y-40050000D03*
D16*
X1800000Y-45800000D03*
X8500000Y-45800000D03*
%TD*%
D17*
%TO.C,C11*%
X20950000Y-7450000D03*
X20950000Y-9000000D03*
%TD*%
D18*
%TO.C,Y1*%
X14895000Y-20975000D03*
X17395000Y-20975000D03*
%TD*%
D19*
%TO.C,R12*%
X4960000Y-16300000D03*
X3940000Y-16300000D03*
%TD*%
D20*
%TO.C,U13*%
X23325000Y-31000000D03*
X23325000Y-30050000D03*
X23325000Y-29100000D03*
X21050000Y-29100000D03*
X21050000Y-31000000D03*
%TD*%
D21*
%TO.C,C20*%
X37850000Y-32680000D03*
X37850000Y-31720000D03*
%TD*%
D22*
%TO.C,R22*%
X9890000Y-36200000D03*
X10910000Y-36200000D03*
%TD*%
D19*
%TO.C,R9*%
X21610000Y-20300000D03*
X20590000Y-20300000D03*
%TD*%
D23*
%TO.C,C23*%
X36225000Y-41800000D03*
X39300000Y-41800000D03*
%TD*%
D24*
%TO.C,U1*%
X13425000Y-35825000D03*
X14775000Y-37175000D03*
X14775000Y-35825000D03*
X13425000Y-37175000D03*
D25*
X15350000Y-34537500D03*
X14850000Y-34537500D03*
X14350000Y-34537500D03*
X13850000Y-34537500D03*
X13350000Y-34537500D03*
X12850000Y-34537500D03*
D26*
X12137500Y-35250000D03*
X12137500Y-35750000D03*
X12137500Y-36250000D03*
X12137500Y-36750000D03*
X12137500Y-37250000D03*
X12137500Y-37750000D03*
D25*
X12850000Y-38462500D03*
X13350000Y-38462500D03*
X13850000Y-38462500D03*
X14350000Y-38462500D03*
X14850000Y-38462500D03*
X15350000Y-38462500D03*
D26*
X16062500Y-37750000D03*
X16062500Y-37250000D03*
X16062500Y-36750000D03*
X16062500Y-36250000D03*
X16062500Y-35750000D03*
X16062500Y-35250000D03*
%TD*%
D27*
%TO.C,U3*%
X49459999Y-35550002D03*
X50940001Y-35050003D03*
X49459999Y-35050003D03*
X50940001Y-34550001D03*
X49459999Y-34550001D03*
X50940001Y-35550002D03*
%TD*%
D28*
%TO.C,J3*%
X36000000Y-51760950D03*
X35000000Y-51760950D03*
X34000000Y-51760950D03*
X33000000Y-51760950D03*
X32000000Y-51760950D03*
X31000000Y-51760950D03*
X30000000Y-51760950D03*
X29000000Y-51760950D03*
X28000000Y-51760950D03*
X27000000Y-51760950D03*
X26000000Y-51760950D03*
X23000000Y-51760950D03*
X22000000Y-51760950D03*
X21000000Y-51760950D03*
X20000000Y-51760950D03*
X19000000Y-51760950D03*
X18000000Y-51760950D03*
X17000000Y-51760950D03*
%TD*%
D22*
%TO.C,R21*%
X9890000Y-37250000D03*
X10910000Y-37250000D03*
%TD*%
D29*
%TO.C,C5*%
X17220000Y-35250000D03*
X18180000Y-35250000D03*
%TD*%
D30*
%TO.C,C2*%
X42600000Y-24120000D03*
X42600000Y-25080000D03*
%TD*%
D14*
%TO.C,R19*%
X35000000Y-34040000D03*
X35000000Y-35060000D03*
%TD*%
D13*
%TO.C,C4*%
X48550000Y-48550000D03*
X47590000Y-48550000D03*
%TD*%
%TO.C,C21*%
X21500000Y-15450000D03*
X20540000Y-15450000D03*
%TD*%
D14*
%TO.C,R10*%
X3150000Y-12840000D03*
X3150000Y-13860000D03*
%TD*%
D31*
%TO.C,U9*%
X36850001Y-29928400D03*
X36350000Y-29928400D03*
X35850000Y-29928400D03*
X35349999Y-29928400D03*
X35349999Y-32671600D03*
X35850000Y-32671600D03*
X36350000Y-32671600D03*
X36850001Y-32671600D03*
%TD*%
D32*
%TO.C,U5*%
X4080000Y-25050000D03*
X6620000Y-25050000D03*
X6620000Y-22350000D03*
X4080000Y-22350000D03*
%TD*%
D22*
%TO.C,R15*%
X24827500Y-33600000D03*
X25847500Y-33600000D03*
%TD*%
D33*
%TO.C,C9*%
X50950000Y-32500000D03*
X50950000Y-30600000D03*
%TD*%
D23*
%TO.C,C22*%
X36225000Y-45200000D03*
X39300000Y-45200000D03*
%TD*%
D34*
%TO.C,D5*%
X24662500Y-44500000D03*
X26537500Y-44500000D03*
%TD*%
D19*
%TO.C,R24*%
X48560000Y-47300000D03*
X47540000Y-47300000D03*
%TD*%
D35*
%TO.C,SW4*%
X700000Y-32550000D03*
X700000Y-36250000D03*
D36*
X2650000Y-33175000D03*
D37*
X2650000Y-34400000D03*
D36*
X2650000Y-35625000D03*
%TD*%
D38*
%TO.C,C7*%
X12400000Y-40250000D03*
X12400000Y-42150000D03*
%TD*%
D30*
%TO.C,C12*%
X19600000Y-7570000D03*
X19600000Y-8530000D03*
%TD*%
D22*
%TO.C,R5*%
X49790000Y-37150000D03*
X50810000Y-37150000D03*
%TD*%
D34*
%TO.C,D2*%
X29662500Y-44500000D03*
X31537500Y-44500000D03*
%TD*%
D39*
%TO.C,D4*%
X44500000Y-38850000D03*
X44500000Y-34850000D03*
%TD*%
D19*
%TO.C,R7*%
X26410000Y-40700000D03*
X25390000Y-40700000D03*
%TD*%
D40*
%TO.C,D3*%
X15795000Y-31800000D03*
X17895000Y-31800000D03*
%TD*%
D41*
%TO.C,U7*%
X16800000Y-23525000D03*
X15530000Y-23525000D03*
X14260000Y-23525000D03*
X12990000Y-23525000D03*
X12990000Y-28475000D03*
X14260000Y-28475000D03*
X15530000Y-28475000D03*
X16800000Y-28475000D03*
%TD*%
D42*
%TO.C,U8*%
X6125000Y-19000000D03*
X5475000Y-19000000D03*
X4825000Y-19000000D03*
X4175000Y-19000000D03*
X4175000Y-17400000D03*
X4825000Y-17400000D03*
X5475000Y-17400000D03*
X6125000Y-17400000D03*
%TD*%
D35*
%TO.C,SW1*%
X52300000Y-24100000D03*
X52300000Y-27800000D03*
D36*
X50350000Y-27175000D03*
D37*
X50350000Y-25950000D03*
D36*
X50350000Y-24725000D03*
%TD*%
D29*
%TO.C,C25*%
X17220000Y-36250000D03*
X18180000Y-36250000D03*
%TD*%
D20*
%TO.C,U14*%
X23325000Y-34550000D03*
X23325000Y-33600000D03*
X23325000Y-32650000D03*
X21050000Y-32650000D03*
X21050000Y-34550000D03*
%TD*%
D43*
%TO.C,U10*%
X30550000Y-29062500D03*
X29600000Y-29062500D03*
X28650000Y-29062500D03*
X28650000Y-31337500D03*
X30550000Y-31337500D03*
%TD*%
D29*
%TO.C,C13*%
X15020000Y-8200000D03*
X15980000Y-8200000D03*
%TD*%
D14*
%TO.C,R16*%
X37100000Y-34040000D03*
X37100000Y-35060000D03*
%TD*%
D22*
%TO.C,RV1*%
X28990000Y-48400000D03*
X30010000Y-48400000D03*
%TD*%
D19*
%TO.C,R2*%
X31760000Y-40800000D03*
X30740000Y-40800000D03*
%TD*%
D22*
%TO.C,R1*%
X22240000Y-40800000D03*
X23260000Y-40800000D03*
%TD*%
D44*
%TO.C,C17*%
X3300000Y-11250000D03*
X5200000Y-11250000D03*
%TD*%
D35*
%TO.C,SW3*%
X52300000Y-49150000D03*
X52300000Y-45450000D03*
D36*
X50350000Y-48525000D03*
D37*
X50350000Y-47300000D03*
D36*
X50350000Y-46075000D03*
%TD*%
D29*
%TO.C,C10*%
X17570000Y-18500000D03*
X18530000Y-18500000D03*
%TD*%
D35*
%TO.C,SW2*%
X52300000Y-11400000D03*
X52300000Y-15100000D03*
D36*
X50350000Y-14475000D03*
D37*
X50350000Y-13250000D03*
D36*
X50350000Y-12025000D03*
%TD*%
D45*
%TO.C,R3*%
X14350000Y-31690000D03*
X14350000Y-32710000D03*
%TD*%
D13*
%TO.C,C18*%
X16780000Y-30300000D03*
X15820000Y-30300000D03*
%TD*%
D46*
%TO.C,U4*%
X13050000Y-16550000D03*
D47*
X15350000Y-10250000D03*
D46*
X15350000Y-16550000D03*
X17650000Y-16550000D03*
%TD*%
D19*
%TO.C,R8*%
X21610000Y-19050000D03*
X20590000Y-19050000D03*
%TD*%
D14*
%TO.C,R17*%
X36050000Y-34040000D03*
X36050000Y-35060000D03*
%TD*%
D30*
%TO.C,C16*%
X6600000Y-20220000D03*
X6600000Y-21180000D03*
%TD*%
D19*
%TO.C,R6*%
X50810000Y-38200000D03*
X49790000Y-38200000D03*
%TD*%
D48*
%TO.C,U6*%
X4300000Y-12850000D03*
X4300000Y-13850000D03*
X4300000Y-14850000D03*
X6300000Y-14850000D03*
X6300000Y-13850000D03*
X6300000Y-12850000D03*
%TD*%
D34*
%TO.C,D1*%
X19662500Y-44500000D03*
X21537500Y-44500000D03*
%TD*%
D33*
%TO.C,C15*%
X47330000Y-39600000D03*
X47330000Y-37700000D03*
%TD*%
D19*
%TO.C,R18*%
X21530000Y-14450000D03*
X20510000Y-14450000D03*
%TD*%
%TO.C,R23*%
X21480000Y-16500000D03*
X20460000Y-16500000D03*
%TD*%
D33*
%TO.C,C14*%
X47350000Y-36000000D03*
X47350000Y-34100000D03*
%TD*%
D21*
%TO.C,C19*%
X2700000Y-22330000D03*
X2700000Y-21370000D03*
%TD*%
D22*
%TO.C,R4*%
X20490000Y-10300000D03*
X21510000Y-10300000D03*
%TD*%
D44*
%TO.C,C24*%
X36562500Y-39100000D03*
X38462500Y-39100000D03*
%TD*%
D49*
%TO.C,U12*%
X32150000Y-31337500D03*
X33100000Y-31337500D03*
X34050000Y-31337500D03*
X34050000Y-29062500D03*
X32150000Y-29062500D03*
%TD*%
D50*
%TO.C,U2*%
X23300000Y-7595000D03*
X23300000Y-8865000D03*
X23300000Y-10135000D03*
X23300000Y-11405000D03*
X23300000Y-12675000D03*
X23300000Y-13945000D03*
X23300000Y-15215000D03*
X23300000Y-16485000D03*
X23300000Y-17755000D03*
X23300000Y-19025000D03*
X23300000Y-20295000D03*
X23300000Y-21565000D03*
X23300000Y-22835000D03*
X23300000Y-24105000D03*
D51*
X26340000Y-25355000D03*
X27610000Y-25355000D03*
X28880000Y-25355000D03*
X30150000Y-25355000D03*
X31420000Y-25355000D03*
X32690000Y-25355000D03*
X33960000Y-25355000D03*
X35230000Y-25355000D03*
X36500000Y-25355000D03*
X37770000Y-25355000D03*
D50*
X40800000Y-24105000D03*
X40800000Y-22835000D03*
X40800000Y-21565000D03*
X40800000Y-20295000D03*
X40800000Y-19025000D03*
X40800000Y-17755000D03*
X40800000Y-16485000D03*
X40800000Y-15215000D03*
X40800000Y-13945000D03*
X40800000Y-12675000D03*
X40800000Y-11405000D03*
X40800000Y-10135000D03*
X40800000Y-8865000D03*
X40800000Y-7595000D03*
D52*
X31370000Y-13410000D03*
X29845000Y-14935000D03*
X32895000Y-13410000D03*
X31370000Y-14935000D03*
X32895000Y-14935000D03*
X31370000Y-16460000D03*
X32895000Y-16460000D03*
X29845000Y-16460000D03*
X29845000Y-13410000D03*
%TD*%
D45*
%TO.C,R13*%
X5445000Y-21025000D03*
X5445000Y-20005000D03*
%TD*%
D22*
%TO.C,R20*%
X24777500Y-30050000D03*
X25797500Y-30050000D03*
%TD*%
D13*
%TO.C,C1*%
X16380000Y-33300000D03*
X15420000Y-33300000D03*
%TD*%
D43*
%TO.C,U11*%
X41550000Y-31537500D03*
X39650000Y-31537500D03*
X39650000Y-29262500D03*
X40600000Y-29262500D03*
X41550000Y-29262500D03*
%TD*%
M02*
