M48
INCH
T1C0.0118
T2C0.0120
%
G90
G05
T1
X0.0551Y-1.5748
X0.0551Y-1.6024
X0.0551Y-1.6339
X0.1024Y-1.2677
X0.1142Y-1.5118
X0.1142Y-1.5394
X0.1142Y-1.5669
X0.1535Y-0.8346
X0.2618Y-0.4429
X0.2661Y-0.7126
X0.2894Y-0.5453
X0.2972Y-0.8346
X0.3819Y-1.6654
X0.3839Y-1.2268
X0.3858Y-1.8583
X0.3858Y-1.8976
X0.3937Y-1.5
X0.4094Y-1.6654
X0.4094Y-1.878
X0.4331Y-1.8583
X0.4332Y-1.2755
X0.437Y-1.6654
X0.437Y-1.8976
X0.4409Y-1.3878
X0.4882Y-1.7126
X0.5118Y-0.7244
X0.5118Y-1.0
X0.5276Y-1.248
X0.5457Y-1.3214
X0.5551Y-1.6654
X0.5866Y-1.2008
X0.5866Y-1.6654
X0.6457Y-1.3543
X0.6457Y-1.3799
X0.6654Y-0.7598
X0.6693Y-0.3228
X0.6693Y-2.1299
X0.6909Y-1.3543
X0.6929Y-0.7598
X0.6929Y-1.0591
X0.6982Y-1.4589
X0.7205Y-1.0118
X0.7205Y-1.1142
X0.7283Y-0.7677
X0.748Y-2.1299
X0.7482Y-1.9339
X0.7657Y-0.8976
X0.7717Y-1.815
X0.7736Y-0.4488
X0.7811Y-0.8465
X0.7874Y-0.5157
X0.811Y-0.8425
X0.811Y-0.8854
X0.8189Y-1.0591
X0.8237Y-0.722
X0.8268Y-1.4567
X0.8269Y-0.5353
X0.8465Y-0.4961
X0.8465Y-0.6969
X0.8482Y-1.8589
X0.8543Y-0.9409
X0.8661Y-0.2992
X0.8661Y-2.1299
X0.878Y-1.2559
X0.9098Y-1.7283
X0.9213Y-1.2491
X0.9213Y-1.563
X0.9567Y-1.5
X0.9724Y-1.1457
X0.9744Y-1.252
X0.9982Y-1.8589
X1.0055Y-1.3745
X1.0354Y-0.8937
X1.0354Y-0.9409
X1.0394Y-1.248
X1.0394Y-1.5591
X1.0426Y-1.2953
X1.0559Y-1.8396
X1.0669Y-1.4764
X1.0768Y-1.063
X1.0896Y-1.7786
X1.0906Y-1.5
X1.1142Y-1.9134
X1.122Y-1.4764
X1.1232Y-1.3339
X1.126Y-1.0906
X1.1811Y-2.1299
X1.2323Y-1.6417
X1.2362Y-1.1457
X1.2883Y-1.4435
X1.2883Y-1.3585
X1.2992Y-2.1299
X1.3169Y-1.4455
X1.3169Y-1.3595
X1.3465Y-1.3595
X1.3465Y-1.4449
X1.3701Y-0.7638
X1.3819Y-1.9291
X1.4173Y-1.9291
X1.4843Y-1.0437
X1.5267Y-1.3885
X1.5276Y-1.8543
X1.5433Y-1.4094
X1.5748Y-0.9882
X1.5748Y-1.8543
X1.5831Y-1.252
X1.6693Y-1.1654
X1.6929Y-0.4705
X1.7032Y-0.3039
X1.7122Y-0.5236
X1.7579Y-0.9961
X1.7638Y-0.8543
X1.7831Y-0.9756
X1.7903Y-0.8767
X1.8094Y-0.9994
X1.8105Y-0.8538
X1.8307Y-0.5472
X1.8307Y-0.6378
X1.8307Y-0.874
X1.8313Y-0.9811
X1.8346Y-1.9134
X1.8568Y-0.8568
X1.8568Y-0.9995
X1.8701Y-1.8189
X1.8799Y-0.874
X1.881Y-0.9843
X1.9173Y-1.0709
X1.9193Y-0.5699
X1.937Y-1.3346
X1.9606Y-1.5394
X1.9843Y-0.937
X1.9843Y-1.9488
X2.0039Y-1.1654
X2.0472Y-1.3819
T2
X0.5118Y-1.3937
X0.5118Y-1.437
X0.5118Y-1.4803
X0.5551Y-1.3937
X0.5551Y-1.437
X0.5551Y-1.4803
X0.5984Y-1.3937
X0.5984Y-1.437
X0.5984Y-1.4803
X1.175Y-0.558
X1.175Y-0.618
X1.205Y-0.528
X1.205Y-0.588
X1.205Y-0.648
X1.235Y-0.558
X1.235Y-0.618
X1.2651Y-0.528
X1.2651Y-0.588
X1.2651Y-0.648
X1.2951Y-0.558
X1.2951Y-0.618
T0
M30
