%TF.GenerationSoftware,KiCad,Pcbnew,(6.0.9)*%
%TF.CreationDate,2023-05-10T13:01:55+05:30*%
%TF.ProjectId,Input_Panel(V2.0),496e7075-745f-4506-916e-656c2856322e,rev?*%
%TF.SameCoordinates,Original*%
%TF.FileFunction,Copper,L2,Bot*%
%TF.FilePolarity,Positive*%
%FSLAX46Y46*%
G04 Gerber Fmt 4.6, Leading zero omitted, Abs format (unit mm)*
G04 Created by KiCad (PCBNEW (6.0.9)) date 2023-05-10 13:01:55*
%MOMM*%
%LPD*%
G01*
G04 APERTURE LIST*
G04 Aperture macros list*
%AMRoundRect*
0 Rectangle with rounded corners*
0 $1 Rounding radius*
0 $2 $3 $4 $5 $6 $7 $8 $9 X,Y pos of 4 corners*
0 Add a 4 corners polygon primitive as box body*
4,1,4,$2,$3,$4,$5,$6,$7,$8,$9,$2,$3,0*
0 Add four circle primitives for the rounded corners*
1,1,$1+$1,$2,$3*
1,1,$1+$1,$4,$5*
1,1,$1+$1,$6,$7*
1,1,$1+$1,$8,$9*
0 Add four rect primitives between the rounded corners*
20,1,$1+$1,$2,$3,$4,$5,0*
20,1,$1+$1,$4,$5,$6,$7,0*
20,1,$1+$1,$6,$7,$8,$9,0*
20,1,$1+$1,$8,$9,$2,$3,0*%
G04 Aperture macros list end*
%TA.AperFunction,ComponentPad*%
%ADD10RoundRect,0.250000X-0.625000X0.350000X-0.625000X-0.350000X0.625000X-0.350000X0.625000X0.350000X0*%
%TD*%
%TA.AperFunction,ComponentPad*%
%ADD11O,1.750000X1.200000*%
%TD*%
%TA.AperFunction,ComponentPad*%
%ADD12C,1.600000*%
%TD*%
%TA.AperFunction,ComponentPad*%
%ADD13O,1.600000X1.600000*%
%TD*%
%TA.AperFunction,ComponentPad*%
%ADD14R,1.800000X1.800000*%
%TD*%
%TA.AperFunction,ComponentPad*%
%ADD15C,1.800000*%
%TD*%
%TA.AperFunction,Conductor*%
%ADD16C,0.203200*%
%TD*%
%TA.AperFunction,Conductor*%
%ADD17C,0.254000*%
%TD*%
G04 APERTURE END LIST*
D10*
%TO.P,J1,1,Pin_1*%
%TO.N,/BUTTON*%
X10550000Y-4000000D03*
D11*
%TO.P,J1,2,Pin_2*%
%TO.N,/GREEN_LED_1*%
X10550000Y-6000000D03*
%TO.P,J1,3,Pin_3*%
%TO.N,/GREEN_LED_2*%
X10550000Y-8000000D03*
%TO.P,J1,4,Pin_4*%
%TO.N,/GREEN_LED_3*%
X10550000Y-10000000D03*
%TO.P,J1,5,Pin_5*%
%TO.N,GND*%
X10550000Y-12000000D03*
%TD*%
D10*
%TO.P,J2,1,Pin_1*%
%TO.N,GND*%
X17700000Y-4000000D03*
D11*
%TO.P,J2,2,Pin_2*%
%TO.N,/BUTTON*%
X17700000Y-6000000D03*
%TD*%
D12*
%TO.P,R3,1*%
%TO.N,Net-(D2-Pad2)*%
X29680000Y-13200000D03*
D13*
%TO.P,R3,2*%
%TO.N,/GREEN_LED_1*%
X19520000Y-13200000D03*
%TD*%
D14*
%TO.P,D3,1,K*%
%TO.N,GND*%
X33500000Y-9275000D03*
D15*
%TO.P,D3,2,A*%
%TO.N,Net-(D3-Pad2)*%
X33500000Y-6735000D03*
%TD*%
D12*
%TO.P,R2,1*%
%TO.N,Net-(D4-Pad2)*%
X47700000Y-13100000D03*
D13*
%TO.P,R2,2*%
%TO.N,/GREEN_LED_3*%
X37540000Y-13100000D03*
%TD*%
D14*
%TO.P,D4,1,K*%
%TO.N,GND*%
X45500000Y-9275000D03*
D15*
%TO.P,D4,2,A*%
%TO.N,Net-(D4-Pad2)*%
X45500000Y-6735000D03*
%TD*%
D12*
%TO.P,R4,1*%
%TO.N,Net-(D3-Pad2)*%
X42000000Y-2600000D03*
D13*
%TO.P,R4,2*%
%TO.N,/GREEN_LED_2*%
X31840000Y-2600000D03*
%TD*%
D14*
%TO.P,D2,1,K*%
%TO.N,GND*%
X21500000Y-9275000D03*
D15*
%TO.P,D2,2,A*%
%TO.N,Net-(D2-Pad2)*%
X21500000Y-6735000D03*
%TD*%
D16*
%TO.N,Net-(D2-Pad2)*%
X29680000Y-8480000D02*
X29680000Y-13200000D01*
X21500000Y-6735000D02*
X27935000Y-6735000D01*
X27935000Y-6735000D02*
X29680000Y-8480000D01*
%TO.N,Net-(D3-Pad2)*%
X33500000Y-6735000D02*
X33500000Y-4500000D01*
X33500000Y-4500000D02*
X35400000Y-2600000D01*
X35400000Y-2600000D02*
X36600000Y-2600000D01*
D17*
X42000000Y-2600000D02*
X36600000Y-2600000D01*
%TO.N,/GREEN_LED_1*%
X13400000Y-6000000D02*
X14700000Y-7300000D01*
X16700000Y-13200000D02*
X19520000Y-13200000D01*
X14700000Y-7300000D02*
X14700000Y-11200000D01*
X14700000Y-11200000D02*
X16700000Y-13200000D01*
X10550000Y-6000000D02*
X13400000Y-6000000D01*
%TO.N,/GREEN_LED_2*%
X9100000Y-8000000D02*
X10550000Y-8000000D01*
X8400000Y-2400000D02*
X8400000Y-7300000D01*
X22300000Y-2600000D02*
X31840000Y-2600000D01*
X18700000Y-1400000D02*
X9400000Y-1400000D01*
X8400000Y-7300000D02*
X9100000Y-8000000D01*
X19900000Y-2600000D02*
X18700000Y-1400000D01*
X9400000Y-1400000D02*
X8400000Y-2400000D01*
X22300000Y-2600000D02*
X19900000Y-2600000D01*
%TO.N,Net-(D4-Pad2)*%
X41800000Y-11400000D02*
X43500000Y-13100000D01*
X41800000Y-8100000D02*
X41800000Y-11400000D01*
X43165000Y-6735000D02*
X41800000Y-8100000D01*
X45500000Y-6735000D02*
X43165000Y-6735000D01*
X43500000Y-13100000D02*
X47700000Y-13100000D01*
%TO.N,/GREEN_LED_3*%
X12900000Y-10700000D02*
X12900000Y-12200000D01*
X10550000Y-10000000D02*
X12200000Y-10000000D01*
X12200000Y-10000000D02*
X12900000Y-10700000D01*
X12900000Y-12200000D02*
X15600000Y-14900000D01*
X34100000Y-13100000D02*
X37540000Y-13100000D01*
X32300000Y-14900000D02*
X34100000Y-13100000D01*
X15600000Y-14900000D02*
X32300000Y-14900000D01*
D16*
%TO.N,/BUTTON*%
X17700000Y-6000000D02*
X15600000Y-6000000D01*
X13600000Y-4000000D02*
X10550000Y-4000000D01*
X15600000Y-6000000D02*
X13600000Y-4000000D01*
%TD*%
M02*
